<?xml version="1.0" encoding="utf-8"?>
<!-- Generator: Adobe Illustrator 16.0.0, SVG Export Plug-In . SVG Version: 6.00 Build 0)  -->
<!DOCTYPE svg PUBLIC "-//W3C//DTD SVG 1.1 Tiny//EN" "http://www.w3.org/Graphics/SVG/1.1/DTD/svg11-tiny.dtd">
<svg version="1.1" baseProfile="tiny" id="Layer_1" xmlns="http://www.w3.org/2000/svg" xmlns:xlink="http://www.w3.org/1999/xlink"
	 x="0px" y="0px" width="20px" height="20px" viewBox="0 0 20 20" xml:space="preserve">
<g>
	<path fill-rule="evenodd" fill="#FFFFFF" stroke="#DD0B16" stroke-width="0.5" stroke-miterlimit="10" d="M11.503,5.12
		c-0.031,0.033-0.063,0.062-0.093,0.091C9.159,7.465,6.906,9.717,4.652,11.97c-0.02,0.022-0.042,0.04-0.062,0.063
		c-0.012,0.014-0.021,0.031-0.034,0.05c0.033,0.032,0.062,0.063,0.091,0.091c1.063,1.064,2.125,2.127,3.188,3.189
		c0.016,0.015,0.032,0.032,0.048,0.048c0.015,0.013,0.029,0.021,0.049,0.037c0.034-0.034,0.063-0.063,0.093-0.093
		c2.251-2.252,4.501-4.502,6.753-6.753c0.022-0.022,0.046-0.044,0.067-0.068c0.013-0.014,0.021-0.031,0.031-0.045
		C14.814,8.413,11.575,5.176,11.503,5.12z M15.123,4.049c-0.029-0.026-0.057-0.054-0.084-0.081
		c-0.559-0.558-1.115-1.115-1.671-1.673c-0.03-0.03-0.061-0.061-0.093-0.088c-0.214-0.178-0.521-0.18-0.735,0
		c-0.026,0.022-0.051,0.048-0.077,0.074c-0.351,0.351-0.702,0.701-1.053,1.053c-0.026,0.026-0.052,0.05-0.074,0.078
		c-0.123,0.15-0.164,0.32-0.118,0.509c0.028,0.122,0.102,0.216,0.188,0.302c1.456,1.456,2.914,2.915,4.372,4.371
		c0.022,0.023,0.045,0.047,0.07,0.067c0.212,0.184,0.527,0.185,0.74,0.003c0.023-0.02,0.044-0.041,0.063-0.061
		c0.359-0.358,0.717-0.716,1.074-1.074c0.02-0.018,0.037-0.037,0.054-0.056c0.139-0.16,0.179-0.344,0.122-0.545
		c-0.028-0.101-0.083-0.182-0.155-0.254c-0.149-0.146-0.295-0.295-0.44-0.441c-0.431-0.429-0.859-0.858-1.288-1.288
		c-0.024-0.025-0.057-0.044-0.065-0.081c0.065-0.082,0.755-0.768,0.817-0.813c0.026,0.011,0.057,0.023,0.087,0.035
		c0.188,0.082,0.389,0.129,0.593,0.142c0.328,0.019,0.638-0.049,0.931-0.197c0.087-0.044,0.16-0.112,0.255-0.14
		c0.068-0.069,0.142-0.135,0.208-0.204c0.433-0.463,0.594-1.006,0.466-1.625c-0.208-0.999-1.224-1.629-2.229-1.35
		c-1.039,0.29-1.594,1.421-1.166,2.433c0.011,0.029,0.023,0.059,0.032,0.077C15.67,3.502,15.399,3.772,15.123,4.049z M4.964,13.294
		c-0.03,0.027-0.056,0.05-0.08,0.076c-0.638,0.638-1.276,1.275-1.914,1.913c-0.023,0.024-0.046,0.047-0.067,0.069
		c-0.197,0.222-0.197,0.544,0,0.765c0.015,0.017,0.032,0.032,0.047,0.049c0.011,0.013,0.02,0.029,0.03,0.046
		c-0.03,0.027-0.055,0.055-0.079,0.079c-0.677,0.679-1.354,1.357-2.03,2.031c-0.026,0.027-0.052,0.05-0.076,0.077
		c-0.085,0.094-0.133,0.207-0.145,0.334c-0.02,0.231,0.104,0.453,0.313,0.558c0.209,0.106,0.461,0.071,0.637-0.083
		c0.026-0.024,0.051-0.049,0.076-0.076c0.672-0.669,1.345-1.342,2.017-2.016c0.02-0.02,0.041-0.04,0.062-0.062
		c0.014-0.01,0.029-0.02,0.045-0.031c0.028,0.024,0.052,0.047,0.075,0.068c0.05,0.047,0.106,0.085,0.171,0.109
		c0.214,0.082,0.415,0.053,0.593-0.095c0.03-0.024,0.057-0.054,0.084-0.082c0.636-0.635,1.271-1.271,1.906-1.906
		c0.028-0.026,0.059-0.049,0.077-0.087c-0.006-0.01-0.009-0.02-0.016-0.024c-0.563-0.565-1.128-1.129-1.693-1.695
		C4.991,13.307,4.981,13.303,4.964,13.294z"/>
	<path fill-rule="evenodd" fill="#FFFFFF" stroke="#DD0B16" stroke-width="0.5" stroke-miterlimit="10" d="M11.503,5.12
		c0.072,0.056,3.312,3.292,3.373,3.368c-0.01,0.015-0.019,0.032-0.031,0.045c-0.021,0.023-0.045,0.045-0.067,0.068
		c-2.252,2.251-4.502,4.501-6.753,6.753c-0.029,0.03-0.059,0.059-0.093,0.093c-0.02-0.016-0.034-0.024-0.049-0.037
		c-0.016-0.016-0.032-0.033-0.048-0.048C6.773,14.3,5.71,13.237,4.647,12.173c-0.029-0.027-0.058-0.059-0.091-0.091
		c0.012-0.019,0.022-0.036,0.034-0.05c0.02-0.022,0.042-0.04,0.062-0.063c2.254-2.253,4.507-4.504,6.758-6.759
		C11.44,5.182,11.472,5.153,11.503,5.12z"/>
	<path fill-rule="evenodd" fill="#FFFFFF" stroke="#DD0B16" stroke-width="0.5" stroke-miterlimit="10" d="M15.123,4.049
		c0.276-0.277,0.547-0.547,0.824-0.825c-0.009-0.018-0.021-0.048-0.032-0.077c-0.428-1.012,0.127-2.143,1.166-2.433
		c1.005-0.279,2.021,0.351,2.229,1.35c0.128,0.619-0.033,1.162-0.466,1.625c-0.066,0.069-0.14,0.135-0.208,0.204
		c-0.095,0.028-0.168,0.096-0.255,0.14c-0.293,0.147-0.603,0.216-0.931,0.197c-0.204-0.013-0.405-0.06-0.593-0.142
		c-0.03-0.012-0.061-0.024-0.087-0.035c-0.063,0.045-0.752,0.73-0.817,0.813c0.009,0.037,0.041,0.056,0.065,0.081
		c0.429,0.43,0.857,0.859,1.288,1.288c0.146,0.146,0.291,0.294,0.44,0.441c0.072,0.072,0.127,0.154,0.155,0.254
		c0.057,0.201,0.017,0.385-0.122,0.545c-0.017,0.019-0.034,0.038-0.054,0.056c-0.357,0.358-0.715,0.716-1.074,1.074
		c-0.02,0.02-0.04,0.041-0.063,0.061c-0.213,0.182-0.528,0.181-0.74-0.003c-0.025-0.02-0.048-0.044-0.07-0.067
		c-1.458-1.457-2.916-2.915-4.372-4.371c-0.087-0.086-0.16-0.18-0.188-0.302c-0.046-0.189-0.005-0.359,0.118-0.509
		c0.022-0.028,0.048-0.052,0.074-0.078c0.351-0.352,0.702-0.702,1.053-1.053c0.026-0.026,0.051-0.051,0.077-0.074
		c0.215-0.179,0.521-0.177,0.735,0c0.032,0.027,0.063,0.058,0.093,0.088c0.556,0.558,1.112,1.115,1.671,1.673
		C15.066,3.996,15.094,4.023,15.123,4.049z"/>
	<path fill-rule="evenodd" fill="#FFFFFF" stroke="#DD0B16" stroke-width="0.5" stroke-miterlimit="10" d="M4.964,13.294
		c0.017,0.009,0.027,0.013,0.034,0.018c0.564,0.566,1.129,1.13,1.693,1.695c0.007,0.005,0.01,0.015,0.016,0.024
		c-0.018,0.038-0.049,0.061-0.077,0.087c-0.635,0.636-1.27,1.271-1.906,1.906c-0.027,0.028-0.054,0.058-0.084,0.082
		c-0.178,0.147-0.378,0.177-0.593,0.095c-0.064-0.024-0.121-0.063-0.171-0.109c-0.023-0.021-0.047-0.044-0.075-0.068
		c-0.016,0.012-0.032,0.021-0.045,0.031c-0.021,0.021-0.042,0.042-0.062,0.062c-0.672,0.674-1.345,1.347-2.017,2.016
		c-0.025,0.027-0.05,0.052-0.076,0.076c-0.176,0.154-0.428,0.189-0.637,0.083c-0.209-0.104-0.333-0.326-0.313-0.558
		c0.012-0.127,0.06-0.24,0.145-0.334c0.024-0.027,0.05-0.05,0.076-0.077c0.676-0.674,1.353-1.353,2.03-2.031
		c0.024-0.024,0.049-0.052,0.079-0.079c-0.011-0.017-0.019-0.033-0.03-0.046c-0.016-0.017-0.033-0.032-0.047-0.049
		c-0.197-0.221-0.197-0.543,0-0.765c0.021-0.022,0.044-0.045,0.067-0.069c0.638-0.638,1.276-1.275,1.914-1.913
		C4.908,13.344,4.934,13.321,4.964,13.294z"/>
</g>
</svg>
