<svg id="first-aid-cross-in-black-inside-a-circle" xmlns="http://www.w3.org/2000/svg" width="10.443" height="10.443" viewBox="0 0 10.443 10.443">
  <path id="Path_4" data-name="Path 4" d="M5.222,0a5.222,5.222,0,1,0,5.222,5.222A5.228,5.228,0,0,0,5.222,0Zm0,9.934A4.712,4.712,0,1,1,9.934,5.222,4.718,4.718,0,0,1,5.222,9.934ZM8.194,4.1V6.345a.141.141,0,0,1-.141.141H6.486V8.053a.141.141,0,0,1-.141.14H4.1a.14.14,0,0,1-.14-.14V6.486H2.39a.14.14,0,0,1-.14-.141V4.1a.14.14,0,0,1,.14-.14H3.958V2.39a.14.14,0,0,1,.14-.14H6.345a.141.141,0,0,1,.141.14V3.958H8.053A.14.14,0,0,1,8.194,4.1Z" fill="#a5a5a5"/>
</svg>
