<svg xmlns="http://www.w3.org/2000/svg" width="347.072" height="512" viewBox="0 0 347.072 512">
  <g id="alcohol" transform="translate(-789.383 -454.993)">
    <path id="Path_3" data-name="Path 3" d="M1023.613,454.993c24.443,64.837,35.966,131.965,37.481,201.167,1.093,49.8-24.749,81.117-67.471,99.972-16.155,7.131-21.906,15.558-21.394,32.893,1.238,41.451.383,82.963.585,124.45.079,16.164,1.8,17.535,17.976,18.99a263.528,263.528,0,0,1,26.542,3.478c7.754,1.5,14.32,5.517,13.387,14.725-.9,8.909-7.365,12.132-15.677,12.211q-59.977.562-119.952,1.09c-8.643.081-16.4-2.456-16.847-12.022-.441-9.527,4.978-15.831,15.418-16.886,10.039-1.015,19.986-2.926,30.03-3.858,6.808-.631,9.52-3.841,9.512-10.462q-.094-72.681.028-145.361c.009-6.956-2.84-10.576-9.536-13.9-14.492-7.192-29.022-14.984-41.815-24.776-23.443-17.942-35.1-42.187-35.5-72.326-.674-50.831,7.664-100.382,19.54-149.446,4.9-20.231,11.807-39.975,17.8-59.941ZM1012.2,950.133q.122-2.231.242-4.461c-11.741-.887-23.473-2.072-35.231-2.57-10.305-.438-15.73-4.612-15.714-15.563q.1-78.5-.254-157c-.023-7.517,3.315-12.174,10.209-15.2,10.639-4.675,21.422-9.247,31.412-15.109,26.793-15.731,45.627-37.342,47.269-70.031,3.276-65.182-10.44-127.83-28.9-189.741-2.416-8.1-7.085-11.65-16.152-11.517-34.161.491-68.343.57-102.5-.04-9.855-.175-14.215,4-16.421,12.525-13.182,51-25.628,102.123-29.316,154.922-2.492,35.664.28,69.859,32.282,93.021,13.656,9.887,29.153,17.444,44.4,24.864,7.958,3.872,12.48,8.33,12.443,17.384-.2,51.169-.077,102.342-.431,153.511-.1,14.916-2.886,17.048-17.941,18.064-10.918.736-21.816,1.73-32.725,2.607q.136,2.172.271,4.342Q953.662,950.132,1012.2,950.133Z" transform="translate(75.327 0)" fill="#208fb8" fill-rule="evenodd"/>
    <path id="Path_4" data-name="Path 4" d="M851.305,613.653c29.834,0,59.67.219,89.5-.131,9.9-.117,13.1,3,11.026,13.147q-11.621,56.813-22.114,113.853c-2.084,11.317-6.521,16.558-19.179,16.115-27.9-.972-55.848-.357-83.78-.247-7.274.028-12.476-1.243-14.059-10.056-7.141-39.662-14.868-79.218-22.291-118.829-2.38-12.7-1.459-13.742,12.016-13.826C818.718,613.579,835.013,613.656,851.305,613.653Zm19.9,135.5c3.94-3.222,8.5-5.556,10.921-9.282a48.569,48.569,0,0,0,6.43-16.115c3.98-18.869,11.154-33.257,34.054-33.7,7.71-.149,14.691-6.279,12.919-15.906-2.667-14.458-6.339-28.729-9.4-43.119-1.914-8.995-7.75-12.339-16.167-10.867-14.5,2.532-28.966,5.37-43.317,8.636-9.566,2.178-13.45,8.559-10.848,18.317.8,2.989,1.853,5.908,2.7,8.885,2.117,7.421.821,11.233-8.3,9.34-14.611-3.038-18.255-.532-22.9,13.621-3.742,11.4-6.848,23.091-11.676,34.015-3.691,8.34-1.457,14.409,5.479,17.382C837.03,737.182,853.546,742.636,871.2,749.157Z" transform="translate(0 210.328)" fill="#208fb8" fill-rule="evenodd"/>
  </g>
</svg>
