<svg id="analysis" xmlns="http://www.w3.org/2000/svg" width="145.35" height="174.421" viewBox="0 0 145.35 174.421">
  <path id="Path_55" data-name="Path 55" d="M100.024,2H24.442A17.46,17.46,0,0,0,7,19.442V158.979a17.46,17.46,0,0,0,17.442,17.442h75.582a17.46,17.46,0,0,0,17.442-17.442V141.536h20.349A14.552,14.552,0,0,0,152.35,127v-5.814a2.908,2.908,0,0,0-2.907-2.907H134.908V57.233A14.552,14.552,0,0,0,120.373,42.7h-2.907V19.442A17.46,17.46,0,0,0,100.024,2ZM77.3,7.814a8.623,8.623,0,0,0-.535,2.907,2.912,2.912,0,0,1-2.907,2.907H50.605A2.912,2.912,0,0,1,47.7,10.721a8.623,8.623,0,0,0-.535-2.907Zm34.349,151.164a11.64,11.64,0,0,1-11.628,11.628H24.442a11.64,11.64,0,0,1-11.628-11.628V19.442A11.64,11.64,0,0,1,24.442,7.814H38.977a2.912,2.912,0,0,1,2.907,2.907,8.732,8.732,0,0,0,8.721,8.721H73.861a8.732,8.732,0,0,0,8.721-8.721,2.912,2.912,0,0,1,2.907-2.907h14.535a11.64,11.64,0,0,1,11.628,11.628V42.7H62.233A14.562,14.562,0,0,0,47.992,54.326H33.163a2.908,2.908,0,0,0-2.907,2.907v52.326a2.908,2.908,0,0,0,2.907,2.907H65.14v-5.814H36.07V60.14H65.14V54.326H54.047a8.7,8.7,0,0,1,16.907,2.907v72.675a11.64,11.64,0,0,0,11.628,11.628h29.07ZM146.536,127a8.732,8.732,0,0,1-8.721,8.721H92.649a11.54,11.54,0,0,0,1.561-5.814v-5.814h52.326ZM129.094,57.233V118.28H91.3a2.908,2.908,0,0,0-2.907,2.907v8.721a5.814,5.814,0,1,1-11.628,0V57.233a14.385,14.385,0,0,0-2.983-8.721h46.588A8.732,8.732,0,0,1,129.094,57.233Z" transform="translate(-7 -2)" fill="#334bac"/>
  <path id="Path_56" data-name="Path 56" d="M16.814,148.443V14.721a2.912,2.912,0,0,1,2.907-2.907h5.814V6H19.721A8.732,8.732,0,0,0,11,14.721V148.443a8.732,8.732,0,0,0,8.721,8.721H86.582v-5.814H19.721A2.912,2.912,0,0,1,16.814,148.443Z" transform="translate(0.628 5.628)" fill="#334bac"/>
  <path id="Path_57" data-name="Path 57" d="M34.535,27.907H31.628V25H25.814v2.907H22.907A2.908,2.908,0,0,0,20,30.814v8.721a2.908,2.908,0,0,0,2.907,2.907h8.721v2.907H20v2.907a2.908,2.908,0,0,0,2.907,2.907h2.907V54.07h5.814V51.163h2.907a2.908,2.908,0,0,0,2.907-2.907V39.535a2.908,2.908,0,0,0-2.907-2.907H25.814V33.721H37.442V30.814A2.908,2.908,0,0,0,34.535,27.907Z" transform="translate(17.791 41.861)" fill="#334bac"/>
  <path id="Path_58" data-name="Path 58" d="M16,42H47.977v5.814H16Z" transform="translate(10.163 74.28)" fill="#334bac"/>
  <path id="Path_59" data-name="Path 59" d="M16,46H47.977v5.814H16Z" transform="translate(10.163 81.908)" fill="#334bac"/>
  <path id="Path_60" data-name="Path 60" d="M16,50H47.977v5.814H16Z" transform="translate(10.163 89.536)" fill="#334bac"/>
  <path id="Path_61" data-name="Path 61" d="M53.349,65.7A20.349,20.349,0,1,0,33,45.349,20.371,20.371,0,0,0,53.349,65.7ZM61.57,48.256h6.02A14.356,14.356,0,0,1,66.2,52Zm6.02-5.814H56.256V31.108A14.58,14.58,0,0,1,67.591,42.442ZM50.442,31.108V45.349a2.853,2.853,0,0,0,1.108,2.227l-.026.035,11.018,8.907A14.454,14.454,0,0,1,38.814,45.349,14.562,14.562,0,0,1,50.442,31.108Z" transform="translate(42.582 41.861)" fill="#334bac"/>
  <path id="Path_62" data-name="Path 62" d="M16,11H85.768v5.814H16Z" transform="translate(10.163 15.163)" fill="#334bac"/>
</svg>
