<svg xmlns="http://www.w3.org/2000/svg" width="512" height="409.575" viewBox="0 0 512 409.575">
  <g id="arv" transform="translate(-55.999 -96.008)">
    <path id="Path_1" data-name="Path 1" d="M56,482.544c5.76,0,11.562.394,17.257-.218,2-.214,4.924-2.6,5.4-4.5,14.059-55.75,26.973-111.8,41.989-167.29,12-44.345,26.743-87.942,39.817-132.006,8.137-27.424,28.872-42.272,52.5-54.337a141.438,141.438,0,0,1,66.567-15.524c9.386.09,18.777-.143,28.159.095,4.486.114,7.08-1.011,6.324-6.031-.826-5.494,1.779-6.744,6.934-6.719q57.918.282,115.838-.005c5.659-.029,8.568,1.274,7.64,7.438-.659,4.371,1.773,5.946,5.674,5.216,13.5-2.523,22.066,4.995,29.842,14.319,19.345,23.191,26.674,50.45,27.265,80.037.085,4.264-2.308,4.808-5.733,4.785-13.652-.09-27.306-.063-40.959-.061q-89.919.011-179.838.064c-24.4.045-42.153,12.968-49.213,36-1.526,4.979-1.706,10.509-1.729,15.789-.146,34.346.088,68.693-.23,103.037-.056,6.161,1.971,7.391,7.636,7.384q159.039-.217,318.077-.106H568v17.92c-4.457.256-8.913.676-13.372.733-9.24.119-9.242.04-9.253,9.07-.01,8.475-.01,8.434-8.342,8.43q-59.8-.033-119.6-.009c-13.032.012-10.644.3-10.529-10.524.054-4.954-.856-7.1-6.615-7.075q-81.866.347-163.733.027c-5.286-.018-7.041,1.457-7,6.81q.323,40.61,0,81.225c-.038,4.882,1.613,6.148,6.258,6.143,13.323-.017,13.323.166,13.318,13.582,0,9.189,0,9.18-8.942,9.188q-92.1.075-184.192.159Q56,494.065,56,482.544ZM432.659,155.1c2.543,0,5.1-.15,7.631.033,4.184.3,4.808-1.972,4.836-5.5.029-3.671-.941-5.573-4.986-5.4-4.868.209-9.757.195-14.628.008-4.045-.155-5.591,1.332-5.622,5.541-.029,4.4,1.9,5.581,5.77,5.34C427.986,154.985,430.325,155.1,432.659,155.1Zm-63.058-.119c3.887.646,6.015-.488,6.04-5.29.027-4.9-2.395-5.477-6.3-5.466-3.706.012-5.884.683-5.893,5.193C363.441,153.9,364.988,155.728,369.6,154.984Zm18.766.063c3.816.518,5.9-.548,5.809-5.074-.081-3.921-.943-5.888-5.323-5.778-3.973.1-6.395.717-6.321,5.583C382.6,154.12,384.374,155.532,388.367,155.047Zm18.153.019c3.652.2,6.465.027,6.5-4.795.031-4.352-1.329-6.166-5.833-6.077-3.807.076-5.942.765-5.818,5.288C401.476,153.394,402.251,155.765,406.52,155.066Z" transform="translate(0 0)" fill="#27709a" fill-rule="evenodd"/>
    <path id="Path_2" data-name="Path 2" d="M399.214,436.816h53.045c16.656,0,16.51,0,16.4-17.027-.028-4.432-1.343-6.451-5.821-5.808-5.418.778-6.286-2.051-6.237-6.753.21-19.382.1-38.77.087-58.156-.005-8.04-.176-8.214-8.27-8.217-32.593-.012-65.189.157-97.78-.142-6.4-.058-8.509,1.661-8.379,8.224.4,19.8.132,39.62.161,59.432.005,2.9.139,6.194-4.013,5.491-8.464-1.435-8.932,3.451-8.357,9.659a39.209,39.209,0,0,1-.01,7.66c-.48,4.595,1.533,5.767,5.9,5.728C357.032,436.716,378.123,436.82,399.214,436.816Z" transform="translate(76.839 68.607)" fill="#27709a" fill-rule="evenodd"/>
    <path id="Path_3" data-name="Path 3" d="M341.052,272.227c-5.409,5.9-12.238,7.561-19.211,8.412-11.049,1.348-21.467-1.312-31.459-5.944-7.165-3.322-13.592-1.526-17.021,4.706-3.281,5.964-.831,13.645,6.051,17.18,30.845,15.844,67.192,11.894,91.574-16.935,4.2-4.971,8.224-6.786,14.572-6.2,30.31,2.813,60.664,5.15,90.978,7.925a30.393,30.393,0,0,1,12.054,3.611c6.073,3.486,8.29,11.735,5.757,17.968-2.844,7-9.4,10.372-17.611,9.656-33.292-2.9-66.6-5.63-99.893-8.513-4.289-.371-7.538.506-10.761,3.835-6.133,6.332-14.706,7.309-22.922,8.407-20.533,2.744-40.821,1.386-60.605-4.926-10.237-3.266-18.023-9.44-21.018-20.386-3.095-11.308,2.422-20.849,14.009-22.822,5.341-.909,10.99-.506,16.455-.1C308.08,269.294,324.137,270.783,341.052,272.227Z" transform="translate(57.55 48.089)" fill="#27709a" fill-rule="evenodd"/>
    <path id="Path_4" data-name="Path 4" d="M345.138,186.008c14.272,0,28.547.119,42.817-.072,4.274-.056,6.318,1,5.9,5.72-.393,4.44.06,8.948-.157,13.411-.338,6.958-4.752,11.852-11.643,11.909q-37.7.324-75.406.014c-6.315-.046-10.448-4.366-11.538-10.766-3.124-18.312-1.542-20.219,16.794-20.219Z" transform="translate(66.665 25.188)" fill="#27709a" fill-rule="evenodd"/>
    <path id="Path_5" data-name="Path 5" d="M241.533,260.05a27.925,27.925,0,0,1,27.7,27.6c.134,15.281-12.714,28.278-27.879,28.2a27.9,27.9,0,0,1,.178-55.8Z" transform="translate(44.21 45.962)" fill="#27709a" fill-rule="evenodd"/>
    <path id="Path_6" data-name="Path 6" d="M312.49,307.515c-11.444-3.485-23.076-6.467-34.257-10.65a10.041,10.041,0,0,1-5.5-14.208c2.633-4.864,7.98-5.824,14.487-2.955,24.55,10.825,46.932,7.875,65.283-13.852,1.748-2.07,3.783-4.366,6.176-5.317,4.272-1.7,9.169-1.032,11.111,3.363,1.4,3.164,1.953,8.513.2,10.962-10.684,14.909-24.547,25.6-43.193,28.889-4.581.808-9.133,1.779-13.7,2.675Q312.8,306.968,312.49,307.515Z" transform="translate(60.415 45.851)" fill="#27709a" fill-rule="evenodd"/>
    <path id="Path_7" data-name="Path 7" d="M399.213,436.818c-21.09,0-42.18-.1-63.27.087-4.368.038-6.381-1.134-5.9-5.728a39.305,39.305,0,0,0,.01-7.66c-.575-6.207-.107-11.093,8.357-9.659,4.152.7,4.018-2.589,4.013-5.491-.029-19.811.235-39.628-.161-59.432-.132-6.563,1.982-8.281,8.379-8.224,32.591.3,65.187.132,97.78.142,8.093,0,8.265.178,8.27,8.217.013,19.385.123,38.773-.087,58.156-.05,4.7.818,7.532,6.237,6.753,4.478-.643,5.792,1.376,5.821,5.808.111,17.027.257,17.027-16.4,17.027Z" transform="translate(76.839 68.607)" fill="#27709a" fill-rule="evenodd"/>
  </g>
</svg>
