<svg id="ashtray" xmlns="http://www.w3.org/2000/svg" width="194.215" height="194.214" viewBox="0 0 194.215 194.214">
  <path id="Path_210" data-name="Path 210" d="M132.831,10.754a4.048,4.048,0,0,0-2.306,7.76A89.025,89.025,0,0,1,105.1,192.855a88.057,88.057,0,0,1-50.072-15.5l66.227-66.223a4.044,4.044,0,0,0,0-5.721L103.531,87.686a4.041,4.041,0,0,0-5.721,0L31.579,153.917a88.13,88.13,0,0,1-15.488-50.076A89.08,89.08,0,0,1,88.2,16.434a4.048,4.048,0,1,0-1.525-7.95A97.19,97.19,0,0,0,8,103.841a96.131,96.131,0,0,0,17.778,55.882L9.185,176.315a4.041,4.041,0,0,0,0,5.721L26.91,199.765a4.044,4.044,0,0,0,5.721,0l16.6-16.6a96.07,96.07,0,0,0,55.878,17.786,97.121,97.121,0,0,0,27.722-190.2ZM100.67,96.268l12.008,12.008-12.008,12-12-12.008Zm-70.9,94.912-12-12.008,65.179-65.179L94.95,126Z" transform="translate(-7.999 -6.737)" fill="#fff"/>
  <path id="Path_211" data-name="Path 211" d="M51.726,159.414a71.443,71.443,0,0,1-20.97-3.127,4.045,4.045,0,0,0-2.371,7.736A79.4,79.4,0,0,0,79.739,13.836a4.046,4.046,0,1,0-2.86,7.57A71.3,71.3,0,0,1,51.726,159.414Z" transform="translate(45.38 8.975)" fill="#fff"/>
  <path id="Path_212" data-name="Path 212" d="M66.57,21.408a4.046,4.046,0,0,0-2.86-7.57,79.486,79.486,0,0,0-47.842,97.619,4.047,4.047,0,1,0,7.736-2.379A71.388,71.388,0,0,1,66.57,21.408Z" transform="translate(5.346 8.989)" fill="#fff"/>
  <path id="Path_213" data-name="Path 213" d="M39.292,55.15c4.628,3.467,7.242,5.648,7.242,10.05a4.046,4.046,0,1,0,8.092,0c0-8.666-5.814-13.024-10.479-16.523C39.518,45.209,36.9,43.028,36.9,38.622s2.618-6.583,7.242-10.05c4.669-3.5,10.483-7.857,10.483-16.527a4.046,4.046,0,1,0-8.092,0c0,4.41-2.618,6.587-7.246,10.054-4.665,3.5-10.479,7.857-10.479,16.523S34.623,51.65,39.292,55.15Z" transform="translate(55.387 -7.999)" fill="#fff"/>
</svg>
