<svg xmlns="http://www.w3.org/2000/svg" width="33.656" height="48.042" viewBox="0 0 33.656 48.042">
  <g id="baby-with-diaper_2_" data-name="baby-with-diaper (2)" transform="translate(-11.908)">
    <path id="Path_38" data-name="Path 38" d="M35.723,30.428s4.592,4.6,4.6,4.6c1.464,1.476,1.085,4.069-.3,5.48l-6.405,6.675a2.386,2.386,0,1,1-3.379-3.347L34.3,39.774l-3.978-3.947,5.4-5.4Zm-14.282,0h0s-4.585,4.6-4.585,4.6c-1.476,1.476-1.1,4.069.275,5.48l6.434,6.675a2.386,2.386,0,1,0,3.382-3.347L22.89,39.774l3.948-3.947-5.4-5.4m7.3-17.1A6.663,6.663,0,1,0,22.07,6.653,6.661,6.661,0,0,0,28.742,13.325ZM35.961,27.76l.1-4.545L41.6,28.382a2.314,2.314,0,0,0,1.608.632,2.355,2.355,0,0,0,1.61-4.079s-6.349-6.9-7.263-7.7c-1.689-1.5-4.166-2.347-8.186-2.347H28.107c-4.022,0-6.5.849-8.192,2.344-.91.8-7.26,7.707-7.26,7.707a2.355,2.355,0,0,0,1.611,4.079,2.326,2.326,0,0,0,1.611-.632l5.537-5.164.1,4.544H35.962v0Z" fill="#010002"/>
  </g>
</svg>
