<svg xmlns="http://www.w3.org/2000/svg" xmlns:xlink="http://www.w3.org/1999/xlink" width="16" height="16" viewBox="0 0 16 16">
  <defs>
    <clipPath id="clip-path">
      <rect width="16" height="16" fill="none"/>
    </clipPath>
  </defs>
  <g id="Bedroom" clip-path="url(#clip-path)">
    <rect id="Rectangle_562" data-name="Rectangle 562" width="16" height="16" fill="none"/>
    <path id="Path_150" data-name="Path 150" d="M4.267,13.833a1.9,1.9,0,0,1-.267.8c-.267.267-.4.267-.8.267H1.067a1.9,1.9,0,0,1-.8-.267C0,14.5,0,14.1,0,13.833V7.7a1.21,1.21,0,0,1,.4-.933l.8-.4A17.338,17.338,0,0,1,7.867,5.3,18.385,18.385,0,0,1,14.8,6.367c.267.133.4.267.667.4A1.007,1.007,0,0,1,16,7.7v6.133a1.9,1.9,0,0,1-.267.8c-.133.267-.4.267-.8.267H12.8a1.9,1.9,0,0,1-.8-.267c-.267-.133-.267-.4-.267-.8V12.767H4.267Zm.4-10.8a5.527,5.527,0,0,0-2.133.4c-.667.4-1.2.667-1.467,1.2v-2.4a.806.806,0,0,1,.4-.8C2.8.5,4.933.1,8,.1H9.867a8.964,8.964,0,0,1,2.4.4,7.251,7.251,0,0,1,2.267.933,1.152,1.152,0,0,1,.4.8v2.4a3.228,3.228,0,0,0-1.467-1.067,5.527,5.527,0,0,0-2.133-.4,4.259,4.259,0,0,0-1.867.4A3.749,3.749,0,0,0,8,4.233a7.23,7.23,0,0,0-1.467-.8A4.259,4.259,0,0,0,4.667,3.033Z" transform="translate(0 0.9)" fill="#1e8ce9"/>
  </g>
</svg>
