<svg xmlns="http://www.w3.org/2000/svg" width="98.419" height="66.416" viewBox="0 0 98.419 66.416">
  <g id="birth1" transform="translate(-844.999 -461.916)">
    <path id="Path_167" data-name="Path 167" d="M891.341,554.485c-2.32,1.883-2.377,2.334-.461,4.187,2.45,2.371,4.952,4.689,7.43,7.031,3.253,3.073,10.838,2,11.995-2.664.314-1.266,1.254-1.784,2.678-1.76,4.967.086,9.937.006,14.906.043,3.554.026,6.1,2.276,6.142,5.313a5.211,5.211,0,0,1-4.9,5.152c-10.708.055-21.416.087-32.123-.018-3.058-.03-5.557-1.8-7.931-3.569-5.672-4.225-11.256-8.573-17.016-12.672a8.7,8.7,0,0,0-4.636-1.3c-6.436-.141-12.876-.053-19.315-.062-2.779,0-3.109-.345-3.11-3.113,0-4.609,0-9.218,0-14.1h2.351c11.548,0,23.1.044,34.643-.032a9.889,9.889,0,0,1,7.1,2.812c5.823,5.525,11.6,11.107,17.224,16.831,2.414,2.457,2.117,5.15.067,7.094-2.121,2.011-4.944,1.288-6.89-.618C896.709,560.319,894.108,557.41,891.341,554.485Z" transform="translate(0 -43.508)" fill="#fff" fill-rule="evenodd"/>
    <path id="Path_168" data-name="Path 168" d="M995.534,494.808c-.752,3.663-1.5,7.276-2.234,10.889-1.339,6.555-8.716,10.139-14.356,4.966-5.285-4.847-10.209-10.112-15.045-15.418-3.285-3.6-2.828-7.465.559-11.287,3.277-3.7,6.961-7.031,10.583-10.641a57.159,57.159,0,0,1-4.24-3.895c-1.217-1.359-2.106-3-1.023-4.884.995-1.727,2.412-2.952,4.561-2.546a4.825,4.825,0,0,1,2.3,1.2c2.53,2.411,4.988,4.9,7.435,7.4a3.837,3.837,0,0,1-.027,5.847c-1.954,2-4,3.918-5.881,5.982-.392.43-.6,1.665-.3,1.987,2.356,2.558,4.854,4.985,7.5,7.646.467-1.705.79-3.131,1.253-4.509a4.308,4.308,0,0,1,5.106-2.851q8.2,2.207,16.365,4.562c2.487.721,3.472,2.684,2.785,5.159a4.035,4.035,0,0,1-5.221,2.89C1002.346,496.472,999.032,495.67,995.534,494.808Z" transform="translate(-67.669 0)" fill="#fff" fill-rule="evenodd"/>
    <path id="Path_169" data-name="Path 169" d="M933.718,467.924c5.806-.662,10.6,4.787,10.484,10.107a10.238,10.238,0,0,1-10.224,10.353c-5.865-.051-10.37-3.981-10.506-10.206C923.328,471.613,928.908,467.422,933.718,467.924Z" transform="translate(-45.516 -3.453)" fill="#fff" fill-rule="evenodd"/>
  </g>
</svg>
