<svg id="blood-pressure" xmlns="http://www.w3.org/2000/svg" width="169.498" height="158.198" viewBox="0 0 169.498 158.198">
  <path id="Path_214" data-name="Path 214" d="M152.548,66.869V59.324a5.657,5.657,0,0,0-5.65-5.65V32.487a32.487,32.487,0,1,0-64.974,0v7.062H67.8a8.484,8.484,0,0,0-8.475,8.475v62.149a8.484,8.484,0,0,0,8.475,8.475H81.924v7.062a26.837,26.837,0,1,1-53.674,0V95.882a25.424,25.424,0,1,0-5.65,0v29.829a32.487,32.487,0,1,0,64.974,0v-7.062H101.7a8.484,8.484,0,0,0,8.475-8.475V48.024a8.484,8.484,0,0,0-8.475-8.475H87.574V32.487a26.837,26.837,0,0,1,53.674,0V53.674a5.657,5.657,0,0,0-5.65,5.65v7.545c-9.858,4.475-16.95,16.481-16.95,30.592,0,17.913,11.406,32.487,25.425,32.487S169.5,115.374,169.5,97.461c0-14.111-7.091-26.117-16.95-30.592ZM5.65,70.624A19.775,19.775,0,1,1,25.424,90.4,19.774,19.774,0,0,1,5.65,70.624Zm59.324,39.549V48.024A2.827,2.827,0,0,1,67.8,45.2h33.195L76.274,78.158V113H67.8A2.827,2.827,0,0,1,64.974,110.173ZM101.7,113H81.924V80.039l22.6-30.134v60.268A2.827,2.827,0,0,1,101.7,113Zm39.549-53.674h5.65v5.862a18.92,18.92,0,0,0-5.65,0Zm2.825,64.974c-10.9,0-19.775-12.039-19.775-26.837s8.871-26.837,19.775-26.837,19.775,12.039,19.775,26.837S154.977,124.3,144.073,124.3Zm0,0" transform="translate(0 0)" fill="#fff"/>
  <path id="Path_215" data-name="Path 215" d="M64,160h5.65v14.125H64Zm0,0" transform="translate(-41.4 -103.501)" fill="#fff"/>
</svg>
