<svg xmlns="http://www.w3.org/2000/svg" width="16.324" height="16.694" viewBox="0 0 16.324 16.694">
  <g id="calendar_1_" data-name="calendar (1)" transform="translate(-5.411)">
    <g id="Group_84" data-name="Group 84" transform="translate(5.411)">
      <path id="Path_40" data-name="Path 40" d="M119.115,258.621a.379.379,0,0,0-.379-.379h-1.322a.379.379,0,0,0-.379.379v1.322a.379.379,0,0,0,.379.379h1.322a.379.379,0,0,0,.379-.379v-1.322Z" transform="translate(-113.218 -249.41)" fill="#4a4848"/>
      <path id="Path_41" data-name="Path 41" d="M215.75,258.621a.379.379,0,0,0-.379-.379h-1.322a.379.379,0,0,0-.379.379v1.322a.379.379,0,0,0,.379.379h1.322a.379.379,0,0,0,.379-.379Z" transform="translate(-206.548 -249.41)" fill="#4a4848"/>
      <path id="Path_42" data-name="Path 42" d="M312.378,258.621a.379.379,0,0,0-.379-.379h-1.322a.379.379,0,0,0-.379.379v1.322a.379.379,0,0,0,.379.379H312a.379.379,0,0,0,.379-.379Z" transform="translate(-299.871 -249.41)" fill="#4a4848"/>
      <path id="Path_43" data-name="Path 43" d="M119.115,355.254a.379.379,0,0,0-.379-.379h-1.322a.379.379,0,0,0-.379.379v1.322a.379.379,0,0,0,.379.379h1.322a.379.379,0,0,0,.379-.379v-1.322Z" transform="translate(-113.218 -342.739)" fill="#4a4848"/>
      <path id="Path_44" data-name="Path 44" d="M215.75,355.254a.379.379,0,0,0-.379-.379h-1.322a.379.379,0,0,0-.379.379v1.322a.379.379,0,0,0,.379.379h1.322a.379.379,0,0,0,.379-.379Z" transform="translate(-206.548 -342.739)" fill="#4a4848"/>
      <path id="Path_45" data-name="Path 45" d="M312.378,355.254a.379.379,0,0,0-.379-.379h-1.322a.379.379,0,0,0-.379.379v1.322a.379.379,0,0,0,.379.379H312a.379.379,0,0,0,.379-.379v-1.322Z" transform="translate(-299.871 -342.739)" fill="#4a4848"/>
      <path id="Path_46" data-name="Path 46" d="M20.282,54.149v2.019a1.649,1.649,0,0,1-1.653,1.648H17.586a1.658,1.658,0,0,1-1.663-1.648V54.142h-4.7v2.027A1.658,1.658,0,0,1,9.56,57.817H8.517a1.649,1.649,0,0,1-1.653-1.648V54.149a1.5,1.5,0,0,0-1.453,1.5V67.479a1.5,1.5,0,0,0,1.5,1.505H20.239a1.506,1.506,0,0,0,1.5-1.505V55.645A1.5,1.5,0,0,0,20.282,54.149ZM19.8,66.742a.647.647,0,0,1-.647.647H7.967a.647.647,0,0,1-.647-.647V60.629a.647.647,0,0,1,.647-.647H19.151a.647.647,0,0,1,.647.647v6.113Z" transform="translate(-5.411 -52.29)" fill="#4a4848"/>
      <path id="Path_47" data-name="Path 47" d="M80.117,4.444h1.032a.567.567,0,0,0,.567-.567V.567A.567.567,0,0,0,81.148,0H80.117a.567.567,0,0,0-.567.567V3.877A.567.567,0,0,0,80.117,4.444Z" transform="translate(-77.015)" fill="#4a4848"/>
      <path id="Path_48" data-name="Path 48" d="M345.025,4.444h1.031a.567.567,0,0,0,.567-.567V.567A.567.567,0,0,0,346.056,0h-1.031a.567.567,0,0,0-.567.567V3.877A.567.567,0,0,0,345.025,4.444Z" transform="translate(-332.863)" fill="#4a4848"/>
    </g>
  </g>
</svg>
