<svg id="cancel" xmlns="http://www.w3.org/2000/svg" width="19.593" height="19.593" viewBox="0 0 19.593 19.593">
  <g id="Group_70" data-name="Group 70">
    <path id="Path_20" data-name="Path 20" d="M16.723,2.87A9.8,9.8,0,1,0,2.87,16.723,9.8,9.8,0,1,0,16.723,2.87Zm-.787,13.066A8.682,8.682,0,0,1,3.657,3.657,8.682,8.682,0,1,1,15.936,15.936Z" transform="translate(0 0)" fill="#fff"/>
    <path id="Path_21" data-name="Path 21" d="M137.723,129.089a.555.555,0,0,0-.788,0l-3.529,3.529-3.529-3.529a.557.557,0,0,0-.787.787l3.529,3.529-3.529,3.529a.559.559,0,0,0,.392.952.543.543,0,0,0,.392-.165l3.529-3.529,3.529,3.529a.56.56,0,0,0,.392.165.536.536,0,0,0,.392-.165.555.555,0,0,0,0-.788l-3.521-3.529,3.529-3.529A.555.555,0,0,0,137.723,129.089Z" transform="translate(-123.609 -123.609)" fill="#fff"/>
  </g>
</svg>
