<svg id="cancer" xmlns="http://www.w3.org/2000/svg" width="180.798" height="167.579" viewBox="0 0 180.798 167.579">
  <path id="Path_216" data-name="Path 216" d="M179.206,70.017c-5.607-9.709-20.558-6.816-21.932,4.5L146.235,75.7A56.127,56.127,0,0,0,115.69,34.11l4.766-10.767a11.832,11.832,0,1,0-4.8-2.232l-4.813,10.872a55.791,55.791,0,0,0-12.387-3.177,2.648,2.648,0,0,0-.717,5.247,50.987,50.987,0,0,1,43.883,50.358c0,35.97-36.635,60.745-70.039,47.06l1.567-3.539a2.648,2.648,0,1,0-4.843-2.144l-1.515,3.422A50.954,50.954,0,0,1,40.442,91.447l3.658-.393a2.648,2.648,0,1,0-.566-5.265l-3.548.381A50.681,50.681,0,0,1,59,44.632l1.995,2.733a2.648,2.648,0,1,0,4.277-3.123l-1.961-2.687a50.843,50.843,0,0,1,22.673-7.748,2.648,2.648,0,1,0-.494-5.273,55.861,55.861,0,0,0-25.266,8.792l-7.141-9.784a11.8,11.8,0,1,0-19.005-13.77C28.459,23.5,38.391,34.8,48.748,30.588l7.176,9.832A56.035,56.035,0,0,0,34.708,86.735L23.031,87.988C19.384,76.933,3.463,77.27.425,88.61c-2.749,10.26,8.345,18.437,17.293,13.27a11.731,11.731,0,0,0,5.788-8.616l11.667-1.252a56.263,56.263,0,0,0,29.465,42.053L60.153,144.2A11.811,11.811,0,1,0,65,146.341l4.436-10.024a56.049,56.049,0,0,0,51.831-4.8l6.327,8.668a11.8,11.8,0,1,0,19.14,13.617c5.658-9.8-4.472-21.171-14.864-16.743l-6.3-8.632a56.03,56.03,0,0,0,21.238-47.463l11.036-1.185a11.8,11.8,0,1,0,21.364-9.766ZM122.877,5.3a6.5,6.5,0,1,1-6.5,6.5,6.508,6.508,0,0,1,6.5-6.5ZM41.043,25.3a6.5,6.5,0,1,1,8.88-2.379A6.507,6.507,0,0,1,41.043,25.3ZM15.071,97.294a6.5,6.5,0,1,1-3.262-12.129,6.508,6.508,0,0,1,3.262,12.129Zm42.861,64.991a6.5,6.5,0,1,1,6.5-6.5A6.509,6.509,0,0,1,57.932,162.285Zm78.594-20.875a6.5,6.5,0,1,1-3.261,12.129,6.507,6.507,0,0,1,3.261-12.129Zm35.712-59.863a6.5,6.5,0,1,1-3.261-12.129,6.507,6.507,0,0,1,3.261,12.129Zm0,0" transform="translate(0.002 0)" fill="#fff"/>
  <path id="Path_217" data-name="Path 217" d="M217.969,278a11.594,11.594,0,1,0,11.594,11.594A11.606,11.606,0,0,0,217.969,278Zm0,17.891a6.3,6.3,0,1,1,6.3-6.3A6.3,6.3,0,0,1,217.969,295.891Zm0,0" transform="translate(-133.499 -179.833)" fill="#fff"/>
  <path id="Path_218" data-name="Path 218" d="M295.754,233.992a7.711,7.711,0,1,0,7.712,7.711A7.72,7.72,0,0,0,295.754,233.992Zm0,10.127a2.416,2.416,0,1,1,2.417-2.417A2.419,2.419,0,0,1,295.754,244.119Zm0,0" transform="translate(-186.329 -151.365)" fill="#fff"/>
  <path id="Path_219" data-name="Path 219" d="M156.563,234.015a6.952,6.952,0,1,0,6.952-6.952A6.96,6.96,0,0,0,156.563,234.015Zm8.609,0a1.656,1.656,0,1,1-1.657-1.657A1.658,1.658,0,0,1,165.172,234.015Zm0,0" transform="translate(-101.277 -146.882)" fill="#fff"/>
  <path id="Path_220" data-name="Path 220" d="M296.478,154.887a8.471,8.471,0,1,0,8.471,8.471A8.481,8.481,0,0,0,296.478,154.887Zm0,11.646a3.175,3.175,0,1,1,3.175-3.175A3.18,3.18,0,0,1,296.478,166.533Zm0,0" transform="translate(-186.306 -100.193)" fill="#fff"/>
  <path id="Path_221" data-name="Path 221" d="M308.3,294.956l-1.73,1.73a2.648,2.648,0,0,0,3.745,3.745l1.73-1.731a2.648,2.648,0,1,0-3.745-3.744Zm0,0" transform="translate(-197.809 -190.299)" fill="#fff"/>
  <path id="Path_222" data-name="Path 222" d="M253.662,236.275l1.81,1.647A2.648,2.648,0,0,0,259.035,234l-1.81-1.646a2.648,2.648,0,1,0-3.563,3.917Zm0,0" transform="translate(-163.527 -149.862)" fill="#fff"/>
  <path id="Path_223" data-name="Path 223" d="M190.1,167.763c0,11.955,14.958,17.382,22.656,8.314a2.648,2.648,0,1,0-4.037-3.426,7.558,7.558,0,1,1,.477-9.149,2.648,2.648,0,0,0,4.371-2.991c-7.094-10.366-23.467-5.371-23.467,7.253Zm0,0" transform="translate(-122.974 -100.215)" fill="#fff"/>
</svg>
