<svg xmlns="http://www.w3.org/2000/svg" width="427.707" height="512" viewBox="0 0 427.707 512">
  <g id="care-seeking-behaviour" transform="translate(-85.891 -52.365)">
    <path id="Path_8" data-name="Path 8" d="M210.055,169.323c-6.8-8.392-12.471-15.755-18.528-22.777-12.152-14.086-14.417-41.09-4.931-54.855,1.132-1.643,3-2.752,4.3-4.3,1.824-2.167,3.045-5.053,5.224-6.668,4.48-3.323,9.1-6.971,14.244-8.754,10.679-3.7,21.789-6.109,32.616-9.4a20.164,20.164,0,0,0,7.888-4.651c6.544-6.34,14.121-6.737,21.83-3.768,7.838,3.018,12.68,9.239,13.81,17.786.91,6.888.11,13.988-5.569,18.367-7.075,5.455-6.553,12.07-5.486,19.5,2.135,14.891-1.817,28.006-12.233,38.9-7.381,7.716-7.253,7.925-2.821,17.752,12.864,28.525,34.108,48.681,61.081,63.259,1.451.783,2.838,1.691,4.232,2.573.665.421,1.279.923,2.54,1.844-6.567,1.918-11.716-.184-16.835-2.708-14.948-7.38-30.017-14.518-44.842-22.14-12.228-6.287-24.177-13.13-37.531-20.426,1.37,7.369,2.56,13.863,3.788,20.351.386,2.035,1.15,4.041,1.229,6.08a29.276,29.276,0,0,1-.854,5.684c-1.6-.943-3.627-1.531-4.719-2.889-5.451-6.774-10.705-13.709-15.933-20.663-4.987-6.632-11.383-10.318-19.712-8.916-7.854,1.324-13.749,5.7-16.429,13.541-2.6,7.593-.8,14.811,2.767,21.633,9.755,18.666,24.216,33.184,43.011,41.535,12.3,5.467,13.424,12.96,11.6,24.038-2.831,17.233-1.62,34.572,1.373,51.6,4.552,25.88,10.662,51.487,15.028,77.394,2.993,17.762,2.181,24.743-17.459,31.09a25.871,25.871,0,0,1-4.754,1.417c-4.116.487-4.982,3.052-5.59,6.78-4.67,28.588-8.907,57.275-14.67,85.644-4.034,19.862-24.587,27.026-41.15,16.049-6.913-4.58-11.8-19.471-10.357-27.93q6.514-38.252,12.664-76.563c.193-1.213-1.693-3.8-2.955-4.059-19.3-4.005-38.664-7.671-57.985-11.562a126.851,126.851,0,0,1-13.1-3.545c-6.831-2.154-9.156-7.943-8.93-14.161.9-24.76,1.772-49.547,3.7-74.241,2.479-31.8,9.811-62.678,20.885-92.536,9.287-25.043,19.969-49.309,39.193-68.76,15.357-15.537,33.633-20.127,54.481-17.129C205.6,168.943,207.048,169.028,210.055,169.323Zm71.428-93.164c.025-10.209-7.3-17.493-17.634-17.537-9.226-.039-16.861,7.822-17.094,17.6a17.222,17.222,0,0,0,17.107,17.458C274.224,93.646,281.458,86.454,281.483,76.159ZM267.314,202.045l1.783-.969c-.337-1.646-.281-3.523-1.075-4.9-6.09-10.565-12.178-21.142-18.712-31.425-1.084-1.706-4.359-2.85-6.589-2.8-6.554.157-13.1.939-19.625,1.725-1.621.195-3.133,1.328-4.694,2.028,1.009,1.4,1.759,3.155,3.072,4.152,5.084,3.859,10.313,7.527,15.546,11.181Q252.136,191.589,267.314,202.045ZM207.752,374.63c-1.031-9.109-7.564-11.655-13.571-13.4-6.635-1.925-13.878-4.843-22.123.8ZM217.835,83.458l23.82-1.413C234.905,76.562,226.108,77.083,217.835,83.458Z" transform="translate(0 0)" fill="#27709a" fill-rule="evenodd"/>
    <path id="Path_9" data-name="Path 9" d="M380.722,372.953c.779,12.823,1.457,24.5,2.206,36.178.976,15.2,2.028,30.4,3.011,45.6.306,4.738.2,9.52.8,14.214,1.279,9.925,4.4,12.32,13.929,14.326,10.176,2.145,20.17,5.2,30.16,8.149,5.974,1.761,9.566,6.141,11.471,12.12-4.272,5.075-10.03,5.876-16.12,6.447-11.838,1.109-23.662,3.981-35.445,3.745-26.573-.53-53.107-2.689-79.673-3.809-9.922-.418-19.893.24-29.729-5.578,14.177-19.71,36.709-19.481,57.664-24.491,2.533-35.2,5.068-70.434,7.656-106.416-2.6-.181-4.775-.454-6.949-.462-12.237-.041-24.473.022-36.71-.036-7.362-.036-9.593-2.15-9.91-9.42-.172-3.934-.034-7.879-.034-11.821,0-10.428,2.107-12.519,12.869-12.558,12.445-.044,24.891-.131,37.333.022,14.9.182,29.8.707,44.7.883,11.978.141,16.553-3.873,19.5-15.479,5.4-21.266,11.107-42.457,16.639-63.689,1.29-4.955,2.33-9.974,3.6-14.937,2.026-7.939,6.055-10.619,14.038-8.927a95.082,95.082,0,0,1,12.349,3.769c6.736,2.424,8.7,5.915,6.865,12.873Q446.428,308.7,431.645,363.668c-1.588,5.876-5.688,9.363-12.27,9.313C406.758,372.89,394.143,372.953,380.722,372.953Z" transform="translate(52.007 50.054)" fill="#27709a" fill-rule="evenodd"/>
    <path id="Path_10" data-name="Path 10" d="M346.3,259.085c-.7-1.3-2.129-2.674-1.992-3.875,1.54-13.432,2.259-27.087,5.336-40.179,3.145-13.382,18.085-21.525,31.349-19.167,11.139,1.982,20.972,15.392,21.6,28.328,1.563,31.974-4.378,62.367-18.624,91.027-5.978,12.028-15.535,20.009-29.319,20.738-16.724.885-33.5,1.146-50.25.962-5.577-.059-7.543,2.154-8.861,6.84-3.677,13.061-7.361,26.127-11.51,39.04-2.41,7.5-6.906,13.732-15.311,15.293-7.083,1.319-12.929-1.615-17.67-6.809-4.863-5.328-4.953-11.95-3.324-18.146,5.278-20.077,10.972-40.052,16.851-59.963,3.2-10.848,12.15-16.794,23.172-14.765,3.893.717,8,4.1,10.579,7.381,6.635,8.448,12.829,10.517,23.161,7.446,23.594-7.014,42.933-19.692,56.275-40.759,9.4-14.841,13.931-30.934,12.414-48.558-.619-7.2-5.233-12.135-12.415-13.434-8.447-1.53-15.366,1.215-17.864,8.449-4.012,11.622-7.141,23.547-10.655,35.342-.41,1.375-.9,2.724-1.352,4.085Q347.1,258.725,346.3,259.085Z" transform="translate(42.507 37.951)" fill="#27709a" fill-rule="evenodd"/>
    <path id="Path_11" data-name="Path 11" d="M277.65,248.709c-29.115-1.277-57.026-5.658-81.572-21.971-15.7-10.431-27-24.76-34.662-41.917-2.862-6.41.473-14.427,7.248-18.441,7.239-4.287,15.587-3.471,20.108,2.23,5.744,7.244,10.71,15.194,17.032,21.874,14.342,15.155,33.02,21.5,53.266,22.423,15.362.7,30.811-.621,46.224-.837a46.057,46.057,0,0,1,10.952,1.192c8.081,1.878,12.235,6.923,12.6,14.6.339,7.162-4.985,14.942-12.476,16.456-8.62,1.741-17.446,2.493-26.2,3.506C285.876,248.326,281.537,248.446,277.65,248.709Z" transform="translate(19.751 28.892)" fill="#27709a" fill-rule="evenodd"/>
    <path id="Path_12" data-name="Path 12" d="M376.568,172.788c-.2,18.907-16.327,36.887-37.6,36.836-19.322-.046-36.676-14.99-36.594-37.573.081-22.021,16.36-37.548,37.3-37.305C361.4,135,376.856,153.026,376.568,172.788Z" transform="translate(56.224 21.356)" fill="#27709a" fill-rule="evenodd"/>
    <path id="Path_13" data-name="Path 13" d="M375.506,227.9c-1.576,24.146-12.042,44.018-30.635,58.986-8.355,6.726-18.507,11.369-28.236,16.164-3.881,1.911-8.8,2.113-13.281,2.322-6.986.326-10.939-2.748-12.343-8.662-1.487-6.266.756-11.111,7.081-14.188,7.224-3.514,14.722-6.471,21.9-10.073,18.242-9.151,28.017-24,30.07-44.372.508-5.041,2.094-10.907,5.326-14.423,2.291-2.491,8.327-2.656,12.441-2.077,5.411.762,6.945,5.847,7.636,10.73A40.273,40.273,0,0,1,375.506,227.9Z" transform="translate(53.255 41.308)" fill="#27709a" fill-rule="evenodd"/>
  </g>
</svg>
