<svg id="care" xmlns="http://www.w3.org/2000/svg" width="191.037" height="161.51" viewBox="0 0 191.037 161.51">
  <g id="Group_2" data-name="Group 2" transform="translate(0 90.846)">
    <g id="Group_1" data-name="Group 1">
      <path id="Path_6" data-name="Path 6" d="M114.007,330.683H99.531a3.731,3.731,0,0,0,0,7.462h14.477a4.052,4.052,0,1,1,0,8.1H75.037a19.6,19.6,0,0,1-15.113-7.086l-9.319-11.2a27.033,27.033,0,0,0-20.065-9.754V296.167H44.277a25.88,25.88,0,0,1,18.062,7.3l20.114,19.415a3.665,3.665,0,0,1-5.023,5.339L61.639,313.741a3.731,3.731,0,0,0-5.042,5.5l15.792,14.475A11.127,11.127,0,0,0,87.635,317.51L67.521,298.094a33.305,33.305,0,0,0-23.244-9.388H29.816a9.262,9.262,0,0,0-8.523-5.66H3.731A3.731,3.731,0,0,0,0,286.777v27.281a3.731,3.731,0,1,0,7.462,0V290.507H21.293a1.788,1.788,0,0,1,1.786,1.786v29.9a1.788,1.788,0,0,1-1.786,1.786H17.418a3.731,3.731,0,0,0,0,7.462h3.874a9.26,9.26,0,0,0,8.577-5.8,19.6,19.6,0,0,1,15,7.083l9.319,11.2a27.044,27.044,0,0,0,20.849,9.776h38.97a11.513,11.513,0,1,0,0-23.027Z" transform="translate(0 -283.046)" fill="#334bac"/>
    </g>
  </g>
  <g id="Group_4" data-name="Group 4" transform="translate(65.516 0)">
    <g id="Group_3" data-name="Group 3" transform="translate(0 0)">
      <path id="Path_7" data-name="Path 7" d="M297.38,74.031a3.731,3.731,0,0,0-3.731,3.731v25.008H279.818a1.788,1.788,0,0,1-1.786-1.786v-29.9a1.788,1.788,0,0,1,1.786-1.786h3.6a3.731,3.731,0,0,0,0-7.462h-3.6a9.26,9.26,0,0,0-8.577,5.795,19.6,19.6,0,0,1-15-7.083l-9.319-11.2a27.044,27.044,0,0,0-20.849-9.776H187.1a11.513,11.513,0,1,0,0,23.026h15.935a3.731,3.731,0,1,0,0-7.462H187.1a4.052,4.052,0,1,1,0-8.1h38.97a19.6,19.6,0,0,1,15.113,7.086l9.319,11.2a27.034,27.034,0,0,0,20.065,9.754V97.11H256.834a25.88,25.88,0,0,1-18.062-7.3L218.658,70.4a3.665,3.665,0,0,1,5.023-5.339l15.792,14.476a3.731,3.731,0,1,0,5.042-5.5L228.722,59.561a11.127,11.127,0,0,0-15.246,16.207L233.59,95.183a33.306,33.306,0,0,0,23.244,9.388H271.3a9.262,9.262,0,0,0,8.523,5.66H297.38a3.731,3.731,0,0,0,3.731-3.731V77.762A3.731,3.731,0,0,0,297.38,74.031Z" transform="translate(-175.59 -39.568)" fill="#334bac"/>
    </g>
  </g>
  <g id="Group_6" data-name="Group 6" transform="translate(113.285 124.69)">
    <g id="Group_5" data-name="Group 5">
      <path id="Path_8" data-name="Path 8" d="M310.788,375.95a3.769,3.769,0,1,0-1.951,4.974l.08-.036A3.736,3.736,0,0,0,310.788,375.95Z" transform="translate(-303.617 -373.752)" fill="#334bac"/>
    </g>
  </g>
  <g id="Group_8" data-name="Group 8" transform="translate(122.981 119.095)">
    <g id="Group_7" data-name="Group 7">
      <path id="Path_9" data-name="Path 9" d="M336.353,360.269a3.744,3.744,0,1,0-.815,5.234l.047-.034A3.715,3.715,0,0,0,336.353,360.269Z" transform="translate(-329.603 -358.757)" fill="#334bac"/>
    </g>
  </g>
  <g id="Group_10" data-name="Group 10" transform="translate(102.614 128.118)">
    <g id="Group_9" data-name="Group 9">
      <path id="Path_10" data-name="Path 10" d="M282.429,385.9a3.764,3.764,0,1,0-2.981,4.443l.11-.022A3.726,3.726,0,0,0,282.429,385.9Z" transform="translate(-275.016 -382.94)" fill="#334bac"/>
    </g>
  </g>
  <g id="Group_12" data-name="Group 12" transform="translate(131.27 111.532)">
    <g id="Group_11" data-name="Group 11">
      <path id="Path_11" data-name="Path 11" d="M358.073,339.447a3.731,3.731,0,0,0-5.269.272l-.079.09a3.731,3.731,0,1,0,5.348-.361Zm-2.083,3.146-.415-.375.449.405Z" transform="translate(-351.819 -338.487)" fill="#334bac"/>
    </g>
  </g>
  <g id="Group_14" data-name="Group 14" transform="translate(142.199 92.113)">
    <g id="Group_13" data-name="Group 13">
      <path id="Path_12" data-name="Path 12" d="M385.93,286.6a3.747,3.747,0,1,0,2.476,4.693l.016-.051A3.722,3.722,0,0,0,385.93,286.6Z" transform="translate(-381.109 -286.443)" fill="#334bac"/>
    </g>
  </g>
  <g id="Group_16" data-name="Group 16" transform="translate(144.389 69.912)">
    <g id="Group_15" data-name="Group 15">
      <path id="Path_13" data-name="Path 13" d="M394.389,230.046c-.008-.047-.017-.095-.027-.142a3.758,3.758,0,1,0,.027.142Z" transform="translate(-386.979 -226.939)" fill="#334bac"/>
    </g>
  </g>
  <g id="Group_18" data-name="Group 18" transform="translate(144.316 81.099)">
    <g id="Group_17" data-name="Group 17">
      <path id="Path_14" data-name="Path 14" d="M390.845,256.937a3.735,3.735,0,0,0-4.044,3.388c0,.036-.008.11-.011.146a3.731,3.731,0,0,0,3.505,3.943c.075,0,.149.007.222.007a3.75,3.75,0,0,0,.327-7.485Z" transform="translate(-386.783 -256.923)" fill="#334bac"/>
    </g>
  </g>
  <g id="Group_20" data-name="Group 20" transform="translate(137.777 102.405)">
    <g id="Group_19" data-name="Group 19">
      <path id="Path_15" data-name="Path 15" d="M374.85,314.51a3.731,3.731,0,0,0-5.085,1.407l-.052.093a3.738,3.738,0,0,0,3.278,5.53,3.7,3.7,0,0,0,3.262-1.94l-3.243-1.844,3.246,1.839A3.731,3.731,0,0,0,374.85,314.51Z" transform="translate(-369.259 -314.024)" fill="#334bac"/>
    </g>
  </g>
  <g id="Group_22" data-name="Group 22" transform="translate(68.616 29.775)">
    <g id="Group_21" data-name="Group 21">
      <path id="Path_16" data-name="Path 16" d="M190.986,121.433a3.73,3.73,0,0,0-5.005-1.669l-.033.016a3.731,3.731,0,1,0,5.038,1.652Z" transform="translate(-183.898 -119.37)" fill="#334bac"/>
    </g>
  </g>
  <g id="Group_24" data-name="Group 24" transform="translate(79.096 25.876)">
    <g id="Group_23" data-name="Group 23" transform="translate(0 0)">
      <path id="Path_17" data-name="Path 17" d="M219.388,111.771a3.73,3.73,0,0,0-4.505-2.747l-.087.022a3.731,3.731,0,1,0,4.592,2.725Z" transform="translate(-211.987 -108.918)" fill="#334bac"/>
    </g>
  </g>
  <g id="Group_26" data-name="Group 26" transform="translate(59.176 35.829)">
    <g id="Group_25" data-name="Group 25">
      <path id="Path_18" data-name="Path 18" d="M165.262,136.984a3.735,3.735,0,0,0-5.245-.568l2.313,2.927-2.324-2.918a3.731,3.731,0,0,0,4.648,5.837l.049-.04A3.727,3.727,0,0,0,165.262,136.984Z" transform="translate(-158.599 -135.595)" fill="#334bac"/>
    </g>
  </g>
  <g id="Group_28" data-name="Group 28" transform="translate(41.225 63.631)">
    <g id="Group_27" data-name="Group 27" transform="translate(0 0)">
      <path id="Path_19" data-name="Path 19" d="M115.209,210.239a3.73,3.73,0,0,0-4.581,2.617c-.009.034-.027.1-.036.139a3.731,3.731,0,1,0,4.617-2.756Z" transform="translate(-110.487 -210.106)" fill="#334bac"/>
    </g>
  </g>
  <g id="Group_30" data-name="Group 30" transform="translate(39.622 74.719)">
    <g id="Group_29" data-name="Group 29">
      <path id="Path_20" data-name="Path 20" d="M110.139,239.83a3.731,3.731,0,0,0-3.94,3.509c0,.048,0,.1-.006.144a3.728,3.728,0,0,0,3.618,3.835l.113,0a3.749,3.749,0,0,0,.216-7.49Z" transform="translate(-106.191 -239.824)" fill="#334bac"/>
    </g>
  </g>
  <g id="Group_32" data-name="Group 32" transform="translate(45.161 53.14)">
    <g id="Group_31" data-name="Group 31" transform="translate(0 0)">
      <path id="Path_21" data-name="Path 21" d="M126.518,182.417a3.73,3.73,0,0,0-5.037,1.57l-.061.12a3.731,3.731,0,1,0,5.1-1.691Z" transform="translate(-121.037 -181.989)" fill="#334bac"/>
    </g>
  </g>
  <g id="Group_34" data-name="Group 34" transform="translate(51.244 43.731)">
    <g id="Group_33" data-name="Group 33" transform="translate(0 0)">
      <path id="Path_22" data-name="Path 22" d="M143.476,157.634a3.731,3.731,0,0,0-5.253.487l-.077.095a3.731,3.731,0,1,0,5.33-.582Z" transform="translate(-137.339 -156.773)" fill="#334bac"/>
    </g>
  </g>
  <g id="Group_36" data-name="Group 36" transform="translate(40.383 85.9)">
    <g id="Group_35" data-name="Group 35">
      <path id="Path_23" data-name="Path 23" d="M115.634,272.864a3.731,3.731,0,0,0-7.345,1.316l.007.037a3.71,3.71,0,0,0,3.658,3.056,3.738,3.738,0,0,0,3.68-4.408Z" transform="translate(-108.23 -269.791)" fill="#334bac"/>
    </g>
  </g>
  <g id="Group_38" data-name="Group 38" transform="translate(65.88 60.653)">
    <g id="Group_37" data-name="Group 37" transform="translate(0 0)">
      <path id="Path_24" data-name="Path 24" d="M219.014,202.125a17.277,17.277,0,0,0-12.562,5.382A17.328,17.328,0,1,0,182.8,232.76l.073.06,21.261,16.832a3.731,3.731,0,0,0,4.64-.007l22.161-17.652a3.707,3.707,0,0,0,.31-.276,17.324,17.324,0,0,0-12.234-29.591Zm7.1,24.172-19.668,15.667L187.547,227a9.863,9.863,0,1,1,15.459-11.323,3.731,3.731,0,0,0,6.893,0A9.864,9.864,0,1,1,226.114,226.3Z" transform="translate(-176.566 -202.125)" fill="#334bac"/>
    </g>
  </g>
  <g id="Group_40" data-name="Group 40" transform="translate(0.013 131.796)">
    <g id="Group_39" data-name="Group 39">
      <ellipse id="Ellipse_1" data-name="Ellipse 1" cx="3.718" cy="3.718" rx="3.718" ry="3.718" fill="#334bac"/>
    </g>
  </g>
  <g id="Group_42" data-name="Group 42" transform="translate(183.588 22.278)">
    <g id="Group_41" data-name="Group 41" transform="translate(0 0)">
      <ellipse id="Ellipse_2" data-name="Ellipse 2" cx="3.718" cy="3.718" rx="3.718" ry="3.718" fill="#334bac"/>
    </g>
  </g>
</svg>
