<svg xmlns="http://www.w3.org/2000/svg" width="189.004" height="189.003" viewBox="0 0 189.004 189.003">
  <g id="cholesterol" transform="translate(-104.239 23.761)">
    <path id="Path_224" data-name="Path 224" d="M94.5,0A94.5,94.5,0,1,0,189,94.5,94.608,94.608,0,0,0,94.5,0Zm0,50.3a17.062,17.062,0,0,1,16.825,14.241A30.384,30.384,0,0,0,94.5,75.959,30.386,30.386,0,0,0,77.677,64.543,17.062,17.062,0,0,1,94.5,50.3Zm-48.834,87.97A16.473,16.473,0,1,1,62.141,121.8,16.473,16.473,0,0,1,45.668,138.272Zm24.417-34.379A30.385,30.385,0,0,0,53.3,92.488a16.839,16.839,0,0,1,33.566,0A30.386,30.386,0,0,0,70.085,103.893ZM94.5,138.317A16.518,16.518,0,1,1,111.02,121.8,16.518,16.518,0,0,1,94.5,138.317Zm24.417-34.425a30.384,30.384,0,0,0-16.783-11.4,16.839,16.839,0,0,1,33.566,0A30.386,30.386,0,0,0,118.918,103.893Zm24.417,34.5a16.6,16.6,0,1,1,16.6-16.6A16.6,16.6,0,0,1,143.335,138.4Z" transform="translate(104.239 -23.763)" fill="#fff"/>
  </g>
</svg>
