<svg id="cityscape" xmlns="http://www.w3.org/2000/svg" width="247.145" height="247.145" viewBox="0 0 247.145 247.145">
  <g id="Group_83" data-name="Group 83" transform="translate(0)">
    <g id="Group_82" data-name="Group 82">
      <path id="Path_78" data-name="Path 78" d="M315.439,328.386a4.119,4.119,0,1,0-8.238,0v8.238a4.119,4.119,0,1,0,8.238,0Z" transform="translate(-158.914 -167.742)" fill="#fff"/>
      <path id="Path_79" data-name="Path 79" d="M311.319,426.667a4.12,4.12,0,0,0-4.119,4.119v16.476a4.119,4.119,0,1,0,8.238,0V430.786A4.12,4.12,0,0,0,311.319,426.667Z" transform="translate(-158.913 -220.713)" fill="#fff"/>
      <path id="Path_80" data-name="Path 80" d="M349.572,225.986a4.119,4.119,0,0,0-8.238,0v8.238a4.119,4.119,0,0,0,8.238,0Z" transform="translate(-176.571 -114.771)" fill="#fff"/>
      <path id="Path_81" data-name="Path 81" d="M315.439,277.186a4.119,4.119,0,0,0-8.238,0v8.238a4.119,4.119,0,0,0,8.238,0Z" transform="translate(-158.914 -141.256)" fill="#fff"/>
      <path id="Path_82" data-name="Path 82" d="M315.438,379.586a4.119,4.119,0,0,0-8.238,0v8.238a4.119,4.119,0,1,0,8.238,0v-8.238Z" transform="translate(-158.913 -194.228)" fill="#fff"/>
      <path id="Path_83" data-name="Path 83" d="M349.572,277.186a4.119,4.119,0,0,0-8.238,0v8.238a4.119,4.119,0,0,0,8.238,0Z" transform="translate(-176.571 -141.256)" fill="#fff"/>
      <path id="Path_84" data-name="Path 84" d="M281.3,225.986a4.119,4.119,0,1,0-8.238,0v8.238a4.119,4.119,0,1,0,8.238,0Z" transform="translate(-141.257 -114.771)" fill="#fff"/>
      <path id="Path_85" data-name="Path 85" d="M315.439,225.986a4.119,4.119,0,1,0-8.238,0v8.238a4.119,4.119,0,1,0,8.238,0Z" transform="translate(-158.914 -114.771)" fill="#fff"/>
      <path id="Path_86" data-name="Path 86" d="M349.572,131.824v-8.238a4.119,4.119,0,0,0-8.238,0v8.238a4.119,4.119,0,0,0,8.238,0Z" transform="translate(-176.571 -61.8)" fill="#fff"/>
      <path id="Path_87" data-name="Path 87" d="M281.3,277.186a4.119,4.119,0,1,0-8.238,0v8.238a4.119,4.119,0,1,0,8.238,0Z" transform="translate(-141.257 -141.256)" fill="#fff"/>
      <path id="Path_88" data-name="Path 88" d="M383.7,123.586a4.119,4.119,0,0,0-8.238,0v8.238a4.119,4.119,0,0,0,8.238,0Z" transform="translate(-194.228 -61.8)" fill="#fff"/>
      <path id="Path_89" data-name="Path 89" d="M277.186,324.267a4.121,4.121,0,0,0-4.119,4.119v8.238a4.119,4.119,0,1,0,8.238,0v-8.238A4.12,4.12,0,0,0,277.186,324.267Z" transform="translate(-141.257 -167.742)" fill="#fff"/>
      <path id="Path_90" data-name="Path 90" d="M417.838,379.586a4.119,4.119,0,0,0-8.238,0v8.238a4.119,4.119,0,1,0,8.238,0v-8.238Z" transform="translate(-211.884 -194.228)" fill="#fff"/>
      <path id="Path_91" data-name="Path 91" d="M413.719,426.667a4.12,4.12,0,0,0-4.119,4.119v16.476a4.119,4.119,0,1,0,8.238,0V430.786A4.12,4.12,0,0,0,413.719,426.667Z" transform="translate(-211.884 -220.713)" fill="#fff"/>
      <path id="Path_92" data-name="Path 92" d="M447.853,324.267a4.121,4.121,0,0,0-4.119,4.119v8.238a4.119,4.119,0,1,0,8.238,0v-8.238A4.121,4.121,0,0,0,447.853,324.267Z" transform="translate(-229.542 -167.742)" fill="#fff"/>
      <path id="Path_93" data-name="Path 93" d="M311.319,100.629a4.121,4.121,0,0,0,4.119-4.119V79.132l41.191-10.3V137.7a4.128,4.128,0,0,0,2.673,3.86l30.28,11.352v42.455a4.119,4.119,0,0,0,8.238,0v-45.31a4.127,4.127,0,0,0-2.673-3.86l-30.28-11.352V55.319a4.119,4.119,0,0,0-8.238,0V60.34L310.318,71.919a4.116,4.116,0,0,0-3.118,4v20.6A4.121,4.121,0,0,0,311.319,100.629Z" transform="translate(-158.913 -26.486)" fill="#fff"/>
      <path id="Path_94" data-name="Path 94" d="M451.972,277.186a4.119,4.119,0,0,0-8.238,0v8.238a4.119,4.119,0,0,0,8.238,0Z" transform="translate(-229.542 -141.256)" fill="#fff"/>
      <path id="Path_95" data-name="Path 95" d="M417.839,277.186a4.119,4.119,0,1,0-8.238,0v8.238a4.119,4.119,0,1,0,8.238,0Z" transform="translate(-211.885 -141.256)" fill="#fff"/>
      <path id="Path_96" data-name="Path 96" d="M349.572,379.586a4.119,4.119,0,0,0-8.238,0v8.238a4.119,4.119,0,1,0,8.238,0Z" transform="translate(-176.571 -194.228)" fill="#fff"/>
      <path id="Path_97" data-name="Path 97" d="M417.839,328.386a4.119,4.119,0,1,0-8.238,0v8.238a4.119,4.119,0,1,0,8.238,0Z" transform="translate(-211.885 -167.742)" fill="#fff"/>
      <path id="Path_98" data-name="Path 98" d="M345.453,426.667a4.121,4.121,0,0,0-4.119,4.119v16.476a4.119,4.119,0,0,0,8.238,0V430.786A4.12,4.12,0,0,0,345.453,426.667Z" transform="translate(-176.571 -220.713)" fill="#fff"/>
      <path id="Path_99" data-name="Path 99" d="M349.572,328.386a4.119,4.119,0,0,0-8.238,0v8.238a4.119,4.119,0,0,0,8.238,0Z" transform="translate(-176.571 -167.742)" fill="#fff"/>
      <path id="Path_100" data-name="Path 100" d="M308.958,310.125a4.121,4.121,0,0,0,4.119-4.119V174.2a4.12,4.12,0,0,0-3.118-4l-65.9-16.477a4.122,4.122,0,0,0-5.12,4v90.619a4.119,4.119,0,0,0,8.238,0V163l57.667,14.417V306.006A4.121,4.121,0,0,0,308.958,310.125Z" transform="translate(-123.599 -79.457)" fill="#fff"/>
      <path id="Path_101" data-name="Path 101" d="M178.9,174.786a4.119,4.119,0,0,0-8.238,0v8.238a4.119,4.119,0,1,0,8.238,0Z" transform="translate(-88.285 -88.285)" fill="#fff"/>
      <path id="Path_102" data-name="Path 102" d="M178.9,123.586a4.119,4.119,0,1,0-8.238,0v8.238a4.119,4.119,0,1,0,8.238,0Z" transform="translate(-88.285 -61.8)" fill="#fff"/>
      <path id="Path_103" data-name="Path 103" d="M110.638,379.586a4.119,4.119,0,0,0-8.238,0v8.238a4.119,4.119,0,1,0,8.238,0v-8.238Z" transform="translate(-52.971 -194.228)" fill="#fff"/>
      <path id="Path_104" data-name="Path 104" d="M38.252,271.886a4.121,4.121,0,0,0,4.119-4.119v-20.6H83.562V350.149a4.119,4.119,0,0,0,8.238,0v-107.1a4.121,4.121,0,0,0-4.119-4.119H38.252a4.121,4.121,0,0,0-4.119,4.119v24.715A4.121,4.121,0,0,0,38.252,271.886Z" transform="translate(-17.657 -123.6)" fill="#fff"/>
      <path id="Path_105" data-name="Path 105" d="M136.533,174.786v8.238a4.119,4.119,0,1,0,8.238,0v-8.238a4.119,4.119,0,0,0-8.238,0Z" transform="translate(-70.628 -88.285)" fill="#fff"/>
      <path id="Path_106" data-name="Path 106" d="M178.9,72.386a4.119,4.119,0,1,0-8.238,0v8.238a4.119,4.119,0,1,0,8.238,0Z" transform="translate(-88.285 -35.314)" fill="#fff"/>
      <path id="Path_107" data-name="Path 107" d="M106.519,426.667a4.12,4.12,0,0,0-4.119,4.119v16.476a4.119,4.119,0,1,0,8.238,0V430.786A4.12,4.12,0,0,0,106.519,426.667Z" transform="translate(-52.971 -220.713)" fill="#fff"/>
      <path id="Path_108" data-name="Path 108" d="M243.025,406.648h-8.238v-25.3a16.476,16.476,0,1,0-8.238,0v25.3H123.572V389.755a20.6,20.6,0,1,0-8.239,0v16.892H24.714V365.041a20.6,20.6,0,1,0-8.238,0v41.607H4.119a4.119,4.119,0,0,0,0,8.238H243.025a4.119,4.119,0,0,0,0-8.238ZM8.238,344.861A12.357,12.357,0,1,1,20.6,357.219,12.372,12.372,0,0,1,8.238,344.861ZM107.1,369.576a12.357,12.357,0,1,1,12.357,12.357A12.372,12.372,0,0,1,107.1,369.576Zm115.334-4.119a8.238,8.238,0,1,1,8.238,8.238A8.246,8.246,0,0,1,222.43,365.457Z" transform="translate(0 -167.741)" fill="#fff"/>
      <path id="Path_109" data-name="Path 109" d="M68.267,430.786v16.476a4.119,4.119,0,0,0,8.238,0V430.786a4.119,4.119,0,1,0-8.238,0Z" transform="translate(-35.314 -220.713)" fill="#fff"/>
      <path id="Path_110" data-name="Path 110" d="M110.639,277.186a4.119,4.119,0,0,0-8.238,0v8.238a4.119,4.119,0,0,0,8.238,0Z" transform="translate(-52.972 -141.256)" fill="#fff"/>
      <path id="Path_111" data-name="Path 111" d="M110.639,328.386a4.119,4.119,0,1,0-8.238,0v8.238a4.119,4.119,0,1,0,8.238,0Z" transform="translate(-52.972 -167.742)" fill="#fff"/>
      <path id="Path_112" data-name="Path 112" d="M68.267,277.186v8.238a4.119,4.119,0,0,0,8.238,0v-8.238a4.119,4.119,0,0,0-8.238,0Z" transform="translate(-35.314 -141.256)" fill="#fff"/>
      <path id="Path_113" data-name="Path 113" d="M178.9,328.386a4.119,4.119,0,1,0-8.238,0v8.238a4.119,4.119,0,1,0,8.238,0Z" transform="translate(-88.285 -167.742)" fill="#fff"/>
      <path id="Path_114" data-name="Path 114" d="M213.039,225.986a4.119,4.119,0,0,0-8.238,0v8.238a4.119,4.119,0,1,0,8.238,0Z" transform="translate(-105.943 -114.771)" fill="#fff"/>
      <path id="Path_115" data-name="Path 115" d="M213.039,174.786a4.119,4.119,0,0,0-8.238,0v8.238a4.119,4.119,0,1,0,8.238,0Z" transform="translate(-105.943 -88.285)" fill="#fff"/>
      <path id="Path_116" data-name="Path 116" d="M213.039,277.186a4.119,4.119,0,0,0-8.238,0v8.238a4.119,4.119,0,0,0,8.238,0Z" transform="translate(-105.943 -141.256)" fill="#fff"/>
      <path id="Path_117" data-name="Path 117" d="M208.919,324.267a4.121,4.121,0,0,0-4.119,4.119v8.238a4.119,4.119,0,1,0,8.238,0v-8.238A4.12,4.12,0,0,0,208.919,324.267Z" transform="translate(-105.942 -167.742)" fill="#fff"/>
      <path id="Path_118" data-name="Path 118" d="M213.039,123.586a4.119,4.119,0,1,0-8.238,0v8.238a4.119,4.119,0,1,0,8.238,0Z" transform="translate(-105.943 -61.8)" fill="#fff"/>
      <path id="Path_119" data-name="Path 119" d="M178.9,379.586a4.119,4.119,0,0,0-8.238,0v8.238a4.119,4.119,0,1,0,8.238,0Z" transform="translate(-88.285 -194.228)" fill="#fff"/>
      <path id="Path_120" data-name="Path 120" d="M106.519,107.1a4.121,4.121,0,0,0,4.119-4.119V72.57l14.2-7.1a4.123,4.123,0,0,0,2.278-3.686V27.26l20.6-10.3,20.6,10.3V61.786a4.119,4.119,0,0,0,8.238,0V24.714a4.123,4.123,0,0,0-2.278-3.686L151.829,9.811V4.119a4.119,4.119,0,1,0-8.238,0V9.811L121.155,21.028a4.123,4.123,0,0,0-2.278,3.686V59.24l-14.2,7.1a4.123,4.123,0,0,0-2.278,3.686v32.953A4.12,4.12,0,0,0,106.519,107.1Z" transform="translate(-52.972)" fill="#fff"/>
      <path id="Path_121" data-name="Path 121" d="M178.9,277.186a4.119,4.119,0,0,0-8.238,0v8.238a4.119,4.119,0,1,0,8.238,0Z" transform="translate(-88.285 -141.256)" fill="#fff"/>
      <path id="Path_122" data-name="Path 122" d="M174.786,426.667a4.12,4.12,0,0,0-4.119,4.119v16.476a4.119,4.119,0,1,0,8.238,0V430.786A4.12,4.12,0,0,0,174.786,426.667Z" transform="translate(-88.285 -220.713)" fill="#fff"/>
      <path id="Path_123" data-name="Path 123" d="M213.039,72.386a4.119,4.119,0,1,0-8.238,0v8.238a4.119,4.119,0,1,0,8.238,0Z" transform="translate(-105.943 -35.314)" fill="#fff"/>
      <path id="Path_124" data-name="Path 124" d="M178.9,225.986a4.119,4.119,0,1,0-8.238,0v8.238a4.119,4.119,0,1,0,8.238,0Z" transform="translate(-88.285 -114.771)" fill="#fff"/>
    </g>
  </g>
</svg>
