<svg id="contraceptive-pills" xmlns="http://www.w3.org/2000/svg" width="135.959" height="161.51" viewBox="0 0 135.959 161.51">
  <g id="Group_44" data-name="Group 44" transform="translate(0 67.479)">
    <g id="Group_43" data-name="Group 43">
      <path id="Path_27" data-name="Path 27" d="M174.092,258.393a2.366,2.366,0,0,0-2.366,2.366V289.34a13.89,13.89,0,0,1-13.874,13.874H59.106A13.89,13.89,0,0,1,45.232,289.34V216.281a2.366,2.366,0,1,0-4.732,0V289.34a18.627,18.627,0,0,0,18.606,18.606h98.747a18.627,18.627,0,0,0,18.606-18.606V260.759A2.366,2.366,0,0,0,174.092,258.393Z" transform="translate(-40.5 -213.915)" fill="#334bac"/>
    </g>
  </g>
  <g id="Group_46" data-name="Group 46" transform="translate(0)">
    <g id="Group_45" data-name="Group 45">
      <path id="Path_28" data-name="Path 28" d="M157.853,0H59.106A18.627,18.627,0,0,0,40.5,18.606V60.382a2.366,2.366,0,1,0,4.732,0V18.606A13.89,13.89,0,0,1,59.106,4.732h98.747a13.89,13.89,0,0,1,13.874,13.874V104.86a2.366,2.366,0,0,0,4.732,0V18.606A18.627,18.627,0,0,0,157.853,0Z" transform="translate(-40.5 0)" fill="#334bac"/>
    </g>
  </g>
  <g id="Group_48" data-name="Group 48" transform="translate(19.88 27.602)">
    <g id="Group_47" data-name="Group 47">
      <path id="Path_29" data-name="Path 29" d="M120.712,87.5A17.192,17.192,0,1,0,137.9,104.692,17.212,17.212,0,0,0,120.712,87.5Zm-12.46,17.192a12.454,12.454,0,0,1,19.435-10.32l-17.295,17.295A12.389,12.389,0,0,1,108.252,104.692Zm12.46,12.46a12.388,12.388,0,0,1-6.975-2.14l17.295-17.295a12.454,12.454,0,0,1-10.32,19.435Z" transform="translate(-103.52 -87.5)" fill="#334bac"/>
    </g>
  </g>
  <g id="Group_50" data-name="Group 50" transform="translate(81.695 27.602)">
    <g id="Group_49" data-name="Group 49">
      <path id="Path_30" data-name="Path 30" d="M316.673,87.5a17.192,17.192,0,1,0,17.192,17.192A17.212,17.212,0,0,0,316.673,87.5Zm-12.46,17.192a12.454,12.454,0,0,1,19.435-10.32l-17.295,17.295A12.389,12.389,0,0,1,304.213,104.692Zm12.46,12.46a12.388,12.388,0,0,1-6.974-2.14l17.295-17.295a12.455,12.455,0,0,1-10.32,19.435Z" transform="translate(-299.481 -87.5)" fill="#334bac"/>
    </g>
  </g>
  <g id="Group_52" data-name="Group 52" transform="translate(19.88 69.872)">
    <g id="Group_51" data-name="Group 51">
      <path id="Path_31" data-name="Path 31" d="M120.712,221.5A17.192,17.192,0,1,0,137.9,238.692,17.212,17.212,0,0,0,120.712,221.5Zm-12.46,17.192a12.454,12.454,0,0,1,19.435-10.32l-17.295,17.295A12.389,12.389,0,0,1,108.252,238.692Zm12.46,12.46a12.389,12.389,0,0,1-6.975-2.14l17.295-17.295a12.454,12.454,0,0,1-10.32,19.435Z" transform="translate(-103.52 -221.5)" fill="#334bac"/>
    </g>
  </g>
  <g id="Group_54" data-name="Group 54" transform="translate(81.695 69.872)">
    <g id="Group_53" data-name="Group 53">
      <path id="Path_32" data-name="Path 32" d="M316.673,221.5a17.192,17.192,0,1,0,17.192,17.192A17.212,17.212,0,0,0,316.673,221.5Zm-12.46,17.192a12.454,12.454,0,0,1,19.435-10.32l-17.295,17.295A12.389,12.389,0,0,1,304.213,238.692Zm12.46,12.46a12.388,12.388,0,0,1-6.974-2.14l17.295-17.295a12.455,12.455,0,0,1-10.32,19.435Z" transform="translate(-299.481 -221.5)" fill="#334bac"/>
    </g>
  </g>
  <g id="Group_56" data-name="Group 56" transform="translate(19.88 112.142)">
    <g id="Group_55" data-name="Group 55">
      <path id="Path_33" data-name="Path 33" d="M120.712,355.5A17.192,17.192,0,1,0,137.9,372.692,17.212,17.212,0,0,0,120.712,355.5Zm-12.46,17.192a12.455,12.455,0,0,1,19.435-10.32l-17.295,17.3A12.389,12.389,0,0,1,108.252,372.692Zm12.46,12.46a12.388,12.388,0,0,1-6.975-2.14l17.295-17.295a12.455,12.455,0,0,1-10.32,19.435Z" transform="translate(-103.52 -355.5)" fill="#334bac"/>
    </g>
  </g>
  <g id="Group_58" data-name="Group 58" transform="translate(81.695 112.142)">
    <g id="Group_57" data-name="Group 57">
      <path id="Path_34" data-name="Path 34" d="M316.673,355.5a17.192,17.192,0,1,0,17.192,17.192A17.212,17.212,0,0,0,316.673,355.5Zm-12.46,17.192a12.455,12.455,0,0,1,19.435-10.32l-17.295,17.3A12.39,12.39,0,0,1,304.213,372.692Zm12.46,12.46a12.387,12.387,0,0,1-6.974-2.14l17.295-17.295a12.455,12.455,0,0,1-10.32,19.435Z" transform="translate(-299.481 -355.5)" fill="#334bac"/>
    </g>
  </g>
  <g id="Group_60" data-name="Group 60" transform="translate(44.46 12.301)">
    <g id="Group_59" data-name="Group 59">
      <path id="Path_35" data-name="Path 35" d="M183.807,39a2.366,2.366,0,0,0-2.366,2.366V45.19a2.366,2.366,0,1,0,4.732,0V41.362A2.366,2.366,0,0,0,183.807,39Z" transform="translate(-181.441 -38.996)" fill="#334bac"/>
    </g>
  </g>
  <g id="Group_62" data-name="Group 62" transform="translate(86.767 12.301)">
    <g id="Group_61" data-name="Group 61">
      <path id="Path_36" data-name="Path 36" d="M317.925,39a2.366,2.366,0,0,0-2.366,2.366V45.19a2.366,2.366,0,1,0,4.732,0V41.362A2.366,2.366,0,0,0,317.925,39Z" transform="translate(-315.559 -38.996)" fill="#334bac"/>
    </g>
  </g>
  <g id="Group_64" data-name="Group 64" transform="translate(60.392 15.863)">
    <g id="Group_63" data-name="Group 63">
      <path id="Path_37" data-name="Path 37" d="M246.313,50.873a2.366,2.366,0,0,0-3.338.224,4.692,4.692,0,0,1-6.88,0,2.366,2.366,0,1,0-3.562,3.114,9.42,9.42,0,0,0,14,0A2.366,2.366,0,0,0,246.313,50.873Z" transform="translate(-231.948 -50.288)" fill="#334bac"/>
    </g>
  </g>
</svg>
