<svg xmlns="http://www.w3.org/2000/svg" width="512" height="498.141" viewBox="0 0 512 498.141">
  <g id="cop-icon" transform="translate(-871.195 -453.527)">
    <path id="Path_5" data-name="Path 5" d="M1382.856,672.053V712.94c-5.026.239-9.6.634-14.188.648-21.355.066-42.923-1.886-64.021.435-41.509,4.573-77.263-3.555-105.471-36.629-3.677-4.315-12.7-5.691-19.262-5.714-96.807-.353-193.623-.242-290.436-.242h-18.1V587.865c3.612-.441,7.663-1.257,11.734-1.385,98.652-3.146,197.312-6.049,295.952-9.542,10.667-.378,17.3,2.947,23.995,10.987q31.844,38.212,65.421,74.965c4.4,4.8,12.478,8.572,18.974,8.76C1318.686,672.548,1349.958,672.053,1382.856,672.053Z" transform="translate(0.339 228.688)" fill="#208fb8" fill-rule="evenodd"/>
    <path id="Path_6" data-name="Path 6" d="M1195.768,617.713c-2.494,9.457-4.741,17.972-7.406,28.074-38.523-15.33-80.063-21.5-108.132-61.839-6.1,36.689-11.376,68.409-16.769,100.838-60.32,0-119.513.008-178.707-.026-2.2,0-4.4-.4-8.291-.765,3.092-4.63,5.216-8.117,7.639-11.391,37.769-51.015,75.746-101.876,113.188-153.127,5.677-7.773,11-10.9,19.96-6.7a34.637,34.637,0,0,0,9.528,2.75c42.9,6.365,76.864,26.157,99.323,64.342,2.824,4.8,9.064,8.109,14.38,10.825C1158.169,599.739,1176.152,608.189,1195.768,617.713Z" transform="translate(9.717 106.399)" fill="#208fb8" fill-rule="evenodd"/>
    <path id="Path_7" data-name="Path 7" d="M988.9,613.147c-.117-37.744,29.6-67.417,67.37-67.266a67.01,67.01,0,1,1-67.37,67.266Z" transform="translate(218.248 171.149)" fill="#208fb8" fill-rule="evenodd"/>
    <path id="Path_8" data-name="Path 8" d="M1001.8,597.191c-37.556.071-67.988-30.3-67.564-67.431.418-36.567,30.668-66.615,67.168-66.72,37.167-.108,67.811,30.657,67.473,67.738A66.935,66.935,0,0,1,1001.8,597.191Z" transform="translate(116.819 17.543)" fill="#208fb8" fill-rule="evenodd"/>
    <path id="Path_9" data-name="Path 9" d="M1215.751,645.894H871.195V619.478h15.381c86.724,0,173.48,1.26,260.159-.742C1174.02,618.1,1193.5,628.978,1215.751,645.894Z" transform="translate(0 305.774)" fill="#208fb8" fill-rule="evenodd"/>
    <path id="Path_10" data-name="Path 10" d="M942.3,524.949c-14.135-13.859-18.336-28.023-12.625-44.263,5.46-15.526,16.754-24.906,33.29-26.823,16.39-1.9,29.265,4.178,39.262,19.6C972.323,478.891,952.053,494.969,942.3,524.949Z" transform="translate(103.728 0)" fill="#208fb8" fill-rule="evenodd"/>
  </g>
</svg>
