<svg xmlns="http://www.w3.org/2000/svg" width="484.005" height="512" viewBox="0 0 484.005 512">
  <g id="dd-icon" transform="translate(-717.996 -363.683)">
    <path id="Path_11" data-name="Path 11" d="M792.181,877.946a9.994,9.994,0,0,0-1.714-.911c-13.161-4.067-21.205-14.085-21.228-27.865q-.19-122.389-.056-244.781a17.051,17.051,0,0,1,.237-1.995c12.725,3.994,25.259,8.071,37.883,11.841q11.306,3.378,22.844,5.963a23.352,23.352,0,0,0,28.532-19.26c.607-3.784,2.215-4.732,5.724-5.317,10.385-1.733,20.682-4,31.542-6.169v6.095q0,122.894,0,245.789c0,21.821-4.42,28.521-24.139,36.611H861.726c-1.722-.616-3.465-1.175-5.161-1.857-11.074-4.439-18.278-12.408-18.919-24.406-.752-14.057-.195-28.186-.195-42.285q0-32.724.009-65.447,0-37.762-.026-75.524c0-10.018,0-20.034,0-30.262H825.494v6.2q0,100.768-.065,201.539a44.857,44.857,0,0,1-1.552,12.38c-3.157,10.814-11.206,16.624-21.617,19.66Z" transform="translate(0.405 -2.264)" fill="#208fb8" fill-rule="evenodd"/>
    <path id="Path_12" data-name="Path 12" d="M718,545.49c2.009-10.351,3.65-20.79,6.1-31.035,4.646-19.388,11.424-37.9,24.8-53.253,7.432-8.529,16.336-14.85,27.373-17.988,3.213-.914,5.02-.315,6.92,2.717,23.361,37.309,75.426,37.165,98.8-.278,1.811-2.9,3.5-3.4,6.476-2.56,17.511,4.948,28.963,17.042,37.568,32.217,11.428,20.153,16.688,42.3,19.695,65.014,1.8,13.6-5.06,23.2-15.895,30.311-12.67,8.313-27.025,12.526-41.553,16.048-9.566,2.321-19.287,4-29.358,6.057-4.088-16.193-17.587-17.853-30.1-21.071-6.58-1.691-13.1-3.618-20.221-5.6,3.434-4.366,7.4-6,11.991-6.669,17.578-2.567,35.247-4.68,52.681-8.008,10.616-2.026,20.9-5.853,31.238-9.181,1.353-.435,3.157-2.854,2.985-4.115-1.759-12.945-4.758-25.594-10.9-37.514v40.233c-13.471,2.929-26.593,6.181-39.873,8.551-11.868,2.121-23.9,3.358-35.879,4.8a26.1,26.1,0,0,0-15.519,7.547c-1.071,1.037-3.361,1.958-4.58,1.518-9.285-3.358-18.427-7.113-27.652-10.64-2.771-1.061-3.633-2.813-3.6-5.758.148-13.6.065-27.21.065-40.816v-4.774l-1.709-.355c-2.824,9.673-5.8,19.3-8.407,29.035-1.253,4.683-1.512,9.633-2.766,14.314-.932,3.478.23,5.642,3.049,7.035,7.947,3.926,15.7,8.495,24.041,11.318,18.227,6.173,36.724,11.568,55.2,16.988,10,2.935,15.709,9.866,15.273,19.621-.5,11.17-11.039,19.757-21.96,17.239-26.83-6.185-53.348-13.63-78.126-25.815a121.052,121.052,0,0,1-25.926-17.792c-4.612-4.052-6.9-10.748-10.231-16.257Q718,551.031,718,545.49Z" transform="translate(0 -0.319)" fill="#208fb8" fill-rule="evenodd"/>
    <path id="Path_13" data-name="Path 13" d="M1204.145,502.7c-1.384,6.878-2.476,13.831-4.2,20.624-11.913,47.038-55.51,84.244-103.817,88.006-42.012,3.272-77-11.172-104.261-43.519-2.254-2.677-3.873-3.125-7.057-1.842-16.45,6.628-33.006,12.993-49.529,19.439-1.046.409-2.122.738-4.545,1.571,2.009-2.187,3.031-3.381,4.137-4.492,12.567-12.6,25.085-25.253,37.78-37.726,2.266-2.228,2.606-3.948,1.407-6.9a119.531,119.531,0,0,1,92.622-163.874c66.043-10.41,129.161,37.779,136.563,104.238a21.614,21.614,0,0,0,.9,3.307Q1204.144,492.12,1204.145,502.7ZM1079.094,393.6a101.96,101.96,0,1,0,.305,203.92c55.335.057,101.74-45.3,101.684-101.852A101.824,101.824,0,0,0,1079.094,393.6Z" transform="translate(-2.145 0.07)" fill="#208fb8" fill-rule="evenodd"/>
    <path id="Path_14" data-name="Path 14" d="M839.473,363.683c2.86.835,5.742,1.6,8.578,2.515,23.922,7.676,39.724,32.014,36.464,56.12-3.592,26.562-24.646,45.99-50.911,46.973-24.905.933-47.538-16.7-53.1-41.379-6.439-28.558,11.726-56.769,40.636-63.146a30.437,30.437,0,0,0,3.215-1.083Z" transform="translate(0.484)" fill="#208fb8" fill-rule="evenodd"/>
    <path id="Path_15" data-name="Path 15" d="M907.436,634.023c17.032,8.185,34.116,16.269,51.049,24.65,3.156,1.563,4.881,1.244,7.235-1.276,19.149-20.509,42.832-32.582,70.509-36.44,56.466-7.875,110.113,25.166,129,79.1,21.181,60.5-9.035,126.933-68.419,150.434a119.63,119.63,0,0,1-163.341-99.178,114.865,114.865,0,0,1,11.984-64.9c1.767-3.48,1.285-5.432-1.16-8.212-12.617-14.357-25-28.924-37.457-43.417ZM1086.469,722.5q-.157-.827-.313-1.654c-1.41-.872-2.906-1.634-4.219-2.634-5.211-3.967-6.7-9.36-5.823-15.633.807-5.808,4.3-9.348,9.625-11.157,11.717-3.982,28.721,2.222,34.777,13.076,6.945,12.45,7.122,26.063,5.194,39.688-1.953,13.811-12.568,23.518-26.423,25.01-12.729,1.368-22.2-9.435-18.952-21.556.305-1.14.591-3.073.009-3.536-5.007-3.984-10.216-7.717-15.366-11.524q-1.061.591-2.124,1.179c.305,3.819.063,7.78,1.015,11.43,3.55,13.6,7.907,27,11.178,40.659,3.539,14.778,6.2,29.764,9.234,44.6,34.052-10.766,69.861-51.535,64.59-105.671-4.776-49.071-47.441-89.21-97.116-90.936-52.305-1.819-97.306,34.873-105.205,86.239-8.05,52.346,24.427,96.908,64.432,110.743,2.637-13.544,4.826-27.277,8.066-40.756,3.635-15.133,8.364-30,12.29-45.068.943-3.616.6-7.567.843-11.364l-2.026-.915c-4.576,3.25-9.315,6.305-13.626,9.879a6.366,6.366,0,0,0-1.561,5.323c2.045,8.709-.559,14.459-8.229,18.941-11.325,6.616-28.93-1.741-34.031-12.983-6.7-14.764-5.257-29.861-.272-44.623,4.622-13.685,22.4-22.168,36.249-18.02,5.991,1.793,9.628,5.529,10.427,12.079,1.05,8.615-3.052,14.012-10.429,18.376a11.685,11.685,0,0,0,4.929,1.925c4.971.638,10.1.551,14.916,1.764,8.173,2.059,11.569,7.221,9.8,15.422-2.469,11.44-5.531,22.765-8.706,34.035-5.05,17.924-10.052,35.826-11.168,54.557-.175,2.955.242,4.482,3.542,5.294a105.031,105.031,0,0,0,50.775-.033c3.38-.824,4.486-2.237,3.876-5.506-2.666-14.309-4.809-28.733-8.025-42.917-3.44-15.172-8.2-30.045-11.736-45.2-1.967-8.429,1.6-13.658,10.013-15.744,4.66-1.155,9.618-1.078,14.429-1.665C1083.053,723.409,1084.746,722.88,1086.469,722.5Zm-65.242,8.276c-8.047-1.857-10.164-1.012-12.678,5.2-.354.874.775,2.346,1.267,3.677C1013.95,736.436,1017.347,733.794,1021.228,730.774Zm63.931,8.776,2.515-2.1c-6.276-8.724-6.6-8.877-13.4-6.465C1077.761,733.733,1081.158,736.408,1085.159,739.55Z" transform="translate(-2.334 -2.025)" fill="#208fb8" fill-rule="evenodd"/>
    <path id="Path_16" data-name="Path 16" d="M1090.643,448.527c0,14.629,0,28.706,0,42.785a7.563,7.563,0,0,0,.052,2.008c3.479,12.238-3.316,18.829-13.278,23.016-13.575,5.706-27.4,10.823-41.12,16.172-6.7,2.612-13.394,5.255-20.143,7.741-6.386,2.351-9.54.844-10.063-5.913a311,311,0,0,1-1.1-33.658c.338-10.823.759-21.915,3.342-32.345,6.331-25.559,29.541-38.32,54.83-30.691C1072.581,440.481,1081.521,444.862,1090.643,448.527Z" transform="translate(-0.491 0.567)" fill="#208fb8" fill-rule="evenodd"/>
    <path id="Path_17" data-name="Path 17" d="M1095.75,449.525c22.8-1.346,43.349,4.861,63.436,13.161,1.743.72,4.079,2.913,4.011,4.32-.074,1.573-2.305,3.611-4.071,4.436-6.836,3.194-11.906,8.314-17.37,13.357-6.01,5.546-13.566,9.573-20.841,13.542-5.556,3.031-11.684,5.039-17.628,7.311-4.1,1.568-7.371.135-7.427-3.748C1095.609,484.678,1095.75,467.447,1095.75,449.525Z" transform="translate(-0.841 -0.084)" fill="#208fb8" fill-rule="evenodd"/>
    <path id="Path_18" data-name="Path 18" d="M1080.426,428.211h8.325c.493,5.528.962,10.775,1.438,16.105C1080.084,442.32,1078.259,439.3,1080.426,428.211Z" transform="translate(-0.063 0.51)" fill="#208fb8" fill-rule="evenodd"/>
    <path id="Path_19" data-name="Path 19" d="M1102.869,528.739c-4,1.077-6.1.6-7.106-3.481-1.339-5.4-3.549-10.592-5.446-16.054,4.457-1.867,6.348-1.315,7.311,3.06C1098.837,517.747,1100.994,523.021,1102.869,528.739Z" transform="translate(-0.078 -0.049)" fill="#208fb8" fill-rule="evenodd"/>
    <path id="Path_20" data-name="Path 20" d="M1096.25,430.384l7-.753v15.013l-7,1.026Z" transform="translate(-0.044 0.521)" fill="#208fb8" fill-rule="evenodd"/>
  </g>
</svg>
