<svg xmlns="http://www.w3.org/2000/svg" width="60.893" height="107.205" viewBox="0 0 60.893 107.205">
  <g id="death1" transform="translate(-42.849)">
    <g id="Group_105" data-name="Group 105" transform="translate(42.849)">
      <ellipse id="Ellipse_2" data-name="Ellipse 2" cx="7.324" cy="7.228" rx="7.324" ry="7.228" transform="translate(23.27 9.245)" fill="#fff"/>
      <path id="Path_170" data-name="Path 170" d="M77.193,45.9A3.088,3.088,0,0,0,74.1,49.129V75.022a2.476,2.476,0,0,0,2.446,2.612,2.388,2.388,0,0,0,2.3-1.315v36.57a3.926,3.926,0,0,0,7.851,0V83.373h2.176v29.516a3.926,3.926,0,0,0,7.852,0V76.319a2.572,2.572,0,0,0,4.816-1.3V49.128A3.132,3.132,0,0,0,98.334,45.9Z" transform="translate(-57.212 -21.095)" fill="#fff"/>
      <path id="Path_171" data-name="Path 171" d="M91.111,3.667A7.847,7.847,0,0,0,84.47,0h-22.3a7.847,7.847,0,0,0-6.633,3.654L43.662,22.443a5.258,5.258,0,0,0-.813,2.807V49.514a5.253,5.253,0,0,0,.247,1.592l16.093,50.628a7.849,7.849,0,0,0,7.479,5.471H79.978a7.848,7.848,0,0,0,7.481-5.478L103.5,51.1a5.253,5.253,0,0,0,.245-1.587V25.245a5.261,5.261,0,0,0-.807-2.8Zm6.495,45.042a4.334,4.334,0,0,1-.2,1.314L82.2,98.03a4.353,4.353,0,0,1-4.149,3.039H68.6a4.352,4.352,0,0,1-4.148-3.034L49.189,50.025a4.365,4.365,0,0,1-.2-1.318V26.756a4.352,4.352,0,0,1,.674-2.327L59.952,8.161A4.353,4.353,0,0,1,63.63,6.136H83.015A4.352,4.352,0,0,1,86.7,8.169L96.936,24.431A4.347,4.347,0,0,1,97.6,26.75V48.709Z" transform="translate(-42.849)" fill="#fff"/>
    </g>
  </g>
</svg>
