<svg xmlns="http://www.w3.org/2000/svg" width="524.388" height="528.485" viewBox="0 0 524.388 528.485">
  <g id="completeness-cause-of-death_copy" data-name="completeness-cause-of-death copy" transform="translate(-147.231 -133.245)">
    <path id="Path_50" data-name="Path 50" d="M389.586,661.73c-3.816-1.769-7.514-4.744-11.467-5.132-118.2-11.6-215.478-112.341-229.085-229.035C132.281,283.9,234.1,153.387,377.719,135.245c134.918-17.042,263.66,76.725,288.565,210,.829,4.431,3.515,8.514,5.335,12.759v77.137c-2.941,9.787-6.048,19.528-8.794,29.368-29.2,104.506-119.968,182.046-223.117,192.153-3.977.391-7.706,3.322-11.554,5.072ZM161.769,394.865c-.306,141.884,115.67,252.757,255.331,249.469,131.849-3.1,241.938-117.157,240.019-249.353-2.1-144.683-121.276-251.4-258-247.28C270.906,151.564,159.349,266.243,161.769,394.865Z" transform="translate(0 0)" fill="#3c9cb5" fill-rule="evenodd"/>
    <path id="Path_51" data-name="Path 51" d="M318.213,191q40.367,0,80.729-.01c20.306-.029,26.61,6.284,26.591,26.487q-.043,60.85.043,121.7c0,10.344-13.092,28.324-22.965,30.773-7.94,1.967-7.005-4-7-8.786q.134-62.051.311-124.1c.06-15.215-1.167-16.628-16.187-16.635q-63.255-.033-126.517-.014c-14.352,0-15.808,1.75-15.772,15.84q.192,77.718.108,155.436c0,14.5,1.249,15.719,15.765,15.668,22.093-.075,44.183-.154,66.273-.123,9.751.015,27.548,14.721,28.145,23.956.123,1.9-4.175,5.872-6.465,5.891-36.944.323-73.9.581-110.841-.133-12.2-.236-15.338-10.047-15.384-20.612-.1-22.493.01-44.985,0-67.478Q215.042,280.775,215,212.7c0-16.763,5.05-21.8,21.283-21.765,27.311.063,54.623.019,81.932.019A.16.16,0,0,0,318.213,191Z" transform="translate(95.595 81.369)" fill="#3c9cb5" fill-rule="evenodd"/>
    <path id="Path_52" data-name="Path 52" d="M270.243,281.717c3.478,1.7,6.422,2.885,9.114,4.488,8.613,5.113,17.662,9.7,25.554,15.772,8.989,6.918,15.413,4.638,23.05-2.194q23.3-20.834,47.849-40.244c3.678-2.914,9.567-3.037,14.439-4.443-.955,4.956-.448,10.937-3.093,14.7-19.357,27.548-39.294,54.685-59.162,81.871-9.223,12.619-13.352,12.663-22.343.128q-19.623-27.361-38.754-55.073a16.022,16.022,0,0,1-2.64-9.729C264.419,285.147,267.972,283.6,270.243,281.717Z" transform="translate(165.011 171.876)" fill="#3c9cb5" fill-rule="evenodd"/>
    <path id="Path_53" data-name="Path 53" d="M290.3,281.6c-12.453,0-24.913.227-37.361-.068-10.891-.255-19.222-7.885-19.593-17.255-.369-9.348,8.721-18.824,19.463-18.961q38.559-.5,77.132.053a18.763,18.763,0,0,1,18.132,18.749c-.2,9.428-7.617,17.016-18.007,17.334-13.243.407-26.511.1-39.769.1A.328.328,0,0,1,290.3,281.6Z" transform="translate(121.452 157.741)" fill="#3c9cb5" fill-rule="evenodd"/>
    <path id="Path_54" data-name="Path 54" d="M290.594,209.156c12.421,0,24.85-.181,37.265.053,11.457.217,19.925,8.015,20.1,17.975.174,9.927-6.887,17.787-18.518,18.06-25.631.6-51.289.569-76.92.089-11.238-.212-19.087-8.362-19.094-17.722-.01-9.9,9.457-18.32,21.1-18.462,12.019-.149,24.043-.034,36.064-.034C290.594,209.132,290.594,209.146,290.594,209.156Z" transform="translate(121.581 106.956)" fill="#3c9cb5" fill-rule="evenodd"/>
    <path id="Path_55" data-name="Path 55" d="M290.632,257.24c-12.841,0-25.682.055-38.523-.012-9.362-.051-17.592-3.433-18.45-13.441-.945-11.011,8.184-16.136,17.124-16.469,26.439-.981,52.945-.856,79.4-.248,10.411.243,18.484,8.8,17.322,16.512-1.55,10.283-9.083,13.5-18.354,13.612C316.313,257.355,303.472,257.235,290.632,257.24Z" transform="translate(121.814 131.676)" fill="#3c9cb5" fill-rule="evenodd"/>
  </g>
</svg>
