<svg xmlns="http://www.w3.org/2000/svg" width="777.087" height="431.747" viewBox="0 0 777.087 431.747">
  <g id="major-conflicts-death" transform="translate(-56.438 -193.993)">
    <path id="Path_12" data-name="Path 12" d="M296.486,472.1c1.223,1.047,2.383,1.546,2.475,2.194,1.042,7.4,6.577,5.819,11.359,5.866,6.863.066,13.905-1.009,20.085,3.339,2.959,2.079,5.72,3.88,5.59,8.337-.271,9.248,1.766,11.1,10.848,11.107,2.171,0,4.342,0,6.513,0,10.148,0,15.1,5.054,15.095,15.363-.01,14.651-.078,29.3.076,43.954.019,1.881.931,5.193,1.9,5.378,4.585.88,8.292,6.534,13.8,2.677,4.7-3.288,12.427-3.125,17.382-.014a7.771,7.771,0,0,0,3.53.979c9.153.574,17.014-6.388,15.052-15.177-1.221-5.477-.9-9.733-.018-15.13,1.943-11.822,1-11.978,12.928-11.978,8.14,0,16.279.041,24.419-.018,5.51-.039,8.633-3.166,8.633-8.551q0-103.106.082-206.21c.006-2.414,1.472-4.823,2.225-7.241a16.788,16.788,0,0,0,.948-3.551c.366-4.838-1.575-10.112,3.016-14.141.567-.5.407-2.116.208-3.146-1.114-5.821,2.9-9.84,5.066-14.468,2.475-5.29,5.276-10.43,7.973-15.617.864-1.657,1.875-3.238,2.778-4.873,6.67-12.067,17.044-20.971,26.973-29.985,6.057-5.5,12.268-12.371,22.143-11.51,1.061.092,2.332-1.91,3.46-2.992,2.282-2.188,4.5-4.441,6.8-6.61,4.562-4.3,10.8-1.735,15.632-3.536,11.676-4.348,23.484-1.731,35.187-2.2,8.746-.352,17.011,3.01,25.47,4.953,9.49,2.181,16.728,8.5,25.836,10.792a2.363,2.363,0,0,1,.936.506c8.4,7.315,17.895,13.755,24.748,22.312,3.867,4.832,11.154,9.867,8.623,18.138-1.384,4.519-3.826,8.715-6.3,14.18,3.7,0,7.145-.031,10.588.006,5.463.058,11.339,6.421,12.2,11.843.574,3.631,2.765,7,4.163,10.508.81,2.035,1.519,4.11,2.208,6.189.905,2.73,1.828,5.459,2.574,8.234a18.461,18.461,0,0,1,.668,4.721q.038,106.634.006,213.265c0,5.909,2.893,8.956,8.742,8.981,10.49.051,20.982.111,31.473-.029,3.734-.049,5.407.816,5.574,5.124.156,3.991,2.373,7.866,2.909,11.892.259,1.953-1.388,4.1-1.922,6.23-.551,2.19-1.585,4.688-1.009,6.639a30.617,30.617,0,0,0,4.733,9.131c2.268,3.1,4.8,5.009,8.909,1.33,1.6-1.429,5.623-.463,8.471-.082,2.327.312,4.529,1.924,6.824,2.015,8.666.345,17.347.3,26.023.411.179,0,.448.15.524.076,4.741-4.8,9.269-.609,13.991.1,5.467.827,7.928,3,7.916,8.452q-.035,17.365.006,34.73c0,4.731-2.656,7.369-7.358,7.9-1.959.218-3.779,1.468-5.724,2.039-1.435.421-3.974,1.137-4.3.625-2.364-3.713-5.757-2.056-8.808-2.13-1.447-.037-2.891,0-4.34,0q-356.526,0-713.05-.019c-3.063,0-6.125-.3-9.19-.465-.541-.031-1.3-.323-1.589-.07-5.068,4.388-9.957,1.166-15.116.1-4.889-1.01-7.622-3.23-7.615-8.236q.029-17.093,0-34.188c-.016-5.94,2.4-8.551,8.2-8.606,22.779-.216,45.559-.347,68.336-.7,3.138-.047,6.261-1.143,9.392-1.752.226-.635.45-1.273.678-1.908.4.826.683,2.249,1.242,2.371,2.512.539,5.179,1.166,7.62.753.808-.136,1.554-3.286,1.565-5.064.111-16.822.058-33.643.049-50.467,0-5.745,6.421-12.172,12.26-12.231,2.714-.029,5.426-.006,8.14-.008,10.237,0,14.92-4.7,15.535-15.013.093-1.563,1.741-3.388,3.15-4.455,7.1-5.368,15.435-2.917,23.3-3.279,6.662-.3,9.281-2.823,9.277-9.595-.012-17.546.078-35.092-.1-52.636-.023-2.251-1.491-4.464-2.136-6.738a19.507,19.507,0,0,1-.993-5.14q-.088-33.372-.023-66.745c0-5.913-2.889-8.962-8.753-8.972-20.079-.039-40.156-.093-60.235.045-4.205.031-6.7-.8-5.952-5.708a4.345,4.345,0,0,0-.954-3.456c-3.425-2.848-3.033-5.165.092-8.01.925-.843.864-3.012.87-4.577.055-12.659.012-25.324.014-37.985,0-5.559,2.957-8.674,8.487-8.687,17.908-.051,35.816-.006,53.724-.029,6.773-.008,9.464-2.726,9.447-9.371-.012-4.7.06-9.408-.029-14.108-.07-3.654,1.1-7.581-2.712-10.451-.777-.584-.506-2.716-.516-4.137-.043-6.15-.006-12.3-.012-18.451-.006-8.068,3.022-11.181,11.409-11.218,18.63-.082,37.263-.027,55.893-.027,5.245,0,10.492-.049,15.737.014,5.736.07,8.15,2.545,8.15,8.218q0,25.232-.019,50.467c0,6.2,2.839,9.051,9.211,9.061,16.641.029,33.283,0,49.926.019,6.314.008,12.529,6.277,12.525,12.505q-.009,23.606,0,47.212c0,5.492-3.02,8.627-8.539,8.641-20.079.043-40.156,0-60.235.027-6.746.008-9.141,2.784-9.532,9.41-.173,2.93-2.728,5.769-2.737,8.652-.025,6.536-2.817,13.59,1.622,18.418-.785,3.791-1.9,6.721-1.918,9.655-.138,26.046-.1,52.093-.051,78.139,0,1.744-.123,4.071.872,5.126C301.875,464.184,301.075,468.011,296.486,472.1Zm232.141-63.348c.578.033,1.153.062,1.731.1.829,2.031,1.635,4.071,2.49,6.09,2.73,6.446,7.282,12.756,7.747,19.357.535,7.556,4.252,7.461,8.944,6.583,2.663-.5,6.1-2.356,7.124-4.558,1-2.159-.531-5.555-1.139-8.366a21.79,21.79,0,0,0-1.5-3.286c-1.777-4.41-3.177-9.01-5.374-13.195-1.781-3.4-1.842-10.788,1.349-13.292,6.273-4.924,8.553-11.09,7.35-18.813a28.231,28.231,0,0,1-.033-4.336c.016-9.717-8.541-18.457-18.327-18.605-6.331-.1-12.663-.076-18.992,0-5.2.064-8.279,3.2-8.28,8.352-.012,18.628.111,37.261-.1,55.889-.031,2.749-1.772,5.444-2.381,8.238a10.728,10.728,0,0,0,.14,4.953,12.654,12.654,0,0,0,2.5,4.963c1.818,2.035,3.847,4.231,6.254,5.263,1.608.689,5.313.1,5.856-1a37.055,37.055,0,0,0,3.859-12.213c.588-5.72-.035-11.559,0-17.342A30.791,30.791,0,0,1,528.627,408.754ZM625.7,401.99q0,16.524,0,33.048c-.006,5.864,2.8,9.192,7.875,9.285,5.5.1,8.444-3.133,8.423-9.277-.018-5.235-.158-10.478.041-15.706.053-1.378.82-3.456,1.852-3.933,3.255-1.5,6.859-3.508,10.208-3.306,8.276.5,11.349-6.209,15.778-10.607,2.578-2.556,3.876-6.96,4.532-10.745.759-4.385,1.176-9.3-.076-13.436-1.5-4.943-3.795-11.417-7.722-13.5-8.777-4.647-18.294-8.467-28.974-7.539-7.772.676-11.927,4.244-11.937,12.126Q625.674,385.2,625.7,401.99Zm-29.3-15.87h.023c0-8.3.1-16.6-.086-24.9-.035-1.532-.781-3.874-1.9-4.422-6.151-3.018-10.971.275-11.115,7.038a86.185,86.185,0,0,1-1.059,11.6c-.335,2.126-2.035,4.13-2.06,6.2-.181,14.614,0,29.235-.175,43.849a12.742,12.742,0,0,1-2.118,6.176c-2.29,3.647-1.536,9.706,2.94,11.442,3.409,1.326,9.269,1.75,11.462-.249,5.572-5.081,5.117-12.239,1.6-19.14-1.055-2.068-.475-5.193-.045-7.729.5-2.977,2.258-5.808,2.414-8.759C596.649,400.211,596.4,393.159,596.4,386.12Z" transform="translate(0 0)" fill="#3c9cb5" fill-rule="evenodd"/>
    <path id="Path_13" data-name="Path 13" d="M298.649,294.022c-.008-7.644,3.131-9.959,10.582-7.809,2.473.715,3.919,9.211,1.7,11.95-1.384,1.706-3.364,3.485-5.393,4.013C299.774,303.665,298.655,302.155,298.649,294.022Z" transform="translate(229.363 86.604)" fill="#3c9cb5" fill-rule="evenodd"/>
    <path id="Path_14" data-name="Path 14" d="M373.447,298.282c2.074,6.2-3.872,8.972-7.6,12.725-.736.738-4.647.023-4.9-.748a69.708,69.708,0,0,1-3.649-14.945c-.6-6.232,2.621-9.526,7.977-9.536,5.387-.012,8.2,3.257,8.177,9.491C373.443,295.991,373.447,296.713,373.447,298.282Z" transform="translate(284.828 86.917)" fill="#3c9cb5" fill-rule="evenodd"/>
  </g>
</svg>
