<svg xmlns="http://www.w3.org/2000/svg" width="512" height="422.167" viewBox="0 0 512 422.167">
  <g id="natural-disasters_copy" data-name="natural-disasters copy" transform="translate(-155 -138.22)">
    <path id="Path_15" data-name="Path 15" d="M641.728,390.3c-10.3,7.674-21.018,14.826-30.75,23.2-7.092,6.1-11.687,5.026-16.761-2.074-6.931-9.7-14.446-18.968-21.315-28.719-2.4-3.407-3.614-7.693-5.367-11.578q-2.7,1.89-5.408,3.778c-2.867,10.232-5.83,20.433-8.575,30.7-5.106,19.11-10.2,38.222-15.061,57.4-2.179,8.605-6.193,8.339-12.212,3.782C501.066,447.7,476.118,452.35,458.3,479.284c-7.934,11.991-16.3,15.582-25.379,10.887a27.09,27.09,0,0,1-13.476-30.835c8.277-29.491,15.967-59.159,24.659-88.517,2.872-9.7-.318-13.659-8.768-16.079q-35.5-10.154-70.87-20.76c-9.263-2.788-11.3,3.677-13.072,10.206-10.171,37.42-20.16,74.891-30.26,112.334-2.377,8.808-4.947,17.568-8.33,29.549-4.347-5.584-6.833-8.591-9.122-11.748-18.105-24.969-52.381-25.38-71.179-.924-4.175,5.432-7.912,12.432-13.492,15.153-5.079,2.476-12.909,1.608-18.584-.483-7.285-2.688-5.3-9.471-3.5-15.918q24.743-88.49,48.905-177.156c.924-3.383.139-7.259.148-10.908-3.553.446-7.333.243-10.618,1.458-11.73,4.34-23.438,8.822-34.862,13.939-6.13,2.746-9.6.53-11.73-4.8-5.3-13.284-10.933-26.521-14.743-40.271-.795-2.865,4.915-9.91,8.963-11.555,30.925-12.57,62.209-24.2,93.327-36.269q85.921-33.32,171.728-66.948c6.872-2.709,11.5-1.638,15.805,4.062q57.336,76,114.752,151.923,28.173,37.208,56.715,74.111c1.494,1.934,4.239,2.847,6.4,4.233Q641.731,382.134,641.728,390.3Z" transform="translate(25.272)" fill="#3c9cb5" fill-rule="evenodd"/>
    <path id="Path_16" data-name="Path 16" d="M155,310.07c1.838-.392,4.2-.163,5.436-1.267,13.658-12.15,24.607-7.254,36.736,3.764,26.74,24.3,64.646,18.681,85.211-11.513,8.991-13.2,10.3-13.2,19.649.077,25,35.478,71.38,35.124,95.876-.737,8.461-12.383,10.335-12.355,18.975.287,24.534,35.894,70.6,36.038,95.885.31,9.339-13.2,10.105-13.183,19.683.4,22.276,31.6,59.571,35.1,89.007,8.358,13.444-12.208,26.765-10.724,33.545,3.6,4.5,9.487,0,16.576-5.775,23.088-28.034,31.614-78.947,39.991-114.778,18.275-8.629-5.231-14.97-5.159-23.845-.191-30.518,17.089-61.764,16.889-92.228-.411-7.929-4.508-13.715-4.825-21.832-.168-30.786,17.682-62.346,17.572-93.249.306-7.935-4.433-13.715-5.332-21.757-.345-35.181,21.8-82.841,15.5-112.6-13.762-3.892-3.829-9.255-6.078-13.938-9.06Q155,320.569,155,310.07Z" transform="translate(0 193.182)" fill="#3c9cb5" fill-rule="evenodd"/>
  </g>
</svg>
