<svg xmlns="http://www.w3.org/2000/svg" width="373.823" height="512" viewBox="0 0 373.823 512">
  <g id="improving-drinking-water" transform="translate(2085.668 333.423)">
    <path id="Path_11" data-name="Path 11" d="M454.168,595.067c-2.483,3.027-4.728,6.283-7.479,9.034-17.8,17.817-35.795,35.422-53.5,53.314-5.169,5.227-9.344,8.5-16.04,1.662-18.748-19.143-37.983-37.812-56.9-56.8-2.147-2.157-3.487-5.113-7.126-10.6,7.613,0,12.47,0,17.325,0,7.959,0,12.109-3.156,11.037-11.919-1.479-12.085-2.7-24.221-3.4-36.375-.5-8.8-4.66-12.07-13.187-11.9-17.456.339-34.934-.18-52.381.4-10.377.349-15.341-3.266-17.1-13.974Q227.1,345.439,198.156,173.082c-3.687-22.155-3.631-22.091,18.19-22.089q168.131.018,336.258-.041c17.888-.007,19.257,1.928,16.384,20.044q-17.748,111.869-35.134,223.795c-6.314,40.515-12.709,81.023-18.453,121.619-1.63,11.525-6.48,16.055-18.29,15.492-17.829-.853-35.729-.139-53.595-.429-8.086-.134-11.785,3.1-12.258,11.342a332.914,332.914,0,0,1-3.5,35.132c-1.777,10.752,2.549,14.227,12.5,13.5,4.167-.3,8.374-.049,12.56-.049Q453.5,593.237,454.168,595.067ZM384.435,166.985v.112q-37.721,0-75.445,0c-27.989-.019-55.976,0-83.965-.139-7.333-.039-13.367.712-11.4,10.572q5.227,26.236,10.272,52.505c1.438,7.457,5.149,12.022,13.384,10.287,13.057-2.756,26.824-3.965,38.934-9.056,30.826-12.955,60.1-9.526,89.406,4,44.955,20.756,89.93,20.829,135.446.989,10.445-4.552,22.445-6.071,33.911-7.547,7.72-.992,10.5-4.786,11.525-11.52,1.828-12.024,3.582-24.063,5.707-36.038,2.188-12.346.863-14.154-12.014-14.159Q462.313,166.959,384.435,166.985Zm1.236,127.226c-2.859,2.015-4.56,2.647-5.361,3.867-16.44,25.033-34.06,49.408-48.735,75.442-12.134,21.524-13.633,45.114,1.065,66.93,17.217,25.559,53.668,33.019,83.935,17.893,24.165-12.08,36.991-44.6,25.023-72.338-9.358-21.7-23.139-41.544-35.458-61.907C399.966,313.89,392.672,304.359,385.671,294.211Z" transform="translate(-2282 -484.375)" fill="#3c9cb5" fill-rule="evenodd"/>
  </g>
</svg>
