<svg xmlns="http://www.w3.org/2000/svg" width="13.511" height="13.444" viewBox="0 0 13.511 13.444">
  <g id="edit_2_" data-name="edit (2)" transform="translate(0 -0.261)">
    <path id="Path_40" data-name="Path 40" d="M12.471,46.3a.336.336,0,0,0-.337.337v2.988a1.011,1.011,0,0,1-1.01,1.01H1.683a1.011,1.011,0,0,1-1.01-1.01V40.855a1.011,1.011,0,0,1,1.01-1.01H4.67a.337.337,0,0,0,0-.673H1.683A1.684,1.684,0,0,0,0,40.855v8.769a1.684,1.684,0,0,0,1.683,1.683h9.442a1.684,1.684,0,0,0,1.683-1.683V46.636a.336.336,0,0,0-.337-.337Zm0,0" transform="translate(0 -37.602)" fill="#6a6a6a"/>
    <path id="Path_41" data-name="Path 41" d="M117.223.7a1.514,1.514,0,0,0-2.142,0l-6,6a.336.336,0,0,0-.086.148l-.789,2.85a.336.336,0,0,0,.414.414l2.85-.79a.336.336,0,0,0,.148-.086l6-6a1.516,1.516,0,0,0,0-2.142Zm-7.412,6.222,4.913-4.914L116.309,3.6,111.4,8.511Zm-.317.635,1.266,1.266-1.751.485Zm7.647-4.8-.357.357L115.2,1.537l.357-.357a.841.841,0,0,1,1.19,0l.4.395A.842.842,0,0,1,117.142,2.765Zm0,0" transform="translate(-104.55)" fill="#6a6a6a"/>
  </g>
</svg>
