<svg xmlns="http://www.w3.org/2000/svg" width="512" height="355.678" viewBox="0 0 512 355.678">
  <g id="Incidence-of-catastrophic-expenditure_copy" data-name="Incidence-of-catastrophic-expenditure copy" transform="translate(-50.315 -108.774)">
    <path id="Path_18" data-name="Path 18" d="M305.967,191.867q86.711,0,173.424.015c16.19.009,20.322,4.274,20.319,20.489,0,39.3-.316,78.612.23,117.908.138,10-4.282,11.238-12.295,11.145-7.819-.086-12.986-1.03-12.708-11.081.595-21.507-.017-43.048.421-64.562.154-7.628-3.227-11.3-9.74-13.845-12.2-4.774-20.6-13.928-25.079-26.029-2.544-6.874-6.382-8.88-13.114-8.865q-109.9.245-219.8.164c-3.4,0-6.824.262-10.2-.043-14.4-1.308-26.416-.8-32.77,16.827-2.775,7.7-13.354,13.083-21.248,18.161-5.512,3.545-8.5,6.571-8.416,13.743.406,35.554.316,71.119.009,106.675-.06,6.991,2.23,10.729,8.7,13.4,11.532,4.759,20.54,12.845,25.044,24.875,2.708,7.231,7.053,9.659,14.729,9.627,66.464-.284,132.93-.163,199.393-.187,12.181,0,12.153-.054,10.823,11.926a31.026,31.026,0,0,0-.007,5.592c.4,5.641-2.361,7.959-7.723,7.9-8.037-.083-16.075-.059-24.111-.058q-115.928.026-231.855.058c-14.641,0-19.426-4.794-19.431-19.642q-.028-107.148-.007-214.3c0-15.214,4.729-20,20.122-20.008q87.641-.065,175.283-.019C305.967,191.781,305.967,191.825,305.967,191.867Z" transform="translate(14.167 17.061)" fill="#2a7c9b" fill-rule="evenodd"/>
    <path id="Path_19" data-name="Path 19" d="M358.081,309.795c-.493,26.124-9.083,48.936-29.155,66.227-29.617,25.511-71,22.495-97.212-6.47-29.151-32.21-29.522-86.635-.811-119.237,33.608-38.164,92.074-30.782,115.973,14.642C354.252,278.981,358.426,293.8,358.081,309.795ZM304.727,286.76c.272-.347,4.143-3.188,3.8-5.384-.52-3.382-3.382-8.255-6.217-9.045-5.836-1.63-10.9-1.931-13.1-9.358-1.446-4.889-9.717-3.3-12.9,1.325-2.775,4.043-6.194,8.213-10.321,10.641-7.468,4.395-13.581,9.706-13.686,18.584-.107,9.087,6.182,14.638,14.046,18.069,6.541,2.854,13.455,4.885,19.89,7.941,2.086.988,4.828,4.6,4.353,6.063-.778,2.383-3.854,5.474-6.135,5.626-6.11.4-12.651.489-18.389-1.313-6.712-2.106-10.779-1.863-12.691,5.581-2.055,8,3.649,9.02,8.98,9.666,6.633.807,11.846,2.514,14.217,9.821.613,1.891,4.973,3.615,7.516,3.491,1.989-.1,5.2-2.968,5.489-4.958.94-6.388,5.017-8.325,10.3-10.44,8.546-3.423,14.849-9.5,14.964-19.526.119-10.125-6.13-15.876-14.833-19.411-7.2-2.927-14.584-5.454-21.729-8.52-1.733-.744-2.858-2.909-4.263-4.422,1.727-1.476,3.382-4.109,5.2-4.23C286.57,286.474,293.962,286.76,304.727,286.76Z" transform="translate(35.571 25.061)" fill="#2a7c9b" fill-rule="evenodd"/>
    <path id="Path_20" data-name="Path 20" d="M133.368,193.521c5.613-2.1,11.162-4.386,16.848-6.261q117.505-38.78,235.04-77.474c8.332-2.748,16,.1,18.944,8.518,8.329,23.794,16.16,47.764,24,71.729.568,1.728.348,4.633-.76,5.823-4.2,4.51-23,1-25.591-4.654-1.419-3.092-1.58-6.94-3.507-9.57-2.278-3.108-5.727-7.306-8.878-7.495-15.722-.944-27.69-7.911-37.995-19.391-2.181-2.43-7.963-3.835-11.155-2.811-43.861,14.1-87.55,28.736-131.314,43.14a37.888,37.888,0,0,1-10.9,2.2c-18.691.35-37.388.436-56.083.441-2.8,0-5.59-.907-8.384-1.395Q133.5,194.921,133.368,193.521Z" transform="translate(17.891 0)" fill="#2a7c9b" fill-rule="evenodd"/>
    <path id="Path_21" data-name="Path 21" d="M112.439,188.471c-.925,17.159-.543,33.268-3.194,48.866-1.209,7.122-7.66,13.936-13.092,19.587-4.811,5-6.418,8.828-3.289,15.421,16.754,35.306,19.514,72.924,17.432,111.236-.119,2.18-1.044,4.314-3.9,6.74a75.127,75.127,0,0,1-3.573-7.824q-24.8-75.455-49.47-150.948c-6.079-18.556-3.908-22.721,14.568-28.709,12.737-4.128,25.372-8.573,38.076-12.8C108.248,189.287,110.622,188.9,112.439,188.471Z" transform="translate(0 17.201)" fill="#2a7c9b" fill-rule="evenodd"/>
    <path id="Path_22" data-name="Path 22" d="M420.712,376.328q-28.021,0-56.041-.006c-9.71-.009-15.233-4.59-15.149-12.489.082-7.726,5.739-12.741,15.225-12.765q56.038-.133,112.083.07c10.01.041,14.888,4.537,14.918,12.741.033,8.33-4.668,12.326-15,12.374-18.679.083-37.36.023-56.041.023C420.712,376.292,420.712,376.309,420.712,376.328Z" transform="translate(66.84 54.518)" fill="#2a7c9b" fill-rule="evenodd"/>
    <path id="Path_23" data-name="Path 23" d="M422.816,403.27c-17.748,0-35.5.264-53.239-.188a22.972,22.972,0,0,1-12.707-4.153c-6.5-5-5.207-14.025,2.249-17.553a28.384,28.384,0,0,1,11.718-2.252c35.184-.164,70.371-.094,105.556-.089,1.246,0,2.5-.042,3.733.079,7.252.721,12.646,3.877,13.356,11.746.589,6.53-5.458,12.142-13.686,12.258-18.989.27-37.986.085-56.981.085C422.816,403.226,422.816,403.249,422.816,403.27Z" transform="translate(67.582 61.105)" fill="#2a7c9b" fill-rule="evenodd"/>
    <path id="Path_24" data-name="Path 24" d="M424.941,324.131c16.825,0,33.648-.1,50.473.078,3.98.042,8.739-.115,11.716,1.91,3.387,2.3,7.469,7.233,7.065,10.506-.471,3.8-4.884,8.129-8.691,10.207-3.515,1.921-8.487,1.517-12.819,1.529-33.025.109-66.051.07-99.075.073-1.558,0-3.119.021-4.673-.065-7.726-.417-13.445-3.646-14.059-11.971-.514-6.947,5.532-11.981,14.917-12.138,18.378-.311,36.763-.091,55.145-.091Z" transform="translate(68.092 48.686)" fill="#2a7c9b" fill-rule="evenodd"/>
    <path id="Path_25" data-name="Path 25" d="M393.935,297.785A22.791,22.791,0,0,1,371,320.942a23.214,23.214,0,0,1-22.885-23.38A22.948,22.948,0,0,1,370.84,275.07C384.222,274.83,393.91,284.36,393.935,297.785Z" transform="translate(67.274 37.497)" fill="#2a7c9b" fill-rule="evenodd"/>
    <path id="Path_26" data-name="Path 26" d="M176.454,320.917A23.139,23.139,0,0,1,154.015,297.2c.393-13.14,10.446-22.486,23.755-22.087a22.476,22.476,0,0,1,22.061,22.928A23.258,23.258,0,0,1,176.454,320.917Z" transform="translate(23.424 37.504)" fill="#2a7c9b" fill-rule="evenodd"/>
  </g>
</svg>
