<svg id="expenses" xmlns="http://www.w3.org/2000/svg" width="174.421" height="171.514" viewBox="0 0 174.421 171.514">
  <path id="Path_63" data-name="Path 63" d="M161.886,20.442H147.35v5.814h14.535a8.721,8.721,0,0,1,8.721,8.721v81.4H144.443V27.96L119.484,3H33.977V116.373H7.814V32.07c0-1.439,0-5.814,8.721-5.814H28.163V20.442H16.535C7.433,20.442,2,24.8,2,32.07v98.838a14.552,14.552,0,0,0,14.535,14.535H65.954v11.628H51.419a8.721,8.721,0,0,0-8.721,8.721V168.7H36.884v5.814H141.536V168.7h-5.814v-2.907A8.721,8.721,0,0,0,127,157.072H112.466V145.443h49.419a14.553,14.553,0,0,0,14.535-14.535V34.977a14.553,14.553,0,0,0-14.535-14.535Zm-40.7-7.518,13.332,13.332H121.187Zm-81.4-4.111h75.582V32.07h23.256v84.3H39.791ZM127,162.886a2.907,2.907,0,0,1,2.907,2.907V168.7h-81.4v-2.907a2.907,2.907,0,0,1,2.907-2.907Zm-55.233-5.814V145.443h34.884v11.628Zm98.838-26.163a8.721,8.721,0,0,1-8.721,8.721H16.535a8.721,8.721,0,0,1-8.721-8.721v-8.721H170.607Z" transform="translate(-2 -3)" fill="#334bac"/>
  <path id="Path_64" data-name="Path 64" d="M27.721,35.721a2.907,2.907,0,0,1,2.907,2.907h5.814a8.721,8.721,0,0,0-5.814-8.186V27H24.814v3.442a8.7,8.7,0,0,0,2.907,16.907,2.907,2.907,0,1,1-2.907,2.907H19a8.721,8.721,0,0,0,5.814,8.186v3.442h5.814V58.442a8.7,8.7,0,0,0-2.907-16.907,2.907,2.907,0,1,1,0-5.814Z" transform="translate(30.419 42.768)" fill="#334bac"/>
  <path id="Path_65" data-name="Path 65" d="M46.442,52.721a8.721,8.721,0,1,0-8.721,8.721A8.721,8.721,0,0,0,46.442,52.721Zm-8.721,2.907a2.907,2.907,0,1,1,2.907-2.907A2.907,2.907,0,0,1,37.721,55.628Z" transform="translate(49.489 75.187)" fill="#334bac"/>
  <path id="Path_66" data-name="Path 66" d="M36.628,47.7H54.07V36.07H65.7V18.628H54.07V7H36.628V18.628H25V36.07H36.628ZM30.814,30.256V24.442H42.442V12.814h5.814V24.442H59.884v5.814H48.256V41.884H42.442V30.256Z" transform="translate(41.861 4.628)" fill="#334bac"/>
  <path id="Path_67" data-name="Path 67" d="M29,28H75.512v5.814H29Z" transform="translate(49.489 44.675)" fill="#334bac"/>
  <path id="Path_68" data-name="Path 68" d="M29,32H75.512v5.814H29Z" transform="translate(49.489 52.303)" fill="#334bac"/>
  <path id="Path_69" data-name="Path 69" d="M29,36H75.512v5.814H29Z" transform="translate(49.489 59.931)" fill="#334bac"/>
</svg>
