<svg xmlns="http://www.w3.org/2000/svg" width="102.782" height="63.598" viewBox="0 0 102.782 63.598">
  <g id="shap1" transform="translate(-114.288 -31.402)">
    <path id="Path_37" data-name="Path 37" d="M214.843,57.571c-23.922-34.851-73.811-34.9-98.145-.094-2.574,3.682-3.586,6.352-.5,10.3C128.82,83.927,144.563,94.126,166.091,95c20.447-.933,36.328-10.889,48.964-27.074C218.076,64.058,217.448,61.365,214.843,57.571Zm-48.771,26c-12.164.136-21.835-8.778-22.042-20.316-.206-11.471,9.361-20.931,21.321-21.085,12.082-.156,21.79,8.848,21.988,20.393C187.54,74.2,178.184,83.436,166.071,83.572Z" transform="translate(0 0)" fill="#108783" fill-rule="evenodd"/>
    <path id="Path_38" data-name="Path 38" d="M764.328,330.76c-3.014.278-5.2,1.725-5.4,4.878-.248,3.9,2.218,5.617,5.785,5.439,3.026-.149,5.12-1.881,4.856-5.189C769.328,332.833,767.493,331.038,764.328,330.76Z" transform="translate(-605.453 -281.167)" fill="#108783" fill-rule="evenodd"/>
  </g>
</svg>
