<svg xmlns="http://www.w3.org/2000/svg" width="512" height="424.036" viewBox="0 0 512 424.036">
  <g id="family" transform="translate(-725.545 -380.637)">
    <path id="Path_21" data-name="Path 21" d="M868.859,512.505c-.221,2.358-.632,4.715-.633,7.073Q868.176,646.9,868.1,774.23a31.341,31.341,0,0,1-2.277,12.106c-3.292,7.61-11.29,11.251-19.418,9.748a18.07,18.07,0,0,1-14.475-16.355c-.141-1.807-.073-3.633-.073-5.45q0-61.345,0-122.689c0-8.381-2.694-12.459-8.126-12.367-5.459.092-7.942,3.994-7.942,12.5,0,40.716.08,81.43-.117,122.145a32.2,32.2,0,0,1-2.7,13.08c-3.522,7.567-11.732,10.86-19.739,8.965a17.839,17.839,0,0,1-13.741-16.342c-.168-2.353-.129-4.723-.129-7.084q-.008-126.508-.034-253.016c0-2.329-.432-4.657-.664-6.985l-1.856-.276a39.617,39.617,0,0,0-2.468,5.345c-6.717,22.626-13.332,45.283-20.054,67.907a27.154,27.154,0,0,1-2.981,6.966,13.782,13.782,0,0,1-17.212,5.354c-6.326-2.789-9.97-9.277-8.032-16.063,3.837-13.436,8.173-26.732,12.352-40.069,5.048-16.11,10.184-32.192,15.215-48.306,5.668-18.157,17.239-26.774,36.274-26.8q34.117-.044,68.234,0c18.3.032,29.766,8.283,35.308,25.717,9.514,29.925,18.832,59.912,28.321,89.843a11.867,11.867,0,0,0,2.846,4.472c8.658,8.827,17.482,17.491,26.11,26.348a17.5,17.5,0,0,0,13.618,5.6c11.823-.2,23.676.363,35.465-.293a20.958,20.958,0,0,0,12.019-4.968c9.287-8.413,17.906-17.568,26.679-26.54a13.039,13.039,0,0,0,3.047-4.96c9.654-30.456,19.119-60.973,28.817-91.416,4.65-14.6,17.01-23.656,32.426-23.758q36.571-.245,73.145,0c15.832.1,27.882,8.931,32.732,24.029q14.161,44.073,27.912,88.277c2.916,9.314-1.024,17.331-9.28,19.606-8.041,2.215-15.126-2.355-17.874-11.63q-10.208-34.466-20.381-68.945c-.578-1.944-1.5-3.785-2.262-5.673l-1.655.082c-.4,1.7-1.141,3.407-1.154,5.114-.1,12.723-.32,25.455.092,38.166.143,4.422,1.726,8.863,3.058,13.171q15.361,49.688,30.887,99.326c.428,1.372.782,2.766,1.362,4.83H1184.3c-.145,2.676-.356,4.77-.358,6.865-.022,31.446.056,62.89-.1,94.335a31.125,31.125,0,0,1-2.055,11.63c-3.435,8.184-11.608,12-20.14,10.206A17.687,17.687,0,0,1,1147.6,778.77c-.183-21.265-.093-42.532-.1-63.8-.008-13.614,0-27.231,0-41.7-4.824,0-9.324-.305-13.718.238-.975.12-2.237,3.235-2.25,4.979-.158,20.719-.1,41.441-.1,62.163,0,12.541.147,25.086-.093,37.622-.164,8.631-6.519,16.179-14.323,17.781-8.1,1.663-16.75-2.261-19.99-9.778a27.556,27.556,0,0,1-1.852-10.568c-.135-31.808-.08-63.617-.08-95.426v-6.951h-38.305c3.617-11.763,6.977-22.792,10.4-33.8,8.674-27.907,17.475-55.775,25.965-83.738a55.155,55.155,0,0,0,1.862-13.895c.292-7.986.131-15.992.041-23.988a38.7,38.7,0,0,0-.821-5.446l-1.642-.287a36.316,36.316,0,0,0-2.52,5.263c-6.285,21.05-12.979,42-18.486,63.25-2.55,9.839-8.052,17.345-14.6,24.234-13.275,13.969-26.99,27.526-40.728,41.045a14.933,14.933,0,0,0-4.738,11.58q.162,60.8.033,121.6a31.912,31.912,0,0,1-.725,8.1c-1.63,6.117-7.75,9.748-14.436,8.97a12.981,12.981,0,0,1-11.437-13.13c-.134-18.539-.049-37.079-.056-55.62,0-1.454.525-3.282-.156-4.283-1.369-2.016-3.413-4.961-5.161-4.949-1.8.013-3.921,2.868-5.24,4.905-.756,1.167-.222,3.185-.222,4.82-.011,18.358.082,36.717-.06,55.074-.06,7.769-5.594,13.2-12.954,13.284-7.674.091-13.183-5.345-13.486-13.336-.062-1.633-.02-3.271-.02-4.907V669.019c0-5.453.495-10.968-.177-16.337-.437-3.493-1.761-7.532-4.088-10.017-10.435-11.146-21.2-22-32.178-32.616-10.371-10.024-17.818-21.324-21.374-35.644-4.719-19.016-10.83-37.686-16.4-56.489-.575-1.944-1.5-3.785-2.263-5.673Z" transform="translate(0 8.236)" fill="#208fb8" fill-rule="evenodd"/>
    <path id="Path_22" data-name="Path 22" d="M818.879,380.639a38.662,38.662,0,1,1-38.687,38.575A38.679,38.679,0,0,1,818.879,380.639Z" transform="translate(5.243 0)" fill="#208fb8" fill-rule="evenodd"/>
    <path id="Path_23" data-name="Path 23" d="M1106.039,380.638a38.663,38.663,0,0,1-.557,77.323c-21.634-.252-38.562-17.253-38.5-38.662A38.4,38.4,0,0,1,1106.039,380.638Z" transform="translate(30.853 0)" fill="#208fb8" fill-rule="evenodd"/>
    <path id="Path_24" data-name="Path 24" d="M960.285,600.487a31.015,31.015,0,0,1-31.155-30.826,31.173,31.173,0,1,1,62.342.037A31.03,31.03,0,0,1,960.285,600.487Z" transform="translate(18.591 14.364)" fill="#208fb8" fill-rule="evenodd"/>
  </g>
</svg>
