<svg xmlns="http://www.w3.org/2000/svg" width="422.531" height="512" viewBox="0 0 422.531 512">
  <g id="undergone-femail-genital_copy" data-name="undergone-femail-genital copy" transform="translate(-142.562 -104.164)">
    <path id="Path_37" data-name="Path 37" d="M206.808,344.123c5.973.279,12.282,1.913,17.842.531a99.953,99.953,0,0,0,25.887-10.087c7.431-4.31,11.522-3.511,17.275,2.8,28.956,31.776,64.43,42.859,106.183,30.979,43.058-12.252,72.279-54.273,70.99-99.057-1.948-67.785-70.735-107.006-131.971-84.19-27.962,10.418-46.028,30.612-58.532,57.7-7.138,15.469-18.735,28.967-29.038,42.821-2.51,3.376-7.768,4.786-11.874,6.88-6.611,3.371-13.616,6.069-19.911,9.934-9.306,5.712-13.692,4.237-15.279-6.386-4.81-32.217.039-63.205,13.521-92.621,22.605-49.323,60.542-82.216,113.107-94.232,54.528-12.465,106.192-2.281,148.7,36.028,42.13,37.97,65,85.876,62.021,143.613-.8,15.515-6.492,30.753-9.541,46.2a34.512,34.512,0,0,0,.106,12.314c1.6,9.289,4.758,18.406,5.481,27.731.812,10.468,3.335,13.359,13.774,11.245,15.584-3.155,20.223.2,23.065,15.443,5,26.822,10.316,53.586,15.638,80.352,2.6,13.063-.549,19.005-13.083,23.516-2.036.736-4.194,1.114-6.267,1.749-9.919,3.038-11.4,7.4-5.269,15.448.562.737,1.292,1.35,1.842,2.1,10.228,13.914,5.526,25.647-11.293,28.809-45.637,8.58-91.217,17.463-136.893,25.829-8.4,1.538-12.059,5.431-11.275,13.746,2.538,26.967-2.533,22.5-23.153,22.669-10.861.088-21.726-.026-32.586.153-8.278.138-13.85-3.14-15.243-11.655-1.227-7.489-5.587-8.464-12.174-7.2-26.811,5.14-53.821,9.338-80.477,15.169-17.575,3.842-21.594-3.019-22.695-19.609-.181-2.721.67-5.518,1.086-8.271,1.209-8-1.536-11.036-9.552-10.377a55.318,55.318,0,0,0-5.494.985c-10.763,2-18.516-2.492-20.756-13.074-6.1-28.83-12.038-57.7-17.553-86.647-2.7-14.182.717-18.521,14.694-21.417,14.126-2.928,14.091-5.082,6.665-17.147-3.809-6.187-4.775-15.536-3.466-22.818.585-3.255,9.72-5.831,15.34-7.151,13.865-3.255,27.971-5.472,41.924-8.377,6.9-1.436,7.891-4.995,3.188-10.468-11.089-12.9-21.531-26.082-26.412-43.028-1.911-6.636-7.191-12.228-10.213-18.639-2.868-6.081-1.581-9.71,6.163-11.99,15.7-4.622,30.947-10.805,46.3-16.56,3.8-1.425,7.764-6.451,11.092-.7,2.948,5.092,6.669,10.988,1.227,17.108a72.7,72.7,0,0,1-33.983,21.823,96.22,96.22,0,0,0-9.5,3.95C206.561,341.4,206.684,342.762,206.808,344.123ZM525.039,469.01c-2.585-12.452-4.373-23.5-7.4-34.191-.927-3.274-5.252-5.587-8.023-8.342-1.535,3.164-4,6.209-4.432,9.519-1.35,10.277-7.364,13.411-16,7.628-2.829-1.892-5.421-4.136-8.109-6.235-9.5-7.416-15.482-6.323-22.039,4.015a100.987,100.987,0,0,1-5.641,8.522c-7.088,9.006-12.571,8.209-18.1-1.618-1.641-2.913-5.717-4.457-8.677-6.628-1.579,2.928-4.311,5.781-4.513,8.8-.512,7.813-3.95,11.826-11.7,13.018-7.956,1.222-15.754,4.1-23.712,4.522-6.339.335-13.571-.492-19.085-3.354-12.96-6.721-22.391-5.533-32.416,5.216-3.613,3.87-8.366,7.489-13.3,9.144-8.772,2.946-18.084,4.259-27.151,6.343-7.485,1.721-13.215.713-16.53-7.576-1.08-2.7-5.315-4.14-8.109-6.155-1.739,2.855-4.481,5.526-5.041,8.595-2.17,11.888-6.852,14.025-17.156,7.14-1.8-1.2-3.581-2.458-5.336-3.736-12.085-8.816-16.057-8.083-24.593,4.553-1.214,1.8-2.5,3.546-3.714,5.351-7.314,10.919-11.2,10.679-18.843-.084-1.948-2.743-6.243-3.82-9.457-5.663-1.116,3.259-3.565,6.721-3.1,9.74,1.544,10.075,4.241,19.966,6.272,29.973,1.049,5.159,2.4,10.759,8.753,9.414,2.222-.469,4.241-6.293,4.693-9.88,1.171-9.286,6.7-12.552,14.813-7.66,4.235,2.55,8.012,5.853,12.105,8.653,7.187,4.926,12.457,4.121,17.551-2.862,2.916-4,5.155-8.507,8.153-12.441,6.641-8.712,12.01-7.854,17.134,1.87,1.356,2.572,4.66,4.114,7.068,6.129,1.725-2.477,4.468-4.766,4.972-7.472,1.293-6.911,4.1-11.174,11.7-12.186a153.839,153.839,0,0,0,23.421-5.023c7.654-2.278,14.219-1.825,21.2,2.561,12.72,7.991,21.868,5.846,31.93-5.457,3.136-3.522,7.252-7.155,11.593-8.42a192.9,192.9,0,0,1,31.83-6.529c3.555-.408,7.882,2.859,11.3,5.239,2.954,2.052,5.123,5.231,7.641,7.911,2.222-3.179,5.3-6.068,6.5-9.591,3.157-9.278,8.571-11.575,16.929-6.148,3.373,2.194,6.453,4.831,9.727,7.183,7.321,5.259,12.929,4.449,18.335-2.751,2.045-2.721,3.818-5.649,5.669-8.515,7.829-12.109,11.867-12.051,19.747-.572,1.76,2.568,5.721,4.533,8.85,4.823C522.057,475.91,523.849,470.993,525.039,469.01Z" transform="translate(0 0)" fill="#3c9cb5" fill-rule="evenodd"/>
    <path id="Path_38" data-name="Path 38" d="M250.842,168.2c5.9,1.772,11.78,3.637,17.725,5.255,1.772.48,4.227,1.052,5.525.235,7.22-4.542,12.966-4.394,18.244,3.226.9,1.3,7.364,1.052,8.426-.464,4.88-6.967,10.186-8.726,16.958-3.337,7.3,5.807,8.179,14.6,2.92,21.425-4.44,5.766-8.441,11.871-12.678,17.8-.57.8-1.648,2.171-2.036,2.03-8.7-3.2-14.189,3.879-21.19,5.876-2.429.693-7.745-4.907-10.1-8.66-3.633-5.793-5.969-9.872-10.675-1.024-.945,1.78-3.639,4.01-5.255,3.812-6.993-.854-13.094-.377-18.118,5.476-.779.906-4.848.266-6.212-.971-1.32-1.192-2.253-5.1-1.4-6.05,6.226-6.9,2.547-13.388-.517-19.645-7.561-15.442-2.723-23.221,14.866-23.339,1.014-.006,2.027,0,3.039,0C250.523,169.294,250.682,168.744,250.842,168.2Zm5.312,23.933L246.965,180.1c-2.113,2.841-6.3,6.016-5.906,8.455.815,5.075,4.055,9.758,6.3,14.6C249.948,199.909,252.539,196.663,256.154,192.13Z" transform="translate(70.839 54.13)" fill="#3c9cb5" fill-rule="evenodd"/>
    <path id="Path_39" data-name="Path 39" d="M284.6,246.038c-2.109-3.838-4.217-7.674-6.216-11.312-1.33.239-2.145.146-2.587.507-3.506,2.832-6.94,5.756-10.4,8.649-.811-4.329-1.928-8.627-2.356-12.994-.554-5.673-.76-11.4-.75-17.106.014-6.658,2.713-10.231,10.123-8.094,2.4.691,5.789,1.579,7.488.474,8.937-5.8,9.927.624,10.32,6.662a224.491,224.491,0,0,1,.032,24.168c-.128,3-1.616,5.947-2.484,8.917Z" transform="translate(101.957 84.652)" fill="#3c9cb5" fill-rule="evenodd"/>
    <path id="Path_40" data-name="Path 40" d="M242.591,226.558c.3-10.551,4.035-18.173,12.11-23.211,2.348-1.466,6.334-.308,9.57-.353-.6,3.52.059,8.432-2.021,10.32-8.595,7.786-8.4,6.614,2.09,12.952,3.483,2.107,5,9.734,4.9,14.787-.083,4.229-2.881,10.083-6.285,11.989-2.315,1.3-9.5-1.888-11.429-4.984C247.477,241.561,245.45,233.8,242.591,226.558Z" transform="translate(85.246 83.262)" fill="#3c9cb5" fill-rule="evenodd"/>
    <path id="Path_41" data-name="Path 41" d="M244.568,210.879c-2,10.308-3.654,20.389-6.091,30.277-.549,2.234-3.814,3.8-5.829,5.669-1.281-2.409-3.552-4.773-3.664-7.234-.363-8.023-.087-16.088.268-24.121.116-2.607.5-5.821,2.07-7.6,2.167-2.453,5.576-3.808,8.453-5.632C241.271,204.935,242.766,207.631,244.568,210.879Z" transform="translate(73.876 83.168)" fill="#3c9cb5" fill-rule="evenodd"/>
  </g>
</svg>
