<svg xmlns="http://www.w3.org/2000/svg" width="36.01" height="40" viewBox="0 0 36.01 40">
  <g id="fingerprint_1_" data-name="fingerprint (1)" transform="translate(-21.277)">
    <g id="Group_17" data-name="Group 17" transform="translate(21.277)">
      <g id="Group_16" data-name="Group 16" transform="translate(0)">
        <path id="Path_19" data-name="Path 19" d="M96.314,173.461a15.812,15.812,0,0,1-1.851-7.7c0-4.836,4.192-8.773,9.334-8.773a9.074,9.074,0,0,1,9.334,8.773,1,1,0,0,0,2,0c0-5.945-5.082-10.771-11.335-10.771s-11.335,4.836-11.335,10.771a17.764,17.764,0,0,0,2.111,8.683,20.943,20.943,0,0,0,4.022,5.266.994.994,0,0,0,.71.3.9.9,0,0,0,.69-.3.985.985,0,0,0,.01-1.409A18.942,18.942,0,0,1,96.314,173.461Z" transform="translate(-85.794 -140.435)" fill="#1276aa"/>
        <path id="Path_20" data-name="Path 20" d="M80.385,4.816a23.409,23.409,0,0,1,22.288.01,1.073,1.073,0,0,0,.46.11h0a1,1,0,0,0,.46-1.888,25.445,25.445,0,0,0-24.168.01,1,1,0,1,0,.96,1.759Z" transform="translate(-73.505 0)" fill="#1276aa"/>
        <path id="Path_21" data-name="Path 21" d="M54.134,103.04a16.614,16.614,0,0,0-15.021,9.183,14.785,14.785,0,0,0-1.37,6.465,22.233,22.233,0,0,0,1.46,7.9,1,1,0,0,0,1.88-.7,19.92,19.92,0,0,1-1.33-7.2,12.827,12.827,0,0,1,1.17-5.605,14.592,14.592,0,0,1,13.221-8.053c7.991,0,14.491,6.125,14.491,13.659a4.17,4.17,0,0,1-8.321,0,6.167,6.167,0,0,0-12.321,0,14.623,14.623,0,0,0,4.33,10.432,15.279,15.279,0,0,0,7.43,4.2.746.746,0,0,0,.26.04,1,1,0,0,0,.26-1.958,13.5,13.5,0,0,1-6.55-3.687,12.637,12.637,0,0,1-3.74-9.013,4.17,4.17,0,0,1,8.321,0,6.167,6.167,0,0,0,12.321,0C70.625,110.064,63.225,103.04,54.134,103.04Z" transform="translate(-36.201 -93.355)" fill="#1276aa"/>
        <path id="Path_22" data-name="Path 22" d="M57.1,60.93a20.917,20.917,0,0,0-7.5-6.495,23.093,23.093,0,0,0-20.63.02A20.824,20.824,0,0,0,21.461,61a.994.994,0,0,0,.24,1.389,1.043,1.043,0,0,0,.58.18,1.018,1.018,0,0,0,.82-.41,18.775,18.775,0,0,1,6.79-5.925,21.058,21.058,0,0,1,18.8-.02,18.771,18.771,0,0,1,6.78,5.875,1.006,1.006,0,0,0,1.4.23A.993.993,0,0,0,57.1,60.93Z" transform="translate(-21.277 -47.141)" fill="#1276aa"/>
        <path id="Path_23" data-name="Path 23" d="M214.5,268.765a13.123,13.123,0,0,1-2.088.19,8.646,8.646,0,0,1-8.943-8.543,1,1,0,1,0-2,0,10.655,10.655,0,0,0,4.746,8.773,10.854,10.854,0,0,0,6.195,1.769,14.309,14.309,0,0,0,2.438-.22,1,1,0,1,0-.35-1.968Z" transform="translate(-184.566 -235.08)" fill="#1276aa"/>
      </g>
    </g>
  </g>
</svg>
