<svg xmlns="http://www.w3.org/2000/svg" width="512" height="535.315" viewBox="0 0 512 535.315">
  <g id="clean-fuel_copy" data-name="clean-fuel copy" transform="translate(1362.545 -107.183)">
    <path id="Path_9" data-name="Path 9" d="M342.364,667.244c-42.315,0-84.645.724-126.935-.274-24.864-.586-47.4-12.1-43.542-42.4,1.571-12.363.694-25.129.035-37.666-.8-15.283,6.7-25.871,19.966-29.957,18.784-5.786,22.347-16.786,22.141-35.388-1.1-98.865-.568-197.75-.427-296.63.035-25.474,17.9-39.944,48.935-39.979,43.989-.053,87.982-.153,131.968.267,15.817.151,31.919.153,47.359,3.058,21.183,3.985,30.257,17.05,30.234,38.355-.045,41.9.151,83.8-.347,125.686-.131,10.9,4,16.545,14.042,20.671,36.326,14.921,67.689,46.514,64.438,94.849-1.315,19.6-.606,39.373-.269,59.059.634,36.841,27.018,57.9,62.816,50.525,19.888-4.1,33.993-23.457,34-46.874q.03-111.233.013-222.469c.015-16.389-6.869-29.424-19.885-38.524a356.871,356.871,0,0,0-37.674-22.572C578.1,241.1,569.206,233.1,568.172,220.651c-2.758-33.183-25.857-48.627-51.5-62.506-7.709-4.174-15.531-8.393-22.4-13.746-3.017-2.354-3.786-7.6-5.574-11.529,4.061-.03,9.064-1.629,12.033.156,29.741,17.883,59.565,35.7,88.344,55.063,6.778,4.561,11.975,14.3,13.954,22.6,4.586,19.225,12.813,33.907,30.317,45.1,22.327,14.279,33.5,35.68,33.125,63.685-.923,68.279-1.38,136.606.106,204.868.719,33.052-23.913,67.744-61.778,74.334-14.638,2.547-49.126-9.158-59.611-30.618a127.071,127.071,0,0,1-12.418-42.607c-2.044-21.169-.91-42.7-.337-64.05.893-33.251-18.025-53.57-44.276-69.011-8.863-5.21-15.976-.978-16.049,9.4q-.487,68.5.03,137c.035,3.8,3.241,8.677,6.449,11.086,4.558,3.417,10.326,5.514,15.865,7.282,12.888,4.106,19.186,13.093,19.644,26.077s.033,25.972.048,38.961c.035,31.33-13.959,45-46.084,44.988q-62.843-.015-125.685,0A.114.114,0,0,0,342.364,667.244ZM433.232,497.5c-3.58-35.567-21.532-71.058-46.984-102.946-2.733-3.425-13.846-4.916-17.2-2.313-20.426,15.841-41,31.885-59.027,50.3-15.646,15.982-21.1,36.492-13.733,59.283,6,18.579,17.384,33.324,31.23,46.225,3.716,3.46,10.4,3.631,15.609,5.627,3.08,1.182,7.339,2.235,8.609,4.642a135.877,135.877,0,0,1,10.057,24.219c.908,3.03-1.607,7.081-2.562,10.666-6.434-3.664-16.863-6-18.6-11.229-7.02-21.111-23.355-36.077-45.762-36.019-7.94.02-17.7,1.375-23.438,6.042-13.856,11.275-26.108,24.6-38.456,37.623-7.128,7.521-6.125,15.549,2.63,21.275,12.554,8.212,24.992,16.879,38.43,23.4,31.738,15.4,53.423,12.612,73.082-16.178,5.22-7.646,12-10.131,21.763-5.474,4.807,2.293,13.175,1.6,17.8-1.232,7.337-4.488,3.387-11.483-.123-17.619-8.968-15.685-7.789-20.148,7.151-31.179,7.058-5.215,14.133-10.422,20.924-15.977C428.271,535.49,433.846,520.685,433.232,497.5Zm-89.02-261.36v-.148c-23,0-46,.091-68.994-.045-9.667-.055-16.237,2.5-16.174,13.988q.317,55.816-.005,111.63c-.073,11.074,4.518,16.08,15.689,16.037q67.727-.256,135.456.02c10.934.058,16.157-3.94,16.061-15.431-.312-37.224-.239-74.447-.091-111.673.045-10.757-4.817-14.757-15.448-14.526C388.551,236.48,366.378,236.143,344.212,236.143Z" transform="translate(-1534 -25)" fill="#3c9cb5" fill-rule="evenodd"/>
    <path id="Path_10" data-name="Path 10" d="M237.856,293.288V274.045l3.434.013v19.351Q239.57,293.344,237.856,293.288Z" transform="translate(-1091.835 252.67)" fill="#3c9cb5" fill-rule="evenodd"/>
  </g>
</svg>
