<svg xmlns="http://www.w3.org/2000/svg" width="24.456" height="25.414" viewBox="0 0 24.456 25.414">
  <g id="setting-gears" transform="translate(-6.858)">
    <path id="Path_14" data-name="Path 14" d="M22.887,138.623a.87.87,0,0,0-.087-.664L20.977,134.8a.875.875,0,0,0-1.2-.32l-.95.549a6.684,6.684,0,0,0-1.246-.722v-1.094a.876.876,0,0,0-.875-.875H13.065a.876.876,0,0,0-.875.875v1.094a6.685,6.685,0,0,0-1.246.722l-.95-.548a.875.875,0,0,0-1.2.32l-1.822,3.156a.875.875,0,0,0,.32,1.2l.947.547a6.674,6.674,0,0,0,0,1.442l-.947.547a.875.875,0,0,0-.32,1.2L8.8,146.043a.875.875,0,0,0,1.2.32l.95-.548a6.69,6.69,0,0,0,1.246.722v1.094a.876.876,0,0,0,.875.875H16.71a.876.876,0,0,0,.875-.875v-1.094a6.684,6.684,0,0,0,1.246-.722l.95.548a.875.875,0,0,0,1.2-.32l1.822-3.157a.875.875,0,0,0-.32-1.2l-.947-.547a6.686,6.686,0,0,0,0-1.442l.947-.547A.867.867,0,0,0,22.887,138.623Zm-8,5.6a3.8,3.8,0,1,1,3.8-3.8A3.8,3.8,0,0,1,14.887,144.224Z" transform="translate(0 -123.092)" fill="#fff"/>
    <path id="Path_15" data-name="Path 15" d="M167.247,6.54a.576.576,0,0,0,.058.44l1.206,2.089a.579.579,0,0,0,.791.212l.629-.363a4.418,4.418,0,0,0,.824.477v.725a.579.579,0,0,0,.579.579h2.412a.58.58,0,0,0,.579-.579V9.394a4.424,4.424,0,0,0,.824-.477l.629.363a.579.579,0,0,0,.791-.212l1.206-2.089a.579.579,0,0,0-.212-.791l-.627-.362a4.379,4.379,0,0,0,0-.954l.627-.362a.579.579,0,0,0,.212-.791L176.57,1.63a.579.579,0,0,0-.791-.212l-.629.363a4.417,4.417,0,0,0-.824-.477V.579A.58.58,0,0,0,173.746,0h-2.412a.58.58,0,0,0-.579.579V1.3a4.425,4.425,0,0,0-.824.477l-.629-.363a.579.579,0,0,0-.791.212L167.3,3.719a.579.579,0,0,0,.212.791l.627.362a4.379,4.379,0,0,0,0,.954l-.627.362A.576.576,0,0,0,167.247,6.54Zm5.293-3.706a2.515,2.515,0,1,1-2.515,2.515A2.515,2.515,0,0,1,172.54,2.834Z" transform="translate(-149.163)" fill="#fff"/>
    <path id="Path_16" data-name="Path 16" d="M259.286,152.773l-.432-.249a3,3,0,0,0,0-.657l.432-.249a.4.4,0,0,0,.146-.545l-.83-1.438a.4.4,0,0,0-.545-.146l-.433.25a3.042,3.042,0,0,0-.567-.328v-.5a.4.4,0,0,0-.4-.4H255a.4.4,0,0,0-.4.4v.5a3.042,3.042,0,0,0-.567.328l-.433-.25a.4.4,0,0,0-.545.146l-.83,1.438a.4.4,0,0,0,.146.545l.432.249a3,3,0,0,0,0,.657l-.432.249a.4.4,0,0,0-.146.545l.83,1.438a.4.4,0,0,0,.545.146l.433-.25a3.044,3.044,0,0,0,.567.328v.5a.4.4,0,0,0,.4.4h1.66a.4.4,0,0,0,.4-.4v-.5a3.041,3.041,0,0,0,.567-.328l.433.25a.4.4,0,0,0,.545-.146l.83-1.438a.4.4,0,0,0-.146-.544Zm-3.458,1.154a1.731,1.731,0,1,1,1.731-1.731A1.731,1.731,0,0,1,255.829,153.927Z" transform="translate(-228.172 -138.136)" fill="#fff"/>
  </g>
</svg>
