<svg id="glucose-meter" xmlns="http://www.w3.org/2000/svg" width="134.186" height="180.798" viewBox="0 0 134.186 180.798">
  <path id="Path_225" data-name="Path 225" d="M141.4,40H42.531A3.531,3.531,0,0,0,39,43.531v71.33a3.531,3.531,0,0,0,3.531,3.531H141.4a3.531,3.531,0,0,0,3.531-3.531V43.531A3.531,3.531,0,0,0,141.4,40Zm-3.531,71.33H46.062V47.062h91.811Zm0,0" transform="translate(-25.228 -25.875)" fill="#fff"/>
  <path id="Path_226" data-name="Path 226" d="M116.53,0H17.656A17.676,17.676,0,0,0,0,17.656v71.33a53.036,53.036,0,0,0,49.437,52.848v35.432a3.531,3.531,0,0,0,3.531,3.531h28.25a3.531,3.531,0,0,0,3.531-3.531V141.834a53.035,53.035,0,0,0,49.437-52.848V17.656A17.676,17.676,0,0,0,116.53,0ZM77.686,173.735H56.5v-7.062H77.686Zm0-14.125H56.5V141.954H77.686Zm49.437-70.624a45.957,45.957,0,0,1-45.906,45.906H52.968A45.957,45.957,0,0,1,7.062,88.986V17.656A10.605,10.605,0,0,1,17.656,7.062H116.53a10.605,10.605,0,0,1,10.594,10.594Zm0,0" fill="#fff"/>
  <path id="Path_227" data-name="Path 227" d="M98.2,282H62.531A3.53,3.53,0,0,0,59,285.708a22.484,22.484,0,0,0,5.713,12.73C71.51,306.276,82.774,310.25,98.2,310.25a3.531,3.531,0,0,0,3.531-3.531V285.531A3.531,3.531,0,0,0,98.2,282Zm-3.531,21.107c-19.222-.9-25.542-9.1-27.611-14.045H94.665Zm0,0" transform="translate(-38.165 -182.42)" fill="#fff"/>
  <path id="Path_228" data-name="Path 228" d="M239.2,282H203.531A3.531,3.531,0,0,0,200,285.531v21.187a3.531,3.531,0,0,0,3.531,3.531c15.421,0,26.685-3.974,33.479-11.812a22.484,22.484,0,0,0,5.713-12.73A3.53,3.53,0,0,0,239.2,282Zm-32.134,21.107V289.062h27.607C232.595,294.019,226.269,302.211,207.062,303.107Zm0,0" transform="translate(-129.376 -182.42)" fill="#fff"/>
  <path id="Path_229" data-name="Path 229" d="M162.531,209.062A3.531,3.531,0,1,0,159,205.531,3.536,3.536,0,0,0,162.531,209.062Zm0,0" transform="translate(-102.854 -130.67)" fill="#fff"/>
  <path id="Path_230" data-name="Path 230" d="M82.531,209.062H96.656a3.531,3.531,0,0,0,0-7.062H82.531a3.531,3.531,0,0,0,0,7.062Zm0,0" transform="translate(-51.104 -130.67)" fill="#fff"/>
  <path id="Path_231" data-name="Path 231" d="M242.531,209.062A3.531,3.531,0,1,0,239,205.531,3.536,3.536,0,0,0,242.531,209.062Zm0,0" transform="translate(-154.604 -130.67)" fill="#fff"/>
  <path id="Path_232" data-name="Path 232" d="M202.531,209.062A3.531,3.531,0,1,0,199,205.531,3.536,3.536,0,0,0,202.531,209.062Zm0,0" transform="translate(-128.729 -130.67)" fill="#fff"/>
</svg>
