<svg id="Group_116" data-name="Group 116" xmlns="http://www.w3.org/2000/svg" width="268.374" height="234.827" viewBox="0 0 268.374 234.827">
  <path id="Path_127" data-name="Path 127" d="M148.193,200a4.193,4.193,0,0,0,0,8.387h8.387a4.193,4.193,0,0,0,0-8.387Z" transform="translate(-68.52 -111.94)" fill="#fff"/>
  <path id="Path_128" data-name="Path 128" d="M196.193,200a4.193,4.193,0,1,0,0,8.387h8.387a4.193,4.193,0,0,0,0-8.387Z" transform="translate(-91.36 -111.94)" fill="#fff"/>
  <path id="Path_129" data-name="Path 129" d="M244.193,208.387h8.387a4.193,4.193,0,0,0,0-8.387h-8.387a4.193,4.193,0,0,0,0,8.387Z" transform="translate(-114.2 -111.94)" fill="#fff"/>
  <path id="Path_130" data-name="Path 130" d="M341.74,360.774H329.16v-12.58a4.193,4.193,0,1,0-8.387,0v12.58h-12.58a4.193,4.193,0,1,0,0,8.386h12.58v12.58a4.193,4.193,0,1,0,8.387,0V369.16h12.58a4.193,4.193,0,1,0,0-8.386Z" transform="translate(-144.653 -180.46)" fill="#fff"/>
  <path id="Path_131" data-name="Path 131" d="M342.9,387.094a3.962,3.962,0,0,0,4.193-4.193V324.193A3.962,3.962,0,0,0,342.9,320H284.193A3.962,3.962,0,0,0,280,324.193V382.9a3.962,3.962,0,0,0,4.193,4.193Zm-54.513-58.707h50.32v50.32h-50.32Z" transform="translate(-133.233 -169.04)" fill="#fff"/>
  <path id="Path_132" data-name="Path 132" d="M468.193,376.773a3.962,3.962,0,0,0,4.193-4.193v-8.387a4.193,4.193,0,1,0-8.387,0v8.387A3.962,3.962,0,0,0,468.193,376.773Z" transform="translate(-220.786 -188.073)" fill="#fff"/>
  <path id="Path_133" data-name="Path 133" d="M267.954,177.09,234.408,105.8a4.03,4.03,0,0,0-3.774-2.516H50.32V78.127H83.867a4.4,4.4,0,0,0,3.774-2.1,3.809,3.809,0,0,0,0-4.193L80.512,61.353l6.709-10.064a3.809,3.809,0,0,0,0-4.193c-.839-1.258-1.677-2.516-3.355-2.516H50.32V36.193A3.962,3.962,0,0,0,46.127,32a3.962,3.962,0,0,0-4.193,4.193v70.029L.419,176.67a3.142,3.142,0,0,0-.419,2.1v83.867a3.962,3.962,0,0,0,4.193,4.193h88.06a3.962,3.962,0,0,0,4.193-4.193V182.96h20.967a4.193,4.193,0,1,0,0-8.387H94.35l-40.675-62.9H227.7l29.773,62.9H243.214a4.193,4.193,0,0,0,0,8.387h16.773v75.48H251.6V229.087a4.193,4.193,0,1,0-8.387,0V258.44H104.833a4.193,4.193,0,1,0,0,8.387H264.18a3.962,3.962,0,0,0,4.193-4.193V178.767A2.521,2.521,0,0,0,267.954,177.09ZM50.32,52.967H75.9l-4.193,5.871a4.543,4.543,0,0,0,0,4.613L75.9,69.321H50.32ZM39.417,258.44l6.709-17.612,6.709,17.612ZM88.06,180.025V258.44H61.642L50.32,228.248V178.767a3.962,3.962,0,0,0-4.193-4.193,3.962,3.962,0,0,0-4.193,4.193v49.481L30.611,258.44H8.387V180.025l37.74-64.577Z" transform="translate(0 -32)" fill="#fff"/>
  <path id="Path_134" data-name="Path 134" d="M244.193,312.387h8.387a4.193,4.193,0,0,0,0-8.387h-8.387a4.193,4.193,0,0,0,0,8.387Z" transform="translate(-114.2 -161.426)" fill="#fff"/>
</svg>
