<svg id="Group_117" data-name="Group 117" xmlns="http://www.w3.org/2000/svg" width="181.817" height="178.123" viewBox="0 0 181.817 178.123">
  <path id="lungs" d="M5.6,155.74a2.662,2.662,0,0,0,1.86-3.275c-3.523-12.8-2.713-32.339,2.476-59.739,3.41-18,8.9-33.582,16.328-46.3A81.118,81.118,0,0,1,44.664,24.2a12.153,12.153,0,0,1,19.7,10.845c-.968,8.785-.562,21.591,6.563,33.656q-1.448,1.785-3.249,3.848l-.008.01c-2.6,2.993-5.368,5.829-8.173,8.634-.687.687-8.824,8.509-9.025,8.308a77.034,77.034,0,0,1-6.443-7.4c.032-2.53.279-10.089,2.02-15.119a2.663,2.663,0,0,0-5.034-1.742,44.054,44.054,0,0,0-1.889,9.43A46.923,46.923,0,0,1,34.66,63.9a2.664,2.664,0,0,0-5.148,1.373A53.628,53.628,0,0,0,35.6,79.187a25.707,25.707,0,0,0-11.832,1.336,2.662,2.662,0,0,0-1.488,3.46,2.7,2.7,0,0,0,3.46,1.49c5.281-2.1,11.86-.714,14.055-.148a82.653,82.653,0,0,0,6.592,7.621q-1.517,1.246-2.952,2.619A58.681,58.681,0,0,0,33.257,108.7c-3.729-3.12-8.439-7.926-10.252-13.451a2.664,2.664,0,0,0-5.062,1.662A27.021,27.021,0,0,0,21.2,103.45a27.459,27.459,0,0,0-7.792,2.257,2.661,2.661,0,0,0-1.276,3.543,2.692,2.692,0,0,0,3.544,1.276,24.167,24.167,0,0,1,9.551-2.056,53.621,53.621,0,0,0,5.506,5.051,80.934,80.934,0,0,0-3.186,7.621,95.98,95.98,0,0,0-3.092,10.465c-.878-.264-1.8-.51-2.756-.728a19.591,19.591,0,0,1-2.432-7.357,2.664,2.664,0,0,0-5.3.508,22.9,22.9,0,0,0,1.468,6.015,22.323,22.323,0,0,0-5.478.472,2.664,2.664,0,0,0,1.151,5.2c4.038-.895,8.6-.021,12.26,1.126-.623,3.421-1.01,6.482-1.244,8.979A7.09,7.09,0,0,0,36.1,148.1c.214-1,.491-2.2.841-3.551,2.833,2.532,6.012,6.072,7.32,10.054a2.7,2.7,0,0,0,3.361,1.7,2.663,2.663,0,0,0,1.7-3.362,22.463,22.463,0,0,0-2.376-4.955,22.818,22.818,0,0,0,5.909-1.8,2.664,2.664,0,0,0-2.268-4.82,19.471,19.471,0,0,1-7.554,1.662,45.162,45.162,0,0,0-4.449-4.067,79.365,79.365,0,0,1,12.465-23.985c.834,1.272,1.787,2.6,2.863,3.946-.369,3.012-1.029,10.979,1.268,17.351a2.7,2.7,0,0,0,3.41,1.6,2.663,2.663,0,0,0,1.6-3.408,29.538,29.538,0,0,1-1.319-10.207,43.529,43.529,0,0,0,6.653,5.07,2.7,2.7,0,0,0,3.666-.868,2.662,2.662,0,0,0-.868-3.665,42.373,42.373,0,0,1-13.643-14.042c1.132-1.2,2.321-2.362,3.583-3.479A190.113,190.113,0,0,1,75.167,94.056c.423-.3.835-.6,1.242-.886,1.4,6.744,3.129,17.957,3.129,38.038,0,18.893-2.505,29.818-8.12,35.425-6.2,6.2-16.821,6.18-31.512,6.159-10.831,0-22.279-1.423-28.607-11.347a2.664,2.664,0,1,0-4.492,2.864c5.925,9.29,15.865,13.806,30.388,13.806,1.759,0,3.518.006,5.277.006,14.647,0,25.365-.386,32.71-7.718,6.7-6.687,9.684-18.775,9.684-39.2,0-23.171-2.269-34.9-3.763-41.525a24.986,24.986,0,0,0,6.676-7.292,3.384,3.384,0,0,1,2.932-1.763h.375a3.381,3.381,0,0,1,2.932,1.763,24.986,24.986,0,0,0,6.676,7.292c-1.493,6.621-3.762,18.353-3.762,41.525,0,20.42,2.987,32.508,9.684,39.2,7.344,7.334,18.061,7.718,32.709,7.718,1.759,0,3.518-.006,5.277-.006,12.956,0,22.2-3.557,28.262-10.874,5.23-6.312,8.105-15.378,8.79-27.718s-.8-27.973-4.557-47.79c-3.59-18.958-9.447-35.358-17.4-48.746a2.664,2.664,0,0,0-4.58,2.723c7.642,12.852,13.276,28.67,16.751,47.013,7.086,37.413,6.1,60.012-3.1,71.121-6.608,7.976-17.221,8.932-26.869,8.947-14.691.021-25.309.037-31.513-6.159-5.615-5.607-8.119-16.532-8.119-35.425,0-20.082,1.731-31.294,3.129-38.038.406.291.818.585,1.242.886a203.972,203.972,0,0,1,16.905,13.213c1.262,1.117,2.452,2.282,3.583,3.479a42.359,42.359,0,0,1-13.643,14.042,2.664,2.664,0,0,0,2.8,4.533,43.512,43.512,0,0,0,6.658-5.074,29.51,29.51,0,0,1-1.323,10.209,2.7,2.7,0,0,0,2.505,3.568,2.667,2.667,0,0,0,2.507-1.76c2.3-6.371,1.637-14.339,1.268-17.351,1.076-1.347,2.029-2.676,2.862-3.946a79.342,79.342,0,0,1,12.466,23.985,45.155,45.155,0,0,0-4.449,4.067,19.477,19.477,0,0,1-7.554-1.662,2.664,2.664,0,0,0-2.268,4.82,22.836,22.836,0,0,0,5.909,1.8,22.464,22.464,0,0,0-2.376,4.955,2.663,2.663,0,0,0,1.7,3.362,2.7,2.7,0,0,0,3.361-1.7c1.308-3.982,4.487-7.523,7.32-10.054.35,1.351.627,2.548.841,3.551a.033.033,0,0,0,0,.011,7.1,7.1,0,0,0,13.946-2.588c-.237-2.441-.616-5.39-1.214-8.677,3.654-1.147,8.222-2.021,12.26-1.126a2.664,2.664,0,0,0,1.151-5.2,22.321,22.321,0,0,0-5.478-.472,22.9,22.9,0,0,0,1.468-6.015,2.664,2.664,0,0,0-5.3-.508,19.506,19.506,0,0,1-2.432,7.357c-.956.218-1.878.465-2.756.727a95.958,95.958,0,0,0-3.092-10.463c-.243-.674-3.279-7.548-3.186-7.621a53.832,53.832,0,0,0,5.508-5.053,23.915,23.915,0,0,1,9.548,2.059,2.7,2.7,0,0,0,3.544-1.276,2.664,2.664,0,0,0-1.276-3.544,27.5,27.5,0,0,0-7.792-2.256,26.965,26.965,0,0,0,3.254-6.539,2.663,2.663,0,0,0-5.06-1.662c-1.814,5.525-6.524,10.332-10.254,13.453a56.986,56.986,0,0,0-13.124-15.757,82.316,82.316,0,0,0,6.595-7.624c2.192-.572,8.74-1.964,14.053.151a2.663,2.663,0,1,0,1.97-4.949A25.7,25.7,0,0,0,146.2,79.187a53.654,53.654,0,0,0,6.084-13.912,2.664,2.664,0,1,0-5.148-1.372,46.912,46.912,0,0,1-4.462,10.77,44.055,44.055,0,0,0-1.889-9.43,2.664,2.664,0,0,0-5.034,1.744c1.741,5.03,1.986,12.587,2.02,15.117a77.039,77.039,0,0,1-6.445,7.4c-.06-.053-.122-.105-.182-.157-5.148-4.45-9.8-9.3-14.6-14.1-2.215-2.407-4.095-4.6-5.669-6.54,7.124-12.068,7.531-24.873,6.561-33.658a12.154,12.154,0,0,1,19.7-10.845A74.322,74.322,0,0,1,149.621,37.45a2.663,2.663,0,0,0,4.271-3.184A79.717,79.717,0,0,0,140.5,20.074a17.481,17.481,0,0,0-28.36,15.558c.828,7.506.562,18.224-4.809,28.482-.2-.277-.4-.548-.578-.8a12.2,12.2,0,0,1-2.278-7.109V7.323A7.333,7.333,0,0,0,97.152,0h-12.5a7.333,7.333,0,0,0-7.324,7.324V56.2a12.2,12.2,0,0,1-2.278,7.109c-.18.254-.376.524-.578.8-5.37-10.258-5.637-20.976-4.809-28.482A17.48,17.48,0,0,0,41.3,20.074,86.4,86.4,0,0,0,21.663,43.738C13.93,56.984,8.223,73.132,4.7,91.734-.645,119.951-1.422,140.28,2.322,153.88A2.662,2.662,0,0,0,5.6,155.74ZM79.385,66.4a17.487,17.487,0,0,0,3.264-10.2V7.324a2,2,0,0,1,2-2h12.5a2,2,0,0,1,2,2V56.2a17.5,17.5,0,0,0,3.263,10.2,139.8,139.8,0,0,0,15.207,17.652C123.172,89.606,129.5,94.313,135.1,99.82c14.711,14.467,18.369,36.966,19.269,46.45l0,.051a1.862,1.862,0,0,1-1.6,2.052c-.018,0-.036,0-.054,0a1.768,1.768,0,0,1-1.816-1.384,62.327,62.327,0,0,0-2.089-7.973c-3.758-10.376-7.921-20.161-15.033-28.764-6.765-8.183-15.482-14.417-24.067-20.534-3.9-2.78-8.65-5.617-11.051-9.92a9.033,9.033,0,0,0-15.543,0c-2.405,4.313-7.137,7.13-11.051,9.921a194.566,194.566,0,0,0-17.344,13.561c-9.791,8.661-16.488,20.376-20.739,32.624a92.723,92.723,0,0,0-3.1,11.086,1.768,1.768,0,0,1-1.871,1.384,1.861,1.861,0,0,1-1.6-2.052,100.781,100.781,0,0,1,2.844-15.972,73.762,73.762,0,0,1,9.947-22.709,49.845,49.845,0,0,1,9.581-10.606c4.978-4.081,9.775-8.388,14.335-12.932A138.955,138.955,0,0,0,79.385,66.4Zm0,0" transform="translate(0 0.001)" fill="#334bac"/>
</svg>
