<svg xmlns="http://www.w3.org/2000/svg" width="78.345" height="78.696" viewBox="0 0 78.345 78.696">
  <g id="growth1" transform="translate(-694.759 -273.958)">
    <path id="Path_144" data-name="Path 144" d="M814.979,328.539q-4.674,3.083-9.349,6.165-4.3,2.823-8.607,5.627a2.08,2.08,0,0,1-2.315.063,2.053,2.053,0,0,1-1-1.787c-.115-1.252.723-1.836,1.447-2.5,1.156-1.068,2.376-2.067,3.555-3.11q3.516-3.109,7.016-6.235c1.2-1.07,2.372-2.167,3.565-3.242.96-.865,1.933-1.715,2.83-2.51a8.213,8.213,0,0,0,1.911.855,3.8,3.8,0,0,0,4.479-3.138c.215-1.291.311-2.6.5-3.9a1.448,1.448,0,0,1,.389-.63c.583-.683,1.182-1.353,1.9-2.169l-3.53-.4c-.121.819-.239,1.565-.34,2.314-.213,1.575-.385,3.157-.638,4.726a1.739,1.739,0,0,1-1.931,1.5,1.941,1.941,0,0,1-1.806-1.786c.043-1.758.187-3.514.282-5.271.02-.365,0-.732.016-1.1a27.335,27.335,0,0,1,.182-3.336,3.273,3.273,0,0,1,3.779-2.595c1.505.149,3,.39,4.5.6,1.473.206,2.95.386,4.413.648a4.457,4.457,0,0,1,2.506,1.846c.141.168.046.633-.074.9-.69,1.559-1.42,3.1-2.023,4.754a20.513,20.513,0,0,1,2.215-1.691c.937-.542.9-1.549,1.352-2.351l2.131,1.9c-2.034.653-2.748,2.418-3.8,3.9,1.278-.73,2.564-1.446,3.83-2.2a6.364,6.364,0,0,1,3.83-1.341,5.051,5.051,0,0,0,2.22-.736c2.28-1.052,4.535-2.159,6.807-3.228q1.98-.932,3.986-1.811a1.954,1.954,0,0,1,2.7.9,2.252,2.252,0,0,1-.893,2.949c-3.142,1.678-6.291,3.342-9.425,5.034-2.907,1.569-5.826,3.12-8.684,4.777a17.633,17.633,0,0,0-2.625,2.145c-1.924,1.689-3.941,3.293-5.7,5.139a33.931,33.931,0,0,0-3.219,4.484c-.849,1.248-1.687,2.506-2.449,3.807a6.171,6.171,0,0,1-4.225,2.936c-2.938.664-5.871,1.35-8.81,2.01a2.1,2.1,0,0,1-2.43-1.144,2.133,2.133,0,0,1,.776-2.64,19.029,19.029,0,0,1,5.979-2.3c.641-.171,1.288-.319,1.93-.485a2.073,2.073,0,0,0,1.637-1.428q.724-2.408,1.457-4.814Z" transform="translate(-83.424 -27.063)" fill="#fff" fill-rule="evenodd"/>
    <path id="Path_145" data-name="Path 145" d="M805.069,418.035l-4.209-3.6,18.74-3.555-1.849,17.954-3.934-3.314c-17.822,18.049-39.337,29.206-63.783,35l-.131-.231c.626-.36,1.244-.735,1.879-1.079a226.814,226.814,0,0,0,21.88-13.48c3.423-2.39,6.77-4.893,10.079-7.438,2.447-1.881,4.864-3.819,7.14-5.9,3.609-3.3,7.117-6.71,10.611-10.131,1.215-1.189,2.265-2.547,3.383-3.834A1.654,1.654,0,0,0,805.069,418.035Z" transform="translate(-46.495 -115.445)" fill="#fff" fill-rule="evenodd"/>
    <path id="Path_146" data-name="Path 146" d="M1112.32,560.6H1103.9v-.878q0-15.365-.019-30.731a1.683,1.683,0,0,1,.736-1.433c.878-.714,1.779-1.405,2.607-2.175,1.563-1.454,3.08-2.958,4.619-4.438a5.787,5.787,0,0,1,.48-.365C1112.32,533.975,1112.32,547.257,1112.32,560.6Z" transform="translate(-344.957 -207.943)" fill="#fff" fill-rule="evenodd"/>
    <path id="Path_147" data-name="Path 147" d="M1030.408,591.917v28.809h-8.451v-.815q0-10.772-.009-21.545a1.172,1.172,0,0,1,.565-1.137c2.549-1.71,5.066-3.467,7.6-5.205A1.6,1.6,0,0,1,1030.408,591.917Z" transform="translate(-275.876 -268.094)" fill="#fff" fill-rule="evenodd"/>
    <path id="Path_148" data-name="Path 148" d="M948.546,644.651v20.537h-8.562c-.013-.2-.042-.425-.042-.649,0-4.908,0-9.816-.013-14.724a.878.878,0,0,1,.567-.931c2.574-1.32,5.123-2.688,7.681-4.041Z" transform="translate(-206.72 -312.558)" fill="#fff" fill-rule="evenodd"/>
    <path id="Path_149" data-name="Path 149" d="M791.954,333.926l17.94-3c0,1.2,0,2.355,0,3.512,0,.389-.031.778-.052,1.166-.05.9-.1,1.808-.153,2.712a1.407,1.407,0,0,0,.005.545c.565,1.474-.624,2.011-1.446,2.745-.695.621-1.373,1.261-2.091,1.854a1.157,1.157,0,0,1-.805.309c-1.52-.322-3.046-.645-4.533-1.09a4.311,4.311,0,0,1-2.932-2.807,10.192,10.192,0,0,0-4.468-5.062C793.005,334.561,792.593,334.313,791.954,333.926Z" transform="translate(-81.952 -48.036)" fill="#fff" fill-rule="evenodd"/>
    <path id="Path_150" data-name="Path 150" d="M867.533,685.639v14.129H859c-.018-.181-.055-.378-.055-.575,0-3.187.007-6.375-.013-9.563a.734.734,0,0,1,.583-.818c2.332-.905,4.643-1.865,6.963-2.8C866.8,685.88,867.14,685.777,867.533,685.639Z" transform="translate(-138.428 -347.118)" fill="#fff" fill-rule="evenodd"/>
    <path id="Path_151" data-name="Path 151" d="M1027.99,279.361a5.33,5.33,0,0,1,5.4-5.4,5.422,5.422,0,1,1-.107,10.842A5.342,5.342,0,0,1,1027.99,279.361Z" transform="translate(-280.969 0)" fill="#fff" fill-rule="evenodd"/>
    <path id="Path_152" data-name="Path 152" d="M776.989,726.737c0-2.115-.013-4.174.02-6.232a.783.783,0,0,1,.438-.583c2.688-.78,5.387-1.522,8.116-2.284v9.1Z" transform="translate(-69.332 -374.099)" fill="#fff" fill-rule="evenodd"/>
    <path id="Path_153" data-name="Path 153" d="M695.723,542.146c-.345-.33-.78-.558-.883-.889a.972.972,0,0,1,.4-1.271c2.4-1.317,4.781-2.666,7.175-3.992,1.7-.942,3.414-1.859,5.112-2.8a1.171,1.171,0,0,1,1.627.3,1.28,1.28,0,0,1-.517,1.6q-5.475,3.026-10.952,6.047C697.095,541.46,696.483,541.756,695.723,542.146Z" transform="translate(0 -218.414)" fill="#fff" fill-rule="evenodd"/>
    <path id="Path_154" data-name="Path 154" d="M763.318,547.3a3.878,3.878,0,0,1,.812,1.084.961.961,0,0,1-.728,1.167c-1.387.513-2.779,1.013-4.164,1.528-2.318.862-4.631,1.737-6.952,2.593a1.2,1.2,0,0,1-1.527-.434,1.222,1.222,0,0,1,.818-1.544c1.047-.4,2.1-.778,3.156-1.17q3.977-1.483,7.952-2.971C762.826,547.505,762.965,547.446,763.318,547.3Z" transform="translate(-47.16 -230.478)" fill="#fff" fill-rule="evenodd"/>
    <path id="Path_155" data-name="Path 155" d="M713.218,514.085a4.461,4.461,0,0,1-.853.831c-1.925,1.062-3.874,2.081-5.815,3.115-.653.348-1.3.7-1.961,1.042a1.173,1.173,0,0,1-1.6-.378,1.048,1.048,0,0,1,.489-1.455c.814-.523,1.7-.938,2.556-1.391,1.809-.955,3.617-1.911,5.433-2.853A1.176,1.176,0,0,1,713.218,514.085Z" transform="translate(-6.821 -201.427)" fill="#fff" fill-rule="evenodd"/>
  </g>
</svg>
