<svg xmlns="http://www.w3.org/2000/svg" width="509.963" height="512" viewBox="0 0 509.963 512">
  <g id="Proportional-health-facilities_copy" data-name="Proportional-health-facilities copy" transform="translate(-119.742 -100.468)">
    <path id="Path_42" data-name="Path 42" d="M451.4,363.373c0,48.541-.118,97.084.117,145.623.039,8-2.709,11.356-10.856,11.343q-122.611-.195-245.22.008c-8.367.015-10.713-3.7-10.7-11.506q.324-143.745.267-287.49c0-14.666.158-14.89,14.443-14.883q119.791.054,239.583.032c11.439,0,12.319.782,12.323,12.187q.023,72.343.008,144.687Zm-180.312-20.9v-.269c-5.008,0-10.014-.036-15.02.008-14.924.12-24.621,8.463-24.6,21.126.024,12.021,9.794,20.738,24,21.016,10.321.2,20.677.419,30.967-.2,8.832-.532,11.832,3.171,11.49,11.542-.447,10.933-.7,21.906-.316,32.839.445,12.668,9.954,21.862,21.432,21.622,11.563-.242,20.338-9.653,20.5-22.377.143-11.262.113-22.532-.173-33.792-.169-6.713,2.542-9.845,9.366-9.724q16.423.29,32.856.118c13.742-.132,24.256-9.331,24.3-21.02.045-11.9-10.123-20.945-24.042-21.109-10.636-.126-21.288-.207-31.915.154-7.553.258-10.913-2.506-10.563-10.38.455-10.305.265-20.646.2-30.974-.094-14.324-9.273-25.022-21.226-24.928-12.259.1-20.835,10.4-20.835,25.25,0,10.324.034,20.654.41,30.97.263,7.183-2.711,10.457-9.946,10.179C282.359,342.3,276.722,342.477,271.092,342.477Z" transform="translate(56.034 90.915)" fill="#2a7c9b" fill-rule="evenodd"/>
    <path id="Path_43" data-name="Path 43" d="M523.1,256.017c-2.656.239-5.316.686-7.976.686q-174.149.068-348.3-.024c-2.185,0-4.369-1.312-6.554-2.011,1.1-2.045,1.735-4.63,3.368-6.055q79.69-69.56,159.569-138.9c14.084-12.238,22.736-12.366,36.833-.122Q435.3,174.96,510.407,240.517c4.735,4.122,9.524,8.185,14.286,12.273Q523.9,254.4,523.1,256.017Z" transform="translate(35.656 0)" fill="#2a7c9b" fill-rule="evenodd"/>
    <path id="Path_44" data-name="Path 44" d="M349.289,364.955q0-68.06,0-136.12c0-12.377.752-13.076,13.456-13.072,14.4,0,28.79-.086,43.186.011,15.141.1,24.19,8.754,24.209,23.787q.164,124.855-.008,249.715c-.024,15.078-8.931,23.65-24.185,23.879-15.018.224-30.052-.263-45.057.233-9.2.3-11.849-3.551-11.789-12.313.3-45.372.139-90.745.139-136.12Z" transform="translate(199.475 99.063)" fill="#2a7c9b" fill-rule="evenodd"/>
    <path id="Path_45" data-name="Path 45" d="M200.254,363.521c0,45.716-.137,91.433.122,137.147.049,8.559-2.855,11.636-11.556,11.268-14.691-.62-29.429-.094-44.145-.2-17.024-.124-24.92-7.843-24.925-24.609q-.037-123.993.1-247.985c.015-14.736,8.525-23.176,23.4-23.336,14.716-.156,29.435-.026,44.153-.032,12.313,0,12.808.453,12.811,12.476q.011,67.634,0,135.271Z" transform="translate(0 99.064)" fill="#2a7c9b" fill-rule="evenodd"/>
  </g>
</svg>
