<svg id="heart_1_" data-name="heart (1)" xmlns="http://www.w3.org/2000/svg" width="158.078" height="145.302" viewBox="0 0 158.078 145.302">
  <g id="Group_77" data-name="Group 77" transform="translate(0 0)">
    <g id="Group_76" data-name="Group 76" transform="translate(0 0)">
      <path id="Path_70" data-name="Path 70" d="M144.377,34.39a46.912,46.912,0,0,0-65.338-.9A46.855,46.855,0,0,0,13.7,100.653l65.338,65.338,65.338-65.338A46.909,46.909,0,0,0,144.377,34.39ZM137.825,94.1,79.039,152.888,20.253,94.1a37.59,37.59,0,0,1,53.16-53.16l5.626,5.626,5.626-5.626a37.59,37.59,0,0,1,53.16,53.16Z" transform="translate(0 -20.689)" fill="#fff"/>
    </g>
  </g>
  <g id="Group_79" data-name="Group 79" transform="translate(44.217 33.387)">
    <g id="Group_78" data-name="Group 78">
      <path id="Path_71" data-name="Path 71" d="M194.652,147.033V128.826H161.423v18.207H143.216v33.229h18.207v18.207h33.229V180.262h18.207V147.033ZM203.594,171H185.387V189.2h-14.7V171H152.482V156.3h18.207V138.091h14.7V156.3h18.207Z" transform="translate(-143.216 -128.826)" fill="#fff"/>
    </g>
  </g>
  <g id="Group_81" data-name="Group 81" transform="translate(13.876 13.876)">
    <g id="Group_80" data-name="Group 80">
      <path id="Path_72" data-name="Path 72" d="M54.595,75.285a32.743,32.743,0,0,0-9.653,23.3h9.265A23.691,23.691,0,0,1,77.9,74.9V65.632A32.743,32.743,0,0,0,54.595,75.285Z" transform="translate(-44.942 -65.632)" fill="#fff"/>
    </g>
  </g>
</svg>
