<svg xmlns="http://www.w3.org/2000/svg" width="512" height="355.251" viewBox="0 0 512 355.251">
  <g id="heart1" transform="translate(-683.001 -337.883)">
    <path id="Path_25" data-name="Path 25" d="M967.765,644.886c3.325-5.308,3.9-10.391,5.425-15.059,4.557-13.952,8.637-28.061,12.773-42.148,4.31-14.675,8.3-29.447,12.743-44.081,5.578-18.378,11.642-36.606,17.178-54.995,4.278-14.211,7.634-28.711,12.2-42.825,4.324-13.381,8.31-26.856,12.279-40.336,4.233-14.383,9.156-28.557,12.763-43.137,1.493-6.034,3.78-11.874,5.727-17.794,1.067-3.246,2.278-6.268,6.464-6.546,4.527-.3,8.363-.014,10.683,4.98,7.75,16.692,16.106,33.094,23.756,49.845,6.86,15.026,14.429,29.727,21.681,44.574a51.482,51.482,0,0,1,3.372,7.153c1.237,4.023-2.343,9.975-6.477,11.366-3.517,1.182-9.19-1.125-10.878-4.892-4.453-9.928-9.557-19.534-13.883-29.534-4.569-10.566-10.024-20.746-15.089-31.1-2.8-5.725-5.6-11.453-8.738-17.884-2.771,8.66-5.675,16.559-7.8,24.663-3.22,12.256-7.467,24.194-10.773,36.408-4,14.782-8.938,29.278-12.883,44.085-3.733,14.013-8.653,27.7-12.833,41.6-4.858,16.156-9.39,32.411-14.237,48.571-2.6,8.666-5.729,17.17-8.314,25.841-3.521,11.813-6.643,23.747-10.131,35.571-3.841,13.023-8.045,25.941-11.808,38.988-1.9,6.6-4.543,12.97-5.781,19.8-.5,2.761-1.789,5.924-6.024,4.947a19.869,19.869,0,0,0-4.359-.051c-7.413,0-7.674-.291-8.9-7.545-2.5-14.765-4.757-29.565-7.614-44.277-2.827-14.564-4.145-29.427-7.112-43.955-2.333-11.419-4.009-22.948-6.178-34.387-1.641-8.658-3.17-17.4-4.349-26.173-.129-.961.655-2.4-1.225-2.592-1.736-.182-1.308,1.205-1.8,2.111-8.768,16.193-17.765,32.264-26.427,48.514-4.032,7.565-8,15.156-12.231,22.614-2.586,4.553-6.589,4.223-10.445,3.652-3.509-.518-5.642-3.035-6.166-6.853-1.289-9.4-3.041-18.728-3.93-28.2-.664-7.066-2.091-14.06-3.152-21.09-1.2-7.98-2.434-15.956-3.548-23.949-1.095-7.847-2-15.72-3.1-23.568-.829-5.947-1.8-11.875-2.769-17.8-.18-1.1.854-2.732-1.1-3.166-2.159-.48-1.549,1.422-2,2.437q-13.962,31.383-27.934,62.762c-2.05,4.619-4.881,7.072-10.515,7.04-40.946-.235-81.894-.126-122.841-.129-5.874,0-8.44-2.529-8.457-8.3-.018-6.4,2.56-9.236,8.587-9.24,37.224-.018,74.451-.147,111.673.152,5.17.042,7.174-2.271,8.914-6.238q10.866-24.778,21.852-49.5c5.665-12.822,11.369-25.628,16.965-38.482,1.761-4.045,5.2-6.086,10.525-5.334,3.928.554,6.219,3.209,6.964,7.059,2.761,14.271,4.4,28.733,6.522,43.095,1.944,13.157,3.551,26.422,5.312,39.628,1.57,11.77,3.614,23.479,4.77,35.317.149,1.523.315,3.951,1.9,4.291,1.85.4,2.1-2.107,2.8-3.39q11.989-21.972,23.773-44.058c4.122-7.7,8.28-15.379,12.162-23.2,2.319-4.67,5.965-5.593,10.666-5.233,3.849.3,5.6,3.09,6.685,5.841,1.3,3.306,1.709,7.033,2.11,10.623,1.863,16.664,5.714,33,7.992,49.606,2.135,15.578,6.047,30.9,8.414,46.458C963.435,619.6,965.678,631.682,967.765,644.886Z" transform="translate(0 0)" fill="#208fb8" fill-rule="evenodd"/>
    <path id="Path_26" data-name="Path 26" d="M1074.82,531.623c.772-14.637,5.323-27.231,18.95-34.931,11.609-6.559,23.029-6.862,33.9,1.409a81.275,81.275,0,0,1,10.531,9.686c1.942,2.107,2.957,2.366,5.468.284,5.584-4.631,10.76-9.756,17.4-13.19,11.7-6.056,24.307-2.383,32.991,4.731,14.946,12.242,19.121,38.8,6.958,55.175a72.166,72.166,0,0,1-6.364,8c-16.529,16.677-33.21,33.2-49.716,49.9-2.547,2.575-4.116,2.783-6.788.076-17.195-17.422-34.7-34.538-51.8-52.053A39.618,39.618,0,0,1,1074.82,531.623Z" transform="translate(-13.118 -5.803)" fill="#208fb8" fill-rule="evenodd"/>
  </g>
</svg>
