<svg xmlns="http://www.w3.org/2000/svg" xmlns:xlink="http://www.w3.org/1999/xlink" width="16" height="16" viewBox="0 0 16 16">
  <defs>
    <clipPath id="clip-path">
      <rect width="16" height="16" fill="none"/>
    </clipPath>
  </defs>
  <g id="Help" clip-path="url(#clip-path)">
    <rect id="Rectangle_481" data-name="Rectangle 481" width="16" height="16" fill="none"/>
    <path id="Path_146" data-name="Path 146" d="M8,0a8,8,0,1,0,8,8A8.024,8.024,0,0,0,8,0ZM7.92,13.28a1.12,1.12,0,1,1,1.12-1.12A1.094,1.094,0,0,1,7.92,13.28Zm2.16-6.24L9.2,8a.977.977,0,0,0-.32.72.973.973,0,0,1-.96.96.924.924,0,0,1-.96-.96A1.785,1.785,0,0,1,7.6,7.28l.72-.88a1.816,1.816,0,0,0,.56-1.12A.839.839,0,0,0,8,4.4a.941.941,0,0,0-.96.72,1.045,1.045,0,0,1-.96.56A.839.839,0,0,1,5.2,4.8a.87.87,0,0,1,.08-.4A2.666,2.666,0,0,1,8,2.72a2.592,2.592,0,0,1,2.8,2.56A2.625,2.625,0,0,1,10.08,7.04Z" fill="#1e8ce9"/>
  </g>
</svg>
