<svg xmlns="http://www.w3.org/2000/svg" width="371.495" height="512" viewBox="0 0 371.495 512">
  <g id="hepa-icon" transform="translate(-847 -383)">
    <path id="Path_27" data-name="Path 27" d="M1218.494,684.185V756.64c-.544,2.757-1.3,5.492-1.594,8.275-1.177,11-1.453,22.158-3.475,32.989-3.06,16.393-19.647,27.411-35.284,24.533-16.14-2.969-30.156-22.012-28.111-37.309,1.575-11.779,3.272-23.7,3.086-35.531-.486-31.075-1.463-62.165-3.292-93.186a189.257,189.257,0,0,0-6.7-39.538c-2.55-9.129-8.205-17.45-17.761-24.928V813.681H939.477V592.02c-13.263,12.3-20.259,26.247-22.066,41.716-2.456,21.015-2.542,42.314-3.586,63.5-.189,3.834-.139,7.68-.129,11.519.064,24.2-1,48.5.753,72.574.766,10.5-.6,19.413-6.109,27.217-15.158,21.485-45.927,17.4-53.461-4.033-4.011-11.41-4.306-24.157-6.24-36.308-.611-3.843-1.1-7.708-1.639-11.562V684.183a61.345,61.345,0,0,0,1.585-7.45c1.7-18.853,2.271-37.879,5.129-56.548,5.695-37.206,23.044-68.057,53.036-90.981,22.285-17.034,47.082-26.637,75.524-26.267,34.73.451,69.469.071,104.2.12,21.856.033,41.795,6.373,60.378,18.032,30.376,19.059,50.693,45.663,60.775,80.3,6.925,23.795,8.684,48.252,9.3,72.875C1217.011,677.585,1217.957,680.88,1218.494,684.185ZM948.822,666.476c.991,12.049.891,23.808,3.146,35.087,3.112,15.563,12.73,22.384,24.711,18.247,17.136-5.917,32.332-14.883,41.448-31.847a13.029,13.029,0,0,1,6.309-5.358c12.385-4.9,12.561-4.952,3.911-14.98a10.854,10.854,0,0,0-6.105-3.092c-7.057-1.163-14.187-1.864-21.468-2.766l9.328-3.745c-.249-2.747-.6-5.442-.705-8.146-.078-2,.165-4.006.264-6.009,2.387,13.139,3.919,14.876,14.889,15.856.683-2.394,1.356-4.749,2.113-7.4,4.447,9.1,8.1,16.579,11.886,24.338,5.652-4.028,10.11-6.6,13.809-10.009a65.333,65.333,0,0,0,9.923-11.682c6.317-9.477.422-22.6-9.864-23.36a233.443,233.443,0,0,0-23.693-.081c-15.084.417-30.2.558-45.236,1.739-18.495,1.451-27.2,8.194-32.051,28.747l21.457-1.619c-.657,2.821-2.918,7.512-1.8,8.566,6.612,6.262,9.822-3.624,15.6-4.533-.344,3.9-.645,7.321-.86,9.78h-9.59l2.045,1.624c-.939,3.445-1.877,6.888-2.638,9.673-3.759-6.472-7.387-12.716-11.055-19.029Z" transform="translate(0 72.107)" fill="#208fb8" fill-rule="evenodd"/>
    <path id="Path_28" data-name="Path 28" d="M1002.345,383c12.671,5.235,26.372,8.831,37.817,16.019,30.3,19.024,44.545,58.415,35.424,92.791C1066.2,527.18,1043,549,1007.99,556.852c-26.759,6-51.666-.789-73.251-18.31-21.644-17.57-32.835-40.712-32.574-68.115.41-42.889,30.362-79.419,73.8-85.957.619-.094,1.121-.962,1.68-1.469Q989.994,383,1002.345,383Z" transform="translate(33.87 0)" fill="#208fb8" fill-rule="evenodd"/>
  </g>
</svg>
