<svg xmlns="http://www.w3.org/2000/svg" width="459.466" height="512" viewBox="0 0 459.466 512">
  <g id="hiv-icon" transform="translate(-709.553 -334.411)">
    <path id="Path_29" data-name="Path 29" d="M709.556,639.148c1.481-4.221,3.854-8.352,4.295-12.68,2.351-23.08,4.516-46.222,15.057-67.358,7.9-15.843,18.666-28.505,38.493-28.844,6.728-.115,12.352,1.075,13.9,8.878a1.992,1.992,0,0,0,.415.994c6.19,6.136,11.618,15.333,18.9,17.178,4.114,1.04,12.38-9.271,16.85-15.787,7.8-11.375,16.688-14.605,29.3-8.207,12.586,6.385,20.138,17.144,25.739,29.693,1.655,3.7,4.3,6.967,6.5,10.432,2.783-3.3,6.177-6.253,8.25-9.948q21.208-37.782,41.9-75.852c2.534-4.644,4.351-9.679,6.5-14.534l-3.211.8c-2.907-4.527-6.516-8.759-8.583-13.644-4.918-11.624-9.972-23.323-13.27-35.455-2.049-7.538-1.5-15.941-1.168-23.918.271-6.457,2.223-12.823,2.977-19.284,1.192-10.233,11.145-17.565,8.923-29.426-.471-2.516,7.4-7.067,11.9-9.955,12.2-7.836,25.913-8.874,39.78-7.048,9.156,1.207,16.481,5.348,17.213,16.227.161,2.388,1.005,5.593,2.7,6.876,12.43,9.395,16.51,24.25,19.938,37.372,2.525,9.67-2.84,22.285-7.041,32.631-7.045,17.354-15.9,33.981-24.137,50.847-2.72,5.569-4.716,9.162,3.142,13.722,5.313,3.081,7.621,11.687,10.78,18.064,8.928,18.038,18.045,36.011,26.05,54.457,1.828,4.208.86,10.884-1.222,15.292a299.878,299.878,0,0,1-18.429,33.076c-5.078,7.955-8.216,1.5-10.406-2.825-7.334-14.482-14.393-29.1-21.436-43.732-5.432-11.284-10.678-22.658-16.822-35.724l-50.163,85.859c-7.81-12.484-13.759-22-19.71-31.508l-2.779.781c0,2.562-.53,5.261.08,7.669,8.394,33.167,5.209,66.887,4.79,100.454-.113,9.019-5.856,14.249-14.638,14.1-8.663-.154-12.8-6.049-12.771-14.486.05-15.192,1.181-30.429.352-45.564-.988-18.012-3.493-35.946-5.534-53.891-.3-2.664-1.652-5.2-5.02-7.849-.58,3.928-1.633,7.851-1.655,11.781-.1,17.367-.326,34.754.363,52.1.35,8.8-2.816,11.284-11.264,11.125-23.512-.439-47.041-.369-70.552,0-8.763.137-12.463-2.621-12.011-11.924.808-16.614.675-33.278.81-49.92.033-4.1-.419-8.209-.649-12.315q-2-.244-4-.489c-2.169,9.484-5.808,18.9-6.223,28.464-1.094,25.283-.819,50.621-1.038,75.941-.113,13.32-10.259,21.631-19.755,15.255-4.08-2.74-5.78-9.184-8.248-14.1-1.667-3.315-2.788-6.9-4.153-10.37Q709.557,660.859,709.556,639.148Zm246.017-200.41c11.136-23.049,28.1-43.808,35.019-73.926-21.484,2.716-39.365,5.189-57.306,7.158-9.447,1.04-9.36,4.981-5.523,12.2C937.144,401.822,945.958,419.777,955.572,438.738Z" transform="translate(0)" fill="#208fb8" fill-rule="evenodd"/>
    <path id="Path_30" data-name="Path 30" d="M738.324,687.427c-9.271-10.33-8.893-22.867-8.821-35.659q.417-74.837.015-149.676c-.048-8.839,2.974-12.5,11.9-12.393,23.859.274,47.722.2,71.583.026,7.378-.054,10.237,2.94,10.224,10.4-.087,54.952.436,109.909-.226,164.853-.091,7.519-5.656,14.972-8.687,22.454H788.259c-6.06-10.524-8.116-21.66-7.938-33.951.658-45.21.545-90.434.3-135.653-.02-3.357-3.389-6.7-5.2-10.042-1.379,3.324-2.8,6.635-4.1,9.99a6.4,6.4,0,0,0-.006,2.156q.039,64.581.048,129.159c-.013,13.173,2,26.777-6.991,38.339Q751.352,687.428,738.324,687.427Z" transform="translate(23.339 158.984)" fill="#208fb8" fill-rule="evenodd"/>
    <path id="Path_31" data-name="Path 31" d="M901.514,464.786c-22.283-29.3-23.722-48.812-5.217-65.86a39.858,39.858,0,0,1,53.354-.914c10.17,8.858,16.746,20.413,13.483,33.564-2.89,11.655-9.809,22.311-14.823,33.136,35.857,5.241,52.151,34.181,63.969,65.1,9.206,24.076,13.565,50.033,19.656,75.255,2.047,8.491.3,16.349-9.627,18.792-7,1.722-12.8-4.97-14.412-15.461-4.559-29.739-10.669-59.034-25.025-85.916a37.328,37.328,0,0,0-3.685-4.846q-1.537.238-3.07.478c.339,4.883.128,9.881,1.107,14.632,8.307,40.33,16.668,80.65,25.409,120.887,2.043,9.41.1,14.558-9.749,17.9-47.219,16.019-94.029,16.154-141.063-.816-13.073-4.716-7-13.533-6.466-21.466.486-7.245,3.665-9.5,11.375-8.776,10.936,1.023,20.622-7.947,20.919-19.043,1.161-43.337,3.572-86.854-11.39-128.772-2.753-7.716-.5-13.466,6.272-17.55,4.618-2.783,9.227-5.819,14.241-7.645C891.307,465.813,896.385,465.654,901.514,464.786Z" transform="translate(136.325 51.858)" fill="#208fb8" fill-rule="evenodd"/>
    <path id="Path_32" data-name="Path 32" d="M816.134,423.357a41.793,41.793,0,0,1-43.146,41.8c-22.341-.454-41.434-19.658-41.55-41.784-.119-22.908,20.3-43.152,43.117-42.748C797.434,381.019,816.3,400.414,816.134,423.357Z" transform="translate(25.632 49.014)" fill="#208fb8" fill-rule="evenodd"/>
    <path id="Path_33" data-name="Path 33" d="M919.5,576.736c-.009,13.383.093,26.766-.039,40.149-.135,13.78-7.108,21.959-18.52,22.068-10.719.1-18.755-7.764-19.013-20.8-.53-26.758-.156-53.532-.148-80.3,0-6.57,3.341-10,9.864-10.467,6.477-.469,12.955-.951,19.421-1.52,7.271-.638,8.409,4.058,8.426,9.636C919.539,549.247,919.509,562.99,919.5,576.736Z" transform="translate(181.016 201.279)" fill="#208fb8" fill-rule="evenodd"/>
    <path id="Path_34" data-name="Path 34" d="M861.613,577.92c0-13.746.067-27.491-.028-41.237-.057-8.12,2.64-11.8,11.8-10.509,24.834,3.5,24.925,3.179,24.929,28.449,0,22.063.019,44.129-.269,66.19-.109,8.313-3.852,16.051-12.324,16.829-6.32.582-13.9-2.2-19.3-5.869-3.192-2.169-4.281-8.93-4.486-13.707-.578-13.359-.2-26.76-.2-40.145C861.693,577.92,861.652,577.92,861.613,577.92Z" transform="translate(162.762 201.41)" fill="#208fb8" fill-rule="evenodd"/>
  </g>
</svg>
