<svg xmlns="http://www.w3.org/2000/svg" width="24" height="21.264" viewBox="0 0 24 21.264">
  <g id="home_icon_1" transform="translate(0 -1.54)">
    <path id="Path_1" data-name="Path 1" d="M3.674,22.983a.5.5,0,0,0,.5.543l6.02-.007L10.2,18.5s-.085-.827.7-.827h2.5a.783.783,0,0,1,.876.827l-.011,5h5.892a.625.625,0,0,0,.632-.676V13.572l-8.3-7.517L3.674,13.572S3.674,22.983,3.674,22.983Z" transform="translate(-0.37 -0.721)" fill="#fff"/>
    <path id="Path_2" data-name="Path 2" d="M0,12.418s.752,1.4,2.393,0l9.8-8.4,9.192,8.346c1.9,1.387,2.611,0,2.611,0L12.2,1.54Z" fill="#fff"/>
    <path id="Path_3" data-name="Path 3" d="M23.562,4.275H21.168l.01,2.9L23.562,9.2Z" transform="translate(-2.431 -0.275)" fill="#fff"/>
  </g>
</svg>
