<svg xmlns="http://www.w3.org/2000/svg" width="512" height="590.448" viewBox="0 0 512 590.448">
  <g id="Mortality-rate-by-homocide_copy" data-name="Mortality-rate-by-homocide copy" transform="translate(-162.565 -135.978)">
    <path id="Path_5" data-name="Path 5" d="M486.606,517.115q1.685-1.755,3.376-3.51c17.949,7.392,35.73,15.236,53.909,22,10.247,3.817,15.162,9.669,16.13,20.894,2.069,24.081,5.156,48.09,8.439,72.044,2.038,14.875,12.929,24.256,24.478,22.4,11.773-1.888,18.338-12.225,16.7-27.061-3.559-32.2-6.614-64.488-11.507-96.492-1.219-7.976-7.009-17.225-13.538-22.017-14.255-10.455-30.815-17.708-45.577-27.555-34.465-22.993-68.546-46.575-102.4-70.45-3.291-2.321-6.658-9.573-5.356-12.422,3.869-8.466,28.8-14.354,37.851-10.261,20.36,9.2,40.583,18.732,61.11,27.546,15.7,6.745,27.735,2.562,33.366-10.565,4.143-9.65-1.09-19.76-15.477-26.437-27.294-12.672-54.638-25.36-82.656-36.254-7.263-2.825-18.409-1.548-25.524,2.156-28.283,14.718-55.989,30.626-83.316,47.076-30.44,18.321-64.973,23.215-98.492,31.338-4.518,1.093-11.316-2.647-15.609-6-15.8-12.351-30.678-25.87-46.49-38.2-13.809-10.768-31.582-6.406-33.347,8.861-.866,7.5,3.671,18.053,9.351,23.448A655.368,655.368,0,0,0,230.5,457.088c6.326,4.734,17.124,6.759,25.078,5.392,18.349-3.156,36.089-9.713,54.339-13.675,5.97-1.3,14.746-1.208,18.861,2.255,50.057,42.142,105.09,79,141,136.211,7.962,12.686,9.261,21.837,3.778,34.821-10.458,24.773-20.363,49.857-28.689,75.4-2.255,6.918-.219,17.447,3.945,23.5,2.94,4.271,14,6.786,19.256,4.669,6.6-2.66,12.987-9.976,15.951-16.806,9.8-22.565,18.3-45.714,26.79-68.825,21.028-57.252,24.25-36.155-7.274-92.456C497.864,537.434,492.253,527.266,486.606,517.115Zm40.021-323.59q2.762.966,5.529,1.934c0,13.535-.31,27.083.079,40.607.46,15.888,3.236,17.406,16.809,10.195,7.652-4.063,15.171-8.395,22.979-12.14,2.595-1.244,7.82-2.28,8.488-1.244a13.854,13.854,0,0,1,1.77,9.721c-2.688,11.543-5.992,22.952-9.313,34.336-2.934,10.064,1.238,13.9,10.918,12.773,11.779-1.364,23.492-3.269,35.281-4.5,3.789-.4,7.718.586,11.587.94-.858,4.2-.858,8.847-2.734,12.532-5.978,11.773-12.727,23.149-19.031,34.763-3.8,6.992-2.978,11.861,5.9,14.159,16.858,4.367,16.979,5.669,5.817,19.53-4.885,6.069-8.979,12.779-13.431,19.2q2.223,1.734,4.447,3.474,30.215-26.1,60.427-52.194-1.023-2.293-2.044-4.584c-9.768-.742-19.538-1.455-29.3-2.238-8.025-.644-10.694-4.474-6.677-11.85,1.526-2.8,3.474-5.356,5.2-8.041,10.968-17.023,21.927-34.048,35.237-54.72-8.735,1.332-13.362,1.663-17.793,2.778-18.141,4.554-36.18,9.521-54.364,13.883-3.049.734-7.321.173-9.7-1.584-1.3-.962-.594-6.008.523-8.658,9.044-21.39,18.472-42.613,27.555-63.986,1.047-2.463.663-5.537,1.312-11.946C601.65,198.3,584,208.3,566.388,218.376c-12.107,6.924-15.08,5.381-15.518-8.414-.608-19.154-.734-38.336-1.9-57.457-.342-5.6-3.51-11.022-5.384-16.527-4.025,3.795-8.477,7.239-11.946,11.48-3.14,3.836-5.154,8.581-7.745,12.875-11.442,18.93-22.908,37.843-36.262,59.888-14-19.894-26.223-37.262-40.432-57.449-1.943,7.019-3.28,9.844-3.43,12.732-1.025,19.587-1.625,39.2-2.8,58.781-.247,4.066-2.326,8.022-3.559,12.031-3.954-1.833-8.42-3.014-11.762-5.63-8.25-6.461-15.869-13.721-23.971-20.379-4.669-3.836-10.551-4.951-10.17,3.145.732,15.609,3.23,31.136,4.995,46.7.91-.033,1.819-.06,2.729-.093,1.406-8.636,2.811-17.272,4.614-28.344,15.836,10.644,29.505,19.826,46.572,31.295,1.754-13.206,2.934-22.875,4.337-32.511,1.425-9.784,3.06-19.543,4.6-29.311l4.419-.395c6.206,8.2,12.716,16.19,18.527,24.659,5.77,8.409,10.779,7.093,15.579-.438,6.614-10.376,12.74-21.064,19.489-31.349C519.849,199.885,523.509,196.882,526.627,193.526ZM368.237,345.647c.008-24.146-22.187-46.281-46.47-46.339-25.2-.06-47.188,22.143-46.821,47.276.364,24.875,21.067,45.473,45.413,45.175C346.378,391.441,368.229,370.4,368.237,345.647Z" transform="translate(0 0)" fill="#3c9cb5" fill-rule="evenodd"/>
    <path id="Path_6" data-name="Path 6" d="M490.6,373.863c5.716,9.285,11.4,18.586,17.147,27.854,31.913,51.5,28.652,32.2,7.364,84.572-8.6,21.142-17.2,42.315-27.121,62.956-3,6.248-9.464,12.939-16.148,15.373-5.32,1.935-16.517-.366-19.493-4.271-4.219-5.536-6.279-15.168-3.994-21.5,8.429-23.363,18.453-46.31,29.043-68.971,5.55-11.877,4.235-20.248-3.825-31.851-36.354-52.337-92.068-86.048-142.739-124.6-4.166-3.17-13.053-3.251-19.094-2.063-18.475,3.624-36.434,9.621-55.009,12.508-8.052,1.251-18.983-.6-25.387-4.932a651.236,651.236,0,0,1-59.2-45.212c-5.75-4.935-10.343-14.584-9.466-21.448,1.786-13.965,19.779-17.954,33.758-8.105,16.007,11.278,31.073,23.646,47.063,34.941,4.346,3.07,11.225,6.491,15.8,5.489,33.93-7.433,68.889-11.909,99.706-28.666,27.664-15.047,55.711-29.6,84.343-43.061,7.206-3.391,18.486-4.556,25.839-1.972,28.363,9.967,56.044,21.571,83.675,33.162,14.564,6.11,19.862,15.355,15.668,24.182-5.7,12.007-17.876,15.834-33.777,9.664-20.78-8.062-41.252-16.776-61.863-25.2-9.164-3.744-34.4,1.642-38.318,9.386-1.317,2.606,2.091,9.243,5.422,11.363q51.415,32.759,103.667,64.442c14.944,9.007,31.708,15.639,46.139,25.2,6.612,4.383,12.47,12.844,13.7,20.14,4.954,29.275,8.046,58.808,11.649,88.263,1.659,13.571-4.99,23.027-16.908,24.754-11.691,1.7-22.713-6.885-24.78-20.491-3.323-21.912-6.449-43.874-8.543-65.9-.979-10.268-5.952-15.621-16.328-19.112-18.4-6.193-36.4-13.366-54.574-20.127Q492.31,372.258,490.6,373.863Z" transform="translate(0.002 161.102)" fill="#3c9cb5" fill-rule="evenodd"/>
    <path id="Path_7" data-name="Path 7" d="M369.733,188.618c-2.855,3.07-6.2,5.814-8.468,9.27-6.173,9.408-11.777,19.185-17.827,28.676-4.391,6.889-8.97,8.092-14.25.4-5.316-7.747-11.27-15.055-16.947-22.556l-4.043.361c-1.411,8.935-2.907,17.862-4.21,26.811-1.283,8.817-2.363,17.659-3.967,29.739-15.611-10.491-28.115-18.889-42.6-28.626-1.649,10.128-2.935,18.025-4.22,25.927-.832.03-1.664.055-2.5.085-1.616-14.235-3.9-28.438-4.569-42.716-.348-7.406,5.035-6.388,9.3-2.877,7.413,6.093,14.381,12.731,21.927,18.641,3.058,2.393,7.143,3.474,10.759,5.15,1.128-3.667,3.03-7.283,3.256-11,1.075-17.909,1.622-35.851,2.559-53.768.138-2.644,1.361-5.228,3.138-11.646,13,18.466,24.175,34.352,36.984,52.55,12.215-20.167,22.706-37.465,33.169-54.78,2.371-3.927,4.215-8.268,7.085-11.777,3.175-3.882,7.248-7.032,10.927-10.5,1.714,5.035,4.611,10,4.925,15.117,1.065,17.491,1.18,35.034,1.734,52.557.4,12.619,3.12,14.032,14.2,7.7,16.112-9.215,32.255-18.368,50.963-29.012-.591,5.862-.243,8.674-1.2,10.927-8.306,19.553-16.932,38.966-25.2,58.53-1.023,2.423-1.669,7.042-.479,7.92,2.173,1.609,6.08,2.12,8.869,1.449,16.634-3.992,33.134-8.534,49.728-12.7,4.053-1.018,8.285-1.321,16.275-2.541-12.175,18.909-22.2,34.483-32.232,50.054-1.581,2.454-3.363,4.8-4.757,7.356-3.677,6.747-1.233,10.25,6.108,10.839,8.93.717,17.867,1.368,26.8,2.048q.932,2.1,1.87,4.193-27.638,23.875-55.274,47.743-2.034-1.59-4.068-3.178c4.073-5.872,7.817-12.01,12.285-17.561,10.21-12.679,10.1-13.869-5.321-17.864-8.12-2.1-8.869-6.556-5.4-12.952,5.769-10.621,11.942-21.029,17.408-31.8,1.717-3.373,1.719-7.619,2.5-11.463-3.536-.323-7.133-1.223-10.6-.86-10.784,1.128-21.5,2.872-32.272,4.12-8.854,1.028-12.674-2.479-9.987-11.684,3.04-10.413,6.06-20.849,8.519-31.408a12.673,12.673,0,0,0-1.619-8.892c-.612-.947-5.388,0-7.764,1.138-7.143,3.423-14.02,7.386-21.019,11.1-12.416,6.6-14.954,5.208-15.375-9.326-.358-12.373-.073-24.764-.073-37.144Q372.264,189.5,369.733,188.618Z" transform="translate(169.51 0)" fill="#3c9cb5" fill-rule="evenodd"/>
    <path id="Path_8" data-name="Path 8" d="M288.922,237.978c-.007,22.641-19.994,41.889-43.8,42.179-22.268.271-41.207-18.568-41.54-41.322-.336-22.989,19.781-43.3,42.828-43.244C268.629,195.644,288.932,215.889,288.922,237.978Z" transform="translate(73.494 106.303)" fill="#3c9cb5" fill-rule="evenodd"/>
  </g>
</svg>
