<svg xmlns="http://www.w3.org/2000/svg" width="512" height="451.63" viewBox="0 0 512 451.63">
  <g id="hospital-bed-icon-5" transform="translate(-52.752 -72.102)">
    <path id="Path_14" data-name="Path 14" d="M564.752,378.12v141c-2.279,3.627-5.575,4.85-9.776,4.549-3.48-.248-6.993-.036-10.492-.053-7.556-.036-9.7-2.2-9.707-9.883q-.036-37.489-.031-74.98v-4.938H407.135v59.978h5.814c12.5,0,24.993-.061,37.488.019,6.241.039,8.878,2.618,9.077,8.713.136,4.161.144,8.333.028,12.495-.173,6.1-2.83,8.6-9.088,8.628-8.664.037-17.328,0-25.991,0q-45.738-.014-91.475-.037c-6.589-.009-9.032-2.48-9.14-9.007-.06-3.664-.035-7.332-.008-11,.057-7.33,2.495-9.792,9.98-9.823,12.328-.051,24.658,0,36.988.005,1.782,0,3.563,0,5.539,0V433.713H82.823v12.628q0,34.24-.019,68.481c-.012,6.3-2.494,8.7-8.776,8.788-3.666.048-7.348-.211-10.992.068-4.353.331-7.821-.857-10.284-4.557v-337c2.818-3.881,6.7-5.043,11.325-4.686,2.816.217,5.663.02,8.5.029,7.778.027,10.257,2.46,10.257,10.071q0,29,0,58c0,1.732.147,3.466.235,5.393,24.469-3.728,48.406-4.779,72.153.287,36.249,7.736,65.625,26.106,85.9,57.7,1.942,3.026,3.755,4.263,7.409,4.251,40.832-.144,81.664-.089,122.5-.089h5.3V102.6h-44.5v22.322c2.1,0,3.886-.02,5.671,0,10.581.135,16.385,5.894,16.446,16.385.039,6.666-.009,13.332-.009,20,0,22.831.055,45.665-.023,68.5-.028,8.565-5.881,15.2-13.915,15.315q-23.493.348-46.994,0a14.17,14.17,0,0,1-14.169-14.033q-.278-45.994-.009-91.992c.045-7.881,6.227-13.687,14.09-14.112,2.6-.139,5.213-.021,8-.021.171-1.776.371-2.911.375-4.047.035-10.832-.064-21.667.08-32.5.14-10.541,6.037-16.255,16.6-16.286,14.831-.044,29.665-.021,44.5-.021q51.5,0,103,.024c10.469.011,16.377,5.933,16.5,16.391.052,4.5.008,9,.008,13.5v22.906c2.962,0,5.257-.061,7.549.011,8.693.281,15.041,6.123,15.087,14.749q.25,45.5-.02,90.995c-.055,8.345-6.5,14.393-14.833,14.474q-22.745.222-45.5,0c-8.489-.095-14.691-5.991-14.742-14.459q-.272-45.744.008-91.492c.049-8.168,6.227-13.875,14.443-14.265,2.446-.115,4.9-.017,7.54-.017V102.6H407.134V313.08h6.327c25.5,0,51-.047,76.5.021a75.231,75.231,0,0,1,72.468,55.954C563.226,372.068,563.977,375.1,564.752,378.12Zm-358.1-65.151c-1.255-1.47-1.818-2.246-2.5-2.9-13-12.632-27.982-22.019-45.466-27.045-21.693-6.237-43.726-6.049-65.881-3-9.956,1.371-9.973,1.259-9.977,11.12,0,7.249,0,14.5,0,21.828Z" transform="translate(0 0)" fill="#27709a" fill-rule="evenodd"/>
  </g>
</svg>
