<svg xmlns="http://www.w3.org/2000/svg" width="408.782" height="512" viewBox="0 0 408.782 512">
  <g id="Mortality-rate-attributed-to-household_copy" data-name="Mortality-rate-attributed-to-household copy" transform="translate(-95.812 -55.363)">
    <path id="Path_27" data-name="Path 27" d="M329.392,169.411c4.357,15.534,1.645,28.377-4.978,40.243-4.519,8.093-12.4,11.36-21.744,12.415a15.754,15.754,0,0,0-10.348,6.793c-7.358,12.589-15.927,18.051-28.526,16.507-9.917-1.216-20-11.3-21.926-23.7-1.151-7.432-.1-15.194-.211-22.8-.088-6.056.2-12.238-.966-18.109-.493-2.489-4.264-4.331-6.544-6.467-.4,3.026-1.728,6.278-1.053,9.041,3.771,15.419-2.75,30.878-16.444,37.806-.277.14-.55.424-.821.421-15.469-.229-25.613,8.428-36.579,18.4-10.337,9.4-24.51,8.211-36.3-.384-11.715-8.544-15.81-20.864-12.466-34.6,1.958-8.036,1.2-14.857-1.517-22.4-7.547-20.906,5.032-40.981,27.273-43.028,8.518-.782,11.574-4.1,12.775-12.282,3.534-24.1,17.579-39.66,40.813-46.943,2.061-.646,4.311-1.472,6.363-1.239,13.953,1.583,27.268-.282,40.9-3.962,5.826-1.574,13.667,2.576,20.059,5.353,4.877,2.119,7.627,2.055,10.978-2.369,10.617-14.013,24.627-20.275,42.4-17.357a13.307,13.307,0,0,0,7.146-1.024c17.646-7.848,30.059-4.494,41.867,11.561,7,9.513,6.934,9.444,16.149,1.334,11.639-10.242,25.226-13.876,40.613-12.308A26.95,26.95,0,0,0,449.572,58.4c17.123-7.734,37.851-.277,43.651,17.712,4.221,13.1,4.334,26.706-3.271,39.56a57.565,57.565,0,0,0-6.97,18.64c-3.06,16.843-14.788,27.917-32.412,29.288-12.182.948-13.022,2.245-10.726,14.374,4.059,21.437-8.733,45.121-33.838,44.089-3.356-.136-7.995,3.216-10.154,6.277-10.647,15.093-24,21.1-37.923,16.137-14.643-5.223-24.35-22.007-21.283-39.368,2.052-11.623,3.775-22.633-3.89-32.835A29.96,29.96,0,0,0,329.392,169.411Z" transform="translate(8.491 0)" fill="#2a7c9b" fill-rule="evenodd"/>
    <path id="Path_28" data-name="Path 28" d="M257.281,521.11q-73.1-.011-146.194-.008c-13.721,0-15.141-1.4-15.14-14.688.006-35.386.178-70.771-.134-106.156-.075-8.415,2.966-12.553,11.328-13.763,18.416-2.666,36.728-6.065,55.159-8.6,7.882-1.083,11.282-4.206,11.222-12.556-.319-44.074,0-88.153-.4-132.224-.076-8.435,2.371-11.753,11-11.617,32.655.514,26.769-2.994,26.981,26.262q.407,55.866-.1,111.737c-.057,7.523,2.213,9.836,9.833,8.8,24.362-3.316,24.4-3.091,24.395-27.119-.005-36,.278-72.016-.234-108.014-.133-9.306,3.219-11.79,11.879-11.683,30.874.378,25.227-1.916,25.426,25.079.246,33.21.028,66.423.041,99.635,0,10.642,1.348,11.747,12.11,10.283,22.585-3.068,22.592-3.068,22.585-26.025-.01-32.591.167-65.184-.2-97.772-.087-7.857,2-11.318,10.4-11.186,32,.5,26.8-3.033,26.972,26.416.169,28.863-.111,57.731-.173,86.6-.023,9.967,1.8,11.445,11.584,9.676,13.428-2.426,26.851-4.87,40.3-7.194,9.213-1.591,13.8,1.9,13.825,11.208q.191,80.545.025,161.091c-.018,9.93-2.524,11.807-14.425,11.813Q331.308,521.148,257.281,521.11Zm-.805-14q67.97,0,135.937,0c10.889,0,12.008-1.309,12-12.476q-.05-65.172.053-130.346c.011-9.465-1.644-10.823-10.863-9.3q-53.7,8.911-107.422,17.653c-55.09,9.058-110.153,18.29-165.292,27.045-8.891,1.411-11.98,5.246-11.851,14.074.392,26.993.107,54,.149,81,.018,11.016,1.408,12.34,12.287,12.34Q188.975,507.1,256.476,507.107Z" transform="translate(0 46.244)" fill="#2a7c9b" fill-rule="evenodd"/>
    <path id="Path_29" data-name="Path 29" d="M306.211,377.654c-.008-15.134-.008-15.134-12.366-15.2-13.017-.073-13.443.358-13.433,13.434,0,3.076-.514,6.239.053,9.2.405,2.125,1.741,4.859,3.484,5.812C295.438,397.173,306.216,390.626,306.211,377.654Zm43.029-.06c.017-14.888-.2-15.147-12.686-15.144-12.778.005-12.793.025-12.774,12.964,0,3.394-.5,6.872.075,10.162.37,2.1,1.857,4.873,3.621,5.708C339.388,396.924,349.227,390.59,349.239,377.594Zm-68.809,44.958c.023,14.885.455,15.418,12.523,15.45,12.747.037,13.286-.517,13.247-13.616-.011-3.382.423-6.844-.161-10.124-.375-2.1-1.781-4.9-3.518-5.731C290.342,402.713,280.409,409.16,280.431,422.552Zm43.248.3c0,2.16.045,4.321-.01,6.478-.124,4.987,1.5,8.942,7.175,8.468,6.26-.525,15.032,3.758,17.75-5.06,1.9-6.177.684-13.449.1-20.163-.141-1.642-3.045-3.825-5.065-4.4C329.129,404.081,323.806,408.136,323.679,422.856ZM263.327,377.5c-.011-14.987-.011-14.987-11.688-15.022-13.809-.04-13.823-.025-13.819,13.927,0,2.78-.585,5.7.084,8.3.617,2.394,2.041,5.522,4.006,6.47C253.911,396.969,263.337,390.777,263.327,377.5Z" transform="translate(39.213 84.898)" fill="#2a7c9b" fill-rule="evenodd"/>
    <path id="Path_30" data-name="Path 30" d="M297.04,377.654c.005,12.971-10.772,19.518-22.262,13.24-1.743-.953-3.078-3.686-3.484-5.812-.567-2.959-.052-6.123-.053-9.2-.01-13.076.415-13.507,13.433-13.434C297.033,362.52,297.033,362.52,297.04,377.654Z" transform="translate(48.369 84.77)" fill="#2a7c9b" fill-rule="evenodd"/>
    <path id="Path_31" data-name="Path 31" d="M330.734,377.593c-.013,13-9.85,19.33-21.765,13.69-1.765-.836-3.252-3.614-3.621-5.708-.58-3.29-.071-6.767-.075-10.162-.019-12.938,0-12.959,12.774-12.964C330.534,362.446,330.75,362.705,330.734,377.593Z" transform="translate(57.766 84.771)" fill="#2a7c9b" fill-rule="evenodd"/>
    <path id="Path_32" data-name="Path 32" d="M271.21,413.1c-.022-13.392,9.911-19.839,22.091-14.021,1.735.831,3.143,3.632,3.518,5.731.584,3.28.149,6.742.161,10.124.04,13.1-.5,13.653-13.247,13.616C271.665,428.514,271.233,427.982,271.21,413.1Z" transform="translate(48.419 94.354)" fill="#2a7c9b" fill-rule="evenodd"/>
    <path id="Path_33" data-name="Path 33" d="M305.155,413.338c.127-14.721,5.449-18.774,19.948-14.674,2.02.572,4.922,2.755,5.065,4.4.586,6.715,1.8,13.987-.1,20.163-2.718,8.818-11.49,4.535-17.75,5.06-5.672.473-7.3-3.481-7.175-8.468C305.2,417.658,305.155,415.5,305.155,413.338Z" transform="translate(57.785 94.417)" fill="#2a7c9b" fill-rule="evenodd"/>
    <path id="Path_34" data-name="Path 34" d="M263.327,377.492c.01,13.28-9.416,19.471-21.417,13.675-1.965-.948-3.388-4.076-4.006-6.47-.669-2.6-.083-5.52-.084-8.3,0-13.951.01-13.967,13.819-13.927C263.316,362.5,263.316,362.5,263.327,377.492Z" transform="translate(39.137 84.776)" fill="#2a7c9b" fill-rule="evenodd"/>
  </g>
</svg>
