<svg id="idea-growth" xmlns="http://www.w3.org/2000/svg" width="119.12" height="140.125" viewBox="0 0 119.12 140.125">
  <path id="Path_77" data-name="Path 77" d="M119.982,86.409l-10.545-6.327V46.373h4.671a2.335,2.335,0,0,0,1.651-3.987L104.082,30.709a2.335,2.335,0,0,0-3.3,0L89.1,42.386a2.335,2.335,0,0,0,1.651,3.987h4.671v2.335H81.412V25.354h9.342A2.335,2.335,0,0,0,92.4,21.367L73.721,2.684a2.335,2.335,0,0,0-3.3,0L51.736,21.367a2.335,2.335,0,0,0,1.651,3.987h9.342V48.708H48.716V44.038h4.671a2.335,2.335,0,0,0,1.651-3.987L43.361,28.374a2.335,2.335,0,0,0-3.3,0L28.381,40.051a2.335,2.335,0,0,0,1.651,3.987H34.7V67.392h-6.56a14.013,14.013,0,1,0,0,14.013H34.7v30.361a2.335,2.335,0,0,0,.334,1.2l6.579,10.977-1.934,13.51H34.7v4.671H83.747v-4.671H79.077V125.778l5.605,4.2a2.335,2.335,0,0,0,1.4.467H97.76a2.336,2.336,0,0,0,1.4-.467l9.342-7.006a2.335,2.335,0,0,0,.934-1.868V104l10.208-4.082a2.335,2.335,0,0,0,1.469-2.17V88.411a2.335,2.335,0,0,0-1.132-2ZM26.711,76.734a2.335,2.335,0,0,0-2.139,1.4,9.342,9.342,0,1,1,0-7.473,2.335,2.335,0,0,0,2.139,1.4H83.747v4.671H76.741a2.335,2.335,0,0,0-2.335,2.335v9.342a2.335,2.335,0,0,0,2.335,2.335h7.006v7.006H79.077V95.417a2.335,2.335,0,0,0-2.335-2.335H67.4a2.335,2.335,0,0,0-2.335,2.335v2.335H60.393V90.746H67.4a2.335,2.335,0,0,0,2.335-2.335V79.069A2.335,2.335,0,0,0,67.4,76.734Zm89.732,19.438-10.208,4.082a2.335,2.335,0,0,0-1.469,2.17v17.516l-7.784,5.839H86.861l-8.718-6.539a2.335,2.335,0,0,0-1.4-.467H67.4a2.336,2.336,0,0,0-1.943,1.04l-4.671,7.006,3.886,2.592,3.977-5.967h5.757v14.013h-30l1.955-13.681a2.335,2.335,0,0,0-.311-1.534l-6.672-11.121V81.4h25.69v4.671H58.058a2.335,2.335,0,0,0-2.335,2.335v11.677a2.335,2.335,0,0,0,2.335,2.335H67.4a2.335,2.335,0,0,0,2.335-2.335V97.752h4.671v2.335a2.335,2.335,0,0,0,2.335,2.335h9.342a2.335,2.335,0,0,0,2.335-2.335V88.411a2.335,2.335,0,0,0-2.335-2.335H79.077V81.4h7.006a2.335,2.335,0,0,0,2.335-2.335V69.727a2.335,2.335,0,0,0-2.335-2.335H39.374V41.7a2.335,2.335,0,0,0-2.335-2.335H35.67l6.039-6.039,6.039,6.039H46.38A2.335,2.335,0,0,0,44.045,41.7v9.342a2.335,2.335,0,0,0,2.335,2.335H65.064A2.335,2.335,0,0,0,67.4,51.044V23.019a2.335,2.335,0,0,0-2.335-2.335H59.024L72.07,7.637,85.116,20.683H79.077a2.335,2.335,0,0,0-2.335,2.335V51.044a2.335,2.335,0,0,0,2.335,2.335H97.76a2.335,2.335,0,0,0,2.335-2.335V44.038A2.335,2.335,0,0,0,97.76,41.7H96.392l6.039-6.039L108.47,41.7H107.1a2.335,2.335,0,0,0-2.335,2.335V81.4a2.335,2.335,0,0,0,1.132,2l10.545,6.327Z" transform="translate(-1.995 -2)" fill="#fff"/>
  <ellipse id="Ellipse_3" data-name="Ellipse 3" cx="3.5" cy="3" rx="3.5" ry="3" transform="translate(8.711 67.806)" fill="#fff"/>
</svg>
