<svg xmlns="http://www.w3.org/2000/svg" width="512" height="486.352" viewBox="0 0 512 486.352">
  <g id="IHR_copy" data-name="IHR copy" transform="translate(-133.831 -136.46)">
    <path id="Path_9" data-name="Path 9" d="M352.248,479.742c-94.641-.19-172.282-76.678-172.177-169.622.109-97.706,75.936-173.745,173.154-173.66,88.52.077,169.744,71.722,169.757,174.117C522.992,402.717,444.842,479.93,352.248,479.742Zm-11-127.249h.059c0-7.717-.406-15.462.117-23.145.511-7.491-2.768-10.57-9.828-10.578-15.436-.018-30.872.053-46.308-.085-6.386-.057-9.622,2.622-8.63,9.129,2.523,16.557,4.644,33.214,8.244,49.541.855,3.875,6.636,9.038,10.561,9.422,12.295,1.206,24.787.42,37.2.386,6.329-.016,8.915-3.145,8.667-9.507C341,369.281,341.246,360.883,341.246,352.493Zm-.012-88.69h-.077c0-8.41-.188-16.826.059-25.228.2-6.98-3.168-9.731-9.774-9.683-11.774.091-23.549.176-35.321.02-6.424-.085-10.426,2.834-11.47,8.974q-4.306,25.327-8.06,50.747c-.881,5.885,2.087,8.8,8.065,8.778,15.812-.046,31.624.026,47.435-.055,6.766-.034,9.489-3.638,9.218-10.343C340.993,279.288,341.234,271.541,341.234,263.8Zm52.876,55v-.044c-7.735,0-15.474.137-23.206-.042-6.226-.145-9.268,2.166-9.174,8.846q.361,25.218-.014,50.444c-.093,6.4,2.325,9.287,8.82,9.2q18.157-.252,36.323.032c6,.1,9.529-2.188,10.584-8.262,2.984-17.194,6.127-34.359,9.1-51.555,1.105-6.386-2.753-8.487-8.224-8.578C410.255,318.706,402.182,318.8,394.11,318.8Zm-32.331-56.187h.036c0,8.727-.634,17.529.335,26.147.347,3.083,4.467,8.079,7.042,8.194,16.418.733,32.882.436,49.333.287,5.664-.049,8.941-2.855,7.879-8.953-2.99-17.161-5.679-34.4-9.5-51.377-.715-3.174-5.961-7.295-9.374-7.547-12.355-.915-24.818-.3-37.24-.41-5.873-.053-8.646,2.525-8.551,8.481C361.878,245.83,361.779,254.224,361.779,262.618ZM228.6,297.4c4.7,0,9.432-.345,14.095.073,9.4.844,12.85-3.061,13.7-12.565a415.1,415.1,0,0,1,7.095-45.632c1.6-7.879-.509-10.642-8.236-10.374a200.418,200.418,0,0,1-22.145-.065c-7.095-.543-11.994,2.305-14.47,8.424-5.012,12.39-10.741,24.711-13.788,37.626-5.256,22.283-4.493,22.464,18.711,22.5C225.246,297.395,226.925,297.391,228.6,297.4Zm.572,21.394c-6.386,0-12.774-.1-19.155.03-5.747.119-9.153,2.814-7.64,8.923q4.83,19.5,10.222,38.85c4.541,16.23,14.717,23.842,32.038,20.648,3.895-.717,8.046-.117,12.079-.018,7.071.174,8.422-3.071,6.931-9.616-2.529-11.1-4.634-22.339-6.174-33.62C254.049,318.886,254.237,318.859,229.173,318.8ZM459.349,387.1c4.693,0,9.561.772,14.022-.248,3.469-.792,8.236-3.125,9.317-5.96,6.527-17.113,12.367-34.5,17.982-51.943,2.056-6.39-.513-10.347-7.949-10.246-12.068.162-24.141.218-36.207.018-6.929-.115-9.091,3.158-9.671,9.747-1.117,12.652-2.852,25.276-4.931,37.812C438.472,387,438.272,386.967,459.349,387.1ZM474.2,297.429c5.723,0,11.458-.228,17.167.055,8.208.412,11.662-3.372,9.2-11.044-5.424-16.881-10.99-33.747-17.491-50.225-1.305-3.309-6.812-6.43-10.731-6.931-8.281-1.063-16.79-.354-25.206-.345-6.4.006-9.119,2.343-7.5,9.4a314.509,314.509,0,0,1,6.178,33.743C448.785,297.446,448.515,297.478,474.2,297.429Zm-132.971-113.7c0-4.7.335-9.428-.129-14.081-.273-2.717-1.162-6.727-2.98-7.578-2.075-.97-6.382.006-8.168,1.735-8.129,7.871-16.21,15.9-23.292,24.7-3.762,4.673-5.45,11.014-8.075,16.6,6.054.905,12.1,2.515,18.165,2.6C344.713,208.093,340.87,209.764,341.226,183.728Zm.1,249.487h-.15c0-5.353.935-10.941-.329-15.978-.838-3.331-4.606-8.081-7.45-8.372a177.386,177.386,0,0,0-30.042,0c-1.551.109-4.634,5.7-3.889,7.163,7.541,14.735,17.169,27.983,31.42,37.018,6.315,4,10.131,1.673,10.41-5.792C341.468,442.585,341.325,437.9,341.325,433.215Zm43.011-24.765v-.1a98.2,98.2,0,0,1-10.058-.055c-9.731-1-13.378,3.186-12.6,12.852.646,8-.117,16.1.2,24.139.125,3.123,1.5,6.194,2.3,9.291,3.364-1.02,7.646-1.073,9.923-3.236,7.965-7.57,15.82-15.416,22.545-24.068,3.574-4.6,4.735-11.07,6.984-16.7q-8.645-1.067-17.293-2.117A17.59,17.59,0,0,0,384.336,408.45ZM361.775,183.708c0,4.37.279,8.764-.063,13.107-.6,7.606,2.234,11.349,10.279,11.089,8.392-.273,16.8.059,25.21.172,6.424.087,9.935-3.729,6.135-8.7-9.493-12.408-19.547-24.577-30.771-35.393-6.57-6.331-10.606-3.594-10.776,5.6C361.7,174.292,361.771,179,361.775,183.708ZM243.747,206.641c21.093,4.925,26.42,2.7,35.975-14.283,2.287-4.067,5.095-7.846,7.3-11.951,1.095-2.042,1.37-4.523,2.178-7.382C274.972,175.179,246.993,196.081,243.747,206.641ZM414.35,171.4c-.75.729-1.5,1.459-2.253,2.186,3.461,5.974,7.248,11.786,10.317,17.955,8.578,17.248,12.016,19.274,31.1,16.632,1.749-.242,4.216-1.354,4.747-2.695a5.923,5.923,0,0,0-1.45-5.3C443.731,188.966,430.685,177.625,414.35,171.4ZM287.382,444.373q1.264-1.164,2.525-2.329c-5.384-10.157-10.654-20.378-16.274-30.4a6.985,6.985,0,0,0-5.018-2.935c-8.143-.307-16.3-.135-24.46-.135l-1.545,3.362A140.792,140.792,0,0,0,287.382,444.373Zm125.254-1.628q1.794,1.739,3.59,3.483c13.6-10.022,27.3-19.931,40.672-30.25,1.238-.956.473-4.507.638-6.857-9.323.754-21.644-1.895-27.264,3.059C421.909,419.549,418.279,432.288,412.637,442.744Z" transform="translate(43.799)" fill="#2a7c9b" fill-rule="evenodd"/>
    <path id="Path_10" data-name="Path 10" d="M368.566,408.779c-1.691-2.5-2.917-5.572-5.164-7.382-6.814-5.5-5.717-9.612.238-15.454,15.664-15.359,28.856-32.579,37.129-53.284,12.184-30.494,4.642-56.664-16.971-79.712a122.773,122.773,0,0,0-17.626-14.9c-12.064-8.766-14.343-14.085-11.161-31.648,5.149,3.024,9.891,5.562,14.378,8.491,18.2,11.887,34.238,26.2,45.506,44.923,18.462,30.672,16.22,62.427-.566,92.253-11.355,20.171-27.06,37.9-40.817,56.714Z" transform="translate(217.981 68.417)" fill="#2a7c9b" fill-rule="evenodd"/>
    <path id="Path_11" data-name="Path 11" d="M229.392,188.819c-1.263,14.323-6.586,23.036-19.82,27.286-16.036,5.147-30.517,13.444-41.922,26.587-15.333,17.666-16.074,36.878-7.452,57.431,4.325,10.309,2.743,15.687-7.46,19.468-2.093.776-7.345-2.283-8.677-4.85-18.454-35.62-12.038-72.425,20.054-96.409,16.887-12.618,37.755-19.943,56.963-29.377C223.138,187.945,226.124,188.819,229.392,188.819Z" transform="translate(0 51.307)" fill="#2a7c9b" fill-rule="evenodd"/>
    <path id="Path_12" data-name="Path 12" d="M172.725,314.849a31.377,31.377,0,0,1-31.557-31.28c-.02-16.739,14.852-31.2,31.945-31.052,17.319.146,30.973,14.329,30.749,31.939A30.672,30.672,0,0,1,172.725,314.849Z" transform="translate(7.484 115.117)" fill="#2a7c9b" fill-rule="evenodd"/>
    <path id="Path_13" data-name="Path 13" d="M280.156,379.947c1.661-20.155,13.236-30.854,28.056-37.713,20.2-9.343,39.712-19.234,57.344-33.21,6.854-5.432,17.184-7.162,26.25-8.9,7.236-1.392,9.481,2.82,5.335,8.885a29.327,29.327,0,0,1-8.671,8.034c-8.135,5.018-16.586,9.529-24.947,14.182-13.167,7.323-26.161,14.99-39.605,21.763-11.879,5.986-23.278,11.624-28.268,25.571-1.341,3.747-7.246,5.867-11.054,8.731C282.815,384.343,281.033,381.4,280.156,379.947Z" transform="translate(144.586 161.789)" fill="#2a7c9b" fill-rule="evenodd"/>
    <path id="Path_14" data-name="Path 14" d="M320.436,440.76c3.812-7.564,6.014-12.666,8.838-17.4q13.051-21.857,26.531-43.458c5.86-9.347,12.361-18.293,18.194-27.654,3.485-5.6,5.711-12.014,9.442-17.412a54.686,54.686,0,0,1,14.588-14.03c4.21,12.677,2.2,24.581-5.155,33.44-15.252,18.367-25.379,39.343-35.747,60.431-5.269,10.717-13.244,19.491-24.989,23.733C329.331,439.424,326.234,439.63,320.436,440.76Z" transform="translate(184.034 182.052)" fill="#2a7c9b" fill-rule="evenodd"/>
    <path id="Path_15" data-name="Path 15" d="M339.121,378.175c.174,9.687-8.713,18.84-18.482,19.042-10.159.21-19.139-8.176-19.353-18.066-.2-9.406,8.937-18.963,18.458-19.3C329.059,359.513,338.956,368.873,339.121,378.175Z" transform="translate(166.368 221.869)" fill="#2a7c9b" fill-rule="evenodd"/>
    <path id="Path_16" data-name="Path 16" d="M322.014,361.958c-.246,9.4-9.814,18.856-19,18.79-9.82-.079-18.889-10.026-18.388-20.177.455-9.19,9.6-17.652,18.868-17.46C313.475,343.318,322.269,352.267,322.014,361.958Z" transform="translate(149.801 204.798)" fill="#2a7c9b" fill-rule="evenodd"/>
    <path id="Path_17" data-name="Path 17" d="M357.574,338.313c-8.588-.141-17.779-9.307-17.678-17.626.107-8.747,9.986-18.21,18.723-17.929,8.267.265,16.733,9.612,16.743,18.485C375.369,330.135,366.693,338.465,357.574,338.313Z" transform="translate(203.885 165.222)" fill="#2a7c9b" fill-rule="evenodd"/>
  </g>
</svg>
