<svg xmlns="http://www.w3.org/2000/svg" width="512" height="505.018" viewBox="0 0 512 505.018">
  <g id="ihrindex" transform="translate(-80.869 -52.654)">
    <path id="Path_23" data-name="Path 23" d="M528.6,193.816c-23.92-.821-37.733,17.388-37.225,35.941.619,22.665,14.609,34.151,36.434,36.313,18.642,1.844,36.134-16.956,36.193-36.613A35.117,35.117,0,0,0,528.6,193.816ZM295.866,88.381c-.1,21.443,15.045,37.448,35.951,37.3,18.836-.13,35.314-13.6,36.6-36.464,1.036-18.318-17.888-36.315-36.827-36.565C312.523,52.405,295.952,68.975,295.866,88.381ZM136.993,262.332c20.649-.092,36.2-15.59,36.126-36.014a36.1,36.1,0,1,0-72.209.177C101.113,247.327,116.311,262.421,136.993,262.332ZM175.4,462.653c-2.554,20.97,19.318,36.735,35.755,36.371,17.933-.4,35.5-13.3,36.239-36.467.617-19.4-17.237-35.987-36.969-36.026C192.2,426.493,172.961,444.185,175.4,462.653Zm244.213-.32c-.153,20.782,14.9,35.964,35.36,36.462,21.347.517,36.866-15.823,36.746-35.353-.129-21.223-14.262-36.092-36.778-36.753C435.363,426.114,419.755,442.386,419.613,462.334Z" transform="translate(5.34 0)" fill="#27709a" fill-rule="evenodd"/>
    <path id="Path_24" data-name="Path 24" d="M380.678,393.325c-28.077,9.477-55.888,10.592-84.933,1.062,37.482,48.342,47.067,100.133,22.6,156.991-4.691-56.339-28.5-102.2-74.221-135.4-45.692-33.182-96.414-43.68-153.24-28.658,27.683-29.783,90.8-55.357,158.433-25.651-5.936-12.214-13.626-24.46-17.886-37.805-4.306-13.489-5.216-28.061-7.6-42.074C191.2,333.33,143.66,357.776,80.869,352.619c53-21.3,89.52-58.3,107.6-112.362,18.165-54.307,11.2-105.9-20.154-155.426,45.574,22.106,82.686,82.381,72.078,148.531,19.044-28.2,42.731-45.344,75.509-52.442-30.9-6.759-57.179-18.5-78.5-39.53a142.086,142.086,0,0,1-40.75-75.916c72.436,94.16,216.621,86.51,282.342.829-7.278,48.936-48.7,101.98-116.11,113.907,12.168,6.192,26.326,11.451,38.156,19.959,12.049,8.666,21.807,20.523,32.965,31.364-1.2-28.02.838-56.243,14.506-82.708,13.546-26.223,33.31-45.8,58.882-60.814-30.231,48.076-37.819,99.1-20.722,153.06,17.262,54.479,52.954,92.189,106.2,113.415C578.234,362.327,540.252,356,510.7,341c-21.859-11.09-33.348-22.259-62.035-60.867,0,32.837-8.755,60.973-31.552,86.553,29.537-13.328,57.377-19.017,87.064-14.764C534.012,356.2,559.58,368.556,583.805,390c-111.779-34.731-227.686,55.427-230.17,164.254-12.392-26.856-16.535-54.687-11.411-84.295C347.31,440.538,360.719,415.735,380.678,393.325Zm-18.2-118.881-8.278-5.1c2.789-2.2,5.576-4.4,9.831-7.763.656-1.446,1.5-5.824,4.122-8.377,2.647-2.582,7.056-3.36,10.837-4.988-16.12-13.57-16.129-13.615-5.872-28.523,3.153,1.285,6.39,3.59,9.625,3.584,2.245,0,6.608-4.428,6.41-4.769-3.2-5.489-5.815-12.969-10.828-15.486-29.421-14.778-58.983-13.04-88.118,1.873-7.3,3.734-9.383,9.4-8.93,17.056h21.572c-4.342,3.311-6.343,5.746-8.881,6.624-17.214,5.952-22.622,16.6-16.046,32.326,3.135,7.494-6.7,28.826-14.545,29.267-9.622.543-10.127,8.305-8.275,12.409,3.438,7.623,9.97,13.86,15.489,20.445.129.151,3.523-2.441,5.752-4.006,11.537,6.459,23.623,13.089,35.5,20.071,1.381.811,2.39,3.639,2.243,5.421-.766,9.248-1.775,18.485-3.16,27.655-.293,1.948-2.493,3.609-4.718,6.627-6.848-9.607-12.269-18.621-19.057-26.448-17.109-19.727-37.663-36.938-44.536-63.805-.091-.357-1.136-.467-3.893-1.5,1.763,10.665,2.553,20.394,5.045,29.665,10.9,40.537,46.479,67.511,91.481,69.968,37.82,2.062,79.077-25.508,92.12-61.833,2.125-5.919,4.151-12.179,4.409-18.358.163-3.978-2.991-8.093-5.51-14.224-2.371-.928-7.382-2.89-15.088-5.9,2.662,6.931,4.233,11.018,6.3,16.411l-11.937-4.592q-.851,1.348-1.7,2.7c3.534,3.131,7.066,6.261,10.374,9.194-9.068,20.631-18.19,41.366-42.618,51.569,1.26-15.025,2.457-29.324,3.673-43.83-18.178.312-25.4-2.6-28.3-13.881-2.715-10.581,4.13-18.079,12.6-23.957,1.514-1.05,1.958-3.645,2.9-5.526,7.02,3.143,14.089,6.188,21.043,9.474,4.463,2.107,15.472-2.712,17.661-8.313-14.628,4.666-15.309-9.617-22.009-15.874l3.364,12.818c-9.553-9.4-9.505-9.361-16.43.112C365.389,273.615,363.7,273.861,362.474,274.444Z" transform="translate(0 3.417)" fill="#27709a" fill-rule="evenodd"/>
    <path id="Path_25" data-name="Path 25" d="M440.479,162.15a34.5,34.5,0,0,1,34.79,35.01c-.058,19.31-17.248,37.778-35.568,35.965-21.448-2.123-35.2-13.406-35.8-35.672C403.4,179.229,416.973,161.342,440.479,162.15Z" transform="translate(94.075 31.739)" fill="#27709a" fill-rule="evenodd"/>
    <path id="Path_26" data-name="Path 26" d="M252.186,87.749c.085-19.062,16.37-35.34,35.109-35.093,18.612.246,37.209,17.924,36.191,35.919-1.265,22.457-17.458,35.693-35.969,35.82C266.97,124.535,252.09,108.813,252.186,87.749Z" transform="translate(49.663 0)" fill="#27709a" fill-rule="evenodd"/>
    <path id="Path_27" data-name="Path 27" d="M136.369,230.2c-20.324.087-35.259-14.741-35.46-35.2a35.481,35.481,0,1,1,70.962-.174C171.943,214.889,156.662,230.113,136.369,230.2Z" transform="translate(5.34 30.923)" fill="#27709a" fill-rule="evenodd"/>
    <path id="Path_28" data-name="Path 28" d="M158.753,378.13c-2.4-18.142,16.51-35.521,34.42-35.484,19.39.038,36.935,16.336,36.33,35.389-.724,22.757-17.99,35.431-35.613,35.822C177.738,414.216,156.243,398.729,158.753,378.13Z" transform="translate(22.517 85.166)" fill="#27709a" fill-rule="evenodd"/>
    <path id="Path_29" data-name="Path 29" d="M348.208,377.786c.139-19.595,15.478-35.579,34.718-35.013,22.127.65,36.016,15.256,36.143,36.1.119,19.183-15.132,35.236-36.111,34.728C362.855,413.114,348.058,398.2,348.208,377.786Z" transform="translate(77.492 85.196)" fill="#27709a" fill-rule="evenodd"/>
  </g>
</svg>
