<svg xmlns="http://www.w3.org/2000/svg" width="477.375" height="512" viewBox="0 0 477.375 512">
  <g id="indaem" transform="translate(-33.379 -9.25)">
    <path id="Path_30" data-name="Path 30" d="M271.612,521.248q-105.527,0-211.055,0c-23.367,0-27.173-3.756-27.175-26.7q0-211.842,0-423.681c0-19.487,4.6-24.194,23.636-24.2,49.1-.023,98.2.188,147.294-.214,8.028-.066,11.572,2.1,13.378,10.139,4.161,18.509,9.626,36.72,13.984,55.193,1.916,8.132,5.917,11.893,14.379,11.748,17.39-.3,34.792-.255,52.188-.049,7.721.091,12.036-2.842,13.954-10.717,4.667-19.192,10.283-38.153,14.868-57.363,1.527-6.391,3.925-8.92,10.743-8.885,51.418.261,102.835.045,154.254.225,13.585.048,18.67,6.369,18.672,22.114q.041,151.312.016,302.629,0,63.433-.024,126.87c-.013,16.186-5.06,22.23-21.113,22.4-38.262.4-76.525.039-114.792.015q-51.606-.033-103.208-.006C271.612,520.923,271.612,521.085,271.612,521.248Zm.53-32.138q92.2,0,184.4-.015c17.3-.013,22.139-4.845,22.142-21.981q.031-152.46,0-304.922c0-17.319-4.9-22.447-21.718-22.451Q271.983,139.69,87,139.75c-16.39,0-21.546,5.163-21.555,21.45q-.056,153.047-.009,306.09c0,16.96,4.994,21.793,22.3,21.8Q179.944,489.127,272.142,489.11Z" transform="translate(0 0)" fill="#27709a" fill-rule="evenodd"/>
    <path id="Path_31" data-name="Path 31" d="M262,9.311c12.548.014,25.1.169,37.644-.035,9.221-.15,13.053,3.723,10.906,12.965-6.089,26.21-11.856,52.5-18.536,78.562-.858,3.355-6.223,7.623-9.746,7.861a286.427,286.427,0,0,1-40.908-.03c-3.717-.282-9.259-4.966-10.209-8.609-6.6-25.315-12.342-50.855-18.067-76.39-2.515-11.208-.029-14.167,11.273-14.306C236.9,9.174,249.454,9.293,262,9.311Zm-.14,86.156a17.518,17.518,0,0,0,17.326-17.8,17.523,17.523,0,0,0-35.037.407A17.5,17.5,0,0,0,261.861,95.467Z" transform="translate(10.393)" fill="#27709a" fill-rule="evenodd"/>
    <path id="Path_32" data-name="Path 32" d="M224.809,284.6c7.754,31.964,17.987,61.286,36.706,89.028,19.454-27.453,28.918-57.359,37.006-88.193,34.676,10.561,65.05,23.98,71.141,64.555,2.2,14.605,1.85,16.605-12.25,20.455-39.28,10.729-79.516,12.465-119.781,9.789-24.182-1.607-48.156-6.395-72.208-9.867-11.041-1.592-14.209-8-12.1-18.711,5.007-25.484,16.4-45.656,42.25-55.119C205.133,293.035,214.447,288.854,224.809,284.6Z" transform="translate(10.395 15.623)" fill="#27709a" fill-rule="evenodd"/>
    <path id="Path_33" data-name="Path 33" d="M270.856,432.848c-50.025,0-100.048.074-150.072-.127-4.464-.018-9.882-.711-13.082-3.141-2.639-2.008-4.229-7.426-3.374-10.656.844-3.188,4.938-6.189,8.369-8,2.442-1.289,6.15-.57,9.294-.57q150.072-.035,300.144-.01c3.145,0,7.168-.867,9.24.6,3.671,2.586,8.7,6.793,8.5,10.063-.25,3.965-4.726,8.406-8.566,11.2-2.266,1.652-6.84.629-10.38.631Q345.894,432.865,270.856,432.848Z" transform="translate(0 22.296)" fill="#27709a" fill-rule="evenodd"/>
    <path id="Path_34" data-name="Path 34" d="M259.067,299.621c-1.892-.467-6.727-1.043-11.049-2.846-15.2-6.336-36.454-40.408-35.1-56.795,1.013-12.176,7.3-21.556,18.816-26.257a76.655,76.655,0,0,1,59.275-.2c17.817,7.156,25.277,28.037,14.629,46.022-4.105,6.935-8.067,13.953-12.15,20.9C286.269,292.742,275.032,299.543,259.067,299.621Z" transform="translate(10.396 11.122)" fill="#27709a" fill-rule="evenodd"/>
    <path id="Path_35" data-name="Path 35" d="M310.142,220.006c-33.092-21.645-63.975-21.717-96.671-.231,0-13.82-.919-26.634.509-39.18.482-4.237,6.2-9.4,10.734-11.4,24.14-10.68,48.773-10.542,73.155-.51,8.509,3.5,13.436,9.449,12.468,19.8C309.423,198.281,310.142,208.233,310.142,220.006Zm-36.014-39.853c-3.383-3.01-8.279-10.7-12.931-10.552-4.509.141-12.307,8.46-12.144,12.953.163,4.545,8.316,8.805,12.969,13.187Z" transform="translate(10.402 7.861)" fill="#27709a" fill-rule="evenodd"/>
    <path id="Path_36" data-name="Path 36" d="M258.262,360.611c-1.758-8.42-4.2-16.789-4.806-25.287-.155-2.207,5.275-6.391,8.471-6.752,2.5-.287,7.984,4.088,7.858,6.129-.531,8.584-2.671,17.068-4.22,25.588Q261.913,360.448,258.262,360.611Z" transform="translate(10.391 15.556)" fill="#27709a" fill-rule="evenodd"/>
    <path id="Path_37" data-name="Path 37" d="M270.965,308.021c-1.1,7.611,2.083,15.857-9.541,15.707-11.587-.152-7.547-8.871-9.729-15.707Z" transform="translate(10.378 14.053)" fill="#27709a" fill-rule="evenodd"/>
  </g>
</svg>
