<svg xmlns="http://www.w3.org/2000/svg" width="511.316" height="512" viewBox="0 0 511.316 512">
  <g id="indanc4" transform="translate(-25.131 -23.631)">
    <path id="Path_38" data-name="Path 38" d="M279.878,535.631c-139.734-.28-254.873-116.2-254.747-256.475C25.258,137.791,140.52,23,281.909,23.633c137.065.616,254.239,108.321,254.538,254.488C536.752,428.577,417.872,534.218,279.878,535.631Zm240.51-256.607c-.243-133.089-107.1-240.179-239.422-239.958C147.867,39.287,40.1,147.435,40.6,280.276,41.1,412.9,148.23,519,281.447,518.822,414.726,518.636,520.634,412.352,520.388,279.023Z" transform="translate(0)" fill="#27709a" fill-rule="evenodd"/>
    <path id="Path_39" data-name="Path 39" d="M248.579,407.146c.019-10.152-.15-20.31.069-30.457.223-10.206-4.872-15.052-14.7-15.185-11.165-.15-22.335.031-33.506,0-15.8-.047-18.148-2.493-13.82-18.148,10-36.152,20.72-72.1,31.026-108.16,5.714-19.987,11.718-39.909,16.632-60.093,6.9-28.339,26.512-28.939,45.054-23.173,3.967,1.234,8.618,4.314,10.392,7.833,7.188,14.258,13.136,29.134,20.078,43.525,2.063,4.279,5.14,8.87,9.011,11.357,31.022,19.922,36.836,34.152,21.033,66.525-8.009,16.408-7.182,30.428-1.7,46.553,11.286,33.238,10.545,34.105-23.926,33.641-39.687-.538-34.9,1.808-34.421,34.874.215,14.716-.137,29.443-.36,44.164-.161,10.553-4.812,18.455-16.008,18.1-10.219-.322-14.714-7.956-14.829-17.844C248.46,429.484,248.56,418.315,248.579,407.146Zm74.733-127.877c2.3-2.377,10.456-7.066,11.1-12.621.558-4.8-6.493-13.841-11.812-15.381-24.765-7.174-40.912-21.4-46.1-47.2-.678-3.359-2.14-7.666-4.676-9.3-4.676-3.017-11.221-7-15.485-5.692-4.227,1.3-9.04,8.438-9.407,13.329C244.476,234.938,284.235,277.515,323.312,279.269Z" transform="translate(15.473 9.292)" fill="#27709a" fill-rule="evenodd"/>
    <path id="Path_40" data-name="Path 40" d="M294.071,117.669c.23,18.327-16.238,35.671-33.976,35.783-17.488.113-34.372-17.335-34.331-35.476C225.807,98.8,239.857,84.428,259,83.99,278.746,83.534,293.829,98.018,294.071,117.669Z" transform="translate(20.092 6.752)" fill="#27709a" fill-rule="evenodd"/>
  </g>
</svg>
