<svg xmlns="http://www.w3.org/2000/svg" width="512" height="512.064" viewBox="0 0 512 512.064">
  <g id="indcpr" transform="translate(-6.066 -7.547)">
    <path id="Path_42" data-name="Path 42" d="M6.066,331.116c.339-14.509,5.439-26.049,15.193-35.721,20.213-20.039,40.277-40.227,60.4-60.353Q187.116,129.6,292.577,24.154c22.077-22.067,49.983-22.148,72.343-.207,8.464,8.3,16.806,16.735,25.189,25.123Q446.064,105.058,502,161.064c21.458,21.511,21.421,49.935-.123,71.485Q366.471,368,231,503.387c-21.577,21.563-50.013,21.637-71.489.195q-69.443-69.333-138.8-138.752A48.354,48.354,0,0,1,6.066,331.116ZM494.751,197.47c-1.14-8.523-5-14.4-10.4-19.783Q416.132,109.66,348.065,41.479c-12.588-12.6-25.658-12.779-38.189-.253Q174.65,176.409,39.451,311.618c-12.245,12.246-12.081,25.494.217,37.779Q107.2,416.861,174.653,484.392c14.363,14.384,26.411,14.524,40.711.225Q349.114,350.894,482.853,217.16c1.678-1.676,3.754-3.155,4.859-5.158C490.311,207.3,492.434,202.331,494.751,197.47Z" transform="translate(0 0)" fill="#27709a" fill-rule="evenodd"/>
    <path id="Path_43" data-name="Path 43" d="M442.866,199.6c.031,5.652-2.623,11.923-7.729,17.071-12.769,12.872-25.472,25.814-38.493,38.425a26.466,26.466,0,0,1-37.91-.39c-10.542-10.8-10.564-26.888.238-37.907q18.837-19.214,38.063-38.04c8.372-8.153,18.328-10.283,29.3-5.792C436.508,177.134,443.038,187.173,442.866,199.6ZM420.8,187.565c-1.979-2.313-3.421-5.55-5.337-5.861-2.776-.45-6.743.3-8.726,2.138-9.191,8.509-17.859,17.581-26.745,26.423-3.471,3.455-4.647,7.156-1.084,11.163,3.177,3.571,7.334,3.275,11.571-.9q13.189-12.993,26.14-26.222C418.25,192.625,419.168,190.245,420.8,187.565Z" transform="translate(11.994 4.798)" fill="#27709a" fill-rule="evenodd"/>
    <path id="Path_44" data-name="Path 44" d="M170.008,417.253a25.673,25.673,0,0,1,7.8-19.328c12.778-12.863,25.5-25.785,38.488-38.437,10.8-10.521,26.692-10.324,37.495.055a26.4,26.4,0,0,1,.872,37.475c-12.961,13.49-26.175,26.757-39.732,39.645-8.284,7.875-18.442,9.547-28.955,4.725C175.834,436.73,170.487,428.487,170.008,417.253Zm32.4-11.775c2.335-1.047,4.23-1.375,5.361-2.484,9.916-9.728,19.834-19.459,29.431-29.5,2.889-3.023,2.631-7.517-.926-9.61-2.384-1.4-7.474-1.744-9.177-.186-10.235,9.372-19.982,19.3-29.5,29.409-1.4,1.484-1.591,5.261-.764,7.355C197.646,402.543,200.458,403.835,202.4,405.478Z" transform="translate(4.82 11.996)" fill="#27709a" fill-rule="evenodd"/>
    <path id="Path_45" data-name="Path 45" d="M260.441,326.265a25.814,25.814,0,0,1,7.807-18.769c12.771-12.868,25.5-25.781,38.486-38.435,10.977-10.7,27.185-10.394,37.916.323a26.588,26.588,0,0,1,.177,37.525q-19.129,19.732-38.9,38.839c-8.429,8.109-18.641,10.033-29.388,5.164C266.142,346.2,260.838,337.71,260.441,326.265Zm32.676-11.2c2.328-1.1,4-1.433,5.017-2.433,9.9-9.734,19.828-19.457,29.444-29.472,2.881-3,2.525-6.906-.608-9.843s-6.659-2.733-9.9-.007c-1.768,1.481-3.326,3.215-4.962,4.854-7.777,7.774-15.756,15.366-23.164,23.479-1.667,1.829-2.342,5.779-1.624,8.2C287.959,312.008,291.155,313.41,293.117,315.061Z" transform="translate(7.479 7.463)" fill="#27709a" fill-rule="evenodd"/>
    <path id="Path_46" data-name="Path 46" d="M260.487,225.63a25.633,25.633,0,0,1,7.77-18.754c12.771-12.871,25.487-25.8,38.493-38.436,10.954-10.635,27.329-10.232,37.912.495a26.349,26.349,0,0,1,.1,37.476c-12.782,13.129-25.709,26.127-38.894,38.853-8.451,8.158-18.681,9.981-29.393,5.092C266.107,245.624,260.77,237.126,260.487,225.63ZM293.3,214.459a48,48,0,0,0,5.684-3.078,39.654,39.654,0,0,0,4.146-4.028c7.915-7.919,15.875-15.793,23.718-23.785,3.122-3.182,3.566-6.891.534-10.354-2.6-2.977-6.4-3.968-9.286-1.206q-15.663,15-30.564,30.79c-1.206,1.275-1.044,5.013-.077,6.856C288.521,211.694,291.244,212.867,293.3,214.459Z" transform="translate(7.48 4.505)" fill="#27709a" fill-rule="evenodd"/>
    <path id="Path_47" data-name="Path 47" d="M261.953,278.409a25.45,25.45,0,0,1-7.842,18.708c-12.769,12.872-25.5,25.788-38.486,38.437a26.288,26.288,0,0,1-37.455-.009c-10.76-10.526-11.227-26.958-.6-37.912q19.134-19.727,38.887-38.852c8.487-8.217,18.812-9.76,29.438-5.044C256.292,258.351,261.659,266.9,261.953,278.409ZM202.546,304.78c2.246-.928,3.986-1.153,4.982-2.134,10.041-9.874,20.1-19.742,29.825-29.922,2.691-2.816,2.092-6.575-.776-9.384s-6.512-3.4-9.389-.623c-10.138,9.783-20.124,19.734-29.777,29.991-1.354,1.437-1.38,5.293-.478,7.354S200.672,303.306,202.546,304.78Z" transform="translate(4.816 7.165)" fill="#27709a" fill-rule="evenodd"/>
    <path id="Path_48" data-name="Path 48" d="M251.871,186.354c-.114,8.691-2.462,14.891-7.442,19.911-12.9,13.009-25.75,26.078-38.885,38.851-10.992,10.689-27.182,10.284-37.882-.511-10.382-10.475-10.609-26.574-.051-37.448q19.143-19.716,38.882-38.851c8.184-7.975,19.457-9.828,29.415-5.091C246.248,168.133,251.591,176.48,251.871,186.354Zm-59.492,27.931c2.248-.916,3.989-1.131,4.983-2.107,10.045-9.857,20.1-19.709,29.836-29.873,2.658-2.776,2.228-6.554-.62-9.407-2.827-2.834-6.526-3.432-9.38-.692-10.152,9.748-20.13,19.69-29.786,29.924-1.378,1.462-1.474,5.3-.6,7.383C187.665,211.563,190.508,212.783,192.379,214.285Z" transform="translate(4.52 4.503)" fill="#27709a" fill-rule="evenodd"/>
    <path id="Path_49" data-name="Path 49" d="M280.252,162.64c-14.244-.9-22.659-6.072-27.368-16.207-4.75-10.222-3.543-20.352,4.193-28.521q19.893-21,40.9-40.941c10.226-9.716,26.071-8.9,36.126.953,10.318,10.111,11.592,26.189,1.84,36.55-13.35,14.181-27.121,28.011-41.428,41.215C290.165,159.7,283.446,161.151,280.252,162.64Zm40.11-75.681c-2.063-2.268-3.606-5.442-5.794-5.977a10.286,10.286,0,0,0-8.212,2.03c-9.3,8.685-18.188,17.817-27.123,26.89-3.792,3.852-3.937,8.068-.717,11.208,3.145,3.069,7.333,2.813,11.209-1.008q13.393-13.206,26.566-26.638C317.817,91.9,318.684,89.694,320.362,86.959Z" transform="translate(7.182)" fill="#27709a" fill-rule="evenodd"/>
    <path id="Path_50" data-name="Path 50" d="M161.351,277.972a25.388,25.388,0,0,1-7.487,18.857c-12.89,13.022-25.74,26.09-38.888,38.847-10.952,10.628-27.226,10.152-37.9-.639A26.3,26.3,0,0,1,76.773,298q19.3-19.968,39.288-39.262c8.3-8.041,18.39-9.694,28.893-5.184C155.426,258.055,160.928,266.459,161.351,277.972Zm-59.072,27.019c2.487-1.426,4.568-2.127,5.981-3.51,9.238-9.044,18.36-18.208,27.456-27.4,3.152-3.184,3.6-6.908.671-10.364-2.755-3.247-6.705-3.92-9.771-.982-10.169,9.742-20.136,19.707-29.789,29.957-1.356,1.439-1.375,5.307-.473,7.379C97.242,302.106,100.093,303.283,102.279,304.991Z" transform="translate(0 7.165)" fill="#27709a" fill-rule="evenodd"/>
  </g>
</svg>
