<svg xmlns="http://www.w3.org/2000/svg" width="511.564" height="512" viewBox="0 0 511.564 512">
  <g id="indccs" transform="translate(-52.585 -24.505)">
    <path id="Path_142" data-name="Path 142" d="M564.1,279.631c2.659,142.042-116.44,262.058-267.287,256.7-124.352-4.417-251.8-112.86-243.874-269.71C59.456,137.556,166.285,19.072,321.676,24.7,452.975,29.452,566.927,141.671,564.1,279.631ZM250.115,159.9c3.358,5.279,4.722,8.322,6.871,10.641,6.831,7.362,14.139,14.281,20.916,21.689a55.029,55.029,0,0,1,15.028,35.943C294.022,252.8,296.1,277.386,297.64,302c.425,6.783-3.047,8.925-8.936,5.615-2.233-1.252-3.9-3.776-6.211-4.563-2.514-.855-5.486-.365-8.258-.461-.02,2.65-.463,5.383.031,7.935,1.094,5.648,3.294,11.138,3.887,16.813.942,9.022.476,18.192,1.425,27.212,2.8,26.637,6.134,53.218,8.849,79.86.287,2.812-2.143,5.9-3.313,8.86-2.722-2.146-7.209-3.861-7.854-6.512-2.6-10.685-4.928-21.593-5.712-32.536-3.363-46.9-6.035-93.848-9.265-140.758-.434-6.321-1.36-13.169-4.2-18.667-11.318-21.916-22.8-43.6-28.558-67.928-1.9-8.04-8.206-12.967-17.153-15.345a171.751,171.751,0,0,1-33.3-12.745c-8.869-4.5-16.507-11.376-24.868-16.932-5.427-3.606-11.7-4.28-15.775,1.246-4.62,6.265,2.263,9.151,5.821,12.21,13.518,11.627,27.557,22.657,40.932,34.441,6.374,5.619,9.8,13.15,6.691,21.924-3.044,8.6-10.173,12.2-18.6,13.743-19.634,3.611-46-13-53.991-33.464-1.5-3.85-4.958-6.936-7.511-10.374-2.967,3.085-6.625,5.752-8.791,9.323-19.059,31.42-23.907,66.056-22.523,102.038,1.979,51.441,17.992,98.434,49.075,139.087,31.259,40.879,72.942,68.167,123.274,80.126,58.784,13.968,115.707,7.826,168.506-22.6,54.654-31.5,91.8-77.624,108.3-138.956,14.243-52.949,10.232-104.831-13.089-154.753-2.425-5.189-7.025-9.361-10.616-14.006-3.1,4.7-6.805,9.114-9.174,14.155-8.18,17.393-30.675,31.339-49.837,30.255-9.537-.538-17.013-4.846-20.672-13.749-3.474-8.454-.307-15.909,5.806-22.152a132.833,132.833,0,0,1,9.962-9.276c11.224-9.338,22.7-18.375,33.723-27.944,2.312-2,3.088-5.777,4.57-8.736-3.715-1.27-7.611-3.925-11.1-3.473-4.595.6-8.928,3.529-13.28,5.643-16.876,8.2-33.5,16.969-50.649,24.542-9.639,4.256-15.622,10.441-19.183,20.335-5.808,16.132-11.226,32.669-19.4,47.62-9.418,17.236-14.248,34.5-11.682,54.007,1.219,9.282,2.563,18.832,1.688,28.058-3.177,33.587-7.107,67.108-11.115,100.611a155.467,155.467,0,0,1-5.436,25.664c-.746,2.518-4.784,4.06-7.313,6.046-1.142-2.975-3.494-6.094-3.17-8.9.661-5.732,3.643-11.222,4.117-16.942,1.82-21.954,2.583-44,4.62-65.929,1.328-14.345,4.265-28.536,6.229-42.832.321-2.328.125-5.857-1.292-6.969-1.389-1.09-4.752-.154-7.041.56-1.76.55-3.058,2.493-4.812,3.177a83.342,83.342,0,0,1-8.732,2.446c-.711-2.649-2.133-5.331-2.016-7.946,1.084-24.627,2.122-49.268,3.9-73.852.5-6.917,1.678-14.907,5.542-20.229,8.637-11.9,19.267-22.331,28.833-33.576,2.236-2.624,3.47-6.1,5.166-9.18-3.323-.168-6.935-1.277-9.92-.358-30.464,9.359-60.733,8.857-91-.815C260.063,161.073,256.6,160.948,250.115,159.9Zm148.1-15.688c.306-.618.61-1.239.916-1.856,1.613-.148,3.353.047,4.819-.495,18.2-6.744,36.513-13.227,54.453-20.61,6.676-2.746,6.148-8.127-.09-13.614-25.486-22.425-54.183-38.911-87.42-46.715-77.538-18.2-148.723-6.885-210.842,45.9-6.8,5.778-6.7,9.243,1.269,13.941,10.045,5.926,20.036,12.173,30.707,16.753,17.552,7.532,34.653,7.577,51.845-3.393,40.973-26.145,83.178-24.686,125.7-3.277C378.983,135.586,388.664,139.773,398.217,144.212Z" transform="translate(0 0)" fill="#27709a" fill-rule="evenodd"/>
  </g>
</svg>
