<svg xmlns="http://www.w3.org/2000/svg" width="456" height="512" viewBox="0 0 456 512">
  <g id="indimz" transform="translate(-28)">
    <path id="Path_51" data-name="Path 51" d="M142.223,176.889V296.7h81.162a59.631,59.631,0,0,1-5.087-4.623c-4.417-5.1-5.635-10.966-3.031-17.216,2.834-6.8,8.263-10.353,15.59-10.561,7.25-.206,14.511-.045,22.343-.045V202.988c11.638,15.342,24.029,28.166,38.123,37.2l38.43-13.676c-3.766-2.871-6.381-5.049-9.176-6.961-6.582-4.5-13.732-8.3-19.8-13.4-21.078-17.735-34.43-40.7-43.914-66.266a24.883,24.883,0,0,0-7.876-10.371c-4.78-3.7-7.6-2.305-9.495,3.487-3.561,10.865-8.313,21.084-16.365,29.414a66.486,66.486,0,0,0-14.512,23.652c-4.768,12.923-7.05,26.316-7.979,40.01-.187,2.764.261,4.437,2.918,6.008,4.572,2.7,6.045,7.732,4.506,12.609A11.177,11.177,0,0,1,186.7,244.5c-1.5-4.836.35-9.258,4.565-12.721a7.7,7.7,0,0,0,2.7-5.423,156.176,156.176,0,0,0-2.133-19.337c-3.153-17.468-9.254-33.425-21.779-46.819-5.3-5.665-8.485-13.4-12.172-20.438-1.975-3.769-2.972-8.049-4.637-12.734-13.4,4.439-19.3,19.879-34.046,22.49-.79-1.878-1.962-3.757-2.361-5.788-1.12-5.7-2.645-11.455-2.7-17.2-.127-12.977.47-25.962.9-38.94.22-6.651-1.975-11.91-6.871-15.032-2.568,1.722-4.485,3.008-6.558,4.4V82.7l4.479.82v6.325H92.222V83.474l4.671-.862V76l-1.128.789-5.22-5.109c-5.255,2.732-8.129,7.795-8.375,14.162-.535,13.81-1.289,27.644-.945,41.443.337,13.529,2.411,26.961,9.742,38.8,7.646,12.349,18.788,18.266,33.367,15.963C130.144,181.138,135.732,178.811,142.223,176.889Zm141.636,91.222c-1.686.074-3.445.218-5.2.221-15.332.024-30.67-.221-45.989.21a19.5,19.5,0,0,0-10.805,3.918c-4.081,3.212-4.841,8.228-2.807,13.222,2.283,5.605,6.807,8.047,12.625,8.074,16,.076,32,.04,47.994.014,11-.019,22.346,1.618,32.9-.557,15.035-3.1,29.523-8.913,44.158-13.824a15.26,15.26,0,0,0,5.941-4.443c1.863-2.078,3.393-1.87,5.576-.722,10.459,5.5,20.939,10.959,31.518,16.219a17.6,17.6,0,0,0,7.58,1.956c5.006-.016,9.02-3.8,10.2-8.773,1.156-4.882-1.092-9.844-6.1-12.474-12.379-6.494-24.887-12.743-37.229-19.3a9.948,9.948,0,0,1-4.393-4.739c-5.746-15.281-20.178-22.38-35.865-17.3-9.336,3.021-18.643,6.132-27.949,9.241C291.135,244.015,284.965,251.979,283.859,268.111Zm-31.4-194.983c-8.237,1.279-14.885-1.086-20.342-7.251-.922-1.041-3.443-1.3-5.053-1q-29.152,5.438-58.223,11.3a6.235,6.235,0,0,0-4.006,3.755A43.72,43.72,0,0,0,167.1,107.79a46.189,46.189,0,0,0,60.707,24.691C250.783,122.672,262.1,95.836,252.455,73.128ZM421.236,218.2a28.6,28.6,0,1,0-28.64,28.495A28.55,28.55,0,0,0,421.236,218.2ZM159.4,126.8c3.065,11.853,7.337,22.467,15.5,30.94,9.507,9.871,15.455,21.556,19.156,34.556,1.121,3.938,2.124,7.911,3.553,13.265,3.723-20.527,11.638-37.292,25.21-51.57,4.652-4.9,7.033-11.948,10.451-18.017a12.592,12.592,0,0,0-5.8,1.049c-16.33,5.732-32.234,4.571-46.029-5.883C174.262,125.7,167.291,127.195,159.4,126.8Zm10.573-60.257q.282.882.563,1.763L227.8,56.637c.51-9.88.549-10.1-8.09-11.6a54.19,54.19,0,0,0-14.376-.912C189.811,45.657,178.038,53.357,169.975,66.543Zm78.008,2.816A15.816,15.816,0,1,0,232.075,53.5,15.9,15.9,0,0,0,247.983,69.359Z" fill="#27709a" fill-rule="evenodd"/>
    <path id="Path_52" data-name="Path 52" d="M463,512c-6.307-21.025-12.664-42.034-18.9-63.078Q430.476,402.988,417.043,357c-.961-3.3-2.256-4.771-6.064-4.768q-154.989.177-309.983,0c-3.79,0-5.083,1.407-6.066,4.757Q72.6,433.132,50.044,509.211c-.281.949-.694,1.86-1.045,2.789H48l-18.352-6.052,51.3-173.872H431.032q25.638,86.895,51.3,173.872L464,512Z" fill="#27709a" fill-rule="evenodd"/>
    <path id="Path_53" data-name="Path 53" d="M484,316c-2.875,7.333-8.328,9.865-16.064,9.859q-212.428-.164-424.859-.008c-7.448,0-12.375-3.01-15.077-9.851v-6c3.45-6.841,8.933-9.107,16.594-9.1q211.908.238,423.816,0c7.4-.008,12.279,2.831,15.59,9.1Z" fill="#27709a" fill-rule="evenodd"/>
    <path id="Path_54" data-name="Path 54" d="M101,0V36.473l5.027.824V67.031H92.27V37.29L97,36.63Q97,18.367,97,0Z" fill="#27709a" fill-rule="evenodd"/>
    <path id="Path_55" data-name="Path 55" d="M142.223,176.889c-6.49,1.922-12.079,4.249-17.889,5.167-14.579,2.3-25.722-3.614-33.367-15.963-7.331-11.842-9.4-25.273-9.742-38.8-.343-13.8.411-27.634.945-41.443.247-6.367,3.12-11.43,8.375-14.162l5.22,5.109L96.893,76v6.608l-4.671.862v6.368h13.86V83.518L101.6,82.7V76.951c2.072-1.389,3.989-2.675,6.558-4.4,4.9,3.122,7.09,8.381,6.871,15.032-.429,12.979-1.026,25.964-.9,38.94.057,5.746,1.582,11.5,2.7,17.2.4,2.031,1.572,3.91,2.361,5.788,14.747-2.611,20.642-18.051,34.046-22.49,1.665,4.686,2.662,8.966,4.637,12.734,3.687,7.036,6.874,14.772,12.172,20.438,12.525,13.4,18.626,29.352,21.779,46.819a156.176,156.176,0,0,1,2.133,19.337,7.7,7.7,0,0,1-2.7,5.423c-4.215,3.463-6.068,7.885-4.565,12.721a11.177,11.177,0,0,0,21.363.193c1.539-4.877.065-9.906-4.506-12.609-2.657-1.571-3.1-3.244-2.918-6.008.929-13.693,3.211-27.087,7.979-40.01a66.486,66.486,0,0,1,14.512-23.652c8.052-8.33,12.8-18.549,16.365-29.414,1.9-5.792,4.715-7.189,9.495-3.487a24.892,24.892,0,0,1,7.876,10.371c9.484,25.566,22.836,48.53,43.914,66.266,6.063,5.1,13.213,8.9,19.8,13.4,2.8,1.912,5.41,4.09,9.176,6.961l-38.43,13.676c-14.094-9.032-26.484-21.856-38.123-37.2V264.26c-7.832,0-15.092-.161-22.343.045-7.327.208-12.756,3.76-15.59,10.561-2.6,6.25-1.386,12.119,3.031,17.216a59.623,59.623,0,0,0,5.087,4.623H142.223Q142.223,236.886,142.223,176.889Z" fill="#27709a" fill-rule="evenodd"/>
    <path id="Path_56" data-name="Path 56" d="M283.859,268.111c1.105-16.133,7.275-24.1,22.148-29.065,9.307-3.109,18.613-6.22,27.949-9.241,15.688-5.077,30.119,2.021,35.865,17.3a9.939,9.939,0,0,0,4.393,4.739c12.342,6.562,24.85,12.811,37.229,19.3,5.012,2.63,7.26,7.592,6.1,12.474-1.178,4.975-5.191,8.758-10.2,8.773a17.613,17.613,0,0,1-7.58-1.956c-10.578-5.26-21.059-10.722-31.518-16.219-2.184-1.148-3.713-1.356-5.576.722a15.267,15.267,0,0,1-5.941,4.443c-14.635,4.911-29.123,10.728-44.158,13.824-10.559,2.175-21.908.538-32.9.557-16,.026-32,.063-47.994-.014-5.817-.027-10.341-2.469-12.625-8.074-2.034-4.994-1.274-10.01,2.807-13.222a19.5,19.5,0,0,1,10.805-3.918c15.319-.431,30.657-.186,45.989-.21C280.414,268.329,282.174,268.186,283.859,268.111Z" fill="#27709a" fill-rule="evenodd"/>
    <path id="Path_57" data-name="Path 57" d="M252.455,73.128c9.647,22.708-1.671,49.544-24.647,59.354A46.189,46.189,0,0,1,167.1,107.791a43.721,43.721,0,0,1-2.269-27.856,6.235,6.235,0,0,1,4.006-3.755q29.058-5.922,58.223-11.3c1.61-.3,4.131-.039,5.053,1C237.569,72.042,244.218,74.407,252.455,73.128Z" fill="#27709a" fill-rule="evenodd"/>
    <path id="Path_58" data-name="Path 58" d="M421.236,218.2a28.6,28.6,0,1,1-28.216-28.912A28.606,28.606,0,0,1,421.236,218.2Z" fill="#27709a" fill-rule="evenodd"/>
    <path id="Path_59" data-name="Path 59" d="M159.4,126.8c7.889.4,14.86-1.1,22.035,4.34,13.795,10.454,29.7,11.615,46.029,5.883a12.592,12.592,0,0,1,5.8-1.049c-3.418,6.068-5.8,13.122-10.451,18.017-13.572,14.278-21.487,31.043-25.21,51.57-1.43-5.354-2.432-9.326-3.553-13.265-3.7-13-9.649-24.685-19.156-34.556C166.739,149.267,162.467,138.652,159.4,126.8Z" fill="#27709a" fill-rule="evenodd"/>
    <path id="Path_60" data-name="Path 60" d="M169.975,66.543c8.063-13.186,19.835-20.886,35.361-22.422a54.187,54.187,0,0,1,14.376.912c8.639,1.5,8.6,1.724,8.09,11.6L170.538,68.306Q170.257,67.424,169.975,66.543Z" fill="#27709a" fill-rule="evenodd"/>
    <path id="Path_61" data-name="Path 61" d="M247.983,69.359a15.815,15.815,0,1,1,15.97-15.8A15.914,15.914,0,0,1,247.983,69.359Z" fill="#27709a" fill-rule="evenodd"/>
    <path id="Path_62" data-name="Path 62" d="M202.4,356.8h50.235c.114,1.208.308,2.309.308,3.408q.022,61.709-.017,123.416c-.024,12.819-8.687,23.338-20.506,25.377-12.7,2.192-24.485-4.422-28.65-16.3a25.785,25.785,0,0,1-1.6-8.269q-.147-62.459-.054-124.915C202.119,358.713,202.28,357.91,202.4,356.8Z" fill="#27709a" fill-rule="evenodd"/>
    <path id="Path_63" data-name="Path 63" d="M142.357,356.774h50.01c.138,1.492.358,2.765.358,4.037q.025,60.941-.012,121.881c-.019,11.972-6.161,21.219-16.3,25.111-9.715,3.729-21.266,1.471-27.709-6.774-3.3-4.224-6.381-10.026-6.442-15.152-.508-42.452-.287-84.912-.271-127.37A9.619,9.619,0,0,1,142.357,356.774Z" fill="#27709a" fill-rule="evenodd"/>
  </g>
</svg>
