<svg xmlns="http://www.w3.org/2000/svg" width="512" height="508.215" viewBox="0 0 512 508.215">
  <g id="indnbp" transform="translate(-23.467 -38.485)">
    <path id="Path_64" data-name="Path 64" d="M86.644,205.008c-4.16-.555-6.306-.8-8.436-1.136-6.084-.951-7.684-5.061-6.864-10.414,1.709-11.176-3.157-16.537-10.024-20.111C42.208,163.405,30.128,147.875,25.409,127,16.732,88.6,37.79,52.953,75.532,41.424c40.507-12.374,84.512,15.753,90.8,57.529,2.736,18.182.729,35.136-8.9,50.958-6.094,10.021-14.8,17.348-24.7,23.267-6.215,3.715-8.9,8.231-8.075,15.939.678,6.327,1.561,14.415-8.678,15.695-.88.11-1.957,3.173-1.988,4.881-.511,28.211-1.19,56.428-1.076,84.637.037,9.137,2.242,18.264,3.621,28.655,6.4-3.112,11.611-5.87,17-8.226q24.728-10.815,49.573-21.354c9.608-4.076,18.4-9.146,24.959-17.589.887-1.141,3.666-2.128,4.757-1.578,5.913,2.984,11.57,6.473,18.05,10.213C223.962,294.888,215.9,303.336,205.4,308.5c-15.545,7.641-31.759,13.907-47.508,21.148-10.145,4.665-19.929,10.1-29.949,15.043-4.209,2.074-5.159,4.512-3.717,9.3,9.052,30.074,22.431,57.691,45.2,79.855,21.354,20.784,47,31.932,77.018,32.855,37.535,1.154,73.314-5.6,106.5-23.61,24.238-13.153,43.028-31.546,52.28-58.205,2.082-6,3-12.4,4.527-18.923-1.824-.66-2.75-1.024-3.695-1.33-14.377-4.665-17.815-8.968-18.007-24.069-.065-4.83-2.09-5.854-6.306-5.813q-21.191.21-42.387.018c-16.824-.153-30.124-9.838-34.216-25.152a58.943,58.943,0,0,1-1.613-13.445c-.244-8.687.514-17.439-.24-26.069-.761-8.716,2.237-14.423,9.24-19.65,17.805-13.288,29.213-31.433,36.257-52.278,1.984-5.871,5.031-8.068,11.192-8,24.993.279,49.995.125,74.99.178,17.14.036,24.7,7.347,24.619,24.271-.027,5.773,1.848,8.5,7.882,8.115,9.044-.575,18.267.077,27.115-1.49,11.928-2.111,18.907-15.293,17.252-30.024a23.449,23.449,0,0,0-23.409-20.685c-41.735-.044-83.471-.135-125.206.109-6.336.036-8.544-1.788-7.89-8.174.477-4.643-.31-9.415-.566-14.75a7.741,7.741,0,0,1,2.306-.624c42.35-.357,84.7-1.021,127.053-.864,27.934.1,43.163,14.5,49.015,33.433a46.267,46.267,0,0,1,2.1,13.272c.158,40.649-.293,81.3.226,121.945.352,27.43-19.76,48.971-49.042,49.8-5.864.168-11.741.175-17.6-.018-3.977-.133-5.167,1.49-5.3,5.388-1.712,48.914-21.85,89.119-58.9,120.573-31.833,27.029-68.395,45.48-109.7,52.448-48.578,8.2-95.884,2.844-140.142-19.962C124.99,507.767,99.4,486.809,81.7,458.03,63.234,428,59.327,396.06,75.211,363.357c2.6-5.352,5.92-11.038,10.443-14.635,9.34-7.423,9.215-16.014,7.443-26.557a457.384,457.384,0,0,1-6.208-53.179C85.847,247.8,86.644,226.528,86.644,205.008Zm16.247,160.868c-8.45,10.488-12.825,21.806-13.525,34.228-1.111,19.722,5.673,37.352,17.141,52.948,15.643,21.272,36.537,36.579,59.677,48.725,37.045,19.443,76.328,25,117.634,18.463,29.392-4.655,57.068-13.705,81.968-30.112,34.921-23.007,61.837-52.321,70.924-94.683,2.127-9.92,2.873-20.136,4.222-29.953-6.683-1.869-8.3.461-8.728,5.083a89.245,89.245,0,0,1-2.475,14.539c-7.915,29.973-25.816,52.81-51.368,69.657a208.441,208.441,0,0,1-87.79,32.923c-21.613,2.94-43.252,4.163-64.628.665-38.507-6.3-68.017-27.574-91-58.542C120.727,410.646,111.643,388.9,102.891,365.876ZM47.422,109.92A47.128,47.128,0,0,0,95.206,158.5c28.611-.286,48.592-21.517,48.451-48.243-.15-28.64-23.149-47.614-48.181-48.165C69.632,61.521,45.9,85.437,47.422,109.92Zm364,229.686c10.957,1.357,18.213-4.863,18.245-15.163.057-16.069.011-32.138.018-48.208.006-11.481,2.545-14.015,14.055-14.089,15.635-.1,31.268-.257,46.9-.3,10.751-.026,22.329-11.509,20.414-20.47-7.068,1.6-14.059,3.845-21.214,4.607-7.515.8-15.18.187-22.783.189-10.2,0-20.411-.034-30.618.009-14.625.061-24.973,10.5-25.009,25.247-.041,16.721-.011,33.442-.011,50.163C411.418,327.627,411.418,333.66,411.418,339.606Z" transform="translate(0)" fill="#27709a" fill-rule="evenodd"/>
    <path id="Path_65" data-name="Path 65" d="M224.748,265.429c-3.322-1.127-5.044-1.429-6.472-2.245-7.432-4.242-14.866-8.493-22.15-12.981-6.118-3.77-6.61-6.245-3.1-12.659,1.327-2.427,2.9-4.733,4.12-7.208,2.785-5.634,4.623-11.357,2.52-17.807-5.128-15.71-2.007-30.828,3.788-45.658,9.783-25.029,24.828-45.367,50.488-56.112a55.175,55.175,0,0,1,6.651-2.174c5.349-1.476,9.555-3.83,12.13-9.417,4.65-10.094,7.572-10.813,17.536-5.5,6.79,3.619,13.5,7.417,20.05,11.444,4.124,2.535,6.341,6.4,2.762,10.744-5.537,6.724-5.735,14.767-4.165,22.1,6.083,28.395-4.01,52.032-20.084,74.209-9.984,13.773-22.658,23.937-39.289,28.528-8.788,2.427-13.7,8.687-17.758,16.317C230.045,260.261,226.993,262.8,224.748,265.429Z" transform="translate(22.984 6.794)" fill="#27709a" fill-rule="evenodd"/>
    <path id="Path_66" data-name="Path 66" d="M106.1,104.689c.081,8.279-7.579,16.14-15.856,16.267-8.613.133-14.629-5.79-15.282-14.647A30.961,30.961,0,0,0,64,84.568c-2.162-1.891-5.072-3.787-1.784-7.368s5.8-.909,7.474,1.169c6.521,8.111,14.845,11.357,25.1,11.694C100.635,90.258,106.034,98.2,106.1,104.689Z" transform="translate(4.877 4.837)" fill="#27709a" fill-rule="evenodd"/>
  </g>
</svg>
