<svg id="information" xmlns="http://www.w3.org/2000/svg" width="10.445" height="10.445" viewBox="0 0 10.445 10.445">
  <g id="Group_4" data-name="Group 4">
    <g id="Group_3" data-name="Group 3">
      <path id="Path_1" data-name="Path 1" d="M192.048,106.488a1.036,1.036,0,0,0,.057.105c.019.029.048.057.067.086a.859.859,0,0,0,.1.086.321.321,0,0,0,.115.057.473.473,0,0,0,.124.038.588.588,0,0,0,.124.01.545.545,0,0,0,.124-.01.342.342,0,0,0,.105-.038h.01a.714.714,0,0,0,.115-.067.621.621,0,0,0,.086-.076l.01-.01a.524.524,0,0,0,.067-.086.3.3,0,0,0,.048-.1c0-.01,0-.01.01-.019a.617.617,0,0,0,.038-.124.811.811,0,0,0,0-.248.886.886,0,0,0-.038-.124.542.542,0,0,0-.115-.172l-.019-.019a.841.841,0,0,0-.1-.076c-.038-.019-.067-.038-.105-.057a.538.538,0,0,0-.115-.038.587.587,0,0,0-.124-.01.544.544,0,0,0-.124.01.538.538,0,0,0-.115.038h-.01a1.039,1.039,0,0,0-.105.057.833.833,0,0,0-.1.076.618.618,0,0,0-.076.086,1.036,1.036,0,0,0-.057.105.538.538,0,0,0-.038.115.587.587,0,0,0-.01.124.544.544,0,0,0,.01.124A.866.866,0,0,0,192.048,106.488Z" transform="translate(-187.417 -103.079)" fill="#1885be"/>
      <path id="Path_2" data-name="Path 2" d="M179.319,183.388h-.22v-2.339a.247.247,0,0,0-.248-.248h-1a.247.247,0,0,0-.248.248v.516a.247.247,0,0,0,.248.248h.2V183.4h-.2a.247.247,0,0,0-.248.248v.516a.247.247,0,0,0,.248.248h1.47a.247.247,0,0,0,.248-.248v-.516A.255.255,0,0,0,179.319,183.388Z" transform="translate(-173.361 -176.484)" fill="#1885be"/>
      <path id="Path_3" data-name="Path 3" d="M5.223,0a5.223,5.223,0,1,0,5.223,5.223A5.224,5.224,0,0,0,5.223,0Zm0,9.758A4.535,4.535,0,1,1,9.758,5.223,4.539,4.539,0,0,1,5.223,9.758Z" fill="#1885be"/>
    </g>
  </g>
</svg>
