<svg xmlns="http://www.w3.org/2000/svg" width="361.488" height="512" viewBox="0 0 361.488 512">
  <g id="own-informed-sexual-relations-woman_copy" data-name="own-informed-sexual-relations-woman copy" transform="translate(-184.94 -155.355)">
    <path id="Path_18" data-name="Path 18" d="M478.3,190.8c-12.771,0-22.376.023-31.978-.005-16.019-.043-11.5-11.993-12.4-21.061-.956-9.6,2.65-14.425,12.624-14.384q44.491.183,88.987.036c7.443-.025,10.861,3.3,10.846,10.729-.059,30.083.315,60.178-.43,90.244-.086,3.586-5.461,8.511-9.472,10.134-4.372,1.77-10.011.511-15.094.4-7.2-.153-10.889-3.627-10.6-11.133.272-7.2.5-14.422.122-21.6-.14-2.61-1.483-6.354-3.406-7.313-1.7-.85-5.682.73-7.443,2.47-15.679,15.478-30.958,31.357-46.636,46.832-6.171,6.092-3.233,10.981.341,16.783,23.261,37.744,30.152,78.052,16.271,120.588-15.45,47.354-46.771,80.046-94.468,95.466-31.055,10.039-24.9,6.438-24.968,33.041-.074,28-6.461,29.32,28.5,28.8.844-.015,1.694-.005,2.541-.01,25.438-.145,31.156,6.5,25.24,31.507-.844,3.571-7.432,7.682-11.739,8.162-10.032,1.127-20.3.4-30.464.041s-14.928,3.945-14.427,14.366c.471,9.727.209,19.489.443,29.231.214,8.852-3.365,13.056-12.794,13.161-27.369.292-27.417.537-27.293-26.535.145-32.049,4.276-30.269-29.724-30.027-27.8.2-27.964-.265-26.316-28.491.491-8.417,3.558-12.3,12.489-11.744,10.558.651,21.18.168,31.769.407,8.546.193,12.746-3.5,11.912-12.26-.079-.844-.061-1.694-.079-2.544-.237-12.245,3.64-27.071-1.936-35.979-4.98-7.954-20.415-9.33-31.2-13.692-75.938-30.693-111.826-113.583-82.234-189.886C223.847,242.9,309.537,205.99,384.751,235.269c8.59,3.342,16.081,9.528,24.685,12.82,4.617,1.763,12.494,2.4,15.518-.28,16.442-14.567,31.917-30.238,47.491-45.764C474.584,199.911,475.426,196.47,478.3,190.8Zm-147.553,73.9c-58.126-.1-105.655,47.562-105.734,106.039-.079,58.278,47.674,106.07,105.818,105.9,58.357-.163,105.968-47.781,105.963-105.976C436.792,312.6,388.965,264.808,330.75,264.706Z" transform="translate(0 0)" fill="#3c9cb5" fill-rule="evenodd"/>
    <path id="Path_19" data-name="Path 19" d="M280.618,274.186c-17.815,0-35.636-.288-53.444.107-10.913.238-13.18-5.53-13.294-14.959-.117-9.674,2.689-14.957,13.352-14.885,36.422.243,72.85.329,109.272-.017,10.7-.1,12.38,5.549,12.308,14.3s-.648,15.812-12.37,15.533c-18.6-.45-37.213-.121-55.821-.121A.259.259,0,0,0,280.618,274.186Z" transform="translate(47.772 138.453)" fill="#3c9cb5" fill-rule="evenodd"/>
    <path id="Path_20" data-name="Path 20" d="M280.913,252.812c-17.81,0-35.625-.283-53.425.112-9.665.217-13.623-3.715-13.594-13.335.026-9.274.834-16.5,12.975-16.4q55.212.447,110.432.057c12.308-.069,11.16,8.229,11.439,16.3.3,8.55-2.215,13.506-12.02,13.294-18.594-.407-37.2-.119-55.8-.119C280.913,252.757,280.913,252.786,280.913,252.812Z" transform="translate(47.798 105.436)" fill="#3c9cb5" fill-rule="evenodd"/>
  </g>
</svg>
