<svg xmlns="http://www.w3.org/2000/svg" width="25" height="25" viewBox="0 0 25 25">
  <g id="laboratory" transform="translate(-0.002)">
    <g id="Group_6" data-name="Group 6" transform="translate(0.002 4.448)">
      <g id="Group_5" data-name="Group 5">
        <path id="Path_21" data-name="Path 21" d="M15.123,133.719l-5.677-8.776v-7.054a.555.555,0,0,0-.555-.555H6.113a.555.555,0,0,0-.555.555v7.07l-5.176,8.8a2.738,2.738,0,0,0,2.36,4.127H12.856a2.7,2.7,0,0,0,2.267-4.166Zm-2.267,3.055H2.741a1.628,1.628,0,0,1-1.405-2.453l5.256-8.93a.555.555,0,0,0,.077-.282v-6.666H8.335v6.666a.555.555,0,0,0,.089.3l5.766,8.911a1.589,1.589,0,0,1-1.333,2.452Z" transform="translate(-0.003 -117.333)" fill="#fff"/>
      </g>
    </g>
    <g id="Group_8" data-name="Group 8" transform="translate(2.253 13.924)">
      <g id="Group_7" data-name="Group 7">
        <path id="Path_22" data-name="Path 22" d="M48.973,299.87l-.958-.563L43.3,307.324a.555.555,0,0,0,.479.837h3.859V307.05H44.748Z" transform="translate(-43.222 -299.307)" fill="#fff"/>
      </g>
    </g>
    <g id="Group_10" data-name="Group 10" transform="translate(12.782 11.114)">
      <g id="Group_9" data-name="Group 9">
        <path id="Path_23" data-name="Path 23" d="M288.214,245.333h-8.657a2.222,2.222,0,0,0-2.222,2.222v8.887a2.781,2.781,0,0,0,2.777,2.777h5a2.781,2.781,0,0,0,2.777-2.777V248.9l1.274-1.274a1.341,1.341,0,0,0-.949-2.289Zm.163,1.5-1.436,1.436a.555.555,0,0,0-.163.393v7.776a1.666,1.666,0,0,1-1.666,1.666h-5a1.666,1.666,0,0,1-1.666-1.666v-8.887a1.111,1.111,0,0,1,1.111-1.111h8.657a.23.23,0,0,1,.163.393Z" transform="translate(-277.335 -245.333)" fill="#fff"/>
      </g>
    </g>
    <g id="Group_12" data-name="Group 12" transform="translate(18.337 14.446)">
      <g id="Group_11" data-name="Group 11">
        <path id="Path_24" data-name="Path 24" d="M385.668,309.333v7.221H384v1.111h2.222a.556.556,0,0,0,.555-.555v-7.776Z" transform="translate(-384.002 -309.333)" fill="#fff"/>
      </g>
    </g>
    <g id="Group_14" data-name="Group 14" transform="translate(7.63)">
      <g id="Group_13" data-name="Group 13">
        <path id="Path_25" data-name="Path 25" d="M172.278,8.045V.555A.555.555,0,0,0,171.723,0h-3.888a.555.555,0,0,0-.555.555V8.2a9.429,9.429,0,0,0-1.944.848l.555.962a8.325,8.325,0,0,1,2.083-.852.556.556,0,0,0,.417-.538V1.111h2.777V8.494a.556.556,0,0,0,.452.545,8.34,8.34,0,0,1,4.94,2.973l.866-.7A9.457,9.457,0,0,0,172.278,8.045Z" transform="translate(-165.335)" fill="#fff"/>
      </g>
    </g>
    <g id="Group_16" data-name="Group 16" transform="translate(20.003 7.209)">
      <g id="Group_15" data-name="Group 15">
        <path id="Path_26" data-name="Path 26" d="M417.946,149.333a1.944,1.944,0,1,0,1.944,1.944A1.944,1.944,0,0,0,417.946,149.333Zm0,2.777a.833.833,0,1,1,.833-.833A.833.833,0,0,1,417.946,152.11Z" transform="translate(-416.002 -149.333)" fill="#fff"/>
      </g>
    </g>
    <g id="Group_18" data-name="Group 18" transform="translate(18.337 3.888)">
      <g id="Group_17" data-name="Group 17">
        <path id="Path_27" data-name="Path 27" d="M385.668,74.667a1.666,1.666,0,1,0,1.666,1.666A1.666,1.666,0,0,0,385.668,74.667Zm0,2.222a.555.555,0,1,1,.555-.555A.556.556,0,0,1,385.668,76.889Z" transform="translate(-384.002 -74.667)" fill="#fff"/>
      </g>
    </g>
    <g id="Group_20" data-name="Group 20" transform="translate(0.002 4.119)">
      <g id="Group_19" data-name="Group 19">
        <path id="Path_28" data-name="Path 28" d="M1.946,85.333A1.944,1.944,0,1,0,3.89,87.277,1.944,1.944,0,0,0,1.946,85.333Zm0,2.777a.833.833,0,1,1,.833-.833A.833.833,0,0,1,1.946,88.11Z" transform="translate(-0.002 -85.333)" fill="#fff"/>
      </g>
    </g>
    <g id="Group_22" data-name="Group 22" transform="translate(2.779 0.555)">
      <g id="Group_21" data-name="Group 21">
        <path id="Path_29" data-name="Path 29" d="M55,10.667a1.666,1.666,0,1,0,1.666,1.666A1.666,1.666,0,0,0,55,10.667Zm0,2.222a.555.555,0,1,1,.555-.555A.555.555,0,0,1,55,12.889Z" transform="translate(-53.335 -10.667)" fill="#fff"/>
      </g>
    </g>
    <g id="Group_24" data-name="Group 24" transform="translate(15.558 15.061)">
      <g id="Group_23" data-name="Group 23">
        <rect id="Rectangle_6" data-name="Rectangle 6" width="1.666" height="1.111" fill="#fff"/>
      </g>
    </g>
    <g id="Group_26" data-name="Group 26" transform="translate(15.582 17.138)">
      <g id="Group_25" data-name="Group 25">
        <rect id="Rectangle_7" data-name="Rectangle 7" width="1.111" height="1.111" fill="#fff"/>
      </g>
    </g>
    <g id="Group_28" data-name="Group 28" transform="translate(15.558 19.215)">
      <g id="Group_27" data-name="Group 27">
        <rect id="Rectangle_8" data-name="Rectangle 8" width="1.666" height="1.111" fill="#fff"/>
      </g>
    </g>
    <g id="Group_30" data-name="Group 30" transform="translate(15.582 21.112)">
      <g id="Group_29" data-name="Group 29">
        <rect id="Rectangle_9" data-name="Rectangle 9" width="1.111" height="1.111" fill="#fff"/>
      </g>
    </g>
    <g id="Group_32" data-name="Group 32" transform="translate(1.113 9.348)">
      <g id="Group_31" data-name="Group 31">
        <rect id="Rectangle_10" data-name="Rectangle 10" width="1.111" height="1.111" fill="#fff"/>
      </g>
    </g>
    <g id="Group_34" data-name="Group 34" transform="translate(2.779 11.945)">
      <g id="Group_33" data-name="Group 33">
        <rect id="Rectangle_11" data-name="Rectangle 11" width="1.111" height="1.111" fill="#fff"/>
      </g>
    </g>
    <g id="Group_36" data-name="Group 36" transform="translate(11.427 14.022)">
      <g id="Group_35" data-name="Group 35">
        <rect id="Rectangle_12" data-name="Rectangle 12" width="1.111" height="1.111" fill="#fff"/>
      </g>
    </g>
    <g id="Group_38" data-name="Group 38" transform="translate(10.389 11.945)">
      <g id="Group_37" data-name="Group 37">
        <rect id="Rectangle_13" data-name="Rectangle 13" width="1.111" height="1.111" fill="#fff"/>
      </g>
    </g>
    <g id="Group_40" data-name="Group 40" transform="translate(9.869 9.867)">
      <g id="Group_39" data-name="Group 39">
        <rect id="Rectangle_14" data-name="Rectangle 14" width="1.111" height="1.111" fill="#fff"/>
      </g>
    </g>
    <g id="Group_42" data-name="Group 42" transform="translate(10.389 21.112)">
      <g id="Group_41" data-name="Group 41">
        <rect id="Rectangle_15" data-name="Rectangle 15" width="1.111" height="1.111" fill="#fff"/>
      </g>
    </g>
    <g id="Group_44" data-name="Group 44" transform="translate(8.831 19.215)">
      <g id="Group_43" data-name="Group 43">
        <rect id="Rectangle_16" data-name="Rectangle 16" width="1.111" height="1.111" fill="#fff"/>
      </g>
    </g>
  </g>
</svg>
