<svg id="life-insurance" xmlns="http://www.w3.org/2000/svg" width="150.07" height="173.56" viewBox="0 0 150.07 173.56">
  <path id="Path_38" data-name="Path 38" d="M364.29,169.979a5.9,5.9,0,1,0,5.9,5.9A5.9,5.9,0,0,0,364.29,169.979Zm0,7.565a1.666,1.666,0,1,1,1.666-1.666A1.666,1.666,0,0,1,364.29,177.544Z" transform="translate(-247.238 -113.539)" fill="#334bac"/>
  <path id="Path_39" data-name="Path 39" d="M261.707,166.443a5.9,5.9,0,1,0,5.9,5.9A5.9,5.9,0,0,0,261.707,166.443Zm0,7.566a1.666,1.666,0,1,1,1.666-1.666,1.666,1.666,0,0,1-1.666,1.666Z" transform="translate(-180.84 -111.251)" fill="#334bac"/>
  <path id="Path_40" data-name="Path 40" d="M310.807,214.5a2.117,2.117,0,0,0-2.117,2.117,8.821,8.821,0,1,1-17.643,0,2.117,2.117,0,1,0-4.233,0,13.055,13.055,0,1,0,26.109,0,2.117,2.117,0,0,0-2.117-2.117Z" transform="translate(-200.91 -142.355)" fill="#334bac"/>
  <path id="Path_41" data-name="Path 41" d="M277.557,103a2.11,2.11,0,0,0,1.5-.62l7.4-7.4a2.117,2.117,0,0,0-2.993-2.993l-7.4,7.4a2.117,2.117,0,0,0,1.5,3.613Z" transform="translate(-193.549 -62.661)" fill="#334bac"/>
  <path id="Path_42" data-name="Path 42" d="M306.311,102.382a2.116,2.116,0,0,0,2.993,0l7.4-7.4a2.117,2.117,0,0,0-2.993-2.993l-7.4,7.4A2.117,2.117,0,0,0,306.311,102.382Z" transform="translate(-213.127 -62.66)" fill="#334bac"/>
  <path id="Path_43" data-name="Path 43" d="M186.411,19.476a32.418,32.418,0,0,0-51.444,7.57A32.394,32.394,0,1,0,83.521,65.28l49.949,49.95a2.117,2.117,0,0,0,2.993,0l8.5-8.5A40.818,40.818,0,0,0,201.355,80.94a11.788,11.788,0,0,0,0-22.435,40.649,40.649,0,0,0-5.71-12.067,32.53,32.53,0,0,0-9.234-26.962Zm-51.444,91.263L86.515,62.287a28.157,28.157,0,1,1,46.457-29.308,2.117,2.117,0,0,0,3.991,0,28.155,28.155,0,0,1,54.685,8.56A40.819,40.819,0,0,0,122.91,58.515a11.785,11.785,0,0,0,0,22.411,40.656,40.656,0,0,0,18.146,23.725Zm64.251-48.423a7.552,7.552,0,0,1,0,14.811,2.117,2.117,0,0,0-1.642,1.559,36.562,36.562,0,0,1-70.887,0,2.117,2.117,0,0,0-1.636-1.562,7.549,7.549,0,0,1,0-14.8,2.117,2.117,0,0,0,1.635-1.558,36.575,36.575,0,0,1,64.9-12.712,2.144,2.144,0,0,0,.293.4,36.454,36.454,0,0,1,5.693,12.307A2.117,2.117,0,0,0,199.217,62.316Z" transform="translate(-63.187 -9.98)" fill="#334bac"/>
  <path id="Path_44" data-name="Path 44" d="M176.311,318.315l-.646.348c-3.17-3.749-8.579-5.182-12.71-3.088l-.047.024-1.713.923a13.96,13.96,0,0,0-15.894-1.371l-9.738,5.295h-12.97a18.616,18.616,0,0,1-8.058-1.847l-1.79-.866a30.872,30.872,0,0,0-32.133,3.138c-.046.035-.091.071-.135.111l-4.32,3.848A14.822,14.822,0,0,1,70.73,327.9l-2.406-7.891a2.117,2.117,0,0,0-2.024-1.5H45.4a2.117,2.117,0,0,0-2.1,2.371L50.267,378a2.117,2.117,0,0,0,2.1,1.86H83.714a2.117,2.117,0,0,0,2.024-2.734l-4.081-13.387,12.71-8.035a7.552,7.552,0,0,1,5.5-.71c.044.011.088.02.133.029l26.088,4.8a33.939,33.939,0,0,0,20.967-2.961,2.1,2.1,0,0,0,.259-.152l45.121-30.982a2.117,2.117,0,0,0,.615-2.837,12.558,12.558,0,0,0-16.742-4.579ZM164.89,319.34c2.235-1.118,5.031-.253,6.892,1.418l-16.9,9.116-.827.436a15,15,0,0,0-2.181-3.959Zm-17.543-.483c.017-.009.035-.018.05-.028a9.717,9.717,0,0,1,9.623-.057l-8.333,4.489A14.953,14.953,0,0,0,143.6,320.9Zm-93.1,56.769L47.793,322.74H64.733l16.123,52.885Zm90.8-22.49a29.677,29.677,0,0,1-18.2,2.525l-26.019-4.791a11.775,11.775,0,0,0-8.577,1.164c-.033.018-.066.038-.1.058l-11.78,7.449-8.411-27.589a19.05,19.05,0,0,0,7.007-3.959l4.255-3.788a26.656,26.656,0,0,1,27.675-2.658l1.79.866a22.871,22.871,0,0,0,9.9,2.269h17.355a10.806,10.806,0,0,1,10.556,8.562l-12.359-.561a75.427,75.427,0,0,0-13.722.635A2.116,2.116,0,1,0,125,337.51a71.09,71.09,0,0,1,12.948-.6l14.8.67.1,0a2.116,2.116,0,0,0,2.117-2.116c0-.282-.01-.56-.025-.838l1.932-1.019,21.444-11.569A8.327,8.327,0,0,1,188.2,323.5Z" transform="translate(-43.286 -206.298)" fill="#334bac"/>
</svg>
