<svg xmlns="http://www.w3.org/2000/svg" width="73.249" height="74.842" viewBox="0 0 73.249 74.842">
  <g id="life1" transform="translate(-866.788 -423.042)">
    <g id="Group_104" data-name="Group 104" transform="translate(866.788 480.271)">
      <path id="Path_157" data-name="Path 157" d="M880.533,581.24c-1.232,2.416,1.3,5.861-2.821,7.057v-5.648c0-3.328-.494-3.817-4.13-3.919v11.055h-2.377V578.47l-4.145,1.076c-.745-1.861.08-2.643,1.877-3.048a13.042,13.042,0,0,1,9.943,1.275c3.806,2.33,7.357,5.078,11.008,7.661,1.406.994,2.783,2.029,4.589,3.348a36.221,36.221,0,0,0-.032-4.275c-.227-1.737.672-2.465,2.4-3.052v5.836c0,3.115.678,3.747,4.114,3.66,0-3.1-.006-6.2,0-9.3,0-.84-.246-1.811,1.177-1.814s1.181.974,1.184,1.811c.012,3.1.005,6.195.005,9.28,3.534.1,4.236-.535,4.236-3.615V581.56c4.009,1.306,1.439,4.6,2.622,6.876l3.847-2.557,1.669,1.251c-5.4,6.521-14.247,8.323-21.386,4.188a92.688,92.688,0,0,1-8.059-5.719C884.364,584.209,882.515,582.752,880.533,581.24Z" transform="translate(-866.788 -576.068)" fill="#fff" fill-rule="evenodd"/>
      <path id="Path_158" data-name="Path 158" d="M926.772,584.215l-1.632-1.268c5.962-6.886,14.8-8.374,22.4-3.623,2.842,1.775,5.405,3.991,8.125,5.965,2.064,1.5,4.1,3.051,6.283,4.364a11.66,11.66,0,0,0,11.911.629c.739,1.957-.024,2.81-1.829,3.239a13.048,13.048,0,0,1-9.958-1.172c-3.464-2.06-6.68-4.535-10-6.836-2.4-1.665-4.7-3.5-7.213-4.978a11.682,11.682,0,0,0-12.588.145C930.46,581.752,928.721,582.957,926.772,584.215Z" transform="translate(-903.317 -576.378)" fill="#fff" fill-rule="evenodd"/>
      <path id="Path_159" data-name="Path 159" d="M1012.659,588.393c-4.087-1.283-1.486-4.714-2.711-6.978l-3.886,2.634-1.869-1.464c5.188-3.947,10.246-7.668,17.216-5.952,2.276.56,2.269.587,2.036,3.115l-4.279-1.223V589.85h-2.313v-11.3a20.1,20.1,0,0,0-3.375,1.05,2.154,2.154,0,0,0-.782,1.618C1012.61,583.516,1012.659,585.821,1012.659,588.393Z" transform="translate(-952.806 -576.152)" fill="#fff" fill-rule="evenodd"/>
      <path id="Path_160" data-name="Path 160" d="M867.123,606.242c6.815,3.485,11.938-.227,17.148-4.081.268.188.561.378.837.589.295.224.575.466.858.7-3.363,4.548-11.672,7.5-16.873,6.119C867.393,609.116,866.386,608.4,867.123,606.242Z" transform="translate(-866.845 -592.403)" fill="#fff" fill-rule="evenodd"/>
    </g>
    <path id="Path_161" data-name="Path 161" d="M869.329,530.494a1.271,1.271,0,1,0,2.541,0V518.782h1.3v11.712a1.271,1.271,0,1,0,2.54,0V510.54h.62v7.189a1.1,1.1,0,0,0,.465.991.822.822,0,0,0,.96,0,1.082,1.082,0,0,0,.5-.991v-7.746a2.339,2.339,0,0,0-.837-1.921,3.58,3.58,0,0,0-2.323-.682H870.01a4.009,4.009,0,0,0-2.324.62,2.172,2.172,0,0,0-.9,1.922v8.242a.838.838,0,0,0,.5.806.994.994,0,0,0,.96,0,.845.845,0,0,0,.465-.806V510.54h.62v19.955Z" transform="translate(0 -52.796)" fill="#fff"/>
    <path id="Path_162" data-name="Path 162" d="M874.908,492.946A2.629,2.629,0,0,0,879.4,494.8a2.571,2.571,0,0,0,.775-1.89,2.5,2.5,0,0,0-.775-1.828,2.634,2.634,0,0,0-4.493,1.859Z" transform="translate(-5.083 -42.112)" fill="#fff"/>
    <path id="Path_163" data-name="Path 163" d="M935.9,511.3a1.854,1.854,0,1,0,3.708,0V494.212h1.9V511.3a1.854,1.854,0,1,0,3.708,0V482.185h.9v10.49a1.611,1.611,0,0,0,.678,1.447,1.2,1.2,0,0,0,1.4,0,1.579,1.579,0,0,0,.723-1.447v-11.3a3.412,3.412,0,0,0-1.221-2.8,5.227,5.227,0,0,0-3.391-.994h-7.415a5.857,5.857,0,0,0-3.391.9,3.17,3.17,0,0,0-1.311,2.8v12.027a1.223,1.223,0,0,0,.724,1.175,1.45,1.45,0,0,0,1.4,0,1.232,1.232,0,0,0,.678-1.175V482.185h.9V511.3Z" transform="translate(-40.944 -34.137)" fill="#fff"/>
    <path id="Path_164" data-name="Path 164" d="M944.039,456.51a3.836,3.836,0,0,0,6.556,2.713,3.748,3.748,0,0,0,1.131-2.758,3.644,3.644,0,0,0-1.131-2.668,3.843,3.843,0,0,0-6.556,2.713Z" transform="translate(-48.36 -18.546)" fill="#fff"/>
    <path id="Path_165" data-name="Path 165" d="M1011.915,495.558a2.293,2.293,0,1,0,4.585,0V474.421h2.349v21.137a2.293,2.293,0,1,0,4.585,0V459.547h1.118V472.52a1.992,1.992,0,0,0,.84,1.789,1.481,1.481,0,0,0,1.733,0,1.953,1.953,0,0,0,.894-1.789V458.54a4.218,4.218,0,0,0-1.509-3.467,6.466,6.466,0,0,0-4.193-1.23h-9.17a7.247,7.247,0,0,0-4.195,1.118,3.922,3.922,0,0,0-1.621,3.468V473.3a1.511,1.511,0,0,0,.9,1.453,1.793,1.793,0,0,0,1.733,0,1.525,1.525,0,0,0,.838-1.453V459.547h1.119v36.011Z" transform="translate(-87.982 -19.282)" fill="#fff"/>
    <path id="Path_166" data-name="Path 166" d="M1021.98,427.795a4.745,4.745,0,0,0,8.108,3.355,4.642,4.642,0,0,0,1.4-3.411,4.513,4.513,0,0,0-1.4-3.3,4.753,4.753,0,0,0-8.108,3.355Z" transform="translate(-97.153)" fill="#fff"/>
  </g>
</svg>
