<svg xmlns="http://www.w3.org/2000/svg" width="512" height="466.296" viewBox="0 0 512 466.296">
  <g id="llin" transform="translate(-7 -38.661)">
    <path id="Path_123" data-name="Path 123" d="M364.788,504.723c38.536,0,77.067-.218,115.6.14,10.581.1,15.2-3.55,14.454-14.435-.839-12.314.062-24.777-1.248-37.019-3.268-30.53-29.388-56.233-59.416-56.834-45.389-.909-90.844-1.163-136.218.158-24.715.721-44.751,13.6-52.553,37.516-5.537,16.971-5.347,35.781-7.944,53.739-1.807,12.475,2.894,17.184,15.861,16.962C290.471,504.3,327.632,504.721,364.788,504.723ZM233.9,220.035q.76-2.878,1.521-5.759c-6.15-1.866-12.184-4.556-18.473-5.437-12.855-1.8-24.988-3.565-34.124-14.848-2.992-3.7-10.531-5.057-16.031-5.152-17.257-.3-19.181-2.623-10.579-17.719,9.736-17.084,20.692-33.49,30.078-50.752,2.707-4.981,1.824-11.9,2.587-17.935-5.782.805-12.476.011-17.191,2.687-25.6,14.526-25.459,14.827-30.85-15.148-.729-4.05-.713-8.269-1.766-12.214-.682-2.562-2.68-4.776-5.718-9.886-8.674,27.322,12.907,50.086,3.259,76.466-4.406-4.141-7.222-6.843-10.1-9.479-19.633-17.986-29.275-41.47-37.082-66.11-1.652-5.217-5.395-9.776-8.172-14.637q-1.9.939-3.791,1.876c0,1.691-.386,3.489.056,5.056,9.7,34.383,24.881,65.549,51.768,90.261,3.587,3.3,4.274,9.734,6.3,14.715-4.772-2.171-10.5-3.328-14.134-6.717-9.03-8.418-16.526-18.531-25.858-26.549-3.727-3.2-12.453-5.461-15.776-3.319-7.885,5.083-3.408,11.6,1.825,17.057,7.25,7.563,14.681,15.035,21.155,23.236,4.351,5.508,7.18,12.218,10.689,18.392-10.606,4.212-14.958-4.375-19.532-10.457-20.258-26.93-49.408-39.589-79.694-50.545-1.658-.6-3.906.424-5.878.694L7,131.218c5.007,3.1,9.674,7.09,15.081,9.127,19.348,7.294,39.282,13.577,53.062,30.216,5.149,6.217,8.77,13.7,13.087,20.6-8.211-.3-16.5-.006-24.617-1.027-12.148-1.529-24.182-3.981-36.264-6.042l-1.465,6.6c9.976,2.516,19.9,5.257,29.941,7.49,12.93,2.871,15.036,7.747,7.966,18.93-3.906,6.175-8.054,12.31-10.94,18.964-1.377,3.172-1.537,9.075.417,10.9,2.216,2.067,7.535,1.64,11.278.991,2.957-.512,5.7-2.813,8.319-4.637,16.16-11.264,32.106-22.843,48.5-33.751,3.26-2.172,8.156-1.9,12.3-2.751.315,3.851.258,7.777,1.023,11.537,1.659,8.159,1.336,18.271,6.147,23.911,9.986,11.719,13.583,24.315,13.85,38.95.088,4.736,2.16,9.437,3.524,14.964,2.915-1.914,3.8-2.276,4.361-2.92a4.159,4.159,0,0,0,1.131-2.413c-.214-18.216,1.276-36.622-13-51.686-3.662-3.865-3.985-10.876-5.843-16.439,6.346,1.655,13.127,2.426,18.91,5.239,5.164,2.508,9.227,7.275,13.775,11.046l3.552-2.809c-1.646-3.135-3.013-6.457-5-9.36-3.6-5.282-8.3-9.952-11.091-15.592-1.493-3.023.044-7.534.214-11.37,4.158.434,8.741-.065,12.351,1.573,3.549,1.607,5.781,5.883,9.165,8.117C201.273,219.166,217.322,221.224,233.9,220.035Zm76.658,97.781c-.24,32.609,23.954,59.534,53.738,59.806,29.178.266,54.647-26.215,55.136-57.326.507-32.294-23.894-59.077-54.046-59.313C335.4,260.75,310.788,286.258,310.557,317.817ZM376.809,88.173h.205c0-12.367.8-24.811-.426-37.055-.441-4.4-5.747-8.316-8.835-12.457-2.776,4-7.7,7.881-7.942,12.034a375.465,375.465,0,0,0-.1,46.683c1.539,23.58,1.157,46.03-20.693,61.592-.71.5-1.685,1.551-1.566,2.16,1.007,5.252,2.236,10.461,3.4,15.68,4.2-1.548,9.047-2.271,12.422-4.881,3.469-2.686,5.607-7.149,8.142-10.96,5.272-7.922,10.754-7.461,16.5-.607,4.124,4.912,7.635,10.565,12.537,14.509,2.75,2.213,7.768,1.621,11.766,2.294.623-4.522,1.924-9.095,1.587-13.542-.167-2.165-3.139-4.43-5.283-6.081-17.97-13.845-24.836-31.974-21.818-54.267C377.381,98.323,376.809,93.208,376.809,88.173Zm-87.166,146.7c-3.475-3.914-5.09-7.182-7.586-8.123-2.452-.928-6.827-.564-8.574,1.1a144.227,144.227,0,0,0-16.205,18.368c-1.429,1.924-1.525,6.686-.107,8.427,2.018,2.478,7.922,5.442,8.836,4.6C274.12,251.768,281.5,243.5,289.643,234.873Zm16.4-16.454c7.4-8.853,14.852-17.348,21.515-26.423.629-.856-3.175-6.24-5.908-7.827-1.912-1.109-6.525-.317-8.167,1.352a152.31,152.31,0,0,0-15.632,18.7c-1.481,2.09-1.577,6.121-.634,8.639C297.922,214.735,301.323,215.6,306.048,218.419Zm-84.309,83.106q3.283.58,6.563,1.165c6.13-10.215,14.132-19.839,17.607-30.882,1.754-5.576-7.012-7.73-11.949-3.014-5.882,5.618-11.748,11.818-15.433,18.9C216.866,290.888,220.505,296.828,221.739,301.525Zm-78.7,82.8c1.721.3,3.444.605,5.166.905l22.4-27.492c-4.438-2.313-11.535-7.62-12.869-6.438a102.317,102.317,0,0,0-18.3,21.643C138.06,375.106,141.7,380.443,143.035,384.323ZM472.241,263.686q2.8-.382,5.6-.759c1.465-4.356,5.493-10.554,3.92-12.74-5.493-7.643-12.613-14.27-19.926-20.3-1.151-.946-6.5,3.19-9.916,4.979Q462.079,249.274,472.241,263.686ZM103.32,425.914q3.239.568,6.476,1.138,9.954-14.9,19.908-29.8c-4.455-1.216-10.906-4.885-12.994-3.195a74.037,74.037,0,0,0-16.7,19.542C98.491,416.151,102.068,421.719,103.32,425.914ZM422.452,185.239c-4.666,2.631-7.873,3.395-8.922,5.327-1.019,1.877-.774,5.7.553,7.376a187.794,187.794,0,0,0,17.357,19.383c1.754,1.676,6.12,1.89,8.7,1.025,1.877-.632,4.46-5.38,3.871-6.172C437.19,203.029,429.831,194.284,422.452,185.239ZM209.245,317.36c-2.687-4.1-3.67-7.232-5.7-8.21-1.815-.876-5.614-.233-7.093,1.211a187.813,187.813,0,0,0-17.429,19.2c-1.4,1.814-.9,6.167.3,8.563.9,1.779,5.76,3.758,6.439,3.112C193.827,333.588,201.429,325.46,209.245,317.36ZM63.378,465.51q3.014.643,6.029,1.289,10.185-14.745,20.366-29.494c-3.91-1.2-9.606-4.637-11.411-3.2a80.788,80.788,0,0,0-17.439,18.761C59.237,455.463,62.418,461.2,63.378,465.51ZM499.2,267.025c-3.918,6.092-8.148,10.813-7.4,11.8a155.97,155.97,0,0,0,18.427,20.205c.623.583,5.741-3.639,8.771-5.631C513.035,285.455,507.065,277.506,499.2,267.025Z" transform="translate(0 0)" fill="#27709a"/>
    <path id="Path_124" data-name="Path 124" d="M346.485,477.475c-37.074,0-74.153-.417-111.217.228-12.939.222-17.629-4.487-15.826-16.962,2.593-17.958,2.4-36.768,7.927-53.738,7.785-23.919,27.777-36.795,52.437-37.516,45.272-1.324,90.629-1.067,135.918-.158,29.962.6,56.024,26.3,59.285,56.834,1.307,12.245.408,24.7,1.245,37.019.741,10.885-3.865,14.535-14.422,14.435C423.382,477.259,384.935,477.477,346.485,477.475Z" transform="translate(18.643 27.246)" fill="#27709a"/>
    <path id="Path_125" data-name="Path 125" d="M233.4,218.856c-16.542,1.19-32.556-.868-47.057-10.466-3.378-2.234-5.6-6.511-9.145-8.117-3.6-1.637-8.176-1.138-12.324-1.573-.169,3.837-1.7,8.348-.213,11.37,2.781,5.64,7.472,10.311,11.066,15.592,1.979,2.9,3.343,6.225,4.985,9.36l-3.544,2.809c-4.538-3.771-8.592-8.536-13.744-11.046-5.77-2.813-12.536-3.583-18.868-5.239,1.853,5.563,2.175,12.574,5.83,16.439,14.24,15.064,12.754,33.47,12.968,51.686a4.176,4.176,0,0,1-1.128,2.413c-.554.645-1.442,1.009-4.351,2.92-1.361-5.527-3.429-10.227-3.516-14.963-.267-14.638-3.855-27.232-13.819-38.95-4.8-5.64-4.479-15.753-6.134-23.911-.763-3.76-.707-7.686-1.021-11.537-4.131.853-9.015.579-12.269,2.751-16.359,10.908-32.27,22.486-48.394,33.751-2.611,1.824-5.35,4.125-8.3,4.637-3.735.65-9.044,1.076-11.253-.991-1.95-1.822-1.79-7.726-.416-10.9,2.88-6.654,7.019-12.789,10.916-18.964,7.054-11.183,4.953-16.059-7.948-18.93-10.016-2.233-19.921-4.976-29.875-7.49q.731-3.3,1.461-6.6c12.057,2.061,24.063,4.513,36.184,6.042,8.1,1.021,16.37.73,24.563,1.027-4.308-6.9-7.92-14.38-13.058-20.6-13.75-16.639-33.64-22.922-52.945-30.216C16.653,137.131,12,133.137,7,130.04l1.39-3.406c1.968-.27,4.211-1.292,5.865-.694,30.219,10.956,59.305,23.614,79.518,50.545,4.564,6.083,8.906,14.669,19.489,10.457-3.5-6.174-6.324-12.883-10.666-18.392-6.46-8.2-13.873-15.674-21.108-23.236-5.22-5.461-9.687-11.974-1.821-17.057,3.316-2.142,12.022.118,15.741,3.319,9.312,8.019,16.791,18.132,25.8,26.549,3.628,3.39,9.341,4.547,14.1,6.717-2.024-4.981-2.71-11.419-6.289-14.714C102.2,125.416,87.051,94.251,77.371,59.868c-.442-1.568-.056-3.366-.056-5.056L81.1,52.936c2.772,4.861,6.505,9.42,8.154,14.637,7.789,24.642,17.411,48.125,37,66.11,2.87,2.636,5.68,5.338,10.076,9.479,9.626-26.382-11.907-49.145-3.252-76.466,3.031,5.11,5.024,7.324,5.705,9.886,1.051,3.946,1.035,8.165,1.762,12.214,5.379,29.975,5.234,29.674,30.782,15.148,4.7-2.676,11.384-1.882,17.154-2.687-.761,6.033.12,12.954-2.581,17.935-9.365,17.262-20.3,33.667-30.011,50.752-8.584,15.1-6.663,17.417,10.555,17.719,5.488.1,13.009,1.457,16,5.152,9.115,11.283,21.222,13.051,34.048,14.848,6.274.881,12.295,3.57,18.432,5.437Q234.158,215.974,233.4,218.856Z" transform="translate(0 1.179)" fill="#27709a"/>
    <path id="Path_126" data-name="Path 126" d="M286.782,300.857c.231-31.557,24.787-57.066,54.711-56.833,30.082.236,54.429,27.019,53.927,59.313-.488,31.111-25.9,57.592-55.015,57.326C310.683,360.39,286.544,333.465,286.782,300.857Z" transform="translate(23.956 16.96)" fill="#27709a"/>
    <path id="Path_127" data-name="Path 127" d="M350.841,88.173c0,5.037.571,10.151-.1,15.1-3.011,22.294,3.84,40.422,21.77,54.267,2.14,1.651,5.1,3.916,5.269,6.081.339,4.447-.96,9.02-1.584,13.542-3.988-.673-9-.08-11.737-2.294-4.893-3.944-8.394-9.6-12.511-14.509-5.734-6.855-11.207-7.316-16.467.607-2.527,3.811-4.66,8.274-8.124,10.96-3.366,2.611-8.2,3.333-12.395,4.881-1.158-5.219-2.385-10.429-3.39-15.68-.118-.609.852-1.655,1.56-2.16,21.8-15.561,22.184-38.012,20.649-61.592a376.068,376.068,0,0,1,.093-46.683c.248-4.152,5.157-8.03,7.925-12.034,3.081,4.141,8.375,8.057,8.818,12.457,1.22,12.243.423,24.687.423,37.055Z" transform="translate(25.99 0)" fill="#27709a"/>
    <path id="Path_128" data-name="Path 128" d="M270.055,220.563c-8.128,8.623-15.489,16.894-23.584,24.371-.912.842-6.8-2.123-8.817-4.6-1.415-1.738-1.32-6.5.107-8.426a144.128,144.128,0,0,1,16.169-18.368c1.742-1.664,6.108-2.028,8.555-1.1C264.976,213.381,266.588,216.65,270.055,220.563Z" transform="translate(19.553 14.31)" fill="#27709a"/>
    <path id="Path_129" data-name="Path 129" d="M283.345,207.358c-4.715-2.819-8.109-3.683-8.809-5.553-.941-2.518-.843-6.55.634-8.639a151.964,151.964,0,0,1,15.6-18.7c1.639-1.669,6.242-2.461,8.146-1.352,2.729,1.588,6.523,6.971,5.895,7.827C298.164,190.009,290.73,198.5,283.345,207.358Z" transform="translate(22.724 11.061)" fill="#27709a"/>
    <path id="Path_130" data-name="Path 130" d="M205.2,284.166c-1.231-4.7-4.862-10.635-3.2-13.83,3.676-7.083,9.529-13.283,15.4-18.9,4.926-4.714,13.673-2.564,11.923,3.014-3.466,11.041-11.451,20.669-17.568,30.881Q208.47,284.745,205.2,284.166Z" transform="translate(16.561 17.358)" fill="#27709a"/>
    <path id="Path_131" data-name="Path 131" d="M132.677,360.486c-1.334-3.88-4.964-9.217-3.592-11.382a102.259,102.259,0,0,1,18.258-21.643c1.331-1.182,8.413,4.126,12.841,6.438l-22.352,27.492C136.114,361.091,134.4,360.786,132.677,360.486Z" transform="translate(10.368 23.837)" fill="#27709a"/>
    <path id="Path_132" data-name="Path 132" d="M437.349,249.109q-10.136-14.41-20.276-28.822c3.4-1.788,8.745-5.924,9.894-4.979,7.3,6.032,14.4,12.659,19.882,20.3,1.569,2.186-2.453,8.382-3.911,12.74Q440.139,248.729,437.349,249.109Z" transform="translate(34.995 14.577)" fill="#27709a"/>
    <path id="Path_133" data-name="Path 133" d="M96.056,398.836c-1.249-4.2-4.82-9.763-3.306-12.319a74.035,74.035,0,0,1,16.667-19.54c2.083-1.69,8.52,1.979,12.965,3.195q-9.932,14.9-19.864,29.8Z" transform="translate(7.268 27.078)" fill="#27709a"/>
    <path id="Path_134" data-name="Path 134" d="M390.64,174.057c7.363,9.044,14.7,17.79,21.508,26.94.588.791-1.99,5.539-3.863,6.172-2.569.864-6.924.651-8.676-1.025a187.665,187.665,0,0,1-17.319-19.383c-1.324-1.677-1.569-5.5-.552-7.376C382.787,177.451,385.986,176.687,390.64,174.057Z" transform="translate(32.025 11.182)" fill="#27709a"/>
    <path id="Path_135" data-name="Path 135" d="M195.77,296.756c-7.8,8.1-15.385,16.228-23.423,23.879-.678.645-5.532-1.336-6.425-3.112-1.2-2.4-1.7-6.749-.3-8.563a187.328,187.328,0,0,1,17.391-19.2c1.476-1.444,5.266-2.089,7.077-1.211C192.107,289.524,193.089,292.654,195.77,296.756Z" transform="translate(13.431 20.604)" fill="#27709a"/>
    <path id="Path_136" data-name="Path 136" d="M59.186,435.37c-.958-4.308-4.131-10.047-2.45-12.645a80.741,80.741,0,0,1,17.4-18.761c1.8-1.435,7.484,2,11.386,3.2Q75.361,421.91,65.2,436.659,62.195,436.013,59.186,435.37Z" transform="translate(4.068 30.14)" fill="#27709a"/>
    <path id="Path_137" data-name="Path 137" d="M461.223,249.6c7.844,10.482,13.8,18.429,19.753,26.379-3.024,1.992-8.13,6.214-8.752,5.631a155.771,155.771,0,0,1-18.387-20.205C453.094,260.418,457.312,255.695,461.223,249.6Z" transform="translate(38.024 17.421)" fill="#27709a"/>
  </g>
</svg>
