<svg xmlns="http://www.w3.org/2000/svg" width="28.111" height="37.481" viewBox="0 0 28.111 37.481">
  <g id="lock" opacity="0.3">
    <g id="Group_3" data-name="Group 3">
      <g id="Group_2" data-name="Group 2">
        <path id="Path_2" data-name="Path 2" d="M214.611,282.968l-.493,4.43a.781.781,0,0,0,.776.867h3.123a.781.781,0,0,0,.776-.867l-.493-4.43a3.089,3.089,0,0,0,1.278-2.512,3.123,3.123,0,1,0-6.247,0A3.089,3.089,0,0,0,214.611,282.968Zm1.845-4.074a1.556,1.556,0,0,1,.674,2.962.781.781,0,0,0-.436.789l.451,4.058h-1.379l.451-4.058a.781.781,0,0,0-.436-.789,1.556,1.556,0,0,1,.674-2.962Z" transform="translate(-202.401 -257.031)" fill="#22b97d"/>
        <path id="Path_3" data-name="Path 3" d="M91.33,14.056H88.988V10.932a10.932,10.932,0,0,0-21.864,0v3.123H64.781a.78.78,0,0,0-.781.781V34.358a3.126,3.126,0,0,0,3.123,3.123H88.988a3.127,3.127,0,0,0,3.123-3.123V14.836A.78.78,0,0,0,91.33,14.056ZM68.685,10.932a9.37,9.37,0,1,1,18.741,0v3.123H85.864V10.932a7.809,7.809,0,0,0-15.617,0v3.123H68.685Zm15.617,0v3.123H71.809V10.932a6.247,6.247,0,1,1,12.494,0Zm6.247,23.426a1.564,1.564,0,0,1-1.562,1.562H67.123a1.564,1.564,0,0,1-1.562-1.562V15.617H90.549Z" transform="translate(-64)" fill="#22b97d"/>
      </g>
    </g>
  </g>
</svg>
