<svg id="Group_96" data-name="Group 96" xmlns="http://www.w3.org/2000/svg" width="17.877" height="17.923" viewBox="0 0 17.877 17.923">
  <path id="Path_83" data-name="Path 83" d="M7.437,32.29l7.39-4.267a.375.375,0,0,0,0-.649l-7.39-4.268a.375.375,0,0,0-.562.324v1.987H.5a.375.375,0,0,0-.375.375V29.6a.375.375,0,0,0,.375.375h6.38v1.987a.375.375,0,0,0,.562.325Z" transform="translate(-0.121 -18.737)" fill="#1885be"/>
  <path id="Path_84" data-name="Path 84" d="M46.035,0H38.4a.375.375,0,0,0-.375.375V1.5a.375.375,0,0,0,.375.375h7.634a.9.9,0,0,1,.894.894V15.155a.9.9,0,0,1-.894.894H38.4a.375.375,0,0,0-.375.375v1.124a.375.375,0,0,0,.375.375h7.634A2.77,2.77,0,0,0,48.8,15.155V2.767A2.771,2.771,0,0,0,46.035,0Z" transform="translate(-30.925)" fill="#1885be"/>
</svg>
