<svg xmlns="http://www.w3.org/2000/svg" width="24" height="10.666" viewBox="0 0 24 10.666">
  <g id="long-arrow-pointing-to-the-left" transform="translate(24 147.717) rotate(180)">
    <path id="Path_4" data-name="Path 4" d="M23.861,142.025l-5.333-4.861a.446.446,0,0,0-.486-.069.4.4,0,0,0-.264.4v3.111H.444a.428.428,0,0,0-.444.444v2.667a.428.428,0,0,0,.444.444H17.778v3.111a.419.419,0,0,0,.264.4.433.433,0,0,0,.486-.083l5.333-4.917a.454.454,0,0,0,.139-.333A.439.439,0,0,0,23.861,142.025Z" transform="translate(0 0)" fill="#fff"/>
  </g>
</svg>
