<svg xmlns="http://www.w3.org/2000/svg" width="515.503" height="512" viewBox="0 0 515.503 512">
  <g id="malaria-icon" transform="translate(-848.999 -434.047)">
    <path id="Path_35" data-name="Path 35" d="M849,656.085c39.474-26.44,86.288-32.361,130.16-46.49,22.967-7.4,46.171-14.084,68.989-21.908,3.746-1.286,8.5-6.9,8.341-10.308-.161-3.58-5.044-8.65-8.946-10.055-14.629-5.261-29.737-9.167-44.593-13.813-14.234-4.45-16.144-9.22-9.255-21.965,15.828-29.282,16.46-30.285-12.232-48.337-18.256-11.484-38.721-19.458-58.207-28.987-.69-.339-1.78-.229-2.184-.732-3.508-4.335-10.214-9.26-9.646-13.062,1.244-8.311,9.3-6.945,15.162-4.546,15.463,6.328,31.514,11.881,45.743,20.393,16.254,9.723,30.829,22.264,46.066,33.666,9.655,7.228,9.349,15.728,3.905,25.68-13.759,25.168-12.227,20.152,12.793,29.141a66.368,66.368,0,0,0,17.011,3.982,19.3,19.3,0,0,0,11.671-2.876c6.943-4.8,13.135-10.694,20.61-16.965-.949-1.789-2.387-4.333-3.671-6.952-5.065-10.324-2.451-22.2,7.588-27.158,9.419-4.651,12.7-11.325,12.814-21.235.084-7.064,1.721-14.108,2.668-21.163l4.653-.295c1.927,8.713,4.288,17.356,5.635,26.158,1,6.533,2.362,11.142,9.594,14.161,12.459,5.2,16.142,17.788,9.454,30.229-3,5.572-2.586,8.332,3.145,10.792,2.8,1.2,5.268,3.262,7.749,5.114,4.822,3.6,10.076,10.932,14.21,10.326,13.329-1.953,26.288-6.629,39.212-10.815,1.44-.468,2.366-4.532,2.348-6.917-.019-2.144-1.522-4.352-2.617-6.4-13.256-24.829-13.277-24.832,7.794-43.031,23.592-20.379,50.555-34.737,79.853-45.038,6.772-2.383,13.948-4.118,17,3.884,3.283,8.622-4.5,11.655-10.742,13.546a199.239,199.239,0,0,0-70.443,37.959c-14.089,11.732-14.058,11.795-6.171,27.689,2.423,4.88,5.161,9.616,7.38,14.582,4.462,9.98,2.341,15.162-8.145,18.574-14.8,4.815-29.945,8.631-44.562,13.927-4.541,1.646-7.843,6.707-11.717,10.2,3.578,3.844,6.48,9.833,10.834,11.2,52.716,16.575,105.713,32.256,158.464,48.725a131.28,131.28,0,0,1,28.486,13.256c10.279,6.225,10.7,16.568.218,22.149-11.486,6.12-24.179,11.411-36.916,13.4-17.954,2.8-36.423,2.705-54.687,2.937-12.017.15-13.277.992-10.766,12.27,3.126,14.061,5.2,28.4,9.213,42.194,2.023,6.938,5.989,14.529,11.395,19.051,27.464,22.982,55.7,45.038,83.636,67.463,4.985,4,10.565,8.4,4.69,15.314-4.943,5.82-10.2,3.283-15.3-.823-30.02-24.193-60.468-47.874-89.954-72.7-6.26-5.268-10.988-14.059-13.172-22.1-4.576-16.867-7.144-34.293-10.23-51.543-1.768-9.884-5.879-16.28-16.268-20.346-24.368-9.541-44.26-25.781-60.528-46.345-2.837-3.58-5.727-7.116-8.526-10.591-13.287,9.043-14.262,12.932-4.05,22.947,13.041,12.791,25.731,26.576,40.851,36.444,17.009,11.105,25.079,26.122,28.1,44.607,4.567,27.988,7.261,56.292,12.325,84.175,1.871,10.31,6.887,20.672,12.721,29.525,20.316,30.841,41.85,60.883,62.271,91.658,2.727,4.109,1.712,10.7,2.43,16.137h-14.03c-.949-1.7-1.8-3.458-2.869-5.07-25.219-37.789-50.544-75.507-75.562-113.429-2.205-3.344-3-7.925-3.475-12.043-2.7-23.129-4.389-46.4-7.819-69.415-3.44-23.061-10.067-44.874-33.446-56.613-3.351-1.684-5.635-5.369-8.776-7.621-2.521-1.805-5.593-2.846-9.793-4.9.224,3.718-.014,5.306.446,6.65,10.034,29.193,11.72,58.844,2.649,88.366-6.48,21.09-12.952,42.571-22.916,62.1-11.813,23.146-27.787,22.538-40.007-.075a239.557,239.557,0,0,1-16.219-38.551c-11.54-34.875-18.043-70.187-5.231-106.4,1.125-3.18.58-6.954.811-10.453q-1.4-.7-2.792-1.4c-12.384,10.238-24.8,20.438-37.1,30.776-1.085.914-1.623,2.663-2.065,4.13-9.473,31.4-16.635,63.153-16.757,96.26-.026,7.42-1.719,15.716-5.339,22.077Q984.2,862.346,963.932,893.04c-11.942,18.094-25.128,35.368-37.765,53h-14.03c1.041-6.162.292-13.481,3.409-18.3,22.579-34.9,46.1-69.182,68.862-103.958,2.984-4.557,3.945-10.717,4.88-16.294,5.46-32.532,10.328-65.164,16.083-97.64,1.8-10.144,8.238-17.433,16.743-24.179,17.926-14.215,34.575-30.065,51.418-45.6,6.646-6.131,2.539-12.67-2.387-17-1.279-1.122-8.855,2.418-11.327,5.558a166.814,166.814,0,0,1-66.9,51.3c-4.459,1.9-9.054,7.581-10.242,12.347-4.985,20-8.142,40.454-13.2,60.431-1.667,6.587-5.771,13.759-10.93,18.066-28.091,23.443-57.037,45.854-85.268,69.133-7.4,6.1-14.72,9.751-24.284,7.927V831.463c3.442-1.307,7.476-1.859,10.235-4.034,27.754-21.855,55.459-43.779,82.743-66.214a31.286,31.286,0,0,0,9.952-15.115c3.945-14.989,6.374-30.376,9.452-45.6,1.831-9.057-.772-12.51-10.92-11.793-26.077,1.84-52.134.832-76.972-8.542-8.509-3.213-16.345-8.21-24.49-12.393Q849,661.931,849,656.085Z" transform="translate(0 0)" fill="#208fb8" fill-rule="evenodd"/>
  </g>
</svg>
