<svg id="manometer" xmlns="http://www.w3.org/2000/svg" width="108.771" height="146.604" viewBox="0 0 108.771 146.604">
  <path id="Path_73" data-name="Path 73" d="M108.771,54.385a54.386,54.386,0,1,0-63.844,53.546V113.5H42.563a2.364,2.364,0,0,0-2.365,2.365v7.094H37.833a2.364,2.364,0,0,0-2.365,2.365v9.458a2.364,2.364,0,0,0,2.365,2.365H40.2v7.094a2.364,2.364,0,0,0,2.365,2.365H66.208a2.364,2.364,0,0,0,2.365-2.365v-7.094h2.365a2.364,2.364,0,0,0,2.365-2.365v-9.458a2.364,2.364,0,0,0-2.365-2.365H68.573v-7.094a2.364,2.364,0,0,0-2.365-2.365H63.844v-5.569A54.466,54.466,0,0,0,108.771,54.385Zm-104.042,0a49.656,49.656,0,1,1,49.656,49.656A49.712,49.712,0,0,1,4.729,54.385Zm59.115,87.489H44.927v-4.729H63.844Zm4.729-9.458H40.2v-4.729H68.573Zm-23.646-9.458v-4.729H63.844v4.729ZM59.115,113.5H49.656v-4.946c1.561.134,3.136.217,4.729.217s3.168-.083,4.729-.217Zm0,0" fill="#fff"/>
  <path id="Path_74" data-name="Path 74" d="M121.854,76.927a44.927,44.927,0,1,0-44.927,44.927A44.977,44.977,0,0,0,121.854,76.927Zm-71.588,30,4.687-4.686L51.61,98.9l-4.686,4.686a40.275,40.275,0,0,1-6.261-9.429l6.58-3.292-2.116-4.23-6.261,3.131a40.187,40.187,0,0,1-2.015-10.475h6.974V74.563H36.849a39.967,39.967,0,0,1,2.019-10.473l6.262,3.131,2.116-4.23L40.666,59.7a40.228,40.228,0,0,1,6.261-9.429l4.686,4.686,3.344-3.344-4.686-4.686A40.277,40.277,0,0,1,59.7,40.664l3.292,6.58,4.23-2.116-3.131-6.261a40.024,40.024,0,0,1,10.471-2.017v6.974h4.729V36.849a39.968,39.968,0,0,1,10.473,2.019l-3.131,6.262,4.23,2.116,3.292-6.581a40.229,40.229,0,0,1,9.429,6.261L98.9,51.614l3.344,3.344,4.686-4.686A40.277,40.277,0,0,1,113.19,59.7l-6.58,3.292,2.116,4.23,6.261-3.131a39.971,39.971,0,0,1,2.019,10.473h-6.976v4.729h6.974a39.966,39.966,0,0,1-2.019,10.473l-6.262-3.131-2.116,4.23,6.581,3.292a40.227,40.227,0,0,1-6.261,9.429L102.24,98.9,98.9,102.245l4.686,4.686a39.954,39.954,0,0,1-53.316,0Zm0,0" transform="translate(-22.542 -22.542)" fill="#fff"/>
  <path id="Path_75" data-name="Path 75" d="M179.123,112.361,160.65,123.908a9.433,9.433,0,1,0,10.186,10.181l11.545-18.47a2.365,2.365,0,0,0-3.258-3.258Zm-17.664,25.651a4.729,4.729,0,1,1,4.729-4.729A4.734,4.734,0,0,1,161.459,138.012Zm7.708-10.175a9.52,9.52,0,0,0-2.262-2.262l6.036-3.774Zm0,0" transform="translate(-107.073 -78.898)" fill="#fff"/>
  <path id="Path_76" data-name="Path 76" d="M158.74,232H130.365A2.364,2.364,0,0,0,128,234.364v9.458a2.364,2.364,0,0,0,2.365,2.365H158.74a2.364,2.364,0,0,0,2.365-2.365v-9.458A2.364,2.364,0,0,0,158.74,232Zm-2.365,9.458H132.729v-4.729h23.646Zm0,0" transform="translate(-90.167 -163.427)" fill="#fff"/>
</svg>
