<svg xmlns="http://www.w3.org/2000/svg" width="512" height="373.967" viewBox="0 0 512 373.967">
  <g id="particulate-matter-_Urban-Area_copy" data-name="particulate-matter-(Urban-Area) copy" transform="translate(-149.001 -165.941)">
    <path id="Path_21" data-name="Path 21" d="M661,405.01V471c-1.739,1.909-4.105,3.532-5.125,5.766-19.6,43.02-53.287,62.856-100.184,62.678-91.368-.348-182.773-1.593-274.1.428C221.721,541.2,171.5,504.8,157.031,450.416c-1.11-4.176-5.282-7.537-8.03-11.273V402.734c2.847-4.121,6.988-7.858,8.338-12.42,9.355-31.628,28-55.629,56.095-72.966,4.365-2.694,8.183-10.174,8.185-15.442.027-61.2,41.713-115.951,101.031-131.557,60.043-15.795,125.206,11.917,154.113,66.176,5.311,9.969,9.487,11.767,19.77,5.53,23.22-14.09,56.373-9.13,77.053,9.8,20.555,18.812,28.351,50.581,17.2,74.882-4.1,8.943-2.612,12.336,6.426,15.779,26.2,9.976,45.907,27.352,57.253,53.546C655.895,399.364,658.787,402.04,661,405.01ZM354,421.756c-.18-40.737-34.138-74.8-74.575-74.8-40.739,0-75.458,34.973-75.1,75.653.353,40.569,34.466,73.981,75.38,73.833C320.59,496.3,354.18,462.529,354,421.756ZM333.506,305.212c-.014,30.365,25.154,55.758,55.535,56.034,30.966.282,56.4-25.163,56.256-56.279a56.01,56.01,0,0,0-55.958-55.442C358.842,249.664,333.52,274.92,333.506,305.212Zm154.638,40.059c-19.772.243-37.078,17.661-37.017,37.249.057,19.124,18.22,37.126,37.458,37.13,20.257,0,37.663-17.786,37.285-38.118C525.507,361.7,508.156,345.026,488.144,345.272Zm40.02-26.192a18.53,18.53,0,0,0,18.321-17.927c.086-9.7-8.306-18.252-17.947-18.28-9.728-.032-18.284,8.3-18.389,17.916C510.044,310.3,518.639,319.023,528.165,319.08Z" transform="translate(0 0)" fill="#3c9cb5" fill-rule="evenodd"/>
  </g>
</svg>
