<svg xmlns="http://www.w3.org/2000/svg" width="512" height="511.999" viewBox="0 0 512 511.999">
  <g id="mean-fasting" transform="translate(-11.697 -11.099)">
    <path id="Path_138" data-name="Path 138" d="M267.7,11.1c-141.386,0-256,114.614-256,256s114.615,256,256,256,256-114.615,256-256S409.079,11.1,267.7,11.1Zm113.533,357.72c-.237,25.9-18.948,44.134-44.9,44.448-23.155.282-46.316.058-69.47.058-22.052.016-44.1.179-66.152-.027-28.143-.262-46.392-18.087-46.589-46.119q-.455-63.394.047-126.8c.186-26.405,18.012-43.978,44.566-44.147,21.879-.142,20.965.892,19.46-20.694-2.343-33.517,26.333-60.528,60.114-53.685,19.762,4,36.974,22.844,38.257,43.1a138.026,138.026,0,0,1,.07,19.827c-.738,8.918,3.257,11.617,11.616,11.517,7.642-.095,15.7-.151,22.866,2.056,19.038,5.854,30.036,21.3,30.141,41.457C381.494,282.816,381.618,325.824,381.231,368.819Z" fill="#27709a"/>
    <g id="Group_2" data-name="Group 2" transform="translate(216.971 144.821)">
      <path id="Path_139" data-name="Path 139" d="M302.027,298.536c-7.855-15.734-15.774-31.434-23.6-47.184-6.673-13.429-13.251-26.906-20.71-42.061-9.939,19.365-19.471,36.5-27.65,54.255C221.879,281.32,213,299.2,208.207,317.987c-4.653,18.226,2.671,35.249,18.494,46.338,16.467,11.544,35.17,13.016,53.3,4.627C305.96,356.942,315.36,325.244,302.027,298.536ZM253.882,266.9q-.758,4.161-1.565,8.316-2.432,12.457-5.418,24.8c-4.8,19.65-6.2,38.943,5.27,57.1a18.421,18.421,0,0,1-4.549.812c-10.708.554-21.716-7.948-25.277-19.773-3.752-12.456-1.757-24.507,3.687-36.014,7.711-16.292,15.705-32.452,23.582-48.671h0c1.461.36,2.927.719,4.388,1.085C254,258.67,254.6,262.9,253.882,266.9Z" transform="translate(-206.825 -134.86)" fill="#27709a"/>
      <path id="Path_140" data-name="Path 140" d="M222.344,338.147c-3.751-12.456-1.757-24.51,3.684-36.014,7.711-16.3,15.709-32.452,23.582-48.671h0c-7.877,16.219-15.871,32.379-23.582,48.671-5.443,11.507-7.438,23.558-3.687,36.014,3.561,11.825,14.569,20.327,25.277,19.773C236.914,358.475,225.9,349.973,222.344,338.147Z" transform="translate(-206.825 -134.86)" fill="#27709a"/>
      <path id="Path_141" data-name="Path 141" d="M257.632,134.86c-9.856,0-19.479,8.937-19.75,18.354-.251,9.024,10.47,20.055,19.56,20.121,9.068.066,19.936-10.9,19.736-19.915C276.968,143.934,267.426,134.869,257.632,134.86Z" transform="translate(-206.825 -134.86)" fill="#27709a"/>
    </g>
  </g>
</svg>
