<svg xmlns="http://www.w3.org/2000/svg" width="377.922" height="512" viewBox="0 0 377.922 512">
  <g id="ODA-to-medical-reserach_copy" data-name="ODA-to-medical-reserach copy" transform="translate(-184.938 -113.305)">
    <path id="Path_41" data-name="Path 41" d="M403.831,420.629c-3.388-.334-7.338.3-10.031-1.239-3.7-2.124-9.349-6.386-8.94-8.867.659-3.985,5.2-7.774,8.894-10.622,1.8-1.387,5.379-.568,8.153-.57q70.914-.025,141.833,0c.346,0,.695-.015,1.041,0,8.026.307,18.018-.392,18.078,10.649.06,11.245-10,10.394-17.995,10.5-9.731.119-19.486.359-29.194-.142-7.114-.367-11.782,2.253-15.466,8.216-17.508,28.316-41.038,49.64-72.846,60.716-8.61,3-11.469,7.782-11.237,16.943.757,29.906.386,29.93,30.617,29.91,12.514-.008,25.04.188,37.539-.248,8.091-.286,14.008,2.637,18.648,9.128,14.523,20.321,29.315,40.456,43.734,60.846,7.1,10.037,2.789,18.577-9.441,19.324-4.5.273-9.036.065-13.555.065q-158.515,0-317.034-.013c-3.816,0-7.726.236-11.429-.478-9.825-1.9-13.121-9.376-7.582-17.819,13.334-20.312,27.2-40.281,40.433-60.662,5.178-7.978,11.936-10.559,21.076-10.38,21.545.424,43.112-.1,64.653.419,10.081.24,12.23-3.972,13.423-13.524,2.913-23.338-5.283-36.361-26.39-49.077-64.741-39.008-82.005-129.59-40.393-192.422,14.419-21.773,32.474-38.812,55.772-50.174,6.943-3.388,7.557-7.106,3.845-13.052-2.383-3.818-4.225-7.97-6.547-11.827-3.486-5.79-3.78-11.214,1.652-15.9,5-4.317,4.162-8.744,1.325-13.885-5.028-9.111-9.263-18.675-14.577-27.6-4.792-8.053-1.715-13.592,4.959-17.433,10.515-6.05,21.429-11.45,32.38-16.691,6.178-2.954,11.673-1.193,15.214,4.815,3.874,6.572,7.709,13.2,11.043,20.056,4.229,8.706,7.313,17.431,19.789,18.2,3.732.229,7.882,7.292,10.367,12,17.788,33.757,35.2,67.71,52.722,101.606,2.71,5.241,4.951,10.77,8.105,15.72,4.534,7.11,5.241,12.931-1.686,19.355-1.974,1.83-1.608,7.747-.4,11.1,2.218,6.146,5.679,11.886,8.959,17.6,3.622,6.313,2.533,11.84-3.43,15.282-11.377,6.568-23,12.781-34.9,18.335-6.027,2.817-11.629.5-15.022-5.6-2.529-4.546-4.83-9.217-7.352-13.768-3.344-6.036-6.121-12.149-15.186-11.792-2.95.119-7.054-4.089-8.971-7.308-6.03-10.123-10.92-20.926-17.064-30.972-1.525-2.5-7.484-5.289-9.084-4.279-19.309,12.211-37.039,26.014-42.885,49.957-10.9,44.65,21.992,86.453,68.1,86.282,5.2-.021,10.569.008,15.537-1.256,4.233-1.077,8-3.977,11.973-6.071Q404.444,422.307,403.831,420.629Zm111.875,183.08c-.816-3.24-.785-5.871-2.02-7.592-8.512-11.83-16.972-23.728-26.213-34.975-2.176-2.65-7.269-4.066-11.026-4.079q-110.039-.354-220.079.021c-4.363.017-10.3,1.813-12.781,4.938-8.393,10.578-15.664,22.065-23.1,33.377-1.348,2.049-1.465,4.911-2.4,8.308C317.843,603.709,416.259,603.709,515.707,603.709Zm-37.07-183.53c-16.572,2.205-30.682-4.678-42.964,8.028-24.5,25.338-54.754,31-87.219,19.7-34.867-12.134-56.992-37.085-61.985-74.234-5.562-41.378,14.965-70.514,47.773-92.6,13.822-9.309,13.989-9.063,6.121-23.609-5.848-10.811-8.141-11.5-18.577-5.545-58.342,33.262-79.22,99.349-49.344,159.673,37.856,76.433,144.455,88.93,200.574,19.547C474.846,428.874,475.76,425.874,478.637,420.179ZM402.41,227.859q-1.508-1.6-3.017-3.186a20.675,20.675,0,0,0-1.187-3.964c-6.032-11.293-11.8-22.756-18.539-33.613-1.2-1.93-7.125-2.733-9.827-1.592-8.911,3.768-17.181,9.015-26.008,13.008-6.357,2.877-7.223,6.407-4.039,12.247,5.47,10.031,10.517,20.29,15.816,30.412,2.508,4.792,5.681,7.863,11.6,4.559,9.069-5.066,18.241-9.95,27.439-14.773A78,78,0,0,1,402.41,227.859Zm5.644,19.417c-12.021,7.1-23.369,13.6-34.408,20.6-1.193.755-1.521,4.84-.647,6.576,5.762,11.458,11.69,22.858,18.274,33.851,1.175,1.957,6.407,3.507,8.516,2.535a245.8,245.8,0,0,0,29.269-15.773c2.074-1.327,3.24-7.252,2.1-9.875-4.544-10.471-9.962-20.586-15.516-30.577C414.138,251.9,411.027,250.074,408.054,247.276ZM371.255,498.7c-4.844,0-9.8-.645-14.519.115-16.922,2.718-6.253,16-8.5,24.212-1.544,5.643-1.629,13.211,8.187,13.121,1.732-.017,3.461-.017,5.191-.017q9.348,0,18.694,0c13.244.021,14.456-1.026,14.26-13.981C394.207,498.237,399.174,498.42,371.255,498.7ZM355.428,166.233c-4.168-7.64-7.686-13.905-11.02-20.265-2.825-5.387-5.9-7.626-12.27-4.108-6.405,3.536-5.927,7.607-3.263,12.823,2.514,4.922,4.45,10.3,7.795,14.575,1.882,2.406,6.436,4.567,9.178,3.985C349.274,172.519,352.074,168.853,355.428,166.233ZM441.362,334.72c-5.4-5.326-8.594-10.928-12.747-11.767-3.059-.618-7.371,5-11.126,7.838,3.488,4.2,6.319,9.61,10.774,12.03C430.14,343.84,435.441,338.549,441.362,334.72Z" transform="translate(0 0)" fill="#2a7c9b" fill-rule="evenodd"/>
  </g>
</svg>
