<svg xmlns="http://www.w3.org/2000/svg" width="25.098" height="25.098" viewBox="0 0 25.098 25.098">
  <g id="medical-history" transform="translate(-0.002)">
    <g id="Group_56" data-name="Group 56" transform="translate(4.708 17.778)">
      <g id="Group_55" data-name="Group 55">
        <rect id="Rectangle_17" data-name="Rectangle 17" width="2.092" height="1.046" fill="#fff"/>
      </g>
    </g>
    <g id="Group_58" data-name="Group 58" transform="translate(4.708 19.869)">
      <g id="Group_57" data-name="Group 57">
        <rect id="Rectangle_18" data-name="Rectangle 18" width="3.137" height="1.046" fill="#fff"/>
      </g>
    </g>
    <g id="Group_60" data-name="Group 60" transform="translate(0.002)">
      <g id="Group_59" data-name="Group 59" transform="translate(0)">
        <path id="Path_35" data-name="Path 35" d="M24.629,22.36l-5.8-5.8V3.66a1.569,1.569,0,0,0-1.569-1.569H6.747a2.615,2.615,0,0,0-5.124,0H1.571A1.569,1.569,0,0,0,0,3.66V23.529A1.569,1.569,0,0,0,1.571,25.1H17.257a1.569,1.569,0,0,0,1.569-1.569V21.092l3.536,3.536a1.6,1.6,0,1,0,2.268-2.268ZM4.185,1.046A1.569,1.569,0,0,1,5.664,2.091H2.706A1.569,1.569,0,0,1,4.185,1.046ZM17.78,23.529a.523.523,0,0,1-.523.523H1.571a.523.523,0,0,1-.523-.523V3.66a.523.523,0,0,1,.523-.523H5.754V8.889a.523.523,0,0,1-1.046,0V4.183H3.662V8.889a1.569,1.569,0,0,0,3.137,0V3.137H17.257a.523.523,0,0,1,.523.523V15.509L16.211,13.94V4.706a.523.523,0,0,0-.523-.523H7.845V5.229h7.32v7.78l-2.9-1.449a.519.519,0,0,0-.547.049h0L10.23,12.719,9.394,9.791a.523.523,0,0,0-.873-.226L7.106,10.98H3.139a.523.523,0,0,0-.523.523v10.98a.523.523,0,0,0,.523.523H15.688a.523.523,0,0,0,.523-.523V18.478l1.569,1.568ZM13.7,14.2l-.5-1.007,1.007.5Zm1.465,3.23v4.529H3.662V12.026h3.66a.523.523,0,0,0,.369-.152l.941-.941.8,2.805a.523.523,0,0,0,.817.275l1.589-1.192,1.249,2.5h0a.522.522,0,0,0,.1.135ZM14.3,15.084l.79-.79L21.994,21.2l-.79.79Zm9.595,8.8a.559.559,0,0,1-.79,0l-1.158-1.158.79-.79L23.891,23.1A.559.559,0,0,1,23.891,23.889Z" transform="translate(-0.002)" fill="#fff"/>
      </g>
    </g>
  </g>
</svg>
