<svg xmlns="http://www.w3.org/2000/svg" xmlns:xlink="http://www.w3.org/1999/xlink" width="16" height="16" viewBox="0 0 16 16">
  <defs>
    <clipPath id="clip-path">
      <rect width="16" height="16" fill="none"/>
    </clipPath>
  </defs>
  <g id="Merge" clip-path="url(#clip-path)">
    <rect id="Rectangle_1459" data-name="Rectangle 1459" width="16" height="16" fill="none"/>
    <path id="Union_48" data-name="Union 48" d="M-937.766-17060.707h-1.411a4.815,4.815,0,0,1-4.234-2.637l-1.694-3.295a2.783,2.783,0,0,0-2.544-1.6H-950v-1.881h2.351a4.817,4.817,0,0,1,4.238,2.637l1.694,3.293a2.773,2.773,0,0,0,2.54,1.6h1.411v-1.883l3.766,2.826-3.766,2.822Zm-12.234,0v-1.883h2.351a2.766,2.766,0,0,0,2.073-.848l.375.941a5.282,5.282,0,0,0,.472.754,4.414,4.414,0,0,1-2.919,1.035Zm12.234-7.529h-1.411a2.78,2.78,0,0,0-2.073.848l-.375-.939a5.184,5.184,0,0,0-.472-.754,4.414,4.414,0,0,1,2.919-1.035h1.411V-17072l3.766,2.82-3.766,2.828Z" transform="translate(950 17074)" fill="#1e8ce9"/>
  </g>
</svg>
