<svg xmlns="http://www.w3.org/2000/svg" width="375.249" height="512" viewBox="0 0 375.249 512">
  <g id="mmr11" transform="translate(-604.889 -142.226)">
    <path id="Path_39" data-name="Path 39" d="M807.9,616.182c-26.2-1.683-27.58-28.313-40.178-43.553-8.489-10.27-16.6-19.5-30.8-13.683-12.124,4.964-18.154,17.954-13.467,27.918,24.66,52.423-.151,66.151-56.41,60.42,37.43,32.188,71.339,33.306,104.7,34.707,22.947.962,48.2.4,49.385,31.5,1.077,28.164-22.466,38.486-44.81,41.616-55.217,7.744-105.426-7.341-144.469-49.016-25.013-26.7-33.48-60-21.795-98.578,47.08-155.428,113.725-197.573,267.728-167.01,1.207.238,2.435.358,3.62.656,34.2,8.564,94.749,102.111,98.541,152.253,3.231,42.808-35.876,98.526-81.663,115.89-17.776,6.752-36.077,10.985-51.979-3.95-23.407-21.986,5.494-38.218,6.744-57.587,7.053-5.769,9.768-15,15.9-21.561,8.885-8.511,19.385-15.442,25.619-26.45,10.9-19.22,10.479-39.143-2.836-56.261-12.175-15.659-29.643-22.016-48.883-15.9-19.1,6.074-29.124,20.391-32.1,41.259C808.494,584.642,819.06,601.135,807.9,616.182Z" transform="translate(0 -102.836)" fill="#208fb8" fill-rule="evenodd"/>
    <path id="Path_40" data-name="Path 40" d="M852.647,308.327c-43.168-.186-79.618-37.733-79.877-82.271-.259-44.255,36.1-82.9,78.857-83.814,44-.938,82.454,38.941,81.664,84.686C932.514,271.659,895.991,308.522,852.647,308.327Z" transform="translate(-59.795)" fill="#208fb8" fill-rule="evenodd"/>
    <path id="Path_42" data-name="Path 42" d="M943.128,740.881l44.794,2.952c-.416,9.48,4.243,24.385-14.328,14.406C963.113,753.082,944.226,763.8,943.128,740.881Z" transform="translate(-120.542 -213.364)" fill="#208fb8" fill-rule="evenodd"/>
  </g>
</svg>
