<svg xmlns="http://www.w3.org/2000/svg" width="486.07" height="512" viewBox="0 0 486.07 512">
  <g id="nmr-icon" transform="translate(-838.703 -472)">
    <g id="Group_1" data-name="Group 1" transform="translate(838.703 531.179)">
      <path id="Path_43" data-name="Path 43" d="M1170.285,654.078c-19.909-11.026-39.73-22.235-59.678-33.167-6.254-3.426-8.6-8.208-8.147-15.78,1.065-17.705,2.02-35.46,1.928-53.191-.213-40.4-33.851-62.325-68.409-45.155-38.215,18.981-76.363,38.121-114.8,56.58-21.032,10.1-33.909,26.022-39.995,50.036-11.074,43.7-23.65,86.975-35.912,130.327-.86,3.04-4.316,5.248-6.565,7.846v15.244c19.631-.007,39.263-.233,58.89.055,13.879.2,19.7,6.666,19.872,21.4.5,43.045,1.411,86.093,1.041,129.129-.1,11.337,3.116,20.654,7.989,29.463a123.3,123.3,0,0,0,32.438-.941c6.742-7.774,7.969-17.807,7.981-28.574.057-45.33.516-90.661.385-135.989-.029-10.148,2.878-14.576,13-13.924,15.624,1.008,31.313.828,46.972,1.344,13.708.451,16.884-3.469,13.485-17.237-.606-2.45-1.391-4.854-2.139-7.263q-16.482-53.082-32.968-106.167c-2.673-8.635-1.559-15.418,7.405-19.5,12.186-5.547,24.064-11.864,36.115-17.753,15-7.33,17.209-5.825,16.261,11.468-.8,14.61,3.446,26.335,15.812,33.96,10.3,6.35,20.448,12.977,30.8,19.214,13.9,8.378,27.7,17.019,42,24.558,10.607,5.59,21.286,1.146,26.085-9.288C1184.256,671.839,1179.5,659.187,1170.285,654.078Z" transform="translate(-838.703 -500.889)" fill="#208fb8" fill-rule="evenodd"/>
      <path id="Path_44" data-name="Path 44" d="M891.37,707.612c-12.063-1.211-19.168-3.779-19.168-3.779l1.573,10.584H895.76C894.188,712.166,892.718,709.907,891.37,707.612Z" transform="translate(-803.58 -261.596)" fill="#208fb8" fill-rule="evenodd"/>
      <path id="Path_45" data-name="Path 45" d="M1183.761,669.879q-101.892.848-203.787,1.7c-5.8.047-11.609.295-17.408.188-9.974-.184-13.532-4.038-13.37-13.856.15-8.987,5.185-11.283,13.391-11.242q110.587.544,221.175.676Z" transform="translate(-697.692 -328.308)" fill="#208fb8" fill-rule="evenodd"/>
      <path id="Path_46" data-name="Path 46" d="M1030.735,709.2c-12.951,0-25.967.8-38.845-.168-26.032-1.962-37.411-24.7-23.828-47.05,5.3-8.72,11.461-16.918,17.334-25.284,6.434-9.171,5.4-12.76-4.828-17.746-7.321-3.566-15.306-6.52-21.358-11.668-4.027-3.429-7.016-10.179-7.215-15.562-.4-10.949,10.189-17.017,19.928-11.9,16.859,8.854,33.628,17.937,49.964,27.712,12.811,7.667,14.051,14.538,7,28.058-5.432,10.419-3.048,14.219,8.563,13.973,7.838-.164,15.691-.244,23.525-.008,6.481.2,9.411-2.444,9.2-9.052-.2-6.463-1.133-13.307.608-19.3,1.424-4.9,5.537-10.9,9.89-12.485,3.626-1.319,10.675,1.856,13.751,5.26a25.965,25.965,0,0,1,6.07,15.554c.436,15.984-.139,32.02-.916,48.006-1.02,21.1-10.826,30.983-32.02,32.057-12.244.621-24.545.113-36.822.113C1030.735,709.543,1030.735,709.373,1030.735,709.2Z" transform="translate(-701.225 -405.835)" fill="#208fb8" fill-rule="evenodd"/>
    </g>
    <ellipse id="Ellipse_1" data-name="Ellipse 1" cx="46.433" cy="46.433" rx="46.433" ry="46.433" transform="translate(1125.401 472)" fill="#208fb8"/>
    <ellipse id="Ellipse_2" data-name="Ellipse 2" cx="33.431" cy="33.431" rx="33.431" ry="33.431" transform="translate(1253.117 774.936)" fill="#208fb8"/>
  </g>
</svg>
