<svg id="obesity" xmlns="http://www.w3.org/2000/svg" width="150.606" height="180.798" viewBox="0 0 150.606 180.798">
  <path id="Path_233" data-name="Path 233" d="M174.437,42.374a21.187,21.187,0,1,1,21.187-21.187A21.211,21.211,0,0,1,174.437,42.374Zm0,0" transform="translate(-99.134)" fill="#fff"/>
  <path id="Path_234" data-name="Path 234" d="M139.967,108.023l-35.4-12.886a31.781,31.781,0,0,1-58.517,0l-35.4,12.886A16.11,16.11,0,0,0,.79,128.047,15.892,15.892,0,0,0,21.3,137.962l9.954-3.622a43.921,43.921,0,0,0,10.5,25.807v67.371a14.821,14.821,0,0,0,29.459,2.324L75.3,204.091l4.088,25.75a14.82,14.82,0,0,0,29.458-2.323V160.147a43.917,43.917,0,0,0,10.5-25.808l9.954,3.624a15.891,15.891,0,0,0,20.513-9.916,16.111,16.111,0,0,0-9.85-20.023Zm0,0" transform="translate(0 -61.542)" fill="#fff"/>
</svg>
