<svg id="outcomes" xmlns="http://www.w3.org/2000/svg" width="25" height="25" viewBox="0 0 25 25">
  <g id="Group_47" data-name="Group 47">
    <path id="Path_31" data-name="Path 31" d="M21.339,3.661a12.5,12.5,0,1,0-14.855,19.8,6.175,6.175,0,0,0-.143.7A.732.732,0,0,0,7.065,25h10.87a.732.732,0,0,0,.725-.836,6.176,6.176,0,0,0-.143-.7,12.5,12.5,0,0,0,2.822-19.8ZM7.989,23.535a4.759,4.759,0,0,1,9.021,0ZM6.172,12.5A6.328,6.328,0,1,1,12.5,18.828,6.335,6.335,0,0,1,6.172,12.5Zm11.8,9.586a6.228,6.228,0,0,0-2.377-2.434,7.793,7.793,0,1,0-6.188,0,6.228,6.228,0,0,0-2.377,2.434A11.036,11.036,0,1,1,23.535,12.5,10.956,10.956,0,0,1,17.971,22.086Z" transform="translate(0 0)" fill="#fff"/>
  </g>
</svg>
