<svg xmlns="http://www.w3.org/2000/svg" width="124.621" height="135.95" viewBox="0 0 124.621 135.95">
  <g id="outline" opacity="0.9">
    <path id="Path_1" data-name="Path 1" d="M39.6,23.158a13.6,13.6,0,1,0,13.6,13.6,13.6,13.6,0,0,0-13.6-13.6Zm0,22.658a9.063,9.063,0,1,1,9.063-9.063A9.063,9.063,0,0,1,39.6,45.816Z" transform="translate(21.583 24.783)" fill="#334bac"/>
    <path id="Path_2" data-name="Path 2" d="M9,29.6A13.6,13.6,0,1,0,22.6,16,13.6,13.6,0,0,0,9,29.6Zm22.658,0A9.063,9.063,0,1,1,22.6,20.532,9.063,9.063,0,0,1,31.658,29.6Z" transform="translate(0.063 15.722)" fill="#334bac"/>
    <path id="Path_3" data-name="Path 3" d="M44,29.6A13.6,13.6,0,1,0,57.6,16,13.6,13.6,0,0,0,44,29.6Zm13.6-9.063A9.063,9.063,0,1,1,48.532,29.6,9.063,9.063,0,0,1,57.6,20.532Z" transform="translate(44.368 15.722)" fill="#334bac"/>
    <path id="Path_4" data-name="Path 4" d="M5,39.063V68.519a2.266,2.266,0,0,0,2.266,2.266H13.9l-2.1,29.3a2.266,2.266,0,0,0,2.266,2.427h9.063a2.266,2.266,0,0,0,2.266-2.091l2.1-27.365h.335l2.1,27.365a2.266,2.266,0,0,0,2.266,2.091h9.063a2.266,2.266,0,0,0,2.266-2.393L41.254,59.456V50.787l11.273,9.662-2.209,39.666a2.266,2.266,0,0,0,2.266,2.393h9.063a2.266,2.266,0,0,0,2.266-2.062l2.069-22.862h.394l2.069,22.862a2.266,2.266,0,0,0,2.266,2.062h9.063a2.266,2.266,0,0,0,2.266-2.393l-2.2-39.573,12.412-9.308L86.616,79.4a2.266,2.266,0,0,0,2.221,2.719h3.27l-1,18a2.266,2.266,0,0,0,2.266,2.393h9.063a2.266,2.266,0,0,0,2.266-2.091l1.4-18.3h1.731l1.4,18.3a2.266,2.266,0,0,0,2.266,2.091h9.063a2.266,2.266,0,0,0,2.266-2.427l-1.287-17.966h5.819a2.266,2.266,0,0,0,2.225-2.69l-8.01-42.058a9.063,9.063,0,0,0-8.9-7.366H98.543a11.243,11.243,0,0,0-6.594,2.119,2.128,2.128,0,0,0-.2.156L76.637,45.87H57.985l-15.115-13.6a2.128,2.128,0,0,0-.2-.156A11.244,11.244,0,0,0,36.078,30H14.063A9.063,9.063,0,0,0,5,39.063Zm34.939-3.329L55.6,49.813a2.266,2.266,0,0,0,1.516.58H77.507a2.266,2.266,0,0,0,1.516-.58L94.682,35.735a6.764,6.764,0,0,1,3.852-1.2H112.66a4.532,4.532,0,0,1,4.45,3.682l7.509,39.369H119.1a2.266,2.266,0,0,0-2.266,2.427l1.289,17.966h-4.532l-1.407-18.3a2.266,2.266,0,0,0-2.266-2.091H104a2.266,2.266,0,0,0-2.266,2.091l-1.4,18.3h-4.57l1-18A2.266,2.266,0,0,0,94.5,77.583H91.6l6.254-31.269a2.266,2.266,0,0,0-3.58-2.266l-18.127,13.6a2.266,2.266,0,0,0-.906,1.94l2.137,38.392h-4.6L70.71,75.113a2.266,2.266,0,0,0-2.266-2.062H63.912a2.266,2.266,0,0,0-2.266,2.062L59.578,97.975h-4.6l2.137-38.392a2.266,2.266,0,0,0-.789-1.847l-15.861-13.6a2.266,2.266,0,0,0-3.743,1.72V59.583l2.137,38.392h-4.57l-2.1-27.365a2.266,2.266,0,0,0-2.266-2.091H25.393a2.266,2.266,0,0,0-2.266,2.091l-2.1,27.365H16.5l2.1-29.3c0-.054-.02-.107-.02-.161h.02V45.861H14.063V66.253H9.532V39.063a4.532,4.532,0,0,1,4.532-4.532H36.078A6.764,6.764,0,0,1,39.939,35.735Z" transform="translate(-5 33.443)" fill="#334bac"/>
    <path id="Path_5" data-name="Path 5" d="M58.6,2H45.908A30.53,30.53,0,0,0,16.045,26.471a2.266,2.266,0,0,0,3.637,2.214,15.779,15.779,0,0,1,19.826,0,2.266,2.266,0,0,0,2.832,0,15.861,15.861,0,0,1,7.647-3.3v19.67h4.532V25.381a15.861,15.861,0,0,1,7.647,3.313,2.266,2.266,0,0,0,2.832,0,15.779,15.779,0,0,1,19.826,0A2.266,2.266,0,0,0,88.45,26.48,30.53,30.53,0,0,0,58.6,2Zm4.985,22.117a20.257,20.257,0,0,0-22.658,0,20.241,20.241,0,0,0-18.766-2.039A26.01,26.01,0,0,1,45.908,6.532H58.6A26.01,26.01,0,0,1,82.343,22.071a20.248,20.248,0,0,0-18.761,2.046Z" transform="translate(8.925 -2)" fill="#334bac"/>
  </g>
</svg>
