<svg xmlns="http://www.w3.org/2000/svg" width="358.7" height="512" viewBox="0 0 358.7 512">
  <g id="overweight-children" transform="translate(-162.72 -177)">
    <g id="Group_1" data-name="Group 1" transform="translate(162.72 285.68)">
      <path id="Path_17" data-name="Path 17" d="M222.8,420.888c-7.505,7.007-13.577,16.18-22.038,19.879-19.965,8.724-38.512-5.071-38.032-26.753,1.028-46.352,6.851-91.836,31.871-132.129,22.718-36.584,54.087-60.478,99.569-58.6,10.2.423,20.233,4.359,30.428,6.173,18.938,3.37,37.118.416,55.679-4.68,25.251-6.932,48.526,1.466,69.654,15.378,35.82,23.585,53.959,59.123,62.383,99.563,5.136,24.658,6.728,50.116,8.955,75.3,1.3,14.685-5.775,23.1-20.057,27.13a28.45,28.45,0,0,1-32.329-12.327c-1.788-2.935-3.667-5.818-7.1-11.251-2.369,5.419-4.174,8.277-4.892,11.384q-19.747,85.205-39.18,170.483c-3.322,14.67-13.027,21.984-26.778,24.006-15.273,2.247-30.146.638-39.943-13.37-2.482-3.552-2.861-9.123-2.876-13.772-.142-41.044.017-82.09.087-123.134,0-2.414.806-5.2-.133-7.159-1.517-3.167-4.171-5.786-6.347-8.635a105.566,105.566,0,0,0-6.173,9.06c-.673,1.225-.065,3.155-.06,4.764.13,41.848.13,83.7.468,125.545.1,12.044-5.069,19.819-16.173,24.059-12.641,4.827-25.767,5.767-37.229-1.249-6.461-3.953-13.1-11.466-14.9-18.579-14.166-56.146-27.147-112.595-40.628-168.915C225.873,428.185,223.745,423.548,222.8,420.888Z" transform="translate(-162.72 -222.299)" fill="#3c9cb5" fill-rule="evenodd"/>
    </g>
    <ellipse id="Ellipse_1" data-name="Ellipse 1" cx="71.975" cy="55.934" rx="71.975" ry="55.934" transform="translate(272.362 177)" fill="#3c9cb5"/>
  </g>
</svg>
