<svg id="Page-1" xmlns="http://www.w3.org/2000/svg" width="187.684" height="187.684" viewBox="0 0 187.684 187.684">
  <g id="_028---Due-Date" data-name="028---Due-Date">
    <path id="Shape" d="M162.66,18.953V12.512a12.512,12.512,0,1,0-25.025,0v6.256H125.123V12.512a12.512,12.512,0,1,0-25.025,0v6.256H87.586V12.512a12.512,12.512,0,0,0-25.025,0v6.256H50.049V12.512a12.512,12.512,0,1,0-25.025,0v6.441A28.184,28.184,0,0,0,0,46.921v112.61a28.184,28.184,0,0,0,28.153,28.153H159.531a28.184,28.184,0,0,0,28.153-28.153V46.921A28.184,28.184,0,0,0,162.66,18.953Zm-18.768-6.441a6.256,6.256,0,1,1,12.512,0V31.281a6.256,6.256,0,1,1-12.512,0Zm-37.537,0a6.256,6.256,0,0,1,12.512,0V31.281a6.256,6.256,0,0,1-12.512,0Zm-37.537,0a6.256,6.256,0,1,1,12.512,0V31.281a6.256,6.256,0,1,1-12.512,0Zm-37.537,0a6.256,6.256,0,0,1,12.512,0V31.281a6.256,6.256,0,0,1-12.512,0ZM159.531,181.428H28.153a21.921,21.921,0,0,1-21.9-21.9V56.305H181.428V159.531A21.922,21.922,0,0,1,159.531,181.428Zm21.9-131.379H6.256V46.921A21.915,21.915,0,0,1,25.025,25.275v6.006a12.512,12.512,0,1,0,25.025,0V25.025H62.561v6.256a12.512,12.512,0,0,0,25.025,0V25.025H100.1v6.256a12.512,12.512,0,1,0,25.025,0V25.025h12.512v6.256a12.512,12.512,0,1,0,25.025,0V25.275a21.915,21.915,0,0,1,18.768,21.646Z" fill="#fff"/>
    <path id="Shape-2" data-name="Shape" d="M68.305,20A56.305,56.305,0,1,0,124.61,76.305,56.305,56.305,0,0,0,68.305,20Zm0,106.354A49.971,49.971,0,0,1,30.646,43.46c3.05,2.24,3.25,7.007,3.25,14.076A24.305,24.305,0,0,0,44.172,76.521a39.629,39.629,0,0,0-4.02-.216,8.189,8.189,0,0,0-8.471,4.639c-2.036,4.927,1.674,11.755,6.256,16.341a25,25,0,0,1,3.7,5.868c3.713,7.151,8.793,16.945,26.67,16.945,22.969,0,37.537-19.8,37.537-28.153a30.849,30.849,0,0,0-1.67-9.409A18.768,18.768,0,1,0,73,77.556a19.316,19.316,0,0,1-7.82-13.764,7.792,7.792,0,0,0-5.064-7.454,12.65,12.65,0,0,0-12.788,2.115,15.64,15.64,0,0,0-3.05,9.569,16.1,16.1,0,0,1-4.123-10.485c0-6.472,0-14.23-5.046-18.581a50.018,50.018,0,1,1,33.2,87.4Zm9.384-56.305A12.512,12.512,0,1,1,90.2,82.561,12.512,12.512,0,0,1,77.689,70.049ZM90.2,88.818a18.656,18.656,0,0,0,8.662-2.133,22.052,22.052,0,0,1,.723,5.261c0,4.692-11.389,21.9-31.281,21.9-14.076,0-17.655-6.882-21.118-13.57a29.022,29.022,0,0,0-4.823-7.41c-4.026-4.029-5.455-8.186-4.9-9.522.238-.576,1.545-.779,2.69-.779a25.7,25.7,0,0,1,6.991.816,37.972,37.972,0,0,0,16.469,17.539,3.127,3.127,0,0,0,3.1-5.43A30.161,30.161,0,0,1,50.907,74.7a18.978,18.978,0,0,1,.829-11.821,6.6,6.6,0,0,1,5.968-.757,1.592,1.592,0,0,1,1.217,1.674C58.921,71.957,66.566,88.818,90.2,88.818Z" transform="translate(25.537 42.561)" fill="#fff"/>
  </g>
</svg>
