<svg id="Group_94" data-name="Group 94" xmlns="http://www.w3.org/2000/svg" width="18.921" height="21.624" viewBox="0 0 18.921 21.624">
  <circle id="Ellipse_6" data-name="Ellipse 6" cx="0.845" cy="0.845" r="0.845" transform="translate(13.43 13.768)" fill="#fff"/>
  <path id="Path_82" data-name="Path 82" d="M50.076,15.289a.845.845,0,0,0,.845-.845V11.319A3.383,3.383,0,0,0,47.542,7.94H46.527V4.961a5.069,5.069,0,0,0-10.136,0V7.94H35.379A3.383,3.383,0,0,0,32,11.319v6.926a3.383,3.383,0,0,0,3.379,3.379H47.542a3.383,3.383,0,0,0,3.379-3.379.845.845,0,1,0-1.689,0,1.691,1.691,0,0,1-1.689,1.689H35.379a1.691,1.691,0,0,1-1.689-1.689V11.319a1.691,1.691,0,0,1,1.689-1.689H47.542a1.691,1.691,0,0,1,1.689,1.689v3.125A.845.845,0,0,0,50.076,15.289ZM44.838,7.94H38.08V4.961a3.38,3.38,0,0,1,6.757,0Z" transform="translate(-32)" fill="#fff"/>
  <circle id="Ellipse_7" data-name="Ellipse 7" cx="0.845" cy="0.845" r="0.845" transform="translate(7.053 13.768)" fill="#fff"/>
  <circle id="Ellipse_8" data-name="Ellipse 8" cx="0.845" cy="0.845" r="0.845" transform="translate(3.886 13.768)" fill="#fff"/>
  <circle id="Ellipse_9" data-name="Ellipse 9" cx="0.845" cy="0.845" r="0.845" transform="translate(10.221 13.768)" fill="#fff"/>
</svg>
