<svg id="patient" xmlns="http://www.w3.org/2000/svg" width="184.594" height="184.593" viewBox="0 0 184.594 184.593">
  <path id="Path_25" data-name="Path 25" d="M235.909,32h-5.955v5.955H224v5.955h5.955v5.955h5.955V43.909h5.955V37.955h-5.955Zm0,0" transform="translate(-140.635 -20.091)" fill="#334bac"/>
  <path id="Path_26" data-name="Path 26" d="M101.229,59.546V47.637h5.955a5.961,5.961,0,0,0,5.955-5.955V38.705h16.271l8.337,12.5L149.1,20l6.74,15.733h28.758V29.773H159.76L148.639,3.823,136.17,38.112,132.6,32.75H113.138V5.955A5.961,5.961,0,0,0,107.183,0H77.41a5.961,5.961,0,0,0-5.955,5.955V20.841H45.674L38.932,36.574,27.585,5.361l-8.337,12.5H0v5.955H22.434l3.572-5.362L38.475,52.745,49.6,26.8H71.456V41.682a5.961,5.961,0,0,0,5.955,5.955h5.955V59.546h5.955V77.41H74.433a32.883,32.883,0,0,0-14.645,3.457L57.722,81.9A14.858,14.858,0,0,0,43.588,71.455H32.75a14.737,14.737,0,0,0-8.932,3.054V62.523a8.932,8.932,0,1,0-17.864,0v44.66A5.961,5.961,0,0,0,0,113.138v5.955a5.961,5.961,0,0,0,5.955,5.955h8.932v32.784a14.874,14.874,0,1,0,17.864-.019V125.047H151.843v32.765a14.887,14.887,0,1,0,17.864,0V125.047h8.932a5.961,5.961,0,0,0,5.955-5.955v-5.955a5.961,5.961,0,0,0-5.955-5.955h-.151a32.782,32.782,0,0,0-32.6-29.773H95.274V59.546ZM32.75,77.41H43.588a8.932,8.932,0,0,1,0,17.864H32.75a8.932,8.932,0,1,1,0-17.864ZM44.66,101.229a8.92,8.92,0,0,1,8.384,5.955H24.367a8.92,8.92,0,0,1,8.384-5.955ZM23.818,98.174c.033.026.06.054.092.077-.032.023-.058.051-.092.077ZM11.909,62.524a2.977,2.977,0,1,1,5.955,0v44.66H11.909ZM23.818,178.639a8.944,8.944,0,0,1-8.932-8.932,8.807,8.807,0,0,1,.563-2.935,8.881,8.881,0,0,0,16.739,0,8.81,8.81,0,0,1,.563,2.932,8.944,8.944,0,0,1-8.932,8.932ZM26.8,163.752a2.977,2.977,0,0,1-5.955,0V125.047H26.8Zm133.979,14.887a8.944,8.944,0,0,1-8.932-8.932,8.811,8.811,0,0,1,.563-2.932,8.881,8.881,0,0,0,16.739,0,8.811,8.811,0,0,1,.563,2.932,8.944,8.944,0,0,1-8.932,8.932Zm2.977-14.887a2.977,2.977,0,0,1-5.955,0V125.047h5.955Zm8.756-56.569H160.775v5.955h17.864v5.955H5.955v-5.955H154.82v-5.955H59.245a14.925,14.925,0,0,0-6.285-9.372,14.79,14.79,0,0,0,5.318-9.531l4.174-2.086a26.915,26.915,0,0,1,11.981-2.829h71.456a26.824,26.824,0,0,1,26.62,23.819ZM77.41,5.955h29.773l0,35.728H77.41ZM95.274,47.637v5.955H89.32V47.637Zm0,0" transform="translate(0 0)" fill="#334bac"/>
</svg>
