<svg xmlns="http://www.w3.org/2000/svg" width="15.273" height="15.273" viewBox="0 0 15.273 15.273">
  <g id="pencil" transform="translate(0.001)">
    <g id="Pencil-2" data-name="Pencil" transform="translate(-0.001)">
      <g id="Group_82" data-name="Group 82">
        <path id="Path_39" data-name="Path 39" d="M14.449.822a2.8,2.8,0,0,0-3.966,0L2.049,9.207a.473.473,0,0,0-.112.175L.028,14.632a.477.477,0,0,0,.449.64.471.471,0,0,0,.14-.021l4.748-1.457a.477.477,0,0,0,.2-.118L14.45,4.789a2.8,2.8,0,0,0,0-3.968ZM4.816,12.965l-1.777.546a2.039,2.039,0,0,0-.485-.793,2.579,2.579,0,0,0-.647-.459l.813-2.236h1.1v.955a.477.477,0,0,0,.477.477h.842Zm7.025-6.918L6.026,11.862l.167-.786a.478.478,0,0,0-.467-.577H4.772V9.545a.477.477,0,0,0-.477-.477H3.542L9.218,3.424l.006.005a1.851,1.851,0,1,1,2.618,2.618Zm1.933-1.933-.445.445a2.792,2.792,0,0,0-2.62-2.618l.448-.444h0a1.851,1.851,0,1,1,2.616,2.618Zm-3.135-.157L5.867,8.731a.477.477,0,1,0,.675.675l4.773-4.773a.477.477,0,0,0-.675-.675Z" transform="translate(0.001)" fill="#1885be"/>
      </g>
    </g>
  </g>
</svg>
