<svg xmlns="http://www.w3.org/2000/svg" width="473.385" height="512" viewBox="0 0 473.385 512">
  <g id="DPT3-penta3" transform="translate(-175.191 -147.494)">
    <path id="Path_6" data-name="Path 6" d="M241,579.052c-2.258-2.879-4.073-5.724-6.4-8.067-12.189-12.292-24.325-24.649-36.859-36.59-5.929-5.643-5.557-9.511.249-15.3q126.19-125.751,251.827-252.06c7.615-7.668,12.507-7.95,18.758.447,2.455,3.3,5.811,5.922,8.717,8.888,9.448,9.644,9.363,9.574,19.284-.434,14.866-15,29.5-30.269,44.954-44.648,7.143-6.641,6.27-10.977-.418-16.674-5.517-4.7-10.1-10.5-15.635-15.183-5.44-4.6-4.786-8.491-.148-12.864,2.266-2.135,4.374-4.433,6.594-6.616,4.239-4.163,8.1-4.12,12.473.276q40.261,40.521,80.813,80.756c5.23,5.188,4.289,8.788-.834,13.645-12.064,11.44-11.816,11.7-23.1.245-18.841-19.128-18.839-19.124-37.855-.116C551.179,287,539.1,299.411,526.59,311.375c-5.38,5.146-6.4,9.162-.2,14.323,4.771,3.972,8.588,9.1,13.407,13,6.58,5.325,5.906,9.49.152,15.19q-60.505,59.96-120.6,120.337c-43.836,43.819-87.84,87.476-131.318,131.648-7.453,7.576-12.5,8.262-18.793-.231-5.293-7.138-10.519-7.466-16.6-.243-5.553,6.6-12.27,12.207-18.151,18.553-4.106,4.429-7.542,4.847-12.311.727-13.126-11.347-13.295-12.236-.769-24.674,4.915-4.88,9.883-9.707,14.712-14.672A75.416,75.416,0,0,0,241,579.052Zm39.131,5.354c2.5-1.777,4.894-3.1,6.808-4.916,4.513-4.288,8.777-8.834,13.18-13.238Q351.5,514.888,402.922,463.558c4.176-4.161,8.068-7.836,2.131-13.71-16.725-16.543-33.067-33.478-50.112-49.676-1.931-1.831-8.973-1.534-11,.463-39.682,39.086-78.907,78.638-118.424,117.895-4.892,4.855-4.626,8.1.127,12.731,16.338,15.95,32.35,32.233,48.536,48.342C275.821,581.233,277.79,582.536,280.128,584.406Z" transform="translate(19.872 31.958)" fill="#2a7c9b" fill-rule="evenodd"/>
    <path id="Path_7" data-name="Path 7" d="M260.39,249.451c-.094,13.828-3.843,25.93-13.3,36.393-9.056,10.018-7.945,16.592,3,24.811,14.607,10.966,21.83,25.143,21.573,43.818-.534,39.265.086,78.545-.536,117.811a28.148,28.148,0,0,1-6.943,17.248c-16.375,17.5-33.948,33.875-50.538,51.183-7.4,7.726-15.695,8.958-24.613,5.288-8.595-3.538-13.6-10.523-13.609-20.362-.077-58.734-.363-117.47-.15-176.2.061-16.832,8.534-29.639,22.149-39.276,9.192-6.5,11.394-13.983,4.146-21.725-18.1-19.339-17.246-41.608-11.327-64.517,5.29-20.473,11.35-40.825,18.607-60.667,2.169-5.931,8.864-12.365,14.73-13.945,3.336-.9,11.544,6.674,13.523,11.949C247.814,189.821,257.06,218.916,260.39,249.451Z" transform="translate(0 1.89)" fill="#2a7c9b" fill-rule="evenodd"/>
    <path id="Path_8" data-name="Path 8" d="M233.928,455.995c0-18.475,0-33.646,0-48.822,0-18.083-.173-36.169.031-54.252.2-18.166,7.083-32.946,22.584-43.319,9.588-6.413,11-15.3,3.154-23.656-12.45-13.267-17.383-29.376-13.54-46.2,6.092-26.663,14.807-52.732,22.544-79.013a20.223,20.223,0,0,1,3.541-6.317c7.012-9.108,15.229-9.54,20.665.6,5.833,10.88,9.624,22.947,13.494,34.764,3.883,11.87,6.908,24.028,10.054,36.128,5.7,21.9,5.263,42.547-11.388,60.486-7.492,8.073-5.108,15.561,2.91,23.151,7.595,7.185,14.786,15.567,19.586,24.765,7.457,14.294,4.945,27.013-7.9,39.046-25.869,24.237-50.271,50.037-75.377,75.1C241.99,450.744,239,452.341,233.928,455.995Z" transform="translate(63.216 0)" fill="#2a7c9b" fill-rule="evenodd"/>
  </g>
</svg>
