<svg xmlns="http://www.w3.org/2000/svg" width="83.797" height="82.666" viewBox="0 0 83.797 82.666">
  <g id="group1" transform="translate(-579.7 -241.866)">
    <path id="Path_137" data-name="Path 137" d="M621.4,606.463c1.508,0,3.021.086,4.522-.019a51.518,51.518,0,0,0,7.891-1.21,44.043,44.043,0,0,0,7.939-2.576,28.477,28.477,0,0,0,6.587-3.819,33.945,33.945,0,0,0,3.3-2.964,14.518,14.518,0,0,0,3.995-7.5,12.249,12.249,0,0,0-1.3-8.3c-.547-.972-1.2-1.886-1.826-2.81a1.6,1.6,0,0,1-.042-2.028,1.619,1.619,0,0,1,1.833-.266A16.25,16.25,0,0,1,656,576.394a26.454,26.454,0,0,1,4.188,4.787,19.964,19.964,0,0,1,3.063,7.478,18.231,18.231,0,0,1,.183,4.625,16.968,16.968,0,0,1-1.439,5.385,23.842,23.842,0,0,1-6.065,8.161,35.269,35.269,0,0,1-6.2,4.452,46.8,46.8,0,0,1-8.742,3.864,48.7,48.7,0,0,1-7.886,1.947c-1.506.233-3.011.476-4.519.7-.5.073-1.006.1-1.511.125-.877.048-1.756.084-2.634.121-.976.042-1.954.13-2.929.107-1.717-.039-3.438-.092-5.149-.238a63.055,63.055,0,0,1-10.041-1.647,58.372,58.372,0,0,1-8.254-2.738,41.642,41.642,0,0,1-7.27-3.91,39.95,39.95,0,0,1-3.846-3.1,22.209,22.209,0,0,1-4.351-5.162,19.077,19.077,0,0,1-2.646-6.729A18.805,18.805,0,0,1,579.76,590a17.579,17.579,0,0,1,1.444-5.5,24.5,24.5,0,0,1,6.187-8.292c.452-.424.942-.809,1.43-1.191a1.681,1.681,0,0,1,1.8.126,1.306,1.306,0,0,1,.289,1.644c-.524.853-1.129,1.655-1.654,2.507a12.693,12.693,0,0,0-1.865,5.411,13.438,13.438,0,0,0,3.063,9.859,26.837,26.837,0,0,0,10.847,8.056,41.181,41.181,0,0,0,7.242,2.471,50.617,50.617,0,0,0,5.45,1c2.453.3,4.924.442,7.388.652Z" transform="translate(0 -293.614)" fill="#fff" fill-rule="evenodd"/>
    <path id="Path_138" data-name="Path 138" d="M678.793,374.447a3.182,3.182,0,0,1-3.061,2.5,3.14,3.14,0,0,1-3.342-3c-.031-5.687-.012-11.375-.012-17.062,0-1.456.012-2.913-.014-4.369a.821.821,0,0,0-.3-.593,5.448,5.448,0,0,1-2.637-4.573c-.073-1.5-.182-3-.228-4.5-.065-2.137-.151-4.276-.1-6.411a25.317,25.317,0,0,1,.472-4.088,3.474,3.474,0,0,1,1.729-2.617,4.956,4.956,0,0,1,1.709-.449c.95-.1,1.911-.09,2.867-.137.544-.027,1.088-.121,1.63-.107,2.169.058,4.338.141,6.507.227a8.814,8.814,0,0,1,1.506.145,2.988,2.988,0,0,1,2.305,2.146,13.252,13.252,0,0,1,.593,3.167c.118,2.33.123,4.667.134,7,.006,1.232-.011,2.47-.126,3.695a11.961,11.961,0,0,1-.785,4.247,4.761,4.761,0,0,1-1.824,2.035.815.815,0,0,0-.455.978,2.009,2.009,0,0,1,.009.471c0,6.671.016,13.343-.023,20.014a4.926,4.926,0,0,1-.533,2.145,2.893,2.893,0,0,1-2.806,1.636,3.07,3.07,0,0,1-2.922-1.927C679.007,374.833,678.9,374.655,678.793,374.447Z" transform="translate(-78.827 -76.883)" fill="#fff" fill-rule="evenodd"/>
    <path id="Path_139" data-name="Path 139" d="M1044.818,374.366a3.281,3.281,0,0,1-3.038,2.588A3.207,3.207,0,0,1,1038.4,374q-.079-10.464-.105-20.929a1.635,1.635,0,0,0-.784-1.612,4.66,4.66,0,0,1-2.047-3.718c-.171-1.627-.206-3.271-.251-4.908-.065-2.352-.144-4.707-.1-7.059a11.9,11.9,0,0,1,.668-4.1,3.068,3.068,0,0,1,2.752-2.288c1.105-.077,2.211-.157,3.316-.234.6-.042,1.2-.118,1.807-.111,1.96.021,3.92.054,5.879.121a13.3,13.3,0,0,1,2.014.256,2.974,2.974,0,0,1,2.185,1.892,9.256,9.256,0,0,1,.721,3.489c.05,1.782.112,3.565.112,5.348,0,1.763.009,3.532-.135,5.287a10.886,10.886,0,0,1-.786,4.241,4.7,4.7,0,0,1-1.83,2.039,1.029,1.029,0,0,0-.563,1.023c.023,7.024-.009,14.047.037,21.071a3.535,3.535,0,0,1-2.726,3.085A3.381,3.381,0,0,1,1044.818,374.366Z" transform="translate(-401.62 -76.882)" fill="#fff" fill-rule="evenodd"/>
    <path id="Path_140" data-name="Path 140" d="M868.341,532.765c-1.448.1-2.839.229-4.233.3-1.349.069-2.7.148-4.049.108-1.494-.045-2.983-.225-4.475-.336-.388-.029-.35-.294-.35-.551q0-1.8,0-3.6c0-3.8,0-7.595.007-11.392a.81.81,0,0,0-.442-.814,5.069,5.069,0,0,1-2.387-4.039c-.133-1.692-.189-3.39-.243-5.087q-.093-2.939-.117-5.88a15.73,15.73,0,0,1,.591-4.829A3.311,3.311,0,0,1,855,494.167a6.062,6.062,0,0,1,1.261-.176c1.507-.056,3.014-.1,4.522-.121,1.456-.02,2.913-.034,4.368.006a21.32,21.32,0,0,1,3.255.252,3.265,3.265,0,0,1,2.623,2.9,39.781,39.781,0,0,1,.486,4.678c.074,1.176.029,2.36.011,3.541-.026,1.665,0,3.336-.138,4.992a26.25,26.25,0,0,1-.671,3.858,4.049,4.049,0,0,1-2.046,2.425.665.665,0,0,0-.33.707q0,7.379,0,14.757C868.341,532.2,868.341,532.419,868.341,532.765Z" transform="translate(-240.19 -222.23)" fill="#fff" fill-rule="evenodd"/>
    <path id="Path_141" data-name="Path 141" d="M898.1,405.981a4.829,4.829,0,0,1,4.875,4.856,4.876,4.876,0,1,1-9.752.053A4.816,4.816,0,0,1,898.1,405.981Z" transform="translate(-276.504 -144.735)" fill="#fff" fill-rule="evenodd"/>
    <path id="Path_142" data-name="Path 142" d="M714.995,251.563a4.775,4.775,0,0,1-4.878-4.854,4.889,4.889,0,0,1,9.777.021A4.751,4.751,0,0,1,714.995,251.563Z" transform="translate(-115.016 -0.001)" fill="#fff" fill-rule="evenodd"/>
    <path id="Path_143" data-name="Path 143" d="M1080.989,251.562a4.758,4.758,0,0,1-4.9-4.832,4.889,4.889,0,0,1,9.777-.023A4.766,4.766,0,0,1,1080.989,251.562Z" transform="translate(-437.771 0)" fill="#fff" fill-rule="evenodd"/>
  </g>
</svg>
