<svg xmlns="http://www.w3.org/2000/svg" width="512" height="459.648" viewBox="0 0 512 459.648">
  <g id="physicians" transform="translate(-43.018 -76.412)">
    <path id="Path_87" data-name="Path 87" d="M248.006,202.384c-.881,4.021-2.4,8.023-2.525,12.068-.366,11.966-.2,23.951-.207,35.928q-.023,24.163-.009,48.326c0,4.943-.874,9.488-4.651,13.122-.939.9-1.135,2.979-1.148,4.52-.093,11.7,0,23.407-.082,35.107-.04,5.813-2.963,9.594-7.737,10.447-6.55,1.168-11.455-3.311-11.5-10.725-.074-12.94.187-25.89-.088-38.824-.212-9.976-1.025-19.936-1.6-29.9-.028-.487-.362-.954-1.367-1.449v4.415q-.071,106.562-.1,213.125c0,6.192-1.825,11.093-7.433,13.843-7.525,3.69-16.677-1.852-17.38-10.465-.133-1.643-.093-3.3-.094-4.953q-.007-51.22,0-102.435v-5.189H181.069v4.575q0,53.077.021,106.152c.007,5.547-1.823,9.965-6.6,12.716-7.83,4.512-17.574-1.019-18.213-10.3-.122-1.782-.079-3.577-.079-5.367q-.005-105.944,0-211.889V280.7c-.393-.083-.786-.168-1.179-.25-.618,3.307-1.744,6.612-1.774,9.926-.17,19.411-.084,38.825-.085,58.238,0,10.324-3.115,13.524-13.574,13.41,0,5.316.132,10.647-.034,15.966-.2,6.409-4.859,10.472-10.48,9.4-4.45-.847-7.06-4.213-7.074-9.511-.051-17.9.034-35.8-.084-53.694-.021-3.218-.758-6.428-1.165-9.64l-1.27-.044a30.9,30.9,0,0,0-.49,3.934q-.023,96.649,0,193.3c0,10.361-6.728,15.882-15.428,12.82a10.251,10.251,0,0,1-6.771-7.978,32.08,32.08,0,0,1-.553-6.966c-.033-30.978,0-61.955-.079-92.933,0-1.438-.7-4.021-1.327-4.11a24.585,24.585,0,0,0-7.8.339c-.42.077-.623,2.47-.624,3.793q-.049,47.086-.04,94.173A29.942,29.942,0,0,1,86,516.626c-1.207,6.109-5.591,9.772-11.225,9.6-5.747-.176-10.224-4.343-11.057-10.441a39.791,39.791,0,0,1-.2-5.358q-.014-92.521-.007-185.04V314.807q-.756-.091-1.511-.178c-.437,3.2-1.228,6.4-1.252,9.611-.127,17.9,0,35.8-.108,53.693-.047,7.854-7.133,12.257-13.224,8.32-3.356-2.168-4.4-5.651-4.4-9.606.022-15.97-.033-31.941.034-47.912a105.155,105.155,0,0,1,.624-12.338c1.226-9.983,6.287-17.661,13.976-23.578,5.216-4.014,10.743-7.4,17.985-9.155,0,7.174.051,13.836-.072,20.493a2.98,2.98,0,0,1-1.6,2.075c-5.94,2.521-5.337,8.314-6.136,13.3-.137.855,1.215,2.457,2.206,2.865a3.235,3.235,0,0,0,3.064-1.042,4.285,4.285,0,0,0,.2-3.733c-1.546-2.213-2.145-4.542-.155-6.232a8.639,8.639,0,0,1,5.739-1.678c3.482.238,4.751,3.711,3.284,7.082a7.646,7.646,0,0,0-.314,4.668c.145.55,2.952,1.147,3.33.675a7.084,7.084,0,0,0,1.567-4.441c-.317-4.838-.775-9.734-6.318-11.755-.669-.244-1.1-2.075-1.122-3.182-.108-5.78-.267-11.579.1-17.336a5.975,5.975,0,0,1,3.09-4.3,24.042,24.042,0,0,1,17.559.126,7.808,7.808,0,0,1,4.243,4.842,192.672,192.672,0,0,1,2.671,20.685c.112,1.372-1.385,3.414-2.679,4.285-3.8,2.558-5.394,5.353-4.54,9.587a7.358,7.358,0,0,0,6.562,6.255c3.634.5,6.516-1.238,8.247-4.57,1.638-3.152.517-7.078-2.361-10.083a6.013,6.013,0,0,1-1.749-3.307c-.574-8.134-.95-16.282-1.414-24.853,8.941,2.738,16.969,8.286,24.5,17.058-.106-12.734-.034-24.59,7.46-34.465,7.227-9.522,16.746-15.449,28.478-19.273,0,7.978.044,15.593-.078,23.206-.011.649-1,1.565-1.729,1.871-4.049,1.7-5.758,5.017-6.32,9.244-.179,1.343-.846,2.712-.676,3.983.21,1.577.67,3.62,1.745,4.416.843.627,3.483.161,4.062-.715.741-1.125.888-3.782.111-4.662-2.532-2.869-1.136-5.158.546-7.248,1.8-2.239,6.4-2.285,8.388-.148s2.663,4.453.531,7.281a5.192,5.192,0,0,0-.155,4.674c.562.919,3.362,1.543,4.049.937,1.12-.991,1.645-3.051,1.827-4.731a9.173,9.173,0,0,0-.784-4.767c-1.32-2.7-2.517-6.184-4.766-7.487-2.679-1.551-3.091-3.088-3.05-5.727.106-7.013.035-14.027.035-21.088,7.636-3.5,15.254-4.422,22.973-1.351a8.1,8.1,0,0,1,4.1,3.865,48,48,0,0,1,3.468,25.405,5.451,5.451,0,0,1-2.544,3.428c-4.189,2.328-6.338,5.8-5.649,9.888a9.418,9.418,0,0,0,7.849,7.7c3.508.517,7.3-1.857,8.911-5.579,1.67-3.862.463-7.975-2.936-11.067a5.024,5.024,0,0,1-1.713-3.5c1.1-9.224-.291-18.08-3.485-27.7,5,2.062,9.429,3.889,14.344,5.918v-3.576c0-10.188.18-20.381-.035-30.565-.561-26.534,12.4-44.078,34.281-55.676,4.57-2.423,9.471-4.176,14.739-6.464v33.772c-7.741,2.029-10.886,7.859-10.9,16.056,0,1.137-1.361,2.434-1.111,3.377.581,2.189,1.275,5.028,2.855,6.027,1.2.756,4.217-.407,5.726-1.638a3.911,3.911,0,0,0-.163-6.16c-2.928-2.113-2.006-4.515-1.338-6.88,1.234-4.368,5.938-6.4,10.83-4.953a8.108,8.108,0,0,1,5.152,9.151c-.233,1.008-1.847,1.681-2.059,2.683-.411,1.947-1.073,4.666-.16,5.868,1.085,1.432,3.967,2.527,5.6,2.047,1.434-.422,3.06-3.2,3.107-4.971.084-3.187-.915-6.412-1.532-9.607-1.125-5.832-4.489-9.5-10.374-10.9,0-11.093-.068-22.092.106-33.086a4.405,4.405,0,0,1,2.36-3.117c10.161-4.133,20.451-4.543,30.654-.21a7.438,7.438,0,0,1,3.376,3.622c5.654,12.621,6.539,25.918,5.034,39.253-2.343,1.274-4.653,2.118-6.481,3.6a12.493,12.493,0,0,0-1.081,18.506c4.85,5.2,12.934,4.879,17.682-.712,4.565-5.377,3.744-14.086-2.126-18.13-2.34-1.613-2.618-3.129-2.373-5.707a79.742,79.742,0,0,0-3.919-34.541c-.254-.719-.4-1.477-.645-2.379,21.3,5.244,43.6,23.065,47.556,48.124.871,5.523.678,11.246.76,16.881.114,7.952.028,15.906.028,24.164l17.26-7.849c0,8.96.062,16.919-.091,24.874a3.618,3.618,0,0,1-2.036,2.418c-4.241,1.762-5.932,5.22-6.521,9.587-.217,1.61-.941,3.244-.773,4.79.187,1.712.718,3.916,1.884,4.8.856.654,3.7.05,4.343-.925a6.109,6.109,0,0,0,.152-5.065c-1.6-3.376-1.494-6.437,1.007-8.287,2.789-2.064,7.453-1.521,9.329,1.266,1.417,2.106,2.076,4.133.085,6.679-.922,1.176-.889,3.892-.216,5.395.4.9,3.645,1.6,4.262.969,1.166-1.187,1.644-3.364,1.862-5.2.186-1.56-.375-3.223-.645-4.832-.614-3.64-1.691-7.169-5.336-8.575-2.619-1.011-3.2-2.578-3.128-5.239q.254-10.113,0-20.236c-.058-2.485.793-3.67,3-4.524a29.49,29.49,0,0,1,22.557.168,7.192,7.192,0,0,1,3.415,3.56,53.57,53.57,0,0,1,3.74,27.848,5.324,5.324,0,0,1-2.533,3.4c-4.36,2.347-6.877,6.277-6.264,10.472a10.186,10.186,0,0,0,8.455,8.663,9.308,9.308,0,0,0,9.62-5.819c1.889-4.381.7-8.763-3.138-12.155-.8-.7-1.838-1.864-1.775-2.738.735-10.235.029-20.274-3.781-30.733,13.338,4.347,23.964,11.143,31.636,22.587,7.821,11.664,6.357,25.056,6.578,39.144,7.562-11.894,17.606-18.413,30.248-22.753,0,6.562-.074,12.412.029,18.26.055,3.1.173,5.634-3.542,7.109-3.135,1.244-5.788,10.221-4.613,13.683a3.744,3.744,0,0,0,2.4,2.283c1.106.106,2.889-.537,3.321-1.416a4.715,4.715,0,0,0-.22-4.061c-1.791-2.364-1.519-4.9.278-6.217a9.417,9.417,0,0,1,6.744-1.553c3.175.631,3.917,4.166,2.587,7.268a8.172,8.172,0,0,0-.265,5.05c.161.577,3.178,1.153,3.668.588a6.857,6.857,0,0,0,1.419-4.577c-.4-5.245-.841-10.62-6.946-12.657-.5-.168-.85-1.608-.859-2.462-.068-6.471-.208-12.949.1-19.405a5.634,5.634,0,0,1,2.848-4.109,25.245,25.245,0,0,1,19.449.216,8.224,8.224,0,0,1,4.049,5.106,182.068,182.068,0,0,1,3.034,19.016c.39,3.467-.367,6.37-4.257,8.2-4.2,1.974-5.105,7.264-2.895,11.4a7.859,7.859,0,0,0,10.932,3.449,8.61,8.61,0,0,0,4.112-10.8,4.352,4.352,0,0,0-1.184-2.107c-3.935-2.486-2.952-6.334-3.19-10.139-.39-6.257-1.576-12.462-2.427-18.689-.107-.777-.218-1.553-.405-2.906,7.749,1.925,13.969,5.918,19.74,10.7,9.336,7.74,13.659,18.089,13.742,30.3.13,19.138.059,38.275.022,57.413-.011,5.658-2.336,9.31-6.764,10.992a8.6,8.6,0,0,1-11.549-6.747,30.5,30.5,0,0,1-.306-5.347c-.022-17.9.047-35.8-.07-53.694a105.534,105.534,0,0,0-1.108-10.663l-1.452.039c-.112,1.529-.321,3.057-.321,4.586q-.049,101.4-.15,202.8a22.73,22.73,0,0,1-1.96,9.1c-2.07,4.532-6.107,6.428-10.891,6-4.868-.437-8.662-2.856-10.232-7.848a26.063,26.063,0,0,1-1.113-7.676q-.108-49.565-.046-99.13v-4.585c-1.58,0-2.607-.012-3.635,0-6.9.09-6.906.093-6.906,7.492q0,48.533-.048,97.065a25.005,25.005,0,0,1-1.162,8.478,11.161,11.161,0,0,1-11.875,7.126,12.688,12.688,0,0,1-10.755-11.548c-.143-1.641-.069-3.3-.069-4.956q.012-102.02.018-204.041c0-1.148-.17-2.3-.259-3.445l-1.321-.15c-.5,3.353-1.411,6.7-1.437,10.061-.144,18.584-.046,37.172-.107,55.759a16.7,16.7,0,0,1-.855,6.018c-1.649,4.1-5.593,6.273-9.229,5.56-5.085-1-8.232-4.36-8.378-9.459-.167-5.873-.038-11.755-.038-17.909-.915.257-1.415.366-1.895.538-8.507,3.077-14.911-1.564-14.94-11-.064-19.963.012-39.927-.051-59.891a92.628,92.628,0,0,0-.7-10.671,25.626,25.626,0,0,0-1.606-4.928l-1.094.066v4.952q0,114-.054,228a28.75,28.75,0,0,1-1.357,9.7,12.782,12.782,0,0,1-14.317,7.825c-6.594-1.4-10.946-6.418-11.08-13.165-.15-7.432-.066-14.869-.066-22.3q-.007-46.676,0-93.348v-5.012H393.979v4.932q0,56.173,0,112.347c0,1.514.066,3.039-.081,4.54-.753,7.708-6.811,13.5-13.8,13.264-7.087-.242-12.732-6.265-13.087-13.995-.064-1.374-.026-2.754-.026-4.13V275.921l-1.47-.189c-.475,3.5-1.319,6.989-1.363,10.494-.26,20.919-.336,41.841-.472,62.763-.008,1.241.036,2.48-.025,3.717-.31,6.268-4.681,10.725-10.463,10.7-5.712-.02-10.271-4.577-10.339-10.79-.131-12.251.018-24.506-.138-36.757a9.11,9.11,0,0,0-1.766-5.058c-2.651-3.448-3.5-7.275-3.489-11.544q.062-40.684.025-81.369c0-5.235-.415-10.349-4.237-14.767v4.638q0,147.249.012,294.5c0,5.052-.523,9.925-3.687,14.036-4.742,6.159-11.991,8.524-18.911,6.252-6.975-2.29-11.6-8.7-11.662-16.962-.138-18.722-.06-37.448-.062-56.172q0-46.054,0-92.108v-4.943h-15.13V356.7q0,73.729-.006,147.455c0,10.952-4.808,17.838-13.79,19.909-9.578,2.211-19.366-5.1-20.343-15.261-.2-2.048-.165-4.125-.165-6.188q-.011-147.655-.006-295.31V202.77Q248.751,202.574,248.006,202.384Z" transform="translate(0)" fill="#27709a" fill-rule="evenodd"/>
    <path id="Path_88" data-name="Path 88" d="M219.6,110.76a34.317,34.317,0,1,1,34.151,34.334A34.219,34.219,0,0,1,219.6,110.76Z" transform="translate(37.249)" fill="#27709a" fill-rule="evenodd"/>
    <path id="Path_89" data-name="Path 89" d="M319.176,188.022A26.878,26.878,0,1,1,345.87,214.99,26.722,26.722,0,0,1,319.176,188.022Z" transform="translate(55.98 17.477)" fill="#27709a" fill-rule="evenodd"/>
    <path id="Path_90" data-name="Path 90" d="M401.522,193.969a26.758,26.758,0,0,1,.158-53.516,26.758,26.758,0,1,1-.158,53.516Z" transform="translate(77.234 13.184)" fill="#27709a" fill-rule="evenodd"/>
    <path id="Path_91" data-name="Path 91" d="M314.317,110.44A26.672,26.672,0,1,1,287.6,137.078,26.6,26.6,0,0,1,314.317,110.44Z" transform="translate(49.536)" fill="#27709a" fill-rule="evenodd"/>
    <path id="Path_92" data-name="Path 92" d="M178.414,110.5A26.586,26.586,0,1,1,151.9,137.213,26.435,26.435,0,0,1,178.414,110.5Z" transform="translate(22.036)" fill="#27709a" fill-rule="evenodd"/>
    <path id="Path_93" data-name="Path 93" d="M189.983,196.979a25.012,25.012,0,1,1-25.028-24.908A25.073,25.073,0,0,1,189.983,196.979Z" transform="translate(19.46 19.484)" fill="#27709a" fill-rule="evenodd"/>
    <path id="Path_94" data-name="Path 94" d="M434.5,248.16A24.031,24.031,0,0,1,410.3,224.183a24.045,24.045,0,0,1,48.09-.2A23.838,23.838,0,0,1,434.5,248.16Z" transform="translate(77.234 25.054)" fill="#27709a" fill-rule="evenodd"/>
    <path id="Path_95" data-name="Path 95" d="M84.013,252.154a22.715,22.715,0,1,1,22.753-22.737A22.6,22.6,0,0,1,84.013,252.154Z" transform="translate(0 26.199)" fill="#27709a" fill-rule="evenodd"/>
    <path id="Path_96" data-name="Path 96" d="M105.958,200.678a22.712,22.712,0,1,1,22.934-22.615A22.624,22.624,0,0,1,105.958,200.678Z" transform="translate(0 15.851)" fill="#27709a" fill-rule="evenodd"/>
    <path id="Path_97" data-name="Path 97" d="M274.826,194.428a5.584,5.584,0,0,1,5.42,5.709,5.875,5.875,0,0,1-6.183,5.78c-2.778-.112-5.44-3.09-5.337-5.969A5.883,5.883,0,0,1,274.826,194.428Zm4,5.54a3.912,3.912,0,0,0-4.219-4c-2.5-.037-3.958,1.429-4.154,3.946a4.075,4.075,0,0,0,3.951,4.553A4.48,4.48,0,0,0,278.824,199.968Z" transform="translate(41.187 21.601)" fill="#27709a" fill-rule="evenodd"/>
    <path id="Path_98" data-name="Path 98" d="M366.754,258.151a4.678,4.678,0,0,1-4.471,4.588,4.553,4.553,0,0,1-.081-9.1A4.672,4.672,0,0,1,366.754,258.151Zm-3.865-3.827-1.459.014c-.812,1.362-2.338,2.789-2.222,4.067.1,1.133,1.928,2.793,3.179,2.981a2.686,2.686,0,0,0,3.035-3.421C365.131,256.632,363.77,255.529,362.889,254.324Z" transform="translate(57.095 32.235)" fill="#27709a" fill-rule="evenodd"/>
    <path id="Path_99" data-name="Path 99" d="M180.019,266.1a4.131,4.131,0,0,1-4.2-4.49c.237-2.559,1.846-3.81,4.278-3.875a3.961,3.961,0,0,1,3.98,4.47C183.9,264.838,182.232,265.865,180.019,266.1Zm.652-7.634-1.348-.014c-.754,1.287-2.146,2.619-2.061,3.849.066.974,2.024,2.609,3,2.512a4.069,4.069,0,0,0,2.7-2.945C183.032,260.791,181.5,259.6,180.671,258.467Z" transform="translate(24.047 32.917)" fill="#27709a" fill-rule="evenodd"/>
    <path id="Path_100" data-name="Path 100" d="M452.891,286.563c-.284,2.559-1.428,4.159-4.043,4.182a3.673,3.673,0,0,1-4-3.714,3.792,3.792,0,0,1,3.819-4.277C451.168,282.621,452.484,284.257,452.891,286.563Zm.32.026c-2.123-1.282-3.341-2.6-4.45-2.515-.986.075-2.7,1.857-2.571,2.62.2,1.148,1.67,2.792,2.714,2.879S451.146,288.11,453.211,286.589Z" transform="translate(77.234 37.421)" fill="#27709a" fill-rule="evenodd"/>
    <path id="Path_101" data-name="Path 101" d="M102,289.462c-1.487.962-2.877,2.462-4.487,2.753-2.164.392-3.54-1.247-3.587-3.468-.05-2.384,1.463-4.108,3.664-3.842,1.568.188,2.956,1.875,4.423,2.894Q102.007,288.632,102,289.462Zm-.214-.918c-1.926-1.248-3.085-2.586-4.065-2.466a3.63,3.63,0,0,0-2.446,2.646,3.592,3.592,0,0,0,2.577,2.479C98.847,291.263,99.929,289.88,101.786,288.544Z" transform="translate(0 37.748)" fill="#27709a" fill-rule="evenodd"/>
    <path id="Path_102" data-name="Path 102" d="M277.621,200.091c-1.412,1-2.2,1.967-3.016,2-.654.026-1.984-1.207-1.9-1.673a3.15,3.15,0,0,1,1.8-2.238C275.209,198.044,276.145,199.125,277.621,200.091Z" transform="translate(41.27 21.849)" fill="#27709a" fill-rule="evenodd"/>
  </g>
</svg>
