<svg xmlns="http://www.w3.org/2000/svg" width="80.233" height="78.212" viewBox="0 0 80.233 78.212">
  <g id="children1" transform="translate(-600.169 -205.874)">
    <g id="Group_84" data-name="Group 84" transform="translate(600.169 221.426)">
      <g id="Group_74" data-name="Group 74" transform="translate(0 0.133)">
        <path id="Path_49" data-name="Path 49" d="M643.661,472.606a.105.105,0,0,1-.044-.009.115.115,0,0,1-.064-.15,2.3,2.3,0,0,0-.487-2.045l-.093-.158a6.983,6.983,0,0,1-.95-2.447,8.364,8.364,0,0,1,.694-4.017c.55-1.584,1.069-3.082.437-4.647a.116.116,0,0,1,.215-.086c.664,1.644.106,3.252-.433,4.808a8.2,8.2,0,0,0-.685,3.906,6.772,6.772,0,0,0,.922,2.366c.03.053.061.1.092.157a2.51,2.51,0,0,1,.5,2.249A.117.117,0,0,1,643.661,472.606Z" transform="translate(-637.307 -446.442)" fill="#fff"/>
        <g id="Group_73" data-name="Group 73">
          <g id="Group_71" data-name="Group 71" transform="translate(5.358 12.488)">
            <g id="Group_67" data-name="Group 67" transform="translate(0 0.116)">
              <path id="Path_50" data-name="Path 50" d="M649.034,460.093a1.864,1.864,0,0,0-.336.508s.043.1.136.1.173-.1.282-.021a.216.216,0,0,0,.283.021c.084-.06.143-.122.25-.077a.117.117,0,0,0,.146-.025s-.143-.42-.447-.508C649.346,460.092,649.015,460.1,649.034,460.093Z" transform="translate(-648.646 -460.039)" fill="#fff"/>
              <path id="Path_51" data-name="Path 51" d="M648.858,460.378a.326.326,0,0,1-.192-.073.09.09,0,0,0-.057-.022.211.211,0,0,0-.079.023.325.325,0,0,1-.112.029h-.006a.206.206,0,0,1-.181-.133.058.058,0,0,1,0-.036,1.84,1.84,0,0,1,.345-.526.055.055,0,0,1,.022-.017.054.054,0,0,1,.036,0h.049c.091,0,.244,0,.244,0l.016,0c.328.094.477.524.482.542a.053.053,0,0,1-.008.05.151.151,0,0,1-.123.06.2.2,0,0,1-.086-.021c-.062-.024-.1,0-.167.05l-.031.023A.26.26,0,0,1,648.858,460.378Zm-.25-.2a.2.2,0,0,1,.121.042c.085.064.148.072.22.021l.03-.022a.3.3,0,0,1,.183-.081.239.239,0,0,1,.089.019l.006,0h0a.094.094,0,0,0,.056.007.759.759,0,0,0-.39-.438c-.041,0-.22,0-.284,0a1.777,1.777,0,0,0-.3.448.094.094,0,0,0,.074.052.266.266,0,0,0,.078-.022A.3.3,0,0,1,648.608,460.177Z" transform="translate(-648.227 -459.62)" fill="#fff"/>
            </g>
            <g id="Group_68" data-name="Group 68" transform="translate(0.348 0.192)">
              <path id="Path_52" data-name="Path 52" d="M651.481,460.632a.593.593,0,0,0-.128.332c0,.008.095-.219.149-.328C651.509,460.622,651.487,460.625,651.481,460.632Z" transform="translate(-651.353 -460.589)" fill="#fff"/>
              <path id="Path_53" data-name="Path 53" d="M652.3,460.3c0-.015-.02,0-.023,0a.676.676,0,0,0-.065.419C652.21,460.732,652.266,460.438,652.3,460.3Z" transform="translate(-652.103 -460.295)" fill="#fff"/>
              <path id="Path_54" data-name="Path 54" d="M654.191,460.542a.579.579,0,0,0,.09.086c-.047-.067-.088-.139-.136-.206,0,0-.009,0-.013,0a.172.172,0,0,0-.016-.019c-.008-.006-.021.007-.017.014a3.366,3.366,0,0,1,.154.332A1.669,1.669,0,0,0,654.191,460.542Z" transform="translate(-653.792 -460.389)" fill="#fff"/>
            </g>
            <g id="Group_69" data-name="Group 69" transform="translate(0.053 0.169)" opacity="0.5">
              <path id="Path_55" data-name="Path 55" d="M649.034,460.093a1.864,1.864,0,0,0-.336.508s.043.1.136.1.173-.1.282-.021a.216.216,0,0,0,.283.021c.084-.06.143-.122.25-.077a.117.117,0,0,0,.146-.025s-.143-.42-.447-.508C649.346,460.092,649.015,460.1,649.034,460.093Z" transform="translate(-648.698 -460.092)" fill="#fff"/>
            </g>
            <g id="Group_70" data-name="Group 70" transform="translate(0.216)">
              <path id="Path_56" data-name="Path 56" d="M651.064,458.952c0,.082-.143.154-.326.16s-.333-.056-.337-.138.144-.154.326-.161S651.061,458.87,651.064,458.952Z" transform="translate(-650.375 -458.787)" fill="#fff"/>
              <path id="Path_57" data-name="Path 57" d="M650.5,458.928c-.191,0-.333-.069-.336-.164,0-.051.036-.1.108-.134a.624.624,0,0,1,.244-.055c.2-.007.36.064.364.163,0,.051-.036.1-.108.134a.6.6,0,0,1-.244.055Zm.042-.3h-.026a.532.532,0,0,0-.221.049c-.051.025-.08.056-.079.084,0,.058.131.118.309.111a.54.54,0,0,0,.222-.049c.051-.025.079-.056.078-.084C650.829,458.687,650.714,458.628,650.547,458.628Z" transform="translate(-650.168 -458.575)" fill="#fff"/>
            </g>
            <path id="Path_58" data-name="Path 58" d="M651.415,458.742c0,.07-.121.131-.275.136s-.281-.046-.284-.115.12-.13.275-.136S651.413,458.673,651.415,458.742Z" transform="translate(-650.564 -458.621)" fill="#fff"/>
            <path id="Path_59" data-name="Path 59" d="M649.838,462.314c-.039.011-.06.061-.076.092a.356.356,0,0,0-.027.062l0,.01c-.011.024-.035.078,0,.1.05.031.107-.1.121-.127S649.9,462.3,649.838,462.314Z" transform="translate(-649.546 -461.896)" fill="#fff" opacity="0.8"/>
            <path id="Path_60" data-name="Path 60" d="M651.593,463.013c0-.021-.036,0-.042.007a.171.171,0,0,0-.025.1.06.06,0,0,0,.012.048c.009.009.023,0,.031,0A.172.172,0,0,0,651.593,463.013Z" transform="translate(-651.157 -462.509)" fill="#fff" opacity="0.8"/>
            <path id="Path_61" data-name="Path 61" d="M652.992,462.259c0-.062-.074-.235-.16-.174a.07.07,0,0,0-.021.029.053.053,0,0,0,0,.008.04.04,0,0,0,0,.008.339.339,0,0,0-.012.064.351.351,0,0,0-.006.091.149.149,0,0,0,.02.084.1.1,0,0,0,.127.028A.14.14,0,0,0,652.992,462.259Z" transform="translate(-652.277 -461.682)" fill="#fff" opacity="0.8"/>
          </g>
          <g id="Group_72" data-name="Group 72">
            <path id="Path_62" data-name="Path 62" d="M611.633,352.17c0,3.1-2.566,7.047-5.732,7.047s-5.732-3.951-5.732-7.047a5.733,5.733,0,0,1,11.464,0Z" transform="translate(-600.169 -346.566)" fill="#fff"/>
            <path id="Path_63" data-name="Path 63" d="M605.9,346.567a5.669,5.669,0,0,0-5.732,5.6c0,3.1,2.566,7.047,5.732,7.047s5.732-3.951,5.732-7.047A5.669,5.669,0,0,0,605.9,346.567Zm3.232,6.956a6.916,6.916,0,0,1-.491,1.431,4.332,4.332,0,0,1-.779,1.178,3.82,3.82,0,0,1-2.584,1.057,4.147,4.147,0,0,1-2.723-.805A4.857,4.857,0,0,1,601,353.651c-.419-1.844-.168-4.272,1.442-5.483a4.983,4.983,0,0,1,3.138-1.013,3.836,3.836,0,0,1,2.364.813,4.233,4.233,0,0,1,1.266,2.449A7.55,7.55,0,0,1,609.133,353.523Z" transform="translate(-600.169 -346.567)" fill="#fff"/>
            <path id="Path_64" data-name="Path 64" d="M605.9,346.567a5.669,5.669,0,0,0-5.732,5.6c0,3.1,2.566,7.047,5.732,7.047s5.732-3.951,5.732-7.047A5.669,5.669,0,0,0,605.9,346.567Zm4.665,7.995a5.948,5.948,0,0,1-.738,1.674,7.963,7.963,0,0,1-1.358,1.417.023.023,0,0,1-.015.006,3.172,3.172,0,0,1-1.2.79.022.022,0,0,1-.029-.022,1.234,1.234,0,0,1,.249-.549c-.111.093-.225.184-.343.268a5.7,5.7,0,0,1-.5.33,1.536,1.536,0,0,1-.512.219.806.806,0,0,1-.73-.414c-.166-.24-.271-.517-.441-.754a2.1,2.1,0,0,0,.132.653,2.029,2.029,0,0,1,.193.551.023.023,0,0,1-.023.023c-.437-.055-.7-.434-1.032-.69a5.554,5.554,0,0,0,.532.69.023.023,0,0,1-.026.033,2.417,2.417,0,0,1-.51-.215,6.46,6.46,0,0,1-2.5-2.68,7.613,7.613,0,0,1-1.124-3.184,5.939,5.939,0,0,1,.65-3.169,4.247,4.247,0,0,1,2.317-2.188,5.6,5.6,0,0,1,3.243-.324,5.521,5.521,0,0,1,2.912,1.534,4.944,4.944,0,0,1,1.3,2.784,5.829,5.829,0,0,1-.009,1.556A10.215,10.215,0,0,1,610.566,354.562Z" transform="translate(-600.169 -346.567)" fill="#fff"/>
            <path id="Path_65" data-name="Path 65" d="M613.23,354.919a1.8,1.8,0,0,0-1.133-.346,3.952,3.952,0,0,0-3.3,1.864,4.389,4.389,0,0,0-.514,1.2,6.215,6.215,0,0,0-.182,1.832,6.768,6.768,0,0,0,.352,1.7c.128.346.572,1.44,1.11,1.214.393-.166.25-1,.244-1.323a8.991,8.991,0,0,1,.085-2.007,3.912,3.912,0,0,1,1.265-2.188,9.12,9.12,0,0,1,1.313-.84c.316-.187,1-.535.822-1A.342.342,0,0,0,613.23,354.919Z" transform="translate(-607.203 -353.68)" fill="#fff" opacity="0.4"/>
            <path id="Path_66" data-name="Path 66" d="M621.786,426.2a.423.423,0,0,0-.082-.111.452.452,0,0,0-.749.323c0,.295.431.6.7.428A.5.5,0,0,0,621.786,426.2Z" transform="translate(-618.637 -417.123)" fill="#fff" opacity="0.4"/>
          </g>
        </g>
      </g>
      <g id="Group_75" data-name="Group 75" transform="translate(5.268 18.85)">
        <path id="Path_67" data-name="Path 67" d="M664.693,595.127h-1.639c0,2.7,0,5.344,0,7.989,0,.906.028,1.813-.01,2.716-.067,1.595-.964,2.541-2.3,2.488-1.28-.051-2.079-.962-2.092-2.51-.027-3.09-.007-6.179-.013-9.269,0-.418-.04-.835-.072-1.464h-5.845a13.562,13.562,0,0,1,.569-1.521c.86-1.593,1.651-3.237,2.659-4.733a6.773,6.773,0,0,0,.91-4.738,2.983,2.983,0,0,0-.9-1.578c-2.429-2.468-4.909-4.885-7.363-7.328-1.312-1.307-1.532-2.651-.618-3.625.983-1.048,2.338-.906,3.737.547,1.807,1.876,3.53,3.834,4.777,5.2a53.955,53.955,0,0,1,14.628-.049c1.455-1.528,3.356-3.606,5.351-5.589,1.377-1.368,3.418-.947,3.74.808a3.2,3.2,0,0,1-.806,2.366c-2.314,2.5-4.762,4.878-7.161,7.3a4.951,4.951,0,0,0-.831,5.667c.979,1.831,2.012,3.634,3.012,5.454.246.448.455.917.829,1.675H669.24c0,1.314,0,2.409,0,3.5q0,3.356,0,6.712c0,2.182-.727,3.2-2.242,3.171-1.483-.028-2.173-1.057-2.178-3.258q-.011-4.714-.021-9.428A3.76,3.76,0,0,0,664.693,595.127Z" transform="translate(-647.418 -564.561)" fill="#fff" fill-rule="evenodd"/>
        <path id="Path_68" data-name="Path 68" d="M995.954,577.182c1.983-.923,10.863-.931,13.332.153,1.719-1.826,3.516-3.786,5.372-5.689,1.3-1.332,2.492-1.455,3.464-.482s.857,2.423-.371,3.654c-2.482,2.488-5.03,4.913-7.45,7.46a3.778,3.778,0,0,0-.969,2.337c-.076,6.656-.043,13.313-.045,19.97a11.947,11.947,0,0,1-.034,1.436,2.092,2.092,0,0,1-2.238,2.041,1.968,1.968,0,0,1-2.1-2.135c-.042-2.769-.029-5.538-.021-8.307a2.475,2.475,0,0,0-1.6-2.664,2.433,2.433,0,0,0-3.327,2.484c-.051,2.609,0,5.219-.019,7.828-.011,1.829-.872,2.863-2.294,2.815-1.371-.046-2.072-.968-2.075-2.842-.012-6.87.03-13.74-.051-20.609a4.012,4.012,0,0,0-1.023-2.473c-2.375-2.515-4.89-4.9-7.34-7.344-1.288-1.285-1.453-2.671-.469-3.619s2.23-.785,3.512.461c1.833,1.782,3.646,3.583,5.472,5.372A1.145,1.145,0,0,0,995.954,577.182Z" transform="translate(-948.307 -564.274)" fill="#fff" fill-rule="evenodd"/>
        <path id="Path_69" data-name="Path 69" d="M747.448,519.818a5.26,5.26,0,0,1,5.172-5.371,5.308,5.308,0,1,1-5.172,5.371Z" transform="translate(-736.296 -514.445)" fill="#fff" fill-rule="evenodd"/>
        <path id="Path_70" data-name="Path 70" d="M1095,519.684a5.3,5.3,0,0,1-5.178,5.384,5.307,5.307,0,1,1-.137-10.613A5.261,5.261,0,0,1,1095,519.684Z" transform="translate(-1035.68 -514.454)" fill="#fff" fill-rule="evenodd"/>
      </g>
      <g id="Group_83" data-name="Group 83" transform="translate(68.769)">
        <path id="Path_71" data-name="Path 71" d="M1260.491,471.411a.105.105,0,0,1-.044-.009.115.115,0,0,1-.064-.15,2.3,2.3,0,0,0-.487-2.045l-.093-.158a6.986,6.986,0,0,1-.95-2.447,8.365,8.365,0,0,1,.694-4.017c.55-1.584,1.069-3.082.437-4.647a.116.116,0,0,1,.215-.086c.664,1.644.106,3.252-.433,4.808a8.2,8.2,0,0,0-.685,3.906,6.771,6.771,0,0,0,.922,2.366c.03.053.061.1.092.157a2.51,2.51,0,0,1,.5,2.249A.115.115,0,0,1,1260.491,471.411Z" transform="translate(-1254.137 -445.247)" fill="#fff"/>
        <g id="Group_82" data-name="Group 82">
          <g id="Group_80" data-name="Group 80" transform="translate(5.358 12.487)">
            <g id="Group_76" data-name="Group 76" transform="translate(0 0.117)">
              <path id="Path_72" data-name="Path 72" d="M1265.869,458.9a1.863,1.863,0,0,0-.337.508s.043.1.136.1.173-.1.282-.021a.216.216,0,0,0,.282.021c.084-.06.143-.122.25-.077a.117.117,0,0,0,.146-.025s-.143-.42-.448-.508C1266.181,458.9,1265.849,458.905,1265.869,458.9Z" transform="translate(-1265.479 -458.844)" fill="#fff"/>
              <path id="Path_73" data-name="Path 73" d="M1265.691,459.183a.326.326,0,0,1-.192-.073.089.089,0,0,0-.057-.022.209.209,0,0,0-.079.023.326.326,0,0,1-.112.029h-.006a.207.207,0,0,1-.181-.133.058.058,0,0,1,0-.036,1.834,1.834,0,0,1,.345-.526.056.056,0,0,1,.022-.017.054.054,0,0,1,.036,0h.049c.091,0,.244,0,.244,0l.016,0c.328.094.477.524.482.542a.053.053,0,0,1-.008.05.151.151,0,0,1-.123.06.2.2,0,0,1-.086-.021c-.062-.024-.1,0-.167.05l-.031.023A.258.258,0,0,1,1265.691,459.183Zm-.25-.2a.2.2,0,0,1,.121.042c.085.064.148.072.219.021l.03-.022a.3.3,0,0,1,.183-.081.24.24,0,0,1,.089.019l.006,0h0a.094.094,0,0,0,.056.007.758.758,0,0,0-.39-.438c-.041,0-.219,0-.284,0a1.779,1.779,0,0,0-.3.448.094.094,0,0,0,.074.052.266.266,0,0,0,.078-.022A.3.3,0,0,1,1265.441,458.982Z" transform="translate(-1265.06 -458.425)" fill="#fff"/>
            </g>
            <g id="Group_77" data-name="Group 77" transform="translate(0.349 0.192)">
              <path id="Path_74" data-name="Path 74" d="M1268.32,459.436a.593.593,0,0,0-.128.332c0,.008.095-.219.149-.328C1268.347,459.427,1268.325,459.43,1268.32,459.436Z" transform="translate(-1268.192 -459.394)" fill="#fff"/>
              <path id="Path_75" data-name="Path 75" d="M1269.132,459.107c0-.015-.02,0-.023,0a.676.676,0,0,0-.065.419C1269.046,459.537,1269.1,459.243,1269.132,459.107Z" transform="translate(-1268.939 -459.1)" fill="#fff"/>
              <path id="Path_76" data-name="Path 76" d="M1271.026,459.346a.572.572,0,0,0,.09.086c-.047-.067-.089-.139-.137-.206,0,0-.008,0-.013,0a.16.16,0,0,0-.016-.019c-.008-.006-.021.007-.017.014a3.339,3.339,0,0,1,.154.332A1.8,1.8,0,0,0,1271.026,459.346Z" transform="translate(-1270.628 -459.193)" fill="#fff"/>
            </g>
            <g id="Group_78" data-name="Group 78" transform="translate(0.053 0.169)" opacity="0.5">
              <path id="Path_77" data-name="Path 77" d="M1265.869,458.9a1.863,1.863,0,0,0-.337.508s.043.1.136.1.173-.1.282-.021a.216.216,0,0,0,.282.021c.084-.06.143-.122.25-.077a.117.117,0,0,0,.146-.025s-.143-.42-.448-.508C1266.181,458.9,1265.849,458.905,1265.869,458.9Z" transform="translate(-1265.532 -458.897)" fill="#fff"/>
            </g>
            <g id="Group_79" data-name="Group 79" transform="translate(0.217)">
              <path id="Path_78" data-name="Path 78" d="M1267.9,457.757c0,.082-.143.154-.326.16s-.333-.056-.337-.137.144-.155.326-.161S1267.892,457.674,1267.9,457.757Z" transform="translate(-1267.206 -457.592)" fill="#fff"/>
              <path id="Path_79" data-name="Path 79" d="M1267.34,457.732c-.191,0-.333-.069-.336-.164,0-.051.036-.1.108-.134a.624.624,0,0,1,.244-.055c.2-.007.36.064.364.163,0,.051-.036.1-.108.134a.6.6,0,0,1-.243.055Zm.042-.3h-.026a.532.532,0,0,0-.221.049c-.051.025-.08.056-.079.084,0,.057.13.118.309.111a.539.539,0,0,0,.222-.049c.051-.025.079-.056.078-.084C1267.664,457.491,1267.549,457.432,1267.382,457.432Z" transform="translate(-1267.003 -457.379)" fill="#fff"/>
            </g>
            <path id="Path_80" data-name="Path 80" d="M1268.252,457.547c0,.07-.12.131-.275.136s-.281-.046-.284-.115.121-.13.275-.136S1268.25,457.478,1268.252,457.547Z" transform="translate(-1267.4 -457.425)" fill="#fff"/>
            <path id="Path_81" data-name="Path 81" d="M1266.669,461.118c-.039.011-.06.061-.076.092a.351.351,0,0,0-.027.062l0,.01c-.011.024-.035.078,0,.1.05.031.107-.1.121-.127S1266.728,461.1,1266.669,461.118Z" transform="translate(-1266.377 -460.7)" fill="#fff" opacity="0.8"/>
            <path id="Path_82" data-name="Path 82" d="M1268.425,461.818c0-.021-.036,0-.042.007a.171.171,0,0,0-.026.1.06.06,0,0,0,.012.048c.009.009.022,0,.031,0A.169.169,0,0,0,1268.425,461.818Z" transform="translate(-1267.989 -461.314)" fill="#fff" opacity="0.8"/>
            <path id="Path_83" data-name="Path 83" d="M1269.825,461.064c0-.062-.074-.235-.16-.174a.071.071,0,0,0-.021.029.06.06,0,0,0,0,.008.036.036,0,0,0,0,.008.329.329,0,0,0-.012.064.351.351,0,0,0-.006.091.148.148,0,0,0,.02.084.1.1,0,0,0,.127.028A.14.14,0,0,0,1269.825,461.064Z" transform="translate(-1269.11 -460.486)" fill="#fff" opacity="0.8"/>
          </g>
          <g id="Group_81" data-name="Group 81">
            <path id="Path_84" data-name="Path 84" d="M1228.468,350.975c0,3.1-2.567,7.047-5.732,7.047s-5.732-3.951-5.732-7.047a5.733,5.733,0,0,1,11.464,0Z" transform="translate(-1217.004 -345.371)" fill="#fff"/>
            <path id="Path_85" data-name="Path 85" d="M1222.741,345.372a5.669,5.669,0,0,0-5.732,5.6c0,3.1,2.566,7.047,5.732,7.047s5.732-3.951,5.732-7.047A5.67,5.67,0,0,0,1222.741,345.372Zm3.232,6.956a6.9,6.9,0,0,1-.491,1.431,4.33,4.33,0,0,1-.779,1.178,3.82,3.82,0,0,1-2.584,1.057,4.147,4.147,0,0,1-2.723-.805,4.857,4.857,0,0,1-1.558-2.733c-.419-1.844-.168-4.272,1.442-5.483a4.983,4.983,0,0,1,3.139-1.013,3.835,3.835,0,0,1,2.364.813,4.232,4.232,0,0,1,1.266,2.449A7.555,7.555,0,0,1,1225.973,352.328Z" transform="translate(-1217.008 -345.372)" fill="#fff"/>
            <path id="Path_86" data-name="Path 86" d="M1222.741,345.372a5.669,5.669,0,0,0-5.732,5.6c0,3.1,2.566,7.047,5.732,7.047s5.732-3.951,5.732-7.047A5.67,5.67,0,0,0,1222.741,345.372Zm4.665,7.995a5.948,5.948,0,0,1-.738,1.674,7.966,7.966,0,0,1-1.358,1.417.023.023,0,0,1-.015.006,3.172,3.172,0,0,1-1.2.79.022.022,0,0,1-.029-.022,1.233,1.233,0,0,1,.249-.549c-.111.093-.225.184-.343.268a5.669,5.669,0,0,1-.5.33,1.537,1.537,0,0,1-.512.219.806.806,0,0,1-.729-.414c-.166-.24-.271-.517-.441-.754a2.1,2.1,0,0,0,.132.653,2.026,2.026,0,0,1,.193.551.023.023,0,0,1-.023.023c-.437-.055-.7-.434-1.032-.69a5.553,5.553,0,0,0,.532.69.023.023,0,0,1-.026.033,2.414,2.414,0,0,1-.51-.215,6.461,6.461,0,0,1-2.5-2.68,7.614,7.614,0,0,1-1.124-3.184,5.939,5.939,0,0,1,.65-3.169,4.247,4.247,0,0,1,2.317-2.188,5.6,5.6,0,0,1,3.243-.324,5.522,5.522,0,0,1,2.912,1.534,4.945,4.945,0,0,1,1.3,2.784,5.831,5.831,0,0,1-.009,1.556A10.1,10.1,0,0,1,1227.405,353.367Z" transform="translate(-1217.008 -345.372)" fill="#fff"/>
            <path id="Path_87" data-name="Path 87" d="M1230.067,353.723a1.8,1.8,0,0,0-1.133-.346,3.951,3.951,0,0,0-3.3,1.864,4.384,4.384,0,0,0-.514,1.2,6.212,6.212,0,0,0-.182,1.832,6.765,6.765,0,0,0,.352,1.7c.128.346.572,1.44,1.11,1.214.393-.166.25-1,.244-1.323a8.987,8.987,0,0,1,.085-2.007,3.913,3.913,0,0,1,1.264-2.188,9.135,9.135,0,0,1,1.313-.84c.316-.187,1-.535.822-1A.352.352,0,0,0,1230.067,353.723Z" transform="translate(-1224.04 -352.484)" fill="#fff" opacity="0.4"/>
            <path id="Path_88" data-name="Path 88" d="M1238.623,425a.423.423,0,0,0-.082-.111.452.452,0,0,0-.749.323c0,.295.431.6.7.428A.5.5,0,0,0,1238.623,425Z" transform="translate(-1235.474 -415.927)" fill="#fff" opacity="0.4"/>
          </g>
        </g>
      </g>
    </g>
    <g id="Group_102" data-name="Group 102" transform="translate(619.229 205.874)">
      <g id="Group_92" data-name="Group 92" transform="translate(0 0.07)">
        <path id="Path_89" data-name="Path 89" d="M793.957,272.658a.057.057,0,0,1-.023,0,.061.061,0,0,1-.034-.079,1.207,1.207,0,0,0-.256-1.073l-.049-.083a3.671,3.671,0,0,1-.5-1.284,4.39,4.39,0,0,1,.365-2.109,3.36,3.36,0,0,0,.229-2.439.061.061,0,0,1,.113-.045,3.5,3.5,0,0,1-.228,2.523,4.306,4.306,0,0,0-.359,2.05,3.555,3.555,0,0,0,.484,1.242l.049.082a1.317,1.317,0,0,1,.264,1.181A.061.061,0,0,1,793.957,272.658Z" transform="translate(-790.622 -258.925)" fill="#fff"/>
        <g id="Group_91" data-name="Group 91">
          <g id="Group_89" data-name="Group 89" transform="translate(2.812 6.555)">
            <g id="Group_85" data-name="Group 85" transform="translate(0 0.061)">
              <path id="Path_90" data-name="Path 90" d="M796.779,266.091a.976.976,0,0,0-.176.266s.023.054.071.053.091-.053.148-.011a.114.114,0,0,0,.148.011c.044-.032.075-.064.131-.04a.062.062,0,0,0,.076-.013s-.075-.221-.235-.266C796.943,266.091,796.769,266.1,796.779,266.091Z" transform="translate(-796.575 -266.063)" fill="#fff"/>
              <path id="Path_91" data-name="Path 91" d="M796.687,266.238a.17.17,0,0,1-.1-.039.047.047,0,0,0-.03-.011.112.112,0,0,0-.041.012.172.172,0,0,1-.059.015h0a.109.109,0,0,1-.1-.07.031.031,0,0,1,0-.019.967.967,0,0,1,.181-.276.028.028,0,0,1,.012-.009.028.028,0,0,1,.019,0h.026l.128,0h.008c.172.049.25.275.253.284a.027.027,0,0,1,0,.026.079.079,0,0,1-.065.032.1.1,0,0,1-.045-.011c-.033-.012-.05,0-.088.026l-.016.012A.136.136,0,0,1,796.687,266.238Zm-.131-.106a.1.1,0,0,1,.063.022c.045.034.078.038.115.011l.015-.011a.159.159,0,0,1,.1-.042.128.128,0,0,1,.047.01h0a.049.049,0,0,0,.03,0,.4.4,0,0,0-.2-.23c-.022,0-.115,0-.149,0a.938.938,0,0,0-.157.235.05.05,0,0,0,.039.027.135.135,0,0,0,.041-.011A.154.154,0,0,1,796.556,266.132Z" transform="translate(-796.356 -265.84)" fill="#fff"/>
            </g>
            <g id="Group_86" data-name="Group 86" transform="translate(0.183 0.1)">
              <path id="Path_92" data-name="Path 92" d="M798.063,266.373a.311.311,0,0,0-.067.174s.05-.115.078-.172C798.078,266.368,798.066,266.369,798.063,266.373Z" transform="translate(-797.996 -266.35)" fill="#fff"/>
              <path id="Path_93" data-name="Path 93" d="M798.491,266.2c0-.008-.01,0-.012,0a.355.355,0,0,0-.034.22S798.475,266.271,798.491,266.2Z" transform="translate(-798.39 -266.196)" fill="#fff"/>
              <path id="Path_94" data-name="Path 94" d="M799.484,266.326a.3.3,0,0,0,.047.045c-.025-.035-.047-.073-.072-.108a.006.006,0,0,0-.007,0l-.009-.01s-.011,0-.009.007a1.728,1.728,0,0,1,.081.174A.848.848,0,0,0,799.484,266.326Z" transform="translate(-799.274 -266.246)" fill="#fff"/>
            </g>
            <g id="Group_87" data-name="Group 87" transform="translate(0.028 0.089)" opacity="0.5">
              <path id="Path_95" data-name="Path 95" d="M796.779,266.091a.976.976,0,0,0-.176.266s.023.054.071.053.091-.053.148-.011a.114.114,0,0,0,.148.011c.044-.032.075-.064.131-.04a.062.062,0,0,0,.076-.013s-.075-.221-.235-.266C796.943,266.091,796.769,266.1,796.779,266.091Z" transform="translate(-796.603 -266.091)" fill="#fff"/>
            </g>
            <g id="Group_88" data-name="Group 88" transform="translate(0.113)">
              <path id="Path_96" data-name="Path 96" d="M797.844,265.492c0,.043-.075.081-.171.084s-.175-.029-.177-.072.075-.081.171-.085S797.842,265.449,797.844,265.492Z" transform="translate(-797.482 -265.405)" fill="#fff"/>
              <path id="Path_97" data-name="Path 97" d="M797.55,265.48c-.1,0-.175-.036-.176-.086,0-.027.019-.051.057-.07a.325.325,0,0,1,.128-.029c.107,0,.189.034.191.085,0,.027-.019.052-.057.07a.316.316,0,0,1-.128.029Zm.022-.157h-.013a.279.279,0,0,0-.116.026c-.027.013-.042.029-.042.044,0,.03.068.062.162.058a.284.284,0,0,0,.117-.026c.027-.013.042-.029.041-.044S797.66,265.322,797.573,265.322Z" transform="translate(-797.374 -265.295)" fill="#fff"/>
            </g>
            <path id="Path_98" data-name="Path 98" d="M798.029,265.381c0,.037-.063.069-.144.071s-.147-.024-.149-.06.063-.068.144-.071S798.028,265.345,798.029,265.381Z" transform="translate(-797.582 -265.318)" fill="#fff"/>
            <path id="Path_99" data-name="Path 99" d="M797.2,267.256c-.02.006-.031.032-.04.048a.183.183,0,0,0-.014.033l0,.005c-.006.013-.019.041,0,.051s.056-.052.064-.067S797.231,267.249,797.2,267.256Z" transform="translate(-797.047 -267.037)" fill="#fff" opacity="0.8"/>
            <path id="Path_100" data-name="Path 100" d="M798.122,267.622c0-.011-.019,0-.022,0a.09.09,0,0,0-.013.053.031.031,0,0,0,.007.025s.012,0,.016,0A.09.09,0,0,0,798.122,267.622Z" transform="translate(-797.893 -267.358)" fill="#fff" opacity="0.8"/>
            <path id="Path_101" data-name="Path 101" d="M798.856,267.227c0-.033-.039-.124-.084-.092a.04.04,0,0,0-.012.015l0,0,0,0a.185.185,0,0,0-.006.034.18.18,0,0,0,0,.048.078.078,0,0,0,.01.044.05.05,0,0,0,.067.015A.074.074,0,0,0,798.856,267.227Z" transform="translate(-798.48 -266.924)" fill="#fff" opacity="0.8"/>
          </g>
          <g id="Group_90" data-name="Group 90">
            <path id="Path_102" data-name="Path 102" d="M777.147,209.444c0,1.625-1.347,3.7-3.009,3.7s-3.008-2.074-3.008-3.7a3.009,3.009,0,0,1,6.017,0Z" transform="translate(-771.13 -206.502)" fill="#fff"/>
            <path id="Path_103" data-name="Path 103" d="M774.138,206.5a2.976,2.976,0,0,0-3.008,2.942c0,1.625,1.347,3.7,3.008,3.7s3.009-2.074,3.009-3.7A2.976,2.976,0,0,0,774.138,206.5Zm1.7,3.651a3.632,3.632,0,0,1-.258.751,2.277,2.277,0,0,1-.409.619,2,2,0,0,1-1.356.555,2.176,2.176,0,0,1-1.429-.423,2.549,2.549,0,0,1-.818-1.434,2.857,2.857,0,0,1,.757-2.878,2.615,2.615,0,0,1,1.647-.531,2.013,2.013,0,0,1,1.241.427,2.221,2.221,0,0,1,.664,1.285A3.962,3.962,0,0,1,775.835,210.153Z" transform="translate(-771.13 -206.502)" fill="#fff"/>
            <path id="Path_104" data-name="Path 104" d="M774.138,206.5a2.976,2.976,0,0,0-3.008,2.942c0,1.625,1.347,3.7,3.008,3.7s3.009-2.074,3.009-3.7A2.976,2.976,0,0,0,774.138,206.5Zm2.449,4.2a3.116,3.116,0,0,1-.387.879,4.18,4.18,0,0,1-.713.743.012.012,0,0,1-.008,0,1.667,1.667,0,0,1-.632.415.012.012,0,0,1-.015-.011.646.646,0,0,1,.131-.288c-.058.049-.118.1-.18.141a2.983,2.983,0,0,1-.264.173.806.806,0,0,1-.269.115.423.423,0,0,1-.383-.217c-.087-.126-.142-.271-.232-.4a1.1,1.1,0,0,0,.069.343,1.064,1.064,0,0,1,.1.289.012.012,0,0,1-.012.012c-.23-.029-.37-.228-.542-.362a2.947,2.947,0,0,0,.279.362.012.012,0,0,1-.014.017,1.261,1.261,0,0,1-.268-.113,3.391,3.391,0,0,1-1.313-1.407,4,4,0,0,1-.59-1.671,3.116,3.116,0,0,1,.341-1.663,2.228,2.228,0,0,1,1.216-1.148,2.942,2.942,0,0,1,1.7-.17,2.9,2.9,0,0,1,1.529.805,2.6,2.6,0,0,1,.681,1.461,3.062,3.062,0,0,1,0,.817A5.373,5.373,0,0,1,776.587,210.7Z" transform="translate(-771.13 -206.502)" fill="#fff"/>
            <path id="Path_105" data-name="Path 105" d="M777.986,210.885a.943.943,0,0,0-.595-.182,2.075,2.075,0,0,0-1.734.978,2.308,2.308,0,0,0-.27.631,3.272,3.272,0,0,0-.1.962,3.554,3.554,0,0,0,.185.89c.067.182.3.756.582.637.206-.087.131-.525.128-.695a4.715,4.715,0,0,1,.045-1.054,2.054,2.054,0,0,1,.664-1.148,4.781,4.781,0,0,1,.69-.441c.166-.1.525-.281.431-.527A.18.18,0,0,0,777.986,210.885Z" transform="translate(-774.822 -210.235)" fill="#fff" opacity="0.4"/>
            <path id="Path_106" data-name="Path 106" d="M782.477,248.3a.224.224,0,0,0-.043-.058.237.237,0,0,0-.393.17c0,.155.226.314.367.225A.262.262,0,0,0,782.477,248.3Z" transform="translate(-780.824 -243.535)" fill="#fff" opacity="0.4"/>
          </g>
        </g>
      </g>
      <g id="Group_93" data-name="Group 93" transform="translate(2.765 9.894)">
        <path id="Path_107" data-name="Path 107" d="M805,336.968h-.86c0,1.416,0,2.8,0,4.193,0,.475.015.951-.005,1.426-.035.837-.506,1.334-1.21,1.306-.672-.026-1.091-.5-1.1-1.317-.014-1.622,0-3.243-.007-4.865,0-.219-.021-.438-.038-.768h-3.068a7.134,7.134,0,0,1,.3-.8c.451-.836.866-1.7,1.4-2.484a3.557,3.557,0,0,0,.478-2.487,1.567,1.567,0,0,0-.474-.828c-1.275-1.3-2.576-2.564-3.865-3.846-.689-.686-.8-1.392-.325-1.9.516-.55,1.227-.475,1.961.287.948.985,1.853,2.012,2.508,2.728a28.327,28.327,0,0,1,7.678-.026c.764-.8,1.761-1.893,2.809-2.934a1.1,1.1,0,0,1,1.963.424,1.679,1.679,0,0,1-.423,1.242c-1.214,1.313-2.5,2.56-3.759,3.832a2.6,2.6,0,0,0-.436,2.974c.514.961,1.056,1.907,1.581,2.863.129.235.239.481.435.879h-3.154c0,.69,0,1.265,0,1.84q0,1.762,0,3.523c0,1.145-.381,1.679-1.177,1.664-.778-.015-1.141-.555-1.143-1.71q-.006-2.474-.011-4.949A1.937,1.937,0,0,0,805,336.968Z" transform="translate(-795.931 -320.925)" fill="#fff" fill-rule="evenodd"/>
        <path id="Path_108" data-name="Path 108" d="M978.875,327.548a15.72,15.72,0,0,1,7,.08c.9-.958,1.845-1.987,2.82-2.986.682-.7,1.308-.764,1.818-.253a1.293,1.293,0,0,1-.195,1.918c-1.3,1.306-2.64,2.579-3.91,3.915a1.982,1.982,0,0,0-.508,1.226c-.04,3.493-.023,6.988-.023,10.482a6.3,6.3,0,0,1-.018.754,1.1,1.1,0,0,1-1.175,1.071,1.033,1.033,0,0,1-1.1-1.12c-.022-1.453-.015-2.907-.011-4.36a1.3,1.3,0,0,0-.841-1.4,1.277,1.277,0,0,0-1.746,1.3c-.027,1.369,0,2.739-.01,4.109-.006.96-.458,1.5-1.2,1.478-.72-.024-1.088-.508-1.089-1.491-.006-3.606.016-7.212-.027-10.817a2.108,2.108,0,0,0-.537-1.3c-1.247-1.32-2.567-2.571-3.853-3.855-.676-.674-.763-1.4-.246-1.9s1.171-.412,1.843.242c.962.935,1.914,1.88,2.872,2.82A.6.6,0,0,0,978.875,327.548Z" transform="translate(-953.865 -320.773)" fill="#fff" fill-rule="evenodd"/>
        <path id="Path_109" data-name="Path 109" d="M848.435,297.438a2.761,2.761,0,0,1,2.714-2.819,2.786,2.786,0,1,1-2.714,2.819Z" transform="translate(-842.581 -294.618)" fill="#fff" fill-rule="evenodd"/>
        <path id="Path_110" data-name="Path 110" d="M1030.861,297.369a2.782,2.782,0,0,1-2.718,2.826,2.786,2.786,0,1,1-.072-5.571A2.762,2.762,0,0,1,1030.861,297.369Z" transform="translate(-999.726 -294.624)" fill="#fff" fill-rule="evenodd"/>
      </g>
      <g id="Group_101" data-name="Group 101" transform="translate(36.096 0)">
        <path id="Path_111" data-name="Path 111" d="M1117.724,272.031a.056.056,0,0,1-.023,0,.06.06,0,0,1-.034-.079,1.207,1.207,0,0,0-.255-1.073l-.049-.083a3.671,3.671,0,0,1-.5-1.284,4.388,4.388,0,0,1,.364-2.109,3.36,3.36,0,0,0,.229-2.439.061.061,0,0,1,.113-.045,3.5,3.5,0,0,1-.227,2.523,4.3,4.3,0,0,0-.359,2.05,3.551,3.551,0,0,0,.484,1.242c.016.028.032.055.048.083a1.317,1.317,0,0,1,.264,1.181A.06.06,0,0,1,1117.724,272.031Z" transform="translate(-1114.389 -258.298)" fill="#fff"/>
        <g id="Group_100" data-name="Group 100">
          <g id="Group_98" data-name="Group 98" transform="translate(2.812 6.554)">
            <g id="Group_94" data-name="Group 94" transform="translate(0 0.061)">
              <path id="Path_112" data-name="Path 112" d="M1120.543,265.463a.977.977,0,0,0-.177.267s.022.054.071.053.091-.053.148-.011a.113.113,0,0,0,.148.011c.044-.032.075-.064.131-.04a.062.062,0,0,0,.076-.013s-.075-.221-.235-.266C1120.707,265.463,1120.533,265.467,1120.543,265.463Z" transform="translate(-1120.339 -265.435)" fill="#fff"/>
              <path id="Path_113" data-name="Path 113" d="M1120.451,265.611a.17.17,0,0,1-.1-.039.047.047,0,0,0-.03-.011.112.112,0,0,0-.042.012.17.17,0,0,1-.059.015h0a.108.108,0,0,1-.095-.07.031.031,0,0,1,0-.019.964.964,0,0,1,.181-.276.029.029,0,0,1,.011-.009.03.03,0,0,1,.019,0h.026l.128,0h.008c.172.049.25.275.253.284a.028.028,0,0,1,0,.026.079.079,0,0,1-.064.032.1.1,0,0,1-.045-.011c-.033-.012-.05,0-.088.026l-.016.012A.133.133,0,0,1,1120.451,265.611Zm-.13-.106a.1.1,0,0,1,.063.022c.045.034.078.038.115.011l.016-.011a.159.159,0,0,1,.1-.042.127.127,0,0,1,.047.01h0a.05.05,0,0,0,.03,0,.4.4,0,0,0-.2-.23c-.022,0-.115,0-.149,0a.936.936,0,0,0-.157.235.05.05,0,0,0,.039.027.139.139,0,0,0,.041-.011A.153.153,0,0,1,1120.32,265.505Z" transform="translate(-1120.12 -265.213)" fill="#fff"/>
            </g>
            <g id="Group_95" data-name="Group 95" transform="translate(0.183 0.101)">
              <path id="Path_114" data-name="Path 114" d="M1121.824,265.746a.312.312,0,0,0-.067.174s.05-.115.078-.172C1121.84,265.741,1121.829,265.742,1121.824,265.746Z" transform="translate(-1121.757 -265.723)" fill="#fff"/>
              <path id="Path_115" data-name="Path 115" d="M1122.257,265.573c0-.008-.01,0-.012,0a.353.353,0,0,0-.034.22S1122.241,265.644,1122.257,265.573Z" transform="translate(-1122.155 -265.569)" fill="#fff"/>
              <path id="Path_116" data-name="Path 116" d="M1123.25,265.7a.292.292,0,0,0,.048.045c-.025-.035-.046-.073-.072-.108,0,0,0,0-.007,0l-.008-.01s-.011,0-.009.007a1.76,1.76,0,0,1,.081.174A.787.787,0,0,0,1123.25,265.7Z" transform="translate(-1123.04 -265.617)" fill="#fff"/>
            </g>
            <g id="Group_96" data-name="Group 96" transform="translate(0.028 0.089)" opacity="0.5">
              <path id="Path_117" data-name="Path 117" d="M1120.543,265.463a.977.977,0,0,0-.177.267s.022.054.071.053.091-.053.148-.011a.113.113,0,0,0,.148.011c.044-.032.075-.064.131-.04a.062.062,0,0,0,.076-.013s-.075-.221-.235-.266C1120.707,265.463,1120.533,265.467,1120.543,265.463Z" transform="translate(-1120.367 -265.463)" fill="#fff"/>
            </g>
            <g id="Group_97" data-name="Group 97" transform="translate(0.113)">
              <path id="Path_118" data-name="Path 118" d="M1121.616,264.864c0,.043-.075.081-.171.084s-.175-.029-.177-.072.075-.081.171-.085S1121.614,264.821,1121.616,264.864Z" transform="translate(-1121.254 -264.777)" fill="#fff"/>
              <path id="Path_119" data-name="Path 119" d="M1121.314,264.851c-.1,0-.175-.036-.176-.086,0-.027.019-.051.056-.07a.329.329,0,0,1,.128-.029c.107,0,.189.034.191.086,0,.027-.019.052-.057.07a.317.317,0,0,1-.128.029Zm.023-.157h-.013a.278.278,0,0,0-.116.026c-.027.013-.042.029-.042.044,0,.03.069.062.162.058a.283.283,0,0,0,.117-.026c.027-.013.041-.029.041-.044S1121.424,264.694,1121.337,264.694Z" transform="translate(-1121.138 -264.665)" fill="#fff"/>
            </g>
            <path id="Path_120" data-name="Path 120" d="M1121.8,264.754c0,.037-.063.069-.144.071s-.147-.024-.149-.06.063-.068.144-.071S1121.795,264.718,1121.8,264.754Z" transform="translate(-1121.349 -264.691)" fill="#fff"/>
            <path id="Path_121" data-name="Path 121" d="M1120.969,266.628c-.02.006-.031.032-.04.048a.194.194,0,0,0-.014.033l0,.005c-.006.013-.019.041,0,.051s.056-.052.063-.067S1121,266.621,1120.969,266.628Z" transform="translate(-1120.815 -266.409)" fill="#fff" opacity="0.8"/>
            <path id="Path_122" data-name="Path 122" d="M1121.894,267c0-.011-.019,0-.022,0a.088.088,0,0,0-.013.053.031.031,0,0,0,.007.025s.012,0,.016,0A.092.092,0,0,0,1121.894,267Z" transform="translate(-1121.664 -266.731)" fill="#fff" opacity="0.8"/>
            <path id="Path_123" data-name="Path 123" d="M1122.62,266.6c0-.033-.039-.124-.084-.091a.038.038,0,0,0-.011.015l0,0v0a.181.181,0,0,0-.006.034.178.178,0,0,0,0,.048.079.079,0,0,0,.01.044.05.05,0,0,0,.067.015A.071.071,0,0,0,1122.62,266.6Z" transform="translate(-1122.244 -266.296)" fill="#fff" opacity="0.8"/>
          </g>
          <g id="Group_99" data-name="Group 99">
            <path id="Path_124" data-name="Path 124" d="M1100.916,208.816c0,1.625-1.347,3.7-3.009,3.7s-3.008-2.074-3.008-3.7a3.009,3.009,0,0,1,6.017,0Z" transform="translate(-1094.899 -205.874)" fill="#fff"/>
            <path id="Path_125" data-name="Path 125" d="M1097.9,205.875a2.976,2.976,0,0,0-3.008,2.942c0,1.625,1.347,3.7,3.008,3.7s3.009-2.074,3.009-3.7A2.975,2.975,0,0,0,1097.9,205.875Zm1.7,3.651a3.623,3.623,0,0,1-.258.751,2.271,2.271,0,0,1-.409.619,2.005,2.005,0,0,1-1.356.555,2.176,2.176,0,0,1-1.429-.423,2.549,2.549,0,0,1-.818-1.434,2.856,2.856,0,0,1,.757-2.878,2.615,2.615,0,0,1,1.647-.531,2.013,2.013,0,0,1,1.241.427,2.222,2.222,0,0,1,.664,1.285A3.964,3.964,0,0,1,1099.6,209.526Z" transform="translate(-1094.895 -205.875)" fill="#fff"/>
            <path id="Path_126" data-name="Path 126" d="M1097.9,205.875a2.976,2.976,0,0,0-3.008,2.942c0,1.625,1.347,3.7,3.008,3.7s3.009-2.074,3.009-3.7A2.975,2.975,0,0,0,1097.9,205.875Zm2.449,4.2a3.125,3.125,0,0,1-.387.879,4.178,4.178,0,0,1-.713.743.012.012,0,0,1-.008,0,1.664,1.664,0,0,1-.632.415.012.012,0,0,1-.015-.011.647.647,0,0,1,.131-.288c-.058.049-.118.1-.18.141a3,3,0,0,1-.263.173.806.806,0,0,1-.269.115.423.423,0,0,1-.383-.217c-.087-.126-.142-.271-.232-.4a1.1,1.1,0,0,0,.069.343,1.065,1.065,0,0,1,.1.289.012.012,0,0,1-.012.012c-.23-.029-.37-.228-.542-.362a2.894,2.894,0,0,0,.279.362.012.012,0,0,1-.014.017,1.262,1.262,0,0,1-.268-.113,3.391,3.391,0,0,1-1.313-1.407,3.992,3.992,0,0,1-.59-1.671,3.117,3.117,0,0,1,.341-1.663,2.229,2.229,0,0,1,1.216-1.148,2.942,2.942,0,0,1,1.7-.17,2.9,2.9,0,0,1,1.529.805,2.594,2.594,0,0,1,.681,1.461,3.055,3.055,0,0,1-.005.817A5.445,5.445,0,0,1,1100.353,210.071Z" transform="translate(-1094.895 -205.875)" fill="#fff"/>
            <path id="Path_127" data-name="Path 127" d="M1101.758,210.258a.943.943,0,0,0-.595-.182,2.074,2.074,0,0,0-1.734.978,2.3,2.3,0,0,0-.27.631,3.258,3.258,0,0,0-.1.962,3.553,3.553,0,0,0,.185.89c.067.182.3.756.583.637.206-.087.131-.525.128-.695a4.728,4.728,0,0,1,.045-1.054,2.055,2.055,0,0,1,.664-1.149,4.8,4.8,0,0,1,.689-.441c.166-.1.525-.281.431-.527A.2.2,0,0,0,1101.758,210.258Z" transform="translate(-1098.594 -209.608)" fill="#fff" opacity="0.4"/>
            <path id="Path_128" data-name="Path 128" d="M1106.241,247.673a.221.221,0,0,0-.043-.058.237.237,0,0,0-.393.17c0,.155.226.313.367.225A.263.263,0,0,0,1106.241,247.673Z" transform="translate(-1104.589 -242.908)" fill="#fff" opacity="0.4"/>
          </g>
        </g>
      </g>
    </g>
  </g>
</svg>
