<svg xmlns="http://www.w3.org/2000/svg" width="511.872" height="512" viewBox="0 0 511.872 512">
  <g id="Mortality-rate-attributed-to-unintentional-poisoning_copy" data-name="Mortality-rate-attributed-to-unintentional-poisoning copy" transform="translate(-166.734 -118.836)">
    <path id="Path_35" data-name="Path 35" d="M422.394,630.836c-141.913-.1-255.181-114.394-255.658-256.777C166.273,236,281.59,117.566,424.035,118.846c140.676,1.261,254.734,114.942,254.571,255.845C678.442,516.842,564.323,630.935,422.394,630.836Zm-179.986-256.9c-.506,99.453,79.83,181.07,178.83,181.677,99.621.614,181.54-80.2,182.147-179.7.607-99.155-80.086-180.816-179.171-181.32C323.727,194.084,242.918,273.8,242.408,373.931Z" transform="translate(0 0)" fill="#2a7c9b" fill-rule="evenodd"/>
    <path id="Path_36" data-name="Path 36" d="M429.885,329.424c-4.673-2.9-9.092-6.356-14.065-8.592-13.181-5.93-26.458-11.71-39.974-16.82-10.637-4.022-13-1.9-13.074,9.747-.109,17.686-8.087,25.586-25.217,24.972-14.9-.533-22.762-8.693-22.9-23.768-.134-14.264-1.131-15.379-14.378-10.147C282.592,311.8,265.3,319.76,248,327.233c-3.744-13.583,32.232-48.3,59.866-56.987C364.105,252.576,418.351,287.794,429.885,329.424Z" transform="translate(83.709 151.431)" fill="#2a7c9b" fill-rule="evenodd"/>
    <path id="Path_37" data-name="Path 37" d="M306.618,217.732c-5.33,2.449-9.812,6.372-12.348,5.366-15.006-5.926-30.18-11.941-44.047-20.062-8.9-5.212.545-11.608,2.6-17.26,1.871-5.137,5.36-5.382,9.569-2.388,12.356,8.794,24.8,17.465,37.091,26.349C301.478,211.179,302.861,213.46,306.618,217.732Z" transform="translate(82.275 64.598)" fill="#2a7c9b" fill-rule="evenodd"/>
    <path id="Path_38" data-name="Path 38" d="M315.24,226.719c-1.478-3.017-3.714-5.924-4.178-9.088-.345-2.374.823-6.112,2.642-7.473,12.421-9.289,25.132-18.2,37.922-26.975,1.66-1.141,5.648-1.873,6.27-1.054,3.58,4.7,7.361,9.654,9.064,15.144.527,1.707-4.791,6.185-8.182,7.961-10.438,5.47-21.226,10.278-31.907,15.274-2.733,1.277-5.585,2.295-8.383,3.432Q316.864,225.333,315.24,226.719Z" transform="translate(148.855 64.939)" fill="#2a7c9b" fill-rule="evenodd"/>
    <path id="Path_39" data-name="Path 39" d="M369.313,229.772c.456,6.159-6.088,10.864-10.976,8.3a91.527,91.527,0,0,1-10.992-7.2c-7.018-5.1-12.717-7.355-21.284-.5-9.109,7.3-9.9-4.943-13.492-9.277-3.227-3.9-3.238-8.49,2.9-10.147,7.037-1.9,15.539-6.528,21.043-4.253,11.282,4.665,21.021,13.1,31.3,20.123C368.757,227.477,369.01,229.15,369.313,229.772Z" transform="translate(148.261 90.009)" fill="#2a7c9b" fill-rule="evenodd"/>
    <path id="Path_40" data-name="Path 40" d="M249.514,242.165c-.945-2.55-2.5-5.058-2.672-7.657-.2-3.057-.326-7.72,1.468-9.04,9.439-6.966,18.795-15.355,29.59-18.7,6.866-2.127,16.186,3.671,24.409,5.914-1.861,5.7-3.242,11.647-5.938,16.922-.637,1.247-7.059,1.531-8.492.03-6.5-6.8-12.338-4.744-18.736-.318-5.212,3.6-10.655,6.879-16,10.3Q251.328,240.888,249.514,242.165Z" transform="translate(82.541 90.242)" fill="#2a7c9b" fill-rule="evenodd"/>
  </g>
</svg>
