<svg xmlns="http://www.w3.org/2000/svg" width="83.78" height="76.524" viewBox="0 0 83.78 76.524">
  <g id="p-icon1" transform="translate(-648.451 -413.514)">
    <path id="Path_39" data-name="Path 39" d="M1068.964,572.69c-3.773,2.726-1.147,6.62-1.754,9.924-.5,2.734,1.039,6.44-3.81,6.584-4.866.145-3.875-3.428-3.99-6.3-.338-8.508,2.487-16.861,1.238-25.414,2.734-2.141,5.479-3.624,8.316-.153Q1068.964,565.011,1068.964,572.69Z" transform="translate(-336.733 -116.151)" fill="#fff" fill-rule="evenodd"/>
    <path id="Path_40" data-name="Path 40" d="M655.8,563.133c1.216,9.518,2.515,19.03,2.369,28.663-.044,2.866-1.838,3.364-4.188,3.37-2.445.007-3.256-1.432-3.29-3.54-.052-3.254.042-6.51-.044-9.762-.038-1.447.614-3.567-2.2-3.184V563.32l.357-.462.544.214C651.506,562.553,653.658,562.238,655.8,563.133Z" transform="translate(0 -122.141)" fill="#fff" fill-rule="evenodd"/>
    <path id="Path_41" data-name="Path 41" d="M815.5,554.833q0-4.535,0-9.069c0-2.489.541-4.965-3.159-5.8-2.547-.575-3.009-3.218-2.983-5.707.053-5.116.112-10.234.025-15.348-.074-4.308,1.78-6.547,6.207-6.476,21.983.352,19.631-3.041,19.613,18.17,0,3.94,1.263,8.643-4.759,10.1-2.4.581-1.268,3.169-1.3,4.837-.128,6.508-.226,13.028,0,19.531.188,5.3-2.744,6.009-7.078,6.014-4.191,0-6.786-1.016-6.6-5.787C815.608,561.815,815.5,558.323,815.5,554.833Z" transform="translate(-131.854 -81.048)" fill="#fff" fill-rule="evenodd"/>
    <path id="Path_42" data-name="Path 42" d="M963.771,569.844c-.326-9.5,2.545-18.833,1.5-28.384-.293-2.673-.259-5.37,3.747-4.743,3.552.558,9.551-1.977,9.508,3.81-.045,6.244,3.491,12.968-3.511,19.3-3.072,2.776-.723,11.476-.971,17.482-.185,4.535-4.061,6.749-8.144,4.9-1.839-.832-2.1-2.314-2.119-3.991C963.757,575.425,963.774,572.634,963.771,569.844Z" transform="translate(-258.364 -100.882)" fill="#fff" fill-rule="evenodd"/>
    <path id="Path_43" data-name="Path 43" d="M714.98,568.485c-.362-4.238.361-8.457-3.741-13.079-3.281-3.7-1.92-11.332-.4-16.818,1.3-4.675,6.388-2.168,9.827-2.573,3.886-.457,3.164,2.635,3,4.722-.931,11.618,2.711,22.979,1.806,34.6-.27,3.474-.147,6.375-5.016,6.479-5.08.109-5.784-2.569-5.5-6.589C715.1,573.148,714.98,571.05,714.98,568.485Z" transform="translate(-49.798 -100.125)" fill="#fff" fill-rule="evenodd"/>
    <path id="Path_44" data-name="Path 44" d="M846.367,429.009c-4.362-.275-7.3-2.607-7.517-7.263-.237-4.974,2.639-8.1,7.482-8.228,4.936-.132,7.9,3.2,7.822,7.951C854.085,425.849,851.353,428.71,846.367,429.009Z" transform="translate(-156.009)" fill="#fff" fill-rule="evenodd"/>
    <path id="Path_45" data-name="Path 45" d="M748.835,466.7c-.456,3.631-2.428,5.967-6.218,5.929a5.524,5.524,0,0,1-5.8-5.617c-.192-3.751,2.137-6.249,5.771-6.368S748.419,462.888,748.835,466.7Z" transform="translate(-72.405 -38.62)" fill="#fff" fill-rule="evenodd"/>
    <path id="Path_46" data-name="Path 46" d="M971.024,466.741c-.645,3.629-2.557,6.068-6.405,5.894a5.6,5.6,0,0,1-5.746-5.714c-.153-3.86,2.345-6.156,5.918-6.26C968.482,460.551,970.518,463.088,971.024,466.741Z" transform="translate(-254.366 -38.631)" fill="#fff" fill-rule="evenodd"/>
    <path id="Path_47" data-name="Path 47" d="M659.89,517.77a11.742,11.742,0,0,1-6.447-.061c1.25-.43,2.5-.86,3.807-1.308-1.039-1.22-2.285-2.22-2.9-3.518-.934-1.955.063-3.635,1.691-4.818a3.912,3.912,0,0,1,5.13.22c1.771,1.411,1.547,3.03.867,4.991C661.477,514.883,658.466,515.294,659.89,517.77Z" transform="translate(-4.091 -76.778)" fill="#fff" fill-rule="evenodd"/>
    <path id="Path_48" data-name="Path 48" d="M1066.667,511.419c-.66,4.321-3.243,5.328-7.109,4.125-.863-2.471-3.116-5.149.615-7.118C1063.489,506.678,1065.311,508.658,1066.667,511.419Z" transform="translate(-335.676 -77.234)" fill="#fff" fill-rule="evenodd"/>
  </g>
</svg>
