<svg id="printer" xmlns="http://www.w3.org/2000/svg" width="18.327" height="19.282" viewBox="0 0 18.327 19.282">
  <g id="Group_68" data-name="Group 68">
    <path id="Path_16" data-name="Path 16" d="M27.428,3.952h-.5v-1.1A2.853,2.853,0,0,0,24.083,0H18.1a2.853,2.853,0,0,0-2.849,2.849v1.1H14.8A2.853,2.853,0,0,0,11.95,6.8v4.6A2.853,2.853,0,0,0,14.8,14.247h.448V17.86a1.426,1.426,0,0,0,1.423,1.423h8.836a1.426,1.426,0,0,0,1.423-1.423V14.247h.5A2.853,2.853,0,0,0,30.277,11.4V6.8A2.853,2.853,0,0,0,27.428,3.952Zm-11.1-1.1a1.774,1.774,0,0,1,1.77-1.77h5.979a1.774,1.774,0,0,1,1.77,1.77v1.1H16.326Zm9.523,15.018a.346.346,0,0,1-.344.344H16.67a.346.346,0,0,1-.344-.344V11.909h9.523ZM29.2,11.4a1.774,1.774,0,0,1-1.77,1.77h-.5V11.909h.711a.54.54,0,1,0,0-1.079H14.456a.54.54,0,1,0,0,1.079h.8v1.263H14.8a1.774,1.774,0,0,1-1.77-1.77v-4.6a1.774,1.774,0,0,1,1.77-1.77H27.428a1.774,1.774,0,0,1,1.77,1.77Z" transform="translate(-11.95)" fill="#fff"/>
    <path id="Path_17" data-name="Path 17" d="M141.189,338.479h6.87a.54.54,0,0,0,0-1.079h-6.87a.54.54,0,0,0,0,1.079Z" transform="translate(-135.507 -323.916)" fill="#fff"/>
    <path id="Path_18" data-name="Path 18" d="M149.063,392.6h-6.874a.54.54,0,0,0,0,1.079h6.87a.54.54,0,0,0,0-1.079Z" transform="translate(-136.467 -376.91)" fill="#fff"/>
    <path id="Path_19" data-name="Path 19" d="M359.684,151.9H358.59a.54.54,0,1,0,0,1.079h1.095a.54.54,0,1,0,0-1.079Z" transform="translate(-344.219 -145.829)" fill="#fff"/>
  </g>
</svg>
