<svg id="pulse-line" xmlns="http://www.w3.org/2000/svg" width="216.828" height="136.52" viewBox="0 0 216.828 136.52">
  <g id="Group_103" data-name="Group 103" transform="translate(0 0)">
    <path id="Path_235" data-name="Path 235" d="M79.325,142.4c-3.8,0-7.1-1.694-7.868-5.416L60.795,85.94,53.773,98.057a8.25,8.25,0,0,1-6.912,4.187H8.032a8.032,8.032,0,1,1,0-16.064H42.271l15.265-25.8A8.027,8.027,0,0,1,72.31,62.834L78.764,94.02,93.483,12.36a7.922,7.922,0,0,1,7.909-6.482h.034a7.9,7.9,0,0,1,7.882,6.543l15.709,91.666,5.054-12.806a8.035,8.035,0,0,1,7.465-5.116H208.8a8.036,8.036,0,0,1,0,16.071H142.988L129.4,136.585a8.029,8.029,0,0,1-15.381-1.605L101.2,60.088,87.227,136.756c-.683,3.791-3.955,5.628-7.8,5.628A.265.265,0,0,1,79.325,142.4Z" transform="translate(0 -5.878)" fill="#fff"/>
  </g>
</svg>
