<svg id="pulse" xmlns="http://www.w3.org/2000/svg" width="180.798" height="150.664" viewBox="0 0 180.798 150.664">
  <g id="Group_104" data-name="Group 104" transform="translate(0 0)">
    <path id="Path_236" data-name="Path 236" d="M171.087,42.667H9.71A9.718,9.718,0,0,0,0,52.377V183.621a9.718,9.718,0,0,0,9.71,9.71H171.087a9.718,9.718,0,0,0,9.71-9.71V52.377A9.718,9.718,0,0,0,171.087,42.667Zm2.177,140.954a2.177,2.177,0,0,1-2.177,2.177H9.71a2.177,2.177,0,0,1-2.177-2.177V121.766H34.551a3.766,3.766,0,0,0,2.592-1.032L47.426,111l8.859,24.166a3.766,3.766,0,0,0,7.19-.377L75.709,85.644l5.623,85.171a3.768,3.768,0,0,0,7.337.934L107.5,114.873,117.846,135.1a3.767,3.767,0,0,0,6.765-.113l6.188-13.225h14.26a9.371,9.371,0,0,0,7.488,3.767c6.607,0,9.417-2.814,9.417-9.417a9.417,9.417,0,0,0-18.645-1.883H128.4A3.767,3.767,0,0,0,125,116.4l-3.959,8.441-10.923-21.406a3.766,3.766,0,0,0-6.93.531L87.574,151.07,81.63,61.089a3.767,3.767,0,0,0-7.428-.663L59.136,121.042l-6.6-18.012a3.767,3.767,0,0,0-6.125-1.439L33.048,114.232H7.533V52.377A2.177,2.177,0,0,1,9.71,50.2H171.087a2.177,2.177,0,0,1,2.177,2.177V183.621Z" transform="translate(0 -42.667)" fill="#fff"/>
  </g>
</svg>
