<svg id="qr-code_1_" data-name="qr-code (1)" xmlns="http://www.w3.org/2000/svg" width="25.279" height="25.279" viewBox="0 0 25.279 25.279">
  <rect id="Rectangle_30" data-name="Rectangle 30" width="0.79" height="1.975" transform="translate(15.01 9.085)" fill="#1885be"/>
  <rect id="Rectangle_31" data-name="Rectangle 31" width="0.79" height="1.975" transform="translate(16.59 9.085)" fill="#1885be"/>
  <rect id="Rectangle_32" data-name="Rectangle 32" width="0.79" height="0.79" transform="translate(15.01 11.85)" fill="#1885be"/>
  <rect id="Rectangle_33" data-name="Rectangle 33" width="0.79" height="0.79" transform="translate(16.59 11.85)" fill="#1885be"/>
  <rect id="Rectangle_34" data-name="Rectangle 34" width="0.79" height="0.79" transform="translate(12.245 13.43)" fill="#1885be"/>
  <rect id="Rectangle_35" data-name="Rectangle 35" width="0.79" height="0.79" transform="translate(10.27 21.329)" fill="#1885be"/>
  <rect id="Rectangle_36" data-name="Rectangle 36" width="0.79" height="0.79" transform="translate(16.59 13.43)" fill="#1885be"/>
  <rect id="Rectangle_37" data-name="Rectangle 37" width="0.79" height="0.79" transform="translate(15.01 15.01)" fill="#1885be"/>
  <rect id="Rectangle_38" data-name="Rectangle 38" width="0.79" height="0.79" transform="translate(16.59 15.01)" fill="#1885be"/>
  <path id="Path_58" data-name="Path 58" d="M.79.79H1.975V0H.395A.4.4,0,0,0,0,.395v1.58H.79Z" fill="#1885be"/>
  <path id="Path_59" data-name="Path 59" d="M60.58,0H59V.79h1.185V1.975h.79V.395A.4.4,0,0,0,60.58,0Z" transform="translate(-35.696)" fill="#1885be"/>
  <path id="Path_60" data-name="Path 60" d="M.79,59H0v1.58a.4.4,0,0,0,.395.395h1.58v-.79H.79Z" transform="translate(0 -35.696)" fill="#1885be"/>
  <path id="Path_61" data-name="Path 61" d="M60.185,60.185H59v.79h1.58a.4.4,0,0,0,.395-.395V59h-.79Z" transform="translate(-35.696 -35.696)" fill="#1885be"/>
  <path id="Path_62" data-name="Path 62" d="M4,4.395v4.74a.4.4,0,0,0,.395.395h4.74a.4.4,0,0,0,.395-.395V4.395A.4.4,0,0,0,9.135,4H4.395A.4.4,0,0,0,4,4.395Zm.79.395H8.74V8.74H4.79Z" transform="translate(-2.42 -2.42)" fill="#1885be"/>
  <path id="Path_63" data-name="Path 63" d="M9.975,8H8.395A.4.4,0,0,0,8,8.395v1.58a.4.4,0,0,0,.395.395h1.58a.4.4,0,0,0,.395-.395V8.395A.4.4,0,0,0,9.975,8ZM9.58,9.58H8.79V8.79h.79Z" transform="translate(-4.84 -4.84)" fill="#1885be"/>
  <path id="Path_64" data-name="Path 64" d="M46.395,9.53h4.74a.4.4,0,0,0,.395-.395V4.395A.4.4,0,0,0,51.135,4h-4.74A.4.4,0,0,0,46,4.395v4.74A.4.4,0,0,0,46.395,9.53Zm.395-4.74h3.95V8.74H46.79Z" transform="translate(-27.831 -2.42)" fill="#1885be"/>
  <path id="Path_65" data-name="Path 65" d="M51.975,8h-1.58A.4.4,0,0,0,50,8.395v1.58a.4.4,0,0,0,.395.395h1.58a.4.4,0,0,0,.395-.395V8.395A.4.4,0,0,0,51.975,8ZM51.58,9.58h-.79V8.79h.79Z" transform="translate(-30.251 -4.84)" fill="#1885be"/>
  <path id="Path_66" data-name="Path 66" d="M9.135,46H4.395A.4.4,0,0,0,4,46.395v4.74a.4.4,0,0,0,.395.395h4.74a.4.4,0,0,0,.395-.395v-4.74A.4.4,0,0,0,9.135,46ZM8.74,50.74H4.79V46.79H8.74Z" transform="translate(-2.42 -27.831)" fill="#1885be"/>
  <path id="Path_67" data-name="Path 67" d="M8.395,52.37h1.58a.4.4,0,0,0,.395-.395v-1.58A.4.4,0,0,0,9.975,50H8.395A.4.4,0,0,0,8,50.395v1.58A.4.4,0,0,0,8.395,52.37Zm.395-1.58h.79v.79H8.79Z" transform="translate(-4.84 -30.251)" fill="#1885be"/>
  <path id="Path_68" data-name="Path 68" d="M38.555,11.74H35.79V7H35v5.135a.4.4,0,0,0,.395.395h3.16Z" transform="translate(-21.175 -4.235)" fill="#1885be"/>
  <rect id="Rectangle_39" data-name="Rectangle 39" width="2.765" height="0.79" transform="translate(8.69 4.74)" fill="#1885be"/>
  <rect id="Rectangle_40" data-name="Rectangle 40" width="2.765" height="0.79" transform="translate(10.27 3.16)" fill="#1885be"/>
  <rect id="Rectangle_41" data-name="Rectangle 41" width="0.79" height="3.555" transform="translate(1.58 7.505)" fill="#1885be"/>
  <path id="Path_69" data-name="Path 69" d="M11.95,25H8v.79h3.555v1.58h.79V25.395A.4.4,0,0,0,11.95,25Z" transform="translate(-4.84 -15.125)" fill="#1885be"/>
  <rect id="Rectangle_42" data-name="Rectangle 42" width="0.79" height="0.79" transform="translate(3.555 7.9)" fill="#1885be"/>
  <rect id="Rectangle_43" data-name="Rectangle 43" width="0.79" height="3.16" transform="translate(8.295 7.11)" fill="#1885be"/>
  <rect id="Rectangle_44" data-name="Rectangle 44" width="3.555" height="0.79" transform="translate(8.295 11.06)" fill="#1885be"/>
  <path id="Path_70" data-name="Path 70" d="M57.975,29h-.79v3.95H56v.79h1.58a.4.4,0,0,0,.395-.395Z" transform="translate(-33.881 -17.545)" fill="#1885be"/>
  <rect id="Rectangle_45" data-name="Rectangle 45" width="0.79" height="0.79" transform="translate(10.27 7.11)" fill="#1885be"/>
  <rect id="Rectangle_46" data-name="Rectangle 46" width="0.79" height="3.16" transform="translate(1.58 13.035)" fill="#1885be"/>
  <rect id="Rectangle_47" data-name="Rectangle 47" width="3.555" height="0.79" transform="translate(1.58 16.59)" fill="#1885be"/>
  <path id="Path_71" data-name="Path 71" d="M47.58,24.975h.79v-1.58A.4.4,0,0,0,47.975,23H46v.79h1.58Z" transform="translate(-27.831 -13.915)" fill="#1885be"/>
  <rect id="Rectangle_48" data-name="Rectangle 48" width="0.79" height="0.79" transform="translate(3.555 13.035)" fill="#1885be"/>
  <rect id="Rectangle_49" data-name="Rectangle 49" width="0.79" height="3.16" transform="translate(7.9 12.64)" fill="#1885be"/>
  <rect id="Rectangle_50" data-name="Rectangle 50" width="3.555" height="0.79" transform="translate(7.9 16.59)" fill="#1885be"/>
  <rect id="Rectangle_51" data-name="Rectangle 51" width="3.555" height="0.79" transform="translate(3.16 15.01)" fill="#1885be"/>
  <rect id="Rectangle_52" data-name="Rectangle 52" width="0.79" height="1.58" transform="translate(8.295 20.539)" fill="#1885be"/>
  <rect id="Rectangle_53" data-name="Rectangle 53" width="3.555" height="0.79" transform="translate(7.9 18.959)" fill="#1885be"/>
  <path id="Path_72" data-name="Path 72" d="M29.345,40.37V38.395A.4.4,0,0,0,28.95,38H25v.79h3.555v1.58Z" transform="translate(-15.125 -22.99)" fill="#1885be"/>
  <rect id="Rectangle_54" data-name="Rectangle 54" width="0.79" height="0.79" transform="translate(10.27 12.64)" fill="#1885be"/>
  <rect id="Rectangle_55" data-name="Rectangle 55" width="0.79" height="0.79" transform="translate(5.925 13.43)" fill="#1885be"/>
  <rect id="Rectangle_56" data-name="Rectangle 56" width="0.79" height="2.765" transform="translate(23.304 20.934)" fill="#1885be"/>
  <rect id="Rectangle_57" data-name="Rectangle 57" width="1.185" height="0.79" transform="translate(21.329 22.909)" fill="#1885be"/>
  <rect id="Rectangle_58" data-name="Rectangle 58" width="0.79" height="1.58" transform="translate(21.329 20.539)" fill="#1885be"/>
  <path id="Path_73" data-name="Path 73" d="M53.74,43.395A.4.4,0,0,0,53.345,43H49v.79h3.95v2.37h.79Z" transform="translate(-29.646 -26.015)" fill="#1885be"/>
  <path id="Path_74" data-name="Path 74" d="M40.74,52.37V50.395A.4.4,0,0,0,40.345,50H36v.79h3.95v1.58Z" transform="translate(-21.78 -30.251)" fill="#1885be"/>
  <rect id="Rectangle_59" data-name="Rectangle 59" width="2.765" height="0.79" transform="translate(19.749 18.564)" fill="#1885be"/>
  <rect id="Rectangle_60" data-name="Rectangle 60" width="2.765" height="0.79" transform="translate(7.9 22.909)" fill="#1885be"/>
  <rect id="Rectangle_61" data-name="Rectangle 61" width="0.79" height="3.555" transform="translate(11.85 20.144)" fill="#1885be"/>
  <rect id="Rectangle_62" data-name="Rectangle 62" width="1.58" height="0.79" transform="translate(12.64 18.169)" fill="#1885be"/>
  <path id="Path_75" data-name="Path 75" d="M46.395,31.16H48.37v-.79H46.79V28H46v2.765A.4.4,0,0,0,46.395,31.16Z" transform="translate(-27.831 -16.94)" fill="#1885be"/>
  <rect id="Rectangle_63" data-name="Rectangle 63" width="1.975" height="0.79" transform="translate(19.749 11.85)" fill="#1885be"/>
  <rect id="Rectangle_64" data-name="Rectangle 64" width="1.185" height="0.79" transform="translate(21.329 7.9)" fill="#1885be"/>
  <rect id="Rectangle_65" data-name="Rectangle 65" width="0.79" height="1.975" transform="translate(23.304 7.9)" fill="#1885be"/>
  <rect id="Rectangle_66" data-name="Rectangle 66" width="0.79" height="0.79" transform="translate(21.329 9.875)" fill="#1885be"/>
  <path id="Path_76" data-name="Path 76" d="M39,8.53h1.58a.4.4,0,0,0,.395-.395V3h-.79V7.74H39Z" transform="translate(-23.595 -1.815)" fill="#1885be"/>
  <path id="Path_77" data-name="Path 77" d="M22.79,3.79h5.925V3h-6.32A.4.4,0,0,0,22,3.395V5.37h.79Z" transform="translate(-13.31 -1.815)" fill="#1885be"/>
  <path id="Path_78" data-name="Path 78" d="M25,18.555h2.765a.4.4,0,0,0,.395-.395V15h-.79v2.765H25Z" transform="translate(-15.125 -9.075)" fill="#1885be"/>
  <rect id="Rectangle_67" data-name="Rectangle 67" width="0.79" height="1.58" transform="translate(13.43 9.085)" fill="#1885be"/>
  <rect id="Rectangle_68" data-name="Rectangle 68" width="2.765" height="0.79" transform="translate(14.22 21.329)" fill="#1885be"/>
  <rect id="Rectangle_69" data-name="Rectangle 69" width="3.555" height="0.79" transform="translate(14.22 22.909)" fill="#1885be"/>
  <path id="Path_79" data-name="Path 79" d="M48.79,53.765H48v.79h1.185a.4.4,0,0,0,.395-.395V51h-.79Z" transform="translate(-29.041 -30.856)" fill="#1885be"/>
  <rect id="Rectangle_70" data-name="Rectangle 70" width="0.79" height="0.79" transform="translate(6.32 16.59)" fill="#1885be"/>
  <rect id="Rectangle_71" data-name="Rectangle 71" width="1.58" height="0.79" transform="translate(15.405 16.59)" fill="#1885be"/>
  <rect id="Rectangle_72" data-name="Rectangle 72" width="0.79" height="1.185" transform="translate(18.169 15.01)" fill="#1885be"/>
  <rect id="Rectangle_73" data-name="Rectangle 73" width="0.79" height="0.79" transform="translate(17.775 16.985)" fill="#1885be"/>
  <rect id="Rectangle_74" data-name="Rectangle 74" width="1.185" height="0.79" transform="translate(15.405 18.169)" fill="#1885be"/>
  <rect id="Rectangle_75" data-name="Rectangle 75" width="0.79" height="0.79" transform="translate(19.749 15.01)" fill="#1885be"/>
  <rect id="Rectangle_76" data-name="Rectangle 76" width="1.185" height="0.79" transform="translate(21.329 13.43)" fill="#1885be"/>
  <rect id="Rectangle_77" data-name="Rectangle 77" width="1.975" height="0.79" transform="translate(13.825 13.43)" fill="#1885be"/>
  <rect id="Rectangle_78" data-name="Rectangle 78" width="0.79" height="1.185" transform="translate(13.43 11.455)" fill="#1885be"/>
</svg>
