<svg id="qr-code" xmlns="http://www.w3.org/2000/svg" width="50.288" height="50.288" viewBox="0 0 50.288 50.288">
  <g id="Group_4" data-name="Group 4" transform="translate(5.029 5.029)">
    <g id="Group_3" data-name="Group 3">
      <rect id="Rectangle_4" data-name="Rectangle 4" width="5.029" height="5.029"/>
    </g>
  </g>
  <g id="Group_6" data-name="Group 6" transform="translate(32.687)">
    <g id="Group_5" data-name="Group 5">
      <path id="Path_1" data-name="Path 1" d="M335.314,0V2.514H332.8V5.029h2.514V15.086h2.514V17.6h-2.514v2.514h5.029V15.086h7.543V17.6H350.4V0Zm12.572,12.572H337.829V2.514h10.058Z" transform="translate(-332.8)"/>
    </g>
  </g>
  <g id="Group_8" data-name="Group 8" transform="translate(40.23 5.029)">
    <g id="Group_7" data-name="Group 7">
      <rect id="Rectangle_5" data-name="Rectangle 5" width="5.029" height="5.029"/>
    </g>
  </g>
  <g id="Group_10" data-name="Group 10" transform="translate(5.029 40.23)">
    <g id="Group_9" data-name="Group 9">
      <rect id="Rectangle_6" data-name="Rectangle 6" width="5.029" height="5.029"/>
    </g>
  </g>
  <g id="Group_12" data-name="Group 12" transform="translate(35.201 35.201)">
    <g id="Group_11" data-name="Group 11">
      <rect id="Rectangle_7" data-name="Rectangle 7" width="2.514" height="2.514"/>
    </g>
  </g>
  <g id="Group_14" data-name="Group 14" transform="translate(22.629 47.773)">
    <g id="Group_13" data-name="Group 13">
      <rect id="Rectangle_8" data-name="Rectangle 8" width="2.514" height="2.514"/>
    </g>
  </g>
  <g id="Group_16" data-name="Group 16" transform="translate(25.144 37.716)">
    <g id="Group_15" data-name="Group 15">
      <rect id="Rectangle_9" data-name="Rectangle 9" width="2.514" height="2.514"/>
    </g>
  </g>
  <g id="Group_18" data-name="Group 18" transform="translate(25.144 42.745)">
    <g id="Group_17" data-name="Group 17">
      <rect id="Rectangle_10" data-name="Rectangle 10" width="2.514" height="2.514"/>
    </g>
  </g>
  <g id="Group_20" data-name="Group 20" transform="translate(47.773 30.173)">
    <g id="Group_19" data-name="Group 19">
      <rect id="Rectangle_11" data-name="Rectangle 11" width="2.514" height="2.514"/>
    </g>
  </g>
  <g id="Group_22" data-name="Group 22" transform="translate(0 30.173)">
    <g id="Group_21" data-name="Group 21">
      <rect id="Rectangle_12" data-name="Rectangle 12" width="2.514" height="2.514"/>
    </g>
  </g>
  <g id="Group_24" data-name="Group 24" transform="translate(0 17.601)">
    <g id="Group_23" data-name="Group 23">
      <rect id="Rectangle_13" data-name="Rectangle 13" width="2.514" height="2.514"/>
    </g>
  </g>
  <g id="Group_26" data-name="Group 26" transform="translate(22.629 2.514)">
    <g id="Group_25" data-name="Group 25">
      <path id="Path_2" data-name="Path 2" d="M235.429,25.6v2.514H230.4v2.514h7.543V25.6Z" transform="translate(-230.4 -25.6)"/>
    </g>
  </g>
  <g id="Group_28" data-name="Group 28" transform="translate(17.601 20.115)">
    <g id="Group_27" data-name="Group 27">
      <path id="Path_3" data-name="Path 3" d="M209.373,204.8v2.514h-5.029v2.514H196.8v-2.514h-2.514v2.514h-5.029v2.514H196.8v2.514h-7.543v-2.514h-2.514v2.514h-2.514v-2.514h-2.514v2.514H179.2v2.514h5.029v2.514h2.514v-2.514h5.029v2.514h-2.514V222.4h2.514v5.029h2.514v2.514H196.8v-2.514h7.543V222.4h2.514v-2.514h-2.514v-5.029h-5.029v-2.514h5.029v2.514h2.514v-2.514h2.514v-2.514h2.514V204.8Zm-7.543,12.572v7.543h-7.543v-7.543Z" transform="translate(-179.2 -204.8)"/>
    </g>
  </g>
  <g id="Group_30" data-name="Group 30" transform="translate(27.658 15.086)">
    <g id="Group_29" data-name="Group 29">
      <path id="Path_4" data-name="Path 4" d="M286.629,153.6h-2.514v2.514H281.6v5.029h2.514v-2.514h2.514v-2.514h2.514V153.6Z" transform="translate(-281.6 -153.6)"/>
    </g>
  </g>
  <g id="Group_32" data-name="Group 32" transform="translate(27.658 47.773)">
    <g id="Group_31" data-name="Group 31">
      <rect id="Rectangle_14" data-name="Rectangle 14" width="5.029" height="2.514"/>
    </g>
  </g>
  <g id="Group_34" data-name="Group 34" transform="translate(20.115 2.514)">
    <g id="Group_33" data-name="Group 33">
      <rect id="Rectangle_15" data-name="Rectangle 15" width="2.514" height="2.514"/>
    </g>
  </g>
  <g id="Group_36" data-name="Group 36" transform="translate(40.23 20.115)">
    <g id="Group_35" data-name="Group 35">
      <rect id="Rectangle_16" data-name="Rectangle 16" width="2.514" height="2.514"/>
    </g>
  </g>
  <g id="Group_38" data-name="Group 38" transform="translate(42.745 17.601)">
    <g id="Group_37" data-name="Group 37">
      <rect id="Rectangle_17" data-name="Rectangle 17" width="2.514" height="2.514"/>
    </g>
  </g>
  <g id="Group_40" data-name="Group 40" transform="translate(10.058 30.173)">
    <g id="Group_39" data-name="Group 39">
      <rect id="Rectangle_18" data-name="Rectangle 18" width="2.514" height="2.514"/>
    </g>
  </g>
  <g id="Group_42" data-name="Group 42" transform="translate(0 32.687)">
    <g id="Group_41" data-name="Group 41">
      <path id="Path_5" data-name="Path 5" d="M15.086,347.886V337.829H17.6V332.8H15.086v2.514H7.543V332.8H2.514v2.514H0V350.4H20.115v-2.514Zm-2.514,0H2.514V337.829H12.572Z" transform="translate(0 -332.8)"/>
    </g>
  </g>
  <g id="Group_44" data-name="Group 44" transform="translate(15.086 15.086)">
    <g id="Group_43" data-name="Group 43">
      <rect id="Rectangle_19" data-name="Rectangle 19" width="2.514" height="2.514"/>
    </g>
  </g>
  <g id="Group_46" data-name="Group 46">
    <g id="Group_45" data-name="Group 45">
      <path id="Path_6" data-name="Path 6" d="M17.6,0H0V15.086H2.514V17.6H5.029V15.086H7.543V17.6h2.514V15.086h5.029V10.058H17.6V7.543H15.086V2.514h5.029V0ZM12.572,12.572H2.514V2.514H12.572Z"/>
    </g>
  </g>
  <g id="Group_48" data-name="Group 48" transform="translate(30.173 7.543)">
    <g id="Group_47" data-name="Group 47">
      <rect id="Rectangle_20" data-name="Rectangle 20" width="2.514" height="2.514"/>
    </g>
  </g>
  <g id="Group_50" data-name="Group 50" transform="translate(25.144)">
    <g id="Group_49" data-name="Group 49">
      <rect id="Rectangle_21" data-name="Rectangle 21" width="2.514" height="2.514"/>
    </g>
  </g>
  <g id="Group_52" data-name="Group 52" transform="translate(0 10.058)">
    <g id="Group_51" data-name="Group 51">
      <path id="Path_7" data-name="Path 7" d="M30.173,107.429v-2.514H27.658V102.4H25.144v2.514H20.115V102.4H17.6v5.029h2.514v5.029H12.572v-2.514H10.058v2.514H2.514v2.514H7.543v2.514H0V120H7.543v2.514h2.514V120h2.514v2.514h2.514V120h5.029v-2.514H17.6v-2.514h5.029v2.514h5.029v-2.514H25.144v-2.514H22.629v-5.029ZM15.086,117.486H10.058v-2.514h5.029Z" transform="translate(0 -102.4)"/>
    </g>
  </g>
  <g id="Group_54" data-name="Group 54" transform="translate(17.601 35.201)">
    <g id="Group_53" data-name="Group 53">
      <path id="Path_8" data-name="Path 8" d="M184.229,363.429V358.4h-2.514v2.514H179.2v2.514h2.514v2.514H179.2v2.514h5.029v-2.514h2.514v-2.514Z" transform="translate(-179.2 -358.4)"/>
    </g>
  </g>
  <g id="Group_56" data-name="Group 56" transform="translate(35.201 42.745)">
    <g id="Group_55" data-name="Group 55">
      <path id="Path_9" data-name="Path 9" d="M368.458,437.714V435.2h-2.514v2.514H358.4v2.514h5.029v2.514h2.514v-2.514h5.029v2.514h2.514v-5.029Z" transform="translate(-358.4 -435.2)"/>
    </g>
  </g>
  <g id="Group_58" data-name="Group 58" transform="translate(45.259 35.201)">
    <g id="Group_57" data-name="Group 57">
      <path id="Path_10" data-name="Path 10" d="M463.314,358.4v2.514H460.8v2.514h5.029V358.4Z" transform="translate(-460.8 -358.4)"/>
    </g>
  </g>
</svg>
