<svg id="ratio" xmlns="http://www.w3.org/2000/svg" width="129.948" height="169.498" viewBox="0 0 129.948 169.498">
  <g id="Group_106" data-name="Group 106" transform="translate(0 118.648)">
    <g id="Group_105" data-name="Group 105">
      <path id="Path_237" data-name="Path 237" d="M165.2,342.394a7.167,7.167,0,0,0-6.218-3.569,2.889,2.889,0,0,0-.6.064l-50.8,11.012L91.613,339.3a2.827,2.827,0,0,0-1.564-.472H75.775A2.824,2.824,0,0,0,72.951,336H58.825A2.824,2.824,0,0,0,56,338.824h0v33.9a2.824,2.824,0,0,0,2.824,2.825H72.95a2.824,2.824,0,0,0,2.825-2.824H80.79l24.9,13.772a2.826,2.826,0,0,0,2.88-.085L162.6,352.191A7.168,7.168,0,0,0,165.2,342.394ZM70.125,369.9H61.65V341.65h8.475Zm89.541-22.538-52.7,33.381L82.887,367.428a2.832,2.832,0,0,0-1.368-.353H75.775v-22.6H89.2l18.583,12.343a4.212,4.212,0,0,1,1.191,5.836c-.047.071-.1.142-.148.21a4.272,4.272,0,0,1-5.769.982l-11.44-7.6-3.129,4.706,11.441,7.6a9.845,9.845,0,0,0,13.379-14.11l45.912-9.953a1.452,1.452,0,0,1,1.25,1.116A1.491,1.491,0,0,1,159.666,347.362Z" transform="translate(-56 -336)" fill="#fff"/>
    </g>
  </g>
  <g id="Group_108" data-name="Group 108" transform="translate(73.449 0)">
    <g id="Group_107" data-name="Group 107">
      <path id="Path_238" data-name="Path 238" d="M266.825,0A2.824,2.824,0,0,0,264,2.824h0V53.674a2.824,2.824,0,0,0,2.824,2.825h50.851a2.824,2.824,0,0,0,2.825-2.824h0A53.735,53.735,0,0,0,266.825,0Zm2.825,50.849V5.733a48.1,48.1,0,0,1,45.117,45.117Z" transform="translate(-264 0)" fill="#fff"/>
    </g>
  </g>
  <g id="Group_110" data-name="Group 110" transform="translate(84.749 14.125)">
    <g id="Group_109" data-name="Group 109">
      <path id="Path_239" data-name="Path 239" d="M298.825,40A2.824,2.824,0,0,0,296,42.824h0V68.25a2.824,2.824,0,0,0,2.824,2.825H324.25a2.824,2.824,0,0,0,2.825-2.824h0A28.282,28.282,0,0,0,298.825,40Zm2.825,25.425v-19.6a22.646,22.646,0,0,1,19.6,19.6Z" transform="translate(-296 -40)" fill="#fff"/>
    </g>
  </g>
  <g id="Group_112" data-name="Group 112" transform="translate(11.3 11.3)">
    <g id="Group_111" data-name="Group 111">
      <path id="Path_240" data-name="Path 240" d="M192.525,82.849H144.5V34.825A2.824,2.824,0,0,0,141.676,32h0a53.674,53.674,0,1,0,53.674,53.674A2.824,2.824,0,0,0,192.525,82.849ZM141.674,133.7a48.024,48.024,0,0,1-2.825-95.966V85.674a2.824,2.824,0,0,0,2.824,2.825h47.943A48.086,48.086,0,0,1,141.674,133.7Z" transform="translate(-88 -32)" fill="#fff"/>
    </g>
  </g>
</svg>
