<svg id="refugee_1_" data-name="refugee (1)" xmlns="http://www.w3.org/2000/svg" width="261.238" height="253.074" viewBox="0 0 261.238 253.074">
  <g id="Group_89" data-name="Group 89" transform="translate(0 0)">
    <g id="Group_88" data-name="Group 88">
      <path id="Path_135" data-name="Path 135" d="M236.017,61.064c13.062,0,20.817-22.042,20.817-31.43C256.835,17.8,247.447,8,236.017,8S215.2,17.8,215.2,29.634C215.2,39.43,222.956,61.064,236.017,61.064Zm0-44.9c4.9,0,9.388,3.265,11.429,8.164H224.18C226.629,19.429,231.119,16.164,236.017,16.164Zm12.245,16.327c-1.224,8.572-7.347,20.409-12.245,20.409S225,41.063,223.772,32.491Z" transform="translate(-105.398 -8)" fill="#fff"/>
      <path id="Path_136" data-name="Path 136" d="M180.082,160.9a3.856,3.856,0,0,0,4.082-4.082v-40l14.287-5.306a4.133,4.133,0,1,0-2.857-7.756l-17.144,6.531A3.57,3.57,0,0,0,176,113.959v42.859A3.856,3.856,0,0,0,180.082,160.9Z" transform="translate(-86.199 -54.772)" fill="#fff"/>
      <path id="Path_137" data-name="Path 137" d="M309.8,110.285l-16.736-6.531a4.133,4.133,0,1,0-2.857,7.756l14.286,5.306v40a4.082,4.082,0,0,0,8.164,0V113.959A5.407,5.407,0,0,0,309.8,110.285Z" transform="translate(-140.808 -54.772)" fill="#fff"/>
      <path id="Path_138" data-name="Path 138" d="M241.5,156.8a15.1,15.1,0,1,0,15.1,15.1A15.068,15.068,0,0,0,241.5,156.8Zm0,22.042a6.88,6.88,0,0,1-6.939-6.939,6.939,6.939,0,1,1,13.878,0A6.88,6.88,0,0,1,241.5,178.842Z" transform="translate(-110.884 -80.878)" fill="#fff"/>
      <path id="Path_139" data-name="Path 139" d="M220,226.68a3.6,3.6,0,0,0-5.306-1.633l-12.245,6.123A3.1,3.1,0,0,0,200,234.436v38.777a4.082,4.082,0,1,0,8.164,0V236.885l10.2-4.9A3.6,3.6,0,0,0,220,226.68Z" transform="translate(-97.954 -114.022)" fill="#fff"/>
      <path id="Path_140" data-name="Path 140" d="M289.141,264.733a3.856,3.856,0,0,0,4.082-4.082V234.119a5.943,5.943,0,0,0-2.449-3.674l-12.246-6.123a3.9,3.9,0,0,0-5.306,1.633c-.817,2.041-.408,4.49,1.633,5.306l10.2,4.9v24.491A3.856,3.856,0,0,0,289.141,264.733Z" transform="translate(-133.623 -113.704)" fill="#fff"/>
      <path id="Path_141" data-name="Path 141" d="M23.267,102.044,37.553,120a4.082,4.082,0,0,0,6.531,0l13.47-16.736,11.837,4.49v54.7a4.082,4.082,0,1,0,8.164,0V105.309a4.134,4.134,0,0,0-2.449-3.674L61.228,95.921V60.409a20.409,20.409,0,1,0-40.818,0V94.289l-17.96,6.939A4.794,4.794,0,0,0,0,105.309v93.882a3.706,3.706,0,0,0,1.225,2.857l6.939,6.939v63.677a3.856,3.856,0,0,0,4.082,4.082,3.856,3.856,0,0,0,4.082-4.082V207.356A3.706,3.706,0,0,0,15.1,204.5l-6.939-6.939v-89.8Zm17.552-53.88a11.529,11.529,0,0,1,11.429,8.164H29.389A11.529,11.529,0,0,1,40.818,48.164ZM52.656,64.491c-1.633,7.756-6.531,16.327-11.429,16.327S30.614,72.247,28.981,64.491ZM28.573,82.043c3.674,4.082,7.755,6.939,12.654,6.939,4.49,0,8.572-2.449,11.837-6.123V95.921L40.818,111.432,28.573,95.921Z" transform="translate(0 -23.673)" fill="#fff"/>
      <path id="Path_142" data-name="Path 142" d="M421.555,340.246H401.146v-8.164A3.857,3.857,0,0,0,397.064,328H372.573a3.856,3.856,0,0,0-4.082,4.082v8.164H348.082A3.856,3.856,0,0,0,344,344.327v61.228a3.856,3.856,0,0,0,4.082,4.082H388.9a4.082,4.082,0,1,0,0-8.164H352.164V348.409h65.31v53.064H405.228a4.082,4.082,0,0,0,0,8.164h16.327a3.856,3.856,0,0,0,4.082-4.082V344.327A3.856,3.856,0,0,0,421.555,340.246Zm-28.573,0H376.655v-4.082h16.327Z" transform="translate(-168.481 -164.726)" fill="#fff"/>
      <path id="Path_143" data-name="Path 143" d="M272.982,324.246H260.737v-8.164A3.857,3.857,0,0,0,256.655,312H240.327a3.857,3.857,0,0,0-4.082,4.082v8.164h-8.164A3.856,3.856,0,0,0,224,328.327v40.818a3.857,3.857,0,0,0,4.082,4.082h44.9a3.857,3.857,0,0,0,4.082-4.082V328.327A3.856,3.856,0,0,0,272.982,324.246Zm-28.573-4.082h8.164v4.082h-8.164Zm24.491,44.9H232.164V332.409H268.9Z" transform="translate(-109.708 -156.89)" fill="#fff"/>
      <path id="Path_144" data-name="Path 144" d="M435.106,101.228l-13.878-5.306V60.409a20.409,20.409,0,0,0-40.818,0V94.289l-17.96,6.939A4.794,4.794,0,0,0,360,105.309v61.228a4.082,4.082,0,1,0,8.164,0V107.759l15.1-5.715L397.553,120a5.039,5.039,0,0,0,3.266,1.633A3.712,3.712,0,0,0,404.084,120l13.47-16.736,11.837,4.49V174.7a4.082,4.082,0,0,0,8.164,0V105.309A4.794,4.794,0,0,0,435.106,101.228ZM400.819,48.164a11.529,11.529,0,0,1,11.429,8.164H388.981C391.022,51.429,395.1,48.164,400.819,48.164Zm11.837,16.327c-1.633,7.756-6.531,16.327-11.429,16.327s-10.613-8.572-12.246-16.327Zm.408,31.43-12.246,15.1L388.573,95.513V81.635c3.674,4.082,7.755,7.347,12.654,7.347,4.49,0,8.572-2.449,11.837-6.123Z" transform="translate(-176.317 -23.673)" fill="#fff"/>
      <path id="Path_145" data-name="Path 145" d="M276.082,440A3.856,3.856,0,0,0,272,444.082v24.491a4.082,4.082,0,1,0,8.164,0V444.082A3.857,3.857,0,0,0,276.082,440Z" transform="translate(-133.217 -219.58)" fill="#fff"/>
      <path id="Path_146" data-name="Path 146" d="M228.082,440A3.857,3.857,0,0,0,224,444.082v24.491a4.082,4.082,0,1,0,8.164,0V444.082A3.857,3.857,0,0,0,228.082,440Z" transform="translate(-109.708 -219.58)" fill="#fff"/>
      <path id="Path_147" data-name="Path 147" d="M364.082,320.327a3.856,3.856,0,0,0,4.082-4.082v-8.164a4.082,4.082,0,1,0-8.164,0v8.164A3.856,3.856,0,0,0,364.082,320.327Z" transform="translate(-176.317 -152.972)" fill="#fff"/>
      <path id="Path_148" data-name="Path 148" d="M180.082,240.327a3.856,3.856,0,0,0,4.082-4.082v-8.164a4.082,4.082,0,0,0-8.164,0v8.164A3.856,3.856,0,0,0,180.082,240.327Z" transform="translate(-86.199 -113.79)" fill="#fff"/>
      <path id="Path_149" data-name="Path 149" d="M125.555,324.573H105.146v-8.164a3.856,3.856,0,0,0-4.082-4.082V300.082a4.082,4.082,0,0,0-8.164,0v12.246H76.573a3.856,3.856,0,0,0-4.082,4.082v8.164H52.082A3.857,3.857,0,0,0,48,328.655v61.228a3.857,3.857,0,0,0,4.082,4.082h73.473a3.856,3.856,0,0,0,4.082-4.082V328.655A3.857,3.857,0,0,0,125.555,324.573Zm-44.9-4.082H96.982v4.082H80.655Zm40.818,65.31H56.164V332.737h65.31Z" transform="translate(-23.509 -149.054)" fill="#fff"/>
    </g>
  </g>
</svg>
