<svg xmlns="http://www.w3.org/2000/svg" width="12.77" height="16.717" viewBox="0 0 12.77 16.717">
  <g id="register" transform="translate(0 0)">
    <path id="Path_31" data-name="Path 31" d="M3.179,17.685V2.99H5.146V2.014c.762,0,1.492-.011,2.222.006a.675.675,0,0,0,.618-.291,2.027,2.027,0,0,1,3.2.045.531.531,0,0,0,.488.247c.745-.014,1.491-.005,2.286-.005v.967h1.988v14.7Zm.975-.985h10.8V4h-.99v.931H5.175c-.017-.328-.032-.632-.047-.934H4.154C4.154,8.232,4.154,12.446,4.154,16.7ZM6.159,3.941h6.8v-.95c-.641,0-1.249-.014-1.857.006a.472.472,0,0,1-.562-.374.984.984,0,0,0-.978-.673,1.054,1.054,0,0,0-1,.707c-.041.1-.078.208-.13.344H6.159C6.159,3.33,6.159,3.622,6.159,3.941Z" transform="translate(-3.179 -0.968)" fill="#fff" fill-rule="evenodd"/>
    <path id="Path_32" data-name="Path 32" d="M28.5,51.926l.672.694-2.239,2.232-1.2-1.245.6-.616.617.584Z" transform="translate(-23.485 -46.853)" fill="#fff" fill-rule="evenodd"/>
    <path id="Path_33" data-name="Path 33" d="M27.97,81.157l.625.751-2.25,2.217-1.22-1.237.634-.653.63.585Z" transform="translate(-22.94 -73.175)" fill="#fff" fill-rule="evenodd"/>
    <path id="Path_34" data-name="Path 34" d="M72.036,120.615c-.128-.963-.128-.966.777-.968s1.841.011,2.762-.005c.281,0,.385.077.355.358a5.976,5.976,0,0,0,0,.615Z" transform="translate(-65.127 -107.829)" fill="#fff" fill-rule="evenodd"/>
    <path id="Path_35" data-name="Path 35" d="M28.617,111.769,26.361,114l-1.27-1.3.641-.622.631.6,1.531-1.637Z" transform="translate(-22.91 -100.089)" fill="#fff" fill-rule="evenodd"/>
    <path id="Path_36" data-name="Path 36" d="M76.438,61.074V62H72.567v-.928Z" transform="translate(-65.66 -55.091)" fill="#fff" fill-rule="evenodd"/>
    <path id="Path_37" data-name="Path 37" d="M76.43,90.508v.924H72.556v-.924Z" transform="translate(-65.65 -81.595)" fill="#fff" fill-rule="evenodd"/>
  </g>
</svg>
