<svg xmlns="http://www.w3.org/2000/svg" width="512" height="420.383" viewBox="0 0 512 420.383">
  <g id="rtm-icon" transform="translate(-630.916 -190.587)">
    <path id="Path_47" data-name="Path 47" d="M865.561,611.487c6.787,4.891,22.5,4.65,27.545-.183C887.437,606.49,871.682,606.439,865.561,611.487ZM907.626,427.3c-.9-3.111-1.8-6.222-2.728-9.415l-4.776.532C899.267,424.78,900.247,426.371,907.626,427.3Zm-72.574-95.205c-3.818,5.524-3.584,7.717.943,11.68,5.572-1.755,1.492-6.632,3.167-9.661Zm38.829,69.759c-1.532-4.279-4.42-4.757-7.644-3.615-.558.2-1.127,2.557-.715,3.312C867.9,405.909,870.795,403.936,873.882,401.851Zm102.006,60.555c-1.867-4.089-4.725-5.06-8.212-3.457-.434.2-.547,2.651-.022,3.512C970.15,466.548,972.906,464.291,975.887,462.406ZM791.241,419.74l-1.367-.836a25.436,25.436,0,0,0-4,4.058c-.268.408.966,2.558,1.91,3.075.874.477,3.233.031,3.3-.339A34.652,34.652,0,0,0,791.241,419.74Zm5.406-.8,5.854,3.842c.362-1.673,1.53-3.866.932-4.92C801.738,414.868,799.361,414.685,796.647,418.939Zm157.91,38.524,3.36,6.24c1.13-1.234,3.268-2.544,3.193-3.688C960.92,457.112,959.191,455.281,954.556,457.463Zm217.531,8.332-2.749-1.6q-1.728,2.533-3.453,5.065l4.216,2.749Q1171.091,468.9,1172.088,465.794Zm4.279-1.376c2.264,1.36,4.236,2.542,6.2,3.725.365-1.654,1.532-3.838.94-4.863C1181.88,460.469,1179.485,460.2,1176.366,464.419ZM945.246,305.141q-.49.535-.983,1.068v10.532l1.276.673c.893-1.866,2.6-3.8,2.476-5.584C947.859,309.541,946.234,307.365,945.246,305.141ZM1151.2,409.95l.746.945c1-1.831,2.66-3.591,2.839-5.51.266-2.836-.717-5.622-4.177-6.241C1150.814,402.967,1151.009,406.458,1151.2,409.95ZM902.065,286.315c-3.093-2.386-5.637-1.232-7.553,1.151-1.058,1.316-1.213,3.458-1.776,5.227l1.185.171C896.479,290.808,899.036,288.752,902.065,286.315Zm-55.6,109.356q-.55.788-1.1,1.575c1.017,1.938,1.979,3.919,3.168,5.728.086.13,2.4-.76,2.676-1.567.414-1.211.441-3.36-.269-4.04C849.847,396.324,847.992,396.191,846.462,395.67Z" transform="translate(-40.76 -40.189)" fill="#208fb8" fill-rule="evenodd"/>
    <path id="Path_48" data-name="Path 48" d="M838.67,836.075c-22.274-3.888-44.252-9.7-67.082-9.944-9.268-.1-18.533-.612-27.793-1.059a35.1,35.1,0,0,1-5.48-1.122q-.038-.774-.076-1.548c3.908-.71,7.789-1.717,11.729-2.082,19.445-1.8,38.918-3.313,58.355-5.2,5.291-.515,10.49-1.983,16.016-3.069-1.164-5.1-4.637-5.851-7.631-6.7-8.9-2.52-17.891-4.682-26.812-7.115a64.5,64.5,0,0,1-6.7-2.626q-.044-.918-.089-1.837c3.14-.8,6.237-1.936,9.427-2.35,9.02-1.173,18.087-1.975,27.115-3.095a23.174,23.174,0,0,0,7.939-2.639c-13.977-8.5-30.543-9.79-44.644-17.691,29.174.436,57.813,3.848,85.675,12.292q.174,1.072.347,2.142c-2.194,1.03-4.292,2.46-6.6,3.018-8.989,2.171-18.08,3.926-27.057,6.14-3.027.747-5.83,2.4-8.735,3.641q-.014.965-.028,1.931c2.843,1.378,5.556,3.215,8.551,4.057,14.783,4.155,29.657,7.986,44.464,12.058,6.2,1.705,12.36,3.609,18.462,5.649a47.5,47.5,0,0,1,6.446,3.27q.171.844.344,1.69c-2.984,1.713-5.778,4.171-8.991,5-9.417,2.42-19,4.192-28.522,6.213-1.586.337-3.176.652-4.764.976Q850.6,836.076,838.67,836.075Z" transform="translate(-45.683 -225.105)" fill="#208fb8" fill-rule="evenodd"/>
    <path id="Path_49" data-name="Path 49" d="M630.917,665.72c.327-1.755.715-3.5.971-5.267,2.58-17.816,19.082-30.212,38.055-28.566,17.328,1.5,31.153,17.655,30.492,35.625-.658,17.876-15.673,32.771-33.273,33.007-18.5.248-32.782-11.877-35.405-30.029-.183-1.273-.555-2.518-.84-3.776C630.917,666.383,630.917,666.05,630.917,665.72Zm28.991.059c3.787-.094,7.172-3.5,6.7-6.5-.536-3.425-2.582-5.678-6.263-5.823-3.331-.131-6.6,3-6.274,6.235C654.447,663.426,656.683,665.554,659.908,665.778Zm8.7,15.949c-2.943-2.25-4.775-4.733-6.42-4.615-1.773.127-3.371,2.692-5.046,4.192,1.61,1.75,2.989,4.465,4.908,4.926C663.458,686.566,665.572,683.937,668.611,681.727Z" transform="translate(0 -171.95)" fill="#208fb8" fill-rule="evenodd"/>
    <path id="Path_50" data-name="Path 50" d="M1301.4,190.587a24.553,24.553,0,0,1,.072,5.3c-.07.391-2.228.406-3.424.594q-.311-2.948-.625-5.9Z" transform="translate(-263.732)" fill="#208fb8" fill-rule="evenodd"/>
    <path id="Path_51" data-name="Path 51" d="M1136.218,395.9c.728-1.581,1.4-3.039,2.07-4.5l1.416.034c0,1.475.326,3.04-.051,4.412-3.752,13.666,2.967,27.557,15.841,32.524a26.8,26.8,0,0,0,32.629-11.859c.778-1.343,2.208-2.309,3.336-3.449v5.746c6.013,2.5,12.662,5.274,19.313,8.04,2.93,1.219,6.49,2.323,5.9,6.273-.554,3.669-1.585,7.507-6.63,8.111-1.072.129-2.4,2.348-2.715,3.8-.959,4.349-1.181,8.872-2.293,13.171-.542,2.092-2.429,3.834-3.673,5.684l-8.708-5.181c-.374,1.763-.727,3.418-1.178,5.552-3.941-.323-7.7-.516-11.427-.968-3.606-.437-7.182-1.141-10.217-1.637l-6.875,5.539c-1.621-2.587-2.927-4.674-4.845-7.738l-12.073-2.663c-2.191,2.683-3.663,6.13-5.891,6.716-1.965.518-4.769-2.154-7.527-3.584l3.935-5.338c-7.218-1.953-14.027-3.9-20.905-5.559-1.276-.308-2.882.445-4.26.924-11.559,4.019-23.28,7.647-34.585,12.291-8.16,3.352-15.923,3.248-24.141,1.008-33.57-9.153-65.1-23.017-95.191-40.4-6.47-3.737-10.182-9.126-12.6-15.883-3.617-10.123-7.239-20.249-11.211-30.234a14,14,0,0,0-5.047-6.191q-19.983-12.982-40.314-25.423c-3.885-2.381-4.522-4.768-2.644-8.908,3.119-6.877,6.56-13.31,13.1-17.593a45.729,45.729,0,0,0,4.681-4.115c-1.61-.871-2.571-1.424-3.56-1.922-4.622-2.327-5.219-4.285-3.226-9.16,1.8-4.393,4.741-5.019,8.785-3.326,7.744,3.243,15.523,6.4,23.1,9.518.6-.55.852-.753,1.073-.984.965-1.017,1.92-2.04,2.88-3.062.031,1.3.386,2.7.045,3.893-4.59,16.122,4.652,31.21,21.078,34.276,10.07,1.88,21.016-3.238,26.7-12.518a12.991,12.991,0,0,1,3.654-4.426v5.9Q1059.625,364.1,1136.218,395.9ZM1018.134,409.11l-76.09-31.587c2.277,6.344,4.011,11.6,6.036,16.745,8.89,22.586,4.13,16.84,24.241,28.239,10.7,6.067,22.017,11.052,33.325,16.659C1009.955,428.789,1013.941,419.2,1018.134,409.11Zm82.32,35.5q-.018-.818-.035-1.637c-1.837-.173-3.7-.228-5.506-.561a11.06,11.06,0,0,1-3.8-1.343c-1.563-.975-2.748-2.664-4.387-3.389-7.393-3.274-14.879-6.342-22.351-9.439-12.785-5.295-25.586-10.553-38.855-16.025-4.17,9.984-8.21,19.656-12.815,30.682,16.877,4.994,33.245,9.892,49.664,14.614a9.117,9.117,0,0,0,5.344-.3C1078.663,453.121,1089.547,448.834,1100.454,444.611Zm-45.419-30.5c-5.49-2.273-10.477-4.447-15.569-6.343-.88-.328-2.2.518-4.345,1.1C1046.581,415.747,1052.766,417.394,1055.035,414.108Zm-106.353-40.37c5.556,2.3,10.638,4.514,15.829,6.437.838.311,2.158-.68,4.047-1.35C956.691,372,951.137,370.5,948.682,373.738Z" transform="translate(-82.817 -40.678)" fill="#208fb8" fill-rule="evenodd"/>
    <path id="Path_52" data-name="Path 52" d="M792.2,633.706l-34.256-3.8-.748,1.262c1.558.847,3.041,2.224,4.684,2.454,9.986,1.4,20.009,2.527,30.144,3.764,3.981,11.7,8.5,15.876,17.072,15.582,7.866-.27,12.7-4.9,15.6-15.269,1.965-.092,4.077-.2,6.188-.288,13.407-.538,26.811-1.147,40.222-1.572,8.09-.257,13.641,4.476,13.956,11.556.323,7.271-4.571,12.621-12.654,13-34.592,1.63-69.206,3.236-103.737-.9-10.456-1.253-20.919-2.883-30.886-7.835,5.966-9.661,7.918-19.774,5.313-30.606-2.139-8.893-7.181-15.809-14.209-21.549a8.756,8.756,0,0,1-2.914-5.5c-.4-5.1-.211-10.258-.1-15.391.131-5.924,2.869-9.822,8.383-11.53,20.692-6.412,41.392-12.8,62.146-19,8.359-2.5,15.137,1.7,16.184,10.414,2.212,18.4,3.926,36.87,5.824,55.312.729,7.083,1.576,14.158,2.059,21.258.553,8.133-3.842,13.741-10.944,14.484-6.653.7-12.37-4.085-13.255-11.865-2.058-18.093-3.786-36.224-5.658-54.34-.235-2.279-.531-4.551-.889-7.582-11.682,3.578-22.939,7.026-34.2,10.476q-.034.93-.068,1.863c1.547.138,3.228.737,4.621.338,8.7-2.5,17.342-5.227,26.687-8.087C788.571,598.061,790.323,615.286,792.2,633.706Z" transform="translate(-40.359 -136.996)" fill="#208fb8" fill-rule="evenodd"/>
    <path id="Path_53" data-name="Path 53" d="M891.651,646.337c-2.2-21.541-4.452-43.568-6.792-66.474,3.043,0,5.607.052,8.167-.009,9.76-.23,19.518-.54,29.279-.735,6.783-.134,12,2.9,16.323,8.008,11.66,13.784,23.541,27.383,35.077,41.268,2.522,3.035,5.15,3.98,8.893,4q37.53.177,75.059.7c9.678.134,16.462,5,19.011,13.083,2.41,7.647-.059,16.421-6.913,20.611a25.274,25.274,0,0,1-12.539,3.615c-28.831,0-57.661-.461-86.491-.824a28.2,28.2,0,0,1-7.388-.742c-3.964-1.142-7.277-2.43-7.113-8.2.219-7.718-5.846-13.227-13.572-14.742a11.67,11.67,0,0,1-6.091-3.443c-9.112-10.293-17.983-20.8-26.943-31.227a4.169,4.169,0,0,0-.851-.583c-3.641,1.334-1.662,3.016-.268,4.644q10.826,12.65,21.658,25.294c1.277,1.494,2.527,3.01,4.831,5.757Z" transform="translate(-95.605 -150.421)" fill="#208fb8" fill-rule="evenodd"/>
    <path id="Path_54" data-name="Path 54" d="M1295.466,241.591l-3.123,3.637c.874-.14,1.35-.078,1.631-.283,4.111-3,8.341-3.161,12.4-.133a9.3,9.3,0,0,1,3.559,10.6c-1.334,4.62-4.668,6.985-9.51,7.4a6.382,6.382,0,0,0-3.259,1.561c-3.948,3.322-7.791,6.767-12.617,10.993.485,7.715-3.793,13.7-13.444,15.884,1.128,5.62.222,10.6-4.269,14.879l5.651-3.2c3.705,2.4,4.977,5.812,3.092,10.039a7.676,7.676,0,0,1-8.894,4.749c-4.507-.754-6.686-4.229-6.63-10.286-5.97-1.111-10.563-4.073-11.244-10.636-.656-6.3,2.954-10.174,8.557-12.527l-1.606-5.467c4.484-2.655,9.238-5.12,9.856-12.633-4.323,8.055-9.673,12.207-17.855,10.41-6.1-1.339-9.731-5.526-10.959-11.535-1.25-6.13,1.427-11.193,7.385-14.861l5.981,4.982c-1.736-3.874-4.331-7.79-5.175-12.054-.952-4.79,1.621-9.005,5.569-12.009,6.645-5.059,14.379-3.356,21.712,4.822C1280.912,232.909,1288.706,234.17,1295.466,241.591Z" transform="translate(-232.588 -16.03)" fill="#208fb8" fill-rule="evenodd"/>
    <path id="Path_55" data-name="Path 55" d="M1145.663,688.565c0-3.767.594-7.322-.109-10.6-2.344-10.91-11.316-17.766-22.56-17.887-24-.259-47.994-.788-71.988-.681-6.453.029-10.473-2.253-13.445-8.088,1.18-.078,2.095-.19,3.011-.19q52.879-.012,105.759.021c11.555.025,19.7,7.681,19.941,18.369C1166.523,680.662,1157.982,688.78,1145.663,688.565Z" transform="translate(-156.668 -180.925)" fill="#208fb8" fill-rule="evenodd"/>
    <path id="Path_56" data-name="Path 56" d="M995.012,292.3c12.3.005,22.632,10.169,22.611,22.248a22.776,22.776,0,0,1-22.359,22.581c-12.056.156-22.5-10.158-22.605-22.331A22.606,22.606,0,0,1,995.012,292.3Zm-.029,7.947a14.408,14.408,0,0,0-14.4,14.57,14.562,14.562,0,1,0,29.123-.284A14.4,14.4,0,0,0,994.984,300.252Z" transform="translate(-134.279 -43.297)" fill="#208fb8" fill-rule="evenodd"/>
    <path id="Path_57" data-name="Path 57" d="M1355.807,486.753a22.33,22.33,0,0,1-22.078-22.161,22.388,22.388,0,1,1,44.774-.37A22.343,22.343,0,0,1,1355.807,486.753Zm-14.152-22.536a14.468,14.468,0,1,0,28.934.381,14.469,14.469,0,1,0-28.934-.381Z" transform="translate(-273.976 -98.564)" fill="#208fb8" fill-rule="evenodd"/>
    <path id="Path_58" data-name="Path 58" d="M1349.123,221.411a8.245,8.245,0,0,1-8.181,8.191,8.076,8.076,0,0,1-8.059-8.243,8.238,8.238,0,0,1,7.872-8A8.393,8.393,0,0,1,1349.123,221.411Z" transform="translate(-273.615 -9.694)" fill="#208fb8" fill-rule="evenodd"/>
    <path id="Path_59" data-name="Path 59" d="M924.648,815.209c6.12-4.731,21.876-4.684,27.545-.171C947.15,819.568,931.435,819.794,924.648,815.209Z" transform="translate(-115.78 -243.688)" fill="#208fb8" fill-rule="evenodd"/>
    <path id="Path_60" data-name="Path 60" d="M1309.918,220.457c-2.212,1.5-4.3,3.986-6.661,4.274-3.21.391-5.582-2.186-5.5-5.634.087-3.413,2.464-5.963,5.715-5.393,2.358.413,4.343,2.958,6.492,4.553Q1309.945,219.357,1309.918,220.457Z" transform="translate(-263.526 -9.806)" fill="#208fb8" fill-rule="evenodd"/>
    <path id="Path_61" data-name="Path 61" d="M1283.459,393.833c-2.818,2.169-4.684,4.658-6.086,4.42-1.748-.3-3.111-2.845-4.641-4.421,1.5-1.412,2.907-3.822,4.507-3.955S1280.616,391.9,1283.459,393.833Z" transform="translate(-253.697 -78.78)" fill="#208fb8" fill-rule="evenodd"/>
    <path id="Path_62" data-name="Path 62" d="M992.137,510.694c-7.38-.868-8.359-2.359-7.5-8.326l4.776-.5C990.334,504.863,991.235,507.779,992.137,510.694Z" transform="translate(-139.782 -123.043)" fill="#208fb8" fill-rule="evenodd"/>
    <path id="Path_63" data-name="Path 63" d="M869.547,361.855l4.109,1.891c-1.675,2.84,2.4,7.411-3.167,9.056C865.964,369.089,865.729,367.034,869.547,361.855Z" transform="translate(-93.328 -67.67)" fill="#208fb8" fill-rule="evenodd"/>
    <path id="Path_64" data-name="Path 64" d="M932.835,472.825c-3.087,1.954-5.979,3.8-8.359-.285-.412-.706.157-2.919.715-3.1C928.414,468.366,931.3,468.813,932.835,472.825Z" transform="translate(-116.024 -110.086)" fill="#208fb8" fill-rule="evenodd"/>
    <path id="Path_65" data-name="Path 65" d="M1110.378,571.623c-2.983,1.768-5.739,3.883-8.234.052-.524-.807-.412-3.106.022-3.292C1105.651,566.88,1108.511,567.791,1110.378,571.623Z" transform="translate(-186.192 -149.142)" fill="#208fb8" fill-rule="evenodd"/>
    <path id="Path_66" data-name="Path 66" d="M791.241,504.32a30.465,30.465,0,0,1-.159,5.584c-.065.347-2.425.765-3.3.318-.944-.485-2.178-2.5-1.91-2.882a24.663,24.663,0,0,1,4-3.8Z" transform="translate(-65.943 -123.749)" fill="#208fb8" fill-rule="evenodd"/>
    <path id="Path_67" data-name="Path 67" d="M804.659,501.325c2.714-3.987,5.091-3.816,6.786-1.011.6.988-.57,3.044-.932,4.612Z" transform="translate(-68.719 -121.669)" fill="#208fb8" fill-rule="evenodd"/>
    <path id="Path_68" data-name="Path 68" d="M1079.6,565.8c4.633-2.045,6.362-.329,6.552,2.392.076,1.072-2.062,2.3-3.193,3.457C1081.88,569.76,1080.795,567.872,1079.6,565.8Z" transform="translate(-177.474 -148.018)" fill="#208fb8" fill-rule="evenodd"/>
    <path id="Path_69" data-name="Path 69" d="M1453.753,578.951q-.992,2.91-1.987,5.822l-4.216-2.577q1.724-2.374,3.453-4.748C1451.916,577.949,1452.834,578.45,1453.753,578.951Z" transform="translate(-322.426 -152.963)" fill="#208fb8" fill-rule="evenodd"/>
    <path id="Path_70" data-name="Path 70" d="M1465.8,575.585c3.123-3.958,5.517-3.7,7.144-1.065.592.96-.575,3.007-.94,4.558Z" transform="translate(-330.193 -151.058)" fill="#208fb8" fill-rule="evenodd"/>
    <path id="Path_71" data-name="Path 71" d="M1062.661,317.871c.991,2.085,2.614,4.125,2.769,6.27.12,1.676-1.583,3.484-2.476,5.234l-1.276-.631v-9.872Z" transform="translate(-170.46 -50.286)" fill="#208fb8" fill-rule="evenodd"/>
    <path id="Path_72" data-name="Path 72" d="M1421.541,481.417c-.192-3.273-.383-6.545-.592-10.13,3.46.581,4.443,3.192,4.177,5.85-.179,1.8-1.841,3.448-2.839,5.165C1422.041,482.007,1421.788,481.712,1421.541,481.417Z" transform="translate(-311.102 -110.907)" fill="#208fb8" fill-rule="evenodd"/>
    <path id="Path_73" data-name="Path 73" d="M1340.717,439.077l-9.423,6.844c.917-2.785.977-5.13,2.141-6,1.868-1.4,4.467-1.837,6.758-2.681C1340.372,437.851,1340.544,438.464,1340.717,439.077Z" transform="translate(-272.94 -97.498)" fill="#208fb8" fill-rule="evenodd"/>
    <path id="Path_74" data-name="Path 74" d="M1298.032,404.508c1.367,1.943,3.123,3.453,2.845,4.27-.443,1.3-2.24,2.149-3.466,3.188-.965-1.143-2.663-2.276-2.682-3.436C1294.712,407.435,1296.458,406.311,1298.032,404.508Z" transform="translate(-262.583 -84.581)" fill="#208fb8" fill-rule="evenodd"/>
    <path id="Path_75" data-name="Path 75" d="M981.292,286.233c-3.029,2.284-5.587,4.212-8.145,6.139l-1.185-.16c.562-1.658.718-3.667,1.776-4.9C975.654,285.078,978.2,284,981.292,286.233Z" transform="translate(-134.839 -40.189)" fill="#208fb8" fill-rule="evenodd"/>
    <path id="Path_76" data-name="Path 76" d="M890.578,465.619c1.53.488,3.385.613,4.475,1.59.71.637.683,2.652.269,3.787-.276.756-2.59,1.591-2.676,1.469a61.919,61.919,0,0,1-3.168-5.37Z" transform="translate(-102.279 -108.756)" fill="#208fb8" fill-rule="evenodd"/>
    <path id="Path_77" data-name="Path 77" d="M1386.821,240.647c-2.244,1.353-3.649,2.871-4.719,2.661-1.142-.223-1.965-2.073-2.931-3.213,1.055-.867,2.141-2.46,3.151-2.415C1383.553,237.737,1384.719,239.172,1386.821,240.647Z" transform="translate(-293.319 -20.045)" fill="#208fb8" fill-rule="evenodd"/>
    <path id="Path_78" data-name="Path 78" d="M1006.962,333.053a7.073,7.073,0,0,0,6.595-6.774,6.717,6.717,0,0,0-13.43.181A7.246,7.246,0,0,0,1006.962,333.053Z" transform="translate(-145.876 -51.027)" fill="#208fb8" fill-rule="evenodd"/>
    <path id="Path_79" data-name="Path 79" d="M1374.419,476.127a6.876,6.876,0,0,0-6.567-6.709,6.736,6.736,0,0,0-6.577,6.664,6.573,6.573,0,1,0,13.144.045Z" transform="translate(-285.701 -110.116)" fill="#208fb8" fill-rule="evenodd"/>
    <path id="Path_80" data-name="Path 80" d="M1006.962,333.053a7.249,7.249,0,0,1-6.835-6.592,6.717,6.717,0,0,1,13.43-.181A7.076,7.076,0,0,1,1006.962,333.053Z" transform="translate(-145.876 -51.027)" fill="#208fb8" fill-rule="evenodd"/>
    <path id="Path_81" data-name="Path 81" d="M1374.419,476.127a6.573,6.573,0,1,1-6.567-6.709A6.881,6.881,0,0,1,1374.419,476.127Z" transform="translate(-285.701 -110.116)" fill="#208fb8" fill-rule="evenodd"/>
  </g>
</svg>
