<svg xmlns="http://www.w3.org/2000/svg" width="512" height="464.872" viewBox="0 0 512 464.872">
  <g id="safe-sanitation" transform="translate(-15.054 -17.231)">
    <path id="Path_103" data-name="Path 103" d="M15.054,197.7c4.434-1.736,9.105-5.248,13.232-4.7,3.931.527,8.853,4.652,10.4,8.407,1.189,2.881-1.121,8.875-3.833,11.224-2.641,2.29-7.8,2.326-11.8,2.168-2.709-.106-5.339-2.26-8-3.5Q15.054,204.5,15.054,197.7Z" transform="translate(0 11.557)" fill="#27709a" fill-rule="evenodd"/>
    <path id="Path_104" data-name="Path 104" d="M368.44,203.3c-7.15.753-10.886,1.49-14.619,1.486q-70-.1-140-.363c-3.609-.009-7.981-.769-10.647.822-3.971,2.367-8.621,6.17-9.423,10.019-.638,3.062,3.57,7.515,6.541,10.562,2.012,2.064,6.184,2.21,8.357,4.208,2.562,2.358,5.948,6.14,5.427,8.655-.583,2.81-4.765,5.806-8.086,7.042-3.542,1.315-7.91.837-11.918.842q-43.452.06-86.9-.005c-3.618,0-7.865-1-10.721.419C91.18,249.6,84.465,252.9,82.751,257.4c-1.11,2.915,4.671,9.681,9.005,12.493,5.152,3.341,14.317,4.559,10.579,11.919-2.129,4.185-10.582,6.457-16.631,7.724-6.94,1.449-14.791-.418-21.434,1.562-4.292,1.277-10.362,7.367-9.835,10.414.743,4.282,6.2,9.061,10.894,11.161,4.3,1.923,10.4-.11,15.448.825,7.924,1.467,15.631,3.964,23.43,6.024-.145,1.118-.289,2.24-.433,3.356,7.28-4.377,15.155-8.12,21.571-13.423,2.944-2.432,4.081-7.9,4.208-12.032.547-17.91,13.213-30.947,32.294-31.333q32.573-.657,65.171.023c9.586.186,13.58-2.2,13.369-12.174-.362-17.127,12.426-29.695,30.747-29.924,43.037-.533,86.1-.7,129.121.335,9.367.223,18.526,6.214,27.883,9.275,7.714,2.524,15.48,6.217,23.391,6.638,20.057,1.065,40.215.341,60.315.911,4.452.126,10.106,1.493,12.969,4.3,5.641,5.531.014,13.676-9.909,13.927-17.283.435-34.6.015-51.9.153-6.144.049-13.745-1.66-13.807,8.024-.06,8.974,5.422,11.719,13.958,11.645,16.09-.143,32.187-.289,48.277-.054,6.773.1,14.851.047,14.914,9.235.065,9.349-7.909,9.007-14.8,9.1-20.912.289-41.828.544-62.744.6-14.137.038-18.01-3.562-18.586-16.465C428.93,252.86,417.371,242.372,386.6,242.3q-51.9-.115-103.8-.03c-2.813,0-6.365-.9-8.3.359-5.092,3.3-12.648,7.063-13.454,11.551-1.433,8.009,6.366,11.478,14.345,11.636,14.879.3,29.769.021,44.657.132,3.578.028,7.681-.267,10.586,1.226,3.148,1.621,7.062,5.1,7.161,7.874.1,2.707-3.642,6.921-6.7,8.029-5.052,1.829-10.909,2.277-16.427,2.293-47.072.135-94.144.029-141.217.039-4.415,0-9.614-.979-13.046.833-4.224,2.234-9.606,6.919-9.618,10.557s5.394,8.178,9.555,10.637c2.974,1.755,7.815.906,11.822.908,37.817.029,75.637-.051,113.457.029,4.363.011,9.439-.3,12.875,1.615,3.108,1.731,6.041,6.32,6,9.616-.031,2.5-4.427,6.045-7.652,7.15-3.957,1.359-8.716.838-13.13.838q-68.8,0-137.6-.085c-4.017,0-8.911-1.118-11.852.6-4.87,2.858-10.8,7.163-11.784,11.717-.636,2.94,6.132,8.511,10.761,10.849,3.848,1.943,9.412,1.127,14.216,1.133q67.592.068,135.183-.011c1.61,0,3.232-.131,4.826.011,7.307.644,17.477-1.258,17.455,9.1-.028,10.4-10.192,8.841-17.5,8.882-38.219.212-76.44.167-114.659.176-16.664.006-26.244,4.3-26.469,12-.235,8,9.091,12.546,25.693,12.54q63.367-.027,126.736-.038c1.609,0,3.218-.058,4.824-.007,6.6.208,14.165.348,14.671,8.366.557,8.763-7.56,10.145-14.366,10.225-29.363.349-58.734.108-88.1.2-4.8.017-10.395-.711-14.2,1.29-4.244,2.231-9.625,7.326-9.423,10.921.209,3.711,6.054,7.836,10.365,10.4,2.653,1.576,7.049.7,10.661.7q86.3.035,172.593-.009c28.539-.023,35.974-5.071,44.073-30.454,2.538-7.961,7.04-11.918,16.368-11.755,21.719.38,43.451-.042,65.172.2,6.757.074,14.95.108,14.965,9.213.014,9.224-8.132,8.936-14.965,9.048-16.493.273-32.985.42-49.477.348-7.655-.036-12.215,2.336-15.558,9.555-9.923,21.4-27.225,32.272-52.971,32.063-61.55-.5-123.109-.143-184.665-.143-23.775,0-31.466-6.246-37.693-28.111-1.042-3.654-6.986-7.738-11.313-8.545-7.758-1.437-16.035-.176-24.05-.675-20.181-1.258-32.7-13.373-32.414-32.376.117-7.742-3.027-9.756-10.365-10.27-22.919-1.6-33.808-13.052-34.64-33.886-.171-4.3-3.95-10.67-7.848-12.278-22.625-9.319-23.64-45.235,3.008-55.323,6.62-2.5,8.932-6.225,9.145-12.791.7-21.445,11.44-31.673,34.348-32.326,20.9-.594,41.842-.554,62.755-.277,9.746.129,13.4-3.117,13.412-12.618.023-17.253,13.63-29.921,32.226-30.083,41.436-.363,82.881-.421,124.31.124C343.465,185.367,355.9,190.482,368.44,203.3ZM101.165,329.046c-11.9,4.27-23,4.606-21.726,17.35.639,6.4,11.492,12.133,17.854,8.685C109.272,348.586,98.508,339.4,101.165,329.046Z" transform="translate(0 27.337)" fill="#27709a" fill-rule="evenodd"/>
    <path id="Path_105" data-name="Path 105" d="M177.626,137.122c.014,34.936-31.832,63.473-65.018,60.3-32.742-3.128-59.642-35.688-51-67.339,6.94-25.4,20.415-49.093,31.746-73.187C97.82,47.413,104.05,38.7,110.014,30c4.91-7.161,11.506-8.073,16.489-.516,20.581,31.212,39.6,63.293,50.172,99.559C177.609,132.25,177.48,135.767,177.626,137.122Zm-19.105-1.251c-.888-3.16-1.729-9.276-4.255-14.59-9.678-20.355-19.944-40.431-29.892-60.658-3.979-8.088-8.535-5.411-11.318.12C101.917,82.877,90.751,105.034,80.8,127.712c-7,15.962-.376,29.655,11.757,40.456,12.068,10.743,26.677,12.84,41.221,6.587C149.037,168.194,158.117,156.165,158.521,135.871Z" fill="#27709a" fill-rule="evenodd"/>
    <path id="Path_106" data-name="Path 106" d="M250.737,126.547c-1.057,2.008-1.495,3.524-2.457,4.556-5.438,5.844-10.6,12.086-16.79,17-1.712,1.36-7.3-.436-9.951-2.374-4.243-3.109-7.074-8.13-11.293-11.282-6.782-5.068-6.642-8.473.392-13.392,4.074-2.847,7.367-7.021,10.445-11.035,4.292-5.6,7.514-8.43,12.3-.089,2.643,4.608,7.417,8.025,11.362,11.844C246.5,123.484,248.588,124.857,250.737,126.547Z" transform="translate(13.122 6.074)" fill="#27709a" fill-rule="evenodd"/>
    <path id="Path_107" data-name="Path 107" d="M39.745,53.978c6.23,5.181,13.08,10.556,19.407,16.487.946.887.032,4.776-1.114,6.58-1.091,1.72-3.711,2.4-5.488,3.769-5.122,3.934-10.587,11.564-15.112,11.023C32.52,91.245,28.1,83.394,24.3,78.108c-1.5-2.092-2.14-6.973-.79-8.563C28.186,64.037,33.907,59.417,39.745,53.978Z" fill="#27709a" fill-rule="evenodd"/>
    <path id="Path_108" data-name="Path 108" d="M190.448,17.231c5.688,7.506,11.783,12.084,11.295,15.8-.583,4.451-6.784,8.166-10.552,12.2-4.209-3.948-10.574-7.307-11.869-12.052C178.459,30.013,184.822,24.879,190.448,17.231Z" transform="translate(10.761)" fill="#27709a" fill-rule="evenodd"/>
  </g>
</svg>
