<svg xmlns="http://www.w3.org/2000/svg" width="489.268" height="512" viewBox="0 0 489.268 512">
  <g id="population-using-improved-sanitation" transform="translate(-132.064 -156.545)">
    <path id="Path_22" data-name="Path 22" d="M345.569,304.513c-5.549,0-11.109-.251-16.64.055-9.732.542-14.242-3.6-16.328-13.44-4.925-23.236-30.885-32.732-50.628-19.264-30.991,21.141-38.4,20.49-70.782.539-7.731-4.762-19.158-4.686-28.909-4.795-29.351-.327-29.357.064-29.272-29.877q.009-3.782,0-7.565c-.07-27.81-.064-28.161,28.491-27.35,12.82.363,23.859.085,29.69-14.488,1.42-3.551,8.8-6.19,13.658-6.6,11.016-.917,22.195.354,33.252-.254,12.7-.7,23.172-.263,29.765,14.127,2.1,4.6,13.764,6.6,21.1,6.714,44.6.693,84.577,34.866,89.229,77.242,2.388,21.8-.354,24.9-22.034,24.883q-5.294,0-10.592,0Z" transform="translate(1.901 50.143)" fill="#3c9cb5" fill-rule="evenodd"/>
    <path id="Path_23" data-name="Path 23" d="M215.276,279.82H396.6c-1.153,4-1.123,6.847-2.531,8.355-27.307,29.2-24.026,63.511-16.313,98.335,4.407,19.9,1.053,25-18.962,25.043q-47.649.123-95.3.024c-19.446-.064-24.1-6.239-16.222-24.18,21.165-48.233,18.995-43.19-16.092-80.445-6.714-7.126-12.378-15.235-18.523-22.9Q213.966,281.943,215.276,279.82Z" transform="translate(170.074 256.904)" fill="#3c9cb5" fill-rule="evenodd"/>
    <path id="Path_24" data-name="Path 24" d="M535.812,188.8c-3.423,4.273-5.937,8.092-9.1,11.251Q361.393,364.9,195.925,529.591c-7.638,7.6-15.175,15.6-24.006,21.567-4.391,2.964-11.61,1.74-17.548,2.409.9-5.741-.206-13.327,3.06-16.914,15.212-16.677,31.583-32.314,47.636-48.22q150.487-149.139,301.04-298.21c3.639-3.6,7.17-7.74,11.589-9.97,3.06-1.549,7.977-1.259,11.286.1C531.662,181.448,533.187,185.369,535.812,188.8Z" transform="translate(45.217 45.937)" fill="#3c9cb5" fill-rule="evenodd"/>
    <path id="Path_25" data-name="Path 25" d="M336.624,284.055c0,16.588-.266,33.183.085,49.762.285,13.407-6.1,19.422-19.146,19.3-11.557-.118-23.13.13-34.681-.218-10.117-.309-16.313-5.415-15.55-16.089,2.14-30.041,4.3-60.088,7.083-90.071,2.473-26.632,27.895-41.725,52.868-30.686,4.665,2.065,8.509,10.822,8.921,16.758C337.393,249.816,336.624,266.961,336.624,284.055Z" transform="translate(280.773 116.485)" fill="#3c9cb5" fill-rule="evenodd"/>
    <path id="Path_26" data-name="Path 26" d="M151.437,202.509c-5.809-5.1-13.876-9.8-18.141-16.828-2.476-4.074-1.005-14.336,2.528-17.427,6.13-5.361,17.5-12.232,22.7-9.841,22.155,10.18,42.7,8.152,64.235-.5,4.55-1.828,11.433-.944,16.113,1.181,18.626,8.449,36.422,9.048,55.229-.082,12.308-5.978,23.036-.611,29.308,11.019s.424,21.456-9.4,26.8c-5.679,3.088-14.285,1.937-21.344.984-6.336-.854-12.214-4.756-18.55-6.033-8.6-1.732-16.159.139-19.213,9.971-4.329,13.937-16.019,11.563-26.357,11.5-10.228-.067-21.822,2.809-26.593-11.109-4.444-12.974-14.636-12.166-24.928-9.133C169.36,195.259,161.992,198.537,151.437,202.509Z" transform="translate(0 0)" fill="#3c9cb5" fill-rule="evenodd"/>
    <path id="Path_27" data-name="Path 27" d="M336.085,291.546q-55.977,0-111.954.006c-9.354,0-19.755.206-20.306-12.381-.587-13.428,9.841-14.479,20.039-14.46q113.466.177,226.937.336c9.42.006,18.326,1.8,18.408,12.965.076,11-8.788,13.558-18.135,13.567q-57.489.1-114.984.03A.219.219,0,0,1,336.085,291.546Z" transform="translate(152.122 224.067)" fill="#3c9cb5" fill-rule="evenodd"/>
  </g>
</svg>
