<svg xmlns="http://www.w3.org/2000/svg" width="17.44" height="17.44" viewBox="0 0 17.44 17.44">
  <g id="save-file-option" transform="translate(-0.003)">
    <path id="Path_28" data-name="Path 28" d="M17.216,4.814a2.64,2.64,0,0,0-.545-.863L13.491.772a2.644,2.644,0,0,0-.863-.545,2.621,2.621,0,0,0-1-.227H1.093A1.051,1.051,0,0,0,.321.318,1.051,1.051,0,0,0,0,1.09V16.35a1.051,1.051,0,0,0,.318.772,1.052,1.052,0,0,0,.772.318h15.26a1.085,1.085,0,0,0,1.09-1.09V5.813A2.622,2.622,0,0,0,17.216,4.814Zm-9.946-3a.368.368,0,0,1,.363-.363h2.18a.368.368,0,0,1,.363.363V5.45a.368.368,0,0,1-.363.363H7.633A.368.368,0,0,1,7.27,5.45Zm5.813,14.17H4.363v-4.36h8.72Zm2.907,0H14.536V11.263a1.085,1.085,0,0,0-1.09-1.09H4a1.085,1.085,0,0,0-1.09,1.09v4.723H1.456V1.453H2.909V6.177A1.085,1.085,0,0,0,4,7.266h6.54a1.085,1.085,0,0,0,1.09-1.09V1.453a1.223,1.223,0,0,1,.443.113,1.224,1.224,0,0,1,.386.227l3.191,3.191a1.223,1.223,0,0,1,.227.392,1.25,1.25,0,0,1,.114.437V15.987Z" transform="translate(0 0)" fill="#fff"/>
  </g>
</svg>
