<svg xmlns="http://www.w3.org/2000/svg" width="10" height="10" viewBox="0 0 10 10">
  <g id="save-file-option" transform="translate(-0.003)">
    <path id="Path_50" data-name="Path 50" d="M9.873,2.76a1.514,1.514,0,0,0-.313-.495L7.737.443A1.516,1.516,0,0,0,7.243.13,1.5,1.5,0,0,0,6.67,0H.628A.6.6,0,0,0,.185.182.6.6,0,0,0,0,.625v8.75a.6.6,0,0,0,.182.443A.6.6,0,0,0,.628,10h8.75A.622.622,0,0,0,10,9.375V3.333A1.5,1.5,0,0,0,9.873,2.76ZM4.17,1.042A.211.211,0,0,1,4.378.833h1.25a.211.211,0,0,1,.208.208V3.125a.211.211,0,0,1-.208.208H4.378a.211.211,0,0,1-.208-.208V1.042ZM7.5,9.167h-5v-2.5h5Zm1.667,0H8.336V6.458a.622.622,0,0,0-.625-.625H2.295a.622.622,0,0,0-.625.625V9.167H.836V.833H1.67V3.542a.622.622,0,0,0,.625.625h3.75a.622.622,0,0,0,.625-.625V.833A.7.7,0,0,1,6.924.9a.7.7,0,0,1,.221.13l1.83,1.83a.7.7,0,0,1,.13.225.717.717,0,0,1,.065.251V9.167Z" transform="translate(0 0)" fill="#fff"/>
  </g>
</svg>
