<svg xmlns="http://www.w3.org/2000/svg" width="25" height="25" viewBox="0 0 25 25">
  <g id="search" transform="translate(-37 -235)">
    <path id="Path_18" data-name="Path 18" d="M18.027,14.635a.4.4,0,0,0-.57,0l-.521.521-.686-.686a6.416,6.416,0,0,0,1.09-3.582c0-.1-.01-.2-.015-.3l2.707-1.218a1.6,1.6,0,0,0,.937.306,1.612,1.612,0,0,0,.891-2.956l1.4-3.508c.042,0,.082.012.125.012a1.617,1.617,0,1,0-.891-.27l-1.4,3.508c-.042,0-.082-.012-.125-.012a1.594,1.594,0,0,0-.789.215L17.9,4.065a1.6,1.6,0,0,0,.242-.839,1.609,1.609,0,0,0-2.99-.829l-6.289-.74c0-.015,0-.029,0-.044A1.613,1.613,0,1,0,6.055,2.677L2.377,7.459a1.608,1.608,0,0,0-.361-.144V3.169a1.613,1.613,0,1,0-.806,0V7.316A1.61,1.61,0,1,0,2.946,9.778l1.51.711c-.008.133-.02.264-.02.4a6.447,6.447,0,0,0,10.034,5.362l.686.686-.521.521a.4.4,0,0,0,0,.57L20.9,24.3A2.4,2.4,0,1,0,24.3,20.9ZM23.387.807a.806.806,0,1,1-.806.806A.807.807,0,0,1,23.387.807Zm-.973,19.355-2.252,2.252L16.7,18.952,18.952,16.7Zm-.639-12.1a.806.806,0,1,1-.806-.806A.807.807,0,0,1,21.774,8.065ZM16.532,2.42a.806.806,0,1,1-.806.806A.807.807,0,0,1,16.532,2.42ZM7.258.807a.806.806,0,1,1-.806.806A.807.807,0,0,1,7.258.807ZM.807,1.613a.806.806,0,1,1,.806.806A.807.807,0,0,1,.807,1.613Zm.806,8.065a.806.806,0,1,1,.806-.806A.807.807,0,0,1,1.613,9.678Zm1.6-.666c0-.047.014-.092.014-.14a1.6,1.6,0,0,0-.255-.863l3.754-4.88a1.592,1.592,0,0,0,.533.1,1.61,1.61,0,0,0,1.377-.784l6.29.74c0,.015,0,.029,0,.044a1.615,1.615,0,0,0,1.613,1.613,1.594,1.594,0,0,0,.789-.215l2.276,2.6a1.575,1.575,0,0,0-.1,1.5L17.232,9.747a6.447,6.447,0,0,0-12.673-.1Zm2.03,1.876a5.645,5.645,0,1,1,5.645,5.645A5.651,5.651,0,0,1,5.242,10.887Zm9.87,4.865a6.45,6.45,0,0,0,.639-.639l.614.614-.639.639Zm.9,1.469,1.731-1.731.639.639-2.252,2.252-.639-.639Zm6.59,6.973a1.581,1.581,0,0,1-1.126-.467l-.743-.743,2.252-2.252.743.743A1.593,1.593,0,0,1,22.6,24.194Zm0,0" transform="translate(37 235)" fill="#fff"/>
  </g>
</svg>
