<svg xmlns="http://www.w3.org/2000/svg" width="464.175" height="512" viewBox="0 0 464.175 512">
  <g id="Skilled-health-professionals-density_copy" data-name="Skilled-health-professionals-density copy" transform="translate(-145.383 -122.166)">
    <path id="Path_46" data-name="Path 46" d="M377.189,122.17q107.885,0,215.777,0c13.328,0,16.562,3.02,16.566,16.1q.056,166.784,0,333.566c0,12.366-3.4,15.546-16.041,15.685-18.427.2-18.152.164-15.538,18.7,2.072,14.685.41,29.1-6.975,42.212-3.371,5.983-3.739,11.108-1.222,17.667,6.612,17.233,12.415,34.784,18.285,52.292,3.4,10.122-.162,15.481-10.835,15.56-32.332.236-64.673.4-96.991-.335-4.3-.1-9-5.086-12.526-8.755-2.03-2.111-2.07-6.127-3.026-9.28-3.5-11.5-8.11-20.566-21.012-26.09-21.529-9.217-30.561-29.7-37.57-50.874-4.555-13.758-10.011-27.215-14.695-40.933-2.638-7.726-7.349-10.338-15.568-10.306-70.274.273-140.55.113-210.828.123-17.3,0-19.592-2.127-19.594-19.142q-.018-165.3,0-330.6c0-12.3,3.369-15.6,16.019-15.6Q269.3,122.151,377.189,122.17Zm.539,31.732c-62.671,0-125.345.111-188.016-.125-9-.036-13.076,2.321-13.041,12.284q.472,134.58.21,269.161c-.014,23.943-.96,20.685,20.5,20.642q142-.288,284.005-.061c1.98,0,3.961.057,5.937-.024,6.391-.265,8.076-3.105,5.406-9.07-2.82-6.3-5.157-12.821-7.632-19.271a52.985,52.985,0,0,1,20.291-63.573c13.847-9,19.857-6.527,25.4,9.266,8.607,24.551,17.843,48.884,26.678,73.358,2.386,6.611,5.995,11.07,13.76,9.674,8.125-1.462,6.442-7.864,6.444-13.3q.03-137.553.042-275.1c0-13.2-.5-13.845-13.948-13.847Q470.748,153.9,377.728,153.9Z" transform="translate(0)" fill="#2a7c9b" fill-rule="evenodd"/>
    <path id="Path_47" data-name="Path 47" d="M252.6,244.861c11.832,0,23.67-.247,35.494.075,10.065.272,9.643-6.293,9.748-13.228.107-7.04-.755-12.264-9.866-12.1-19.385.359-38.779.146-58.17.17-1.972,0-4.252.672-5.857-.091-4.254-2.019-11.428-4.368-11.672-7.1-.657-7.379,6.291-7.687,12.037-7.849,2.627-.073,5.259-.014,7.888-.012,18.4.012,36.819-.343,55.21.177,10.6.3,10.247-6.105,10.483-13.489.247-7.665-1.858-11.757-10.428-11.513-14.449.412-28.919.176-43.378.164-2.619,0-5.768.637-7.732-.562-3.009-1.838-5.2-5.015-7.738-7.622,2.763-2.4,5.178-5.9,8.381-6.922,3.893-1.234,8.45-.412,12.719-.416,11.5-.008,23.007-.047,34.508.057,6.687.061,13.79,1.022,13.727-9.055,0-.3.189-.864.345-.883,9.385-1.242,18.756-2.988,28.176-3.317,2.852-.1,7.829,3.3,8.379,5.837,1.434,6.624,5.439,7.46,10.745,7.44,15.449-.059,30.893-.156,46.342-.114,5.7.016,12.479.138,12.406,7.774-.073,7.5-6.9,7.752-12.54,7.8-15.115.118-30.243.264-45.348-.187-9.493-.284-11.465,4.315-11.469,12.773-.006,8.772,2.7,12.526,11.921,12.294,19.706-.493,39.432-.219,59.152-.233,2.625,0,5.7-.665,7.768.452,3.063,1.651,5.415,4.622,8.069,7.03-2.581,2.443-4.839,5.466-7.849,7.135-2.043,1.13-5.137.428-7.766.426-19.718-.012-39.444.211-59.154-.207-8.984-.191-12.151,3.285-12.165,12.211s2.347,13.467,12.2,13.254c20.7-.45,41.406-.177,62.112-.205,1.972,0,4.287-.712,5.849.079,4.216,2.142,11.118,4.51,11.524,7.519.935,6.934-5.884,7.377-11.244,7.4-22.347.073-44.7-.022-67.044-.018-12.333,0-12.71.988-13.319,13.619-.5,10.308,4.729,12.094,13.331,11.923,17.74-.355,35.492-.154,53.24-.181,1.645,0,3.648-.615,4.863.107,3.794,2.246,9.868,4.577,10.363,7.636,1.014,6.251-4.889,7.316-10.223,7.3q-29.089-.083-58.174-.089c-12.252-.012-13.181.876-13.214,12.53-.032,11.536,1.148,12.741,13.13,12.747,17.746.01,35.492-.122,53.24-.106,10.493.01,14.206,3.185,13.384,13.429a366.193,366.193,0,0,1-5.117,37.961c-1.72,9.192-8.259,14.9-17.334,16.882-8.815,1.925-15.47-2.447-20.209-9.324-5.208-7.555-9.645-15.638-14.48-23.449-1.9-3.065-3.461-6.606-6.084-8.88-3.972-3.439-8.74-5.959-13.167-8.872-1.106,4.751-2.836,9.458-3.171,14.262-.527,7.521-.217,15.11-.057,22.666.13,6.314-2.909,8.925-9.04,8.776-6.569-.16-13.153-.284-19.716-.006-7.026.3-9.249-3.226-9.079-9.659.25-9.525.391-19.065.108-28.586-.077-2.609-1.225-6.65-2.97-7.36-2.013-.82-6.279.479-7.746,2.315-6.513,8.142-12.4,16.792-18.468,25.285-4.183,5.851-7.592,12.455-12.6,17.472-9.4,9.414-23.546,7.381-30.042-4.329-8.839-15.938-7.665-33.664-6.829-51,.306-6.356,5.863-7.734,11.785-7.659,18.4.233,36.823-.276,55.206.389,10.1.367,11.95-4.106,12.017-13.021.073-9.3-2.694-12.96-12.366-12.637-18.385.611-36.8.241-55.208.205-2.938-.006-6.295.428-8.7-.814-2.522-1.305-5.267-4.171-5.741-6.754-.316-1.722,2.79-4.987,5.068-6.03,2.822-1.29,6.368-1.321,9.6-1.335,18.734-.083,37.472-.29,56.2.158,8.957.213,11.311-3.739,11.055-11.946-.247-7.862.01-14.177-11.124-13.846-22.329.669-44.692.276-67.04.26-5.577,0-12.749.657-12.883-7.018-.142-8.182,7.3-7.9,13.21-7.975,10.844-.144,21.692-.041,32.536-.041C252.6,244.822,252.6,244.841,252.6,244.861Z" transform="translate(60.73 28.364)" fill="#2a7c9b" fill-rule="evenodd"/>
  </g>
</svg>
