<svg xmlns="http://www.w3.org/2000/svg" xmlns:xlink="http://www.w3.org/1999/xlink" width="16.003" height="16" viewBox="0 0 16.003 16">
  <defs>
    <clipPath id="clip-path">
      <rect width="16.003" height="16" fill="none"/>
    </clipPath>
  </defs>
  <g id="Skip_next" data-name="Skip next" clip-path="url(#clip-path)">
    <rect id="Rectangle_1456" data-name="Rectangle 1456" width="16" height="16" fill="none"/>
    <path id="Union_47" data-name="Union 47" d="M-936.693-17060.924a1,1,0,0,1-1-1v-9.08a1,1,0,0,1,1-1H-935a1,1,0,0,1,1,1v9.08a1,1,0,0,1-1,1Zm-13.308-1.4v-8.467a1.307,1.307,0,0,1,1.842-1.105l7.361,4.293a1.169,1.169,0,0,1,0,2.088l-7.361,4.293a1.261,1.261,0,0,1-.63.172A1.234,1.234,0,0,1-950-17062.32Z" transform="translate(950.001 17074.002)" fill="#1e8ce9"/>
  </g>
</svg>
