<svg xmlns="http://www.w3.org/2000/svg" xmlns:xlink="http://www.w3.org/1999/xlink" width="16" height="16" viewBox="0 0 16 16">
  <defs>
    <clipPath id="clip-path">
      <rect width="16" height="16" fill="none"/>
    </clipPath>
  </defs>
  <g id="Speaker" clip-path="url(#clip-path)">
    <rect id="Rectangle_976" data-name="Rectangle 976" width="16" height="16" fill="none"/>
    <path id="Path_260" data-name="Path 260" d="M8.347.48v15.2a.344.344,0,0,1-.32.32.5.5,0,0,1-.32-.16l-4.32-4.16H.347c-.16,0-.16,0-.32-.16s0-.16,0-.32V4.8c0-.16,0-.16.16-.32a.559.559,0,0,1,.32-.16h3.04L7.867,0h.32C8.347.16,8.347.16,8.347.48Z" transform="translate(3.044)" fill="#1e8ce9"/>
  </g>
</svg>
