<svg xmlns="http://www.w3.org/2000/svg" xmlns:xlink="http://www.w3.org/1999/xlink" width="16" height="16" viewBox="0 0 16 16">
  <defs>
    <clipPath id="clip-path">
      <rect width="16" height="16" fill="none"/>
    </clipPath>
  </defs>
  <g id="Skip_previous" data-name="Skip previous" clip-path="url(#clip-path)">
    <rect id="Rectangle_1455" data-name="Rectangle 1455" width="16" height="16" transform="translate(0)" fill="none"/>
    <path id="Union_45" data-name="Union 45" d="M-949-17060.92a1,1,0,0,1-1-1V-17071a1,1,0,0,1,1-1h1.692a1,1,0,0,1,1,1v9.078a1,1,0,0,1-1,1Zm13.162-.232-7.361-4.293a1.165,1.165,0,0,1,0-2.086l7.361-4.293a1.216,1.216,0,0,1,1.838,1.1v8.467a1.279,1.279,0,0,1-1.31,1.215A1.345,1.345,0,0,1-935.839-17061.152Z" transform="translate(950 17073.998)" fill="#1e8ce9"/>
  </g>
</svg>
