<svg id="stats" xmlns="http://www.w3.org/2000/svg" width="274.584" height="274.585" viewBox="0 0 274.584 274.585">
  <g id="Group_85" data-name="Group 85">
    <g id="Group_84" data-name="Group 84">
      <path id="Path_125" data-name="Path 125" d="M270.009,368.312H247.127V226.443a4.575,4.575,0,0,0-4.576-4.576H215.092a4.575,4.575,0,0,0-4.576,4.576V368.312h-9.153v-77.8a4.575,4.575,0,0,0-4.576-4.576H169.708a4.575,4.575,0,0,0-4.576,4.576v77.8H155.6V263.055a4.575,4.575,0,0,0-4.576-4.576H123.564a4.575,4.575,0,0,0-4.576,4.576V368.313h-9.154V281.36a4.575,4.575,0,0,0-4.576-4.576H77.8a4.575,4.575,0,0,0-4.576,4.576v86.952H64.07V317.971a4.575,4.575,0,0,0-4.576-4.576H32.035a4.575,4.575,0,0,0-4.576,4.576v50.341H4.576a4.576,4.576,0,0,0,0,9.153H32.035a4.575,4.575,0,0,0,4.576-4.576V322.548H54.917v50.341a4.575,4.575,0,0,0,4.576,4.576H77.8a4.575,4.575,0,0,0,4.576-4.576V285.936H100.68v86.952a4.575,4.575,0,0,0,4.576,4.576h18.307a4.575,4.575,0,0,0,4.576-4.576V267.631h18.306V372.889a4.575,4.575,0,0,0,4.576,4.576h18.686a4.575,4.575,0,0,0,4.576-4.576v-77.8H192.21v77.8a4.575,4.575,0,0,0,4.576,4.576h18.306a4.575,4.575,0,0,0,4.576-4.576V231.019h18.305V372.888a4.575,4.575,0,0,0,4.576,4.576h27.459a4.576,4.576,0,0,0,0-9.153Z" transform="translate(0 -102.88)" fill="#fff"/>
      <path id="Path_126" data-name="Path 126" d="M18.305,173.9A18.13,18.13,0,0,0,35.48,149.471l89.908-89.908a17.888,17.888,0,0,0,21.166,1.9l20.8,20.8a18.14,18.14,0,0,0-2.6,9.262,18.306,18.306,0,1,0,34.021-9.24l48.263-48.272a18.1,18.1,0,0,0,9.244,2.595,18.513,18.513,0,1,0-15.714-9.066L192.3,75.818A17.748,17.748,0,0,0,173.84,75.8L153.013,54.981a18.086,18.086,0,0,0,2.585-9.217,18.307,18.307,0,1,0-35.48,6.128L30.209,141.8a18.271,18.271,0,1,0-11.9,32.1ZM256.28,9.153a9.153,9.153,0,1,1-6.411,15.67c-.018-.018-.023-.046-.041-.064s-.046-.023-.064-.041A9.142,9.142,0,0,1,256.28,9.153ZM183.057,82.376a9.153,9.153,0,1,1-9.153,9.153A9.165,9.165,0,0,1,183.057,82.376ZM137.293,36.612a9.153,9.153,0,1,1-9.153,9.153A9.162,9.162,0,0,1,137.293,36.612ZM18.305,146.446A9.153,9.153,0,1,1,9.152,155.6,9.165,9.165,0,0,1,18.305,146.446Z" fill="#fff"/>
    </g>
  </g>
</svg>
