<svg xmlns="http://www.w3.org/2000/svg" width="266.997" height="512.046" viewBox="0 0 266.997 512.046">
  <g id="suicide-icon" transform="translate(-826.503 -283.976)">
    <path id="Path_82" data-name="Path 82" d="M963.852,283.976c5.338,3.372,7.176,8.283,7.063,14.477-.229,12.475-.146,24.958.006,37.436a4.151,4.151,0,0,0,2.4,2.965c9.887,3.2,19.92,5.951,29.76,9.279,9.022,3.051,11.44,13.536,4.093,18.6a14.924,14.924,0,0,1-11.1,1.663c-15.953-4.426-31.7-9.585-47.517-14.516-10.541-3.287-21.089-6.553-31.589-9.969-10.078-3.28-10.168-12.429-6.093-17.63,3.416-4.36,8.343-3.843,13.055-2.727,4.1.971,8.125,2.28,12.161,3.513,4.021,1.23,8.014,2.552,12.765,4.072,0-11.121-.016-21.833.016-32.545.006-1.811-.354-3.945.45-5.366a102.4,102.4,0,0,1,6.533-9.247Z" fill="#208fb8" fill-rule="evenodd"/>
    <path id="Path_83" data-name="Path 83" d="M949.26,466.557c-11.526-3.571-21.291-6.591-31.053-9.622-9.291-2.884-12.5-10.6-7.262-17.991,2.561-3.614,6.453-4.885,10.883-3.517q22.37,6.909,44.723,13.863,18.387,5.757,36.718,11.685c7.609,2.477,9.015,7.732,7.187,14.707-1.293,4.926-8.107,7.3-14.029,5.489-6.751-2.068-13.527-4.056-20.292-6.079q-.543.555-1.089,1.11c8.3,11.444,16.275,23.141,24.98,34.267,10.611,13.562,22.06,26.465,32.729,39.983,10.528,13.338,20.992,26.771,30.662,40.734,13.078,18.883,23.08,39.412,27.95,62,3.171,14.711,2.472,29.662.083,44.488-1.849,11.473-4.828,22.643-10.546,32.846-3.8,6.785-7.545,13.715-12.241,19.871-10.844,14.217-24.99,24.666-41.111,32.068-18.086,8.3-36.89,14.248-57.233,13.5-8.151-.3-16.323-.139-24.485-.031-17.215.227-33.2-4.861-48.768-11.447a117.53,117.53,0,0,1-42.531-30.465,104.738,104.738,0,0,1-22.7-41.227,150.785,150.785,0,0,1-5.158-32.881c-1.188-20.152,3.834-38.666,12.115-56.654,11.093-24.094,26.434-45.381,43.063-65.861,16.42-20.222,32.973-40.349,48.8-61.026C937.517,487.407,942.714,477.173,949.26,466.557Zm10.324,25.83c-1.452,2.34-2.467,4.364-3.83,6.116-15.366,19.768-30.523,39.705-46.263,59.172-16.663,20.611-33.115,41.25-45.9,64.662-12.368,22.652-18.844,45.834-14,72,4.191,22.619,14.541,41.232,32,55.574,20.482,16.822,44.93,24.051,71.021,25.932a122.678,122.678,0,0,0,40.613-4.021c31.705-8.486,57.779-24.313,70.754-56.4a101.1,101.1,0,0,0,6.967-51.941c-2.455-18.734-10.252-35.293-20.042-50.98-7.328-11.746-15.192-23.207-23.528-34.258-8.785-11.646-18.43-22.645-27.67-33.949-7.053-8.627-14.221-17.167-21.041-25.974C972.285,510.078,966.286,501.53,959.584,492.387Z" fill="#208fb8" fill-rule="evenodd"/>
    <path id="Path_84" data-name="Path 84" d="M908.838,407.519c-.005-7.662,5.309-12.478,16.369-8.853,17,5.572,34.063,10.952,51.088,16.453,8.969,2.9,17.943,5.783,26.853,8.858,6.833,2.358,9.351,7.184,7.646,13.97-1.386,5.515-7.386,8.483-13.992,6.443-13.2-4.075-26.342-8.365-39.475-12.665q-20.624-6.752-41.185-13.7C911.045,416.314,908.423,412.423,908.838,407.519Z" fill="#208fb8" fill-rule="evenodd"/>
    <path id="Path_85" data-name="Path 85" d="M919.357,360.029c9.527,2.865,18.244,5.434,26.93,8.106,18.33,5.641,36.63,11.38,54.972,16.983,6.757,2.064,9.611,5.825,9.708,11.4.153,8.894-7.509,12.237-15.215,9.857-18.794-5.8-37.557-11.708-56.336-17.556-7.442-2.317-14.9-4.592-22.348-6.888-9.661-2.976-10.526-12.878-6.137-17.5C913.025,362.222,916.587,361.41,919.357,360.029Z" fill="#208fb8" fill-rule="evenodd"/>
  </g>
</svg>
