<svg id="survey" xmlns="http://www.w3.org/2000/svg" width="180.797" height="165.731" viewBox="0 0 180.797 165.731">
  <g id="Group_114" data-name="Group 114" transform="translate(0 0)">
    <g id="Group_113" data-name="Group 113">
      <ellipse id="Ellipse_8" data-name="Ellipse 8" cx="3.767" cy="3.767" rx="3.767" ry="3.767" transform="translate(15.066 15.067)" fill="#fff"/>
      <ellipse id="Ellipse_9" data-name="Ellipse 9" cx="3.767" cy="3.767" rx="3.767" ry="3.767" transform="translate(30.133 15.067)" fill="#fff"/>
      <ellipse id="Ellipse_10" data-name="Ellipse 10" cx="3.767" cy="3.767" rx="3.767" ry="3.767" transform="translate(45.199 15.067)" fill="#fff"/>
      <path id="Path_241" data-name="Path 241" d="M110.433,220.866H193.3a3.767,3.767,0,0,0,0-7.533H110.433a3.767,3.767,0,0,0,0,7.533Z" transform="translate(-69 -145.534)" fill="#fff"/>
      <path id="Path_242" data-name="Path 242" d="M155.632,341.333h-45.2a3.767,3.767,0,1,0,0,7.533h45.2a3.767,3.767,0,1,0,0-7.533Z" transform="translate(-69 -228.335)" fill="#fff"/>
      <path id="Path_243" data-name="Path 243" d="M166.379,66.532c-.218,0-.43.055-.647.065V36.4a15.084,15.084,0,0,0-15.067-15.067H15.067A15.084,15.084,0,0,0,0,36.4V172a15.084,15.084,0,0,0,15.067,15.067h135.6A15.084,15.084,0,0,0,165.731,172V101.99l10.844-10.842v0a14.418,14.418,0,0,0-10.2-24.612ZM7.533,36.4a7.541,7.541,0,0,1,7.533-7.533h135.6A7.541,7.541,0,0,1,158.2,36.4V51.466H7.533ZM158.2,172a7.541,7.541,0,0,1-7.533,7.533H15.067A7.541,7.541,0,0,1,7.533,172V59H158.2V69.106a14.169,14.169,0,0,0-2.016,1.65L115.2,111.732H41.433a3.767,3.767,0,0,0,0,7.533h67.723l-3.617,18.094a3.767,3.767,0,0,0,3.693,4.506,3.846,3.846,0,0,0,.736-.073l18.826-3.767a3.743,3.743,0,0,0,1.927-1.03L158.2,109.522ZM126.2,130.863,114.036,133.3l2.435-12.183,34.192-34.192,9.742,9.742Zm45.045-45.041-5.518,5.518L155.989,81.6l5.519-5.519a6.889,6.889,0,0,1,9.74,9.744Z" transform="translate(0 -21.333)" fill="#fff"/>
    </g>
  </g>
</svg>
