<svg id="sync" xmlns="http://www.w3.org/2000/svg" width="11.546" height="10.263" viewBox="0 0 11.546 10.263">
  <g id="Group_64" data-name="Group 64" transform="translate(0 0)">
    <g id="Group_63" data-name="Group 63" transform="translate(0 0)">
      <path id="Path_38" data-name="Path 38" d="M0,31.835a4.83,4.83,0,0,0,1.7,3.613L0,36.956H4.33V33.115L2.717,34.545a3.612,3.612,0,0,1-1.274-2.711A3.9,3.9,0,0,1,4.33,28.218V26.88A5.274,5.274,0,0,0,0,31.835Z" transform="translate(0 -26.692)" fill="#fff"/>
      <rect id="Rectangle_34" data-name="Rectangle 34" width="1.443" height="1.443" transform="translate(5.051 6.93)" fill="#fff"/>
      <path id="Path_39" data-name="Path 39" d="M260.33,21.333H256v3.841l1.613-1.431a3.611,3.611,0,0,1,1.274,2.711A3.9,3.9,0,0,1,256,30.07V31.4a5.268,5.268,0,0,0,4.33-4.951,4.83,4.83,0,0,0-1.7-3.613Z" transform="translate(-248.784 -21.333)" fill="#fff"/>
      <rect id="Rectangle_35" data-name="Rectangle 35" width="1.443" height="4.33" transform="translate(5.051 1.78)" fill="#fff"/>
    </g>
  </g>
</svg>
