<svg xmlns="http://www.w3.org/2000/svg" width="512" height="438.92" viewBox="0 0 512 438.92">
  <g id="tb" transform="translate(-804.996 -408)">
    <g id="Group_2" data-name="Group 2" transform="translate(804.996 470.848)">
      <path id="Path_86" data-name="Path 86" d="M1316.224,721.371a313.232,313.232,0,0,0-11.816-62.555,479.23,479.23,0,0,0-40.978-95.484c-18.288-32.581-39.153-63.205-67.188-88.253-14.854-13.273-31.469-24.164-51.132-29.522-10.49-2.86-24.4,3.369-30.314,12.46-9.328,14.339-10.19,30.64-10.7,46.558-.975,30.331-.284,60.716-.284,91.639-11.7-5.238-21.877-10.121-23.7-23.988-10.32,5.248-23.928,3.881-36.637,1.768-.473-.078-.933-.2-1.392-.318a18,18,0,0,1-5.652,11.856c-5.46,4.833-11.3,9.9-19.426,11.991,0-32.768-.072-64.917.037-97.071.04-12.559-1.679-24.78-6.783-36.283-5.344-12.037-17.535-22.456-34.6-17.773-18.253,5.009-33.544,14.759-47.263,26.639-30.971,26.821-53.553,60.415-72.929,96.051a465.966,465.966,0,0,0-36.6,86.107c-8.175,26.709-13.6,53.891-13.867,81.93-.107,11.2,1.566,22.268,3.487,33.214,2.6,14.8,6.843,29.4,16.749,41.08,8.824,10.405,18.064,13.5,28.855,3.034a116.708,116.708,0,0,1,15.3-12.085c37.38-25.781,78.067-46.134,116.267-70.564,19.478-12.455,32.315-28.456,31.419-52.943-.456-12.455.272-24.956-.242-37.407-.229-5.551,2.047-9.307,6.247-11.5,7.41-3.873,14.156-8.708,21.226-13.074,10.722-6.621,21.478-7.883,32.624-.527,7.365,4.862,15.229,8.968,22.757,13.6,3.282,2.021,4.3,5.135,4.213,9.128-.267,13.022-.052,26.052-.11,39.078-.1,20.954,9.354,37.522,25.845,49.158,24.1,17,50.608,30.248,75.812,45.554,21.822,13.255,44.85,24.75,63.719,42.454,7.44,6.98,12.924,7.085,21.667,1.622,10.615-6.636,14.662-17.545,18.162-28.413A165.568,165.568,0,0,0,1316.224,721.371ZM997.076,673.149c.28,19.3-8.617,32.161-24.731,42.187-38.492,23.948-79.065,44.464-116.284,70.48-3.522,2.46-7.574,4.428-10.453,7.491-4.541,4.826-5.893,1.891-8.013-2.029-7.479-13.837-9.948-29.063-10.679-44.256-2.077-43.185,9.9-83.54,26.087-123.1a438.375,438.375,0,0,1,40.864-77.837c17.844-26.7,37.612-52.168,65.717-69.45a97.728,97.728,0,0,1,15.7-8.11c10.956-4.234,16.276-1.434,18.183,10.161a230.288,230.288,0,0,1,3.359,33.184c.472,26.872.154,53.758.154,80.639S996.684,646.273,997.076,673.149Zm297.3,82.8c-1.759,12.639-3.965,24.74-10.036,36.123-2.172,4.072-3.013,4.744-6.938,1.7-21.066-16.309-44.261-29.334-67.243-42.7-22.481-13.072-45.078-26.027-66.831-40.237-11.477-7.5-18.361-18.55-18-33.693.686-29.086.2-58.2.2-87.306,0-28.271.058-56.543-.03-84.812a85.672,85.672,0,0,1,4.943-30.2c3.208-8.747,4.944-9.888,13.682-7.088,15.488,4.962,28.407,14.215,40.041,25.109,26.583,24.888,46.461,54.706,63.826,86.484,18.426,33.719,32.958,68.806,41.545,106.3C1294.84,708.828,1297.695,732.031,1294.373,755.947Z" transform="translate(-804.996 -444.856)" fill="#208fb8"/>
      <path id="Path_87" data-name="Path 87" d="M1107.327,586.285c-6.565-1.564-11.9,1.2-15.073,6.621-3.449,5.907-9.568,1.845-13.868,4.468-.522.321-1.77-5.261-2.948-7.723-2.2-4.6-4.751-9.583-9.911-11.918-1.753-.795-3.455-3.158-5.791-.343-2.457,2.962.193,4.157,1.649,5.445,5.076,4.5,7.974,9.486,7.747,16.771-.235,7.564-6.524,11.991-7.719,18.619-2.128-1.049-4-2.421-6.084-2.925-10.835-2.628-10.862-2.553-8.021-13.3.2-.769.911-1.41,1.088-2.179a4.088,4.088,0,0,0-2.556-4.855c-1.864-.781-3.335.851-3.852,2.418-.682,2.062-1.6,4.052-2.251,6.137-2.454,7.916,2.522,17.687-6.033,24.125-1.118.839-1.369,3.712.541,4.255,1.724.491,4.491,1.792,5.7-1.443,1.294-3.472,4.512-4.822,7.465-6.331,6.814-3.479,11.062-.934,11.28,6.667.065,2.271-.068,4.55.024,6.819.322,7.9,9.06,20.8,15.673,23.083,2.128.732,4.931,1.567,6.226-.529,1.279-2.065-.382-4.14-2.345-5.673-12.561-9.82-15.381-18.515-10.835-33.069,4.026-12.891,11.241-18.672,22.381-18.225,4.945.2,9.215,1.63,12.61,5.337,2.051,2.239,5.175,2.495,6.8.772,2.181-2.305-.433-4.386-2.085-6.321-2.442-2.853-5.955-3.878-8.83-5.658,1.915-3.132,4.711-5.672,8.31-4.1,3.156,1.381,5.619,1.985,6.471-1.712C1114.08,587.231,1110.021,586.927,1107.327,586.285Z" transform="translate(-655.321 -359.368)" fill="#208fb8"/>
      <path id="Path_88" data-name="Path 88" d="M1027.506,542c-11.573.012-19.646,7.878-19.5,19,.136,10.455,8.512,18.491,19.293,18.517,11.41.029,19.92-7.972,19.927-18.737C1047.218,549.766,1039.05,541.988,1027.506,542Z" transform="translate(-669.703 -380.838)" fill="#208fb8"/>
      <path id="Path_89" data-name="Path 89" d="M1072,497.88c-5.914-2.8-11.22-1.976-14.689,3.5-3.4,5.361-9.464,2.394-13.425,5.365-1.229-2.6-2.522-5.169-3.671-7.8-1.608-3.69-4.483-6.314-7.2-9.121-1.588-1.64-3.646-2.626-5.151-1.32-2.115,1.835-.854,4,.984,5.716,3.963,3.7,7.566,7.605,6.659,13.053.677,7.351-4.527,11.763-7.416,16.708-1.3,2.239-7.326-1.949-11.6-2.314-3.132-.268-1.238-5.337-1.248-8.185-.009-1.721,1.881-3.339,1.514-5.494-.186-1.09-.007-2.437-1.327-2.713-1.3-.271-2.919-.578-3.707,1.02-.726,1.473-1.026,3.168-1.831,4.585-4.023,7.082,3.416,17.46-6.6,22.915-.663.363-.682,3.032.912,3.54a4.682,4.682,0,0,0,3.915-.7c2.872-2.643,5.366-5.822,9.164-7.121,4.872-1.666,10.085.72,9.2,5.126-2.648,13.11,4.836,20.555,12.961,28.162,1.438,1.345,2.585,3.063,4.874.941,2.676-2.478.727-3.879-.883-5.487-2-2.005-4.038-3.98-6.006-6.018-8.048-8.332-6.872-23.839,2.674-35.51,5.269-6.442,14.325-6.367,24.869-.307,1.859,1.071,4.884,4.7,6.9.578,1.13-2.314-.764-4.725-3.646-5.714-.977-.334-1.572-1.669-2.532-2.2-1.661-.914-4.543-1.315-3.939-3.538.66-2.416,3.53-2.259,5.839-2.125a26.942,26.942,0,0,0,3.4-.005c1.543-.107,3.448.542,3.738-2.1C1074.971,499.085,1073.624,498.644,1072,497.88Z" transform="translate(-673.684 -416.747)" fill="#208fb8"/>
      <path id="Path_90" data-name="Path 90" d="M1074.707,551.086c-9.232.749-14.194,5.733-13.691,14.281-.027,8.443,5.709,14.573,13.64,14.578,6.192.005,13.609-7.795,13.643-14.341C1088.331,558.214,1081.613,550.525,1074.707,551.086Z" transform="translate(-635.472 -374.75)" fill="#208fb8"/>
      <path id="Path_91" data-name="Path 91" d="M1050.848,519c-7.612-.111-14.211,5.779-13.754,13.412.5,8.482,4.853,14.223,14.029,13.872,8.158.092,14.389-5.174,14.795-12.506C1066.314,526.722,1058.555,519.112,1050.848,519Z" transform="translate(-650.143 -395.898)" fill="#208fb8"/>
      <path id="Path_92" data-name="Path 92" d="M1022.173,577c-8.715-.087-14.138,4.749-14.177,12.646-.046,8.918,5.109,14.537,13.434,14.638,8.064.1,13.725-5.368,13.85-13.369C1035.406,582.759,1030.069,577.079,1022.173,577Z" transform="translate(-669.519 -357.598)" fill="#208fb8"/>
      <path id="Path_93" data-name="Path 93" d="M1047.656,554.3c-4.243.09-8.721,2.947-8.719,9.195,0,6.725,5.7,8.255,9.4,8.281,3.671.024,8.6-3.02,7.823-8.472C1056.233,557.006,1051.407,554.221,1047.656,554.3Z" transform="translate(-648.695 -372.458)" fill="#208fb8"/>
      <path id="Path_94" data-name="Path 94" d="M1084.021,614.978c-4.613-.046-7.7,1.828-7.963,6.526-.283,5.09,2.721,8.589,7.632,8.652,4.473.058,7.072-3.327,7.865-8.838C1090.569,618.152,1088.966,615.029,1084.021,614.978Z" transform="translate(-624.852 -332.27)" fill="#208fb8"/>
      <path id="Path_95" data-name="Path 95" d="M906.761,597.774c-4.3-3.462-5.284,1.767-7.31,4.459-3.4,4.529-8.673,5.119-13.717,4-5.538-1.229-3.107-5.919-3.049-9.389.044-2.583-.982-4.872-1.455-7.254-.588-2.957-1.511-3.647-4.249-3.622-3.9.037-3.018,2.865-2.78,4.769,1.31,10.46-2.3,19.646-7.146,28.479-2.1,3.84-5.354,6.28-9.74,7.871-8.966,3.255-16.048-.747-22.945-5.146-2.851-1.818-5.008-2.885-7.167.077-2.408,3.3,1.359,4.527,2.885,5.849,2.863,2.471,6.35,4.219,9.8,6.41-2.759,3.966-5.653,6.386-10.395,3.554-2.856-1.705-5.3-.44-6.258,2.063-.975,2.548,2.01,4.756,3.518,5.075,6.289,1.316,13.891,2.795,17.676-3.479,3.322-5.506,7.549-4.938,12.306-6.354,9.79-2.914,5.556,5.059,7.624,8.2,2.278,3.448,5.2,6.466,7.74,9.749,2.171,2.807,5.733,4.446,7.933,2.227,3.008-3.034-.1-5.334-2.858-7.638A17.887,17.887,0,0,1,872.263,626c3.141-7.007,4.6-15.6,16.392-11.319,4.345,1.579,6.079,2.674,6.018,7.116-.046,3.429-.276,6.732-2.13,9.617-2.019,3.138,1.2,3.8,2.408,5.09,1.634,1.748,3.543.061,4.055-1.291,2.217-5.851,6.425-12.059,3.228-18.1-2.59-4.885-.631-6.864,2.307-9.51C907.636,604.814,910.891,601.1,906.761,597.774Z" transform="translate(-792.268 -352.542)" fill="#208fb8"/>
      <path id="Path_96" data-name="Path 96" d="M946.582,496.623c-8.067-3-14.031.1-17.361,6.64-3.589,7.053-9.744,1.867-14.138,4.427-1.748,1.021-2.911-2.473-2.972-3.562-.419-7.51-5.769-11.694-10.288-16.529-2.169-2.323-3.763-3.683-6.785-.668-3.375,3.37.213,4.326,1.559,5.636,4.732,4.6,8.078,9.771,8.63,17.2-1.154,6.342-5.281,11.964-8.325,18.041a3.047,3.047,0,0,1-2.06,1.26c-11.6,1.669-16.44-3.963-13.009-15.018a27.023,27.023,0,0,0,.97-3.98,3.926,3.926,0,0,0-2.894-4.55c-1.9-.559-2.958,1.27-3.82,2.72-3.078,5.187-5.3,11.2-3.185,16.675,2.253,5.834-.242,8.589-3.7,12.068-1.893,1.906-4.874,4.471-1.011,7.354,3.356,2.507,5.041.483,6.548-2.536a11.87,11.87,0,0,1,3.48-3.683c3.081-2.384,6.869-4.48,10.5-3.329,4.338,1.375,4.812,5.719,4.37,9.936a42.436,42.436,0,0,0-.021,5.1c.063,3.608,2.336,6.425,5.4,6.3,3.54-.143,3.811-4.111,2.972-6.7a16.278,16.278,0,0,1,.351-10.127c3.163-9.612,4.408-20.625,16.594-24.511,8.708-2.774,15.6.655,22.355,5.08,2.28,1.492,4.081,4.469,6.771,1.054,2.829-3.593-.614-5.358-2.694-7.193a26.412,26.412,0,0,0-6.747-4.7c-4.865-2.08-1.714-4.077.217-4.923,1.883-.827,4.853-1.02,6.538-.065,2.988,1.7,5.078,1.224,5.965-1.586C951.8,499.254,949.867,497.844,946.582,496.623Z" transform="translate(-764.377 -418.472)" fill="#208fb8"/>
      <path id="Path_97" data-name="Path 97" d="M905.433,542c-12.31.022-19.368,6.737-19.433,18.486-.061,11.12,7.68,19.012,18.669,19.029,12.23.021,18.849-6.613,18.846-18.877C923.51,547.832,917.831,541.978,905.433,542Z" transform="translate(-751 -380.838)" fill="#208fb8"/>
      <path id="Path_98" data-name="Path 98" d="M862.355,535c-6.548.031-14.356,7.45-14.353,13.642,0,7.936,6.135,13.672,14.588,13.642s14.419-5.346,14.4-12.822C876.96,540.663,871.189,534.959,862.355,535Z" transform="translate(-774.667 -385.332)" fill="#208fb8"/>
      <path id="Path_99" data-name="Path 99" d="M845.737,577c-9.215.019-12.692,3.687-12.738,13.432-.036,8.509,5.492,14,13.949,13.851,8.166-.143,13.464-5.975,13.335-14.68C860.172,582.145,854.215,576.983,845.737,577Z" transform="translate(-785.248 -357.598)" fill="#208fb8"/>
      <path id="Path_100" data-name="Path 100" d="M902.471,577.046c-6.684.2-13.551,8.086-13.471,15.465.08,7.349,6.563,14.09,13.851,13.319,9.235-.975,13.927-5.723,13.432-14.477C916.25,583.14,910.142,576.814,902.471,577.046Z" transform="translate(-748.934 -357.598)" fill="#208fb8"/>
      <path id="Path_101" data-name="Path 101" d="M872.039,563.044c-5.1.285-7.81,3.491-8,8.458-.2,5.284,4.321,6.36,6.814,7.6,6.117-.072,9.643-2.858,9.322-7.851C879.888,566.9,877.57,562.737,872.039,563.044Z" transform="translate(-765.548 -366.663)" fill="#208fb8"/>
      <path id="Path_102" data-name="Path 102" d="M908.266,519.106c-4.746,1.267-7.4,3.25-7.394,8.646.005,5.755,3.68,7.8,7.523,7.912,4.307.121,7.561-3.462,7.938-8.026C916.818,521.819,911.417,521.113,908.266,519.106Z" transform="translate(-740.926 -395.73)" fill="#208fb8"/>
    </g>
    <rect id="Rectangle_1" data-name="Rectangle 1" width="6.661" height="182.459" transform="translate(1072.807 420.789)" fill="#208fb8"/>
    <path id="Path_103" data-name="Path 103" d="M985.39,603.533a7.043,7.043,0,0,1-7.247,6.821H953.913a7.044,7.044,0,0,1-7.247-6.821V414.821A7.044,7.044,0,0,1,953.913,408h24.229a7.043,7.043,0,0,1,7.247,6.821Z" transform="translate(94.421)" fill="#208fb8"/>
  </g>
</svg>
