<svg xmlns="http://www.w3.org/2000/svg" width="512" height="486.587" viewBox="0 0 512 486.587">
  <g id="tbtreatment" transform="translate(-6.802 -17.021)">
    <path id="Path_109" data-name="Path 109" d="M235.748,202.074c-.479,6.748,3.1,11.091,7.6,15.112,5.836,5.214,11.22,10.944,17.161,16.027,17,14.546,36.521,21.955,59.193,20.918,12.3-.563,24.652-.093,36.979-.134,10.1-.033,16.674-6.781,16.7-17.059.033-10.367-6.422-17.155-16.514-17.178-13.494-.03-26.99-.1-40.48.131-17.807.309-30.709-8.72-42.924-21.949h6.842q34.233.008,68.469.014c19.607,0,31.047,8.878,35.52,28.071,3.227,13.859.969,26.854-7.836,38.277a28.006,28.006,0,0,1-23.3,11.465c-29.654-.053-59.307.037-88.961-.039-12.491-.031-21.032-6.686-26.55-17.287-1.821-3.5-3.869-4.551-7.6-4.82-13.615-.979-27.2-2.392-40.8-3.62-15.4-1.392-30.109,2.411-44.737,6.34-23.287,6.256-46.513,12.74-69.727,19.26-6.569,1.846-12.121.357-17.124-4.008-9.27-8.086-13.157-23.792-8.725-35.277,1.887-4.891,4.874-8.892,10.107-10.29,31.8-8.495,63.594-17.045,95.485-25.2,16.85-4.309,34-3.523,51.146-1.556C215.575,200.411,225.515,201.135,235.748,202.074Z" transform="translate(0 5.914)" fill="#27709a" fill-rule="evenodd"/>
    <path id="Path_110" data-name="Path 110" d="M206.468,137.12c-6.508.558-13.117,1.18-19.735,1.679-9.469.714-16.1,7.652-15.323,16.15.8,8.782,8.2,14.5,17.622,13.666,4.113-.363,8.236-.626,13.055-.986l-6.249,26.507c-31.038-1.509-60.125,6.2-89.445,14.558a9.663,9.663,0,0,1-.165-2.4c6.577-32.446,13.094-64.9,19.827-97.318,4.075-19.617,18.086-33.3,36.738-36.022a11.066,11.066,0,0,1,6.88,1.436c8.061,5,15.9,10.368,23.789,15.638a12.133,12.133,0,0,1,3.045,2.525C202.148,100.027,208.094,126.474,206.468,137.12Z" transform="translate(3.399)" fill="#27709a" fill-rule="evenodd"/>
    <path id="Path_111" data-name="Path 111" d="M518.8,280.281V294.47H6.8V280.281Z" transform="translate(0 7.38)" fill="#27709a" fill-rule="evenodd"/>
    <path id="Path_112" data-name="Path 112" d="M425.23,475.773H399.964V460.781H109.028v14.793H83.2c0-6.359-.565-12.7.138-18.9.969-8.549,8.267-14.113,17.793-14.25,11-.156,22-.066,33-.066q135.489.009,270.978.129a29.777,29.777,0,0,1,11.969,2.553,13.671,13.671,0,0,1,8.07,11.865C425.529,463,425.23,469.143,425.23,475.773Z" transform="translate(6.642 12.93)" fill="#27709a" fill-rule="evenodd"/>
    <path id="Path_113" data-name="Path 113" d="M281.715,317.182V439.241H230.4V317.182Z" transform="translate(6.804 12.93)" fill="#27709a" fill-rule="evenodd"/>
    <path id="Path_114" data-name="Path 114" d="M498.072,298.924c.12,9.055-5.075,14.068-14.438,14.082q-55.857.076-111.713.035-162.42.006-324.843,0c-2.231,0-4.465.047-6.692-.049-8.164-.352-12.976-5.4-13.012-14.063,9.4,0,18.816-.016,28.226.029.775,0,2.171.33,2.23.676.8,4.639,4.5,3.154,7.234,3.178,12.7.1,25.4.123,38.094-.049,1.733-.023,3.448-1.3,5.17-2q-.209-.926-.416-1.852h32.322q137.453,0,274.907.035c2.3,0,5.385-1.111,5.714,2.955.032.393,2.032.9,3.119.906q21.106.086,42.214.006c.986,0,2.766-.2,2.836-.555,1.1-5.535,5.533-3.113,8.548-3.246C484.4,298.719,491.248,298.924,498.072,298.924Z" transform="translate(0 7.928)" fill="#27709a" fill-rule="evenodd"/>
    <path id="Path_115" data-name="Path 115" d="M132.15,439.273c0-21.479-.557-42.307.163-63.092.667-19.232-3.849-37.65-6.764-56.348-.126-.813-.231-1.629-.392-2.77h47.9c.114,1.867.315,3.627.315,5.387.01,37.307-.065,74.611.077,111.918.016,4.2-1.266,5.385-5.381,5.275-10.152-.266-20.316-.061-30.475-.076C135.974,439.564,134.349,439.4,132.15,439.273Z" transform="translate(3.577 12.93)" fill="#27709a" fill-rule="evenodd"/>
    <path id="Path_116" data-name="Path 116" d="M430.906,271.266a37.913,37.913,0,1,1,37.429-38.6A37.779,37.779,0,0,1,430.906,271.266Z" transform="translate(13.605 5.799)" fill="#27709a" fill-rule="evenodd"/>
    <path id="Path_117" data-name="Path 117" d="M332.928,250.4c-10.775-.565-21.686-.267-32.3-1.9-14.957-2.309-27.84-9.694-39.01-19.884-6.022-5.494-11.912-11.138-17.741-16.838-5.277-5.161-5.1-12.1.252-17.683,5.256-5.489,12.316-5.934,17.686-.962s10.574,10.131,15.938,15.112c11.443,10.627,24.623,16.479,40.633,15.815,12.791-.53,25.621-.177,38.434-.121,7.8.033,12.352,4.983,12.273,13.116-.076,7.836-4.656,12.7-12.18,12.761-7.988.067-15.975.015-23.963.015Q332.94,250.111,332.928,250.4Z" transform="translate(8.591 5.406)" fill="#27709a" fill-rule="evenodd"/>
    <path id="Path_118" data-name="Path 118" d="M232.966,50.521a33.036,33.036,0,1,1-32.575-33.5A32.842,32.842,0,0,1,232.966,50.521Z" transform="translate(5.038)" fill="#27709a" fill-rule="evenodd"/>
    <path id="Path_119" data-name="Path 119" d="M192.461,164.954c-1.824.153-3.649.455-5.47.434a11.464,11.464,0,0,1-11.668-10.717,11.293,11.293,0,0,1,10.461-11.813c11.924-1.118,23.863-2.119,35.812-2.934,10.277-.7,11.7-1.733,14.4-11.7,4.88-17.957,9.742-35.919,14.741-53.843,1.577-5.654,5.5-8.742,10.623-8.982a10.575,10.575,0,0,1,10.8,7.234,14.95,14.95,0,0,1,.33,7.78c-5.2,19.761-10.451,39.515-16.125,59.145-3.8,13.137-14.49,21.315-28.092,22.471q-17.9,1.521-35.807,3.026C192.467,165.024,192.464,164.989,192.461,164.954Z" transform="translate(5.719)" fill="#27709a" fill-rule="evenodd"/>
    <path id="Path_120" data-name="Path 120" d="M247.813,75.88c-2.18-1.045-4.007-1.823-5.742-2.771-5.512-3.015-7.4-8.363-4.814-13.407,2.471-4.811,7.834-6.645,13.273-4.106,9.793,4.569,19.375,9.6,29.231,14.023,5.656,2.541,9.691,5.806,9.277,12.252,5.76,2.167,11.359,3.83,16.566,6.313,18.039,8.6,25.08,24.124,19.557,43.339-1.877,6.525-5.092,12.663-7.021,19.178a130.724,130.724,0,0,0-4.957,21.835c-.838,7.19-.184,14.554-.184,22.091H308.44c-2.656-18.118.512-35.2,7.156-51.881a106.885,106.885,0,0,0,5.682-17.484c2.443-11.705-1.221-21.837-11.264-28.275-6.441-4.131-14.119-6.367-21.334-9.223-1.127-.446-2.771.229-4.125.588-1.426.378-2.75,1.268-4.182,1.466-5.881.811-8.264-1.592-6.262-7.045,3.59-9.786-3.736-20.266-14.24-18.847C253.336,64.808,249.788,69.222,247.813,75.88Zm.539-13.684c-2.524-2.031-4.756-4.271-5.085-4.019a13.916,13.916,0,0,0-4.31,5.168c-.289.656,2.384,3.6,2.811,3.42C243.766,65.91,245.453,64.328,248.352,62.2Z" transform="translate(7.656)" fill="#27709a" fill-rule="evenodd"/>
    <path id="Path_121" data-name="Path 121" d="M131.678,463.615a88.173,88.173,0,0,0,9.986-.076c4.317-.5,5.954,1.768,6.9,5.381a17.578,17.578,0,0,1-7.2,18.834,17.015,17.015,0,0,1-20.07-.729,17.453,17.453,0,0,1-5.843-19.279c.945-2.871,2.428-4.445,5.738-4.189C124.666,463.822,128.18,463.615,131.678,463.615Zm.009,7.037c-3.656.068-6.785,3.158-6.441,6.693.365,3.76,2.613,6.041,6.407,6.328,3.551.268,6.571-2.885,6.607-6.553A6.266,6.266,0,0,0,131.687,470.652Z" transform="translate(3.161 12.93)" fill="#27709a" fill-rule="evenodd"/>
    <path id="Path_122" data-name="Path 122" d="M373.936,463.615c3.664,0,7.338.182,10.988-.055,3.094-.2,4.461,1.281,5.4,3.953a17.408,17.408,0,0,1-5.953,19.662,17.034,17.034,0,0,1-20.484.15,17.407,17.407,0,0,1-6.168-19.582c.975-2.926,2.436-4.426,5.725-4.186C366.926,463.813,370.438,463.615,373.936,463.615Zm-.188,20.078c3.926-.041,7.111-3.277,6.779-6.877-.354-3.836-2.529-6.086-6.521-6.145a6.211,6.211,0,0,0-6.4,6.732C367.865,481.387,370.326,483.238,373.748,483.693Z" transform="translate(10.265 12.93)" fill="#27709a" fill-rule="evenodd"/>
  </g>
</svg>
