<svg xmlns="http://www.w3.org/2000/svg" width="511.422" height="512" viewBox="0 0 511.422 512">
  <g id="td-icon" transform="translate(-868.58 -440.767)">
    <ellipse id="Ellipse_3" data-name="Ellipse 3" cx="145.001" cy="145.001" rx="145.001" ry="145.001" transform="translate(985.101 574.404)" fill="#208fb8"/>
    <g id="Group_3" data-name="Group 3" transform="translate(868.58 440.767)">
      <path id="Path_104" data-name="Path 104" d="M1245.3,645.907c5.211,15.167,15,13.072,25.783,9.274,14.318-5.042,28.913-9.3,43.273-14.232,13.759-4.728,28.294-7.4,37.805-21.05,2.565-3.683,12.759-4.916,18.08-3.148,8.069,2.677,12.359,11.538,8.072,19.2-3,5.355-12.907,12.544-16.217,11.06-17.158-7.678-31.439,1.063-46.426,5.366-15.843,4.545-31.389,10.143-47.076,15.243-8.764,2.853-11.494,7.8-10.423,17.727a201.629,201.629,0,0,1,.01,46.381c-1.28,10.235,2.158,14.981,10.347,17.834,16.392,5.708,32.831,11.374,49.534,16.037,4.441,1.244,10.1-.619,14.88-2.095,10.389-3.2,19.741-.434,22.555,9.24,1.614,5.554-2.45,15.109-7.105,19.616-7.907,7.657-15.48,2.09-22.421-4.585a65.12,65.12,0,0,0-18.5-12.758c-11.5-5.021-23.636-8.641-35.582-12.61-4.1-1.364-9.253-3.981-12.526-2.633-10.528,4.347-19.963,13.5-32.121,4.036-.637,3.569-2.986,9.315-1.643,10.371,14.326,11.264,28.97,22.2,44.218,32.16,3.14,2.053,9.2.029,13.834-.658,14.062-2.087,26.2,6.081,27.928,19.051,1.6,12.077-7.667,24.25-20.154,26.46-11.622,2.056-23.73-8.918-26.663-21.779-1.567-6.852-5.428-14.323-10.554-18.981-9.921-9.01-21.253-16.559-32.492-23.96-2.913-1.915-7.67-1.037-11.577-1.442,1.084,3.736,1.037,8.7,3.487,10.953,5.376,4.958,7.212,8.5,2.173,15.232-2.166,2.9-2.014,10.091.141,13.247q20.968,30.681,43.57,60.224c3.354,4.375,9.294,7.367,14.639,9.488,11.076,4.389,17.933,12.748,13.338,21.452-3.02,5.726-11.264,12.176-17.145,12.158-10.75-.034-16.3-7.931-15.211-19.869a23.418,23.418,0,0,0-3.712-14.37c-13.894-19.981-28.644-39.367-42.714-59.233-5.671-8.007-10.755-9.762-20.569-5.222-14.454,6.688-30.057,11.217-45.55,15.185-8.059,2.064-12.241,4.663-12.016,13.539.426,16.967-.324,33.967.394,50.913.219,5.193,2.787,10.812,5.752,15.251,5.622,8.422,6.546,16.353-.9,23.518-7.4,7.118-15.682,7.027-23.208-.246-7.581-7.325-7.022-14.83-.872-23.184,3.177-4.313,6.045-9.961,6.275-15.128a499.491,499.491,0,0,0-.167-50.89c-.261-4.459-4.295-10.977-8.169-12.474-8.053-3.111-8.121-7.179-6.251-14.109.755-2.79-1.7-6.45-2.688-9.715-3.09,2.158-7.863,3.67-8.984,6.588-5.292,13.762-10.337,27.724-13.858,42.011-1.353,5.488.136,12.777,2.829,17.938,6.734,12.918,4.7,25-7.223,33.082-10.06,6.818-22.533,3.942-30.76-7.1-7.98-10.705-7.4-24.245,5.52-30.023,17.8-7.967,19.908-23.6,25.553-38.079,2.672-6.857,5.4-13.8,6.907-20.953.71-3.391-1.4-7.369-2.223-11.081-3.362,1.915-8.929,3.213-9.676,5.867-2.341,8.338-5.64,10.5-14.067,7.273-3.067-1.176-9.537,1-11.661,3.772q-24.133,31.6-46.872,64.247c-2.382,3.417-2.722,8.968-2.4,13.414.763,10.6-4.389,16.948-13.8,19.124-10.146,2.343-16.933-3.845-19.953-12.719-3.341-9.825,3.571-17.547,11.249-19.2,12.364-2.651,18-11.16,24.36-19.848,12.322-16.836,24.294-33.941,37.008-50.475,5.149-6.7,3.686-11.032-1.152-17.016-10.6-13.111-20.969-26.5-30.125-40.634-4.919-7.591-9.859-10.136-18.187-7.374-16.891,5.6-33.968,10.671-50.686,16.737-3.581,1.3-6.16,5.739-8.858,9.018-6.348,7.712-13.485,13.174-23.435,6.6-6.993-4.624-11.591-11.173-7.354-19.973,4.982-10.347,13.641-13.623,23.881-8.749,15.188,7.233,26.41-5.258,39.746-7.045,7.189-.961,14.059-4.331,21.06-6.661,2.061-.687,4.914-.93,5.959-2.4,6.97-9.825,9.82-23.751,25.464-24.6-1.842-3.083-3.6-8.782-5.533-8.843-18.234-.538-36.551-.812-54.719.528-4.449.326-8.38,6.9-12.659,10.473-8.3,6.928-18.526,8.882-26.337,2.1-5.742-4.99-10.217-14.19-10.7-21.8a18.055,18.055,0,0,1,17.675-19.2c7.988-.123,16.141,5.763,24.088,9.284,4.522,2,8.662,6.348,13.166,6.635a415.351,415.351,0,0,0,44.362.332c3.905-.165,7.657-3.947,11.481-6.068-3.422-2.4-6.648-6.421-10.3-6.857-7.176-.857-9.193-3.55-9.757-10.695-.316-4-4.765-9.694-8.623-11.076q-35.56-12.751-71.809-23.524c-4.794-1.429-11,0-16.042,1.669-10.6,3.506-18.087.193-22.87-9.151-4.373-8.539-.389-15.368,6.666-20.214,9.018-6.194,15.977-2,22.907,4.833,5.251,5.175,11.249,10.58,17.957,13.108,20.713,7.8,41.99,14.075,62.912,21.337,9.744,3.383,15.553,1.356,21.214-8.127,8.163-13.681,18.142-26.418,28.45-38.628,5.708-6.76,7.568-11.4,1.343-18.947-9.386-11.382-16.975-24.263-26.531-35.483-4.982-5.846-12.09-10.4-19.057-13.91-8.339-4.206-14.049-9.587-12.079-19.109,2.04-9.851,9.213-14.741,19.292-13.451,9.84,1.256,13,8.163,14.232,17.45.959,7.226,3.075,14.848,6.779,21.034,6.225,10.4,14.253,19.712,21.272,29.657,5.979,8.469,10.58,18.861,24.433,12.027,1.157-.572,5.065,5.1,8.061,7.4,3.294,2.523,7.009,4.491,10.541,6.7.653-3.767,2.68-7.933,1.721-11.233-3.992-13.733-7.764-27.74-13.9-40.548-3.169-6.612-10.864-11.259-16.99-16.2-8.365-6.75-14.355-14.273-10.59-25.684a23.548,23.548,0,0,1,25.271-16.457c16.614,1.729,26.46,20.091,16.88,34.119-6.215,9.1-5.026,16.648-1.789,25.585,4.287,11.831,7.625,24.017,12.239,35.713,1.228,3.109,5.624,4.966,8.568,7.4,1.1-3.547,3.644-7.38,3.007-10.582-1.254-6.314-1.716-10.021,5.859-13.08,4.172-1.688,8.589-8.621,8.762-13.341.9-24.341.778-48.74.227-73.1a28.175,28.175,0,0,0-5.588-15.345c-6.52-8.576-8.088-16.353.219-24.184,7.056-6.651,15.154-7.116,22.338-.744,8.819,7.816,7.495,16.324.684,25.378a25.841,25.841,0,0,0-4.775,14.19c-.46,24.8-.117,49.618-.243,74.429-.036,7.385,1.9,11.6,10.287,13.67a333.823,333.823,0,0,1,46.9,15.055c9.307,3.827,15.167,3.54,20.9-5.1,7.442-11.22,16.559-21.389,23.375-32.941,4.318-7.322,6.8-16.17,8.216-24.652,1.581-9.556,6.042-15.412,15.332-16.679,9.647-1.314,17.567,3.7,17.648,12.944.055,6.285-4.914,16.674-9.759,18.124-11.249,3.367-17.3,10.561-23.325,19.19-7.968,11.4-16.86,22.186-24.32,33.9-2.069,3.25-2.236,10.042-.167,13.114,4.383,6.51,4.214,10.266-2.04,15.216-2.607,2.066-2.759,7.236-4.026,10.993,4.164-.457,9.164.4,12.341-1.617,9.885-6.275,18.931-13.853,28.583-20.517,8.469-5.852,14.838-11.727,15.076-23.743.24-12.168,15.073-22.223,26.045-20.193,12.439,2.3,21.483,14.55,19.736,26.739-1.784,12.45-13.552,21.8-26.7,18.675-11.267-2.678-19.093.624-27.338,7.4-9.046,7.44-19.237,13.482-28.333,20.87-2.74,2.228-3.474,6.915-5.13,10.478,3.819.12,7.717.758,11.429.188C1238.271,649.956,1240.884,648,1245.3,645.907Zm-85.445,170.321c16.233.193,30.472-14.686,30.919-32.3.439-17.372-13.445-33.072-29.67-33.55-17.246-.5-31.188,14.208-31.209,32.933C1129.872,801.252,1143.323,816.032,1159.853,816.228Zm17.863-137.618c-19.08.133-36.008,12.641-36.217,26.755-.193,13.106,14.848,25.632,33.04,27.518,19.083,1.983,39.85-11.951,40.145-26.935C1214.97,691.473,1197.389,678.474,1177.716,678.61Zm-29.563-77.553c-15.919.026-30.5,14.151-30.642,29.7-.149,15.608,14.182,29.9,30.185,30.112,17.131.225,31.131-13.5,30.911-30.308C1178.4,614.426,1164.571,601.033,1148.153,601.057Zm-80.8,125.366c-18.3.1-32.416,11.593-32.693,26.611-.274,14.827,15.653,28.223,33.286,28,17.191-.222,32.444-12.946,32.69-27.27C1100.9,738.413,1086.171,726.316,1067.352,726.423Zm27.228-65.02c.306-16.084-11.358-29.926-25.843-30.668-14.587-.747-28.375,13.56-28.6,29.678-.225,16.18,12.769,30.509,27.615,30.446C1082.621,690.8,1094.264,678.012,1094.58,661.4Z" transform="translate(-868.58 -440.767)" fill="#208fb8" fill-rule="evenodd"/>
      <path id="Path_105" data-name="Path 105" d="M998.31,624.568c-16.385-.194-29.72-14.844-29.7-32.63.021-18.56,13.842-33.143,30.934-32.643,16.082.474,29.844,16.033,29.409,33.254C1028.515,610.011,1014.4,624.76,998.31,624.568Zm17.41-32.467c.1-9.355-8.446-19.883-16.455-20.269-8.5-.406-18.06,10.479-17.876,20.354.176,9.56,9.057,19.627,17.255,19.562C1006.8,611.687,1015.615,601.547,1015.721,592.1Z" transform="translate(-706.99 -249.285)" fill="#208fb8" fill-rule="evenodd"/>
      <path id="Path_106" data-name="Path 106" d="M1008.954,531.816c19.5-.137,36.926,12.75,36.644,27.1-.292,14.85-20.877,28.661-39.792,26.7-18.035-1.872-32.944-14.288-32.75-27.276C973.263,544.345,990.042,531.948,1008.954,531.816Zm-2.092,40.976c14.236.22,24.989-6.5,24.888-14.332-.1-7.483-11.678-14.593-23.26-14.285-11.173.3-22.822,7.644-21.509,14.552C989.193,570.326,999.177,571.683,1006.862,572.791Z" transform="translate(-699.736 -293.724)" fill="#208fb8" fill-rule="evenodd"/>
      <path id="Path_107" data-name="Path 107" d="M994.247,502.127c16.274-.023,29.977,13.252,30.184,29.244.218,16.657-13.659,30.264-30.639,30.041-15.862-.207-30.064-14.378-29.919-29.847C964.019,516.153,978.468,502.153,994.247,502.127Zm16.8,29.642c-.021-8.716-9.2-18.311-17.519-16.991-9.184,1.46-15.963,6.779-15.94,17.061s6.776,15.59,16.012,16.986C1001.973,550.089,1011.064,540.529,1011.046,531.769Z" transform="translate(-714.646 -341.651)" fill="#208fb8" fill-rule="evenodd"/>
      <path id="Path_108" data-name="Path 108" d="M964.563,550.118c18.651-.106,33.252,11.885,32.99,27.094-.243,14.2-15.365,26.81-32.4,27.03-17.478.225-33.265-13.053-32.993-27.75C932.433,561.61,946.423,550.222,964.563,550.118Zm-3.021,40.53c13.138.238,23.464-6.577,22.387-13.941-1.5-10.251-9.824-13.451-18.78-14.176-9.233-.748-21.152,7.833-19.914,14.453C947.085,586.879,954.742,590.418,961.542,590.649Z" transform="translate(-765.862 -264.163)" fill="#208fb8" fill-rule="evenodd"/>
      <path id="Path_109" data-name="Path 109" d="M988.217,543.9c-.313,16.463-11.854,29.137-26.589,29.2-14.715.06-27.594-14.14-27.372-30.178.223-15.976,13.889-30.157,28.348-29.417C976.958,514.238,988.52,527.959,988.217,543.9Z" transform="translate(-762.516 -323.315)" fill="#208fb8" fill-rule="evenodd"/>
      <path id="Path_110" data-name="Path 110" d="M1007.881,584.4c-.106,9.446-8.915,19.583-17.079,19.648-8.2.065-17.079-10-17.255-19.562-.181-9.876,9.379-20.764,17.876-20.354C999.435,564.522,1007.982,575.05,1007.881,584.4Z" transform="translate(-699.172 -241.638)" fill="#208fb8" fill-rule="evenodd"/>
      <path id="Path_111" data-name="Path 111" d="M998.376,565.211c-7.688-1.108-17.669-2.465-19.881-14.065-1.315-6.908,10.334-14.252,21.509-14.552,11.584-.308,23.161,6.8,23.26,14.285C1023.368,558.707,1012.612,565.431,998.376,565.211Z" transform="translate(-691.283 -286.151)" fill="#208fb8" fill-rule="evenodd"/>
      <path id="Path_112" data-name="Path 112" d="M1002.627,524.079c.018,8.76-9.073,18.319-17.447,17.056-9.233-1.393-15.989-6.7-16.012-16.986s6.756-15.6,15.94-17.061C993.427,505.768,1002.606,515.364,1002.627,524.079Z" transform="translate(-706.239 -333.926)" fill="#208fb8" fill-rule="evenodd"/>
      <path id="Path_113" data-name="Path 113" d="M953.568,583.056c-6.8-.23-14.456-3.767-16.307-13.661-1.238-6.621,10.681-15.2,19.914-14.453,8.957.722,17.279,3.925,18.78,14.176C977.032,576.476,966.706,583.291,953.568,583.056Z" transform="translate(-757.859 -256.606)" fill="#208fb8" fill-rule="evenodd"/>
    </g>
    <ellipse id="Ellipse_4" data-name="Ellipse 4" cx="12.947" cy="12.946" rx="12.947" ry="12.946" transform="translate(1054.674 647.904)" fill="#208fb8"/>
  </g>
</svg>
