<svg id="icon-tobacco-free" xmlns="http://www.w3.org/2000/svg" width="512" height="512" viewBox="0 0 512 512">
  <path id="Path_15" data-name="Path 15" d="M220.521,309.652a8.62,8.62,0,0,0-3.894-.865l-9.663-.578-.721,10.385,9.519.577a8.452,8.452,0,0,0,4.038-.433c1.731-.721,2.74-2.309,2.885-4.76A4.164,4.164,0,0,0,220.521,309.652Z" fill="#27709a"/>
  <path id="Path_16" data-name="Path 16" d="M221.1,294.363a13.157,13.157,0,0,0-4.615-.865l-8.509-.576-.577,8.653,9.519.577a7.293,7.293,0,0,0,4.183-.721,3.762,3.762,0,0,0,1.875-3.318A3.689,3.689,0,0,0,221.1,294.363Z" fill="#27709a"/>
  <path id="Path_17" data-name="Path 17" d="M249.366,312.393l9.951-.145-5.047-15.432Z" fill="#27709a"/>
  <path id="Path_18" data-name="Path 18" d="M175.811,288.307a9.935,9.935,0,0,0-8.221,2.451c-2.308,2.164-3.75,5.337-4.327,9.664s-.144,7.932,1.442,10.527a9.618,9.618,0,0,0,7.211,4.615,9.928,9.928,0,0,0,8.221-2.451c2.163-2.164,3.6-5.336,4.327-9.663.577-4.327.144-7.933-1.442-10.528A9.626,9.626,0,0,0,175.811,288.307Z" fill="#27709a"/>
  <path id="Path_19" data-name="Path 19" d="M379.89,282.537a9.55,9.55,0,0,0-8.365-1.73A9.369,9.369,0,0,0,364.747,286c-1.3,2.74-1.587,6.346-.577,10.673s2.74,7.355,5.048,9.375a9.553,9.553,0,0,0,8.365,1.73,9.371,9.371,0,0,0,6.778-5.192c1.3-2.74,1.442-6.347.577-10.673C383.928,287.586,382.342,284.412,379.89,282.537Z" fill="#27709a"/>
  <path id="Path_20" data-name="Path 20" d="M300.854,166.58h0c-4.615-.433-9.374-.721-14.133-1.009h-.289c-4.615-.289-9.375-.433-13.99-.577h-.433c-4.759-.144-9.374-.144-14.134-.144s-9.375.144-14.134.144h-.433c-4.759.145-9.375.289-13.99.577h-.289c-4.759.289-9.375.577-14.134,1.009h0C150.426,172.205,95.188,190.666,95.188,221.1v80.765c0,37.066,81.92,56.393,162.686,56.393,80.91,0,162.687-19.326,162.687-56.393V221.1C420.562,190.666,365.323,172.205,300.854,166.58ZM136.87,315.564l-8.077-1.73,6.923-31.585L124.178,279.8l1.442-6.778,31.153,6.778-1.442,6.779-11.538-2.452Zm55.671-10.96c-1.01,6.924-3.75,12.115-8.221,15.145-3.317,2.6-7.788,3.461-13.413,2.74-5.625-.865-9.663-2.885-12.115-6.346-3.461-4.327-4.615-9.952-3.6-16.875q1.515-10.6,8.221-15.144c3.317-2.6,7.788-3.462,13.413-2.74,5.625.865,9.519,2.884,12.115,6.346C192.252,291.912,193.55,297.537,192.541,304.6Zm36.2,16.585a11.478,11.478,0,0,1-3.028,2.885,11.822,11.822,0,0,1-4.615,1.73,24.02,24.02,0,0,1-5.625.145l-17.6-1.154,2.6-39.229,18.894,1.3c4.759.433,8.077,2.019,9.952,4.9a9.509,9.509,0,0,1,1.442,6.058,8.351,8.351,0,0,1-2.164,5.625,9.24,9.24,0,0,1-3.173,2.019,9.278,9.278,0,0,1,4.327,3.75,10.651,10.651,0,0,1,1.154,5.77A11.071,11.071,0,0,1,228.741,321.189Zm35.48,5.915-2.6-8.077-14.423.145-2.6,8.076H236.1l13.7-39.373,9.231-.145,14.277,39.085Zm42.835-5.193a15.707,15.707,0,0,1-10.817,4.759c-5.624.434-10.1-1.153-13.557-4.471-3.461-3.461-5.336-8.221-5.77-14.566-.432-6.779,1.01-12.26,4.327-16.153a15.692,15.692,0,0,1,11.683-5.625c6.49-.433,11.394,1.3,14.711,5.48a13.526,13.526,0,0,1,3.173,7.067l-8.221.576a13.92,13.92,0,0,0-2.308-4.182c-1.586-1.587-3.75-2.309-6.635-2.164a7.9,7.9,0,0,0-6.635,4.039c-1.586,2.451-2.162,5.913-1.875,10.384.289,4.327,1.443,7.644,3.318,9.663a8.23,8.23,0,0,0,7.066,2.74,7.494,7.494,0,0,0,6.2-3.316,12.686,12.686,0,0,0,1.731-4.76l8.076-.577A16.175,16.175,0,0,1,307.056,321.911Zm40.672-5.192a16.077,16.077,0,0,1-10.385,5.625,16.945,16.945,0,0,1-13.846-3.461c-3.749-3.174-5.913-7.934-6.923-14.135-1.009-6.778.145-12.259,3.174-16.441A16.678,16.678,0,0,1,331,281.817c6.49-.865,11.538.576,15.144,4.471a14.936,14.936,0,0,1,3.75,6.923l-8.076,1.153a9.186,9.186,0,0,0-2.6-3.894,8.089,8.089,0,0,0-6.778-1.587,7.858,7.858,0,0,0-6.346,4.615c-1.3,2.6-1.73,6.059-1.01,10.529.577,4.326,2.02,7.5,4.038,9.375a8.358,8.358,0,0,0,7.212,2.307c2.74-.432,4.759-1.586,5.913-3.75a10.389,10.389,0,0,0,1.3-4.759l8.076-1.153A17.92,17.92,0,0,1,347.728,316.719Zm42.978-9.519c-2.163,3.605-6.057,6.058-11.538,7.355s-9.951.721-13.557-1.587c-4.76-2.74-7.788-7.644-9.375-14.422-1.586-7.067-.865-12.692,2.164-17.163,2.163-3.606,6.057-6.058,11.538-7.355s9.951-.722,13.557,1.587c4.615,2.6,7.788,7.5,9.375,14.422S393.735,302.585,390.706,307.2Zm-132.4-46.874c-71.247,0-130.668-14.278-143.216-33.315a9.886,9.886,0,0,1-2.452-5.913v-.145c0-.577-.145-1.009-.145-1.586,0-22.5,65.334-40.816,145.812-40.816s145.812,18.317,145.812,40.816C404.119,242.01,338.785,260.326,258.308,260.326Z" fill="#27709a"/>
  <path id="Path_21" data-name="Path 21" d="M365.9,208.406c-5.336-4.183-4.326-4.76-13.269-3.75-8.941.865-8.941,10.673-17.6,10.673s-4.615-5.336-7.355-11.538c-2.6-6.2-13.269-2.6-20.479-.866-7.067,1.731-7.933,11.538-10.384,10.673s-6.49-8.942-10.529-13.269c-4.038-4.471-12.836,0-18.172,3.6s-1.73,12.4-10.529,11.538-9.951-5.336-10.816-10.673-12.4-8.942-19.615-11.538c-7.067-2.6-1.73,12.4-6.923,15.144-5.192,2.6-8.942,12.4-15.288,8.942-6.2-3.6,1.73-12.4-3.606-16.009s-21.345,1.731-27.547,4.471c-6.2,2.6-3.6,11.538-7.932,11.538-4.471,0-7.067-7.067-16.009-7.067s-17.74,14.134-17.74,14.134,48.027,22.211,127.928,22.211,127.928-22.211,127.928-22.211-3.461-7.067-6.058-11.538C379.313,208.117,371.38,212.588,365.9,208.406Z" fill="#27709a"/>
  <g id="Group_1" data-name="Group 1">
    <path id="Path_22" data-name="Path 22" d="M0,256C0,397.2,114.8,512,256,512S512,397.2,512,256C511.855,114.8,397.053,0,255.856,0,114.8,0,0,114.8,0,256Zm461.665,0A204.8,204.8,0,0,1,418.83,381.477L130.38,93.025A204.8,204.8,0,0,1,255.856,50.19C369.361,50.19,461.665,142.495,461.665,256ZM50.19,256A204.419,204.419,0,0,1,94.9,128.216L383.783,417.1A204.42,204.42,0,0,1,256,461.81C142.495,461.81,50.19,369.361,50.19,256Z" fill="#27709a"/>
  </g>
</svg>
