<svg xmlns="http://www.w3.org/2000/svg" width="512" height="512.021" viewBox="0 0 512 512.021">
  <g id="Age-standardized-prevalence-of-tobacco_copy" data-name="Age-standardized-prevalence-of-tobacco copy" transform="translate(-141.9 -125.967)">
    <path id="Path_1" data-name="Path 1" d="M397.4,637.988c-141.27.036-255.48-114.505-255.5-256.235A255.5,255.5,0,0,1,397.735,125.967c141.947-.046,256.336,114.583,256.165,256.7C653.729,523.932,539.182,637.95,397.4,637.988Zm-34.27-249.7c-2.927-3.886-3.97-5.669-5.382-7.085Q301.583,324.879,245.377,268.6c-6.038-6.059-9.536-4.215-13.691,2.533-42.76,69.437-46.117,140.52-5.753,211.447,57.912,101.768,189.613,128.346,284.539,64.592,5.412-3.637,5.976-7.382,1.41-11.936-33.071-32.98-66.07-66.038-99.4-98.751-2.343-2.3-7.157-2.527-10.9-2.832-3.395-.278-6.891.99-10.343,1-29.149.067-58.3-.006-87.447-.017-20.722-.008-41.445-.219-62.161.131-9.093.152-14.138-2.3-12.933-12.589.689-5.89.139-11.925.114-17.9-.063-14.357.613-15.078,14.553-15.059q54.259.073,108.518.129C354.844,389.348,357.8,388.808,363.128,388.29ZM496.5,435.06c4.059,4.826,6.24,7.844,8.84,10.442,14.644,14.646,29.425,29.157,44.086,43.784,9.778,9.755,11.289,9.719,18.06-2.036,40.233-69.835,40.958-139.943.314-209.738-53.43-91.75-180.176-123.248-270.816-67.84-15.925,9.736-18.656,8.762-2.71,24.487,50.749,50.047,100.868,100.727,151.407,150.985,2.955,2.938,7.466,6.111,11.245,6.1,16.364-.046,32.725-1.2,49.082-2.032,6.883-.348,10.518,2.08,10.151,9.683-.422,8.758-.367,17.563-.006,26.325.284,6.923-2.643,9.677-9.361,9.2C504.44,434.262,502.048,434.692,496.5,435.06Z" transform="translate(0)" fill="#2a7c9b" fill-rule="evenodd"/>
    <path id="Path_2" data-name="Path 2" d="M356.221,301.252c-7.487,0-14.987.306-22.457-.06-19.973-.977-35-15.795-35.479-35.682-.2-8.145-1.84-12.67-10.884-15.1-18.2-4.894-31.5-23.5-32.358-42.338-.852-18.742,11.2-38.038,28.51-45.262,2.915-1.216,6.307-2.45,9.265-2.058,2.638.347,6.4,2.5,7.061,4.654.694,2.274-1.238,5.821-2.915,8.172-1.056,1.48-3.769,1.756-5.712,2.63-15.482,6.96-22.661,19.977-19.943,36.142,2.367,14.081,15.1,24.657,31.238,25.922,1.064.084,2.142.028,3.2.126,10.646.987,12.987,4.615,9.56,14.788-6.335,18.808,2.746,31.928,22.573,32.294,12.117.223,24.254-.276,36.363.116,37.432,1.2,44.927,23.3,43.019,51.325-.195,2.831-5.2,5.337-7.969,7.993-2.574-2.8-6.521-5.226-7.391-8.481-1.238-4.643.092-9.907-.229-14.869-.728-11.2-6.618-17.512-17.686-19.483a24.948,24.948,0,0,0-4.245-.5c-7.838-.047-15.681-.024-23.524-.024C356.221,301.458,356.221,301.355,356.221,301.252Z" transform="translate(123.481 39.625)" fill="#2a7c9b" fill-rule="evenodd"/>
    <path id="Path_3" data-name="Path 3" d="M337.271,255.958c-28.561-.011-28.561-.011-18.452-24.595,8.029-19.523-2.043-40.666-22.318-46.814-2.384-.724-5.8-.563-7-2.137-2.484-3.251-3.8-7.393-5.594-11.171,3.236-1.264,6.693-4.009,9.667-3.557,28.244,4.279,46.915,30.831,42.2,59.3-2.142,12.931-2.088,13,11.021,13.983,33.108,2.48,56.906,24.942,60.878,58.024,1.058,8.806.842,17.771,1.116,26.663.184,5.885-1.443,11.828-8.19,10.931-2.7-.36-5.9-6.718-6.568-10.732-2.095-12.494-.938-25.912-4.958-37.622C380.695,263.839,361.353,254.345,337.271,255.958Z" transform="translate(155.709 45.452)" fill="#2a7c9b" fill-rule="evenodd"/>
    <path id="Path_4" data-name="Path 4" d="M339.29,274.611c-.015,4.975.906,10.2-.36,14.833-.758,2.786-4.9,6.386-7.56,6.414-2.493.023-7.005-4.02-7.2-6.539a208.038,208.038,0,0,1,0-31.932c.186-2.407,4.868-6.271,7.4-6.2,2.634.071,6.815,3.722,7.4,6.44C340.13,263.059,339.305,268.925,339.29,274.611Z" transform="translate(200.959 138.256)" fill="#2a7c9b" fill-rule="evenodd"/>
    <path id="Path_5" data-name="Path 5" d="M350.371,273.388c.009,4.986.938,10.222-.311,14.876-.863,3.223-4.729,5.639-7.254,8.417-2.463-2.722-6.789-5.275-7.05-8.192a179.775,179.775,0,0,1-.028-29.874c.21-2.7,4.144-5.116,6.369-7.661,2.754,2.491,7.016,4.536,7.907,7.573C351.359,263.116,350.361,268.4,350.371,273.388Z" transform="translate(213.759 137.991)" fill="#2a7c9b" fill-rule="evenodd"/>
  </g>
</svg>
