<svg xmlns="http://www.w3.org/2000/svg" width="512" height="460.878" viewBox="0 0 512 460.878">
  <g id="under5-icon" transform="translate(-786.837 -352.999)">
    <path id="Path_114" data-name="Path 114" d="M996.524,564.68c-13.86,0-27.723-.152-41.58.066-6.734.106-9.566-2.736-9.431-9.427.343-16.962.627-33.929.481-50.892-.029-3.34-2.092-6.664-3.215-9.994-2.407,2.288-5.85,4.142-7.031,6.946-3.876,9.206-7,18.733-10.282,28.185-3.208,9.245-5.291,19.039-9.717,27.644-2.686,5.219-8.258,9.91-13.655,12.527-6.355,3.08-13.577-7.117-11.379-16.148,2.257-9.266,5.048-18.416,7.955-27.5,5.521-17.263,11.451-34.4,16.916-51.675,6.222-19.682,19.4-32.216,38.478-39.375,29.12-10.93,58.081-9.846,86.811.974,16.759,6.312,28.645,18.26,34.384,35.21,8.646,25.536,16.418,51.368,24.621,77.055,2.542,7.966-1.093,14.685-4.912,20.849-3.043,4.911-10.23,3.127-13.105-3.153q-7.289-15.929-13.719-32.246c-3.148-7.976-5.634-16.214-8.433-24.328-.468-1.351-.664-3.066-1.608-3.934-2.466-2.267-5.279-4.158-7.954-6.2-.859,3.005-2.469,6.014-2.453,9.014.087,15.762.688,31.521.888,47.284.088,6.842-2.619,9.2-9.762,9.22-14.1.032-28.2.01-42.293.01C996.526,564.751,996.526,564.717,996.524,564.68Z" transform="translate(45.192 32.312)" fill="#208fb8" fill-rule="evenodd"/>
    <path id="Path_115" data-name="Path 115" d="M1020.66,669.641c.479,10.042-5.487,16.818-15.392,17.779-7.806.757-15.076-5.231-16.794-14.284-4-21.072-7.727-42.2-11.76-63.264-1.387-7.243-3.143-14.435-5.119-21.542-1.808-6.5-.809-11.626,5.17-15.52,9.352-6.089,18.478-12.524,27.833-18.61,4.578-2.978,8.773-.449,9.179,5.525q2.46,36.028,4.7,72.07C1019.283,644.4,1019.943,657.025,1020.66,669.641Z" transform="translate(80.202 86.902)" fill="#208fb8" fill-rule="evenodd"/>
    <path id="Path_116" data-name="Path 116" d="M970.407,583.635c-.758,5.193-1.327,10.423-2.305,15.571-4.721,24.832-9.466,49.658-14.394,74.45a15.79,15.79,0,0,1-17.652,12.167c-10.757-1.73-16.109-7.82-15.269-17.963,1.1-13.31,2.661-26.582,3.766-39.892,1.852-22.331,3.416-44.687,5.35-67.011.219-2.532,1.423-5.83,3.3-7.094,1.494-1.006,5.089-.087,7.1,1.09,6.977,4.08,13.693,8.609,20.465,13.035C966.4,571.67,970.846,576.125,970.407,583.635Z" transform="translate(58.366 87.112)" fill="#208fb8" fill-rule="evenodd"/>
    <ellipse id="Ellipse_5" data-name="Ellipse 5" cx="45.851" cy="45.85" rx="45.851" ry="45.85" transform="translate(994.861 352.999)" fill="#208fb8"/>
    <g id="Group_4" data-name="Group 4" transform="translate(786.837 494.473)">
      <path id="Path_117" data-name="Path 117" d="M867.344,612.062c-10.506,0-21.014-.116-31.517.049-5.106.08-7.251-2.073-7.149-7.143.261-12.857.476-25.717.365-38.574-.023-2.535-1.584-5.051-2.437-7.576-1.823,1.734-4.434,3.139-5.328,5.265-2.94,6.979-5.31,14.2-7.794,21.363-2.432,7.01-4.011,14.432-7.365,20.953-2.034,3.955-6.259,7.512-10.349,9.5-4.817,2.334-10.291-5.4-8.625-12.242,1.71-7.021,3.826-13.957,6.03-20.846,4.185-13.087,8.679-26.071,12.821-39.168,4.717-14.92,14.708-24.42,29.166-29.847,22.072-8.284,44.024-7.463,65.8.739,12.7,4.784,21.713,13.84,26.063,26.688,6.555,19.357,12.444,38.936,18.663,58.406,1.927,6.038-.829,11.133-3.723,15.8-2.307,3.723-7.754,2.369-9.933-2.391q-5.524-12.07-10.4-24.44c-2.387-6.047-4.271-12.286-6.393-18.441-.354-1.024-.5-2.323-1.218-2.981-1.871-1.717-4-3.152-6.03-4.7-.651,2.278-1.871,4.562-1.859,6.835.066,11.948.524,23.891.673,35.838.066,5.186-1.985,6.975-7.4,6.988-10.684.024-21.372.009-32.057.009A.778.778,0,0,1,867.344,612.062Z" transform="translate(-786.837 -427.121)" fill="#208fb8" fill-rule="evenodd"/>
      <path id="Path_118" data-name="Path 118" d="M885.638,691.623c.363,7.614-4.16,12.748-11.666,13.477-5.918.572-11.427-3.968-12.729-10.826-3.031-15.977-5.858-31.986-8.913-47.956-1.052-5.489-2.383-10.942-3.881-16.327-1.37-4.929-.614-8.812,3.919-11.764,7.089-4.617,14.006-9.493,21.1-14.107,3.47-2.258,6.65-.34,6.958,4.188q1.864,27.308,3.565,54.627C884.592,672.495,885.092,682.06,885.638,691.623Z" transform="translate(-760.327 -385.743)" fill="#208fb8" fill-rule="evenodd"/>
      <path id="Path_119" data-name="Path 119" d="M847.546,626.43c-.574,3.939-1.007,7.9-1.747,11.806-3.578,18.818-7.175,37.636-10.909,56.428a11.97,11.97,0,0,1-13.381,9.225c-8.153-1.311-12.21-5.928-11.572-13.616.836-10.088,2.017-20.149,2.855-30.236,1.4-16.928,2.588-33.873,4.056-50.791.167-1.921,1.077-4.424,2.5-5.38,1.13-.762,3.856-.065,5.381.828,5.289,3.09,10.38,6.525,15.513,9.879C844.512,617.359,847.881,620.737,847.546,626.43Z" transform="translate(-776.826 -385.583)" fill="#208fb8" fill-rule="evenodd"/>
      <ellipse id="Ellipse_6" data-name="Ellipse 6" cx="34.754" cy="34.754" rx="34.754" ry="34.754" transform="translate(44.989)" fill="#208fb8"/>
    </g>
    <g id="Group_5" data-name="Group 5" transform="translate(1139.347 480.149)">
      <path id="Path_120" data-name="Path 120" d="M1112.75,602.077c-10.5,0-21.013-.115-31.517.05-5.106.079-7.252-2.073-7.147-7.144.261-12.856.475-25.717.365-38.573-.023-2.535-1.584-5.051-2.437-7.576-1.823,1.734-4.433,3.139-5.328,5.265-2.939,6.981-5.308,14.2-7.794,21.363-2.432,7.008-4.013,14.431-7.367,20.953-2.034,3.954-6.259,7.512-10.351,9.5-4.816,2.334-10.291-5.394-8.625-12.242,1.711-7.02,3.826-13.957,6.03-20.846,4.185-13.085,8.681-26.07,12.823-39.167,4.716-14.92,14.708-24.42,29.166-29.847,22.072-8.283,44.024-7.463,65.8.739,12.7,4.784,21.713,13.84,26.061,26.688,6.556,19.357,12.445,38.937,18.665,58.408,1.928,6.038-.829,11.133-3.724,15.8-2.306,3.721-7.753,2.367-9.933-2.393q-5.524-12.07-10.4-24.439c-2.387-6.047-4.271-12.286-6.393-18.442-.353-1.023-.5-2.323-1.218-2.981-1.871-1.717-4-3.152-6.03-4.7-.651,2.278-1.871,4.562-1.859,6.833.068,11.948.524,23.892.673,35.84.068,5.186-1.985,6.974-7.4,6.988q-16.026.034-32.057.009C1112.75,602.133,1112.75,602.105,1112.75,602.077Z" transform="translate(-1032.242 -417.137)" fill="#208fb8" fill-rule="evenodd"/>
      <path id="Path_121" data-name="Path 121" d="M1131.053,681.639c.362,7.614-4.16,12.747-11.668,13.475-5.918.574-11.427-3.968-12.729-10.824-3.031-15.977-5.856-31.988-8.913-47.956-1.053-5.489-2.383-10.942-3.881-16.327-1.37-4.929-.614-8.813,3.919-11.765,7.089-4.615,14-9.493,21.1-14.105,3.472-2.258,6.649-.341,6.959,4.186q1.864,27.31,3.565,54.627C1130.006,662.51,1130.494,672.076,1131.053,681.639Z" transform="translate(-1005.728 -375.759)" fill="#208fb8" fill-rule="evenodd"/>
      <path id="Path_122" data-name="Path 122" d="M1092.953,616.444c-.574,3.939-1.006,7.9-1.747,11.807-3.578,18.818-7.174,37.636-10.909,56.427a11.969,11.969,0,0,1-13.379,9.225c-8.154-1.311-12.211-5.926-11.572-13.615.835-10.09,2.017-20.149,2.854-30.236,1.4-16.93,2.588-33.873,4.056-50.791.165-1.922,1.076-4.424,2.5-5.38,1.129-.762,3.856-.064,5.38.826,5.291,3.09,10.379,6.526,15.513,9.88C1089.926,607.375,1093.3,610.753,1092.953,616.444Z" transform="translate(-1022.229 -375.599)" fill="#208fb8" fill-rule="evenodd"/>
      <ellipse id="Ellipse_7" data-name="Ellipse 7" cx="34.754" cy="34.754" rx="34.754" ry="34.754" transform="translate(44.993)" fill="#208fb8"/>
    </g>
  </g>
</svg>
