<svg xmlns="http://www.w3.org/2000/svg" width="443.037" height="512" viewBox="0 0 443.037 512">
  <g id="uni-icon" transform="translate(-497.416 -50)">
    <path id="Path_123" data-name="Path 123" d="M779.294,50c2.3.354,4.624.628,6.91,1.077,8.886,1.747,17.844,3.207,26.619,5.421a134.755,134.755,0,0,1,29.266,11.668c11.219,5.861,21.9,12.646,31.337,21.274,5.971,5.46,12,10.916,17.421,16.931a157.075,157.075,0,0,1,21.114,30.06c5.941,10.893,11.02,22.183,14.188,34.24,2.263,8.617,4.107,17.374,5.655,26.159,1,5.668,1.167,11.5,1.623,17.257a88.7,88.7,0,0,1,.494,10.023c-.558,16.2-2.26,32.271-7.348,47.682a268.754,268.754,0,0,1-10.891,27.747,129.72,129.72,0,0,1-17.83,28.189A232.759,232.759,0,0,1,879.5,348.109a157.084,157.084,0,0,1-32.2,23.733,150.694,150.694,0,0,1-32.967,14.082c-7.812,2.179-15.785,3.839-23.767,5.248-4.863.858-9.88.8-14.828,1.151a53.17,53.17,0,0,1-7.42.481c-11.4-.8-22.821-.545-34.166-2.963a168.547,168.547,0,0,1-48.424-18.216,138.883,138.883,0,0,1-26.373-19.085c-4.258-3.969-8.711-7.752-12.663-12.025-10.521-11.372-20.045-23.58-26.875-37.708-4.019-8.313-8.122-16.692-10.988-25.456a224.112,224.112,0,0,1-6.948-29.037c-2.3-12.462-1.954-25.169-1.575-37.78.582-19.358,5.252-37.855,12.442-55.694a156.345,156.345,0,0,1,22.066-38.589,214.661,214.661,0,0,1,20.143-22.3A156.579,156.579,0,0,1,696.377,65.7,147.826,147.826,0,0,1,733.9,53.226c6.354-1.121,12.78-1.813,19.171-2.725.282-.04.53-.327.794-.5Zm75.489,98.911-3.252,9.389,6.423,5.307.852-.543a26.7,26.7,0,0,0-.629-4.17c-1.044-3.352-2.265-6.647-3.415-9.965-3.384-9.724-6.768-19.448-10.255-29.467-.727.632-1.04.911-1.359,1.181-3.068,2.6-4.988,1.86-5.757-2.112-.341-1.763-.414-4.055-1.514-5.092a56.226,56.226,0,0,0-9.049-6.686c-1.259-.781-2.8-.576-2.965,1.836a13.485,13.485,0,0,1-1.441,5.987,4.543,4.543,0,0,0,.03,5.512c1.628,2.435.849,4.234-.883,6.3-2.341,2.789-5.091,5.435-5.016,9.7a3.588,3.588,0,0,1-1.936,2.744c-.642.218-2.04-.928-2.633-1.8a9.049,9.049,0,0,1-1.012-3.411c-.472-2.617-1.277-4.928-3.579-6.559-4.324-3.063-8.537-6.291-12.8-9.443-3.742-2.766-4.645-9.612-1.532-12.545a139.692,139.692,0,0,1,13.872-11.063c1.437-1.043,3.533-1.127,6.048-1.86a31.778,31.778,0,0,0-1.14,4.139c-.1.842.06,2.437.331,2.491,2.647.524,5.34.794,8.112,1.148-1.394-3.864-6.713-4.457-6.74-9.671,5.324,1.72,7.26-1.055,7.773-5.675a2.483,2.483,0,0,1,.03-.264c.44-2,1.772-2.442,3.194-1.372,2.907,2.186,5.7,4.547,8.4,7a4.174,4.174,0,0,1,.891,5.265c-1.066,2.221-2.5,3.718-5.165,3.336a23.768,23.768,0,0,0-3-.019l17.453,13.68,1.1-.539c-.307-2.927-.613-5.854-.953-9.1l3.826,2.856.941-.4a13.843,13.843,0,0,0-.581-3.846c-1.084-2.35-2.91-4.4-3.687-6.826-1.345-4.2-4.236-7.068-7.018-10.1-1.479-1.613-2.936-3.255-4.509-4.767-1.557-1.5-3.041-3.366-4.921-4.156a86.623,86.623,0,0,0-10.876-3.31c-1.694-.461-4.974,1.013-5.356,2.218s1.647,4.453,3.018,5.111c.768.368,2,1.265,1.914,1.665a6.664,6.664,0,0,1-1.758,3.445,3.012,3.012,0,0,1-2.928.067,13,13,0,0,1-5.529-7.934c-.721-3.431.094-4.513,3.659-5.318a4.535,4.535,0,0,0,1.163-.674q.008-.4.014-.807c-3.477-.551-6.938-1.3-10.435-1.595-3.039-.258-3.552.744-3,3.806a6.092,6.092,0,0,1-.4,3.759c-3.6,6.415-12.843,7.555-18.465,1.791a47.532,47.532,0,0,1,5.055-.318c2.557.121,4.156-1.05,4.572-3.546a16.646,16.646,0,0,0,.024-5.293,2.62,2.62,0,0,0-2.211-1.352c-4.715.973-9.159,1.327-13.848-.9-2.7-1.28-6.182-1.258-9.267-1.066-2.243.14-4.413,1.518-6.616,2.344,3.394.863,6.557,1.111,8.9,3.993l-2.116,1.3,2.035,2.37-.425.993c-3.322-.759-6.785-1.136-9.936-2.359-6.2-2.409-12.206-3.755-18.86-1.494-3.47,1.179-7.428,1.207-11.153,1.128-3.624-.077-7.218-1.139-10.85-1.442-11.29-.941-21.733,2.189-31.679,7.392-2.408,1.26-4.253,2.973-4.473,6.121-.136,1.952-1.718,2.091-3.334,1.8a4.25,4.25,0,0,0-2.382-.018,13.329,13.329,0,0,0-6.689,7.275h4.6l.318.64c-2.311,1.845-4.529,3.832-6.953,5.5-3.807,2.627-6.787,5.883-7.855,10.534a12.575,12.575,0,0,0,.046,5.6c.162.664,2.044.878,3.133,1.321.139.056.223.254.756.9l-10.575,13.327.524.442c5.65-6.3,11.271-12.625,16.978-18.869a16.107,16.107,0,0,1,3.473-2.6c2.449-1.523,5.034-2.828,7.423-4.44,2.648-1.788,5.145-3.514,8.246-.935a4.843,4.843,0,0,0,2.124.8c3.817.758,5.014,3.784,5.8,7.094.781,3.284,1.133,6.708,2.221,9.871.73,2.121,1.586,3.811-.734,5.239,4.066,4.909,4.958,8.483,2.6,12.212-1.195,1.891-.894,2.961.648,4.125,3.224,2.434,3.781,5.637,2.56,9.362-.807,2.462-1.472,4.981-2.4,7.392-4.683,12.151-5.346,24.445-1.2,36.861a7.86,7.86,0,0,0,2.892,3.7,13.851,13.851,0,0,1,5.4,7.37c1.67,4.914,3.256,9.87,5.2,14.669,1.912,4.715,3.716,9.6,7.907,12.845l.812-.32-6.86-18.872.78-.574c1.352,1.338,3.007,2.474,4.006,4.049,5.125,8.084,9.948,16.372,15.151,24.4,2.545,3.926,5.839,7.39,10.513,8.577,7.706,1.955,15.484,3.613,23.232,5.39,7.05,1.617,13.528,4.109,18.749,9.75,2.22,2.4,5.717,3.6,8.714,5.179a6.907,6.907,0,0,0,7.056.18c1.682-.93,4.22.609,4.842,2.748,1.415,4.871.65,9.277-2.831,13.117-2.635,2.9-4.795,5.966-4.523,10.41.137,2.233-1.072,4.524-1.434,6.829-.216,1.374-.473,3.157.164,4.178,2.056,3.294,4.114,6.792,6.926,9.329,3.524,3.178,7.778,5.508,11.75,8.153,2.976,1.982,5.678,4.1,5.029,8.354-.51,3.351-.984,6.709-1.568,10.047-.732,4.187-1.169,8.488-2.459,12.493-1.3,4.048-3.511,7.786-5.277,11.682-.21.463-.382,1.367-.165,1.547,1.365,1.132.28,1.747-.373,2.476-.575.643-1.157,1.28-1.768,1.954a13.655,13.655,0,0,0,13.156,3.3c-.817-.8-1.467-1.193-1.75-1.776-.318-.655-.678-1.749-.377-2.189,2.963-4.337,6.723-8,9.643-12.435,1.8-2.741,5.076-4.436,7.592-6.715a34.138,34.138,0,0,0,4.06-4.351,51.736,51.736,0,0,0,3.179-4.967c3.122-5.156,6.4-10.225,9.269-15.526,1.957-3.618,3.068-7.718,5.025-11.336,3.441-6.364,6.443-12.773,7.032-20.2.371-4.679,1.5-9.294,1.912-13.973.323-3.669.065-7.392.065-11.247-4.271,2.309-7,1.189-8.842-3.014-1.263-2.878-3.29-4.97-6.62-5.5-3.743-.6-6.2-3.071-7.674-6.544a18.825,18.825,0,0,1-.746-3.464,15.874,15.874,0,0,1-14.017,3.312c-7.47-1.695-7.78-2.228-13.353,2.853-6.151,5.608-13.181,6.845-20.857,6.536-2.063-.083-3.619-.807-3.666-3.4-.052-2.8-.341-5.6-.473-8.409-.075-1.584-.405-2.568-2.339-2.642a71.649,71.649,0,0,1-8.075-1.019,2.723,2.723,0,0,1-2.244-3.792c.443-1.307,1.133-2.527,1.583-3.833.969-2.814,2.849-5.418,2.032-8.881-3.844.041-6.565,1.977-8.663,5.021-3.587,5.207-7.969,6.719-13.949,4.871-5.163-1.6-7.274-6.234-7.152-11.43.158-6.742,2.788-12.8,6.824-18.21,1.761-2.361,3.9-4.163,6.673-4.161a31.834,31.834,0,0,0,16.041-4.278c4.447-2.5,9.229-1.145,12.467,3.423,2.093,2.953,4,6.047,6.156,8.951.441.594,1.6.625,2.431.916.323-1.05,1.071-2.189.882-3.132a32.158,32.158,0,0,0-2-5.871c-1.543-3.736-2.312-7.362.917-10.625,1.838-1.856,3.7-3.69,5.6-5.477,2.62-2.462,5.842-4.355,7.184-8.009.744-2.025,1.267-4.144,2.116-6.119,1.742-4.058,3.333-8.173,7.276-10.8a16.438,16.438,0,0,0,5.091-5.19c1.992-3.463,4.568-3.574,7.228-2.6a8.359,8.359,0,0,0,8.385-1.09c2.7-1.9,2.915-3.852.09-5.551-3.6-2.167-3.781-6.506-6.25-9.331-.194-.222.015-.815.072-1.9C844.8,151.167,849.8,150.268,854.783,148.911ZM792.9,234.843c.354.308.552.628.737.62,4.254-.181,7.883,1.722,11.579,3.51a14.22,14.22,0,0,0,9.6,1.008C809.789,235.452,798.96,231.152,792.9,234.843ZM812.784,65.767q-.1.406-.2.813c3,3.007,11.452,5.428,15.571,4.015Zm4.375,178.04c3.176,2.156,9.614.653,10.283-2.244C823.839,241.184,820.377,241.329,817.159,243.807ZM792.435,63.988H780.4C784.191,64.8,787.977,65.676,792.435,63.988ZM806.3,66.719l.24-.9-7.891-2.185-.194.725Z" transform="translate(-47.899)" fill="#208fb8" fill-rule="evenodd"/>
    <path id="Path_124" data-name="Path 124" d="M497.416,607.283q1.066-5.563,2.131-11.127c1.474-7.77,2.788-15.576,4.507-23.291a17,17,0,0,1,3.31-6.111c3.109-4.116,6.891-2.548,9.747-.254,3.566,2.864,4.98,7.029,5.281,11.307.632,8.97.562,17.992,1.248,26.957a67.975,67.975,0,0,0,2.683,13.79c2.512,8.578,5.094,17.164,9.489,25.051,4.829,8.668,9.494,17.43,14.493,26,.858,1.471,2.949,2.317,4.6,3.216,8.712,4.748,17.464,9.421,26.206,14.113a4.482,4.482,0,0,0,.965.059c-5.4-8.168-10.531-16.078-15.811-23.892-5.114-7.567-10.534-14.932-15.512-22.585-2.644-4.067-4.939-8.421-4.833-13.592.176-8.559,5.69-10.781,12.02-9.258,9.194,2.212,16.483,7.617,22.158,15.252,5.878,7.906,11.734,15.848,18.032,23.414,2.081,2.5,5.362,4.153,8.342,5.725,9.721,5.124,19.718,9.744,29.3,15.1,10.006,5.59,19.873,11.49,29.4,17.851,8.177,5.458,12.732,14.019,16.68,22.762,3.619,8.016,4.663,16.689,5.907,25.284,1.1,7.594,2.235,15.185,3.147,22.8.719,6,1.185,12.035,1.651,18.063.6,7.706,1.037,15.425,1.628,23.131.2,2.664-.713,4.516-3.221,5.519H640.85c-4.489-.259-5.318-3.524-5.871-7.075-.857-5.5-1.634-11.021-2.7-16.484-1.046-5.343-2.439-10.66-7.086-14.195-6.448-4.9-12.861-9.872-19.533-14.458-18.777-12.91-37.678-25.638-56.532-38.437-9.305-6.318-16.737-14.212-21.374-24.628-3.187-7.158-6.777-14.134-10.053-21.253-2.941-6.392-5.864-12.8-8.5-19.323-4.452-11.013-6.147-22.749-8.588-34.285-1.032-4.879-2.126-9.745-3.193-14.616C497.416,607.64,497.416,607.461,497.416,607.283Z" transform="translate(0 -250.57)" fill="#208fb8" fill-rule="evenodd"/>
    <path id="Path_125" data-name="Path 125" d="M980.092,812.563c-3.242-.792-4-3.033-3.753-6.068.764-9.272,1.358-18.558,2.163-27.826.591-6.8,1.1-13.624,2.194-20.35,2.091-12.869,4.14-25.774,7.068-38.466,1.52-6.588,5.862-12.18,10.077-17.543,7.446-9.473,17.855-14.981,28.107-20.569,11.253-6.134,22.768-11.784,34.137-17.705,3.316-1.727,6.575-3.577,9.768-5.521,4.762-2.9,7.319-7.791,10.579-12.045,4.883-6.374,9.338-13.163,14.858-18.93,4.381-4.578,9.77-8.488,16.375-9.722a20.571,20.571,0,0,1,6.554-.285c3.787.54,5.519,3.338,5.9,7.192.875,8.792-3.812,15.334-8.325,22.012q-12.929,19.132-25.84,38.279c-.382.565-.717,1.161-1.375,2.233,6.172-3.357,11.88-6.471,17.6-9.564,2.3-1.245,4.556-2.61,6.956-3.63a19.45,19.45,0,0,0,9.779-8.963c4.837-8.965,10.122-17.73,14.329-26.983,3.245-7.139,5.054-14.921,7.631-22.373,3.577-10.341,2.259-21.055,2.7-31.649.2-4.846.38-9.847,2.989-14.171a13.381,13.381,0,0,1,4.254-4.589c3.852-2.286,7.538-1.119,9.684,3.31a49.685,49.685,0,0,1,3.736,12.1c1.7,8.711,2.995,17.5,4.473,26.253.02.116.263.195.4.291v.533c-.355,1.294-.79,2.571-1.052,3.883-1.849,9.287-3.183,18.71-5.626,27.836a187.289,187.289,0,0,1-8.758,24.993c-5.293,12.4-11.166,24.545-16.955,36.723a41.546,41.546,0,0,1-13.576,16.127c-15.387,10.924-30.962,21.584-46.491,32.31-10.092,6.968-20.318,13.746-30.32,20.838-5.812,4.121-10.537,9.193-11.719,16.708-.932,5.921-2.042,11.816-3.075,17.722-.209,1.2-.475,2.393-.636,3.6-.415,3.089-2.984,3.329-5.226,4.015Z" transform="translate(-232.662 -250.563)" fill="#208fb8" fill-rule="evenodd"/>
    <path id="Path_126" data-name="Path 126" d="M959.707,239.931c2.044-4.388,4.481-7.377,8.361-6.057a7.865,7.865,0,0,1,3.53,2.852c.679.953.362,2.273-1.322,2.4C966.89,239.382,963.5,239.641,959.707,239.931Z" transform="translate(-220.906 -85.683)" fill="#208fb8" fill-rule="evenodd"/>
    <path id="Path_127" data-name="Path 127" d="M976.147,253.964c-1.4,3.649-2.626,6.923-3.919,10.171-.564,1.416-1.552,1.508-2.236.2-1.5-2.871-.612-5.559.909-8.17C972.123,254.067,974.044,254.033,976.147,253.964Z" transform="translate(-225.389 -97.452)" fill="#208fb8" fill-rule="evenodd"/>
    <path id="Path_128" data-name="Path 128" d="M990.65,260.245c-1.109-2.977-2.059-5.529-3.01-8.081l.743-.912c1.789.549,3.844.728,5.284,1.762C994.876,253.881,993.31,257.841,990.65,260.245Z" transform="translate(-234.183 -96.146)" fill="#208fb8" fill-rule="evenodd"/>
    <path id="Path_129" data-name="Path 129" d="M875.612,105.958l7,2.551C878.551,110.47,875.738,109.449,875.612,105.958Z" transform="translate(-180.672 -26.12)" fill="#208fb8" fill-rule="evenodd"/>
  </g>
</svg>
