<svg xmlns="http://www.w3.org/2000/svg" width="20.853" height="23.328" viewBox="0 0 20.853 23.328">
  <g id="updated" transform="translate(0 0)">
    <path id="Path_49" data-name="Path 49" d="M1.472,40.188a8.844,8.844,0,0,0,3.767,7.248.73.73,0,0,1,.037,1.173l-.011.009a.728.728,0,0,1-.867.027A10.314,10.314,0,0,1,0,40.188,10.43,10.43,0,0,1,10.356,29.863v1.472a8.957,8.957,0,0,0-8.884,8.853Zm0,0" transform="translate(0 -28.502)" fill="#fff"/>
    <path id="Path_50" data-name="Path 50" d="M225.05.044l2.705,1.85a.25.25,0,0,1,0,.412l-2.705,1.85a.25.25,0,0,1-.39-.206V.25a.25.25,0,0,1,.39-.206Zm0,0" transform="translate(-214.424 0)" fill="#fff"/>
    <path id="Path_51" data-name="Path 51" d="M239.439,75.639a8.844,8.844,0,0,0-3.768-7.248.73.73,0,0,1-.037-1.173l.011-.009a.728.728,0,0,1,.867-.027,10.314,10.314,0,0,1,4.4,8.456,10.423,10.423,0,0,1-10.348,10.325V84.492a8.95,8.95,0,0,0,8.876-8.853Zm0,0" transform="translate(-220.058 -63.997)" fill="#fff"/>
    <path id="Path_52" data-name="Path 52" d="M165.515,423.956l-2.705-1.85a.25.25,0,0,1,0-.412l2.705-1.85a.25.25,0,0,1,.39.206v3.7A.25.25,0,0,1,165.515,423.956Zm0,0" transform="translate(-155.288 -400.672)" fill="#fff"/>
    <path id="Path_53" data-name="Path 53" d="M128.334,187.258l-4.431,3.675-1.117.927a1.462,1.462,0,0,1-2.1-.248l-1.723-2.3a1.175,1.175,0,0,1,1.88-1.41L122,189.456l.009-.008,4.822-4a1.175,1.175,0,0,1,1.5,1.809Zm0,0" transform="translate(-113.315 -176.742)" fill="#fff"/>
    <path id="Path_54" data-name="Path 54" d="M197.2,187.258l-4.431,3.675a5.953,5.953,0,0,1-1.89-1.485l4.822-4a1.175,1.175,0,1,1,1.5,1.809Zm0,0" transform="translate(-182.186 -176.742)" fill="#fff"/>
  </g>
</svg>
