<svg xmlns="http://www.w3.org/2000/svg" width="21.171" height="21.171" viewBox="0 0 21.171 21.171">
  <g id="user_2_" data-name="user (2)" transform="translate(0)">
    <g id="Group_93" data-name="Group 93" transform="translate(0)">
      <path id="Path_81" data-name="Path 81" d="M18.071,13.686a10.545,10.545,0,0,0-4.023-2.523,6.12,6.12,0,1,0-6.925,0A10.6,10.6,0,0,0,0,21.171H1.654a8.932,8.932,0,0,1,17.863,0h1.654A10.516,10.516,0,0,0,18.071,13.686Zm-7.485-3.1A4.466,4.466,0,1,1,15.051,6.12,4.471,4.471,0,0,1,10.586,10.586Z" transform="translate(0)" fill="#fff"/>
    </g>
  </g>
</svg>
