<svg id="vaccine_2_" data-name="vaccine (2)" xmlns="http://www.w3.org/2000/svg" width="162.793" height="162.793" viewBox="0 0 162.793 162.793">
  <g id="Group_67" data-name="Group 67" transform="translate(67.406)">
    <g id="Group_66" data-name="Group 66">
      <path id="Path_50" data-name="Path 50" d="M293.338,38.007l-5.029-1.341V26.685a9.55,9.55,0,0,0,8.9-9.515V9.539A9.549,9.549,0,0,0,287.673,0h-55.96a9.549,9.549,0,0,0-9.539,9.539V17.17a9.55,9.55,0,0,0,8.9,9.515v9.981l-5.029,1.341A18.948,18.948,0,0,0,212,56.292v96.366a10.146,10.146,0,0,0,10.135,10.135h75.117a10.146,10.146,0,0,0,10.135-10.135V56.292A18.948,18.948,0,0,0,293.338,38.007Zm-64.8-20.837V9.539a3.183,3.183,0,0,1,3.18-3.18h55.96a3.183,3.183,0,0,1,3.18,3.18V17.17a3.183,3.183,0,0,1-3.18,3.18h-55.96A3.183,3.183,0,0,1,228.534,17.17Zm72.494,135.488a3.78,3.78,0,0,1-3.776,3.776H222.135a3.78,3.78,0,0,1-3.776-3.776v-7.035h82.668Zm0-13.394H218.359V68.36h82.668Zm0-77.263H218.359V56.292a12.581,12.581,0,0,1,9.327-12.141l7.086-1.89h31.836a3.18,3.18,0,1,0,0-6.359H237.436V27.08H281.95V39.108a3.18,3.18,0,0,0,2.361,3.072l7.389,1.97a12.58,12.58,0,0,1,9.328,12.141Z" transform="translate(-212)" fill="#334bac"/>
    </g>
  </g>
  <g id="Group_69" data-name="Group 69" transform="translate(97.379 80.76)">
    <g id="Group_68" data-name="Group 68">
      <path id="Path_51" data-name="Path 51" d="M325.963,254.689a3.18,3.18,0,0,0-3.952,0c-.643.51-15.744,12.655-15.744,27,0,9.983,8.115,18.418,17.72,18.418s17.72-8.434,17.72-18.418C341.707,267.344,326.607,255.2,325.963,254.689Zm-1.976,39.056c-6.158,0-11.361-5.522-11.361-12.059,0-8.568,7.652-16.788,11.364-20.271,3.715,3.476,11.358,11.671,11.358,20.271C335.348,288.222,330.146,293.744,323.987,293.744Z" transform="translate(-306.267 -254)" fill="#334bac"/>
    </g>
  </g>
  <g id="Group_71" data-name="Group 71">
    <g id="Group_70" data-name="Group 70">
      <path id="Path_52" data-name="Path 52" d="M50.873,31.8H39.426V21.621h3.815a9.549,9.549,0,0,0,9.539-9.539V9.539A9.549,9.549,0,0,0,43.242,0H13.99A9.549,9.549,0,0,0,4.451,9.539v2.544a9.549,9.549,0,0,0,9.539,9.539h3.815V31.8H6.359A6.366,6.366,0,0,0,0,38.155v6.359a6.366,6.366,0,0,0,6.359,6.359v71a19.956,19.956,0,0,0,10.1,17.333l8.976,5.087v15.317a3.18,3.18,0,0,0,6.359,0V144.3l8.976-5.087a19.956,19.956,0,0,0,10.1-17.333v-71a6.366,6.366,0,0,0,6.359-6.359V38.155A6.366,6.366,0,0,0,50.873,31.8ZM13.99,15.262a3.183,3.183,0,0,1-3.18-3.18V9.539a3.183,3.183,0,0,1,3.18-3.18H43.242a3.183,3.183,0,0,1,3.18,3.18v2.544a3.183,3.183,0,0,1-3.18,3.18H13.99Zm19.077,6.359V31.8h-8.9V21.621ZM44.514,90.3H36.247a3.18,3.18,0,0,0,0,6.359h8.267v8.9H36.247a3.18,3.18,0,0,0,0,6.359h8.267v8.9H36.247a3.18,3.18,0,1,0,0,6.359h7.181a13.573,13.573,0,0,1-5.79,6.5l-9.021,5.112-9.021-5.112a13.586,13.586,0,0,1-6.876-11.8V81.4h31.8Zm0-30.524H36.247a3.18,3.18,0,1,0,0,6.359h8.267v8.9h-31.8V50.873h31.8Zm6.359-15.262H6.359V38.155H50.873l0,6.359Z" fill="#334bac"/>
    </g>
  </g>
  <g id="Group_73" data-name="Group 73" transform="translate(141.158 71.43)">
    <g id="Group_72" data-name="Group 72">
      <path id="Path_53" data-name="Path 53" d="M447.138,224.654a3.18,3.18,0,0,0-3.18,3.18v26.5a3.18,3.18,0,0,0,6.359,0v-26.5A3.18,3.18,0,0,0,447.138,224.654Z" transform="translate(-443.958 -224.654)" fill="#334bac"/>
    </g>
  </g>
  <g id="Group_75" data-name="Group 75" transform="translate(141.159 110.009)">
    <g id="Group_74" data-name="Group 74">
      <path id="Path_54" data-name="Path 54" d="M449.387,346.922a3.177,3.177,0,1,0,.932,2.248A3.189,3.189,0,0,0,449.387,346.922Z" transform="translate(-443.96 -345.99)" fill="#334bac"/>
    </g>
  </g>
</svg>
