<svg id="vaccine_1_" data-name="vaccine (1)" xmlns="http://www.w3.org/2000/svg" width="180.586" height="180.586" viewBox="0 0 180.586 180.586">
  <path id="Path_45" data-name="Path 45" d="M30.183,31.7c-3.968,3.965-3.506,10.884,1.029,15.419a12.361,12.361,0,0,0,8.651,3.724,9.442,9.442,0,0,0,6.765-2.7h0c3.965-3.968,3.5-10.884-1.029-15.419s-11.454-5-15.419-1.026ZM42.515,44.037c-1.674,1.666-4.968,1.2-7.195-1.029s-2.7-5.523-1.029-7.2a3.688,3.688,0,0,1,2.651-1,6.634,6.634,0,0,1,4.544,2.029C43.715,39.069,44.186,42.366,42.515,44.037Z" transform="translate(48.655 53.603)" fill="#334bac"/>
  <path id="Path_46" data-name="Path 46" d="M37.037,33.684a2.907,2.907,0,1,0-2.055-.852A2.9,2.9,0,0,0,37.037,33.684Z" transform="translate(61.327 51.445)" fill="#334bac"/>
  <path id="Path_47" data-name="Path 47" d="M39.158,37.22a2.907,2.907,0,1,0-2.055-.852A2.9,2.9,0,0,0,39.158,37.22Z" transform="translate(65.372 58.188)" fill="#334bac"/>
  <path id="Path_48" data-name="Path 48" d="M33.5,25.749a2.907,2.907,0,1,0,2.055.852,2.9,2.9,0,0,0-2.055-.852Z" transform="translate(54.584 47.4)" fill="#334bac"/>
  <path id="Path_49" data-name="Path 49" d="M169.545,66.363l12.334-12.332L128.434.586,116.1,12.92,126.379,23.2,105.823,43.752l-14.39-14.39L79.1,41.7l8.221,8.221-40,40,2.055,26.724-9.288,9.288,6.166,6.166L1.293,177.062,5.4,181.172,50.366,136.21l6.166,6.169,9.288-9.288,26.724,2.055,40-40,8.224,8.224L153.1,91.035l-14.39-14.39L159.269,56.09ZM128.434,8.807l45.224,45.224-4.113,4.111L124.323,12.92ZM118.158,56.084l20.555-20.555,8.224,8.224L126.382,64.308Zm12.332-28.776,4.113,4.113L114.047,51.976l-4.111-4.111ZM55.195,116.457,53.823,98.642l30,30-17.814-1.369Zm1.34,17.7-8.224-8.224,4.067-4.067,8.221,8.224Zm33.791-5.012,1.108-1.11-37-37-1.11,1.11v0L91.436,54.028l37,37Zm50.442-34L87.323,41.7l4.113-4.113,53.445,53.445ZM134.6,72.529l-4.111-4.111,20.555-20.555,4.113,4.113Z" transform="translate(-1.293 -0.586)" fill="#334bac"/>
</svg>
