<svg xmlns="http://www.w3.org/2000/svg" width="464.751" height="512" viewBox="0 0 464.751 512">
  <g id="unsafe-wash-services" transform="translate(-130.269 -100)">
    <path id="Path_48" data-name="Path 48" d="M226.843,248.846q0-62.374.013-124.752a76.926,76.926,0,0,1,.346-10.143c1.048-7.844,7.5-14,14.78-13.95,8.162.061,13.222,4.621,15.248,12.276a39.768,39.768,0,0,1,.83,10.065q.022,127.063-.039,254.127c0,11.039.946,11.945,12.246,11.969,24.522.054,24.515.054,23.112-24.367-.283-4.92.3-10.065-.985-14.7-1.09-3.926-3.5-8.511-6.751-10.6-6.849-4.4-11.856-9.359-10.1-17.828,1.952-9.4,9.175-12.568,18-12.583,31.726-.052,63.456-.29,95.177.194,9.516.144,14.283-1.848,16.079-12.481,4.338-25.664,35.578-38.908,57.869-24.659,7.082,4.528,11.4,3.859,17.835-.586,30.373-20.961,73.259-9.775,90.195,23.175,3.787,7.367,7.278,13.734,16.161,17.434,11.59,4.826,10.577,20.755-1.419,26.132-6.7,3-7.992,7.062-8.363,13.433-4.029,68.838-8.31,137.662-12.433,206.5-.7,11.679-.81,23.395-1.5,35.077-.811,13.645-6.877,19.347-20.565,19.36q-99.8.094-199.6.011c-14.353-.015-20.1-6.029-20.1-20.343,0-20.946.1-41.893-.006-62.837-.031-5.824,2-12.941-8.176-13.006-10.588-.067-8.674,7.184-8.679,13.449-.019,20.946.059,41.892.044,62.837-.009,12.207-6.1,19.7-15.8,19.595-9.237-.1-15.4-7.439-15.482-19.307q-.236-32.8.122-65.609c.061-6.349-.974-11.154-8.748-10.954-7.132.185-8.258,4.646-8.2,10.644.207,21.868.159,43.74.181,65.61.007,7.812-1.708,14.871-9.7,18.34-10.721,4.656-21.3-3.037-21.48-16.15-.3-22.788-.037-45.586-.011-68.38.006-4.336.569-8.727-5.624-9.812-7.679-1.345-11.067.935-11.1,8.886-.092,22.177.2,44.357-.074,66.532-.055,4.386-.7,9.934-3.377,12.823-3.347,3.617-9.258,7.2-13.7,6.805-4.5-.4-9.516-4.983-12.492-9.06-2.233-3.061-2.114-8.214-2.146-12.444-.161-21.253-.1-42.507.05-63.761.044-6-.952-10.121-8.474-10.043-7.371.078-8.513,3.953-8.454,10.069.211,21.868.148,43.74.155,65.61,0,12.464-5.718,20.014-15.214,20.186-9.7.174-16.1-7.415-16.116-19.683-.055-46.205-.211-92.41.1-138.614.248-36.863,28.531-64.689,65.279-64.9,7.084-.039,14.183-.257,21.251.105,7.585.388,10.121-2.623,10.064-10.313-.311-43.122-.15-86.247-.15-129.373A.121.121,0,0,0,226.843,248.846ZM443.256,580.888c26.477,0,52.959-.15,79.434.1,7.034.067,9.893-2.573,10.3-9.6,4.109-70.363,8.618-140.7,12.535-211.077,1.321-23.679,1.682-20.358-19.512-20.861-7.461-.177-10.62,2.02-11.457,9.383a79.585,79.585,0,0,1-15.621,38.936c-18.791,25.3-52.3,37.661-81.85,30.056-32.392-8.337-57.189-34.377-61.29-64.36-1.889-13.821-1.889-13.821-15.566-13.839-2.155,0-4.317.1-6.465-.039-8.086-.532-11.036,3.14-10.224,11.148,1.427,14.082,1.992,28.259,3.663,42.307a19.4,19.4,0,0,0,5.583,10.965c16.148,15.129,22.539,33.648,22.262,55.5-.469,36.925.007,73.86-.165,110.787-.037,7.757,2.506,10.921,10.781,10.779C391.524,580.631,417.392,580.911,443.256,580.888ZM242.019,484.581v-.375c23.687,0,47.377-.159,71.062.1,6.959.074,10.365-2.04,9.925-9.507-.434-7.358-.054-14.762-.205-22.142-.384-18.613-13.13-32.3-31.782-32.578q-48.9-.715-97.82.033c-17.926.286-30.922,14.233-31.449,32.155-.209,7.069.438,14.194-.192,21.216-.787,8.777,3.1,11.311,11.256,11.206C195.878,484.389,218.948,484.581,242.019,484.581ZM435.21,339.537v-.116q-18.918,0-37.835,0c-9.306-.009-11.135,2.061-9.526,10.831C391.724,371.306,413,388.4,435.1,388.2c22.215-.2,43.649-17.532,47.318-38.263,1.188-6.707-.584-10.659-8.444-10.476C461.054,339.759,448.129,339.537,435.21,339.537Zm79.553-31.351c6.456,0,12.923.213,19.36-.14a6.825,6.825,0,0,0,4.813-3.074c.53-.968-.726-3.488-1.844-4.7-9.973-10.8-33.532-10.788-43.884.057-1.309,1.37-2.545,3.977-2.09,5.5.359,1.2,3.347,2.166,5.208,2.251C502.459,308.352,508.616,308.181,514.763,308.186ZM442.5,310.909l7.433-7.439c-2.3-1.957-4.611-5.458-6.91-5.454-2.53.006-5.053,3.238-7.58,5.062C437.378,305.225,439.31,307.373,442.5,310.909Z" transform="translate(0)" fill="#2a7c9b" fill-rule="evenodd"/>
    <path id="Path_49" data-name="Path 49" d="M231.574,194.573c-.187-21.121,18.471-39.827,39.708-39.805,20.771.02,39.229,18.365,39.433,39.182.2,20.771-18.053,39.532-38.791,39.87C250.763,234.16,231.761,215.678,231.574,194.573Zm39.383-11.409c-3.514,4.96-7.519,8.176-7.084,10.6.574,3.2,4.624,5.783,7.18,8.633,2.818-2.69,7.554-5.16,7.9-8.132C279.258,191.527,274.849,188.249,270.957,183.164Z" transform="translate(86.206 46.59)" fill="#2a7c9b" fill-rule="evenodd"/>
    <path id="Path_50" data-name="Path 50" d="M341.2,175.9c.165,7.016-7.824,15.51-15,15.945-7.272.44-16.389-7.983-16.611-15.343-.218-7.343,8.51-16.037,15.991-15.928C332.78,160.674,341.037,168.775,341.2,175.9Z" transform="translate(152.275 51.428)" fill="#2a7c9b" fill-rule="evenodd"/>
    <path id="Path_51" data-name="Path 51" d="M314.392,158.685c-.028,8.218-6.842,15.323-14.87,15.5a15.622,15.622,0,0,1-15.591-15.712c.149-7.9,7.65-15.387,15.3-15.264C306.852,143.325,314.417,151.048,314.392,158.685Z" transform="translate(130.48 36.684)" fill="#2a7c9b" fill-rule="evenodd"/>
  </g>
</svg>
