<svg xmlns="http://www.w3.org/2000/svg" width="137.681" height="512" viewBox="0 0 137.681 512">
  <g id="wasting-in-children_copy" data-name="wasting-in-children copy" transform="translate(-235.678 -144.188)">
    <g id="Group_2" data-name="Group 2" transform="translate(235.678 279.252)">
      <path id="Path_42" data-name="Path 42" d="M267.249,574.987c-7.432-9.879-7.338-21.167-7.251-32.742.293-39.581.014-79.166.2-118.749.025-5.436-.412-12.21,2.555-16.04,8.139-10.507,7.228-21.809,7.281-33.723.14-31.425,1.294-62.848,1.955-94.274.066-3.284-.449-6.586-.694-9.876-1.211-.127-2.422-.249-3.634-.375-.872,3.091-2.438,6.164-2.514,9.275-.817,34.37-1.408,68.741-2.04,103.113-.027,1.477.213,2.958.19,4.434-.144,9.481-6.283,17.395-13.758,17.8-7.936.422-13.925-6.1-13.859-16.931.206-33.648-.1-67.349,1.839-100.917,1.058-18.289,4.858-36.739,9.964-54.424,6.608-22.89,17.588-35.87,46.045-33.142,7.558.724,15.248.131,22.877.12,26.092-.042,38.3,7.558,44.234,32.3a445.884,445.884,0,0,1,11.493,71.042c2.045,27.979.957,56.183.8,84.286a22.682,22.682,0,0,1-3.892,12.379c-6.157,8.609-18.046,6.91-21.435-3.035-1.5-4.388-1.085-9.428-1.268-14.182-1.31-34.321-2.482-68.648-3.94-102.962-.135-3.22-1.932-6.373-2.956-9.557-1.1.064-2.2.131-3.3.193-.492,2.491-1.488,5-1.4,7.472,1.319,35.78,2.5,71.57,4.451,107.321.4,7.3,3.986,14.4,5.82,21.664,1.243,4.923,2.809,9.958,2.834,14.95.206,42.17-.126,84.344.224,126.516.085,10.252-.511,19.848-7.553,28.073h-22.9c-2.054-6.912-5.818-13.8-5.889-20.734-.506-47.6-.238-95.219-.22-142.831,0-4.421.778-9.037-.314-13.191-.673-2.562-4.6-6.455-6.36-6.135-2.908.528-5.722,3.668-7.638,6.339-1.088,1.519-.359,4.294-.359,6.5.014,45.4-.044,90.8.117,136.195.041,11.784,1.028,23.618-6.811,33.857Q278.693,574.986,267.249,574.987Z" transform="translate(-235.678 -198.053)" fill="#3c9cb5" fill-rule="evenodd"/>
    </g>
    <ellipse id="Ellipse_2" data-name="Ellipse 2" cx="42.626" cy="60.179" rx="42.626" ry="60.179" transform="translate(260.832 144.188)" fill="#3c9cb5"/>
  </g>
</svg>
