<svg id="weighing-scale" xmlns="http://www.w3.org/2000/svg" width="110.929" height="91.812" viewBox="0 0 110.929 91.812">
  <path id="Path_244" data-name="Path 244" d="M94.636,27.069H16.293A16.311,16.311,0,0,0,0,43.362v59.226a16.312,16.312,0,0,0,16.293,16.293H94.636a16.312,16.312,0,0,0,16.293-16.293V43.362A16.312,16.312,0,0,0,94.636,27.069ZM20.422,31.66H90.508V114.29H20.422ZM4.591,102.588V43.362A11.715,11.715,0,0,1,15.831,31.671v82.608A11.716,11.716,0,0,1,4.591,102.588Zm101.748,0A11.715,11.715,0,0,1,95.1,114.278V31.671a11.715,11.715,0,0,1,11.241,11.691Z" transform="translate(0 -27.069)" fill="#fff"/>
  <path id="Path_245" data-name="Path 245" d="M125.506,45.678A17.23,17.23,0,0,0,108.983,67.8l.734,2.486,2.379-1.029a35.961,35.961,0,0,1,26.821,0l2.379,1.029.734-2.486a17.23,17.23,0,0,0-16.523-22.118ZM138.1,64.03A39.219,39.219,0,0,0,127.8,62.136V55.622a2.3,2.3,0,1,0-4.591,0v6.514a39.227,39.227,0,0,0-10.295,1.894q-.05-.559-.05-1.122a12.64,12.64,0,1,1,25.28,0Q138.145,63.471,138.1,64.03Z" transform="translate(-70.041 -39.107)" fill="#fff"/>
</svg>
