<svg xmlns="http://www.w3.org/2000/svg" xmlns:xlink="http://www.w3.org/1999/xlink" width="16" height="16" viewBox="0 0 16 16">
  <defs>
    <clipPath id="clip-path">
      <rect width="16" height="16" fill="none"/>
    </clipPath>
  </defs>
  <g id="Wifi" clip-path="url(#clip-path)">
    <rect id="Rectangle_956" data-name="Rectangle 956" width="16" height="16" fill="none"/>
    <path id="Path_256" data-name="Path 256" d="M15.9,16.6,14.5,18a.1.1,0,0,0-.1.1h-.1c-.1,0-.2,0-.2-.1a8.161,8.161,0,0,0-6-2.5,8.005,8.005,0,0,0-6,2.5c0,.1-.1.1-.2.1H1.8a.1.1,0,0,1-.1-.1L.3,16.6a.446.446,0,0,1,0-.5,11.048,11.048,0,0,1,15.7,0A.749.749,0,0,1,15.9,16.6Zm-3.1,3.1-1.4,1.4a.1.1,0,0,0-.1.1h-.1c-.1,0-.2,0-.2-.1a4,4,0,0,0-2.9-1.2,4,4,0,0,0-2.9,1.2.31.31,0,0,1-.2.1H4.9a.1.1,0,0,1-.1-.1L3.4,19.7c-.2-.2-.2-.3,0-.5a6.568,6.568,0,0,1,4.8-2,6.568,6.568,0,0,1,4.8,2A.551.551,0,0,1,12.8,19.7Zm-3,3L8.3,24.2c-.2.2-.3.2-.5,0L6.3,22.7a.454.454,0,0,1,0-.5,2.41,2.41,0,0,1,1.8-.7,2.41,2.41,0,0,1,1.8.7A.749.749,0,0,1,9.8,22.7Z" transform="translate(-0.225 -10.826)" fill="#1e8ce9"/>
  </g>
</svg>
