<svg xmlns="http://www.w3.org/2000/svg" width="493.633" height="490.867" viewBox="0 0 493.633 490.867">
  <g id="Married-woman_copy" data-name="Married-woman copy" transform="translate(-131.377 -120.656)">
    <path id="Path_1" data-name="Path 1" d="M450.17,176.147c5.3-5.67,10.5-11.432,15.913-16.991,14.259-14.649,41.768-12.748,56.97,2.9,20.163,20.749,15.287,48.329-5.919,64.212-2.43,1.817-4.035,4.735-7.161,8.528,4.009.729,6.173,1.356,8.358,1.453a47.56,47.56,0,0,0,6.309-.584c21.144-1.933,30.955,3.725,40.649,22.492q27.642,53.526,55.747,106.814c4.062,7.725,6.084,15.383.762,23.036-8.331,11.976-24.02,11.285-31.363-1.641-8.2-14.417-15.592-29.286-23.425-43.91a77.223,77.223,0,0,0-4.6-6.8l-2.883.745c0,5.1-.627,10.3.1,15.294,4.278,29.279,8.929,58.5,13.328,87.765,1.349,8.982-.963,11.448-10.115,11.539-2.114.02-4.229-.12-6.343-.118-10.483.009-12.587,2.174-12.556,12.859.1,32.634.341,65.271.127,97.9-.036,5.228-1.01,11.053-3.482,15.535a21.223,21.223,0,0,1-24.878,10.162c-9.1-2.622-15.265-11.172-15.294-22.113-.089-32.636.022-65.273.06-97.909,0-2.114.783-4.611-.078-6.265-1.842-3.538-4.095-8.926-6.942-9.457-6.5-1.215-7.373,4.631-7.37,9.725.022,33.843.343,67.69-.038,101.53a31.14,31.14,0,0,1-5.029,16.64c-5.9,8.418-15.436,10.6-24.124,7.5-8.249-2.945-14.391-11.325-14.474-21.046-.2-22.965-.056-45.932-.025-68.9.015-10.879.1-21.755.141-32.634.042-11.549-2.058-13.6-13.845-13.508-.6.005-1.208.047-1.81.054-12.6.16-14.447-1.726-12.583-14.28,4.343-29.276,8.993-58.5,13.289-87.785.658-4.485.092-9.149.092-13.729l-3.152-.979c-3.166,5.447-6.548,10.784-9.457,16.366-5.574,10.7-10.773,21.6-16.335,32.306-4.285,8.249-10.69,14.215-20.43,14.337-9.413.12-15.858-5.5-20.005-13.439-10.753-20.589-21.133-41.373-31.87-61.973-2.66-5.1-6.113-9.794-9.2-14.678l-2.809.751c-.491,2.709-1.416,5.418-1.409,8.126q.307,108.32.791,216.641c.04,10.578.185,21.155.038,31.729-.194,13.885-9.5,23.861-21.937,23.819-12.728-.044-22.074-10.61-22.042-24.746q.141-61.194.185-122.386c0-2.414.517-5.174-.461-7.148-1.177-2.381-3.892-5.874-5.591-5.69a10.589,10.589,0,0,0-7.161,5.259c-1.327,2.746-.729,6.488-.729,9.8q.03,59.834.118,119.666c0,13.537-7.575,23.474-18.794,25-14.173,1.929-25.611-9.141-25.6-24.9.018-30.218.132-60.437.151-90.655.027-43.213-.036-86.426.038-129.64.014-8.137.832-16.286.564-24.408-.1-2.9-2.319-5.725-3.572-8.585-2.116,2.214-4.88,4.087-6.244,6.693-11.756,22.472-23.148,45.134-34.886,67.612-5.843,11.192-16.166,15.3-25.395,10.665-10.964-5.505-14.177-15.593-7.993-27.535,19.851-38.335,40.145-76.438,59.851-114.846,6.3-12.277,15.276-17.945,29.1-16.573,6.472.642,13.062.111,19.6.111q.751-1.118,1.505-2.234c-2.624-2.767-4.914-5.99-7.932-8.231-16.37-12.159-21.445-31.112-13.68-49.946,2.833-6.866,7.371-9.983,14.482-9.966,17.224.038,34.485-.522,51.642.562,4.651.294,10.723,4.577,13.158,8.764,8.907,15.309,2.512,39.084-12.035,49.52-3.482,2.5-6.536,5.6-9.785,8.42q.457,1.259.912,2.519c3.348.323,6.691.865,10.044.918a119.068,119.068,0,0,0,13.582-.424c13.274-1.318,21.788,5.036,27.506,16.375,12.9,25.592,25.8,51.192,38.966,76.649,1.36,2.631,4.463,5.8,6.949,5.968,2.04.14,5.065-3.42,6.454-5.99,14.6-27.054,28.438-54.536,43.774-81.159,3.56-6.18,12.01-9.544,18.148-14.159-3.017-3.556-10.8-4.015-16.388.974-3.556,3.173-6.191,7.353-9.491,10.844-2.434,2.575-4.969,5.395-8.048,6.9-1.917.941-5.458.37-7.254-.927-1.059-.767-1.021-4.842.025-6.461q14.732-22.813,30.1-45.215c2.461-3.589,5.391-3.482,7.491.9,3.612,7.54,7.562,14.926,10.937,22.57,1.523,3.445,2,7.353,3.255,12.224l19,1.249c-8.811-10.8-18.063-18.391-22.1-28.142-4.009-9.691-2.773-21.552-3.835-32.46ZM237.12,273.325c1.282,15.205,2.92,16.132,15.764,8.666a4.328,4.328,0,0,0,.785-.441c6.766-6.321,12.989-5.1,19.848.41,2.949,2.37,7.544,2.691,11.39,3.944.95-3.872,1.919-7.738,2.836-11.615a4.194,4.194,0,0,0,.038-1.8c-.705-3.3-1.469-6.59-2.212-9.881-3.551.887-7.731.876-10.538,2.833-8,5.573-15.443,5.266-23.522.419-3.081-1.85-8.508-4.472-10-3.246C238.882,264.768,238.463,269.61,237.12,273.325Z" transform="translate(0 23.196)" fill="#3c9cb5" fill-rule="evenodd"/>
    <path id="Path_2" data-name="Path 2" d="M220.271,183.242c-7.856,0-15.853.89-23.512-.332-4.691-.747-10.532-3.714-12.873-7.518-3.3-5.362,3.086-7.571,6.568-10.826a19.47,19.47,0,0,0,5.694-11.259c.776-7.455-.165-15.077-.14-22.629.022-6.485,3.05-10.084,10.019-9.972,9.665.156,19.336,0,29.005-.049,6.793-.034,9.965,3.605,10.064,10.11a133.716,133.716,0,0,1-.27,15.4c-.907,9.018.123,16.64,9.4,21.423,1.94,1,3.7,6.641,2.657,8.222-2.062,3.11-5.984,6.5-9.444,6.871-8.964.948-18.1.319-27.161.319C220.271,183.082,220.271,183.162,220.271,183.242Z" transform="translate(41.962 0)" fill="#3c9cb5" fill-rule="evenodd"/>
    <path id="Path_3" data-name="Path 3" d="M315.156,188.169c-5.819-.392-12.021,1.177-15.686-6-3.438-6.739-2.015-11.664,4.718-13.541,5.883-1.637,7.685-4.65,7.912-10.146.234-5.609,3.523-8.721,9.042-6.682,5.411,2,7.856-.005,9.7-4.635,2.457-6.189,5.971-9.549,13.261-5.9,1.616.807,5.763-.836,7.119-2.6,4.5-5.85,8.65-6.178,13.1-.452,2.709,3.489,5.079,5.549,9.705,2.452,5.143-3.445,7.77.724,9.673,4.637,2.557,5.252,5.7,7.946,12.124,6.262,5.355-1.4,7.565,2.214,7.867,7.241.279,4.684.9,8.447,7.065,9.787,2.911.633,7.439,6.39,6.782,8.311-1.442,4.229-5.709,7.495-8.822,11.154-2.542-2.288-5.7-4.169-7.517-6.934-8.412-12.826-18.364-22.9-34.964-23.765-16.661-.872-32.987-.5-44.142,14.355-3.534,4.708-4.849,11.083-7.179,16.7C314.911,188.413,315.156,188.169,315.156,188.169Z" transform="translate(135.259 10.93)" fill="#3c9cb5" fill-rule="evenodd"/>
    <path id="Path_4" data-name="Path 4" d="M368.95,174.449c5.38,8.187,9.691,14.9,14.161,21.5,5.547,8.2,11.6,16.092,16.647,24.586,1.772,2.987,1.211,7.361,1.717,11.1-4.035-1.106-8.766-1.26-11.918-3.571-3.708-2.718-5.95-7.388-9-11.069-5.685-6.86-12.634-8.421-20.965-5.1-1.951.778-5.214,1.008-6.5-.1-1.24-1.066-1.639-4.664-.8-6.34C357.21,195.671,362.6,186.133,368.95,174.449Z" transform="translate(179.33 43.755)" fill="#3c9cb5" fill-rule="evenodd"/>
  </g>
</svg>
