<svg xmlns="http://www.w3.org/2000/svg" width="79.493" height="73.222" viewBox="0 0 79.493 73.222">
  <g id="women-age1" transform="translate(-812.432 -302.156)">
    <path id="Path_130" data-name="Path 130" d="M946.7,442.134q-4.106,4.559-8.213,9.117a2.671,2.671,0,0,1-3.857.452,2.854,2.854,0,0,1-.365-3.949q4.567-6.249,9.136-12.5c.375-.511.777-1,1.2-1.478a4.024,4.024,0,0,1,3.075-1.52c3.041,0,6.081-.007,9.121.013a3.827,3.827,0,0,1,2.949,1.486c1.99,2.332,3.675,4.893,5.5,7.35,1.643,2.211,3.259,4.442,4.883,6.668a2.868,2.868,0,0,1,.236,3.2,2.719,2.719,0,0,1-2.928,1.285,2.5,2.5,0,0,1-1.595-.955c-1.977-2.456-4.192-4.7-6.27-7.064-.646-.735-1.312-1.451-2.1-2.316.089,1.688-.179,3.164.442,4.7,2.667,6.592,5.21,13.234,7.793,19.859a1,1,0,0,1,.15.677h-3.126c-1.75,0-3.5.017-5.251-.011-.45-.007-.6.13-.634.569-.3,3.486-.627,6.971-.943,10.456-.184,2.026-.371,4.051-.543,6.078-.026.305-.079.47-.448.466-1.816-.018-3.632-.022-5.448,0-.388.005-.407-.174-.433-.463q-.427-4.7-.869-9.408c-.223-2.417-.458-4.834-.649-7.254-.037-.473-.28-.438-.595-.437q-4.037.006-8.074,0h-.325c-.091-.267.063-.444.136-.632q4.04-10.366,8.1-20.723a5.192,5.192,0,0,0,.193-1.8,12.578,12.578,0,0,1-.048-1.519C946.891,442.349,947,442.115,946.7,442.134Z" transform="translate(-99.995 -109.346)" fill="#fff" fill-rule="evenodd"/>
    <path id="Path_131" data-name="Path 131" d="M1131.606,461.433a11.333,11.333,0,0,0,.558,4.774c2.435,6,4.733,12.059,7.1,18.089.2.512.211.686-.435.676-2.406-.036-4.812-.007-7.219-.022-.394,0-.551.069-.591.517-.453,5.119-.939,10.234-1.4,15.352-.034.376-.109.524-.526.517q-2.427-.04-4.856,0c-.4.006-.508-.122-.543-.511q-.586-6.632-1.209-13.261c-.034-.367-.19-.734-.215-1.079-.153-2.112-1.329-3.861-1.99-5.789-.677-1.978-1.495-3.909-2.262-5.856a.824.824,0,0,1-.01-.683c.335-.8.656-1.614.944-2.435.118-.337.293-.395.626-.381a5.835,5.835,0,0,0,5.676-8.394,9.056,9.056,0,0,0-1.069-1.568c-1.578-2.178-3.159-4.353-4.766-6.509a.6.6,0,0,1,.043-.925,4.011,4.011,0,0,1,3-1.533q4.1-.007,8.2-.013a4.233,4.233,0,0,1,3.522,1.956q3.838,5.195,7.653,10.407.8,1.083,1.585,2.172a2.606,2.606,0,0,1-.488,3.669,2.66,2.66,0,0,1-3.682-.558C1136.869,467.107,1134.194,464.426,1131.606,461.433Z" transform="translate(-252.036 -125.963)" fill="#fff" fill-rule="evenodd"/>
    <path id="Path_132" data-name="Path 132" d="M824.68,461.5q-3.787,4.216-7.573,8.434c-1.341,1.5-3.187,1.481-4.236-.055a2.6,2.6,0,0,1,.008-2.905q4.7-6.395,9.421-12.772a4.417,4.417,0,0,1,3.89-1.893c2.449.057,4.9.036,7.35.007a4.142,4.142,0,0,1,3.432,1.592c.264.32.307.5.038.865-1.807,2.416-3.624,4.827-5.352,7.3a5.562,5.562,0,0,0-.275,6.31,5.453,5.453,0,0,0,5.481,2.86c.313-.025.511-.019.562.332a1.082,1.082,0,0,0,.081.178,8.844,8.844,0,0,1,.888,2.7,8.165,8.165,0,0,1-.918,2.631c-.985,2.543-1.955,5.091-2.974,7.62a13.049,13.049,0,0,0-.649,3.725q-.593,6.138-1.135,12.281c-.04.45-.177.563-.622.554-1.553-.031-3.107-.038-4.659,0-.5.013-.616-.165-.656-.613-.44-4.945-.9-9.888-1.346-14.831-.085-.937-.071-.938-1-.938h-6.76c-.771,0-.772,0-.5-.7q3.725-9.539,7.455-19.075a3.359,3.359,0,0,0,.239-1.464c-.042-.695-.01-1.394-.01-2.092Z" transform="translate(0 -125.885)" fill="#fff" fill-rule="evenodd"/>
    <path id="Path_133" data-name="Path 133" d="M1010.084,321.62a7.958,7.958,0,1,1-8-7.944A7.995,7.995,0,0,1,1010.084,321.62Z" transform="translate(-149.928 -11.519)" fill="#fff" fill-rule="evenodd"/>
    <path id="Path_134" data-name="Path 134" d="M1132.884,356.724a7.415,7.415,0,1,1,7.384-7.39A7.4,7.4,0,0,1,1132.884,356.724Z" transform="translate(-258.223 -34.799)" fill="#fff" fill-rule="evenodd"/>
    <path id="Path_135" data-name="Path 135" d="M883.748,349.291a7.357,7.357,0,0,1-7.38,7.432,7.415,7.415,0,1,1,7.38-7.432Z" transform="translate(-46.601 -34.798)" fill="#fff" fill-rule="evenodd"/>
    <path id="Path_136" data-name="Path 136" d="M1008.24,487.919c.159-.247.257-.2.259.069a10.853,10.853,0,0,1-.008,1.8,6.557,6.557,0,0,1-.111-1.288C1008.355,488.306,1008.492,488.063,1008.24,487.919Z" transform="translate(-161.537 -155.131)" fill="#fff" fill-rule="evenodd"/>
  </g>
</svg>
