<?xml version="1.0" encoding="iso-8859-1"?>
<!-- Generator: Adobe Illustrator 18.1.1, SVG Export Plug-In . SVG Version: 6.00 Build 0)  -->
<svg version="1.1" id="Capa_1" xmlns="http://www.w3.org/2000/svg" xmlns:xlink="http://www.w3.org/1999/xlink" x="0px" y="0px"
	 viewBox="0 0 27.813 27.813" style="enable-background:new 0 0 27.813 27.813;" xml:space="preserve">
<g>
	<g id="c42_wifi">
		<path d="M13.952,9.28c-1.521,0-2.758,1.234-2.758,2.758c0,0.78,0.33,1.482,0.852,1.984v13.791h3.909V13.925
			c0.467-0.494,0.756-1.155,0.756-1.887C16.71,10.515,15.476,9.28,13.952,9.28z"/>
		<path d="M13.905,0C6.948,0,1.306,5.641,1.306,12.599c0,4.433,2.292,8.321,5.753,10.566c0,0,0.318,0.15,0.318-0.392
			s0-1.544,0-1.733s-0.318-0.388-0.318-0.388c-2.291-1.95-3.771-4.813-3.771-8.054c0-5.864,4.754-10.618,10.617-10.618
			c5.864,0,10.62,4.754,10.62,10.618c0,3.154-1.404,5.959-3.588,7.903c0,0-0.316,0.28-0.316,0.504s0,1.36,0,1.747
			c0,0.385,0.316,0.303,0.316,0.303c3.359-2.264,5.57-6.102,5.57-10.457C26.507,5.641,20.865,0,13.905,0z"/>
		<path d="M13.952,4.19c-4.386,0-7.942,3.556-7.942,7.943c0,3.006,1.671,5.617,4.132,6.967c0,0,0.407,0.199,0.407-0.289
			c0-0.486,0-1.502,0-1.744c0-0.244-0.407-0.454-0.407-0.454c-1.273-1.084-2.098-2.678-2.098-4.479c0-3.266,2.645-5.91,5.908-5.91
			c3.266,0,5.911,2.645,5.911,5.91c0,1.795-0.82,3.385-2.086,4.467c0,0-0.324,0.223-0.324,0.425c0,0.204,0,1.382,0,1.749
			c0,0.363,0.324,0.318,0.324,0.318c2.455-1.352,4.119-3.961,4.119-6.959C21.896,7.746,18.341,4.19,13.952,4.19z"/>
	</g>
	<g id="Capa_1_235_">
	</g>
</g>
<g>
</g>
<g>
</g>
<g>
</g>
<g>
</g>
<g>
</g>
<g>
</g>
<g>
</g>
<g>
</g>
<g>
</g>
<g>
</g>
<g>
</g>
<g>
</g>
<g>
</g>
<g>
</g>
<g>
</g>
</svg>
