<svg id="_x33_0_Running_wheel" enable-background="new 0 0 64 64" height="512" viewBox="0 0 64 64" width="512" xmlns="http://www.w3.org/2000/svg"><path d="m28.413 29.931c-1.365 1.364-1.206 3.744.354 5.304.848.848 1.938 1.281 2.976 1.281.871 0 1.705-.306 2.327-.928h.001c1.364-1.365 1.205-3.744-.354-5.304-1.562-1.56-3.94-1.719-5.304-.353zm4.242 4.243c-.576.573-1.709.413-2.475-.354-.767-.767-.928-1.9-.354-2.476.234-.232.558-.344.912-.344.521 0 1.107.242 1.563.698.767.767.929 1.901.354 2.476z"/><path d="m35.13 29.87c.256 0 .512-.098.707-.293.391-.391.391-1.024 0-1.414-.195-.195-.451-.293-.707-.293s-.512.098-.707.293c-.391.391-.391 1.024 0 1.414.195.195.451.293.707.293z"/><path d="m37.251 33.406c.256 0 .512-.098.707-.293.391-.391.391-1.024 0-1.414-.195-.195-.451-.293-.707-.293s-.512.098-.707.293c-.391.391-.391 1.024 0 1.414.195.195.451.293.707.293z"/><path d="m31.594 25.749c-.256 0-.512.098-.707.293-.391.391-.391 1.024 0 1.414.195.195.451.293.707.293s.512-.098.707-.293c.391-.391.391-1.024 0-1.414-.195-.196-.451-.293-.707-.293z"/><path d="m59.171 23.213 4.243-4.242-18.385-18.385-4.242 4.243 3.535 3.535-7.071 7.071-4.95-4.95-4.243 4.243 2.828 2.828-13.76 13.76.707 9.193-3.195 3.195 2.121 2.121-15.466 15.468 1.414 1.414 15.467-15.467 2.121 2.122 3.195-3.195 9.193.707 13.76-13.76 2.829 2.829 4.243-4.243-4.95-4.95 7.071-7.071zm-14.142-19.799 15.557 15.557-1.415 1.414-15.556-15.556zm-3.535 16.263 7.071-7.071 2.829 2.829-7.071 7.071zm4.242-9.899 1.415 1.415-7.071 7.071-1.414-1.414zm-25.901 30.667-.472-6.128 10.319 10.319-6.128-.471zm.461 6.088-2.829-2.829 1.399-1.399 2.828 2.829zm11.624-1.724.381-.382-12.727-12.728-.382.382v-.001l13.11-13.11 12.728 12.728zm17.352-11.696-18.385-18.385 1.415-1.415 18.385 18.385zm-2.121-7.779-1.414-1.414 7.071-7.071 1.415 1.415z"/></svg>