<svg xmlns="http://www.w3.org/2000/svg" width="441.09" height="512" viewBox="0 0 441.09 512">
  <g id="manager_1_" data-name="manager (1)" transform="translate(-0.5 0)">
    <path id="Path_2" data-name="Path 2" d="M271.051,180a10,10,0,1,0-10-10A10,10,0,0,0,271.051,180Zm0,0" fill="#fff"/>
    <path id="Path_3" data-name="Path 3" d="M171.051,180a10,10,0,1,0-10-10A10,10,0,0,0,171.051,180Zm0,0" fill="#fff"/>
    <path id="Path_4" data-name="Path 4" d="M194.316,248.734a62.9,62.9,0,0,0,52.949.242A10,10,0,1,0,238.91,230.8a42.9,42.9,0,0,1-36.066-.16,10,10,0,1,0-8.527,18.09Zm0,0" fill="#fff"/>
    <path id="Path_5" data-name="Path 5" d="M441.59,405.77c0-54.988-62.625-98.113-116.3-100.156L297.9,281.008A130.458,130.458,0,0,0,351.5,176V110C351.5,49.348,302,0,241.148,0h-40A109.642,109.642,0,0,0,91.5,110v66a130.687,130.687,0,0,0,52.9,104.82L116.8,305.613C63.242,307.653.5,350.668.5,405.77V502a10,10,0,0,0,10,10H431.59a10,10,0,0,0,10-10ZM198.895,446h44.246l10.484,46h-65.52ZM244,426H198.262l-7.672-23.9,30.461-15.23,31.113,15.563Zm-22.953-69.18-34.75-55.59a129.959,129.959,0,0,0,69.445.082Zm14.313,14.844,48.012-76.824,25.895,23.266-32.949,74.043ZM201.149,20h40c49.82,0,90.352,40.371,90.352,90v8.266L312.723,91.227a10,10,0,0,0-15.363-1.289C277.032,110.727,253.5,120,221.051,120s-55.98-9.273-76.324-30.063a10,10,0,0,0-15.406,1.355L111.5,117.407V110c0-49.629,40.215-90,89.648-90ZM111.5,176V152.887l27.773-40.7C161.524,131.114,187.817,140,221.051,140c33.27,0,59.582-8.906,81.836-27.871l28.613,41.2V176c0,59.887-48.949,110-110.352,110-61.2,0-109.648-49.957-109.648-110Zm47.219,118.844,48.02,76.82-40.965,20.484-32.949-74.043ZM20.5,405.771c0-41.2,50.078-76.766,93.84-80l37.414,84.066a10,10,0,0,0,13.609,4.879l7.125-3.566,8.113,25.266L167.563,492H20.5ZM421.59,492H274.137L261.5,436.568l8.7-25.117,6.523,3.266a10,10,0,0,0,13.609-4.879l37.414-84.066c43.762,3.238,93.84,38.8,93.84,80Zm0,0" fill="#fff"/>
    <path id="Path_6" data-name="Path 6" d="M351.051,446h-40a10,10,0,0,0,0,20h40a10,10,0,0,0,0-20Zm0,0" fill="#fff"/>
    <path id="Path_7" data-name="Path 7" d="M390.5,446a10,10,0,1,1-10,10A10,10,0,0,1,390.5,446Zm0,0" fill="#fff"/>
  </g>
</svg>
