<svg id="target_2_" data-name="target (2)" xmlns="http://www.w3.org/2000/svg" width="480" height="480" viewBox="0 0 480 480">
  <path id="Path_8" data-name="Path 8" d="M248,56.207V32a8,8,0,0,0-16,0V56.207A182.243,182.243,0,0,0,60.2,232H32a8,8,0,0,0,0,16H60.2A182.242,182.242,0,0,0,232,423.793V448a8,8,0,0,0,16,0V423.793A182.243,182.243,0,0,0,419.8,248H448a8,8,0,0,0,0-16H419.8A182.242,182.242,0,0,0,248,56.207ZM272,192a8,8,0,0,0-8,8V360H248V264H232v96H216V200a8,8,0,0,0-16,0v48H184V186.617C196.3,171.465,228.281,168,240,168s43.664,3.406,56,18.617V248H280V200A8,8,0,0,0,272,192Zm-32-40a24,24,0,1,1,24-24A24,24,0,0,1,240,152Zm8,255.586V384a8,8,0,0,0-16,0v23.586A166,166,0,0,1,76.391,248H96a8,8,0,1,0,0-16H76.391A166,166,0,0,1,232,72.414V88.8a39.874,39.874,0,0,0-20.922,66.672c-15.2,3.457-32.574,10.336-41.734,24.078A8.055,8.055,0,0,0,168,184v72a8,8,0,0,0,8,8h24V368a8,8,0,0,0,8,8h64a8,8,0,0,0,8-8V264h24a8,8,0,0,0,8-8V184a8.061,8.061,0,0,0-1.344-4.441c-9.16-13.742-26.512-20.621-41.734-24.078A39.873,39.873,0,0,0,248,88.8V72.414A166,166,0,0,1,403.609,232H384a8,8,0,0,0,0,16h19.609A166,166,0,0,1,248,407.586Zm0,0" fill="#fff"/>
  <path id="Path_9" data-name="Path 9" d="M240,0C107.453,0,0,107.453,0,240S107.453,480,240,480,480,372.547,480,240C479.852,107.516,372.484.148,240,0Zm0,464C116.289,464,16,363.711,16,240S116.289,16,240,16,464,116.289,464,240C463.863,363.656,363.656,463.863,240,464Zm0,0" fill="#fff"/>
  <path id="Path_10" data-name="Path 10" d="M450.344,18.344l16-16L477.656,13.66l-16,16Zm0,0" fill="#fff"/>
  <path id="Path_11" data-name="Path 11" d="M418.344,50.34l16-16,11.316,11.313-16,16Zm0,0" fill="#fff"/>
  <path id="Path_12" data-name="Path 12" d="M34.344,434.344l16-16L61.656,429.66l-16,16Zm0,0" fill="#fff"/>
  <path id="Path_13" data-name="Path 13" d="M2.344,466.34l16-16,11.316,11.313-16,16Zm0,0" fill="#fff"/>
  <path id="Path_14" data-name="Path 14" d="M450.344,461.656l11.313-11.312,16,16L466.34,477.656Zm0,0" fill="#fff"/>
  <path id="Path_15" data-name="Path 15" d="M418.344,429.656l11.313-11.312,16,16L434.34,445.656Zm0,0" fill="#fff"/>
  <path id="Path_16" data-name="Path 16" d="M34.344,45.656,45.656,34.344l16,16L50.34,61.656Zm0,0" fill="#fff"/>
  <path id="Path_17" data-name="Path 17" d="M2.344,13.656,13.656,2.344l16,16L18.34,29.656Zm0,0" fill="#fff"/>
</svg>
