<svg xmlns="http://www.w3.org/2000/svg" width="369.109" height="511.998" viewBox="0 0 369.109 511.998">
  <g id="woman" transform="translate(-71.445 -0.001)">
    <g id="Group_1" data-name="Group 1">
      <path id="Path_1" data-name="Path 1" d="M418.186,366.807c-6.749-33.8-38.461-39.559-38.561-39.605h0c-.341-.1,2.909.715-77.341-19.177V305.3h59.075a22.108,22.108,0,0,0,22.083-22.083V170.554a27.6,27.6,0,0,0,0-12.742V116.693a7.5,7.5,0,0,0-15,0V138.22a38.946,38.946,0,0,0-13.357-4.9A19.564,19.564,0,0,0,338.6,118.244c-8.582-1.128-15.086-6.131-19.331-14.869a12.858,12.858,0,0,0-21.923-2.005c-12.894,17.548-48.739,56.907-110.636,56.9-4.709,0-7.9-.223-9.014-.273A19.838,19.838,0,0,0,156.7,177.8v17.235a101.745,101.745,0,0,0,31.352,73.269,100.454,100.454,0,0,0,21.67,15.763V290.3H150.92a7.09,7.09,0,0,1-7.082-7.081V114.672C143.838,60.029,188.391,15,242.209,15l.521,0c19.282.1,41.545,5.58,56.716,13.949,9.615,5.307,15.554,1.089,25.049,1.089,23.175,0,41.747,23.83,43.973,45.263.014.314.047,1.571.051,6.387.005,7.241,8.183,7.8,7.507,7.5a7.5,7.5,0,0,0,7.495-7.507c0-1.332.01-6.555-.115-7.767-3.016-29.837-28.467-58.873-58.91-58.873-11.89,0-13.743,3.014-17.8.778C289.491,6.328,264.415.119,242.811,0,180.539-.4,128.835,51.477,128.835,114.671v168.55A22.108,22.108,0,0,0,150.919,305.3h58.806v2.723L132.687,327.12c-.1.025-.2.054-.3.083l-5.628,1.66c-.169.05-.335.105-.5.166-10.044,3.748-27.613,13.639-32.434,37.782C70.992,481.493,71.953,476.6,71.9,476.989,69.148,496.44,78.885,512,102.308,512h81.115a7.5,7.5,0,0,0,0-15H155.2v-70.75a7.5,7.5,0,1,0-15,0V497H102.308c-9.964,0-15.75-3.208-15.846-13.675-.042-5.106-.243-.129,22.073-113.578,3.359-16.823,15.575-23.85,22.732-26.571l5.2-1.534,44.24-10.965c49.213,57.976,46.3,54.9,49.143,57.678,16.426,16.023,39.864,14.892,55.29-3.224l46.325-54.413,44.071,10.923c1.275.586,23.213,4.445,27.936,28.1C425.6,482.208,425.59,478.192,425.548,483.316,425.472,493.568,419.926,497,409.7,497H372.085V426.247a7.5,7.5,0,0,0-15,0V497H218.428a7.5,7.5,0,0,0,0,15H409.7c18.532,0,30.677-10.2,30.848-28.563C440.614,474.859,440.1,478.957,418.186,366.807ZM355.574,148.8c6.264,1.863,11.1,5.991,12.867,11.089v8.594c-1.772,5.1-6.6,9.227-12.867,11.089Zm0,47.546v-1.385a38.861,38.861,0,0,0,12.867-4.811v93.074a7.088,7.088,0,0,1-7.081,7.08H302.284v-5.8A99.3,99.3,0,0,0,355.574,196.343Zm-157.16,61.109a86.677,86.677,0,0,1-26.707-62.417c.446-16.332-1.081-18.311,1.525-20.765a4.733,4.733,0,0,1,3.561-1.295c53.784,3.238,100.044-20.406,130.586-59.994,8.235,14.46,20.312,18.962,29.266,20.139a4.509,4.509,0,0,1,3.927,4.445v58.779C340.572,270.98,251.22,307.851,198.414,257.452Zm75.3,117.95c-10.451,12.277-25.081,12.244-35.507-.062l-15.651-18.473H289.5Zm28.554-33.538H209.85l-12.891-15.216,22.074-5.472a7.583,7.583,0,0,0,5.7-7.355V290.615a99.355,99.355,0,0,0,62.552.214c.141,23.975-.322,23.426.418,25.541a7.5,7.5,0,0,0,5.277,4.8l22.219,5.507Z" fill="#fff"/>
    </g>
  </g>
</svg>
