<?xml version="1.0" encoding="utf-8"?>
<!-- Generator: Adobe Illustrator 23.0.1, SVG Export Plug-In . SVG Version: 6.00 Build 0)  -->
<svg version="1.1" id="Capa_1" xmlns="http://www.w3.org/2000/svg" xmlns:xlink="http://www.w3.org/1999/xlink" x="0px" y="0px"
	 viewBox="0 0 512 512" style="enable-background:new 0 0 512 512;" xml:space="preserve">
<style type="text/css">
	.st0{fill:#FFB703;}
</style>
<g>
	<path class="st0" d="M256,112.2c-13,0-23.5,10.6-23.5,23.5s10.6,23.5,23.5,23.5c13,0,23.5-10.6,23.5-23.5S269,112.2,256,112.2z
		 M256,144.3c-4.7,0-8.5-3.8-8.5-8.5c0-4.7,3.8-8.5,8.5-8.5c4.7,0,8.5,3.8,8.5,8.5C264.5,140.5,260.7,144.3,256,144.3z"/>
	<path class="st0" d="M256,352.7c-13,0-23.5,10.6-23.5,23.5s10.6,23.5,23.5,23.5c13,0,23.5-10.6,23.5-23.5S269,352.7,256,352.7z
		 M256,384.8c-4.7,0-8.5-3.8-8.5-8.5c0-4.7,3.8-8.5,8.5-8.5c4.7,0,8.5,3.8,8.5,8.5C264.5,380.9,260.7,384.8,256,384.8z"/>
	<path class="st0" d="M466.2,263.5c3.1,9.3,11.9,16,22.3,16c13,0,23.5-10.6,23.5-23.5s-10.6-23.5-23.5-23.5
		c-10.4,0-19.2,6.7-22.3,16h-34.5c-0.3-6.5-0.9-13-1.9-19.4l16.4-3.3c4.1-0.8,6.7-4.8,5.9-8.8s-4.8-6.7-8.8-5.9l-16.4,3.3
		c-1.5-6.3-3.4-12.6-5.7-18.7l31.9-13.2c2.4,2.7,5.3,4.9,8.7,6.3c2.9,1.2,6,1.8,9,1.8s6.1-0.6,9-1.8c5.8-2.4,10.3-6.9,12.7-12.7
		c2.4-5.8,2.4-12.2,0-18c-2.4-5.8-6.9-10.3-12.7-12.7c-5.8-2.4-12.2-2.4-18,0c-5.8,2.4-10.3,6.9-12.7,12.7c-1.4,3.4-2,7-1.7,10.6
		l-31.9,13.2c-2.7-5.9-5.8-11.6-9.2-17.2l13.9-9.3c3.4-2.3,4.4-7,2.1-10.4s-7-4.4-10.4-2.1l-13.9,9.3c-3.8-5.2-8-10.3-12.4-15.1
		l24.4-24.4c3.2,1.6,6.8,2.5,10.5,2.5c6.3,0,12.2-2.4,16.6-6.9c4.4-4.4,6.9-10.4,6.9-16.6S441.5,79.4,437,75
		c-4.4-4.4-10.4-6.9-16.6-6.9c-6.3,0-12.2,2.4-16.6,6.9c-7.3,7.3-8.8,18.3-4.4,27.1l-24.4,24.4c-4.8-4.4-9.8-8.5-15.1-12.4l9.3-13.9
		c2.3-3.4,1.4-8.1-2.1-10.4s-8.1-1.4-10.4,2.1c0,0-13.2,19.7-13.4,19.9c-2.3,3.4-1.4,8.1,2.1,10.4c44.8,30,71.5,80,71.5,133.8
		c0,88.7-72.2,160.8-160.8,160.8S95.2,344.7,95.2,256S167.3,95.2,256,95.2c21.3,0,42,4.1,61.6,12.2c3.8,1.6,8.2-0.2,9.8-4h0l16-38.6
		c0.5,0,1.1,0.1,1.6,0.1c9.2,0,18-5.5,21.8-14.5c5-12-0.7-25.8-12.7-30.7c-5.8-2.4-12.2-2.4-18,0c-5.8,2.4-10.3,6.9-12.7,12.7
		s-2.4,12.2,0,18c1.4,3.4,3.6,6.4,6.3,8.7l-13.2,31.8c-6.1-2.2-12.4-4.1-18.7-5.7l3.3-16.4c0.8-4.1-1.8-8-5.9-8.8
		c-4.1-0.8-8,1.8-8.8,5.9l-3.3,16.4c-6.4-1-12.9-1.6-19.4-1.9V45.8c9.3-3.1,16-11.9,16-22.3C279.5,10.6,269,0,256,0
		s-23.5,10.6-23.5,23.5c0,10.4,6.7,19.2,16,22.3v34.5c-6.6,0.3-13.1,0.9-19.4,1.9l-3.3-16.4c-0.8-4.1-4.8-6.7-8.8-5.9
		c-4.1,0.8-6.7,4.8-5.9,8.8l3.3,16.4c-6.4,1.6-12.6,3.4-18.7,5.7L182.5,59c2.7-2.4,4.9-5.3,6.3-8.7c2.4-5.8,2.4-12.2,0-18
		c-2.4-5.8-6.9-10.3-12.7-12.7c-5.8-2.4-12.2-2.4-18,0c-12,5-17.7,18.8-12.7,30.7c3.8,9.1,12.5,14.5,21.8,14.5c0.5,0,1,0,1.6-0.1
		l13.2,31.9c-5.9,2.8-11.7,5.8-17.2,9.2l-9.3-13.9c-2.3-3.4-7-4.4-10.4-2.1c-3.4,2.3-4.4,7-2.1,10.4l9.3,14
		c-5.2,3.9-10.3,8-15.1,12.4l-24.5-24.5c4.4-8.8,2.9-19.8-4.4-27.1c-4.4-4.4-10.4-6.9-16.6-6.9S79.4,70.5,75,75s-6.9,10.4-6.9,16.6
		s2.4,12.2,6.9,16.6c4.4,4.4,10.4,6.9,16.6,6.9c3.7,0,7.3-0.9,10.5-2.5l24.4,24.4c-4.4,4.8-8.5,9.8-12.4,15.1l-14-9.3
		c-3.4-2.3-8.1-1.4-10.4,2.1s-1.4,8.1,2.1,10.4l13.9,9.3c-3.4,5.5-6.5,11.3-9.2,17.2l-31.9-13.2c0.2-3.6-0.3-7.2-1.7-10.6
		c-2.4-5.8-6.9-10.3-12.7-12.7c-5.8-2.4-12.2-2.4-18,0c-5.8,2.4-10.3,6.9-12.7,12.7s-2.4,12.2,0,18c2.4,5.8,6.9,10.3,12.7,12.7
		c2.9,1.2,6,1.8,9,1.8s6.1-0.6,9-1.8c3.4-1.4,6.4-3.6,8.7-6.3l31.9,13.2c-2.2,6.1-4.1,12.3-5.7,18.7l-16.4-3.3
		c-4.1-0.8-8,1.8-8.8,5.9s1.8,8,5.9,8.8l16.4,3.3c-1,6.4-1.6,12.8-1.9,19.4H45.8c-3.1-9.3-11.9-16-22.3-16C10.6,232.5,0,243,0,256
		s10.6,23.5,23.5,23.5c10.4,0,19.2-6.7,22.3-16h34.5c0.3,6.6,0.9,13.1,1.9,19.4l-16.4,3.3c-4.1,0.8-6.7,4.8-5.9,8.8
		c0.7,3.6,3.8,6,7.3,6c0.5,0,1,0,1.5-0.1l16.4-3.3c1.6,6.4,3.4,12.6,5.7,18.7L59,329.5c-2.4-2.7-5.3-4.9-8.7-6.3
		c-5.8-2.4-12.2-2.4-18,0s-10.3,6.9-12.7,12.7c-2.4,5.8-2.4,12.2,0,18c2.4,5.8,6.9,10.3,12.7,12.7c2.9,1.2,6,1.8,9,1.8
		c3,0,6.1-0.6,9-1.8c5.8-2.4,10.3-6.9,12.7-12.7c1.4-3.4,2-7,1.7-10.6l31.9-13.2c2.8,5.9,5.8,11.7,9.2,17.2l-13.9,9.3
		c-3.4,2.3-4.4,7-2.1,10.4c1.4,2.2,3.8,3.3,6.2,3.3c1.4,0,2.9-0.4,4.2-1.3l14-9.3c3.9,5.2,8,10.3,12.4,15.1l-24.4,24.4
		c-3.2-1.6-6.8-2.5-10.5-2.5c-6.3,0-12.2,2.4-16.6,6.9c-4.4,4.4-6.9,10.4-6.9,16.6s2.4,12.2,6.9,16.6c4.4,4.4,10.4,6.9,16.6,6.9
		c6.3,0,12.2-2.4,16.6-6.9c7.3-7.3,8.8-18.3,4.4-27.1l24.5-24.5c4.8,4.4,9.8,8.5,15.1,12.4l-9.3,14c-2.3,3.4-1.4,8.1,2.1,10.4
		c1.3,0.9,2.7,1.3,4.2,1.3c2.4,0,4.8-1.2,6.2-3.3l9.3-13.9c5.5,3.4,11.3,6.5,17.2,9.2l-13.2,31.9c-9.8-0.7-19.4,4.9-23.3,14.5
		c-5,12,0.7,25.8,12.7,30.7c2.9,1.2,6,1.8,9,1.8c3.1,0,6.1-0.6,9-1.8c5.8-2.4,10.3-6.9,12.7-12.7s2.4-12.2,0-18
		c-1.4-3.4-3.6-6.4-6.3-8.7l13.2-31.9c6.1,2.2,12.3,4.1,18.7,5.7l-3.3,16.4c-0.8,4.1,1.8,8,5.9,8.8c0.5,0.1,1,0.1,1.5,0.1
		c3.5,0,6.6-2.5,7.3-6l3.3-16.4c6.4,1,12.8,1.6,19.4,1.9v34.5c-9.3,3.1-16,11.9-16,22.3c0,13,10.6,23.5,23.5,23.5
		s23.5-10.6,23.5-23.5c0-10.4-6.7-19.2-16-22.3v-34.5c6.6-0.3,13.1-0.9,19.4-1.9l3.3,16.4c0.7,3.6,3.8,6,7.3,6c0.5,0,1,0,1.5-0.1
		c4.1-0.8,6.7-4.8,5.9-8.8l-3.3-16.4c6.4-1.6,12.6-3.4,18.7-5.7l13.2,31.9c-2.7,2.4-4.9,5.3-6.3,8.7c-2.4,5.8-2.4,12.2,0,18
		c2.4,5.8,6.9,10.3,12.7,12.7c2.9,1.2,6,1.8,9,1.8s6.1-0.6,9-1.8c12-5,17.7-18.8,12.7-30.7c-4-9.6-13.5-15.1-23.3-14.5l-13.2-31.9
		c5.9-2.8,11.7-5.8,17.2-9.2l9.3,13.9c1.4,2.2,3.8,3.3,6.2,3.3c1.4,0,2.9-0.4,4.2-1.3c3.4-2.3,4.4-7,2.1-10.4l-9.3-14
		c5.2-3.9,10.3-8,15.1-12.4l24.5,24.5c-4.4,8.8-2.9,19.8,4.4,27.1c4.4,4.4,10.4,6.9,16.6,6.9s12.2-2.4,16.6-6.9s6.9-10.4,6.9-16.6
		s-2.4-12.2-6.9-16.6c-4.4-4.4-10.4-6.9-16.6-6.9c-3.7,0-7.3,0.9-10.5,2.5l-24.4-24.4c4.4-4.8,8.5-9.8,12.4-15.1l14,9.3
		c1.3,0.9,2.7,1.3,4.2,1.3c2.4,0,4.8-1.2,6.2-3.3c2.3-3.4,1.4-8.1-2.1-10.4l-13.9-9.3c3.4-5.5,6.5-11.3,9.2-17.2l31.9,13.2
		c-0.2,3.6,0.3,7.2,1.7,10.6c2.4,5.8,6.9,10.3,12.7,12.7c2.9,1.2,6,1.8,9,1.8c3.1,0,6.1-0.6,9-1.8c5.8-2.4,10.3-6.9,12.7-12.7
		s2.4-12.2,0-18c-2.4-5.8-6.9-10.3-12.7-12.7c-5.8-2.4-12.2-2.4-18,0c-3.4,1.4-6.4,3.6-8.7,6.3l-31.9-13.2
		c2.2-6.1,4.1-12.3,5.7-18.7l16.4,3.3c0.5,0.1,1,0.1,1.5,0.1c3.5,0,6.6-2.5,7.3-6c0.8-4.1-1.8-8-5.9-8.8l-16.4-3.3
		c1-6.4,1.6-12.8,1.9-19.4L466.2,263.5z M462.9,163.8c0.9-2.1,2.5-3.7,4.6-4.6c1.1-0.4,2.2-0.7,3.3-0.7s2.2,0.2,3.3,0.7
		c2.1,0.9,3.7,2.5,4.6,4.6c0.9,2.1,0.9,4.4,0,6.5c-0.9,2.1-2.5,3.7-4.6,4.6c-2.1,0.9-4.4,0.9-6.5,0c-2.1-0.9-3.7-2.5-4.6-4.6
		C462,168.2,462,165.9,462.9,163.8z M159.2,44.5c-1.8-4.3,0.3-9.3,4.6-11.1c1.1-0.4,2.2-0.7,3.3-0.7s2.2,0.2,3.3,0.7
		c2.1,0.9,3.7,2.5,4.6,4.6c0.9,2.1,0.9,4.4,0,6.5c-0.9,2.1-2.5,3.7-4.6,4.6h0c0,0,0,0,0,0C166,50.9,161,48.8,159.2,44.5z M337.1,38
		c0.9-2.1,2.5-3.7,4.6-4.6c1.1-0.4,2.2-0.7,3.3-0.7s2.2,0.2,3.3,0.7c4.3,1.8,6.4,6.8,4.6,11.1s-6.8,6.4-11.1,4.6c0,0,0,0,0,0
		c0,0,0,0,0,0c-2.1-0.9-3.7-2.5-4.6-4.6C336.2,42.4,336.2,40.1,337.1,38L337.1,38z M256,15c4.7,0,8.5,3.8,8.5,8.5s-3.8,8.5-8.5,8.5
		s-8.5-3.8-8.5-8.5S251.3,15,256,15z M44.5,174.9c-2.1,0.9-4.4,0.9-6.5,0c-2.1-0.9-3.7-2.5-4.6-4.6c-0.9-2.1-0.9-4.4,0-6.5
		c0.9-2.1,2.5-3.7,4.6-4.6c1.1-0.4,2.2-0.7,3.3-0.7c1.1,0,2.2,0.2,3.3,0.7c2.1,0.9,3.7,2.5,4.6,4.6c0.9,2.1,0.9,4.4,0,6.5
		C48.2,172.4,46.6,174,44.5,174.9z M49.1,348.2c-0.9,2.1-2.5,3.7-4.6,4.6c-2.1,0.9-4.4,0.9-6.5,0c-2.1-0.9-3.7-2.5-4.6-4.6
		c-0.9-2.1-0.9-4.4,0-6.5c0.9-2.1,2.5-3.7,4.6-4.6c1.1-0.4,2.2-0.7,3.3-0.7s2.2,0.2,3.3,0.7c2.1,0.9,3.7,2.5,4.6,4.6
		C50,343.8,50,346.1,49.1,348.2z M85.6,97.7c-1.6-1.6-2.5-3.8-2.5-6s0.9-4.4,2.5-6c1.6-1.6,3.8-2.5,6-2.5s4.4,0.9,6,2.5
		c3.3,3.3,3.3,8.7,0,12.1c-1.6,1.6-3.8,2.5-6,2.5C89.3,100.2,87.2,99.3,85.6,97.7z M23.5,264.5c-4.7,0-8.5-3.8-8.5-8.5
		s3.8-8.5,8.5-8.5s8.5,3.8,8.5,8.5C32.1,260.7,28.2,264.5,23.5,264.5z M97.7,426.4c-1.6,1.6-3.8,2.5-6,2.5s-4.4-0.9-6-2.5
		s-2.5-3.8-2.5-6s0.9-4.4,2.5-6s3.8-2.5,6-2.5s4.4,0.9,6,2.5C101,417.7,101,423.1,97.7,426.4L97.7,426.4z M174.9,474
		c-0.9,2.1-2.5,3.7-4.6,4.6c-2.1,0.9-4.4,0.9-6.5,0c-4.3-1.8-6.4-6.8-4.6-11.1c1.8-4.3,6.8-6.4,11.1-4.6c0,0,0,0,0,0s0,0,0,0
		c2.1,0.9,3.7,2.5,4.6,4.6C175.8,469.6,175.8,471.9,174.9,474L174.9,474z M352.8,467.5c1.8,4.3-0.3,9.3-4.6,11.1
		c-2.1,0.9-4.4,0.9-6.5,0c-2.1-0.9-3.7-2.5-4.6-4.6c-0.9-2.1-0.9-4.4,0-6.5c0.9-2.1,2.5-3.7,4.6-4.6h0c0,0,0,0,0,0
		c1.1-0.4,2.2-0.6,3.3-0.6C348.3,462.2,351.5,464.2,352.8,467.5z M256,497c-4.7,0-8.5-3.8-8.5-8.5s3.8-8.5,8.5-8.5
		c4.7,0,8.5,3.8,8.5,8.5S260.7,497,256,497z M467.5,337.1c2.1-0.9,4.4-0.9,6.5,0c2.1,0.9,3.7,2.5,4.6,4.6c0.9,2.1,0.9,4.4,0,6.5
		c-0.9,2.1-2.5,3.7-4.6,4.6c-2.1,0.9-4.4,0.9-6.5,0c-2.1-0.9-3.7-2.5-4.6-4.6c-0.9-2.1-0.9-4.4,0-6.5
		C463.8,339.6,465.4,338,467.5,337.1z M488.5,247.5c4.7,0,8.5,3.8,8.5,8.5s-3.8,8.5-8.5,8.5s-8.5-3.8-8.5-8.5
		S483.8,247.5,488.5,247.5L488.5,247.5z M414.3,85.6c1.6-1.6,3.8-2.5,6-2.5s4.4,0.9,6,2.5s2.5,3.8,2.5,6s-0.9,4.4-2.5,6
		s-3.8,2.5-6,2.5s-4.4-0.9-6-2.5C411,94.3,411,88.9,414.3,85.6z M426.4,414.3c1.6,1.6,2.5,3.8,2.5,6s-0.9,4.4-2.5,6
		c-1.6,1.6-3.8,2.5-6,2.5s-4.4-0.9-6-2.5c-3.3-3.3-3.3-8.7,0-12.1c1.6-1.6,3.8-2.5,6-2.5C422.7,411.8,424.8,412.7,426.4,414.3
		L426.4,414.3z"/>
	<path class="st0" d="M399.8,256c0-13-10.6-23.5-23.5-23.5S352.7,243,352.7,256c0,13,10.6,23.5,23.5,23.5
		C389.2,279.5,399.8,269,399.8,256z M367.7,256c0-4.7,3.8-8.5,8.5-8.5c4.7,0,8.5,3.8,8.5,8.5c0,4.7-3.8,8.5-8.5,8.5
		C371.5,264.5,367.7,260.7,367.7,256z"/>
	<path class="st0" d="M112.2,256c0,13,10.6,23.5,23.5,23.5s23.5-10.6,23.5-23.5s-10.6-23.5-23.5-23.5
		C122.8,232.5,112.2,243,112.2,256z M144.3,256c0,4.7-3.8,8.5-8.5,8.5c-4.7,0-8.5-3.8-8.5-8.5s3.8-8.5,8.5-8.5
		C140.5,247.5,144.3,251.3,144.3,256z"/>
	<path class="st0" d="M154.3,154.3c-4.4,4.4-6.9,10.4-6.9,16.6s2.4,12.2,6.9,16.6c4.4,4.4,10.4,6.9,16.6,6.9s12.2-2.4,16.6-6.9
		s6.9-10.4,6.9-16.6s-2.4-12.2-6.9-16.6c-4.4-4.4-10.4-6.9-16.6-6.9S158.8,149.9,154.3,154.3z M179.5,171c0,2.3-0.9,4.4-2.5,6
		c-1.6,1.6-3.8,2.5-6,2.5s-4.4-0.9-6-2.5s-2.5-3.8-2.5-6s0.9-4.4,2.5-6s3.8-2.5,6-2.5s4.4,0.9,6,2.5S179.5,168.7,179.5,171
		L179.5,171z"/>
	<path class="st0" d="M341,364.6c6.3,0,12.2-2.4,16.6-6.9c4.4-4.4,6.9-10.4,6.9-16.6s-2.4-12.2-6.9-16.6c-4.4-4.4-10.4-6.9-16.6-6.9
		s-12.2,2.4-16.6,6.9s-6.9,10.4-6.9,16.6s2.4,12.2,6.9,16.6C328.8,362.1,334.7,364.6,341,364.6z M335,335c1.6-1.6,3.8-2.5,6-2.5
		s4.4,0.9,6,2.5c1.6,1.6,2.5,3.8,2.5,6s-0.9,4.4-2.5,6s-3.8,2.5-6,2.5s-4.4-0.9-6-2.5c-1.6-1.6-2.5-3.8-2.5-6S333.4,336.6,335,335
		L335,335z"/>
	<path class="st0" d="M347.1,177c-1.6,1.6-3.8,2.5-6,2.5s-4.4-0.9-6-2.5s-2.5-3.8-2.5-6s0.9-4.4,2.5-6c2.9-2.9,2.9-7.7,0-10.6
		s-7.7-2.9-10.6,0c-4.4,4.4-6.9,10.4-6.9,16.6s2.4,12.2,6.9,16.6c4.4,4.4,10.4,6.9,16.6,6.9s12.2-2.4,16.6-6.9
		c2.9-2.9,2.9-7.7,0-10.6C354.7,174.1,350,174.1,347.1,177L347.1,177z"/>
	<path class="st0" d="M171,364.6c6.3,0,12.2-2.4,16.6-6.9c2.9-2.9,2.9-7.7,0-10.6s-7.7-2.9-10.6,0c-1.6,1.6-3.8,2.5-6,2.5
		s-4.4-0.9-6-2.5c-1.6-1.6-2.5-3.8-2.5-6c0-2.3,0.9-4.4,2.5-6c2.9-2.9,2.9-7.7,0-10.6c-2.9-2.9-7.7-2.9-10.6,0
		c-4.4,4.4-6.9,10.4-6.9,16.6s2.4,12.2,6.9,16.6C158.8,362.1,164.7,364.6,171,364.6L171,364.6z"/>
	<path class="st0" d="M256,184.4c-13,0-23.5,10.6-23.5,23.5s10.6,23.5,23.5,23.5c13,0,23.5-10.6,23.5-23.5S269,184.4,256,184.4z
		 M256,216.4c-4.7,0-8.5-3.8-8.5-8.5c0-4.7,3.8-8.5,8.5-8.5c4.7,0,8.5,3.8,8.5,8.5C264.5,212.6,260.7,216.4,256,216.4z"/>
	<path class="st0" d="M256,280.6c-13,0-23.5,10.6-23.5,23.5s10.6,23.5,23.5,23.5c13,0,23.5-10.6,23.5-23.5S269,280.6,256,280.6z
		 M256,312.6c-4.7,0-8.5-3.8-8.5-8.5s3.8-8.5,8.5-8.5c4.7,0,8.5,3.8,8.5,8.5C264.5,308.8,260.7,312.6,256,312.6z"/>
	<path class="st0" d="M327.6,256c0-13-10.6-23.5-23.5-23.5S280.6,243,280.6,256c0,13,10.6,23.5,23.5,23.5S327.6,269,327.6,256z
		 M304.1,264.5c-4.7,0-8.5-3.8-8.5-8.5s3.8-8.5,8.5-8.5s8.5,3.8,8.5,8.5C312.6,260.7,308.8,264.5,304.1,264.5z"/>
	<path class="st0" d="M231.4,256c0-13-10.6-23.5-23.5-23.5S184.4,243,184.4,256c0,13,10.6,23.5,23.5,23.5S231.4,269,231.4,256z
		 M207.9,264.5c-4.7,0-8.5-3.8-8.5-8.5s3.8-8.5,8.5-8.5s8.5,3.8,8.5,8.5C216.4,260.7,212.6,264.5,207.9,264.5z"/>
	<path class="st0" d="M207.9,215.4L207.9,215.4c4.2,0,7.5-3.4,7.5-7.5s-3.4-7.5-7.5-7.5s-7.5,3.4-7.5,7.5S203.8,215.4,207.9,215.4
		L207.9,215.4z"/>
	<path class="st0" d="M208,311.6c4.1,0,7.5-3.4,7.5-7.5s-3.4-7.5-7.5-7.5s-7.5,3.4-7.5,7.5S203.8,311.6,208,311.6L208,311.6z"/>
	<path class="st0" d="M296.5,207.9c0,4.1,3.4,7.5,7.5,7.5h0.1c4.1,0,7.5-3.4,7.5-7.5s-3.4-7.5-7.5-7.5S296.5,203.8,296.5,207.9
		L296.5,207.9z"/>
	<path class="st0" d="M210,152.4c1,0,1.9-0.2,2.9-0.6l0.1,0c3.8-1.6,5.6-6,4-9.8s-6-5.6-9.8-4c-3.8,1.6-5.6,6-4.1,9.8
		C204.3,150.7,207,152.4,210,152.4z"/>
	<path class="st0" d="M364.2,203.1c-3.8,1.6-5.6,6-4,9.8c1.2,2.9,4,4.6,6.9,4.6c1,0,1.9-0.2,2.9-0.6l0.1,0c3.8-1.6,5.6-6,4-9.8
		C372.5,203.3,368,201.5,364.2,203.1L364.2,203.1z"/>
	<path class="st0" d="M144.9,309.5c1,0,1.9-0.2,2.9-0.6l0.1,0c3.8-1.6,5.6-6,4-9.8s-6-5.6-9.8-4c-3.8,1.6-5.6,6-4.1,9.8
		C139.2,307.8,142,309.5,144.9,309.5L144.9,309.5z"/>
	<path class="st0" d="M299.1,360.2c-3.8,1.6-5.6,6-4.1,9.8c1.2,2.9,4,4.6,6.9,4.6c1,0,1.9-0.2,2.9-0.6l0.1,0c3.8-1.6,5.6-6,4-9.8
		C307.4,360.4,303,358.6,299.1,360.2L299.1,360.2z"/>
	<path class="st0" d="M304,296.6c-4.1,0-7.5,3.4-7.5,7.5s3.4,7.5,7.5,7.5h0.1c4.1,0,7.5-3.4,7.5-7.5S308.2,296.6,304,296.6
		L304,296.6z"/>
	<path class="st0" d="M138,207.1c-1.6,3.8,0.2,8.2,4,9.8c0.9,0.4,1.9,0.6,2.9,0.6c2.9,0,5.7-1.7,6.9-4.6l0-0.1
		c1.6-3.8-0.2-8.2-4.1-9.8C144,201.5,139.6,203.3,138,207.1L138,207.1z"/>
	<path class="st0" d="M304.9,138c-3.8-1.6-8.2,0.3-9.8,4.1c-1.6,3.8,0.3,8.2,4.1,9.8c0.9,0.4,1.9,0.6,2.8,0.6c3,0,5.8-1.8,6.9-4.7
		l0-0.1C310.6,143.9,308.7,139.5,304.9,138L304.9,138z"/>
	<path class="st0" d="M207.1,374.1c0.9,0.4,1.9,0.6,2.9,0.6c2.9,0,5.7-1.7,6.9-4.6l0-0.1c1.6-3.8-0.2-8.2-4.1-9.8
		c-3.8-1.6-8.2,0.3-9.8,4.1C201.5,368.1,203.3,372.5,207.1,374.1L207.1,374.1z"/>
	<path class="st0" d="M374,304.9L374,304.9c1.6-3.9-0.2-8.3-4-9.8c-3.8-1.6-8.2,0.3-9.8,4.1c-1.6,3.8,0.2,8.2,4,9.8
		c0.9,0.4,1.9,0.6,2.9,0.6C370.1,309.6,372.8,307.8,374,304.9L374,304.9z"/>
</g>
</svg>
