<?xml version="1.0" encoding="utf-8"?>
<!-- Generator: Adobe Illustrator 23.0.1, SVG Export Plug-In . SVG Version: 6.00 Build 0)  -->
<svg version="1.1" id="Layer_1" xmlns="http://www.w3.org/2000/svg" xmlns:xlink="http://www.w3.org/1999/xlink" x="0px" y="0px"
	 viewBox="0 0 512 512" style="enable-background:new 0 0 512 512;" xml:space="preserve">
<style type="text/css">
	.st0{fill:#69288C;}
	.st1{fill:#8D34C6;}
	.st2{fill:#060606;}
</style>
<g>
	<g>
		<g>
			<path class="st0" d="M488.6,216.3c-6.6,0-19.4,10.5-25.3,25.5h-13.1c-3-41.8-19.3-80-44.7-110.3l24.9-24.8
				c14.8,6.4,31.3,4.8,35.9,0.2c6.2-6.2-1.9-24.3-18-40.4s-34.3-24.2-40.5-18c-4.7,4.7-6.3,21.1,0.2,35.9l-24.7,24.6
				c-30-25.9-68-42.7-109.7-46.5V49.1c15-5.9,25.5-18.6,25.5-25.2c0-8.8-18.5-15.9-41.4-15.9c-22.9,0-41.4,7.1-41.4,15.9
				c0,6.6,10.5,19.4,25.5,25.2v13.1c-41.9,3-80.1,19.3-110.5,44.6l-24.9-24.8c6.4-14.7,4.8-31.2,0.2-35.9c-6.2-6.2-24.3,1.9-40.5,18
				s-24.3,34.2-18,40.4c4.7,4.7,21.2,6.3,35.9-0.2l24.7,24.6c-25.9,29.9-42.8,67.8-46.6,109.5H48.7C42.8,223.5,30,213,23.4,213
				c-8.8,0-15.9,18.5-15.9,41.3c0,22.8,7.1,41.3,15.9,41.3c6.6,0,19.4-10.5,25.3-25.5h13.1c3,41.8,19.3,80,44.7,110.3l-24.9,24.8
				c-14.8-6.4-31.3-4.8-35.9-0.2c-6.2,6.2,1.9,24.3,18,40.4s34.3,24.2,40.5,18c4.7-4.7,6.3-21.1-0.2-35.9l24.7-24.6
				c30,25.9,68,42.7,109.7,46.5v13.4c-15,5.9-25.5,18.6-25.5,25.2c0,8.8,18.5,15.9,41.4,15.9s41.4-7.1,41.4-15.9
				c0-6.6-10.5-19.4-25.5-25.2v-13.1c41.9-3,80.1-19.3,110.5-44.6l24.9,24.8c-6.4,14.7-4.8,31.2-0.2,35.9c6.2,6.2,24.3-1.9,40.5-18
				s24.3-34.2,18-40.4c-4.7-4.7-21.2-6.3-35.9,0.2L403.4,383c25.9-29.9,42.8-67.8,46.6-109.5h13.4c5.9,15,18.7,25.5,25.3,25.5
				c8.8,0,15.9-18.5,15.9-41.3S497.4,216.3,488.6,216.3L488.6,216.3z"/>
			<ellipse class="st0" cx="179.6" cy="180.5" rx="43.6" ry="43.5"/>
			<path class="st1" d="M179.6,137c-5.3,0-10.3,0.9-15,2.6c16.7,6.1,28.6,22.1,28.6,40.8s-11.9,34.7-28.6,40.8
				c4.7,1.7,9.7,2.6,15,2.6c24.1,0,43.6-19.5,43.6-43.5S203.7,137,179.6,137z"/>
			<ellipse class="st0" cx="379.6" cy="292.3" rx="21.8" ry="21.7"/>
			<path class="st1" d="M379.6,270.6c-3.6,0-7,0.9-10,2.4c7,3.6,11.8,10.9,11.8,19.3s-4.8,15.7-11.8,19.3c3,1.5,6.4,2.4,10,2.4
				c12,0,21.8-9.7,21.8-21.7C401.4,280.3,391.7,270.6,379.6,270.6z"/>
			<ellipse class="st0" cx="307.4" cy="364.4" rx="32.3" ry="32.2"/>
			<path class="st1" d="M307.4,332.2c-5.4,0-10.5,1.3-15,3.7c10.3,5.4,17.3,16.1,17.3,28.5s-7,23.2-17.3,28.5
				c4.5,2.3,9.6,3.7,15,3.7c17.8,0,32.3-14.4,32.3-32.2S325.3,332.2,307.4,332.2z"/>
		</g>
		<g>
			<path class="st1" d="M488.6,216.3c-6.6,0-19.4,10.5-25.3,25.5h-13.1c-3-41.8-19.3-80-44.7-110.3l24.9-24.8
				c14.8,6.4,31.3,4.8,35.9,0.2c6.2-6.2-1.9-24.3-18-40.4s-34.3-24.2-40.5-18c-4.7,4.7-6.3,21.1,0.2,35.9l-24.7,24.6
				c-30-25.9-68-42.7-109.7-46.5V49.1c15-5.9,25.5-18.6,25.5-25.2c0-8.8-18.5-15.9-41.4-15.9s-41.4,7.1-41.4,15.9
				c0,6.6,10.5,19.4,25.5,25.2v13.1c-2.8,0.2-5.7,0.5-8.5,0.8C331.5,73,408,156,408,256.8c0,99.1-73.9,180.9-169.6,193.2v12.9
				c-15,5.9-25.5,18.6-25.5,25.2c0,8.8,18.5,15.9,41.4,15.9c22.9,0,41.4-7.1,41.4-15.9c0-6.6-10.5-19.4-25.5-25.2v-13.1
				c41.9-3,80.1-19.3,110.5-44.6l24.9,24.8c-6.4,14.7-4.8,31.2-0.2,35.9c6.2,6.2,24.3-1.9,40.5-18s24.3-34.2,18-40.4
				c-4.7-4.7-21.2-6.3-35.9,0.2L403.4,383c25.9-29.9,42.8-67.8,46.6-109.5h13.4c5.9,15,18.7,25.5,25.3,25.5
				c8.8,0,15.9-18.5,15.9-41.3S497.4,216.3,488.6,216.3L488.6,216.3z"/>
		</g>
	</g>
	<g>
		<path class="st2" d="M458.5,440.2c-5.5,0-9.4-6.9-6.3-11.6c5.7-8.6,6.7-14.3,6.3-15.9c-2.7-1.9-15.1-3.5-27.5,1.9
			c-2.8,1.2-6.1,0.6-8.3-1.6l-24.7-24.6c-2.8-2.8-2.9-7.2-0.4-10.2c25.8-29.8,41.3-66.2,44.8-105.3c0.9-9.6,24.7-10.1,27.8-2.1
			c4.9,12.5,14.8,20.1,18.1,20.7c2.6-1.5,8.6-13.1,8.6-33.8c0-20.8-6-32.3-8.6-33.8c-3.2,0.6-13.2,8.1-18.1,20.7
			c-3.2,8-26.9,7.5-27.6-2.2c-2.8-39.2-17.7-75.8-42.9-106c-2.5-3-2.3-7.4,0.5-10.1l24.9-24.8c2.2-2.2,5.5-2.8,8.3-1.6
			c12.4,5.4,24.7,3.8,27.5,1.8c0.8-2.9-3.2-15.3-17.9-29.9c-14.7-14.7-27.2-18.6-30-17.9c-1.9,2.7-3.5,15,1.9,27.4
			c1.2,2.8,0.6,6.1-1.6,8.3l-24.7,24.6c-2.8,2.8-7.2,2.9-10.2,0.4c-29.8-25.7-66.3-41.2-105.5-44.7c-9.6-0.9-10.1-24.7-2.1-27.8
			c12.5-4.9,20.1-14.7,20.7-18.1c-1.5-2.6-13.1-8.5-33.9-8.5c-20.8,0-32.4,6-33.9,8.6c0.6,3.2,8.1,13.1,20.7,18.1
			c8.1,3.2,7.5,26.9-2.2,27.6c-16.8,1.2-33.3,4.7-49.1,10.3c-9.1,3.2-14.2-10.9-5-14.1c14.9-5.3,30.3-8.8,46.1-10.5v-1.4
			c-14.2-7.2-25.5-20.2-25.5-30.1c0-16,25.4-23.4,48.9-23.4s48.9,7.3,48.9,23.4c0,9.9-11.3,22.9-25.5,30.1v1.8
			c37.4,4.6,72.4,19.4,101.8,43.1l16.4-16.3c-5-15.1-3.8-32.3,3.3-39.3c11.4-11.3,34.5,1.4,51.1,18c13.8,13.8,22.3,29,22.3,39.8
			c0,5.8-2.3,9.3-4.3,11.3c-7,7-24.2,8.2-39.4,3.3l-16.7,16.6c23.2,29.7,37.5,64.8,41.4,102.2h1.4c7.2-14.2,20.2-25.5,30.1-25.5
			c16.1,0,23.4,25.3,23.4,48.8s-7.3,48.8-23.4,48.8c-9.9,0-22.9-11.3-30.1-25.5h-1.8c-4.6,37.4-19.4,72.2-43.1,101.5l16.4,16.3
			c15.2-5,32.3-3.8,39.4,3.3c7,7,5.4,19.6-4.5,34.7C463.3,439,460.9,440.2,458.5,440.2L458.5,440.2z"/>
		<path class="st2" d="M254.3,511.5c-23.6,0-48.9-7.3-48.9-23.4c0-9.9,11.3-22.9,25.5-30.1v-1.8c-37.4-4.6-72.4-19.4-101.8-43.1
			l-16.4,16.3c5,15.1,3.8,32.3-3.3,39.3c-3,3-6.8,4.3-11.2,4.3c-12,0-27.7-10.1-39.9-22.3c-13.8-13.8-22.3-29-22.3-39.8
			c0-5.8,2.3-9.3,4.3-11.3c7-7,24.2-8.2,39.4-3.3l16.7-16.6c-23.2-29.7-37.5-64.8-41.4-102.2h-1.4c-7.2,14.2-20.2,25.5-30.1,25.5
			C7.3,303.2,0,277.8,0,254.3s7.3-48.8,23.4-48.8c9.9,0,22.9,11.3,30.1,25.5h1.8c4.6-37.4,19.4-72.2,43.1-101.6l-16.4-16.3
			c-15.2,5-32.3,3.8-39.4-3.3c-2-2-4.3-5.5-4.3-11.3c0-10.8,8.6-26,22.3-39.8c16.7-16.6,39.8-29.3,51.1-18c7,7,8.3,24.2,3.3,39.3
			l16.7,16.6c6.2-4.8,12.6-9.2,19.3-13.3c8.3-5,16.1,7.8,7.8,12.8c-8,4.8-15.6,10.3-22.8,16.3c-3,2.5-7.4,2.3-10.1-0.5l-24.9-24.8
			c-2.2-2.2-2.8-5.5-1.6-8.3c5.4-12.3,3.8-24.6,1.8-27.4c-2.9-0.8-15.3,3.2-30,17.9C56.7,84,52.7,96.5,53.5,99.3
			c2.7,1.9,15.1,3.5,27.5-1.9c2.8-1.2,6.1-0.6,8.3,1.6l24.7,24.6c2.8,2.8,2.9,7.2,0.4,10.2C88.5,163.6,73,200,69.5,239.1
			c-0.9,9.6-24.7,10.1-27.8,2.1c-4.9-12.5-14.8-20.1-18.1-20.7C21,222,15,233.6,15,254.3c0,20.8,6,32.3,8.6,33.8
			c3.2-0.6,13.2-8.1,18.1-20.7c3.2-8,26.9-7.5,27.6,2.2c2.8,39.2,17.7,75.8,42.9,106c2.5,3,2.3,7.4-0.5,10.1l-24.9,24.8
			c-2.2,2.2-5.5,2.8-8.3,1.6c-12.4-5.4-24.7-3.8-27.5-1.8c-0.8,2.9,3.2,15.3,17.9,29.9c14.7,14.7,27.2,18.6,30,17.9
			c1.9-2.7,3.5-15-1.9-27.4c-1.2-2.8-0.6-6.1,1.6-8.3l24.7-24.6c2.8-2.8,7.2-2.9,10.2-0.4c29.8,25.7,66.3,41.2,105.5,44.7
			c9.6,0.9,10.1,24.7,2.1,27.8c-12.5,4.9-20.1,14.7-20.7,18.1c1.5,2.6,13.1,8.5,33.9,8.5c20.8,0,32.4-6,33.9-8.6
			c-0.6-3.2-8.1-13.1-20.7-18.1c-8.1-3.2-7.5-26.9,2.2-27.6c39.2-2.8,76-17.6,106.2-42.9c3-2.5,7.4-2.3,10.1,0.5l24.9,24.8
			c2.2,2.2,2.8,5.5,1.6,8.3c-5.4,12.3-3.8,24.6-1.9,27.4c1.2,0.3,6.2-0.1,15.2-5.8c8.2-5.2,16.2,7.5,8,12.7
			c-14.6,9.3-26.9,10.7-33.7,3.9c-7-7-8.3-24.2-3.3-39.3l-16.7-16.6c-29.8,23.2-65,37.4-102.5,41.4v1.4
			c14.2,7.2,25.5,20.2,25.5,30.1C303.2,504.2,277.9,511.5,254.3,511.5L254.3,511.5z"/>
		<path class="st2" d="M179.6,231.5c-28.2,0-51.1-22.9-51.1-51s22.9-51,51.1-51s51.1,22.9,51.1,51S207.8,231.5,179.6,231.5z
			 M179.6,144.5c-19.9,0-36.1,16.1-36.1,36s16.2,36,36.1,36c19.9,0,36.1-16.1,36.1-36S199.6,144.5,179.6,144.5z"/>
		<path class="st2" d="M379.6,321.6c-16.2,0-29.3-13.1-29.3-29.2c0-16.1,13.1-29.2,29.3-29.2s29.3,13.1,29.3,29.2
			S395.8,321.6,379.6,321.6z M379.6,278.1c-7.9,0-14.3,6.4-14.3,14.2s6.4,14.2,14.3,14.2s14.3-6.4,14.3-14.2
			S387.5,278.1,379.6,278.1z"/>
		<path class="st2" d="M307.4,404.1c-22,0-39.8-17.8-39.8-39.7c0-21.9,17.9-39.7,39.8-39.7s39.8,17.8,39.8,39.7
			S329.4,404.1,307.4,404.1z M307.4,339.7c-13.7,0-24.8,11.1-24.8,24.7s11.1,24.7,24.8,24.7s24.8-11.1,24.8-24.7
			S321.1,339.7,307.4,339.7z"/>
	</g>
</g>
</svg>
