<?xml version="1.0" encoding="utf-8"?>
<!-- Generator: Adobe Illustrator 23.0.1, SVG Export Plug-In . SVG Version: 6.00 Build 0)  -->
<svg version="1.1" id="Layer_1" xmlns="http://www.w3.org/2000/svg" xmlns:xlink="http://www.w3.org/1999/xlink" x="0px" y="0px"
	 viewBox="0 0 500 500" style="enable-background:new 0 0 500 500;" xml:space="preserve">
<style type="text/css">
	.st0{fill:#2D8C8C;}
</style>
<g>
	<path class="st0" d="M252.93,104.32c7.73,0,15.46-0.06,23.18,0.02c6.42,0.07,9.42,3.07,9.55,9.49c0.09,4.98,0.26,9.98-0.03,14.94
		c-0.2,3.44,0.79,5.04,4.23,6.24c6.94,2.41,13.72,5.37,20.37,8.49c2.66,1.25,4.23,1.06,6.18-1.08c3.48-3.79,7.21-7.36,10.91-10.95
		c4.97-4.83,8.97-4.92,13.82-0.14c10.99,10.87,21.92,21.8,32.79,32.78c5.01,5.06,4.92,8.98-0.18,14.21
		c-3.59,3.69-7.18,7.4-10.96,10.9c-1.97,1.83-2.1,3.29-0.96,5.76c3.22,7,6.17,14.12,8.87,21.33c0.93,2.5,1.95,3.55,4.69,3.46
		c5.48-0.2,10.99-0.14,16.48-0.01c6.08,0.14,9.15,3.19,9.18,9.32c0.08,15.79,0.09,31.6,0,47.39c-0.03,6.08-3.17,9.08-9.3,9.19
		c-5.32,0.1-10.65,0.16-15.97-0.03c-2.8-0.1-4.12,0.69-5.15,3.53c-2.62,7.24-5.63,14.34-8.87,21.33c-1.18,2.54-0.85,3.96,1.07,5.75
		c3.89,3.64,7.65,7.42,11.31,11.27c4.58,4.81,4.65,8.84,0.08,13.46c-10.98,11.11-22.04,22.17-33.15,33.16
		c-4.69,4.65-8.7,4.66-13.45,0.15c-3.98-3.78-7.66-7.91-11.78-11.51c-1.13-0.99-3.68-1.36-5.13-0.81
		c-7.36,2.79-14.49,6.2-21.88,8.88c-2.76,0.99-3.26,2.32-3.21,4.82c0.11,5.49,0.14,10.99,0,16.48c-0.15,5.8-3.2,8.92-9,8.95
		c-15.97,0.1-31.94,0.1-47.92,0c-5.78-0.04-8.83-3.19-8.97-8.99c-0.14-5.49-0.17-10.99-0.01-16.48c0.07-2.58-0.64-3.85-3.27-4.84
		c-7.37-2.73-14.53-6.08-21.89-8.83c-1.43-0.53-3.96-0.09-5.11,0.91c-4.13,3.61-7.8,7.73-11.78,11.51
		c-4.53,4.32-8.67,4.39-13.07,0.05c-11.24-11.1-22.42-22.27-33.51-33.51c-4.55-4.61-4.4-8.64,0.24-13.43
		c3.7-3.82,7.4-7.67,11.3-11.28c2.01-1.86,2.03-3.33,0.91-5.78c-3.21-7-6.18-14.11-8.88-21.33c-0.94-2.53-2.01-3.52-4.71-3.42
		c-5.32,0.19-10.64,0.09-15.97,0.01c-6.5-0.1-9.62-3.04-9.66-9.36c-0.08-15.79-0.08-31.6,0-47.39c0.03-6.09,3.14-9.06,9.3-9.16
		c5.32-0.09,10.65-0.16,15.97,0.03c2.8,0.1,4.12-0.68,5.14-3.53c2.62-7.24,5.64-14.34,8.87-21.33c1.17-2.52,0.89-3.94-1.04-5.75
		c-3.89-3.64-7.62-7.45-11.29-11.28c-4.61-4.81-4.7-8.81-0.11-13.43c11.11-11.23,22.28-22.41,33.52-33.5
		c4.24-4.19,8.39-4.22,12.69-0.19c4.14,3.88,7.91,8.14,12.15,11.88c1.13,0.99,3.68,1.37,5.12,0.83c7.36-2.76,14.65-5.79,21.81-9.05
		c1.42-0.65,3.02-2.65,3.11-4.13c0.37-5.64,0.06-11.32,0.18-17c0.13-5.82,3.14-8.89,8.96-8.97
		C236.78,104.23,244.85,104.32,252.93,104.32z M357.8,333.62c-4.12-3.81-8.1-7.33-11.88-11.05c-5.33-5.24-5.07-7.47-2.01-14.05
		c4.74-10.21,8.97-20.68,12.87-31.24c2.2-5.96,4.16-8.04,10.74-8.07c5.6-0.03,11.19-0.01,16.67-0.01c0-11.41,0-22.1,0-32.95
		c-5.9,0-11.4,0.03-16.88-0.01c-6.45-0.04-8.3-2.16-10.56-8.28c-3.89-10.56-8.18-21.02-12.91-31.22c-2.94-6.33-3.14-8.62,1.85-13.67
		c3.91-3.97,7.87-7.9,11.03-11.07c-8.01-8.12-15.44-15.64-23.03-23.33c0.32-0.1,0.11-0.09,0.01,0.01
		c-3.93,3.83-7.82,7.71-11.77,11.52c-4.53,4.38-7.17,4.21-12.92,1.6c-10.56-4.78-21.32-9.17-32.17-13.28
		c-5.42-2.05-7.6-4.14-7.66-10.01c-0.05-5.78-0.01-11.55-0.01-17.31c-11.31,0-22.01,0-32.95,0c0,5.86,0.03,11.34-0.01,16.82
		c-0.04,6.48-2.18,8.42-8.2,10.63c-10.56,3.9-21.02,8.17-31.22,12.91c-6.35,2.95-8.67,3.17-13.68-1.78
		c-3.98-3.92-7.92-7.86-11.16-11.07c-8.02,8.07-15.47,15.56-23.06,23.21c-0.15-0.3-0.07,0.06,0.16,0.29
		c3.37,3.43,6.76,6.83,10.15,10.25c5.69,5.73,5.45,7.78,2.07,14.91c-4.69,9.85-8.82,20.01-12.51,30.28
		c-2.37,6.59-4.11,8.54-11.38,8.57c-5.42,0.02-10.84,0-16.11,0c0,11.43,0,22.12,0,32.95c5.91,0,11.41-0.03,16.9,0.01
		c6.24,0.04,8.29,2.18,10.41,7.81c4.08,10.85,8.52,21.59,13.31,32.16c2.58,5.71,2.77,8.36-1.8,12.87c-4,3.96-8.24,7.7-11.79,10.99
		c8.33,8.34,15.88,15.91,24.09,24.12c3.32-3.55,6.98-7.64,10.82-11.53c4.79-4.86,7.27-4.67,13.25-1.95
		c10.56,4.81,21.33,9.16,32.17,13.28c5.44,2.07,7.58,4.13,7.65,10.03c0.06,5.78,0.01,11.54,0.01,17.28c11.32,0,22.03,0,32.95,0
		c0-5.87-0.03-11.35,0.01-16.84c0.04-6.48,2.17-8.4,8.21-10.62c10.56-3.9,21.02-8.17,31.22-12.91c6.36-2.95,8.66-3.17,13.68,1.78
		c3.98,3.91,7.91,7.87,11.68,11.61C341.99,349.3,349.42,341.94,357.8,333.62z"/>
	<path class="st0" d="M41.77,212.88c-5.44-1-10.45-1.93-16.19-3C40.94,138.69,80.13,85.59,143.17,49.37
		c-1.63-4.98-3.31-9.97-4.89-14.99c-2.55-8.11,1.82-13.4,10.07-12.23c18,2.57,35.99,5.23,54.01,7.71c4.08,0.56,7.31,2.03,8.68,6.1
		c1.34,3.97-0.61,6.92-3.3,9.61c-12.89,12.85-25.71,25.77-38.64,38.58c-6.12,6.07-12.54,4.55-15.42-3.52
		c-1.72-4.81-3.3-9.67-5.21-15.3C91.25,99.12,55.94,147.9,41.77,212.88z M165.28,63.07c6.32-6.28,12.57-12.48,19.14-19.01
		c-8.68-1.23-17.42-2.48-26.84-3.81C160.42,48.68,162.92,56.07,165.28,63.07z"/>
	<path class="st0" d="M455.83,143.21c5.42-1.75,10.57-3.5,15.78-5.07c7.51-2.26,12.78,2.11,11.7,9.82
		c-2.59,18.52-5.15,37.04-8.19,55.49c-0.45,2.72-3,6.26-5.41,7.13c-2.4,0.88-6.77-0.16-8.69-2c-13.76-13.19-27.2-26.7-40.53-40.33
		c-5.28-5.39-3.35-11.86,3.92-14.44c4.96-1.77,9.99-3.37,15.5-5.22c-15.76-28.24-36.47-51.23-62.1-69.78
		c-25.5-18.45-53.78-30.67-85.27-36.81c0.97-5.47,1.88-10.61,2.88-16.23c34.47,6.7,65.42,20.19,93.37,40.66
		C416.78,86.93,438.98,112.53,455.83,143.21z M442.35,165.27c6.29,6.34,12.5,12.6,19.04,19.19c1.22-8.68,2.45-17.44,3.79-26.86
		C456.76,160.43,449.36,162.92,442.35,165.27z"/>
	<path class="st0" d="M463.56,292.92c0.99,0,1.85-0.13,2.66,0.02c4.2,0.75,8.39,1.58,13.58,2.57
		c-15.3,71.26-54.61,124.36-117.56,160.61c1.71,5.25,3.48,10.41,5.06,15.63c2.26,7.42-2.24,12.65-9.97,11.56
		c-18.51-2.61-37.04-5.13-55.49-8.17c-2.7-0.45-6.22-3.07-7.08-5.51c-0.86-2.4,0.24-6.73,2.1-8.66
		c13.07-13.63,26.48-26.93,39.95-40.18c5.62-5.54,12.05-3.82,14.81,3.69c1.71,4.66,3.23,9.39,4.86,14.08
		c0.1,0.29,0.43,0.51,1.03,1.2C414.08,406.34,449.33,357.64,463.56,292.92z M320.7,461.34c9.14,1.3,17.8,2.53,27.14,3.85
		c-2.84-8.36-5.37-15.83-7.86-23.15C333.49,448.54,327.36,454.68,320.7,461.34z"/>
	<path class="st0" d="M49.32,362.29c-5.55,1.8-10.74,3.58-15.98,5.15c-6.85,2.05-12.24-2.31-11.28-9.42
		c2.55-18.87,5.29-37.71,8.12-56.54c1.09-7.26,8.62-10.22,13.84-5.15c13.94,13.5,27.65,27.22,41.2,41.12
		c4.85,4.97,2.99,11.42-3.62,13.96c-5.09,1.94-10.32,3.54-16.06,5.47c15.71,28.18,36.39,51.16,62.02,69.72
		c25.49,18.46,53.79,30.67,84.96,36.74c0,1.11,0.13,1.94-0.02,2.74c-0.78,4.36-1.62,8.7-2.58,13.76
		C138.64,464.57,85.57,425.32,49.32,362.29z M44,321.12c-1.21,8.53-2.44,17.29-3.78,26.72c8.4-2.82,15.87-5.34,22.91-7.71
		C56.68,333.73,50.45,327.55,44,321.12z"/>
	<path class="st0" d="M252.92,54.84c-13.72,0.07-24.96-11.09-24.93-24.77c0.02-13.46,11.06-24.57,24.52-24.66
		c13.71-0.09,24.91,11.06,24.91,24.78C277.42,43.67,266.38,54.77,252.92,54.84z M253.1,21.91c-4.43-0.23-8.38,3.34-8.6,7.8
		c-0.23,4.44,3.34,8.38,7.79,8.61c4.42,0.23,8.38-3.35,8.61-7.8C261.13,26.09,257.55,22.14,253.1,21.91z"/>
	<path class="st0" d="M54.83,252.58c0.08,13.5-10.86,24.68-24.31,24.84C16.8,277.58,5.47,266.5,5.4,252.85
		c-0.06-13.49,10.9-24.67,24.33-24.85C43.43,227.82,54.75,238.89,54.83,252.58z M38.32,252.89c0.1-4.45-3.56-8.27-8.02-8.38
		c-4.46-0.1-8.27,3.55-8.38,8.02c-0.1,4.46,3.55,8.28,8.02,8.39C34.38,261.01,38.21,257.35,38.32,252.89z"/>
	<path class="st0" d="M475.42,277.42c-13.67,0.06-24.84-11.1-24.85-24.85c-0.01-13.42,11.14-24.58,24.56-24.58
		c13.77,0,24.92,11.14,24.87,24.82C499.96,266.27,488.89,277.36,475.42,277.42z M475.4,244.51c-4.46-0.06-8.24,3.61-8.32,8.09
		c-0.06,4.46,3.61,8.25,8.09,8.32c4.45,0.06,8.25-3.64,8.32-8.1C483.56,248.36,479.86,244.57,475.4,244.51z"/>
	<path class="st0" d="M252.7,500.01c-13.67,0-24.77-11.21-24.73-24.99c0.04-13.41,11.25-24.51,24.68-24.45
		c13.75,0.05,24.85,11.25,24.75,24.96C277.31,488.98,266.16,500.01,252.7,500.01z M260.9,475.27c-0.01-4.46-3.76-8.19-8.22-8.18
		c-4.47,0.01-8.19,3.75-8.18,8.22c0.01,4.47,3.75,8.2,8.22,8.19C257.17,483.48,260.91,479.73,260.9,475.27z"/>
	<path class="st0" d="M335.14,252.94c0.16,44.48-36.98,82.06-81.26,82.21c-46.41,0.17-83.4-36.29-83.64-82.43
		c-0.23-44.78,36.87-82.3,81.53-82.46C298.04,170.09,334.97,206.73,335.14,252.94z M318.65,252.56
		c-0.04-36.16-29.74-65.8-65.95-65.8c-36.16,0-65.9,29.7-65.95,65.83c-0.04,36.43,29.76,66.17,66.21,66.06
		C289.07,318.56,318.69,288.76,318.65,252.56z"/>
</g>
</svg>
