<?xml version="1.0" encoding="utf-8"?>
<!-- Generator: Adobe Illustrator 23.0.1, SVG Export Plug-In . SVG Version: 6.00 Build 0)  -->
<svg version="1.1" id="Capa_1" xmlns="http://www.w3.org/2000/svg" xmlns:xlink="http://www.w3.org/1999/xlink" x="0px" y="0px"
	 viewBox="0 0 512 512" style="enable-background:new 0 0 512 512;" xml:space="preserve">
<style type="text/css">
	.st0{fill:#F9436A;}
</style>
<g>
	<g>
		<path class="st0" d="M502.97,348.9c-7.06-8.2-17.31-12.9-28.12-12.9h-2.12h-4.36c7.34-10.86,11.63-23.94,11.63-38
			c0-37.49-30.51-68-68-68c-9.44,0-18.71,1.95-27.26,5.7l-18.45-49.82C375.93,167.83,381,147.62,381,127C381,58.08,324.92,2,256,2
			S131,58.08,131,127c0,20.62,5.07,40.83,14.72,58.88l-18.46,49.84C118.9,232.05,109.69,230,100,230c-37.49,0-68,30.51-68,68
			c0,14.06,4.29,27.14,11.63,38h-4.36h-2.13c-10.81,0-21.06,4.7-28.12,12.9c-7.08,8.22-10.22,19.08-8.61,29.82l15.5,103.6
			C18.62,500.38,34.41,514,52.64,514h94.71c18.24,0,34.03-13.62,36.73-31.69l15.5-103.6c1.6-10.73-1.53-21.6-8.61-29.82
			c-7.06-8.2-17.31-12.9-28.12-12.9h-2.13h-4.36c7.34-10.86,11.64-23.94,11.64-38c0-11.99-3.13-23.25-8.6-33.04l54.57-20.21
			c13.46,4.81,27.57,7.25,42.03,7.25c14.45,0,28.56-2.44,42.03-7.25l54.56,20.21C347.01,275,344,286.38,344,298
			c0,14.06,4.29,27.14,11.63,38h-4.36h-2.12c-10.81,0-21.06,4.7-28.12,12.9c-7.08,8.22-10.22,19.08-8.61,29.82l15.5,103.6
			c2.7,18.06,18.49,31.69,36.73,31.69h94.71c18.24,0,34.03-13.62,36.73-31.69l15.5-103.6C513.19,367.98,510.05,357.11,502.97,348.9z
			 M100,260c6.03,0,11.74,1.42,16.81,3.93l-7.21,19.47l21.07-7.8c4.6,6.29,7.33,14.03,7.33,22.4c0,20.95-17.05,38-38,38
			s-38-17.05-38-38S79.05,260,100,260z M119.27,366L100,424.53L80.73,366H119.27z M162.85,366c2.83,0,4.59,1.55,5.39,2.48
			c0.81,0.94,2.1,2.94,1.67,5.8l-15.5,103.6c-0.53,3.55-3.5,6.13-7.06,6.13H52.64c-3.56,0-6.53-2.58-7.06-6.13l-15.5-103.6
			c-0.43-2.86,0.86-4.86,1.67-5.8c0.8-0.92,2.56-2.48,5.39-2.48h12l29.63,90h42.45l29.63-90H162.85z M297.64,212.61l-5.43,2.24
			C280.72,219.6,268.54,222,256,222s-24.72-2.4-36.21-7.15l-5.43-2.24l-53.96,19.98l18.42-49.72l-3.82-6.22
			c-9.16-14.9-14-32.07-14-49.66c0-52.38,42.62-95,95-95s95,42.62,95,95c0,17.58-4.84,34.75-14,49.65l-3.82,6.22l18.42,49.72
			L297.64,212.61z M381.32,275.6l21.09,7.81l-7.21-19.47c5.2-2.57,10.94-3.93,16.81-3.93c20.95,0,38,17.05,38,38s-17.05,38-38,38
			s-38-17.05-38-38C374,289.93,376.59,282.07,381.32,275.6z M431.27,366L412,424.53L392.73,366H431.27z M481.92,374.27l-15.5,103.6
			c-0.53,3.55-3.5,6.13-7.06,6.13h-94.71c-3.56,0-6.53-2.58-7.06-6.13l-15.5-103.6c-0.43-2.86,0.86-4.86,1.67-5.8
			c0.8-0.93,2.56-2.48,5.39-2.48h12l29.63,90h42.45l29.63-90h12c2.83,0,4.59,1.55,5.39,2.48
			C481.05,369.42,482.34,371.42,481.92,374.27z"/>
	</g>
</g>
<g>
	<g>
		<polygon class="st0" points="304.98,83.01 240.13,147.86 207.02,114.75 178.64,143.13 240.13,204.62 333.36,111.39 		"/>
	</g>
</g>
</svg>
