<?xml version="1.0" encoding="utf-8"?>
<!-- Generator: Adobe Illustrator 23.0.1, SVG Export Plug-In . SVG Version: 6.00 Build 0)  -->
<svg version="1.1" id="Layer_1" xmlns="http://www.w3.org/2000/svg" xmlns:xlink="http://www.w3.org/1999/xlink" x="0px" y="0px"
	 viewBox="0 0 500 500" style="enable-background:new 0 0 500 500;" xml:space="preserve">
<style type="text/css">
	.st0{fill:#DD0516;}
</style>
<g>
	<path class="st0" d="M478.44,168.72c3.52,12.02,8.04,23.24,9.98,34.88c5.83,34.87,0.06,68.35-16.16,99.62
		c-7.93,15.29-17.47,29.8-27.04,44.16c-16.14,24.21-29.34,49.61-37.34,77.8c-2.9,10.24-7.91,20.2-13.6,29.27
		c-18.21,29.03-43.66,38.94-76.91,30.89c-5.16-1.25-10.32-2.76-15.23-4.76c-25.59-10.46-39.19-29.65-40.61-57.24
		c-1.25-24.32,2.35-47.52,18.12-67.18c6.14-7.66,13.29-14.5,20.46-22.23c-1.72-0.18-2.89-0.41-4.05-0.41
		c-9.21-0.03-18.43,0.06-27.64-0.04c-6.71-0.07-10.62-3.87-10.62-10.53c-0.05-47.04-0.04-94.08,0.02-141.12
		c0-1.72,0.15-3.96,1.18-5.06c3.77-4.02,2.29-8.65,2.38-13.22c0.17-9.32-0.23-18.81,1.4-27.91c1.96-10.97,6.81-20.91,17.45-26.47
		c-0.05-0.46,0.02-0.91-0.14-1.03c-14.73-10.55-20.27-25.93-21.97-43c-1.63-16.36,1.15-31.94,10.95-45.62
		c14.59-20.37,39.14-21.12,55.15-1.85c5.6,6.74,8.88,14.55,11.06,22.92c0.36,1.39,0.71,2.79,1.42,5.58
		c1.76-7.83,6.21-12.14,11.62-15.6c5.63-3.61,11.75-5.29,18.46-4c14.13,2.71,21.44,12.8,24.18,33.78
		c9.5-8.33,19.76-13.14,31.43-5.35c10.95,7.31,12.72,18.78,12.08,30.91c24.12-3.29,35.9,9.8,31.4,35c5.98-1.8,11.21-0.42,15.68,3.61
		c5.05,4.56,7.54,10.43,8.06,17.11C490.47,152.75,487.73,162.44,478.44,168.72z M281.14,155.99c1.33-1.07,2.58-2.02,3.76-3.04
		c9.29-8.03,18.56-16.1,27.87-24.12c6.17-5.33,9.97-5.32,16.16,0.04c16.61,14.41,33.14,28.89,49.81,43.23
		c3.59,3.09,5.21,6.59,5.2,11.36c-0.1,46.07-0.05,92.15-0.07,138.22c0,8.26-3.55,11.79-11.82,11.81
		c-14.55,0.03-29.1-0.05-43.65,0.09c-1.68,0.02-3.89,0.64-4.94,1.81c-8.2,9.09-15.89,18.66-24.31,27.54
		c-7.9,8.33-14.08,17.6-15.67,28.92c-1.57,11.13-2.69,22.53-2.11,33.71c0.89,17.24,9.8,29.94,26.23,36.23
		c7.03,2.69,14.49,4.39,21.88,5.95c16.46,3.46,30.26-1.47,41.41-14.03c9.51-10.72,15.84-23.18,19.75-36.84
		c5.17-18.08,11.58-35.67,21.18-51.86c8.89-14.99,18.26-29.73,27.95-44.22c16.98-25.37,29.34-52.29,31.08-83.35
		c1.15-20.49-0.8-40.33-9.91-59.03c-21.01-43.17-80.34-75.93-128.27-70.7c-13.43,1.47-26.47,4.48-37.81,12.38
		C283.29,128.14,277.5,143.24,281.14,155.99z M277.16,313.84c29.49,0,58.19,0,86.94,0c0.15-0.71,0.33-1.16,0.33-1.61
		c0.02-41.38,0.05-82.75-0.08-124.13c-0.01-1.6-1.25-3.58-2.51-4.73c-5.96-5.46-12.12-10.68-18.21-16
		c-7.52-6.57-15.03-13.14-22.7-19.85c-1.55,1.26-2.82,2.22-4.01,3.26c-12.17,10.64-24.26,21.36-36.54,31.87
		c-2.47,2.11-3.29,4.28-3.29,7.43c0.09,39.6,0.06,79.2,0.06,118.8C277.16,310.45,277.16,312.02,277.16,313.84z M318.94,64.8
		c0.03-15.16-2.88-25.42-8.05-32.77c-8.6-12.22-19.9-11.82-27.64,0.98c-9.19,15.19-7.79,40.55,3.03,54.67
		c7.6,9.92,17.47,9.88,24.74-0.27C316.75,79.39,318.86,70.2,318.94,64.8z M347.92,69.42c1.74,4.94,2.87,10.22,5.37,14.75
		c3.54,6.41,8.21,6.48,13.16,1.03c7.55-8.31,9.08-24.36,3.26-34.13c-4.11-6.9-9.53-7.35-14.66-1.02
		C350.57,55.55,349.12,62.12,347.92,69.42z M416.71,84.14c-0.92-3.37-1.47-6.91-2.87-10.08c-1.81-4.09-4.24-4.29-7.5-1.22
		c-4.83,4.54-7.7,20.62-4.74,26.53c1.95,3.89,4.26,4.4,7.59,1.33C413.93,96.33,416.15,90.77,416.71,84.14z M441.94,124.84
		c4.9-4.62,6.69-13.84,4.05-19.24c-1.13-2.31-2.45-2.8-4.41-0.97C436.87,109.04,436.94,120.21,441.94,124.84z M470.28,141.74
		c-0.78-0.1-1.57-0.21-2.35-0.31c-0.21,3.23-0.43,6.47-0.64,9.7c0.7,0.05,1.4,0.11,2.09,0.16
		C469.69,148.11,469.99,144.93,470.28,141.74z"/>
	<path class="st0" d="M218.03,108c11.38,8.79,17.38,22,18.21,37.24c1.38,25.26-3.8,49.25-17.16,70.96
		c-5.4,8.77-11.95,16.84-18.08,25.16c-2.97,4.03-6.06,7.98-9.27,11.82c-11.48,13.71-13.6,29.17-10.36,46.43
		c3.49,18.63,12.36,33.53,26.16,46.27c25.97,23.98,31.73,54.63,26.52,87.94c-3.15,20.12-14.96,34.85-33.25,43.83
		c-16.68,8.18-34.39,12.76-53.03,9.65c-22.07-3.68-36.91-17.78-47.56-36.48c-4.52-7.94-8.6-16.43-11.05-25.19
		c-7.87-28.21-20.99-53.72-37.42-77.75c-11.85-17.33-24.09-34.49-32.26-53.98c-14-33.4-18.5-67.74-9-103.22
		c1-3.73,2.41-7.36,3.79-10.98c1.31-3.45,2.84-6.81,4.22-10.1C6.92,160.43,4.4,148.45,7.64,135.18c0.99-4.07,4.1-8.1,7.25-11.07
		c4.67-4.42,10.44-5.83,17.15-0.83c-4.66-11.38-3.12-21.34,2.87-30.54c5.98-9.19,12.44-10.68,27.14-6.97
		c-3.97-32.02,27.09-42.97,43.32-26.69c0.65-3.75,1.16-7.14,1.85-10.5c2.32-11.27,10.8-19.98,21.9-21.93
		c11.73-2.06,20.75,2.96,27.9,11.85c1.22,1.52,1.71,3.62,2.91,6.3c0.74-2.69,1.27-4.63,1.81-6.56c3.25-11.74,9.22-21.65,19.48-28.61
		c13.09-8.88,27.87-7.83,39.58,2.87c10.97,10.03,15.74,23.09,17.22,37.43c1.41,13.74-0.2,27.29-6.68,39.59
		C227.88,96.08,222.65,101.7,218.03,108z M156.64,107.21c-25.04-0.51-55.62,9.42-79.29,25c-23.14,15.22-40.86,34.94-48.14,62.18
		c-8.39,31.4-5.47,62.51,8.11,91.77c7.83,16.87,18.31,32.64,28.71,48.16c17.91,26.73,33.21,54.51,41.79,85.79
		c2.27,8.27,6.37,16.27,10.84,23.67c12.86,21.25,27.43,27.59,51.79,23.55c29.82-4.94,44.46-19.83,45.92-48.4
		c1.16-22.57-3.47-43.49-22.06-58.95c-1.86-1.54-3.45-3.41-5.17-5.11c-12.47-12.36-20.33-27.23-25.09-44.09
		c-7.78-27.6-3.66-52.37,15.84-74.05c4.64-5.16,8.77-10.78,13.19-16.14c16.63-20.18,24.01-43.45,24.06-69.46
		c0.03-17.15-7.61-28.89-22.95-35.97C181.5,109.29,168,107.32,156.64,107.21z M177.12,59.43c0.08,10.99,2.37,20.93,9.3,29.27
		c6.95,8.37,15.6,8.29,22.58,0.04c11.89-14.05,13.36-41.71,3.04-57.03c-7.36-10.93-16.95-11.46-25.26-1.21
		C179.9,39,177.38,49.05,177.12,59.43z M148.48,69.41c-0.44-0.18-0.88-0.35-1.33-0.53c-0.03-7.83-2.81-15.86-6.95-20.16
		c-4.07-4.22-8.51-4.24-12.07-0.05c-8,9.39-6.63,29.76,2.57,38c3.97,3.56,8.35,3.57,11.06-1.1
		C144.67,80.57,146.3,74.83,148.48,69.41z M97.61,89.63c-0.74-6.53-2.15-12.41-6.46-17.22c-2.54-2.84-5.48-2.47-7.59,0.68
		c-4.76,7.1-2.82,22.1,3.6,27.95c2.79,2.55,5.43,2.4,7-1.03C95.67,96.71,96.49,93.1,97.61,89.63z M55.6,123.81
		c3.59-5.41,3.3-14.39-0.66-18.97c-1.37-1.58-2.79-2.97-4.55-0.36C46.71,109.94,49.64,120.87,55.6,123.81z M26.79,150.75
		c0.74-0.11,1.48-0.21,2.22-0.32c-0.46-3.3-0.91-6.59-1.37-9.89c-0.76,0.11-1.52,0.21-2.27,0.32
		C25.84,144.16,26.31,147.45,26.79,150.75z"/>
	<path class="st0" d="M320.72,178.32c7.85-0.06,14.51,6.46,14.63,14.32c0.13,8.04-6.64,14.84-14.68,14.75
		c-7.86-0.08-14.4-6.7-14.39-14.56C306.29,184.97,312.86,178.37,320.72,178.32z"/>
</g>
</svg>
