<?xml version="1.0" encoding="utf-8"?>
<!-- Generator: Adobe Illustrator 23.0.1, SVG Export Plug-In . SVG Version: 6.00 Build 0)  -->
<svg version="1.1" id="Capa_1" xmlns="http://www.w3.org/2000/svg" xmlns:xlink="http://www.w3.org/1999/xlink" x="0px" y="0px"
	 viewBox="0 0 512 512" style="enable-background:new 0 0 512 512;" xml:space="preserve">
<style type="text/css">
	.st0{fill:#7BA835;}
</style>
<g>
	<g>
		<path class="st0" d="M447.33,121.64c16.46-12.33,27.13-31.99,27.13-54.09C474.47,30.3,444.17,0,406.92,0s-67.54,30.3-67.54,67.54
			c0,22.1,10.67,41.76,27.13,54.09l-27.08,12.04c-19.79-24.15-49.84-39.59-83.43-39.59s-63.64,15.44-83.43,39.59l-27.08-12.04
			c16.46-12.33,27.13-31.99,27.13-54.09C172.62,30.3,142.32,0,105.08,0S37.53,30.3,37.53,67.54c0,22.1,10.67,41.76,27.13,54.09
			L0,150.38v185.68h30.02V512h150.1V336.06h30.02v-36.57c13.92,6.57,29.46,10.25,45.85,10.25s31.92-3.68,45.85-10.25v36.57h30.02
			V512h150.1V336.06H512V150.38l0,0L447.33,121.64z M406.92,30c20.7,0,37.54,16.84,37.54,37.54s-16.84,37.54-37.54,37.54
			s-37.54-16.84-37.54-37.54S386.22,30,406.92,30z M105.08,30c20.7,0,37.54,16.84,37.54,37.54s-16.84,37.54-37.54,37.54
			S67.53,88.25,67.53,67.54S84.38,30,105.08,30z M150.13,482h-30.05V366.09h-30V482H60.03V336.06h90.1V482z M180.15,306.05h-90.1
			v-110.3h-30v110.3H30V169.87l75.08-33.37l51.78,23.01c-5.59,13.02-8.69,27.35-8.69,42.39c0,29.91,12.24,57.01,31.98,76.56
			L180.15,306.05L180.15,306.05z M256,279.73c-42.91,0-77.82-34.91-77.82-77.82s34.91-77.82,77.82-77.82s77.83,34.91,77.83,77.82
			S298.91,279.73,256,279.73z M451.97,482h-30.05V366.09h-30V482h-30.05V336.06h90.1L451.97,482L451.97,482z M451.95,306.05v-110.3
			h-30v110.3h-90.1v-27.59c19.73-19.55,31.98-46.65,31.98-76.56c0-15.04-3.1-29.37-8.69-42.39l51.78-23.01L482,169.87v136.18
			L451.95,306.05L451.95,306.05z"/>
	</g>
</g>
<g>
	<g>
		<rect x="208.21" y="186.91" class="st0" width="95.57" height="30"/>
	</g>
</g>
</svg>
