<?xml version="1.0" encoding="utf-8"?>
<!-- Generator: Adobe Illustrator 23.0.1, SVG Export Plug-In . SVG Version: 6.00 Build 0)  -->
<svg version="1.1" id="Capa_1" xmlns="http://www.w3.org/2000/svg" xmlns:xlink="http://www.w3.org/1999/xlink" x="0px" y="0px"
	 viewBox="0 0 512 512" style="enable-background:new 0 0 512 512;" xml:space="preserve">
<style type="text/css">
	.st0{fill:#14C654;}
</style>
<g>
	<path class="st0" d="M142.8,437.1c30.4,8.6,70.7,13.3,113.2,13.3s82.8-4.7,113.2-13.3c37.3-10.5,56.1-25.8,56.1-45.3
		c0-19.5-18.9-34.8-56.1-45.3c-17-4.8-37.1-8.4-58.9-10.6c42.8-73,85.1-155.6,85.1-196.5C395.4,62.6,332.9,0,256,0
		S116.6,62.6,116.6,139.4c0,40.9,42.4,123.5,85.1,196.5c-21.8,2.2-41.9,5.8-58.9,10.6c-37.3,10.5-56.1,25.8-56.1,45.3
		C86.6,411.4,105.5,426.6,142.8,437.1z M256,30c60.3,0,109.4,49.1,109.4,109.4c0,31-38.4,112.2-102.6,217.4
		c-2.1,3.5-5.5,3.8-6.9,3.8c-1.4,0-4.7-0.4-6.9-3.8c-64.2-105.1-102.6-186.4-102.6-217.4C146.6,79.1,195.7,30,256,30z M156.4,374
		c17.9-4.6,39.3-7.8,62.4-9.4c1.6,2.6,3.2,5.3,4.8,7.9c7,11.4,19.1,18.2,32.4,18.2c13.4,0,25.5-6.8,32.4-18.2
		c1.6-2.6,3.2-5.2,4.8-7.9c23.1,1.7,44.5,4.9,62.4,9.4c27.4,7,37.4,14.8,39.5,17.9c-2.1,3-12.1,10.9-39.5,17.9
		c-27.2,6.9-62.6,10.7-99.6,10.7s-72.4-3.8-99.6-10.7c-27.4-7-37.4-14.8-39.5-17.9C118.9,388.8,128.9,381,156.4,374z"/>
	<path class="st0" d="M468.3,359c-7.3-4-16.4-1.3-20.4,5.9c-4,7.3-1.3,16.4,5.9,20.4c17.9,9.8,28.1,20.7,28.1,29.9
		c0,11.2-15.9,28.6-60.4,43.7c-44,15-102.8,23.2-165.6,23.2s-121.6-8.2-165.6-23.2C45.9,443.7,30,426.3,30,415.1
		c0-9.2,10.2-20,28.1-29.9c7.3-4,9.9-13.1,5.9-20.4c-4-7.3-13.1-9.9-20.4-5.9C23.7,369.9,0,388.5,0,415.1c0,20.4,14,49.4,80.8,72.1
		c47,16,109.3,24.8,175.2,24.8s128.2-8.8,175.2-24.8c66.8-22.7,80.8-51.7,80.8-72.1C512,388.5,488.3,369.9,468.3,359z"/>
	<path class="st0" d="M312,129.9c0-30.9-25.1-56-56-56s-56,25.1-56,56c0,30.9,25.1,56,56,56S312,160.8,312,129.9z M230,129.9
		c0-14.4,11.7-26,26-26s26,11.7,26,26s-11.7,26-26,26S230,144.2,230,129.9z"/>
</g>
</svg>
