<?xml version="1.0" encoding="utf-8"?>
<!-- Generator: Adobe Illustrator 23.0.1, SVG Export Plug-In . SVG Version: 6.00 Build 0)  -->
<svg version="1.1" id="Layer_1" xmlns="http://www.w3.org/2000/svg" xmlns:xlink="http://www.w3.org/1999/xlink" x="0px" y="0px"
	 viewBox="0 0 500 500" style="enable-background:new 0 0 500 500;" xml:space="preserve">
<style type="text/css">
	.st0{fill:#35BC42;}
</style>
<g>
	<path class="st0" d="M348.76,269.95c-5.06-0.89-8.72-1.67-12.42-2.17c-24.44-3.36-66.96,6.55-82.51,38.81
		c-11.45,23.75-11.86,48.19-5.52,73.17c5.36,21.11,15.4,39.89,29.84,58.03c-7.43,1.01-13.89,2.28-20.4,2.72
		c-31.06,2.08-62.07,3.93-93.28,1.91c-32.67-2.11-65.21-4.89-96.98-12.85c-13.89-3.48-27.46-8.82-40.54-14.71
		C14.58,409.3,7.94,399.5,8.12,384.8c0.42-35.42,7.48-69.18,25.34-99.8c15.6-26.74,39.73-42.14,70.24-48.49
		c7.89-1.64,14.83-7.91,22.14-12.17c2.52-1.47,4.68-3.57,7.25-4.9c5.99-3.11,10.23-0.48,13.8,4.51
		c13.96,19.44,28.03,38.81,42.02,58.23c6.54,9.07,8.49,9.11,15.18-0.08c13.96-19.17,27.86-38.37,41.8-57.55
		c5.85-8.05,10.98-9.09,18.6-2.49c9.94,8.61,20.85,14.02,33.91,16.9C317.92,243.24,334.41,253.74,348.76,269.95z"/>
	<path class="st0" d="M193.88,10.09c12.62,2.99,25.75,4.66,37.78,9.22c34.11,12.96,43.49,48.09,41.3,75
		c-0.29,3.63,0.1,7.7,1.48,11.01c7.85,18.8,4.01,39.22-9.9,53.72c-2.98,3.1-4.74,7.58-6.42,11.69
		c-7.51,18.3-17.96,34.39-34.13,46.22c-18.83,13.78-40.88,13.64-59.57-0.23c-15.11-11.22-25.35-26.18-32.58-43.29
		c-3.08-7.28-6.97-13.63-11.99-19.96c-10.78-13.57-11.86-29.56-6.59-46.12c1.56-4.92,2.76-10.4,2.3-15.45
		c-2.87-31.49,11.2-55.73,40.07-68.16c8.19-3.53,16.11-7.75,24.47-10.81c4.08-1.49,8.87-1.04,13.34-1.47
		C193.59,11.01,193.73,10.55,193.88,10.09z M126.94,89.88c-2.07,7.88-4.46,15.26-5.9,22.81c-2.54,13.33-2.72,26.28,6.72,37.75
		c4.35,5.28,8.28,11.19,11.09,17.4c7.85,17.36,17.4,33.2,33.9,43.74c14.39,9.19,28.98,9.15,43.27,0.03
		c17.31-11.05,27.22-27.8,34.86-46.29c2.03-4.91,4.44-10.07,7.99-13.88c10.33-11.07,15-28.74,7.24-41.8
		c-9.22-15.5-20.85-29.56-31.57-44.43c-6.53,2.74-13,6.1-19.86,8.05c-3.02,0.86-7.91,0-10.1-2.06c-4.96-4.64-9.72-5.22-15.34-2.35
		c-6.03,3.08-11.84,6.59-18.02,9.31c-1.7,0.75-5.38,0.09-6.41-1.26c-5.37-7.03-5.93-7.46-13.48-2.76
		C142.75,79.48,134.35,85.08,126.94,89.88z"/>
	<path class="st0" d="M499.99,349.71c-0.86,37.34-17.69,67.53-42.97,93.51c-21.59,22.19-46.63,39.85-75.01,52.46
		c-2.45,1.09-6.35,1.23-8.65,0.03c-32.5-16.92-62.23-37.55-85.46-66.4c-19.23-23.88-31.35-50.91-30.92-81.89
		c0.33-23.46,7.46-45.24,29.86-57.09c27.34-14.46,54.95-14.24,81.44,3.28c10.11,6.69,10.13,6.66,20.15-0.31
		c28-19.47,74.24-15.72,95.49,8.08C496.14,315.05,500.2,331.7,499.99,349.71z M491.29,349.59c0-2.03,0.18-4.08-0.03-6.1
		c-2.02-19.2-7.86-36.64-26.29-46.05c-21.94-11.2-56.92-11.89-78.61,8.71c-7.41,7.03-5.39,7.8-15.3,0.28
		c-17.11-12.98-35.54-20.7-57.87-16.29c-38.85,7.69-47.29,33.25-47.31,60.13c-0.02,24.4,9.16,46.21,23.24,65.97
		c22.04,30.94,52.07,52.24,85.02,69.88c2.22,1.19,6.23,0.74,8.68-0.44c29.42-14.22,55.28-33.33,76.56-58.19
		C478.51,405.14,490.46,379.57,491.29,349.59z"/>
	<path class="st0" d="M388.4,375.38c7.79,0,14.72,0.15,21.63-0.06c4.08-0.12,5.63,1.37,5.56,5.5c-0.34,18.05,1.95,14.67-14.36,15.01
		c-3.99,0.08-7.99,0.01-12.83,0.01c0,7.75-0.14,14.68,0.05,21.6c0.11,4.09-1.5,5.63-5.58,5.56c-18.19-0.31-14.56,2.1-14.91-14.32
		c-0.09-3.99-0.01-7.98-0.01-12.84c-7.79,0-14.72-0.15-21.63,0.06c-4.08,0.12-5.63-1.38-5.55-5.51c0.34-18.05-1.95-14.67,14.36-15
		c3.99-0.08,7.99-0.01,12.83-0.01c0-7.76,0.14-14.68-0.05-21.6c-0.11-4.09,1.5-5.63,5.58-5.56c18.19,0.31,14.55-2.1,14.91,14.32
		C388.47,366.52,388.4,370.51,388.4,375.38z"/>
</g>
</svg>
