<?xml version="1.0" encoding="utf-8"?>
<!-- Generator: Adobe Illustrator 23.0.1, SVG Export Plug-In . SVG Version: 6.00 Build 0)  -->
<svg version="1.1" id="Capa_1" xmlns="http://www.w3.org/2000/svg" xmlns:xlink="http://www.w3.org/1999/xlink" x="0px" y="0px"
	 viewBox="0 0 512 512" style="enable-background:new 0 0 512 512;" xml:space="preserve">
<style type="text/css">
	.st0{fill:#0A54C9;}
</style>
<g>
	<g>
		<path class="st0" d="M462.8,462.8H304.4c3.6-6.1,5.7-13.1,5.7-20.7v-66.1l1.4-3.8l0.2,1.3c0.2,1.1,0.6,2.1,1.1,3l34,58.8
			c11.1,19.3,35.9,25.9,55.2,14.8c9.3-5.4,16-14.1,18.8-24.5c2.8-10.4,1.4-21.3-4-30.7l-33.1-57.3l-9.1-53.7V145.1
			c0-18.2-10.3-34-25.6-41.7c7.5-10.9,11.5-23.9,11.5-37.3C360.6,29.7,331,0,294.5,0c-36.5,0-66.1,29.7-66.1,66.1
			c0,22.9,11.5,43.5,30.2,55.5l-45.3,54.4l-47.7,33.7c-6.7,4.8-11.2,11.9-12.6,20c-1,5.5-0.4,11.1,1.6,16.2l-31.6-15.8v-13.6
			c0-4.2-2.7-8-6.7-9.3l-59.1-19.7c-3-1-6.3-0.5-8.9,1.4c-2.6,1.9-4.1,4.8-4.1,8v39.4c0,4.2,2.7,8,6.7,9.3l2.7,0.9l-9,216.7
			c-11.4,2.1-20.1,12.2-20.1,24.2c0,13.6,11,24.6,24.6,24.6h413.5c13.6,0,24.6-11,24.6-24.6C487.4,473.8,476.3,462.8,462.8,462.8z
			 M172.5,233.1c0.5-2.9,2.1-5.5,4.6-7.2l46.8-33.1c1.3-0.6,2.5-1.5,3.4-2.6l51.1-61.5c0.3-0.4,0.6-0.7,0.8-1.1
			c0.6-0.9,1.2-1.8,2-2.7c0,0,0.1-0.1,0.1-0.1c3.8-4.2,9.2-6.7,14.8-6.7c5.4,0,9.8-4.4,9.8-9.8c0-5.4-4.4-9.8-9.8-9.8
			c-8.8,0-17.3,2.9-24.1,8.2c-14.7-8.1-23.9-23.5-23.9-40.6c0-25.6,20.8-46.4,46.4-46.4s46.4,20.8,46.4,46.4
			c0,13.4-5.8,26.1-15.9,35c-3,2.6-4.1,6.7-2.9,10.4c1.2,3.7,4.5,6.4,8.5,6.8c13.9,1.3,24.4,12.8,24.4,26.8v139.5
			c0,0.6,0,1.1,0.1,1.7l9.6,56.3c0.2,1.2,0.6,2.3,1.2,3.3l34,58.8c2.8,4.8,3.5,10.4,2.1,15.7c-1.4,5.3-4.9,9.8-9.6,12.6
			c-9.9,5.7-22.6,2.3-28.3-7.6L330.8,368l-6.1-31.4l14-37.7c1.9-5.1-0.7-10.8-5.8-12.7c-5.1-1.9-10.8,0.7-12.7,5.8l-15,40.3
			l-14.3,38.4c-0.4,1.1-0.6,2.3-0.6,3.4v67.9c0,11.4-9.3,20.7-20.7,20.7c-11.4,0-20.7-9.3-20.7-20.7v-66.3l26.6-77.2
			c0.4-1,0.5-2.1,0.5-3.2V197l21.8-26.2c3.5-4.2,2.9-10.4-1.3-13.9c-4.2-3.5-10.4-2.9-13.9,1.3l-24,28.9L244.9,204l-7.2,6.4
			l-47.7,33.7c-1.9,1.3-4,2-6.1,2h-0.4c-3.5,0-6.9-1.6-9.1-4.7C172.6,239,172,236,172.5,233.1z M113.2,265.8c2,0,4.1-0.6,5.8-1.9
			c2.6-1.9,4.1-4.8,4.1-8v-3.8l25.1,12.6c1.4,0.7,2.9,1,4.4,1h78.8c5.4,0,9.8-4.4,9.8-9.8s-4.4-9.8-9.8-9.8h-10.2l28.3-20
			c0.3-0.2,0.6-0.5,0.9-0.7l6.1-5.5v73.8l-26.6,77.2c-0.4,1-0.5,2.1-0.5,3.2v67.9c0,7.6,2.1,14.6,5.7,20.7H94l8.3-200l7.8,2.6
			C111.1,265.7,112.2,265.8,113.2,265.8z M64,210.6l39.4,13.1v18.6l-7.3-2.4h0l-3.9-1.3L64,229.2V210.6z M82.9,256.3l-8.6,206.5
			h-9.8L73.2,253L82.9,256.3z M462.8,492.3H49.2c-2.7,0-4.9-2.2-4.9-4.9s2.2-4.9,4.9-4.9h413.5c2.7,0,4.9,2.2,4.9,4.9
			C467.7,490.1,465.5,492.3,462.8,492.3z"/>
	</g>
</g>
</svg>
