<?xml version="1.0" encoding="utf-8"?>
<!-- Generator: Adobe Illustrator 23.0.1, SVG Export Plug-In . SVG Version: 6.00 Build 0)  -->
<svg version="1.1" id="Layer_1" xmlns="http://www.w3.org/2000/svg" xmlns:xlink="http://www.w3.org/1999/xlink" x="0px" y="0px"
	 viewBox="0 0 500 500" style="enable-background:new 0 0 500 500;" xml:space="preserve">
<style type="text/css">
	.st0{fill:#EFDA18;}
</style>
<g>
	<path class="st0" d="M213.19,303.12c0-14.77,0.08-29.07-0.12-43.37c-0.02-1.44-1.41-3.47-2.73-4.19
		c-25.38-13.77-41.87-34.59-49.65-62.31c-0.72-2.57-1.88-3.16-4.25-3.11c-3.61,0.08-7.29,0.27-10.82-0.3
		c-12.66-2.06-21.69-12.78-21.94-25.71c-0.08-4.4-0.07-8.8-0.01-13.2c0.18-15.52,11.37-26.67,26.85-26.79c2.03-0.02,4.07,0,6.82,0
		c0-5.21,0.05-10.18-0.01-15.15c-0.25-21.6,5.92-41.21,18.4-58.79c23.49-33.1,64.6-48.15,103.56-38.07
		c38.98,10.1,68.26,43.79,72.47,83.79c0.77,7.32,0.42,14.76,0.57,22.14c0.04,1.85,0.01,3.7,0.01,6.08c2.95,0,5.42-0.04,7.88,0.01
		c14.14,0.3,25.37,11.37,25.75,25.48c0.14,5.03,0.14,10.06,0,15.09c-0.38,13.88-11.48,25-25.32,25.44
		c-3.43,0.11-6.87,0.02-9.43,0.02c-3.96,9.27-7.03,18.23-11.47,26.45c-9.11,16.88-22.57,29.68-39.56,38.6
		c-2.7,1.42-3.85,2.88-3.8,6.07c0.21,13.82,0.09,27.65,0.09,41.91c11.25,3.22,22.37,6.41,33.51,9.57
		c27.17,7.71,54.41,15.2,81.5,23.17c27.9,8.21,45.95,31.98,46.78,61.06c0.26,8.95,0.12,17.92,0.05,26.88
		c-0.04,5.66-2.6,8.7-7.07,8.73c-4.49,0.03-6.96-2.97-7.05-8.64c-0.16-10.37,0.31-20.79-0.55-31.1
		c-1.75-20.8-15.76-37.49-35.88-43.28c-38.76-11.14-77.57-22.07-116.37-33.07c-8.23-2.33-9.1-3.46-9.09-12.2
		c0-13.66,0-27.32,0-41.68c-18.39,4.85-36.47,5.27-54.97-0.27c0,12.58-0.1,24.5,0.02,36.42c0.17,16.96,0.05,15.17-14.67,19.37
		c-35.91,10.25-71.86,20.34-107.8,30.49c-25.32,7.15-39.36,25.62-39.41,51.9c-0.02,7.86,0.04,15.72-0.02,23.58
		c-0.04,5.41-2.44,8.33-6.73,8.48c-4.48,0.15-7.45-2.94-7.35-8.42c0.23-12.71-0.79-25.69,1.44-38.07
		c4.74-26.33,21.16-43.21,46.85-50.63c36.33-10.49,72.75-20.69,109.12-31.02C210.15,304.09,211.49,303.65,213.19,303.12z
		 M338.73,136.19c-0.57-13.63,0.17-29.21-2.11-44.32c-6.83-45.25-52.68-76.32-97.47-67.1c-39.12,8.06-66.71,41.05-67.53,81.44
		c-0.43,20.9-0.05,41.81-0.05,62.71c0,11.98,2.75,23.33,7.77,34.17c15.75,34.03,50.75,53.3,87.77,48.3
		c34.86-4.7,64.56-33.65,69.77-69.68C338.96,167.34,338.16,152.56,338.73,136.19z M157.18,138.28c-2.17,0-4.01-0.02-5.84,0
		c-8.63,0.08-13.4,4.76-13.52,13.3c-0.04,2.98,0.24,5.98-0.05,8.93c-1.14,11.54,7.04,17.99,19.42,14.82
		C157.18,163.11,157.18,150.94,157.18,138.28z M352.46,138.34c0,12.82,0,25.1,0,37.67c2.76,0,5.26,0.12,7.74-0.02
		c6.63-0.38,11.36-5.14,11.61-11.82c0.17-4.69,0.17-9.4,0-14.1c-0.24-6.43-4.88-11.2-11.24-11.7
		C358.08,138.18,355.57,138.34,352.46,138.34z"/>
	<path class="st0" d="M102.37,477.54c0-8.02-0.01-15.84,0.01-23.66c0-1.73-0.07-3.48,0.21-5.17c0.65-3.96,3.08-6.19,7.13-6.06
		c4.04,0.13,6.54,2.45,6.66,6.5c0.23,7.54,0.14,15.08,0.18,22.63c0.01,1.85,0,3.7,0,5.8c92.36,0,184.21,0,276.57,0
		c0-7.69-0.01-15.2,0-22.7c0-1.89-0.05-3.78,0.1-5.65c0.32-4.04,2.58-6.33,6.61-6.63c3.88-0.29,6.95,2.24,7.27,6.43
		c0.35,4.53,0.17,9.11,0.19,13.66c0.02,4.85,0,9.7,0,14.86c12.35,0,24.35,0,36.89,0c0-5.79-0.04-11.4,0.01-17.02
		c0.05-5.56,2.66-8.77,6.99-8.76c4.29,0.01,7.06,3.29,7.12,8.77c0.09,7.54,0.1,15.09,0,22.63c-0.08,6.36-2.59,8.81-8.96,8.82
		c-26.56,0.03-53.12,0.01-79.68,0.01c-102.47,0-204.93,0-307.4,0c-9.1,0-10.93-1.86-10.95-11.1c-0.01-6.6-0.06-13.2-0.02-19.8
		c0.03-5.86,2.63-9.27,7.03-9.37c4.43-0.1,7.09,3.26,7.14,9.12c0.04,5.47,0.01,10.94,0.01,16.7
		C77.91,477.54,89.9,477.54,102.37,477.54z"/>
	<path class="st0" d="M254.85,36.94c30.39,0.01,56.5,21.17,62.9,50.99c6.36,29.63-9.31,59.89-37.56,72.13
		c-2.91,1.26-4.21,2.71-4.88,5.93c-2.09,10.02-11.69,16.72-22.03,15.98c-10.21-0.73-18.51-8.38-19.33-18.55
		c-0.54-6.71-0.52-13.51-0.17-20.25c0.6-11.51,8.78-19.39,20.31-20.14c13.28-0.86,22.25-9.38,22.48-21.35
		c0.23-12.07-8.91-21.78-20.9-22.22c-12.07-0.44-21.83,8.48-22.52,20.57c-0.61,10.71-5.65,18.12-14.36,21.14
		c-13.61,4.72-27.8-5.22-28.12-19.71C189.88,66.45,219.23,36.93,254.85,36.94z M247.77,152.36c0.01,0,0.01,0,0.02,0
		c0,2.51-0.09,5.03,0.02,7.54c0.21,5.02,2.69,7.82,6.86,7.91c4.37,0.1,6.92-2.75,7.19-8.04c0.41-8.04,0.85-8.62,8.24-11.01
		c26.95-8.71,41.36-37.68,31.95-64.23c-9.43-26.6-38.77-40.17-65.17-30.12c-19.03,7.24-32.73,27.03-32.06,46.27
		c0.15,4.21,2.63,7.11,6.36,7.43c3.96,0.35,7.11-2.32,7.7-6.61c0.15-1.08,0.08-2.2,0.15-3.29c1.21-18.23,16.89-32.76,35.53-32.94
		c18.57-0.17,34.53,14.15,36.07,32.37c1.6,18.91-11.38,35.94-29.59,38.83c-13.26,2.11-13.26,2.11-13.26,15.43
		C247.77,152.05,247.77,152.2,247.77,152.36z"/>
	<path class="st0" d="M255,241.49c-14.53,0-26.09-11.53-26.04-25.95c0.06-14.27,11.46-25.69,25.73-25.77
		c14.46-0.08,25.99,11.41,26.02,25.96C280.75,229.91,269.2,241.49,255,241.49z M255.05,203.96c-6.53-0.11-11.72,4.83-11.88,11.32
		c-0.17,6.52,4.74,11.77,11.22,11.99c6.72,0.23,12.06-4.86,12.12-11.56C266.56,209.2,261.56,204.07,255.05,203.96z"/>
</g>
</svg>
